<svg width="520" height="324" viewBox="0 0 520 324" fill="none" xmlns="http://www.w3.org/2000/svg">
<g filter="url(#filter0_dddddd_1508_21499)">
<rect x="80" y="0.432617" width="360" height="143" rx="8" fill="#282C34"/>
<path d="M97.582 28.4424H99.4219V21.833L97.2188 22.8936V21.7568L99.4102 20.7139H100.594V28.4424H102.41V29.4326H97.582V28.4424ZM98.1855 46.4365H102.205V47.4326H96.8906V46.4365C97.6211 45.667 98.2598 44.9873 98.8066 44.3975C99.3535 43.8076 99.7305 43.3916 99.9375 43.1494C100.328 42.6729 100.592 42.2881 100.729 41.9951C100.865 41.6982 100.934 41.3955 100.934 41.0869C100.934 40.5986 100.789 40.2158 100.5 39.9385C100.215 39.6611 99.8223 39.5225 99.3223 39.5225C98.9668 39.5225 98.5938 39.5869 98.2031 39.7158C97.8125 39.8447 97.3984 40.04 96.9609 40.3018V39.1064C97.3633 38.915 97.7578 38.7705 98.1445 38.6729C98.5352 38.5752 98.9199 38.5264 99.2988 38.5264C100.154 38.5264 100.842 38.7549 101.361 39.2119C101.885 39.665 102.146 40.2607 102.146 40.999C102.146 41.374 102.059 41.749 101.883 42.124C101.711 42.499 101.43 42.9131 101.039 43.3662C100.82 43.6201 100.502 43.9717 100.084 44.4209C99.6699 44.8701 99.0371 45.542 98.1855 46.4365ZM100.547 60.751C101.121 60.9033 101.561 61.1748 101.865 61.5654C102.17 61.9521 102.322 62.4365 102.322 63.0186C102.322 63.8232 102.051 64.4561 101.508 64.917C100.969 65.374 100.221 65.6025 99.2637 65.6025C98.8613 65.6025 98.4512 65.5654 98.0332 65.4912C97.6152 65.417 97.2051 65.3096 96.8027 65.1689V63.9912C97.2012 64.1982 97.5938 64.3525 97.9805 64.4541C98.3672 64.5557 98.752 64.6064 99.1348 64.6064C99.7832 64.6064 100.281 64.46 100.629 64.167C100.977 63.874 101.15 63.4521 101.15 62.9014C101.15 62.3936 100.977 61.9912 100.629 61.6943C100.281 61.3936 99.8105 61.2432 99.2168 61.2432H98.3145V60.2705H99.2168C99.7598 60.2705 100.184 60.1514 100.488 59.9131C100.793 59.6748 100.945 59.3428 100.945 58.917C100.945 58.4678 100.803 58.124 100.518 57.8857C100.236 57.6436 99.834 57.5225 99.3105 57.5225C98.9629 57.5225 98.6035 57.5615 98.2324 57.6396C97.8613 57.7178 97.4727 57.835 97.0664 57.9912V56.9014C97.5391 56.7764 97.959 56.6826 98.3262 56.6201C98.6973 56.5576 99.0254 56.5264 99.3105 56.5264C100.162 56.5264 100.842 56.7412 101.35 57.1709C101.861 57.5967 102.117 58.1631 102.117 58.8701C102.117 59.3506 101.982 59.751 101.713 60.0713C101.447 60.3916 101.059 60.6182 100.547 60.751ZM100.307 75.7627L97.5469 80.3857H100.307V75.7627ZM100.113 74.6846H101.484V80.3857H102.65V81.3467H101.484V83.4326H100.307V81.3467H96.5977V80.2275L100.113 74.6846ZM97.2129 92.6846H101.643V93.6807H98.291V95.8311C98.459 95.7686 98.627 95.7236 98.7949 95.6963C98.9668 95.665 99.1387 95.6494 99.3105 95.6494C100.217 95.6494 100.936 95.917 101.467 96.4521C101.998 96.9873 102.264 97.7119 102.264 98.626C102.264 99.5479 101.984 100.274 101.426 100.806C100.871 101.337 100.111 101.603 99.1465 101.603C98.6816 101.603 98.2559 101.571 97.8691 101.509C97.4863 101.446 97.1426 101.353 96.8379 101.228V100.026C97.1973 100.222 97.5586 100.368 97.9219 100.466C98.2852 100.56 98.6562 100.606 99.0352 100.606C99.6875 100.606 100.189 100.435 100.541 100.091C100.896 99.7471 101.074 99.2588 101.074 98.626C101.074 98.001 100.891 97.5146 100.523 97.167C100.16 96.8193 99.6523 96.6455 99 96.6455C98.6836 96.6455 98.375 96.6826 98.0742 96.7568C97.7734 96.8271 97.4863 96.9346 97.2129 97.0791V92.6846Z" fill="white" fill-opacity="0.4"/>
<path d="M110.312 22.8936H113.072V28.5947H115.211V29.4326H109.855V28.5947H111.994V23.7314H110.312V22.8936ZM111.994 20.3447H113.072V21.7041H111.994V20.3447ZM118.652 23.5381C118.785 23.2568 118.953 23.0498 119.156 22.917C119.363 22.7803 119.611 22.7119 119.9 22.7119C120.428 22.7119 120.799 22.917 121.014 23.3271C121.232 23.7334 121.342 24.501 121.342 25.6299V29.4326H120.357V25.6768C120.357 24.751 120.305 24.1768 120.199 23.9541C120.098 23.7275 119.91 23.6143 119.637 23.6143C119.324 23.6143 119.109 23.7354 118.992 23.9775C118.879 24.2158 118.822 24.7822 118.822 25.6768V29.4326H117.838V25.6768C117.838 24.7393 117.781 24.1611 117.668 23.9424C117.559 23.7236 117.359 23.6143 117.07 23.6143C116.785 23.6143 116.586 23.7354 116.473 23.9775C116.363 24.2158 116.309 24.7822 116.309 25.6768V29.4326H115.33V22.8701H116.309V23.4326C116.438 23.1982 116.598 23.0205 116.789 22.8994C116.984 22.7744 117.205 22.7119 117.451 22.7119C117.748 22.7119 117.994 22.7803 118.189 22.917C118.389 23.0537 118.543 23.2607 118.652 23.5381ZM123.119 28.6064V31.9287H122.035V22.8701H123.119V23.708C123.299 23.3838 123.537 23.1377 123.834 22.9697C124.135 22.7979 124.48 22.7119 124.871 22.7119C125.664 22.7119 126.285 23.0186 126.734 23.6318C127.188 24.2451 127.414 25.0947 127.414 26.1807C127.414 27.2471 127.188 28.085 126.734 28.6943C126.281 29.2998 125.66 29.6025 124.871 29.6025C124.473 29.6025 124.123 29.5186 123.822 29.3506C123.525 29.1787 123.291 28.9307 123.119 28.6064ZM126.283 26.1572C126.283 25.3213 126.15 24.6904 125.885 24.2646C125.623 23.8389 125.232 23.626 124.713 23.626C124.189 23.626 123.793 23.8408 123.523 24.2705C123.254 24.6963 123.119 25.3252 123.119 26.1572C123.119 26.9854 123.254 27.6143 123.523 28.0439C123.793 28.4736 124.189 28.6885 124.713 28.6885C125.232 28.6885 125.623 28.4756 125.885 28.0498C126.15 27.624 126.283 26.9932 126.283 26.1572ZM130.762 23.626C130.215 23.626 129.801 23.8389 129.52 24.2646C129.238 24.6904 129.098 25.3213 129.098 26.1572C129.098 26.9893 129.238 27.6201 129.52 28.0498C129.801 28.4756 130.215 28.6885 130.762 28.6885C131.312 28.6885 131.729 28.4756 132.01 28.0498C132.291 27.6201 132.432 26.9893 132.432 26.1572C132.432 25.3213 132.291 24.6904 132.01 24.2646C131.729 23.8389 131.312 23.626 130.762 23.626ZM130.762 22.7119C131.672 22.7119 132.367 23.0068 132.848 23.5967C133.332 24.1865 133.574 25.04 133.574 26.1572C133.574 27.2783 133.334 28.1338 132.854 28.7236C132.373 29.3096 131.676 29.6025 130.762 29.6025C129.852 29.6025 129.156 29.3096 128.676 28.7236C128.195 28.1338 127.955 27.2783 127.955 26.1572C127.955 25.04 128.195 24.1865 128.676 23.5967C129.156 23.0068 129.852 22.7119 130.762 22.7119ZM140.15 24.2236C139.92 24.0439 139.686 23.9131 139.447 23.8311C139.209 23.749 138.947 23.708 138.662 23.708C137.99 23.708 137.477 23.9189 137.121 24.3408C136.766 24.7627 136.588 25.3721 136.588 26.1689V29.4326H135.504V22.8701H136.588V24.1533C136.768 23.6885 137.043 23.333 137.414 23.0869C137.789 22.8369 138.232 22.7119 138.744 22.7119C139.01 22.7119 139.258 22.7451 139.488 22.8115C139.719 22.8779 139.939 22.9814 140.15 23.1221V24.2236ZM143.211 21.0068V22.8701H145.66V23.708H143.211V27.2705C143.211 27.7549 143.303 28.0928 143.486 28.2842C143.67 28.4756 143.99 28.5713 144.447 28.5713H145.66V29.4326H144.342C143.533 29.4326 142.963 29.2705 142.631 28.9463C142.299 28.6221 142.133 28.0635 142.133 27.2705V23.708H140.381V22.8701H142.133V21.0068H143.211ZM108.461 40.8701H109.527L110.67 46.1729L111.607 42.7861H112.527L113.477 46.1729L114.619 40.8701H115.686L114.15 47.4326H113.119L112.07 43.835L111.027 47.4326H109.996L108.461 40.8701ZM116.543 40.8936H119.303V46.5947H121.441V47.4326H116.086V46.5947H118.225V41.7314H116.543V40.8936ZM118.225 38.3447H119.303V39.7041H118.225V38.3447ZM124.52 39.0068V40.8701H126.969V41.708H124.52V45.2705C124.52 45.7549 124.611 46.0928 124.795 46.2842C124.979 46.4756 125.299 46.5713 125.756 46.5713H126.969V47.4326H125.65C124.842 47.4326 124.271 47.2705 123.939 46.9463C123.607 46.6221 123.441 46.0635 123.441 45.2705V41.708H121.689V40.8701H123.441V39.0068H124.52ZM133.311 43.3662V47.4326H132.227V43.3662C132.227 42.7764 132.123 42.3428 131.916 42.0654C131.709 41.7881 131.385 41.6494 130.943 41.6494C130.439 41.6494 130.051 41.8291 129.777 42.1885C129.508 42.5439 129.373 43.0557 129.373 43.7236V47.4326H128.295V38.3154H129.373V41.8545C129.564 41.4795 129.824 41.1963 130.152 41.0049C130.48 40.8096 130.869 40.7119 131.318 40.7119C131.986 40.7119 132.484 40.9326 132.812 41.374C133.145 41.8115 133.311 42.4756 133.311 43.3662ZM143.223 41.626C142.676 41.626 142.262 41.8389 141.98 42.2646C141.699 42.6904 141.559 43.3213 141.559 44.1572C141.559 44.9893 141.699 45.6201 141.98 46.0498C142.262 46.4756 142.676 46.6885 143.223 46.6885C143.773 46.6885 144.189 46.4756 144.471 46.0498C144.752 45.6201 144.893 44.9893 144.893 44.1572C144.893 43.3213 144.752 42.6904 144.471 42.2646C144.189 41.8389 143.773 41.626 143.223 41.626ZM143.223 40.7119C144.133 40.7119 144.828 41.0068 145.309 41.5967C145.793 42.1865 146.035 43.04 146.035 44.1572C146.035 45.2783 145.795 46.1338 145.314 46.7236C144.834 47.3096 144.137 47.6025 143.223 47.6025C142.312 47.6025 141.617 47.3096 141.137 46.7236C140.656 46.1338 140.416 45.2783 140.416 44.1572C140.416 43.04 140.656 42.1865 141.137 41.5967C141.617 41.0068 142.312 40.7119 143.223 40.7119ZM148.041 46.6064V49.9287H146.957V40.8701H148.041V41.708C148.221 41.3838 148.459 41.1377 148.756 40.9697C149.057 40.7979 149.402 40.7119 149.793 40.7119C150.586 40.7119 151.207 41.0186 151.656 41.6318C152.109 42.2451 152.336 43.0947 152.336 44.1807C152.336 45.2471 152.109 46.085 151.656 46.6943C151.203 47.2998 150.582 47.6025 149.793 47.6025C149.395 47.6025 149.045 47.5186 148.744 47.3506C148.447 47.1787 148.213 46.9307 148.041 46.6064ZM151.205 44.1572C151.205 43.3213 151.072 42.6904 150.807 42.2646C150.545 41.8389 150.154 41.626 149.635 41.626C149.111 41.626 148.715 41.8408 148.445 42.2705C148.176 42.6963 148.041 43.3252 148.041 44.1572C148.041 44.9854 148.176 45.6143 148.445 46.0439C148.715 46.4736 149.111 46.6885 149.635 46.6885C150.154 46.6885 150.545 46.4756 150.807 46.0498C151.072 45.624 151.205 44.9932 151.205 44.1572ZM158.637 43.6123V44.1396H153.967V44.1748C153.936 45.0693 154.105 45.7119 154.477 46.1025C154.852 46.4932 155.379 46.6885 156.059 46.6885C156.402 46.6885 156.762 46.6338 157.137 46.5244C157.512 46.415 157.912 46.249 158.338 46.0264V47.0986C157.928 47.2666 157.531 47.3916 157.148 47.4736C156.77 47.5596 156.402 47.6025 156.047 47.6025C155.027 47.6025 154.23 47.2979 153.656 46.6885C153.082 46.0752 152.795 45.2314 152.795 44.1572C152.795 43.1104 153.076 42.2744 153.639 41.6494C154.201 41.0244 154.951 40.7119 155.889 40.7119C156.725 40.7119 157.383 40.9951 157.863 41.5615C158.348 42.1279 158.605 42.8115 158.637 43.6123ZM157.559 43.2959C157.512 42.8428 157.346 42.4521 157.061 42.124C156.779 41.792 156.373 41.626 155.842 41.626C155.322 41.626 154.895 41.7979 154.559 42.1416C154.223 42.4854 154.039 42.8721 154.008 43.3018L157.559 43.2959ZM164.463 43.3662V47.4326H163.379V43.3662C163.379 42.7764 163.275 42.3428 163.068 42.0654C162.861 41.7881 162.537 41.6494 162.096 41.6494C161.592 41.6494 161.203 41.8291 160.93 42.1885C160.66 42.5439 160.525 43.0557 160.525 43.7236V47.4326H159.447V40.8701H160.525V41.8545C160.717 41.4795 160.977 41.1963 161.305 41.0049C161.633 40.8096 162.021 40.7119 162.471 40.7119C163.139 40.7119 163.637 40.9326 163.965 41.374C164.297 41.8115 164.463 42.4756 164.463 43.3662ZM268.324 44.3506C267.684 44.3506 267.236 44.4326 266.982 44.5967C266.729 44.7607 266.602 45.042 266.602 45.4404C266.602 45.7373 266.689 45.9736 266.865 46.1494C267.041 46.3252 267.279 46.4131 267.58 46.4131C268.033 46.4131 268.385 46.2432 268.635 45.9033C268.885 45.5596 269.01 45.0811 269.01 44.4678V44.3506H268.324ZM270.715 43.6885V47.4326H269.01V46.7002C268.803 46.9893 268.537 47.2119 268.213 47.3682C267.889 47.5244 267.531 47.6025 267.141 47.6025C266.395 47.6025 265.812 47.4053 265.395 47.0107C264.98 46.6162 264.773 46.0654 264.773 45.3584C264.773 44.5928 265.021 44.0283 265.518 43.665C266.014 43.2979 266.781 43.1143 267.82 43.1143H269.01V42.8271C269.01 42.5498 268.908 42.3408 268.705 42.2002C268.506 42.0557 268.211 41.9834 267.82 41.9834C267.41 41.9834 267.012 42.0361 266.625 42.1416C266.242 42.2432 265.842 42.4072 265.424 42.6338V41.1689C265.803 41.0127 266.188 40.8975 266.578 40.8232C266.969 40.749 267.383 40.7119 267.82 40.7119C268.887 40.7119 269.635 40.9287 270.064 41.3623C270.498 41.7959 270.715 42.5713 270.715 43.6885ZM276.26 41.0752V42.5752C275.943 42.3721 275.613 42.2197 275.27 42.1182C274.93 42.0127 274.588 41.96 274.244 41.96C273.861 41.96 273.572 42.0166 273.377 42.1299C273.182 42.2393 273.084 42.4033 273.084 42.6221C273.084 42.9346 273.502 43.1885 274.338 43.3838L274.402 43.4014L274.895 43.5186C275.52 43.667 275.977 43.9072 276.266 44.2393C276.559 44.5674 276.705 45.0127 276.705 45.5752C276.705 46.251 276.482 46.7588 276.037 47.0986C275.596 47.4346 274.93 47.6025 274.039 47.6025C273.645 47.6025 273.24 47.5674 272.826 47.4971C272.412 47.4307 271.992 47.3291 271.566 47.1924V45.6924C271.945 45.9072 272.33 46.0713 272.721 46.1846C273.115 46.2979 273.496 46.3545 273.863 46.3545C274.266 46.3545 274.57 46.2959 274.777 46.1787C274.984 46.0615 275.088 45.8916 275.088 45.6689C275.088 45.4502 275.014 45.2822 274.865 45.165C274.721 45.0479 274.373 44.9229 273.822 44.79L273.348 44.6846C272.691 44.5361 272.213 44.3037 271.912 43.9873C271.611 43.6709 271.461 43.2471 271.461 42.7158C271.461 42.083 271.689 41.5908 272.146 41.2393C272.604 40.8877 273.246 40.7119 274.074 40.7119C274.445 40.7119 274.814 40.7432 275.182 40.8057C275.553 40.8643 275.912 40.9541 276.26 41.0752ZM137.713 76.2959V76.8701H139.729V78.1885H137.713V83.4326H135.996V78.1885H134.402V76.8701H135.996V76.4131C135.996 75.624 136.16 75.0771 136.488 74.7725C136.816 74.4678 137.426 74.3154 138.316 74.3154H139.729V75.6338H138.387C138.129 75.6338 137.953 75.6807 137.859 75.7744C137.77 75.8682 137.721 76.042 137.713 76.2959ZM143.223 78.1064C142.812 78.1064 142.49 78.2881 142.256 78.6514C142.021 79.0107 141.904 79.5127 141.904 80.1572C141.904 80.8018 142.021 81.3057 142.256 81.6689C142.49 82.0283 142.812 82.208 143.223 82.208C143.637 82.208 143.961 82.0283 144.195 81.6689C144.43 81.3057 144.547 80.8018 144.547 80.1572C144.547 79.5127 144.43 79.0107 144.195 78.6514C143.961 78.2881 143.637 78.1064 143.223 78.1064ZM140.188 80.1572C140.188 79.0986 140.461 78.2607 141.008 77.6436C141.559 77.0225 142.297 76.7119 143.223 76.7119C144.152 76.7119 144.891 77.0225 145.438 77.6436C145.988 78.2607 146.264 79.0986 146.264 80.1572C146.264 81.2158 145.988 82.0557 145.438 82.6768C144.891 83.2939 144.152 83.6025 143.223 83.6025C142.297 83.6025 141.559 83.2939 141.008 82.6768C140.461 82.0557 140.188 81.2158 140.188 80.1572ZM152.588 78.6807C152.4 78.5088 152.18 78.3799 151.926 78.2939C151.676 78.208 151.4 78.165 151.1 78.165C150.736 78.165 150.418 78.2295 150.145 78.3584C149.875 78.4834 149.666 78.667 149.518 78.9092C149.424 79.0576 149.357 79.2373 149.318 79.4482C149.283 79.6592 149.266 79.9795 149.266 80.4092V83.4326H147.549V76.8701H149.266V77.8896C149.434 77.5146 149.691 77.2256 150.039 77.0225C150.387 76.8154 150.793 76.7119 151.258 76.7119C151.492 76.7119 151.721 76.7412 151.943 76.7998C152.17 76.8545 152.385 76.9365 152.588 77.0459V78.6807ZM184.521 76.8701H187.92V82.1143H190.053V83.4326H184.064V82.1143H186.203V78.1885H184.521V76.8701ZM186.203 73.6768H187.92V75.6807H186.203V73.6768ZM195.732 79.1729V83.4326H194.027V79.4365C194.027 78.96 193.959 78.6201 193.822 78.417C193.689 78.21 193.471 78.1064 193.166 78.1064C192.857 78.1064 192.613 78.2451 192.434 78.5225C192.258 78.7998 192.17 79.1846 192.17 79.6768V83.4326H190.465V76.8701H192.17V77.8545C192.291 77.4912 192.498 77.21 192.791 77.0107C193.084 76.8115 193.438 76.7119 193.852 76.7119C194.473 76.7119 194.941 76.9189 195.258 77.333C195.574 77.7432 195.732 78.3564 195.732 79.1729ZM148.041 100.606V103.929H146.957V94.8701H148.041V95.708C148.221 95.3838 148.459 95.1377 148.756 94.9697C149.057 94.7979 149.402 94.7119 149.793 94.7119C150.586 94.7119 151.207 95.0186 151.656 95.6318C152.109 96.2451 152.336 97.0947 152.336 98.1807C152.336 99.2471 152.109 100.085 151.656 100.694C151.203 101.3 150.582 101.603 149.793 101.603C149.395 101.603 149.045 101.519 148.744 101.351C148.447 101.179 148.213 100.931 148.041 100.606ZM151.205 98.1572C151.205 97.3213 151.072 96.6904 150.807 96.2646C150.545 95.8389 150.154 95.626 149.635 95.626C149.111 95.626 148.715 95.8408 148.445 96.2705C148.176 96.6963 148.041 97.3252 148.041 98.1572C148.041 98.9854 148.176 99.6143 148.445 100.044C148.715 100.474 149.111 100.688 149.635 100.688C150.154 100.688 150.545 100.476 150.807 100.05C151.072 99.624 151.205 98.9932 151.205 98.1572ZM158.842 96.2236C158.611 96.0439 158.377 95.9131 158.139 95.8311C157.9 95.749 157.639 95.708 157.354 95.708C156.682 95.708 156.168 95.9189 155.812 96.3408C155.457 96.7627 155.279 97.3721 155.279 98.1689V101.433H154.195V94.8701H155.279V96.1533C155.459 95.6885 155.734 95.333 156.105 95.0869C156.48 94.8369 156.924 94.7119 157.436 94.7119C157.701 94.7119 157.949 94.7451 158.18 94.8115C158.41 94.8779 158.631 94.9814 158.842 95.1221V96.2236ZM160.156 94.8936H162.916V100.595H165.055V101.433H159.699V100.595H161.838V95.7314H160.156V94.8936ZM161.838 92.3447H162.916V93.7041H161.838V92.3447ZM170.693 97.3662V101.433H169.609V97.3662C169.609 96.7764 169.506 96.3428 169.299 96.0654C169.092 95.7881 168.768 95.6494 168.326 95.6494C167.822 95.6494 167.434 95.8291 167.16 96.1885C166.891 96.5439 166.756 97.0557 166.756 97.7236V101.433H165.678V94.8701H166.756V95.8545C166.947 95.4795 167.207 95.1963 167.535 95.0049C167.863 94.8096 168.252 94.7119 168.701 94.7119C169.369 94.7119 169.867 94.9326 170.195 95.374C170.527 95.8115 170.693 96.4756 170.693 97.3662ZM174.363 93.0068V94.8701H176.812V95.708H174.363V99.2705C174.363 99.7549 174.455 100.093 174.639 100.284C174.822 100.476 175.143 100.571 175.6 100.571H176.812V101.433H175.494C174.686 101.433 174.115 101.271 173.783 100.946C173.451 100.622 173.285 100.063 173.285 99.2705V95.708H171.533V94.8701H173.285V93.0068H174.363ZM187.574 92.3037V95.9541H186.262V92.3037H187.574ZM192.047 99.3174H193.875V100.87L192.574 103.396L191.402 103.401L192.047 100.87V99.3174ZM206.266 92.3037V95.9541H204.953V92.3037H206.266Z" fill="#00C543"/>
<path d="M169.545 37.7412C169.025 38.6318 168.637 39.5205 168.379 40.4072C168.125 41.29 167.998 42.1807 167.998 43.0791C167.998 43.9736 168.125 44.8643 168.379 45.751C168.637 46.6377 169.025 47.5303 169.545 48.4287H168.607C168.018 47.499 167.578 46.5947 167.289 45.7158C167 44.833 166.855 43.9541 166.855 43.0791C166.855 42.208 167 41.3311 167.289 40.4482C167.578 39.5654 168.018 38.6631 168.607 37.7412H169.545ZM253.801 37.7412H254.738C255.328 38.6631 255.768 39.5654 256.057 40.4482C256.346 41.3311 256.49 42.208 256.49 43.0791C256.49 43.958 256.346 44.8389 256.057 45.7217C255.768 46.6045 255.328 47.5068 254.738 48.4287H253.801C254.32 47.5225 254.707 46.626 254.961 45.7393C255.219 44.8525 255.348 43.9658 255.348 43.0791C255.348 42.1885 255.219 41.2998 254.961 40.4131C254.707 39.5264 254.32 38.6357 253.801 37.7412ZM289.131 47.0986C288.842 47.2666 288.543 47.3916 288.234 47.4736C287.93 47.5596 287.617 47.6025 287.297 47.6025C286.281 47.6025 285.486 47.2979 284.912 46.6885C284.342 46.0791 284.057 45.2354 284.057 44.1572C284.057 43.0791 284.342 42.2354 284.912 41.626C285.486 41.0166 286.281 40.7119 287.297 40.7119C287.613 40.7119 287.922 40.7529 288.223 40.835C288.523 40.917 288.826 41.0439 289.131 41.2158V42.3467C288.846 42.0928 288.559 41.9092 288.27 41.7959C287.984 41.6826 287.66 41.626 287.297 41.626C286.621 41.626 286.102 41.8447 285.738 42.2822C285.375 42.7197 285.193 43.3447 285.193 44.1572C285.193 44.9658 285.375 45.5908 285.738 46.0322C286.105 46.4697 286.625 46.6885 287.297 46.6885C287.672 46.6885 288.008 46.6318 288.305 46.5186C288.602 46.4014 288.877 46.2217 289.131 45.9795V47.0986ZM294.846 41.0986V42.1533C294.537 41.9736 294.227 41.8389 293.914 41.749C293.602 41.6592 293.283 41.6143 292.959 41.6143C292.471 41.6143 292.105 41.6943 291.863 41.8545C291.625 42.0107 291.506 42.251 291.506 42.5752C291.506 42.8682 291.596 43.0869 291.775 43.2314C291.955 43.376 292.402 43.5166 293.117 43.6533L293.551 43.7354C294.086 43.8369 294.49 44.04 294.764 44.3447C295.041 44.6494 295.18 45.0459 295.18 45.5342C295.18 46.1826 294.949 46.6904 294.488 47.0576C294.027 47.4209 293.387 47.6025 292.566 47.6025C292.242 47.6025 291.902 47.5674 291.547 47.4971C291.191 47.4307 290.807 47.3291 290.393 47.1924V46.0791C290.795 46.2861 291.18 46.4424 291.547 46.5479C291.914 46.6494 292.262 46.7002 292.59 46.7002C293.066 46.7002 293.436 46.6045 293.697 46.4131C293.959 46.2178 294.09 45.9463 294.09 45.5986C294.09 45.0986 293.611 44.7529 292.654 44.5615L292.607 44.5498L292.203 44.4678C291.582 44.3467 291.129 44.1436 290.844 43.8584C290.559 43.5693 290.416 43.1768 290.416 42.6807C290.416 42.0518 290.629 41.5674 291.055 41.2275C291.48 40.8838 292.088 40.7119 292.877 40.7119C293.229 40.7119 293.566 40.7451 293.891 40.8115C294.215 40.874 294.533 40.9697 294.846 41.0986ZM295.961 40.8701H297.08L298.984 46.3779L300.895 40.8701H302.014L299.682 47.4326H298.293L295.961 40.8701ZM307.834 38.3154V39.2119H306.609C306.223 39.2119 305.953 39.292 305.801 39.4521C305.652 39.6084 305.578 39.8877 305.578 40.29V40.8701H307.834V41.708H305.578V47.4326H304.5V41.708H302.748V40.8701H304.5V40.4131C304.5 39.6943 304.664 39.165 304.992 38.8252C305.324 38.4854 305.84 38.3154 306.539 38.3154H307.834ZM309.688 40.8936H312.447V46.5947H314.586V47.4326H309.23V46.5947H311.369V41.7314H309.688V40.8936ZM311.369 38.3447H312.447V39.7041H311.369V38.3447ZM318.279 45.0596C318.279 45.5439 318.367 45.9092 318.543 46.1553C318.723 46.4014 318.986 46.5244 319.334 46.5244H320.594V47.4326H319.229C318.584 47.4326 318.084 47.2275 317.729 46.8174C317.377 46.4033 317.201 45.8174 317.201 45.0596V39.124H315.473V38.2803H318.279V45.0596ZM326.859 43.6123V44.1396H322.189V44.1748C322.158 45.0693 322.328 45.7119 322.699 46.1025C323.074 46.4932 323.602 46.6885 324.281 46.6885C324.625 46.6885 324.984 46.6338 325.359 46.5244C325.734 46.415 326.135 46.249 326.561 46.0264V47.0986C326.15 47.2666 325.754 47.3916 325.371 47.4736C324.992 47.5596 324.625 47.6025 324.27 47.6025C323.25 47.6025 322.453 47.2979 321.879 46.6885C321.305 46.0752 321.018 45.2314 321.018 44.1572C321.018 43.1104 321.299 42.2744 321.861 41.6494C322.424 41.0244 323.174 40.7119 324.111 40.7119C324.947 40.7119 325.605 40.9951 326.086 41.5615C326.57 42.1279 326.828 42.8115 326.859 43.6123ZM325.781 43.2959C325.734 42.8428 325.568 42.4521 325.283 42.124C325.002 41.792 324.596 41.626 324.064 41.626C323.545 41.626 323.117 41.7979 322.781 42.1416C322.445 42.4854 322.262 42.8721 322.23 43.3018L325.781 43.2959ZM329.041 40.876H330.869V42.9912H329.041V40.876ZM329.041 45.2998H330.869V47.4326H329.041V45.2998ZM120.908 65.0986C120.619 65.2666 120.32 65.3916 120.012 65.4736C119.707 65.5596 119.395 65.6025 119.074 65.6025C118.059 65.6025 117.264 65.2979 116.689 64.6885C116.119 64.0791 115.834 63.2354 115.834 62.1572C115.834 61.0791 116.119 60.2354 116.689 59.626C117.264 59.0166 118.059 58.7119 119.074 58.7119C119.391 58.7119 119.699 58.7529 120 58.835C120.301 58.917 120.604 59.0439 120.908 59.2158V60.3467C120.623 60.0928 120.336 59.9092 120.047 59.7959C119.762 59.6826 119.438 59.626 119.074 59.626C118.398 59.626 117.879 59.8447 117.516 60.2822C117.152 60.7197 116.971 61.3447 116.971 62.1572C116.971 62.9658 117.152 63.5908 117.516 64.0322C117.883 64.4697 118.402 64.6885 119.074 64.6885C119.449 64.6885 119.785 64.6318 120.082 64.5186C120.379 64.4014 120.654 64.2217 120.908 63.9795V65.0986ZM126.623 59.0986V60.1533C126.314 59.9736 126.004 59.8389 125.691 59.749C125.379 59.6592 125.061 59.6143 124.736 59.6143C124.248 59.6143 123.883 59.6943 123.641 59.8545C123.402 60.0107 123.283 60.251 123.283 60.5752C123.283 60.8682 123.373 61.0869 123.553 61.2314C123.732 61.376 124.18 61.5166 124.895 61.6533L125.328 61.7354C125.863 61.8369 126.268 62.04 126.541 62.3447C126.818 62.6494 126.957 63.0459 126.957 63.5342C126.957 64.1826 126.727 64.6904 126.266 65.0576C125.805 65.4209 125.164 65.6025 124.344 65.6025C124.02 65.6025 123.68 65.5674 123.324 65.4971C122.969 65.4307 122.584 65.3291 122.17 65.1924V64.0791C122.572 64.2861 122.957 64.4424 123.324 64.5479C123.691 64.6494 124.039 64.7002 124.367 64.7002C124.844 64.7002 125.213 64.6045 125.475 64.4131C125.736 64.2178 125.867 63.9463 125.867 63.5986C125.867 63.0986 125.389 62.7529 124.432 62.5615L124.385 62.5498L123.98 62.4678C123.359 62.3467 122.906 62.1436 122.621 61.8584C122.336 61.5693 122.193 61.1768 122.193 60.6807C122.193 60.0518 122.406 59.5674 122.832 59.2275C123.258 58.8838 123.865 58.7119 124.654 58.7119C125.006 58.7119 125.344 58.7451 125.668 58.8115C125.992 58.874 126.311 58.9697 126.623 59.0986ZM127.738 58.8701H128.857L130.762 64.3779L132.672 58.8701H133.791L131.459 65.4326H130.07L127.738 58.8701ZM140.555 66.5459V67.542H133.383V66.5459H140.555ZM146.381 60.2236C146.15 60.0439 145.916 59.9131 145.678 59.8311C145.439 59.749 145.178 59.708 144.893 59.708C144.221 59.708 143.707 59.9189 143.352 60.3408C142.996 60.7627 142.818 61.3721 142.818 62.1689V65.4326H141.734V58.8701H142.818V60.1533C142.998 59.6885 143.273 59.333 143.645 59.0869C144.02 58.8369 144.463 58.7119 144.975 58.7119C145.24 58.7119 145.488 58.7451 145.719 58.8115C145.949 58.8779 146.17 58.9814 146.381 59.1221V60.2236ZM152.406 61.6123V62.1396H147.736V62.1748C147.705 63.0693 147.875 63.7119 148.246 64.1025C148.621 64.4932 149.148 64.6885 149.828 64.6885C150.172 64.6885 150.531 64.6338 150.906 64.5244C151.281 64.415 151.682 64.249 152.107 64.0264V65.0986C151.697 65.2666 151.301 65.3916 150.918 65.4736C150.539 65.5596 150.172 65.6025 149.816 65.6025C148.797 65.6025 148 65.2979 147.426 64.6885C146.852 64.0752 146.564 63.2314 146.564 62.1572C146.564 61.1104 146.846 60.2744 147.408 59.6494C147.971 59.0244 148.721 58.7119 149.658 58.7119C150.494 58.7119 151.152 58.9951 151.633 59.5615C152.117 60.1279 152.375 60.8115 152.406 61.6123ZM151.328 61.2959C151.281 60.8428 151.115 60.4521 150.83 60.124C150.549 59.792 150.143 59.626 149.611 59.626C149.092 59.626 148.664 59.7979 148.328 60.1416C147.992 60.4854 147.809 60.8721 147.777 61.3018L151.328 61.2959ZM156.188 62.1338H155.83C155.201 62.1338 154.727 62.2451 154.406 62.4678C154.09 62.6865 153.932 63.0146 153.932 63.4521C153.932 63.8467 154.051 64.1533 154.289 64.3721C154.527 64.5908 154.857 64.7002 155.279 64.7002C155.873 64.7002 156.34 64.4951 156.68 64.085C157.02 63.6709 157.191 63.1006 157.195 62.374V62.1338H156.188ZM158.279 61.6885V65.4326H157.195V64.46C156.965 64.8506 156.674 65.1396 156.322 65.3271C155.975 65.5107 155.551 65.6025 155.051 65.6025C154.383 65.6025 153.85 65.415 153.451 65.04C153.053 64.6611 152.854 64.1553 152.854 63.5225C152.854 62.792 153.098 62.2373 153.586 61.8584C154.078 61.4795 154.799 61.29 155.748 61.29H157.195V61.1201C157.191 60.5967 157.059 60.2178 156.797 59.9834C156.535 59.7451 156.117 59.626 155.543 59.626C155.176 59.626 154.805 59.6787 154.43 59.7842C154.055 59.8896 153.689 60.0439 153.334 60.2471V59.1689C153.732 59.0166 154.113 58.9033 154.477 58.8291C154.844 58.751 155.199 58.7119 155.543 58.7119C156.086 58.7119 156.549 58.792 156.932 58.9521C157.318 59.1123 157.631 59.3525 157.869 59.6729C158.018 59.8682 158.123 60.1104 158.186 60.3994C158.248 60.6846 158.279 61.1143 158.279 61.6885ZM163.332 59.708V56.3154H164.41V65.4326H163.332V64.6064C163.152 64.9307 162.912 65.1787 162.611 65.3506C162.314 65.5186 161.971 65.6025 161.58 65.6025C160.787 65.6025 160.162 65.2959 159.705 64.6826C159.252 64.0654 159.025 63.2158 159.025 62.1338C159.025 61.0674 159.254 60.2314 159.711 59.626C160.168 59.0166 160.791 58.7119 161.58 58.7119C161.975 58.7119 162.322 58.7979 162.623 58.9697C162.924 59.1377 163.16 59.3838 163.332 59.708ZM160.162 62.1572C160.162 62.9932 160.295 63.624 160.561 64.0498C160.826 64.4756 161.219 64.6885 161.738 64.6885C162.258 64.6885 162.652 64.4736 162.922 64.0439C163.195 63.6143 163.332 62.9854 163.332 62.1572C163.332 61.3252 163.195 60.6963 162.922 60.2705C162.652 59.8408 162.258 59.626 161.738 59.626C161.219 59.626 160.826 59.8389 160.561 60.2646C160.295 60.6904 160.162 61.3213 160.162 62.1572ZM171.098 61.6123V62.1396H166.428V62.1748C166.396 63.0693 166.566 63.7119 166.938 64.1025C167.312 64.4932 167.84 64.6885 168.52 64.6885C168.863 64.6885 169.223 64.6338 169.598 64.5244C169.973 64.415 170.373 64.249 170.799 64.0264V65.0986C170.389 65.2666 169.992 65.3916 169.609 65.4736C169.23 65.5596 168.863 65.6025 168.508 65.6025C167.488 65.6025 166.691 65.2979 166.117 64.6885C165.543 64.0752 165.256 63.2314 165.256 62.1572C165.256 61.1104 165.537 60.2744 166.1 59.6494C166.662 59.0244 167.412 58.7119 168.35 58.7119C169.186 58.7119 169.844 58.9951 170.324 59.5615C170.809 60.1279 171.066 60.8115 171.098 61.6123ZM170.02 61.2959C169.973 60.8428 169.807 60.4521 169.521 60.124C169.24 59.792 168.834 59.626 168.303 59.626C167.783 59.626 167.355 59.7979 167.02 60.1416C166.684 60.4854 166.5 60.8721 166.469 61.3018L170.02 61.2959ZM177.533 60.2236C177.303 60.0439 177.068 59.9131 176.83 59.8311C176.592 59.749 176.33 59.708 176.045 59.708C175.373 59.708 174.859 59.9189 174.504 60.3408C174.148 60.7627 173.971 61.3721 173.971 62.1689V65.4326H172.887V58.8701H173.971V60.1533C174.15 59.6885 174.426 59.333 174.797 59.0869C175.172 58.8369 175.615 58.7119 176.127 58.7119C176.393 58.7119 176.641 58.7451 176.871 58.8115C177.102 58.8779 177.322 58.9814 177.533 59.1221V60.2236ZM183.742 62.5029H189.936V63.4932H183.742V62.5029ZM183.742 59.7432H189.936V60.7334H183.742V59.7432ZM201.904 65.0986C201.615 65.2666 201.316 65.3916 201.008 65.4736C200.703 65.5596 200.391 65.6025 200.07 65.6025C199.055 65.6025 198.26 65.2979 197.686 64.6885C197.115 64.0791 196.83 63.2354 196.83 62.1572C196.83 61.0791 197.115 60.2354 197.686 59.626C198.26 59.0166 199.055 58.7119 200.07 58.7119C200.387 58.7119 200.695 58.7529 200.996 58.835C201.297 58.917 201.6 59.0439 201.904 59.2158V60.3467C201.619 60.0928 201.332 59.9092 201.043 59.7959C200.758 59.6826 200.434 59.626 200.07 59.626C199.395 59.626 198.875 59.8447 198.512 60.2822C198.148 60.7197 197.967 61.3447 197.967 62.1572C197.967 62.9658 198.148 63.5908 198.512 64.0322C198.879 64.4697 199.398 64.6885 200.07 64.6885C200.445 64.6885 200.781 64.6318 201.078 64.5186C201.375 64.4014 201.65 64.2217 201.904 63.9795V65.0986ZM207.619 59.0986V60.1533C207.311 59.9736 207 59.8389 206.688 59.749C206.375 59.6592 206.057 59.6143 205.732 59.6143C205.244 59.6143 204.879 59.6943 204.637 59.8545C204.398 60.0107 204.279 60.251 204.279 60.5752C204.279 60.8682 204.369 61.0869 204.549 61.2314C204.729 61.376 205.176 61.5166 205.891 61.6533L206.324 61.7354C206.859 61.8369 207.264 62.04 207.537 62.3447C207.814 62.6494 207.953 63.0459 207.953 63.5342C207.953 64.1826 207.723 64.6904 207.262 65.0576C206.801 65.4209 206.16 65.6025 205.34 65.6025C205.016 65.6025 204.676 65.5674 204.32 65.4971C203.965 65.4307 203.58 65.3291 203.166 65.1924V64.0791C203.568 64.2861 203.953 64.4424 204.32 64.5479C204.688 64.6494 205.035 64.7002 205.363 64.7002C205.84 64.7002 206.209 64.6045 206.471 64.4131C206.732 64.2178 206.863 63.9463 206.863 63.5986C206.863 63.0986 206.385 62.7529 205.428 62.5615L205.381 62.5498L204.977 62.4678C204.355 62.3467 203.902 62.1436 203.617 61.8584C203.332 61.5693 203.189 61.1768 203.189 60.6807C203.189 60.0518 203.402 59.5674 203.828 59.2275C204.254 58.8838 204.861 58.7119 205.65 58.7119C206.002 58.7119 206.34 58.7451 206.664 58.8115C206.988 58.874 207.307 58.9697 207.619 59.0986ZM208.734 58.8701H209.854L211.758 64.3779L213.668 58.8701H214.787L212.455 65.4326H211.066L208.734 58.8701ZM216.658 63.0654H218.721V65.4326H216.658V63.0654ZM227.377 60.2236C227.146 60.0439 226.912 59.9131 226.674 59.8311C226.436 59.749 226.174 59.708 225.889 59.708C225.217 59.708 224.703 59.9189 224.348 60.3408C223.992 60.7627 223.814 61.3721 223.814 62.1689V65.4326H222.73V58.8701H223.814V60.1533C223.994 59.6885 224.27 59.333 224.641 59.0869C225.016 58.8369 225.459 58.7119 225.971 58.7119C226.236 58.7119 226.484 58.7451 226.715 58.8115C226.945 58.8779 227.166 58.9814 227.377 59.1221V60.2236ZM233.402 61.6123V62.1396H228.732V62.1748C228.701 63.0693 228.871 63.7119 229.242 64.1025C229.617 64.4932 230.145 64.6885 230.824 64.6885C231.168 64.6885 231.527 64.6338 231.902 64.5244C232.277 64.415 232.678 64.249 233.104 64.0264V65.0986C232.693 65.2666 232.297 65.3916 231.914 65.4736C231.535 65.5596 231.168 65.6025 230.812 65.6025C229.793 65.6025 228.996 65.2979 228.422 64.6885C227.848 64.0752 227.561 63.2314 227.561 62.1572C227.561 61.1104 227.842 60.2744 228.404 59.6494C228.967 59.0244 229.717 58.7119 230.654 58.7119C231.49 58.7119 232.148 58.9951 232.629 59.5615C233.113 60.1279 233.371 60.8115 233.402 61.6123ZM232.324 61.2959C232.277 60.8428 232.111 60.4521 231.826 60.124C231.545 59.792 231.139 59.626 230.607 59.626C230.088 59.626 229.66 59.7979 229.324 60.1416C228.988 60.4854 228.805 60.8721 228.773 61.3018L232.324 61.2959ZM237.184 62.1338H236.826C236.197 62.1338 235.723 62.2451 235.402 62.4678C235.086 62.6865 234.928 63.0146 234.928 63.4521C234.928 63.8467 235.047 64.1533 235.285 64.3721C235.523 64.5908 235.854 64.7002 236.275 64.7002C236.869 64.7002 237.336 64.4951 237.676 64.085C238.016 63.6709 238.188 63.1006 238.191 62.374V62.1338H237.184ZM239.275 61.6885V65.4326H238.191V64.46C237.961 64.8506 237.67 65.1396 237.318 65.3271C236.971 65.5107 236.547 65.6025 236.047 65.6025C235.379 65.6025 234.846 65.415 234.447 65.04C234.049 64.6611 233.85 64.1553 233.85 63.5225C233.85 62.792 234.094 62.2373 234.582 61.8584C235.074 61.4795 235.795 61.29 236.744 61.29H238.191V61.1201C238.188 60.5967 238.055 60.2178 237.793 59.9834C237.531 59.7451 237.113 59.626 236.539 59.626C236.172 59.626 235.801 59.6787 235.426 59.7842C235.051 59.8896 234.686 60.0439 234.33 60.2471V59.1689C234.729 59.0166 235.109 58.9033 235.473 58.8291C235.84 58.751 236.195 58.7119 236.539 58.7119C237.082 58.7119 237.545 58.792 237.928 58.9521C238.314 59.1123 238.627 59.3525 238.865 59.6729C239.014 59.8682 239.119 60.1104 239.182 60.3994C239.244 60.6846 239.275 61.1143 239.275 61.6885ZM244.328 59.708V56.3154H245.406V65.4326H244.328V64.6064C244.148 64.9307 243.908 65.1787 243.607 65.3506C243.311 65.5186 242.967 65.6025 242.576 65.6025C241.783 65.6025 241.158 65.2959 240.701 64.6826C240.248 64.0654 240.021 63.2158 240.021 62.1338C240.021 61.0674 240.25 60.2314 240.707 59.626C241.164 59.0166 241.787 58.7119 242.576 58.7119C242.971 58.7119 243.318 58.7979 243.619 58.9697C243.92 59.1377 244.156 59.3838 244.328 59.708ZM241.158 62.1572C241.158 62.9932 241.291 63.624 241.557 64.0498C241.822 64.4756 242.215 64.6885 242.734 64.6885C243.254 64.6885 243.648 64.4736 243.918 64.0439C244.191 63.6143 244.328 62.9854 244.328 62.1572C244.328 61.3252 244.191 60.6963 243.918 60.2705C243.648 59.8408 243.254 59.626 242.734 59.626C242.215 59.626 241.822 59.8389 241.557 60.2646C241.291 60.6904 241.158 61.3213 241.158 62.1572ZM252.094 61.6123V62.1396H247.424V62.1748C247.393 63.0693 247.562 63.7119 247.934 64.1025C248.309 64.4932 248.836 64.6885 249.516 64.6885C249.859 64.6885 250.219 64.6338 250.594 64.5244C250.969 64.415 251.369 64.249 251.795 64.0264V65.0986C251.385 65.2666 250.988 65.3916 250.605 65.4736C250.227 65.5596 249.859 65.6025 249.504 65.6025C248.484 65.6025 247.688 65.2979 247.113 64.6885C246.539 64.0752 246.252 63.2314 246.252 62.1572C246.252 61.1104 246.533 60.2744 247.096 59.6494C247.658 59.0244 248.408 58.7119 249.346 58.7119C250.182 58.7119 250.84 58.9951 251.32 59.5615C251.805 60.1279 252.062 60.8115 252.094 61.6123ZM251.016 61.2959C250.969 60.8428 250.803 60.4521 250.518 60.124C250.236 59.792 249.83 59.626 249.299 59.626C248.779 59.626 248.352 59.7979 248.016 60.1416C247.68 60.4854 247.496 60.8721 247.465 61.3018L251.016 61.2959ZM258.529 60.2236C258.299 60.0439 258.064 59.9131 257.826 59.8311C257.588 59.749 257.326 59.708 257.041 59.708C256.369 59.708 255.855 59.9189 255.5 60.3408C255.145 60.7627 254.967 61.3721 254.967 62.1689V65.4326H253.883V58.8701H254.967V60.1533C255.146 59.6885 255.422 59.333 255.793 59.0869C256.168 58.8369 256.611 58.7119 257.123 58.7119C257.389 58.7119 257.637 58.7451 257.867 58.8115C258.098 58.8779 258.318 58.9814 258.529 59.1221V60.2236ZM263.002 55.7412C262.482 56.6318 262.094 57.5205 261.836 58.4072C261.582 59.29 261.455 60.1807 261.455 61.0791C261.455 61.9736 261.582 62.8643 261.836 63.751C262.094 64.6377 262.482 65.5303 263.002 66.4287H262.064C261.475 65.499 261.035 64.5947 260.746 63.7158C260.457 62.833 260.312 61.9541 260.312 61.0791C260.312 60.208 260.457 59.3311 260.746 58.4482C261.035 57.5654 261.475 56.6631 262.064 55.7412H263.002ZM270.439 65.0986C270.15 65.2666 269.852 65.3916 269.543 65.4736C269.238 65.5596 268.926 65.6025 268.605 65.6025C267.59 65.6025 266.795 65.2979 266.221 64.6885C265.65 64.0791 265.365 63.2354 265.365 62.1572C265.365 61.0791 265.65 60.2354 266.221 59.626C266.795 59.0166 267.59 58.7119 268.605 58.7119C268.922 58.7119 269.23 58.7529 269.531 58.835C269.832 58.917 270.135 59.0439 270.439 59.2158V60.3467C270.154 60.0928 269.867 59.9092 269.578 59.7959C269.293 59.6826 268.969 59.626 268.605 59.626C267.93 59.626 267.41 59.8447 267.047 60.2822C266.684 60.7197 266.502 61.3447 266.502 62.1572C266.502 62.9658 266.684 63.5908 267.047 64.0322C267.414 64.4697 267.934 64.6885 268.605 64.6885C268.98 64.6885 269.316 64.6318 269.613 64.5186C269.91 64.4014 270.186 64.2217 270.439 63.9795V65.0986ZM276.154 59.0986V60.1533C275.846 59.9736 275.535 59.8389 275.223 59.749C274.91 59.6592 274.592 59.6143 274.268 59.6143C273.779 59.6143 273.414 59.6943 273.172 59.8545C272.934 60.0107 272.814 60.251 272.814 60.5752C272.814 60.8682 272.904 61.0869 273.084 61.2314C273.264 61.376 273.711 61.5166 274.426 61.6533L274.859 61.7354C275.395 61.8369 275.799 62.04 276.072 62.3447C276.35 62.6494 276.488 63.0459 276.488 63.5342C276.488 64.1826 276.258 64.6904 275.797 65.0576C275.336 65.4209 274.695 65.6025 273.875 65.6025C273.551 65.6025 273.211 65.5674 272.855 65.4971C272.5 65.4307 272.115 65.3291 271.701 65.1924V64.0791C272.104 64.2861 272.488 64.4424 272.855 64.5479C273.223 64.6494 273.57 64.7002 273.898 64.7002C274.375 64.7002 274.744 64.6045 275.006 64.4131C275.268 64.2178 275.398 63.9463 275.398 63.5986C275.398 63.0986 274.92 62.7529 273.963 62.5615L273.916 62.5498L273.512 62.4678C272.891 62.3467 272.438 62.1436 272.152 61.8584C271.867 61.5693 271.725 61.1768 271.725 60.6807C271.725 60.0518 271.938 59.5674 272.363 59.2275C272.789 58.8838 273.396 58.7119 274.186 58.7119C274.537 58.7119 274.875 58.7451 275.199 58.8115C275.523 58.874 275.842 58.9697 276.154 59.0986ZM277.27 58.8701H278.389L280.293 64.3779L282.203 58.8701H283.322L280.99 65.4326H279.602L277.27 58.8701ZM289.143 56.3154V57.2119H287.918C287.531 57.2119 287.262 57.292 287.109 57.4521C286.961 57.6084 286.887 57.8877 286.887 58.29V58.8701H289.143V59.708H286.887V65.4326H285.809V59.708H284.057V58.8701H285.809V58.4131C285.809 57.6943 285.973 57.165 286.301 56.8252C286.633 56.4854 287.148 56.3154 287.848 56.3154H289.143ZM290.996 58.8936H293.756V64.5947H295.895V65.4326H290.539V64.5947H292.678V59.7314H290.996V58.8936ZM292.678 56.3447H293.756V57.7041H292.678V56.3447ZM299.588 63.0596C299.588 63.5439 299.676 63.9092 299.852 64.1553C300.031 64.4014 300.295 64.5244 300.643 64.5244H301.902V65.4326H300.537C299.893 65.4326 299.393 65.2275 299.037 64.8174C298.686 64.4033 298.51 63.8174 298.51 63.0596V57.124H296.781V56.2803H299.588V63.0596ZM308.168 61.6123V62.1396H303.498V62.1748C303.467 63.0693 303.637 63.7119 304.008 64.1025C304.383 64.4932 304.91 64.6885 305.59 64.6885C305.934 64.6885 306.293 64.6338 306.668 64.5244C307.043 64.415 307.443 64.249 307.869 64.0264V65.0986C307.459 65.2666 307.062 65.3916 306.68 65.4736C306.301 65.5596 305.934 65.6025 305.578 65.6025C304.559 65.6025 303.762 65.2979 303.188 64.6885C302.613 64.0752 302.326 63.2314 302.326 62.1572C302.326 61.1104 302.607 60.2744 303.17 59.6494C303.732 59.0244 304.482 58.7119 305.42 58.7119C306.256 58.7119 306.914 58.9951 307.395 59.5615C307.879 60.1279 308.137 60.8115 308.168 61.6123ZM307.09 61.2959C307.043 60.8428 306.877 60.4521 306.592 60.124C306.311 59.792 305.904 59.626 305.373 59.626C304.854 59.626 304.426 59.7979 304.09 60.1416C303.754 60.4854 303.57 60.8721 303.539 61.3018L307.09 61.2959ZM309.875 55.7412H310.812C311.402 56.6631 311.842 57.5654 312.131 58.4482C312.42 59.3311 312.564 60.208 312.564 61.0791C312.564 61.958 312.42 62.8389 312.131 63.7217C311.842 64.6045 311.402 65.5068 310.812 66.4287H309.875C310.395 65.5225 310.781 64.626 311.035 63.7393C311.293 62.8525 311.422 61.9658 311.422 61.0791C311.422 60.1885 311.293 59.2998 311.035 58.4131C310.781 57.5264 310.395 56.6357 309.875 55.7412ZM165.072 78.2236C164.842 78.0439 164.607 77.9131 164.369 77.8311C164.131 77.749 163.869 77.708 163.584 77.708C162.912 77.708 162.398 77.9189 162.043 78.3408C161.688 78.7627 161.51 79.3721 161.51 80.1689V83.4326H160.426V76.8701H161.51V78.1533C161.689 77.6885 161.965 77.333 162.336 77.0869C162.711 76.8369 163.154 76.7119 163.666 76.7119C163.932 76.7119 164.18 76.7451 164.41 76.8115C164.641 76.8779 164.861 76.9814 165.072 77.1221V78.2236ZM168.145 77.626C167.598 77.626 167.184 77.8389 166.902 78.2646C166.621 78.6904 166.48 79.3213 166.48 80.1572C166.48 80.9893 166.621 81.6201 166.902 82.0498C167.184 82.4756 167.598 82.6885 168.145 82.6885C168.695 82.6885 169.111 82.4756 169.393 82.0498C169.674 81.6201 169.814 80.9893 169.814 80.1572C169.814 79.3213 169.674 78.6904 169.393 78.2646C169.111 77.8389 168.695 77.626 168.145 77.626ZM168.145 76.7119C169.055 76.7119 169.75 77.0068 170.23 77.5967C170.715 78.1865 170.957 79.04 170.957 80.1572C170.957 81.2783 170.717 82.1338 170.236 82.7236C169.756 83.3096 169.059 83.6025 168.145 83.6025C167.234 83.6025 166.539 83.3096 166.059 82.7236C165.578 82.1338 165.338 81.2783 165.338 80.1572C165.338 79.04 165.578 78.1865 166.059 77.5967C166.539 77.0068 167.234 76.7119 168.145 76.7119ZM170.766 76.8701H171.832L172.975 82.1729L173.912 78.7861H174.832L175.781 82.1729L176.924 76.8701H177.99L176.455 83.4326H175.424L174.375 79.835L173.332 83.4326H172.301L170.766 76.8701ZM208.135 83.0986C207.846 83.2666 207.547 83.3916 207.238 83.4736C206.934 83.5596 206.621 83.6025 206.301 83.6025C205.285 83.6025 204.49 83.2979 203.916 82.6885C203.346 82.0791 203.061 81.2354 203.061 80.1572C203.061 79.0791 203.346 78.2354 203.916 77.626C204.49 77.0166 205.285 76.7119 206.301 76.7119C206.617 76.7119 206.926 76.7529 207.227 76.835C207.527 76.917 207.83 77.0439 208.135 77.2158V78.3467C207.85 78.0928 207.562 77.9092 207.273 77.7959C206.988 77.6826 206.664 77.626 206.301 77.626C205.625 77.626 205.105 77.8447 204.742 78.2822C204.379 78.7197 204.197 79.3447 204.197 80.1572C204.197 80.9658 204.379 81.5908 204.742 82.0322C205.109 82.4697 205.629 82.6885 206.301 82.6885C206.676 82.6885 207.012 82.6318 207.309 82.5186C207.605 82.4014 207.881 82.2217 208.135 81.9795V83.0986ZM213.85 77.0986V78.1533C213.541 77.9736 213.23 77.8389 212.918 77.749C212.605 77.6592 212.287 77.6143 211.963 77.6143C211.475 77.6143 211.109 77.6943 210.867 77.8545C210.629 78.0107 210.51 78.251 210.51 78.5752C210.51 78.8682 210.6 79.0869 210.779 79.2314C210.959 79.376 211.406 79.5166 212.121 79.6533L212.555 79.7354C213.09 79.8369 213.494 80.04 213.768 80.3447C214.045 80.6494 214.184 81.0459 214.184 81.5342C214.184 82.1826 213.953 82.6904 213.492 83.0576C213.031 83.4209 212.391 83.6025 211.57 83.6025C211.246 83.6025 210.906 83.5674 210.551 83.4971C210.195 83.4307 209.811 83.3291 209.396 83.1924V82.0791C209.799 82.2861 210.184 82.4424 210.551 82.5479C210.918 82.6494 211.266 82.7002 211.594 82.7002C212.07 82.7002 212.439 82.6045 212.701 82.4131C212.963 82.2178 213.094 81.9463 213.094 81.5986C213.094 81.0986 212.615 80.7529 211.658 80.5615L211.611 80.5498L211.207 80.4678C210.586 80.3467 210.133 80.1436 209.848 79.8584C209.562 79.5693 209.42 79.1768 209.42 78.6807C209.42 78.0518 209.633 77.5674 210.059 77.2275C210.484 76.8838 211.092 76.7119 211.881 76.7119C212.232 76.7119 212.57 76.7451 212.895 76.8115C213.219 76.874 213.537 76.9697 213.85 77.0986ZM214.965 76.8701H216.084L217.988 82.3779L219.898 76.8701H221.018L218.686 83.4326H217.297L214.965 76.8701ZM227.781 84.5459V85.542H220.609V84.5459H227.781ZM233.607 78.2236C233.377 78.0439 233.143 77.9131 232.904 77.8311C232.666 77.749 232.404 77.708 232.119 77.708C231.447 77.708 230.934 77.9189 230.578 78.3408C230.223 78.7627 230.045 79.3721 230.045 80.1689V83.4326H228.961V76.8701H230.045V78.1533C230.225 77.6885 230.5 77.333 230.871 77.0869C231.246 76.8369 231.689 76.7119 232.201 76.7119C232.467 76.7119 232.715 76.7451 232.945 76.8115C233.176 76.8779 233.396 76.9814 233.607 77.1221V78.2236ZM239.633 79.6123V80.1396H234.963V80.1748C234.932 81.0693 235.102 81.7119 235.473 82.1025C235.848 82.4932 236.375 82.6885 237.055 82.6885C237.398 82.6885 237.758 82.6338 238.133 82.5244C238.508 82.415 238.908 82.249 239.334 82.0264V83.0986C238.924 83.2666 238.527 83.3916 238.145 83.4736C237.766 83.5596 237.398 83.6025 237.043 83.6025C236.023 83.6025 235.227 83.2979 234.652 82.6885C234.078 82.0752 233.791 81.2314 233.791 80.1572C233.791 79.1104 234.072 78.2744 234.635 77.6494C235.197 77.0244 235.947 76.7119 236.885 76.7119C237.721 76.7119 238.379 76.9951 238.859 77.5615C239.344 78.1279 239.602 78.8115 239.633 79.6123ZM238.555 79.2959C238.508 78.8428 238.342 78.4521 238.057 78.124C237.775 77.792 237.369 77.626 236.838 77.626C236.318 77.626 235.891 77.7979 235.555 78.1416C235.219 78.4854 235.035 78.8721 235.004 79.3018L238.555 79.2959ZM243.414 80.1338H243.057C242.428 80.1338 241.953 80.2451 241.633 80.4678C241.316 80.6865 241.158 81.0146 241.158 81.4521C241.158 81.8467 241.277 82.1533 241.516 82.3721C241.754 82.5908 242.084 82.7002 242.506 82.7002C243.1 82.7002 243.566 82.4951 243.906 82.085C244.246 81.6709 244.418 81.1006 244.422 80.374V80.1338H243.414ZM245.506 79.6885V83.4326H244.422V82.46C244.191 82.8506 243.9 83.1396 243.549 83.3271C243.201 83.5107 242.777 83.6025 242.277 83.6025C241.609 83.6025 241.076 83.415 240.678 83.04C240.279 82.6611 240.08 82.1553 240.08 81.5225C240.08 80.792 240.324 80.2373 240.812 79.8584C241.305 79.4795 242.025 79.29 242.975 79.29H244.422V79.1201C244.418 78.5967 244.285 78.2178 244.023 77.9834C243.762 77.7451 243.344 77.626 242.77 77.626C242.402 77.626 242.031 77.6787 241.656 77.7842C241.281 77.8896 240.916 78.0439 240.561 78.2471V77.1689C240.959 77.0166 241.34 76.9033 241.703 76.8291C242.07 76.751 242.426 76.7119 242.77 76.7119C243.312 76.7119 243.775 76.792 244.158 76.9521C244.545 77.1123 244.857 77.3525 245.096 77.6729C245.244 77.8682 245.35 78.1104 245.412 78.3994C245.475 78.6846 245.506 79.1143 245.506 79.6885ZM250.559 77.708V74.3154H251.637V83.4326H250.559V82.6064C250.379 82.9307 250.139 83.1787 249.838 83.3506C249.541 83.5186 249.197 83.6025 248.807 83.6025C248.014 83.6025 247.389 83.2959 246.932 82.6826C246.479 82.0654 246.252 81.2158 246.252 80.1338C246.252 79.0674 246.48 78.2314 246.938 77.626C247.395 77.0166 248.018 76.7119 248.807 76.7119C249.201 76.7119 249.549 76.7979 249.85 76.9697C250.15 77.1377 250.387 77.3838 250.559 77.708ZM247.389 80.1572C247.389 80.9932 247.521 81.624 247.787 82.0498C248.053 82.4756 248.445 82.6885 248.965 82.6885C249.484 82.6885 249.879 82.4736 250.148 82.0439C250.422 81.6143 250.559 80.9854 250.559 80.1572C250.559 79.3252 250.422 78.6963 250.148 78.2705C249.879 77.8408 249.484 77.626 248.965 77.626C248.445 77.626 248.053 77.8389 247.787 78.2646C247.521 78.6904 247.389 79.3213 247.389 80.1572ZM258.324 79.6123V80.1396H253.654V80.1748C253.623 81.0693 253.793 81.7119 254.164 82.1025C254.539 82.4932 255.066 82.6885 255.746 82.6885C256.09 82.6885 256.449 82.6338 256.824 82.5244C257.199 82.415 257.6 82.249 258.025 82.0264V83.0986C257.615 83.2666 257.219 83.3916 256.836 83.4736C256.457 83.5596 256.09 83.6025 255.734 83.6025C254.715 83.6025 253.918 83.2979 253.344 82.6885C252.77 82.0752 252.482 81.2314 252.482 80.1572C252.482 79.1104 252.764 78.2744 253.326 77.6494C253.889 77.0244 254.639 76.7119 255.576 76.7119C256.412 76.7119 257.07 76.9951 257.551 77.5615C258.035 78.1279 258.293 78.8115 258.324 79.6123ZM257.246 79.2959C257.199 78.8428 257.033 78.4521 256.748 78.124C256.467 77.792 256.061 77.626 255.529 77.626C255.01 77.626 254.582 77.7979 254.246 78.1416C253.91 78.4854 253.727 78.8721 253.695 79.3018L257.246 79.2959ZM264.76 78.2236C264.529 78.0439 264.295 77.9131 264.057 77.8311C263.818 77.749 263.557 77.708 263.271 77.708C262.6 77.708 262.086 77.9189 261.73 78.3408C261.375 78.7627 261.197 79.3721 261.197 80.1689V83.4326H260.113V76.8701H261.197V78.1533C261.377 77.6885 261.652 77.333 262.023 77.0869C262.398 76.8369 262.842 76.7119 263.354 76.7119C263.619 76.7119 263.867 76.7451 264.098 76.8115C264.328 76.8779 264.549 76.9814 264.76 77.1221V78.2236ZM266.736 76.876H268.564V78.9912H266.736V76.876ZM266.736 81.2998H268.564V83.4326H266.736V81.2998ZM182.006 91.7412C181.486 92.6318 181.098 93.5205 180.84 94.4072C180.586 95.29 180.459 96.1807 180.459 97.0791C180.459 97.9736 180.586 98.8643 180.84 99.751C181.098 100.638 181.486 101.53 182.006 102.429H181.068C180.479 101.499 180.039 100.595 179.75 99.7158C179.461 98.833 179.316 97.9541 179.316 97.0791C179.316 96.208 179.461 95.3311 179.75 94.4482C180.039 93.5654 180.479 92.6631 181.068 91.7412H182.006ZM210.428 99.0654H212.49V101.433H210.428V99.0654ZM217.895 101.55V95.708H216.037V94.8701H218.973V101.55C218.973 102.312 218.797 102.897 218.445 103.308C218.098 103.722 217.602 103.929 216.957 103.929H215.469V103.015H216.84C217.191 103.015 217.455 102.892 217.631 102.646C217.807 102.403 217.895 102.038 217.895 101.55ZM217.895 92.3154H218.973V93.6807H217.895V92.3154ZM224.219 95.626C223.672 95.626 223.258 95.8389 222.977 96.2646C222.695 96.6904 222.555 97.3213 222.555 98.1572C222.555 98.9893 222.695 99.6201 222.977 100.05C223.258 100.476 223.672 100.688 224.219 100.688C224.77 100.688 225.186 100.476 225.467 100.05C225.748 99.6201 225.889 98.9893 225.889 98.1572C225.889 97.3213 225.748 96.6904 225.467 96.2646C225.186 95.8389 224.77 95.626 224.219 95.626ZM224.219 94.7119C225.129 94.7119 225.824 95.0068 226.305 95.5967C226.789 96.1865 227.031 97.04 227.031 98.1572C227.031 99.2783 226.791 100.134 226.311 100.724C225.83 101.31 225.133 101.603 224.219 101.603C223.309 101.603 222.613 101.31 222.133 100.724C221.652 100.134 221.412 99.2783 221.412 98.1572C221.412 97.04 221.652 96.1865 222.133 95.5967C222.613 95.0068 223.309 94.7119 224.219 94.7119ZM228.691 94.8936H231.451V100.595H233.59V101.433H228.234V100.595H230.373V95.7314H228.691V94.8936ZM230.373 92.3447H231.451V93.7041H230.373V92.3447ZM239.229 97.3662V101.433H238.145V97.3662C238.145 96.7764 238.041 96.3428 237.834 96.0654C237.627 95.7881 237.303 95.6494 236.861 95.6494C236.357 95.6494 235.969 95.8291 235.695 96.1885C235.426 96.5439 235.291 97.0557 235.291 97.7236V101.433H234.213V94.8701H235.291V95.8545C235.482 95.4795 235.742 95.1963 236.07 95.0049C236.398 94.8096 236.787 94.7119 237.236 94.7119C237.904 94.7119 238.402 94.9326 238.73 95.374C239.062 95.8115 239.229 96.4756 239.229 97.3662ZM244.311 91.7412C243.791 92.6318 243.402 93.5205 243.145 94.4072C242.891 95.29 242.764 96.1807 242.764 97.0791C242.764 97.9736 242.891 98.8643 243.145 99.751C243.402 100.638 243.791 101.53 244.311 102.429H243.373C242.783 101.499 242.344 100.595 242.055 99.7158C241.766 98.833 241.621 97.9541 241.621 97.0791C241.621 96.208 241.766 95.3311 242.055 94.4482C242.344 93.5654 242.783 92.6631 243.373 91.7412H244.311ZM252.299 96.2236C252.068 96.0439 251.834 95.9131 251.596 95.8311C251.357 95.749 251.096 95.708 250.811 95.708C250.139 95.708 249.625 95.9189 249.27 96.3408C248.914 96.7627 248.736 97.3721 248.736 98.1689V101.433H247.652V94.8701H248.736V96.1533C248.916 95.6885 249.191 95.333 249.562 95.0869C249.938 94.8369 250.381 94.7119 250.893 94.7119C251.158 94.7119 251.406 94.7451 251.637 94.8115C251.867 94.8779 252.088 94.9814 252.299 95.1221V96.2236ZM255.371 95.626C254.824 95.626 254.41 95.8389 254.129 96.2646C253.848 96.6904 253.707 97.3213 253.707 98.1572C253.707 98.9893 253.848 99.6201 254.129 100.05C254.41 100.476 254.824 100.688 255.371 100.688C255.922 100.688 256.338 100.476 256.619 100.05C256.9 99.6201 257.041 98.9893 257.041 98.1572C257.041 97.3213 256.9 96.6904 256.619 96.2646C256.338 95.8389 255.922 95.626 255.371 95.626ZM255.371 94.7119C256.281 94.7119 256.977 95.0068 257.457 95.5967C257.941 96.1865 258.184 97.04 258.184 98.1572C258.184 99.2783 257.943 100.134 257.463 100.724C256.982 101.31 256.285 101.603 255.371 101.603C254.461 101.603 253.766 101.31 253.285 100.724C252.805 100.134 252.564 99.2783 252.564 98.1572C252.564 97.04 252.805 96.1865 253.285 95.5967C253.766 95.0068 254.461 94.7119 255.371 94.7119ZM257.992 94.8701H259.059L260.201 100.173L261.139 96.7861H262.059L263.008 100.173L264.15 94.8701H265.217L263.682 101.433H262.65L261.602 97.835L260.559 101.433H259.527L257.992 94.8701ZM266.262 91.7412H267.199C267.789 92.6631 268.229 93.5654 268.518 94.4482C268.807 95.3311 268.951 96.208 268.951 97.0791C268.951 97.958 268.807 98.8389 268.518 99.7217C268.229 100.604 267.789 101.507 267.199 102.429H266.262C266.781 101.522 267.168 100.626 267.422 99.7393C267.68 98.8525 267.809 97.9658 267.809 97.0791C267.809 96.1885 267.68 95.2998 267.422 94.4131C267.168 93.5264 266.781 92.6357 266.262 91.7412ZM272.492 91.7412H273.43C274.02 92.6631 274.459 93.5654 274.748 94.4482C275.037 95.3311 275.182 96.208 275.182 97.0791C275.182 97.958 275.037 98.8389 274.748 99.7217C274.459 100.604 274.02 101.507 273.43 102.429H272.492C273.012 101.522 273.398 100.626 273.652 99.7393C273.91 98.8525 274.039 97.9658 274.039 97.0791C274.039 96.1885 273.91 95.2998 273.652 94.4131C273.398 93.5264 273.012 92.6357 272.492 91.7412Z" fill="white"/>
<path d="M158.291 29.0986C158.002 29.2666 157.703 29.3916 157.395 29.4736C157.09 29.5596 156.777 29.6025 156.457 29.6025C155.441 29.6025 154.646 29.2979 154.072 28.6885C153.502 28.0791 153.217 27.2354 153.217 26.1572C153.217 25.0791 153.502 24.2354 154.072 23.626C154.646 23.0166 155.441 22.7119 156.457 22.7119C156.773 22.7119 157.082 22.7529 157.383 22.835C157.684 22.917 157.986 23.0439 158.291 23.2158V24.3467C158.006 24.0928 157.719 23.9092 157.43 23.7959C157.145 23.6826 156.82 23.626 156.457 23.626C155.781 23.626 155.262 23.8447 154.898 24.2822C154.535 24.7197 154.354 25.3447 154.354 26.1572C154.354 26.9658 154.535 27.5908 154.898 28.0322C155.266 28.4697 155.785 28.6885 156.457 28.6885C156.832 28.6885 157.168 28.6318 157.465 28.5186C157.762 28.4014 158.037 28.2217 158.291 27.9795V29.0986ZM164.006 23.0986V24.1533C163.697 23.9736 163.387 23.8389 163.074 23.749C162.762 23.6592 162.443 23.6143 162.119 23.6143C161.631 23.6143 161.266 23.6943 161.023 23.8545C160.785 24.0107 160.666 24.251 160.666 24.5752C160.666 24.8682 160.756 25.0869 160.936 25.2314C161.115 25.376 161.562 25.5166 162.277 25.6533L162.711 25.7354C163.246 25.8369 163.65 26.04 163.924 26.3447C164.201 26.6494 164.34 27.0459 164.34 27.5342C164.34 28.1826 164.109 28.6904 163.648 29.0576C163.188 29.4209 162.547 29.6025 161.727 29.6025C161.402 29.6025 161.062 29.5674 160.707 29.4971C160.352 29.4307 159.967 29.3291 159.553 29.1924V28.0791C159.955 28.2861 160.34 28.4424 160.707 28.5479C161.074 28.6494 161.422 28.7002 161.75 28.7002C162.227 28.7002 162.596 28.6045 162.857 28.4131C163.119 28.2178 163.25 27.9463 163.25 27.5986C163.25 27.0986 162.771 26.7529 161.814 26.5615L161.768 26.5498L161.363 26.4678C160.742 26.3467 160.289 26.1436 160.004 25.8584C159.719 25.5693 159.576 25.1768 159.576 24.6807C159.576 24.0518 159.789 23.5674 160.215 23.2275C160.641 22.8838 161.248 22.7119 162.037 22.7119C162.389 22.7119 162.727 22.7451 163.051 22.8115C163.375 22.874 163.693 22.9697 164.006 23.0986ZM165.121 22.8701H166.24L168.145 28.3779L170.055 22.8701H171.174L168.842 29.4326H167.453L165.121 22.8701ZM174.955 41.7666H173.479V40.5537L174.627 38.3154H175.529L174.955 40.5537V41.7666ZM180.957 41.5381C181.09 41.2568 181.258 41.0498 181.461 40.917C181.668 40.7803 181.916 40.7119 182.205 40.7119C182.732 40.7119 183.104 40.917 183.318 41.3271C183.537 41.7334 183.646 42.501 183.646 43.6299V47.4326H182.662V43.6768C182.662 42.751 182.609 42.1768 182.504 41.9541C182.402 41.7275 182.215 41.6143 181.941 41.6143C181.629 41.6143 181.414 41.7354 181.297 41.9775C181.184 42.2158 181.127 42.7822 181.127 43.6768V47.4326H180.143V43.6768C180.143 42.7393 180.086 42.1611 179.973 41.9424C179.863 41.7236 179.664 41.6143 179.375 41.6143C179.09 41.6143 178.891 41.7354 178.777 41.9775C178.668 42.2158 178.613 42.7822 178.613 43.6768V47.4326H177.635V40.8701H178.613V41.4326C178.742 41.1982 178.902 41.0205 179.094 40.8994C179.289 40.7744 179.51 40.7119 179.756 40.7119C180.053 40.7119 180.299 40.7803 180.494 40.917C180.693 41.0537 180.848 41.2607 180.957 41.5381ZM188.254 45.3232C188.074 45.7803 187.846 46.3818 187.568 47.1279C187.182 48.1592 186.922 48.7881 186.789 49.0146C186.609 49.3193 186.385 49.5479 186.115 49.7002C185.846 49.8525 185.531 49.9287 185.172 49.9287H184.305V49.0264H184.943C185.26 49.0264 185.508 48.9346 185.688 48.751C185.867 48.5674 186.096 48.0928 186.373 47.3271L183.836 40.8701H184.979L186.924 46.0029L188.84 40.8701H189.982L188.254 45.3232ZM196.629 48.5459V49.542H189.457V48.5459H196.629ZM201.916 38.3154V39.2119H200.691C200.305 39.2119 200.035 39.292 199.883 39.4521C199.734 39.6084 199.66 39.8877 199.66 40.29V40.8701H201.916V41.708H199.66V47.4326H198.582V41.708H196.83V40.8701H198.582V40.4131C198.582 39.6943 198.746 39.165 199.074 38.8252C199.406 38.4854 199.922 38.3154 200.621 38.3154H201.916ZM203.77 40.8936H206.529V46.5947H208.668V47.4326H203.312V46.5947H205.451V41.7314H203.77V40.8936ZM205.451 38.3447H206.529V39.7041H205.451V38.3447ZM212.361 45.0596C212.361 45.5439 212.449 45.9092 212.625 46.1553C212.805 46.4014 213.068 46.5244 213.416 46.5244H214.676V47.4326H213.311C212.666 47.4326 212.166 47.2275 211.811 46.8174C211.459 46.4033 211.283 45.8174 211.283 45.0596V39.124H209.555V38.2803H212.361V45.0596ZM220.941 43.6123V44.1396H216.271V44.1748C216.24 45.0693 216.41 45.7119 216.781 46.1025C217.156 46.4932 217.684 46.6885 218.363 46.6885C218.707 46.6885 219.066 46.6338 219.441 46.5244C219.816 46.415 220.217 46.249 220.643 46.0264V47.0986C220.232 47.2666 219.836 47.3916 219.453 47.4736C219.074 47.5596 218.707 47.6025 218.352 47.6025C217.332 47.6025 216.535 47.2979 215.961 46.6885C215.387 46.0752 215.1 45.2314 215.1 44.1572C215.1 43.1104 215.381 42.2744 215.943 41.6494C216.506 41.0244 217.256 40.7119 218.193 40.7119C219.029 40.7119 219.688 40.9951 220.168 41.5615C220.652 42.1279 220.91 42.8115 220.941 43.6123ZM219.863 43.2959C219.816 42.8428 219.65 42.4521 219.365 42.124C219.084 41.792 218.678 41.626 218.146 41.626C217.627 41.626 217.199 41.7979 216.863 42.1416C216.527 42.4854 216.344 42.8721 216.312 43.3018L219.863 43.2959ZM222.889 45.0654H224.951V47.4326H222.889V45.0654ZM233.057 47.0986C232.768 47.2666 232.469 47.3916 232.16 47.4736C231.855 47.5596 231.543 47.6025 231.223 47.6025C230.207 47.6025 229.412 47.2979 228.838 46.6885C228.268 46.0791 227.982 45.2354 227.982 44.1572C227.982 43.0791 228.268 42.2354 228.838 41.626C229.412 41.0166 230.207 40.7119 231.223 40.7119C231.539 40.7119 231.848 40.7529 232.148 40.835C232.449 40.917 232.752 41.0439 233.057 41.2158V42.3467C232.771 42.0928 232.484 41.9092 232.195 41.7959C231.91 41.6826 231.586 41.626 231.223 41.626C230.547 41.626 230.027 41.8447 229.664 42.2822C229.301 42.7197 229.119 43.3447 229.119 44.1572C229.119 44.9658 229.301 45.5908 229.664 46.0322C230.031 46.4697 230.551 46.6885 231.223 46.6885C231.598 46.6885 231.934 46.6318 232.23 46.5186C232.527 46.4014 232.803 46.2217 233.057 45.9795V47.0986ZM233.656 40.8701H234.775L236.68 46.3779L238.59 40.8701H239.709L237.377 47.4326H235.988L233.656 40.8701ZM245.002 41.0986V42.1533C244.693 41.9736 244.383 41.8389 244.07 41.749C243.758 41.6592 243.439 41.6143 243.115 41.6143C242.627 41.6143 242.262 41.6943 242.02 41.8545C241.781 42.0107 241.662 42.251 241.662 42.5752C241.662 42.8682 241.752 43.0869 241.932 43.2314C242.111 43.376 242.559 43.5166 243.273 43.6533L243.707 43.7354C244.242 43.8369 244.646 44.04 244.92 44.3447C245.197 44.6494 245.336 45.0459 245.336 45.5342C245.336 46.1826 245.105 46.6904 244.645 47.0576C244.184 47.4209 243.543 47.6025 242.723 47.6025C242.398 47.6025 242.059 47.5674 241.703 47.4971C241.348 47.4307 240.963 47.3291 240.549 47.1924V46.0791C240.951 46.2861 241.336 46.4424 241.703 46.5479C242.07 46.6494 242.418 46.7002 242.746 46.7002C243.223 46.7002 243.592 46.6045 243.854 46.4131C244.115 46.2178 244.246 45.9463 244.246 45.5986C244.246 45.0986 243.768 44.7529 242.811 44.5615L242.764 44.5498L242.359 44.4678C241.738 44.3467 241.285 44.1436 241 43.8584C240.715 43.5693 240.572 43.1768 240.572 42.6807C240.572 42.0518 240.785 41.5674 241.211 41.2275C241.637 40.8838 242.244 40.7119 243.033 40.7119C243.385 40.7119 243.723 40.7451 244.047 40.8115C244.371 40.874 244.689 40.9697 245.002 41.0986ZM248.818 38.3154H250.295V39.5225L249.141 41.7666H248.244L248.818 39.5225V38.3154Z" fill="#23A9F2"/>
</g>
<rect opacity="0.3" x="94" y="17.2979" width="83" height="18" fill="#23A9F2"/>
<rect opacity="0.3" x="94" y="35.2979" width="242" height="19" fill="#23A9F2"/>
<g filter="url(#filter1_d_1508_21499)">
<path d="M96 125.298C96 123.089 97.7909 121.298 100 121.298H222C224.209 121.298 226 123.089 226 125.298V152.298C226 154.507 224.209 156.298 222 156.298H100C97.7909 156.298 96 154.507 96 152.298V125.298Z" fill="#1F2228"/>
<path d="M109.93 134.849V136.05C109.57 135.819 109.209 135.646 108.846 135.528C108.486 135.411 108.123 135.353 107.756 135.353C107.197 135.353 106.756 135.483 106.432 135.745C106.107 136.003 105.945 136.353 105.945 136.794C105.945 137.181 106.051 137.476 106.262 137.679C106.477 137.882 106.875 138.052 107.457 138.188L108.078 138.329C108.898 138.521 109.496 138.821 109.871 139.231C110.246 139.642 110.434 140.2 110.434 140.907C110.434 141.739 110.176 142.374 109.66 142.812C109.145 143.249 108.395 143.468 107.41 143.468C107 143.468 106.588 143.423 106.174 143.333C105.76 143.247 105.344 143.116 104.926 142.94V141.681C105.375 141.966 105.799 142.175 106.197 142.308C106.6 142.44 107.004 142.507 107.41 142.507C108.008 142.507 108.473 142.374 108.805 142.108C109.137 141.839 109.303 141.464 109.303 140.983C109.303 140.546 109.188 140.212 108.957 139.981C108.73 139.751 108.334 139.573 107.768 139.448L107.135 139.302C106.322 139.118 105.732 138.841 105.365 138.47C104.998 138.099 104.814 137.601 104.814 136.976C104.814 136.194 105.076 135.569 105.6 135.101C106.127 134.628 106.826 134.392 107.697 134.392C108.033 134.392 108.387 134.431 108.758 134.509C109.129 134.583 109.52 134.696 109.93 134.849ZM116.389 139.231V143.298H115.305V139.231C115.305 138.642 115.201 138.208 114.994 137.931C114.787 137.653 114.463 137.515 114.021 137.515C113.518 137.515 113.129 137.694 112.855 138.054C112.586 138.409 112.451 138.921 112.451 139.589V143.298H111.373V134.181H112.451V137.72C112.643 137.345 112.902 137.062 113.23 136.87C113.559 136.675 113.947 136.577 114.396 136.577C115.064 136.577 115.562 136.798 115.891 137.239C116.223 137.677 116.389 138.341 116.389 139.231ZM120.574 139.999H120.217C119.588 139.999 119.113 140.11 118.793 140.333C118.477 140.552 118.318 140.88 118.318 141.317C118.318 141.712 118.438 142.019 118.676 142.237C118.914 142.456 119.244 142.565 119.666 142.565C120.26 142.565 120.727 142.36 121.066 141.95C121.406 141.536 121.578 140.966 121.582 140.239V139.999H120.574ZM122.666 139.554V143.298H121.582V142.325C121.352 142.716 121.061 143.005 120.709 143.192C120.361 143.376 119.938 143.468 119.438 143.468C118.77 143.468 118.236 143.28 117.838 142.905C117.439 142.526 117.24 142.021 117.24 141.388C117.24 140.657 117.484 140.103 117.973 139.724C118.465 139.345 119.186 139.155 120.135 139.155H121.582V138.985C121.578 138.462 121.445 138.083 121.184 137.849C120.922 137.61 120.504 137.491 119.93 137.491C119.562 137.491 119.191 137.544 118.816 137.649C118.441 137.755 118.076 137.909 117.721 138.112V137.034C118.119 136.882 118.5 136.769 118.863 136.694C119.23 136.616 119.586 136.577 119.93 136.577C120.473 136.577 120.936 136.657 121.318 136.817C121.705 136.978 122.018 137.218 122.256 137.538C122.404 137.733 122.51 137.976 122.572 138.265C122.635 138.55 122.666 138.979 122.666 139.554ZM129.459 138.089C129.229 137.909 128.994 137.778 128.756 137.696C128.518 137.614 128.256 137.573 127.971 137.573C127.299 137.573 126.785 137.784 126.43 138.206C126.074 138.628 125.896 139.237 125.896 140.034V143.298H124.812V136.735H125.896V138.019C126.076 137.554 126.352 137.198 126.723 136.952C127.098 136.702 127.541 136.577 128.053 136.577C128.318 136.577 128.566 136.61 128.797 136.677C129.027 136.743 129.248 136.847 129.459 136.987V138.089ZM135.484 139.478V140.005H130.814V140.04C130.783 140.935 130.953 141.577 131.324 141.968C131.699 142.358 132.227 142.554 132.906 142.554C133.25 142.554 133.609 142.499 133.984 142.39C134.359 142.28 134.76 142.114 135.186 141.892V142.964C134.775 143.132 134.379 143.257 133.996 143.339C133.617 143.425 133.25 143.468 132.895 143.468C131.875 143.468 131.078 143.163 130.504 142.554C129.93 141.94 129.643 141.097 129.643 140.022C129.643 138.976 129.924 138.14 130.486 137.515C131.049 136.89 131.799 136.577 132.736 136.577C133.572 136.577 134.23 136.86 134.711 137.427C135.195 137.993 135.453 138.677 135.484 139.478ZM134.406 139.161C134.359 138.708 134.193 138.317 133.908 137.989C133.627 137.657 133.221 137.491 132.689 137.491C132.17 137.491 131.742 137.663 131.406 138.007C131.07 138.351 130.887 138.737 130.855 139.167L134.406 139.161ZM147.67 142.987C147.369 143.147 147.061 143.267 146.744 143.345C146.428 143.427 146.092 143.468 145.736 143.468C144.615 143.468 143.744 143.071 143.123 142.278C142.506 141.485 142.197 140.37 142.197 138.933C142.197 137.503 142.508 136.39 143.129 135.593C143.754 134.792 144.623 134.392 145.736 134.392C146.092 134.392 146.428 134.433 146.744 134.515C147.061 134.593 147.369 134.712 147.67 134.872V136.085C147.381 135.847 147.07 135.665 146.738 135.54C146.406 135.415 146.072 135.353 145.736 135.353C144.967 135.353 144.391 135.649 144.008 136.243C143.625 136.837 143.434 137.733 143.434 138.933C143.434 140.128 143.625 141.022 144.008 141.616C144.391 142.21 144.967 142.507 145.736 142.507C146.08 142.507 146.416 142.444 146.744 142.319C147.076 142.194 147.385 142.013 147.67 141.774V142.987ZM151.223 137.491C150.676 137.491 150.262 137.704 149.98 138.13C149.699 138.556 149.559 139.187 149.559 140.022C149.559 140.854 149.699 141.485 149.98 141.915C150.262 142.341 150.676 142.554 151.223 142.554C151.773 142.554 152.189 142.341 152.471 141.915C152.752 141.485 152.893 140.854 152.893 140.022C152.893 139.187 152.752 138.556 152.471 138.13C152.189 137.704 151.773 137.491 151.223 137.491ZM151.223 136.577C152.133 136.577 152.828 136.872 153.309 137.462C153.793 138.052 154.035 138.905 154.035 140.022C154.035 141.144 153.795 141.999 153.314 142.589C152.834 143.175 152.137 143.468 151.223 143.468C150.312 143.468 149.617 143.175 149.137 142.589C148.656 141.999 148.416 141.144 148.416 140.022C148.416 138.905 148.656 138.052 149.137 137.462C149.617 136.872 150.312 136.577 151.223 136.577ZM158.871 137.573V134.181H159.949V143.298H158.871V142.472C158.691 142.796 158.451 143.044 158.15 143.216C157.854 143.384 157.51 143.468 157.119 143.468C156.326 143.468 155.701 143.161 155.244 142.548C154.791 141.931 154.564 141.081 154.564 139.999C154.564 138.933 154.793 138.097 155.25 137.491C155.707 136.882 156.33 136.577 157.119 136.577C157.514 136.577 157.861 136.663 158.162 136.835C158.463 137.003 158.699 137.249 158.871 137.573ZM155.701 140.022C155.701 140.858 155.834 141.489 156.1 141.915C156.365 142.341 156.758 142.554 157.277 142.554C157.797 142.554 158.191 142.339 158.461 141.909C158.734 141.479 158.871 140.851 158.871 140.022C158.871 139.19 158.734 138.562 158.461 138.136C158.191 137.706 157.797 137.491 157.277 137.491C156.758 137.491 156.365 137.704 156.1 138.13C155.834 138.556 155.701 139.187 155.701 140.022ZM166.637 139.478V140.005H161.967V140.04C161.936 140.935 162.105 141.577 162.477 141.968C162.852 142.358 163.379 142.554 164.059 142.554C164.402 142.554 164.762 142.499 165.137 142.39C165.512 142.28 165.912 142.114 166.338 141.892V142.964C165.928 143.132 165.531 143.257 165.148 143.339C164.77 143.425 164.402 143.468 164.047 143.468C163.027 143.468 162.23 143.163 161.656 142.554C161.082 141.94 160.795 141.097 160.795 140.022C160.795 138.976 161.076 138.14 161.639 137.515C162.201 136.89 162.951 136.577 163.889 136.577C164.725 136.577 165.383 136.86 165.863 137.427C166.348 137.993 166.605 138.677 166.637 139.478ZM165.559 139.161C165.512 138.708 165.346 138.317 165.061 137.989C164.779 137.657 164.373 137.491 163.842 137.491C163.322 137.491 162.895 137.663 162.559 138.007C162.223 138.351 162.039 138.737 162.008 139.167L165.559 139.161ZM178.465 134.849V136.05C178.105 135.819 177.744 135.646 177.381 135.528C177.021 135.411 176.658 135.353 176.291 135.353C175.732 135.353 175.291 135.483 174.967 135.745C174.643 136.003 174.48 136.353 174.48 136.794C174.48 137.181 174.586 137.476 174.797 137.679C175.012 137.882 175.41 138.052 175.992 138.188L176.613 138.329C177.434 138.521 178.031 138.821 178.406 139.231C178.781 139.642 178.969 140.2 178.969 140.907C178.969 141.739 178.711 142.374 178.195 142.812C177.68 143.249 176.93 143.468 175.945 143.468C175.535 143.468 175.123 143.423 174.709 143.333C174.295 143.247 173.879 143.116 173.461 142.94V141.681C173.91 141.966 174.334 142.175 174.732 142.308C175.135 142.44 175.539 142.507 175.945 142.507C176.543 142.507 177.008 142.374 177.34 142.108C177.672 141.839 177.838 141.464 177.838 140.983C177.838 140.546 177.723 140.212 177.492 139.981C177.266 139.751 176.869 139.573 176.303 139.448L175.67 139.302C174.857 139.118 174.268 138.841 173.9 138.47C173.533 138.099 173.35 137.601 173.35 136.976C173.35 136.194 173.611 135.569 174.135 135.101C174.662 134.628 175.361 134.392 176.232 134.392C176.568 134.392 176.922 134.431 177.293 134.509C177.664 134.583 178.055 134.696 178.465 134.849ZM184.924 139.231V143.298H183.84V139.231C183.84 138.642 183.736 138.208 183.529 137.931C183.322 137.653 182.998 137.515 182.557 137.515C182.053 137.515 181.664 137.694 181.391 138.054C181.121 138.409 180.986 138.921 180.986 139.589V143.298H179.908V136.735H180.986V137.72C181.178 137.345 181.438 137.062 181.766 136.87C182.094 136.675 182.482 136.577 182.932 136.577C183.6 136.577 184.098 136.798 184.426 137.239C184.758 137.677 184.924 138.341 184.924 139.231ZM186.848 136.759H189.607V142.46H191.746V143.298H186.391V142.46H188.529V137.597H186.848V136.759ZM188.529 134.21H189.607V135.569H188.529V134.21ZM193.424 142.472V145.794H192.34V136.735H193.424V137.573C193.604 137.249 193.842 137.003 194.139 136.835C194.439 136.663 194.785 136.577 195.176 136.577C195.969 136.577 196.59 136.884 197.039 137.497C197.492 138.11 197.719 138.96 197.719 140.046C197.719 141.112 197.492 141.95 197.039 142.56C196.586 143.165 195.965 143.468 195.176 143.468C194.777 143.468 194.428 143.384 194.127 143.216C193.83 143.044 193.596 142.796 193.424 142.472ZM196.588 140.022C196.588 139.187 196.455 138.556 196.189 138.13C195.928 137.704 195.537 137.491 195.018 137.491C194.494 137.491 194.098 137.706 193.828 138.136C193.559 138.562 193.424 139.19 193.424 140.022C193.424 140.851 193.559 141.479 193.828 141.909C194.098 142.339 194.494 142.554 195.018 142.554C195.537 142.554 195.928 142.341 196.189 141.915C196.455 141.489 196.588 140.858 196.588 140.022ZM199.654 142.472V145.794H198.57V136.735H199.654V137.573C199.834 137.249 200.072 137.003 200.369 136.835C200.67 136.663 201.016 136.577 201.406 136.577C202.199 136.577 202.82 136.884 203.27 137.497C203.723 138.11 203.949 138.96 203.949 140.046C203.949 141.112 203.723 141.95 203.27 142.56C202.816 143.165 202.195 143.468 201.406 143.468C201.008 143.468 200.658 143.384 200.357 143.216C200.061 143.044 199.826 142.796 199.654 142.472ZM202.818 140.022C202.818 139.187 202.686 138.556 202.42 138.13C202.158 137.704 201.768 137.491 201.248 137.491C200.725 137.491 200.328 137.706 200.059 138.136C199.789 138.562 199.654 139.19 199.654 140.022C199.654 140.851 199.789 141.479 200.059 141.909C200.328 142.339 200.725 142.554 201.248 142.554C201.768 142.554 202.158 142.341 202.42 141.915C202.686 141.489 202.818 140.858 202.818 140.022ZM210.25 139.478V140.005H205.58V140.04C205.549 140.935 205.719 141.577 206.09 141.968C206.465 142.358 206.992 142.554 207.672 142.554C208.016 142.554 208.375 142.499 208.75 142.39C209.125 142.28 209.525 142.114 209.951 141.892V142.964C209.541 143.132 209.145 143.257 208.762 143.339C208.383 143.425 208.016 143.468 207.66 143.468C206.641 143.468 205.844 143.163 205.27 142.554C204.695 141.94 204.408 141.097 204.408 140.022C204.408 138.976 204.689 138.14 205.252 137.515C205.814 136.89 206.564 136.577 207.502 136.577C208.338 136.577 208.996 136.86 209.477 137.427C209.961 137.993 210.219 138.677 210.25 139.478ZM209.172 139.161C209.125 138.708 208.959 138.317 208.674 137.989C208.393 137.657 207.986 137.491 207.455 137.491C206.936 137.491 206.508 137.663 206.172 138.007C205.836 138.351 205.652 138.737 205.621 139.167L209.172 139.161ZM213.516 134.872V136.735H215.965V137.573H213.516V141.136C213.516 141.62 213.607 141.958 213.791 142.149C213.975 142.341 214.295 142.437 214.752 142.437H215.965V143.298H214.646C213.838 143.298 213.268 143.136 212.936 142.812C212.604 142.487 212.438 141.929 212.438 141.136V137.573H210.686V136.735H212.438V134.872H213.516Z" fill="white"/>
<path d="M100 122.298H222V120.298H100V122.298ZM225 125.298V152.298H227V125.298H225ZM222 155.298H100V157.298H222V155.298ZM97 152.298V125.298H95V152.298H97ZM100 155.298C98.3431 155.298 97 153.955 97 152.298H95C95 155.059 97.2386 157.298 100 157.298V155.298ZM225 152.298C225 153.955 223.657 155.298 222 155.298V157.298C224.761 157.298 227 155.059 227 152.298H225ZM222 122.298C223.657 122.298 225 123.641 225 125.298H227C227 122.536 224.761 120.298 222 120.298V122.298ZM100 120.298C97.2386 120.298 95 122.536 95 125.298H97C97 123.641 98.3431 122.298 100 122.298V120.298Z" fill="url(#paint0_linear_1508_21499)" fill-opacity="0.85"/>
</g>
<rect opacity="0.3" x="94" y="54.2979" width="221" height="19" fill="#23A9F2"/>
<rect opacity="0.3" x="94" y="73.2979" width="180" height="15" fill="#23A9F2"/>
<rect opacity="0.3" x="94" y="88.2979" width="184" height="19" fill="#23A9F2"/>
<g clip-path="url(#clip0_1508_21499)">
<g filter="url(#filter2_d_1508_21499)">
<path d="M170.219 172.173H174.514C174.564 172.173 174.612 172.153 174.647 172.118L175.879 170.886C176.015 170.749 176.2 170.673 176.393 170.673C176.668 170.673 176.919 170.828 177.043 171.074L177.564 172.118C177.581 172.151 177.616 172.173 177.654 172.173H179.423C179.654 172.173 179.842 171.986 179.842 171.755C179.842 170.057 180.237 168.382 180.996 166.864C181.969 164.918 183.153 162.949 182.804 160.678L182.531 158.899C182.445 158.337 181.962 157.923 181.394 157.923H181.187C180.666 157.923 180.244 158.345 180.244 158.866V159.609C180.244 159.72 180.154 159.81 180.043 159.81C179.932 159.81 179.842 159.72 179.842 159.609V157.923C179.842 157.094 179.17 156.423 178.342 156.423C177.513 156.423 176.842 157.094 176.842 157.923V159.641C176.842 159.848 176.674 160.016 176.467 160.016C176.26 160.016 176.092 159.848 176.092 159.641V157.923C176.092 157.094 175.42 156.423 174.592 156.423C173.763 156.423 173.092 157.094 173.092 157.923V160.084C173.092 160.143 173.078 160.2 173.052 160.252C172.914 160.528 172.52 160.528 172.381 160.252C172.355 160.2 172.342 160.143 172.342 160.084V152.673C172.342 151.695 171.545 150.423 170.467 150.423C169.389 150.423 168.592 151.695 168.592 152.673V161.947C168.592 162.21 168.379 162.423 168.116 162.423C167.946 162.423 167.79 162.333 167.703 162.187C167.414 161.702 166.743 160.603 166.342 160.173C166.116 159.931 165.663 159.757 165.222 159.639C164.539 159.455 163.845 159.793 163.453 160.381C162.952 161.132 163.051 162.132 163.689 162.771L164.921 164.002C165.362 164.443 165.694 164.981 165.892 165.573L165.967 165.798C166.213 166.538 166.629 167.21 167.18 167.761L169.121 169.702C169.742 170.324 170.092 171.167 170.092 172.046C170.092 172.116 170.149 172.173 170.219 172.173Z" fill="white"/>
<path d="M170.219 172.173H174.514C174.564 172.173 174.612 172.153 174.647 172.118L175.879 170.886C176.015 170.749 176.2 170.673 176.393 170.673C176.668 170.673 176.919 170.828 177.043 171.074L177.564 172.118C177.581 172.151 177.616 172.173 177.654 172.173H179.423C179.654 172.173 179.842 171.986 179.842 171.755C179.842 170.057 180.237 168.382 180.996 166.864C181.969 164.918 183.153 162.949 182.804 160.678L182.531 158.899C182.445 158.337 181.962 157.923 181.394 157.923H181.187C180.666 157.923 180.244 158.345 180.244 158.866V159.609C180.244 159.72 180.154 159.81 180.043 159.81C179.932 159.81 179.842 159.72 179.842 159.609V157.923C179.842 157.094 179.17 156.423 178.342 156.423C177.513 156.423 176.842 157.094 176.842 157.923V159.641C176.842 159.848 176.674 160.016 176.467 160.016C176.26 160.016 176.092 159.848 176.092 159.641V157.923C176.092 157.094 175.42 156.423 174.592 156.423C173.763 156.423 173.092 157.094 173.092 157.923V160.084C173.092 160.143 173.078 160.2 173.052 160.252C172.914 160.528 172.52 160.528 172.381 160.252C172.355 160.2 172.342 160.143 172.342 160.084V152.673C172.342 151.695 171.545 150.423 170.467 150.423C169.389 150.423 168.592 151.695 168.592 152.673V161.947C168.592 162.21 168.379 162.423 168.116 162.423C167.946 162.423 167.79 162.333 167.703 162.187C167.414 161.702 166.743 160.603 166.342 160.173C166.116 159.931 165.663 159.757 165.222 159.639C164.539 159.455 163.845 159.793 163.453 160.381C162.952 161.132 163.051 162.132 163.689 162.771L164.921 164.002C165.362 164.443 165.694 164.981 165.892 165.573L165.967 165.798C166.213 166.538 166.629 167.21 167.18 167.761L169.121 169.702C169.742 170.324 170.092 171.167 170.092 172.046C170.092 172.116 170.149 172.173 170.219 172.173Z" stroke="black"/>
</g>
<line x1="172.809" y1="162.96" x2="172.809" y2="168.732" stroke="black"/>
<line x1="175.768" y1="162.96" x2="175.768" y2="168.732" stroke="black"/>
<line x1="178.803" y1="162.96" x2="178.803" y2="168.732" stroke="black"/>
</g>
<defs>
<filter id="filter0_dddddd_1508_21499" x="0" y="0.432617" width="520" height="323" filterUnits="userSpaceOnUse" color-interpolation-filters="sRGB">
<feFlood flood-opacity="0" result="BackgroundImageFix"/>
<feColorMatrix in="SourceAlpha" type="matrix" values="0 0 0 0 0 0 0 0 0 0 0 0 0 0 0 0 0 0 127 0" result="hardAlpha"/>
<feOffset dy="2.76726"/>
<feGaussianBlur stdDeviation="1.1069"/>
<feColorMatrix type="matrix" values="0 0 0 0 0 0 0 0 0 0 0 0 0 0 0 0 0 0 0.0196802 0"/>
<feBlend mode="normal" in2="BackgroundImageFix" result="effect1_dropShadow_1508_21499"/>
<feColorMatrix in="SourceAlpha" type="matrix" values="0 0 0 0 0 0 0 0 0 0 0 0 0 0 0 0 0 0 127 0" result="hardAlpha"/>
<feOffset dy="6.6501"/>
<feGaussianBlur stdDeviation="2.66004"/>
<feColorMatrix type="matrix" values="0 0 0 0 0 0 0 0 0 0 0 0 0 0 0 0 0 0 0.0282725 0"/>
<feBlend mode="normal" in2="effect1_dropShadow_1508_21499" result="effect2_dropShadow_1508_21499"/>
<feColorMatrix in="SourceAlpha" type="matrix" values="0 0 0 0 0 0 0 0 0 0 0 0 0 0 0 0 0 0 127 0" result="hardAlpha"/>
<feOffset dy="12.5216"/>
<feGaussianBlur stdDeviation="5.00862"/>
<feColorMatrix type="matrix" values="0 0 0 0 0 0 0 0 0 0 0 0 0 0 0 0 0 0 0.035 0"/>
<feBlend mode="normal" in2="effect2_dropShadow_1508_21499" result="effect3_dropShadow_1508_21499"/>
<feColorMatrix in="SourceAlpha" type="matrix" values="0 0 0 0 0 0 0 0 0 0 0 0 0 0 0 0 0 0 127 0" result="hardAlpha"/>
<feOffset dy="22.3363"/>
<feGaussianBlur stdDeviation="8.93452"/>
<feColorMatrix type="matrix" values="0 0 0 0 0 0 0 0 0 0 0 0 0 0 0 0 0 0 0.0417275 0"/>
<feBlend mode="normal" in2="effect3_dropShadow_1508_21499" result="effect4_dropShadow_1508_21499"/>
<feColorMatrix in="SourceAlpha" type="matrix" values="0 0 0 0 0 0 0 0 0 0 0 0 0 0 0 0 0 0 127 0" result="hardAlpha"/>
<feOffset dy="41.7776"/>
<feGaussianBlur stdDeviation="16.711"/>
<feColorMatrix type="matrix" values="0 0 0 0 0 0 0 0 0 0 0 0 0 0 0 0 0 0 0.0503198 0"/>
<feBlend mode="normal" in2="effect4_dropShadow_1508_21499" result="effect5_dropShadow_1508_21499"/>
<feColorMatrix in="SourceAlpha" type="matrix" values="0 0 0 0 0 0 0 0 0 0 0 0 0 0 0 0 0 0 127 0" result="hardAlpha"/>
<feOffset dy="100"/>
<feGaussianBlur stdDeviation="40"/>
<feColorMatrix type="matrix" values="0 0 0 0 0 0 0 0 0 0 0 0 0 0 0 0 0 0 0.07 0"/>
<feBlend mode="normal" in2="effect5_dropShadow_1508_21499" result="effect6_dropShadow_1508_21499"/>
<feBlend mode="normal" in="SourceGraphic" in2="effect6_dropShadow_1508_21499" result="shape"/>
</filter>
<filter id="filter1_d_1508_21499" x="80" y="105.298" width="164" height="69" filterUnits="userSpaceOnUse" color-interpolation-filters="sRGB">
<feFlood flood-opacity="0" result="BackgroundImageFix"/>
<feColorMatrix in="SourceAlpha" type="matrix" values="0 0 0 0 0 0 0 0 0 0 0 0 0 0 0 0 0 0 127 0" result="hardAlpha"/>
<feOffset dx="1" dy="1"/>
<feGaussianBlur stdDeviation="8"/>
<feColorMatrix type="matrix" values="0 0 0 0 0.101961 0 0 0 0 0.101961 0 0 0 0 0.101961 0 0 0 0.65 0"/>
<feBlend mode="normal" in2="BackgroundImageFix" result="effect1_dropShadow_1508_21499"/>
<feBlend mode="normal" in="SourceGraphic" in2="effect1_dropShadow_1508_21499" result="shape"/>
</filter>
<filter id="filter2_d_1508_21499" x="155.678" y="146.628" width="30.9821" height="33.0016" filterUnits="userSpaceOnUse" color-interpolation-filters="sRGB">
<feFlood flood-opacity="0" result="BackgroundImageFix"/>
<feColorMatrix in="SourceAlpha" type="matrix" values="0 0 0 0 0 0 0 0 0 0 0 0 0 0 0 0 0 0 127 0" result="hardAlpha"/>
<feOffset dx="-1.83065" dy="1.83065"/>
<feGaussianBlur stdDeviation="2.56291"/>
<feColorMatrix type="matrix" values="0 0 0 0 0 0 0 0 0 0 0 0 0 0 0 0 0 0 0.6 0"/>
<feBlend mode="normal" in2="BackgroundImageFix" result="effect1_dropShadow_1508_21499"/>
<feBlend mode="normal" in="SourceGraphic" in2="effect1_dropShadow_1508_21499" result="shape"/>
</filter>
<linearGradient id="paint0_linear_1508_21499" x1="125.5" y1="113" x2="132.937" y2="164.801" gradientUnits="userSpaceOnUse">
<stop stop-color="#23A9F2"/>
<stop offset="0.980392" stop-color="#00C543"/>
</linearGradient>
<clipPath id="clip0_1508_21499">
<rect width="36" height="36" fill="white" transform="translate(155 143.298)"/>
</clipPath>
</defs>
</svg>
