<svg width="360" height="179" viewBox="0 0 360 179" fill="none" xmlns="http://www.w3.org/2000/svg">
<rect y="0.120605" width="360" height="143" rx="8" fill="#282C34"/>
<path d="M17.582 28.1304H19.4219V21.521L17.2188 22.5815V21.4448L19.4102 20.4019H20.5938V28.1304H22.4102V29.1206H17.582V28.1304ZM18.1855 46.1245H22.2051V47.1206H16.8906V46.1245C17.6211 45.355 18.2598 44.6753 18.8066 44.0854C19.3535 43.4956 19.7305 43.0796 19.9375 42.8374C20.3281 42.3608 20.5918 41.9761 20.7285 41.6831C20.8652 41.3862 20.9336 41.0835 20.9336 40.7749C20.9336 40.2866 20.7891 39.9038 20.5 39.6265C20.2148 39.3491 19.8223 39.2104 19.3223 39.2104C18.9668 39.2104 18.5938 39.2749 18.2031 39.4038C17.8125 39.5327 17.3984 39.728 16.9609 39.9897V38.7944C17.3633 38.603 17.7578 38.4585 18.1445 38.3608C18.5352 38.2632 18.9199 38.2144 19.2988 38.2144C20.1543 38.2144 20.8418 38.4429 21.3613 38.8999C21.8848 39.353 22.1465 39.9487 22.1465 40.687C22.1465 41.062 22.0586 41.437 21.8828 41.812C21.7109 42.187 21.4297 42.6011 21.0391 43.0542C20.8203 43.3081 20.502 43.6597 20.084 44.1089C19.6699 44.5581 19.0371 45.23 18.1855 46.1245ZM20.5469 60.439C21.1211 60.5913 21.5605 60.8628 21.8652 61.2534C22.1699 61.6401 22.3223 62.1245 22.3223 62.7065C22.3223 63.5112 22.0508 64.144 21.5078 64.605C20.9688 65.062 20.2207 65.2905 19.2637 65.2905C18.8613 65.2905 18.4512 65.2534 18.0332 65.1792C17.6152 65.105 17.2051 64.9976 16.8027 64.8569V63.6792C17.2012 63.8862 17.5938 64.0405 17.9805 64.1421C18.3672 64.2437 18.752 64.2944 19.1348 64.2944C19.7832 64.2944 20.2812 64.1479 20.6289 63.855C20.9766 63.562 21.1504 63.1401 21.1504 62.5894C21.1504 62.0815 20.9766 61.6792 20.6289 61.3823C20.2812 61.0815 19.8105 60.9312 19.2168 60.9312H18.3145V59.9585H19.2168C19.7598 59.9585 20.1836 59.8394 20.4883 59.6011C20.793 59.3628 20.9453 59.0308 20.9453 58.605C20.9453 58.1558 20.8027 57.812 20.5176 57.5737C20.2363 57.3315 19.834 57.2104 19.3105 57.2104C18.9629 57.2104 18.6035 57.2495 18.2324 57.3276C17.8613 57.4058 17.4727 57.5229 17.0664 57.6792V56.5894C17.5391 56.4644 17.959 56.3706 18.3262 56.3081C18.6973 56.2456 19.0254 56.2144 19.3105 56.2144C20.1621 56.2144 20.8418 56.4292 21.3496 56.8589C21.8613 57.2847 22.1172 57.8511 22.1172 58.5581C22.1172 59.0386 21.9824 59.439 21.7129 59.7593C21.4473 60.0796 21.0586 60.3062 20.5469 60.439ZM20.3066 75.4507L17.5469 80.0737H20.3066V75.4507ZM20.1133 74.3726H21.4844V80.0737H22.6504V81.0347H21.4844V83.1206H20.3066V81.0347H16.5977V79.9155L20.1133 74.3726ZM17.2129 92.3726H21.6426V93.3687H18.291V95.519C18.459 95.4565 18.627 95.4116 18.7949 95.3843C18.9668 95.353 19.1387 95.3374 19.3105 95.3374C20.2168 95.3374 20.9355 95.605 21.4668 96.1401C21.998 96.6753 22.2637 97.3999 22.2637 98.314C22.2637 99.2358 21.9844 99.9624 21.4258 100.494C20.8711 101.025 20.1113 101.291 19.1465 101.291C18.6816 101.291 18.2559 101.259 17.8691 101.197C17.4863 101.134 17.1426 101.041 16.8379 100.916V99.7144C17.1973 99.9097 17.5586 100.056 17.9219 100.154C18.2852 100.248 18.6562 100.294 19.0352 100.294C19.6875 100.294 20.1895 100.123 20.541 99.7788C20.8965 99.4351 21.0742 98.9468 21.0742 98.314C21.0742 97.689 20.8906 97.2026 20.5234 96.855C20.1602 96.5073 19.6523 96.3335 19 96.3335C18.6836 96.3335 18.375 96.3706 18.0742 96.4448C17.7734 96.5151 17.4863 96.6226 17.2129 96.7671V92.3726Z" fill="white" fill-opacity="0.4"/>
<path d="M30.3125 22.5815H33.0723V28.2827H35.2109V29.1206H29.8555V28.2827H31.9941V23.4194H30.3125V22.5815ZM31.9941 20.0327H33.0723V21.3921H31.9941V20.0327ZM38.6523 23.2261C38.7852 22.9448 38.9531 22.7378 39.1562 22.605C39.3633 22.4683 39.6113 22.3999 39.9004 22.3999C40.4277 22.3999 40.7988 22.605 41.0137 23.0151C41.2324 23.4214 41.3418 24.189 41.3418 25.3179V29.1206H40.3574V25.3647C40.3574 24.439 40.3047 23.8647 40.1992 23.6421C40.0977 23.4155 39.9102 23.3022 39.6367 23.3022C39.3242 23.3022 39.1094 23.4233 38.9922 23.6655C38.8789 23.9038 38.8223 24.4702 38.8223 25.3647V29.1206H37.8379V25.3647C37.8379 24.4272 37.7812 23.8491 37.668 23.6304C37.5586 23.4116 37.3594 23.3022 37.0703 23.3022C36.7852 23.3022 36.5859 23.4233 36.4727 23.6655C36.3633 23.9038 36.3086 24.4702 36.3086 25.3647V29.1206H35.3301V22.5581H36.3086V23.1206C36.4375 22.8862 36.5977 22.7085 36.7891 22.5874C36.9844 22.4624 37.2051 22.3999 37.4512 22.3999C37.748 22.3999 37.9941 22.4683 38.1895 22.605C38.3887 22.7417 38.543 22.9487 38.6523 23.2261ZM43.1191 28.2944V31.6167H42.0352V22.5581H43.1191V23.396C43.2988 23.0718 43.5371 22.8257 43.834 22.6577C44.1348 22.4858 44.4805 22.3999 44.8711 22.3999C45.6641 22.3999 46.2852 22.7065 46.7344 23.3198C47.1875 23.9331 47.4141 24.7827 47.4141 25.8687C47.4141 26.9351 47.1875 27.7729 46.7344 28.3823C46.2812 28.9878 45.6602 29.2905 44.8711 29.2905C44.4727 29.2905 44.123 29.2065 43.8223 29.0386C43.5254 28.8667 43.291 28.6187 43.1191 28.2944ZM46.2832 25.8452C46.2832 25.0093 46.1504 24.3784 45.8848 23.9526C45.623 23.5269 45.2324 23.314 44.7129 23.314C44.1895 23.314 43.793 23.5288 43.5234 23.9585C43.2539 24.3843 43.1191 25.0132 43.1191 25.8452C43.1191 26.6733 43.2539 27.3022 43.5234 27.7319C43.793 28.1616 44.1895 28.3765 44.7129 28.3765C45.2324 28.3765 45.623 28.1636 45.8848 27.7378C46.1504 27.312 46.2832 26.6812 46.2832 25.8452ZM50.7617 23.314C50.2148 23.314 49.8008 23.5269 49.5195 23.9526C49.2383 24.3784 49.0977 25.0093 49.0977 25.8452C49.0977 26.6772 49.2383 27.3081 49.5195 27.7378C49.8008 28.1636 50.2148 28.3765 50.7617 28.3765C51.3125 28.3765 51.7285 28.1636 52.0098 27.7378C52.291 27.3081 52.4316 26.6772 52.4316 25.8452C52.4316 25.0093 52.291 24.3784 52.0098 23.9526C51.7285 23.5269 51.3125 23.314 50.7617 23.314ZM50.7617 22.3999C51.6719 22.3999 52.3672 22.6948 52.8477 23.2847C53.332 23.8745 53.5742 24.728 53.5742 25.8452C53.5742 26.9663 53.334 27.8218 52.8535 28.4116C52.373 28.9976 51.6758 29.2905 50.7617 29.2905C49.8516 29.2905 49.1562 28.9976 48.6758 28.4116C48.1953 27.8218 47.9551 26.9663 47.9551 25.8452C47.9551 24.728 48.1953 23.8745 48.6758 23.2847C49.1562 22.6948 49.8516 22.3999 50.7617 22.3999ZM60.1504 23.9116C59.9199 23.7319 59.6855 23.6011 59.4473 23.519C59.209 23.437 58.9473 23.396 58.6621 23.396C57.9902 23.396 57.4766 23.6069 57.1211 24.0288C56.7656 24.4507 56.5879 25.0601 56.5879 25.8569V29.1206H55.5039V22.5581H56.5879V23.8413C56.7676 23.3765 57.043 23.021 57.4141 22.7749C57.7891 22.5249 58.2324 22.3999 58.7441 22.3999C59.0098 22.3999 59.2578 22.4331 59.4883 22.4995C59.7188 22.5659 59.9395 22.6694 60.1504 22.8101V23.9116ZM63.2109 20.6948V22.5581H65.6602V23.396H63.2109V26.9585C63.2109 27.4429 63.3027 27.7808 63.4863 27.9722C63.6699 28.1636 63.9902 28.2593 64.4473 28.2593H65.6602V29.1206H64.3418C63.5332 29.1206 62.9629 28.9585 62.6309 28.6343C62.2988 28.3101 62.1328 27.7515 62.1328 26.9585V23.396H60.3809V22.5581H62.1328V20.6948H63.2109ZM28.4609 40.5581H29.5273L30.6699 45.8608L31.6074 42.4741H32.5273L33.4766 45.8608L34.6191 40.5581H35.6855L34.1504 47.1206H33.1191L32.0703 43.5229L31.0273 47.1206H29.9961L28.4609 40.5581ZM36.543 40.5815H39.3027V46.2827H41.4414V47.1206H36.0859V46.2827H38.2246V41.4194H36.543V40.5815ZM38.2246 38.0327H39.3027V39.3921H38.2246V38.0327ZM44.5195 38.6948V40.5581H46.9688V41.396H44.5195V44.9585C44.5195 45.4429 44.6113 45.7808 44.7949 45.9722C44.9785 46.1636 45.2988 46.2593 45.7559 46.2593H46.9688V47.1206H45.6504C44.8418 47.1206 44.2715 46.9585 43.9395 46.6343C43.6074 46.3101 43.4414 45.7515 43.4414 44.9585V41.396H41.6895V40.5581H43.4414V38.6948H44.5195ZM53.3105 43.0542V47.1206H52.2266V43.0542C52.2266 42.4644 52.123 42.0308 51.916 41.7534C51.709 41.4761 51.3848 41.3374 50.9434 41.3374C50.4395 41.3374 50.0508 41.5171 49.7773 41.8765C49.5078 42.2319 49.373 42.7437 49.373 43.4116V47.1206H48.2949V38.0034H49.373V41.5425C49.5645 41.1675 49.8242 40.8843 50.1523 40.6929C50.4805 40.4976 50.8691 40.3999 51.3184 40.3999C51.9863 40.3999 52.4844 40.6206 52.8125 41.062C53.1445 41.4995 53.3105 42.1636 53.3105 43.0542ZM63.2227 41.314C62.6758 41.314 62.2617 41.5269 61.9805 41.9526C61.6992 42.3784 61.5586 43.0093 61.5586 43.8452C61.5586 44.6772 61.6992 45.3081 61.9805 45.7378C62.2617 46.1636 62.6758 46.3765 63.2227 46.3765C63.7734 46.3765 64.1895 46.1636 64.4707 45.7378C64.752 45.3081 64.8926 44.6772 64.8926 43.8452C64.8926 43.0093 64.752 42.3784 64.4707 41.9526C64.1895 41.5269 63.7734 41.314 63.2227 41.314ZM63.2227 40.3999C64.1328 40.3999 64.8281 40.6948 65.3086 41.2847C65.793 41.8745 66.0352 42.728 66.0352 43.8452C66.0352 44.9663 65.7949 45.8218 65.3145 46.4116C64.834 46.9976 64.1367 47.2905 63.2227 47.2905C62.3125 47.2905 61.6172 46.9976 61.1367 46.4116C60.6562 45.8218 60.416 44.9663 60.416 43.8452C60.416 42.728 60.6562 41.8745 61.1367 41.2847C61.6172 40.6948 62.3125 40.3999 63.2227 40.3999ZM68.041 46.2944V49.6167H66.957V40.5581H68.041V41.396C68.2207 41.0718 68.459 40.8257 68.7559 40.6577C69.0566 40.4858 69.4023 40.3999 69.793 40.3999C70.5859 40.3999 71.207 40.7065 71.6562 41.3198C72.1094 41.9331 72.3359 42.7827 72.3359 43.8687C72.3359 44.9351 72.1094 45.7729 71.6562 46.3823C71.2031 46.9878 70.582 47.2905 69.793 47.2905C69.3945 47.2905 69.0449 47.2065 68.7441 47.0386C68.4473 46.8667 68.2129 46.6187 68.041 46.2944ZM71.2051 43.8452C71.2051 43.0093 71.0723 42.3784 70.8066 41.9526C70.5449 41.5269 70.1543 41.314 69.6348 41.314C69.1113 41.314 68.7148 41.5288 68.4453 41.9585C68.1758 42.3843 68.041 43.0132 68.041 43.8452C68.041 44.6733 68.1758 45.3022 68.4453 45.7319C68.7148 46.1616 69.1113 46.3765 69.6348 46.3765C70.1543 46.3765 70.5449 46.1636 70.8066 45.7378C71.0723 45.312 71.2051 44.6812 71.2051 43.8452ZM78.6367 43.3003V43.8276H73.9668V43.8628C73.9355 44.7573 74.1055 45.3999 74.4766 45.7905C74.8516 46.1812 75.3789 46.3765 76.0586 46.3765C76.4023 46.3765 76.7617 46.3218 77.1367 46.2124C77.5117 46.103 77.9121 45.937 78.3379 45.7144V46.7866C77.9277 46.9546 77.5312 47.0796 77.1484 47.1616C76.7695 47.2476 76.4023 47.2905 76.0469 47.2905C75.0273 47.2905 74.2305 46.9858 73.6562 46.3765C73.082 45.7632 72.7949 44.9194 72.7949 43.8452C72.7949 42.7983 73.0762 41.9624 73.6387 41.3374C74.2012 40.7124 74.9512 40.3999 75.8887 40.3999C76.7246 40.3999 77.3828 40.6831 77.8633 41.2495C78.3477 41.8159 78.6055 42.4995 78.6367 43.3003ZM77.5586 42.9839C77.5117 42.5308 77.3457 42.1401 77.0605 41.812C76.7793 41.48 76.373 41.314 75.8418 41.314C75.3223 41.314 74.8945 41.4858 74.5586 41.8296C74.2227 42.1733 74.0391 42.5601 74.0078 42.9897L77.5586 42.9839ZM84.4629 43.0542V47.1206H83.3789V43.0542C83.3789 42.4644 83.2754 42.0308 83.0684 41.7534C82.8613 41.4761 82.5371 41.3374 82.0957 41.3374C81.5918 41.3374 81.2031 41.5171 80.9297 41.8765C80.6602 42.2319 80.5254 42.7437 80.5254 43.4116V47.1206H79.4473V40.5581H80.5254V41.5425C80.7168 41.1675 80.9766 40.8843 81.3047 40.6929C81.6328 40.4976 82.0215 40.3999 82.4707 40.3999C83.1387 40.3999 83.6367 40.6206 83.9648 41.062C84.2969 41.4995 84.4629 42.1636 84.4629 43.0542ZM188.324 44.0386C187.684 44.0386 187.236 44.1206 186.982 44.2847C186.729 44.4487 186.602 44.73 186.602 45.1284C186.602 45.4253 186.689 45.6616 186.865 45.8374C187.041 46.0132 187.279 46.1011 187.58 46.1011C188.033 46.1011 188.385 45.9312 188.635 45.5913C188.885 45.2476 189.01 44.769 189.01 44.1558V44.0386H188.324ZM190.715 43.3765V47.1206H189.01V46.3882C188.803 46.6772 188.537 46.8999 188.213 47.0562C187.889 47.2124 187.531 47.2905 187.141 47.2905C186.395 47.2905 185.812 47.0933 185.395 46.6987C184.98 46.3042 184.773 45.7534 184.773 45.0464C184.773 44.2808 185.021 43.7163 185.518 43.353C186.014 42.9858 186.781 42.8022 187.82 42.8022H189.01V42.5151C189.01 42.2378 188.908 42.0288 188.705 41.8882C188.506 41.7437 188.211 41.6714 187.82 41.6714C187.41 41.6714 187.012 41.7241 186.625 41.8296C186.242 41.9312 185.842 42.0952 185.424 42.3218V40.8569C185.803 40.7007 186.188 40.5854 186.578 40.5112C186.969 40.437 187.383 40.3999 187.82 40.3999C188.887 40.3999 189.635 40.6167 190.064 41.0503C190.498 41.4839 190.715 42.2593 190.715 43.3765ZM196.26 40.7632V42.2632C195.943 42.0601 195.613 41.9077 195.27 41.8062C194.93 41.7007 194.588 41.6479 194.244 41.6479C193.861 41.6479 193.572 41.7046 193.377 41.8179C193.182 41.9272 193.084 42.0913 193.084 42.3101C193.084 42.6226 193.502 42.8765 194.338 43.0718L194.402 43.0894L194.895 43.2065C195.52 43.355 195.977 43.5952 196.266 43.9272C196.559 44.2554 196.705 44.7007 196.705 45.2632C196.705 45.939 196.482 46.4468 196.037 46.7866C195.596 47.1226 194.93 47.2905 194.039 47.2905C193.645 47.2905 193.24 47.2554 192.826 47.1851C192.412 47.1187 191.992 47.0171 191.566 46.8804V45.3804C191.945 45.5952 192.33 45.7593 192.721 45.8726C193.115 45.9858 193.496 46.0425 193.863 46.0425C194.266 46.0425 194.57 45.9839 194.777 45.8667C194.984 45.7495 195.088 45.5796 195.088 45.3569C195.088 45.1382 195.014 44.9702 194.865 44.853C194.721 44.7358 194.373 44.6108 193.822 44.478L193.348 44.3726C192.691 44.2241 192.213 43.9917 191.912 43.6753C191.611 43.3589 191.461 42.9351 191.461 42.4038C191.461 41.771 191.689 41.2788 192.146 40.9272C192.604 40.5757 193.246 40.3999 194.074 40.3999C194.445 40.3999 194.814 40.4312 195.182 40.4937C195.553 40.5522 195.912 40.6421 196.26 40.7632ZM57.7129 75.9839V76.5581H59.7285V77.8765H57.7129V83.1206H55.9961V77.8765H54.4023V76.5581H55.9961V76.1011C55.9961 75.312 56.1602 74.7651 56.4883 74.4604C56.8164 74.1558 57.4258 74.0034 58.3164 74.0034H59.7285V75.3218H58.3867C58.1289 75.3218 57.9531 75.3687 57.8594 75.4624C57.7695 75.5562 57.7207 75.73 57.7129 75.9839ZM63.2227 77.7944C62.8125 77.7944 62.4902 77.9761 62.2559 78.3394C62.0215 78.6987 61.9043 79.2007 61.9043 79.8452C61.9043 80.4897 62.0215 80.9937 62.2559 81.3569C62.4902 81.7163 62.8125 81.896 63.2227 81.896C63.6367 81.896 63.9609 81.7163 64.1953 81.3569C64.4297 80.9937 64.5469 80.4897 64.5469 79.8452C64.5469 79.2007 64.4297 78.6987 64.1953 78.3394C63.9609 77.9761 63.6367 77.7944 63.2227 77.7944ZM60.1875 79.8452C60.1875 78.7866 60.4609 77.9487 61.0078 77.3315C61.5586 76.7104 62.2969 76.3999 63.2227 76.3999C64.1523 76.3999 64.8906 76.7104 65.4375 77.3315C65.9883 77.9487 66.2637 78.7866 66.2637 79.8452C66.2637 80.9038 65.9883 81.7437 65.4375 82.3647C64.8906 82.9819 64.1523 83.2905 63.2227 83.2905C62.2969 83.2905 61.5586 82.9819 61.0078 82.3647C60.4609 81.7437 60.1875 80.9038 60.1875 79.8452ZM72.5879 78.3687C72.4004 78.1968 72.1797 78.0679 71.9258 77.9819C71.6758 77.896 71.4004 77.853 71.0996 77.853C70.7363 77.853 70.418 77.9175 70.1445 78.0464C69.875 78.1714 69.666 78.355 69.5176 78.5972C69.4238 78.7456 69.3574 78.9253 69.3184 79.1362C69.2832 79.3472 69.2656 79.6675 69.2656 80.0972V83.1206H67.5488V76.5581H69.2656V77.5776C69.4336 77.2026 69.6914 76.9136 70.0391 76.7104C70.3867 76.5034 70.793 76.3999 71.2578 76.3999C71.4922 76.3999 71.7207 76.4292 71.9434 76.4878C72.1699 76.5425 72.3848 76.6245 72.5879 76.7339V78.3687ZM104.521 76.5581H107.92V81.8022H110.053V83.1206H104.064V81.8022H106.203V77.8765H104.521V76.5581ZM106.203 73.3647H107.92V75.3687H106.203V73.3647ZM115.732 78.8608V83.1206H114.027V79.1245C114.027 78.6479 113.959 78.3081 113.822 78.105C113.689 77.8979 113.471 77.7944 113.166 77.7944C112.857 77.7944 112.613 77.9331 112.434 78.2104C112.258 78.4878 112.17 78.8726 112.17 79.3647V83.1206H110.465V76.5581H112.17V77.5425C112.291 77.1792 112.498 76.8979 112.791 76.6987C113.084 76.4995 113.438 76.3999 113.852 76.3999C114.473 76.3999 114.941 76.6069 115.258 77.021C115.574 77.4312 115.732 78.0444 115.732 78.8608ZM68.041 100.294V103.617H66.957V94.5581H68.041V95.396C68.2207 95.0718 68.459 94.8257 68.7559 94.6577C69.0566 94.4858 69.4023 94.3999 69.793 94.3999C70.5859 94.3999 71.207 94.7065 71.6562 95.3198C72.1094 95.9331 72.3359 96.7827 72.3359 97.8687C72.3359 98.9351 72.1094 99.7729 71.6562 100.382C71.2031 100.988 70.582 101.291 69.793 101.291C69.3945 101.291 69.0449 101.207 68.7441 101.039C68.4473 100.867 68.2129 100.619 68.041 100.294ZM71.2051 97.8452C71.2051 97.0093 71.0723 96.3784 70.8066 95.9526C70.5449 95.5269 70.1543 95.314 69.6348 95.314C69.1113 95.314 68.7148 95.5288 68.4453 95.9585C68.1758 96.3843 68.041 97.0132 68.041 97.8452C68.041 98.6733 68.1758 99.3022 68.4453 99.7319C68.7148 100.162 69.1113 100.376 69.6348 100.376C70.1543 100.376 70.5449 100.164 70.8066 99.7378C71.0723 99.312 71.2051 98.6812 71.2051 97.8452ZM78.8418 95.9116C78.6113 95.7319 78.377 95.6011 78.1387 95.519C77.9004 95.437 77.6387 95.396 77.3535 95.396C76.6816 95.396 76.168 95.6069 75.8125 96.0288C75.457 96.4507 75.2793 97.0601 75.2793 97.8569V101.121H74.1953V94.5581H75.2793V95.8413C75.459 95.3765 75.7344 95.021 76.1055 94.7749C76.4805 94.5249 76.9238 94.3999 77.4355 94.3999C77.7012 94.3999 77.9492 94.4331 78.1797 94.4995C78.4102 94.5659 78.6309 94.6694 78.8418 94.8101V95.9116ZM80.1562 94.5815H82.916V100.283H85.0547V101.121H79.6992V100.283H81.8379V95.4194H80.1562V94.5815ZM81.8379 92.0327H82.916V93.3921H81.8379V92.0327ZM90.6934 97.0542V101.121H89.6094V97.0542C89.6094 96.4644 89.5059 96.0308 89.2988 95.7534C89.0918 95.4761 88.7676 95.3374 88.3262 95.3374C87.8223 95.3374 87.4336 95.5171 87.1602 95.8765C86.8906 96.2319 86.7559 96.7437 86.7559 97.4116V101.121H85.6777V94.5581H86.7559V95.5425C86.9473 95.1675 87.207 94.8843 87.5352 94.6929C87.8633 94.4976 88.252 94.3999 88.7012 94.3999C89.3691 94.3999 89.8672 94.6206 90.1953 95.062C90.5273 95.4995 90.6934 96.1636 90.6934 97.0542ZM94.3633 92.6948V94.5581H96.8125V95.396H94.3633V98.9585C94.3633 99.4429 94.4551 99.7808 94.6387 99.9722C94.8223 100.164 95.1426 100.259 95.5996 100.259H96.8125V101.121H95.4941C94.6855 101.121 94.1152 100.958 93.7832 100.634C93.4512 100.31 93.2852 99.7515 93.2852 98.9585V95.396H91.5332V94.5581H93.2852V92.6948H94.3633ZM107.574 91.9917V95.6421H106.262V91.9917H107.574ZM112.047 99.0054H113.875V100.558L112.574 103.083L111.402 103.089L112.047 100.558V99.0054ZM126.266 91.9917V95.6421H124.953V91.9917H126.266Z" fill="#00C543"/>
<path d="M89.5449 37.4292C89.0254 38.3198 88.6367 39.2085 88.3789 40.0952C88.125 40.978 87.998 41.8687 87.998 42.7671C87.998 43.6616 88.125 44.5522 88.3789 45.439C88.6367 46.3257 89.0254 47.2183 89.5449 48.1167H88.6074C88.0176 47.187 87.5781 46.2827 87.2891 45.4038C87 44.521 86.8555 43.6421 86.8555 42.7671C86.8555 41.896 87 41.019 87.2891 40.1362C87.5781 39.2534 88.0176 38.3511 88.6074 37.4292H89.5449ZM173.801 37.4292H174.738C175.328 38.3511 175.768 39.2534 176.057 40.1362C176.346 41.019 176.49 41.896 176.49 42.7671C176.49 43.646 176.346 44.5269 176.057 45.4097C175.768 46.2925 175.328 47.1948 174.738 48.1167H173.801C174.32 47.2104 174.707 46.314 174.961 45.4272C175.219 44.5405 175.348 43.6538 175.348 42.7671C175.348 41.8765 175.219 40.9878 174.961 40.1011C174.707 39.2144 174.32 38.3237 173.801 37.4292ZM209.131 46.7866C208.842 46.9546 208.543 47.0796 208.234 47.1616C207.93 47.2476 207.617 47.2905 207.297 47.2905C206.281 47.2905 205.486 46.9858 204.912 46.3765C204.342 45.7671 204.057 44.9233 204.057 43.8452C204.057 42.7671 204.342 41.9233 204.912 41.314C205.486 40.7046 206.281 40.3999 207.297 40.3999C207.613 40.3999 207.922 40.4409 208.223 40.5229C208.523 40.605 208.826 40.7319 209.131 40.9038V42.0347C208.846 41.7808 208.559 41.5972 208.27 41.4839C207.984 41.3706 207.66 41.314 207.297 41.314C206.621 41.314 206.102 41.5327 205.738 41.9702C205.375 42.4077 205.193 43.0327 205.193 43.8452C205.193 44.6538 205.375 45.2788 205.738 45.7202C206.105 46.1577 206.625 46.3765 207.297 46.3765C207.672 46.3765 208.008 46.3198 208.305 46.2065C208.602 46.0894 208.877 45.9097 209.131 45.6675V46.7866ZM214.846 40.7866V41.8413C214.537 41.6616 214.227 41.5269 213.914 41.437C213.602 41.3472 213.283 41.3022 212.959 41.3022C212.471 41.3022 212.105 41.3823 211.863 41.5425C211.625 41.6987 211.506 41.939 211.506 42.2632C211.506 42.5562 211.596 42.7749 211.775 42.9194C211.955 43.064 212.402 43.2046 213.117 43.3413L213.551 43.4233C214.086 43.5249 214.49 43.728 214.764 44.0327C215.041 44.3374 215.18 44.7339 215.18 45.2222C215.18 45.8706 214.949 46.3784 214.488 46.7456C214.027 47.1089 213.387 47.2905 212.566 47.2905C212.242 47.2905 211.902 47.2554 211.547 47.1851C211.191 47.1187 210.807 47.0171 210.393 46.8804V45.7671C210.795 45.9741 211.18 46.1304 211.547 46.2358C211.914 46.3374 212.262 46.3882 212.59 46.3882C213.066 46.3882 213.436 46.2925 213.697 46.1011C213.959 45.9058 214.09 45.6343 214.09 45.2866C214.09 44.7866 213.611 44.4409 212.654 44.2495L212.607 44.2378L212.203 44.1558C211.582 44.0347 211.129 43.8315 210.844 43.5464C210.559 43.2573 210.416 42.8647 210.416 42.3687C210.416 41.7397 210.629 41.2554 211.055 40.9155C211.48 40.5718 212.088 40.3999 212.877 40.3999C213.229 40.3999 213.566 40.4331 213.891 40.4995C214.215 40.562 214.533 40.6577 214.846 40.7866ZM215.961 40.5581H217.08L218.984 46.0659L220.895 40.5581H222.014L219.682 47.1206H218.293L215.961 40.5581ZM227.834 38.0034V38.8999H226.609C226.223 38.8999 225.953 38.98 225.801 39.1401C225.652 39.2964 225.578 39.5757 225.578 39.978V40.5581H227.834V41.396H225.578V47.1206H224.5V41.396H222.748V40.5581H224.5V40.1011C224.5 39.3823 224.664 38.853 224.992 38.5132C225.324 38.1733 225.84 38.0034 226.539 38.0034H227.834ZM229.688 40.5815H232.447V46.2827H234.586V47.1206H229.23V46.2827H231.369V41.4194H229.688V40.5815ZM231.369 38.0327H232.447V39.3921H231.369V38.0327ZM238.279 44.7476C238.279 45.2319 238.367 45.5972 238.543 45.8433C238.723 46.0894 238.986 46.2124 239.334 46.2124H240.594V47.1206H239.229C238.584 47.1206 238.084 46.9155 237.729 46.5054C237.377 46.0913 237.201 45.5054 237.201 44.7476V38.812H235.473V37.9683H238.279V44.7476ZM246.859 43.3003V43.8276H242.189V43.8628C242.158 44.7573 242.328 45.3999 242.699 45.7905C243.074 46.1812 243.602 46.3765 244.281 46.3765C244.625 46.3765 244.984 46.3218 245.359 46.2124C245.734 46.103 246.135 45.937 246.561 45.7144V46.7866C246.15 46.9546 245.754 47.0796 245.371 47.1616C244.992 47.2476 244.625 47.2905 244.27 47.2905C243.25 47.2905 242.453 46.9858 241.879 46.3765C241.305 45.7632 241.018 44.9194 241.018 43.8452C241.018 42.7983 241.299 41.9624 241.861 41.3374C242.424 40.7124 243.174 40.3999 244.111 40.3999C244.947 40.3999 245.605 40.6831 246.086 41.2495C246.57 41.8159 246.828 42.4995 246.859 43.3003ZM245.781 42.9839C245.734 42.5308 245.568 42.1401 245.283 41.812C245.002 41.48 244.596 41.314 244.064 41.314C243.545 41.314 243.117 41.4858 242.781 41.8296C242.445 42.1733 242.262 42.5601 242.23 42.9897L245.781 42.9839ZM249.041 40.564H250.869V42.6792H249.041V40.564ZM249.041 44.9878H250.869V47.1206H249.041V44.9878ZM40.9082 64.7866C40.6191 64.9546 40.3203 65.0796 40.0117 65.1616C39.707 65.2476 39.3945 65.2905 39.0742 65.2905C38.0586 65.2905 37.2637 64.9858 36.6895 64.3765C36.1191 63.7671 35.834 62.9233 35.834 61.8452C35.834 60.7671 36.1191 59.9233 36.6895 59.314C37.2637 58.7046 38.0586 58.3999 39.0742 58.3999C39.3906 58.3999 39.6992 58.4409 40 58.5229C40.3008 58.605 40.6035 58.7319 40.9082 58.9038V60.0347C40.623 59.7808 40.3359 59.5972 40.0469 59.4839C39.7617 59.3706 39.4375 59.314 39.0742 59.314C38.3984 59.314 37.8789 59.5327 37.5156 59.9702C37.1523 60.4077 36.9707 61.0327 36.9707 61.8452C36.9707 62.6538 37.1523 63.2788 37.5156 63.7202C37.8828 64.1577 38.4023 64.3765 39.0742 64.3765C39.4492 64.3765 39.7852 64.3198 40.082 64.2065C40.3789 64.0894 40.6543 63.9097 40.9082 63.6675V64.7866ZM46.623 58.7866V59.8413C46.3145 59.6616 46.0039 59.5269 45.6914 59.437C45.3789 59.3472 45.0605 59.3022 44.7363 59.3022C44.248 59.3022 43.8828 59.3823 43.6406 59.5425C43.4023 59.6987 43.2832 59.939 43.2832 60.2632C43.2832 60.5562 43.373 60.7749 43.5527 60.9194C43.7324 61.064 44.1797 61.2046 44.8945 61.3413L45.3281 61.4233C45.8633 61.5249 46.2676 61.728 46.541 62.0327C46.8184 62.3374 46.957 62.7339 46.957 63.2222C46.957 63.8706 46.7266 64.3784 46.2656 64.7456C45.8047 65.1089 45.1641 65.2905 44.3438 65.2905C44.0195 65.2905 43.6797 65.2554 43.3242 65.1851C42.9688 65.1187 42.584 65.0171 42.1699 64.8804V63.7671C42.5723 63.9741 42.957 64.1304 43.3242 64.2358C43.6914 64.3374 44.0391 64.3882 44.3672 64.3882C44.8438 64.3882 45.2129 64.2925 45.4746 64.1011C45.7363 63.9058 45.8672 63.6343 45.8672 63.2866C45.8672 62.7866 45.3887 62.4409 44.4316 62.2495L44.3848 62.2378L43.9805 62.1558C43.3594 62.0347 42.9062 61.8315 42.6211 61.5464C42.3359 61.2573 42.1934 60.8647 42.1934 60.3687C42.1934 59.7397 42.4062 59.2554 42.832 58.9155C43.2578 58.5718 43.8652 58.3999 44.6543 58.3999C45.0059 58.3999 45.3438 58.4331 45.668 58.4995C45.9922 58.562 46.3105 58.6577 46.623 58.7866ZM47.7383 58.5581H48.8574L50.7617 64.0659L52.6719 58.5581H53.791L51.459 65.1206H50.0703L47.7383 58.5581ZM60.5547 66.2339V67.23H53.3828V66.2339H60.5547ZM66.3809 59.9116C66.1504 59.7319 65.916 59.6011 65.6777 59.519C65.4395 59.437 65.1777 59.396 64.8926 59.396C64.2207 59.396 63.707 59.6069 63.3516 60.0288C62.9961 60.4507 62.8184 61.0601 62.8184 61.8569V65.1206H61.7344V58.5581H62.8184V59.8413C62.998 59.3765 63.2734 59.021 63.6445 58.7749C64.0195 58.5249 64.4629 58.3999 64.9746 58.3999C65.2402 58.3999 65.4883 58.4331 65.7188 58.4995C65.9492 58.5659 66.1699 58.6694 66.3809 58.8101V59.9116ZM72.4062 61.3003V61.8276H67.7363V61.8628C67.7051 62.7573 67.875 63.3999 68.2461 63.7905C68.6211 64.1812 69.1484 64.3765 69.8281 64.3765C70.1719 64.3765 70.5312 64.3218 70.9062 64.2124C71.2812 64.103 71.6816 63.937 72.1074 63.7144V64.7866C71.6973 64.9546 71.3008 65.0796 70.918 65.1616C70.5391 65.2476 70.1719 65.2905 69.8164 65.2905C68.7969 65.2905 68 64.9858 67.4258 64.3765C66.8516 63.7632 66.5645 62.9194 66.5645 61.8452C66.5645 60.7983 66.8457 59.9624 67.4082 59.3374C67.9707 58.7124 68.7207 58.3999 69.6582 58.3999C70.4941 58.3999 71.1523 58.6831 71.6328 59.2495C72.1172 59.8159 72.375 60.4995 72.4062 61.3003ZM71.3281 60.9839C71.2812 60.5308 71.1152 60.1401 70.8301 59.812C70.5488 59.48 70.1426 59.314 69.6113 59.314C69.0918 59.314 68.6641 59.4858 68.3281 59.8296C67.9922 60.1733 67.8086 60.5601 67.7773 60.9897L71.3281 60.9839ZM76.1875 61.8218H75.8301C75.2012 61.8218 74.7266 61.9331 74.4062 62.1558C74.0898 62.3745 73.9316 62.7026 73.9316 63.1401C73.9316 63.5347 74.0508 63.8413 74.2891 64.0601C74.5273 64.2788 74.8574 64.3882 75.2793 64.3882C75.873 64.3882 76.3398 64.1831 76.6797 63.7729C77.0195 63.3589 77.1914 62.7886 77.1953 62.062V61.8218H76.1875ZM78.2793 61.3765V65.1206H77.1953V64.1479C76.9648 64.5386 76.6738 64.8276 76.3223 65.0151C75.9746 65.1987 75.5508 65.2905 75.0508 65.2905C74.3828 65.2905 73.8496 65.103 73.4512 64.728C73.0527 64.3491 72.8535 63.8433 72.8535 63.2104C72.8535 62.48 73.0977 61.9253 73.5859 61.5464C74.0781 61.1675 74.7988 60.978 75.748 60.978H77.1953V60.8081C77.1914 60.2847 77.0586 59.9058 76.7969 59.6714C76.5352 59.4331 76.1172 59.314 75.543 59.314C75.1758 59.314 74.8047 59.3667 74.4297 59.4722C74.0547 59.5776 73.6895 59.7319 73.334 59.9351V58.8569C73.7324 58.7046 74.1133 58.5913 74.4766 58.5171C74.8438 58.439 75.1992 58.3999 75.543 58.3999C76.0859 58.3999 76.5488 58.48 76.9316 58.6401C77.3184 58.8003 77.6309 59.0405 77.8691 59.3608C78.0176 59.5562 78.123 59.7983 78.1855 60.0874C78.248 60.3726 78.2793 60.8022 78.2793 61.3765ZM83.332 59.396V56.0034H84.4102V65.1206H83.332V64.2944C83.1523 64.6187 82.9121 64.8667 82.6113 65.0386C82.3145 65.2065 81.9707 65.2905 81.5801 65.2905C80.7871 65.2905 80.1621 64.9839 79.7051 64.3706C79.252 63.7534 79.0254 62.9038 79.0254 61.8218C79.0254 60.7554 79.2539 59.9194 79.7109 59.314C80.168 58.7046 80.791 58.3999 81.5801 58.3999C81.9746 58.3999 82.3223 58.4858 82.623 58.6577C82.9238 58.8257 83.1602 59.0718 83.332 59.396ZM80.1621 61.8452C80.1621 62.6812 80.2949 63.312 80.5605 63.7378C80.8262 64.1636 81.2188 64.3765 81.7383 64.3765C82.2578 64.3765 82.6523 64.1616 82.9219 63.7319C83.1953 63.3022 83.332 62.6733 83.332 61.8452C83.332 61.0132 83.1953 60.3843 82.9219 59.9585C82.6523 59.5288 82.2578 59.314 81.7383 59.314C81.2188 59.314 80.8262 59.5269 80.5605 59.9526C80.2949 60.3784 80.1621 61.0093 80.1621 61.8452ZM91.0977 61.3003V61.8276H86.4277V61.8628C86.3965 62.7573 86.5664 63.3999 86.9375 63.7905C87.3125 64.1812 87.8398 64.3765 88.5195 64.3765C88.8633 64.3765 89.2227 64.3218 89.5977 64.2124C89.9727 64.103 90.373 63.937 90.7988 63.7144V64.7866C90.3887 64.9546 89.9922 65.0796 89.6094 65.1616C89.2305 65.2476 88.8633 65.2905 88.5078 65.2905C87.4883 65.2905 86.6914 64.9858 86.1172 64.3765C85.543 63.7632 85.2559 62.9194 85.2559 61.8452C85.2559 60.7983 85.5371 59.9624 86.0996 59.3374C86.6621 58.7124 87.4121 58.3999 88.3496 58.3999C89.1855 58.3999 89.8438 58.6831 90.3242 59.2495C90.8086 59.8159 91.0664 60.4995 91.0977 61.3003ZM90.0195 60.9839C89.9727 60.5308 89.8066 60.1401 89.5215 59.812C89.2402 59.48 88.834 59.314 88.3027 59.314C87.7832 59.314 87.3555 59.4858 87.0195 59.8296C86.6836 60.1733 86.5 60.5601 86.4688 60.9897L90.0195 60.9839ZM97.5332 59.9116C97.3027 59.7319 97.0684 59.6011 96.8301 59.519C96.5918 59.437 96.3301 59.396 96.0449 59.396C95.373 59.396 94.8594 59.6069 94.5039 60.0288C94.1484 60.4507 93.9707 61.0601 93.9707 61.8569V65.1206H92.8867V58.5581H93.9707V59.8413C94.1504 59.3765 94.4258 59.021 94.7969 58.7749C95.1719 58.5249 95.6152 58.3999 96.127 58.3999C96.3926 58.3999 96.6406 58.4331 96.8711 58.4995C97.1016 58.5659 97.3223 58.6694 97.5332 58.8101V59.9116ZM103.742 62.1909H109.936V63.1812H103.742V62.1909ZM103.742 59.4312H109.936V60.4214H103.742V59.4312ZM121.904 64.7866C121.615 64.9546 121.316 65.0796 121.008 65.1616C120.703 65.2476 120.391 65.2905 120.07 65.2905C119.055 65.2905 118.26 64.9858 117.686 64.3765C117.115 63.7671 116.83 62.9233 116.83 61.8452C116.83 60.7671 117.115 59.9233 117.686 59.314C118.26 58.7046 119.055 58.3999 120.07 58.3999C120.387 58.3999 120.695 58.4409 120.996 58.5229C121.297 58.605 121.6 58.7319 121.904 58.9038V60.0347C121.619 59.7808 121.332 59.5972 121.043 59.4839C120.758 59.3706 120.434 59.314 120.07 59.314C119.395 59.314 118.875 59.5327 118.512 59.9702C118.148 60.4077 117.967 61.0327 117.967 61.8452C117.967 62.6538 118.148 63.2788 118.512 63.7202C118.879 64.1577 119.398 64.3765 120.07 64.3765C120.445 64.3765 120.781 64.3198 121.078 64.2065C121.375 64.0894 121.65 63.9097 121.904 63.6675V64.7866ZM127.619 58.7866V59.8413C127.311 59.6616 127 59.5269 126.688 59.437C126.375 59.3472 126.057 59.3022 125.732 59.3022C125.244 59.3022 124.879 59.3823 124.637 59.5425C124.398 59.6987 124.279 59.939 124.279 60.2632C124.279 60.5562 124.369 60.7749 124.549 60.9194C124.729 61.064 125.176 61.2046 125.891 61.3413L126.324 61.4233C126.859 61.5249 127.264 61.728 127.537 62.0327C127.814 62.3374 127.953 62.7339 127.953 63.2222C127.953 63.8706 127.723 64.3784 127.262 64.7456C126.801 65.1089 126.16 65.2905 125.34 65.2905C125.016 65.2905 124.676 65.2554 124.32 65.1851C123.965 65.1187 123.58 65.0171 123.166 64.8804V63.7671C123.568 63.9741 123.953 64.1304 124.32 64.2358C124.688 64.3374 125.035 64.3882 125.363 64.3882C125.84 64.3882 126.209 64.2925 126.471 64.1011C126.732 63.9058 126.863 63.6343 126.863 63.2866C126.863 62.7866 126.385 62.4409 125.428 62.2495L125.381 62.2378L124.977 62.1558C124.355 62.0347 123.902 61.8315 123.617 61.5464C123.332 61.2573 123.189 60.8647 123.189 60.3687C123.189 59.7397 123.402 59.2554 123.828 58.9155C124.254 58.5718 124.861 58.3999 125.65 58.3999C126.002 58.3999 126.34 58.4331 126.664 58.4995C126.988 58.562 127.307 58.6577 127.619 58.7866ZM128.734 58.5581H129.854L131.758 64.0659L133.668 58.5581H134.787L132.455 65.1206H131.066L128.734 58.5581ZM136.658 62.7534H138.721V65.1206H136.658V62.7534ZM147.377 59.9116C147.146 59.7319 146.912 59.6011 146.674 59.519C146.436 59.437 146.174 59.396 145.889 59.396C145.217 59.396 144.703 59.6069 144.348 60.0288C143.992 60.4507 143.814 61.0601 143.814 61.8569V65.1206H142.73V58.5581H143.814V59.8413C143.994 59.3765 144.27 59.021 144.641 58.7749C145.016 58.5249 145.459 58.3999 145.971 58.3999C146.236 58.3999 146.484 58.4331 146.715 58.4995C146.945 58.5659 147.166 58.6694 147.377 58.8101V59.9116ZM153.402 61.3003V61.8276H148.732V61.8628C148.701 62.7573 148.871 63.3999 149.242 63.7905C149.617 64.1812 150.145 64.3765 150.824 64.3765C151.168 64.3765 151.527 64.3218 151.902 64.2124C152.277 64.103 152.678 63.937 153.104 63.7144V64.7866C152.693 64.9546 152.297 65.0796 151.914 65.1616C151.535 65.2476 151.168 65.2905 150.812 65.2905C149.793 65.2905 148.996 64.9858 148.422 64.3765C147.848 63.7632 147.561 62.9194 147.561 61.8452C147.561 60.7983 147.842 59.9624 148.404 59.3374C148.967 58.7124 149.717 58.3999 150.654 58.3999C151.49 58.3999 152.148 58.6831 152.629 59.2495C153.113 59.8159 153.371 60.4995 153.402 61.3003ZM152.324 60.9839C152.277 60.5308 152.111 60.1401 151.826 59.812C151.545 59.48 151.139 59.314 150.607 59.314C150.088 59.314 149.66 59.4858 149.324 59.8296C148.988 60.1733 148.805 60.5601 148.773 60.9897L152.324 60.9839ZM157.184 61.8218H156.826C156.197 61.8218 155.723 61.9331 155.402 62.1558C155.086 62.3745 154.928 62.7026 154.928 63.1401C154.928 63.5347 155.047 63.8413 155.285 64.0601C155.523 64.2788 155.854 64.3882 156.275 64.3882C156.869 64.3882 157.336 64.1831 157.676 63.7729C158.016 63.3589 158.188 62.7886 158.191 62.062V61.8218H157.184ZM159.275 61.3765V65.1206H158.191V64.1479C157.961 64.5386 157.67 64.8276 157.318 65.0151C156.971 65.1987 156.547 65.2905 156.047 65.2905C155.379 65.2905 154.846 65.103 154.447 64.728C154.049 64.3491 153.85 63.8433 153.85 63.2104C153.85 62.48 154.094 61.9253 154.582 61.5464C155.074 61.1675 155.795 60.978 156.744 60.978H158.191V60.8081C158.188 60.2847 158.055 59.9058 157.793 59.6714C157.531 59.4331 157.113 59.314 156.539 59.314C156.172 59.314 155.801 59.3667 155.426 59.4722C155.051 59.5776 154.686 59.7319 154.33 59.9351V58.8569C154.729 58.7046 155.109 58.5913 155.473 58.5171C155.84 58.439 156.195 58.3999 156.539 58.3999C157.082 58.3999 157.545 58.48 157.928 58.6401C158.314 58.8003 158.627 59.0405 158.865 59.3608C159.014 59.5562 159.119 59.7983 159.182 60.0874C159.244 60.3726 159.275 60.8022 159.275 61.3765ZM164.328 59.396V56.0034H165.406V65.1206H164.328V64.2944C164.148 64.6187 163.908 64.8667 163.607 65.0386C163.311 65.2065 162.967 65.2905 162.576 65.2905C161.783 65.2905 161.158 64.9839 160.701 64.3706C160.248 63.7534 160.021 62.9038 160.021 61.8218C160.021 60.7554 160.25 59.9194 160.707 59.314C161.164 58.7046 161.787 58.3999 162.576 58.3999C162.971 58.3999 163.318 58.4858 163.619 58.6577C163.92 58.8257 164.156 59.0718 164.328 59.396ZM161.158 61.8452C161.158 62.6812 161.291 63.312 161.557 63.7378C161.822 64.1636 162.215 64.3765 162.734 64.3765C163.254 64.3765 163.648 64.1616 163.918 63.7319C164.191 63.3022 164.328 62.6733 164.328 61.8452C164.328 61.0132 164.191 60.3843 163.918 59.9585C163.648 59.5288 163.254 59.314 162.734 59.314C162.215 59.314 161.822 59.5269 161.557 59.9526C161.291 60.3784 161.158 61.0093 161.158 61.8452ZM172.094 61.3003V61.8276H167.424V61.8628C167.393 62.7573 167.562 63.3999 167.934 63.7905C168.309 64.1812 168.836 64.3765 169.516 64.3765C169.859 64.3765 170.219 64.3218 170.594 64.2124C170.969 64.103 171.369 63.937 171.795 63.7144V64.7866C171.385 64.9546 170.988 65.0796 170.605 65.1616C170.227 65.2476 169.859 65.2905 169.504 65.2905C168.484 65.2905 167.688 64.9858 167.113 64.3765C166.539 63.7632 166.252 62.9194 166.252 61.8452C166.252 60.7983 166.533 59.9624 167.096 59.3374C167.658 58.7124 168.408 58.3999 169.346 58.3999C170.182 58.3999 170.84 58.6831 171.32 59.2495C171.805 59.8159 172.062 60.4995 172.094 61.3003ZM171.016 60.9839C170.969 60.5308 170.803 60.1401 170.518 59.812C170.236 59.48 169.83 59.314 169.299 59.314C168.779 59.314 168.352 59.4858 168.016 59.8296C167.68 60.1733 167.496 60.5601 167.465 60.9897L171.016 60.9839ZM178.529 59.9116C178.299 59.7319 178.064 59.6011 177.826 59.519C177.588 59.437 177.326 59.396 177.041 59.396C176.369 59.396 175.855 59.6069 175.5 60.0288C175.145 60.4507 174.967 61.0601 174.967 61.8569V65.1206H173.883V58.5581H174.967V59.8413C175.146 59.3765 175.422 59.021 175.793 58.7749C176.168 58.5249 176.611 58.3999 177.123 58.3999C177.389 58.3999 177.637 58.4331 177.867 58.4995C178.098 58.5659 178.318 58.6694 178.529 58.8101V59.9116ZM183.002 55.4292C182.482 56.3198 182.094 57.2085 181.836 58.0952C181.582 58.978 181.455 59.8687 181.455 60.7671C181.455 61.6616 181.582 62.5522 181.836 63.439C182.094 64.3257 182.482 65.2183 183.002 66.1167H182.064C181.475 65.187 181.035 64.2827 180.746 63.4038C180.457 62.521 180.312 61.6421 180.312 60.7671C180.312 59.896 180.457 59.019 180.746 58.1362C181.035 57.2534 181.475 56.3511 182.064 55.4292H183.002ZM190.439 64.7866C190.15 64.9546 189.852 65.0796 189.543 65.1616C189.238 65.2476 188.926 65.2905 188.605 65.2905C187.59 65.2905 186.795 64.9858 186.221 64.3765C185.65 63.7671 185.365 62.9233 185.365 61.8452C185.365 60.7671 185.65 59.9233 186.221 59.314C186.795 58.7046 187.59 58.3999 188.605 58.3999C188.922 58.3999 189.23 58.4409 189.531 58.5229C189.832 58.605 190.135 58.7319 190.439 58.9038V60.0347C190.154 59.7808 189.867 59.5972 189.578 59.4839C189.293 59.3706 188.969 59.314 188.605 59.314C187.93 59.314 187.41 59.5327 187.047 59.9702C186.684 60.4077 186.502 61.0327 186.502 61.8452C186.502 62.6538 186.684 63.2788 187.047 63.7202C187.414 64.1577 187.934 64.3765 188.605 64.3765C188.98 64.3765 189.316 64.3198 189.613 64.2065C189.91 64.0894 190.186 63.9097 190.439 63.6675V64.7866ZM196.154 58.7866V59.8413C195.846 59.6616 195.535 59.5269 195.223 59.437C194.91 59.3472 194.592 59.3022 194.268 59.3022C193.779 59.3022 193.414 59.3823 193.172 59.5425C192.934 59.6987 192.814 59.939 192.814 60.2632C192.814 60.5562 192.904 60.7749 193.084 60.9194C193.264 61.064 193.711 61.2046 194.426 61.3413L194.859 61.4233C195.395 61.5249 195.799 61.728 196.072 62.0327C196.35 62.3374 196.488 62.7339 196.488 63.2222C196.488 63.8706 196.258 64.3784 195.797 64.7456C195.336 65.1089 194.695 65.2905 193.875 65.2905C193.551 65.2905 193.211 65.2554 192.855 65.1851C192.5 65.1187 192.115 65.0171 191.701 64.8804V63.7671C192.104 63.9741 192.488 64.1304 192.855 64.2358C193.223 64.3374 193.57 64.3882 193.898 64.3882C194.375 64.3882 194.744 64.2925 195.006 64.1011C195.268 63.9058 195.398 63.6343 195.398 63.2866C195.398 62.7866 194.92 62.4409 193.963 62.2495L193.916 62.2378L193.512 62.1558C192.891 62.0347 192.438 61.8315 192.152 61.5464C191.867 61.2573 191.725 60.8647 191.725 60.3687C191.725 59.7397 191.938 59.2554 192.363 58.9155C192.789 58.5718 193.396 58.3999 194.186 58.3999C194.537 58.3999 194.875 58.4331 195.199 58.4995C195.523 58.562 195.842 58.6577 196.154 58.7866ZM197.27 58.5581H198.389L200.293 64.0659L202.203 58.5581H203.322L200.99 65.1206H199.602L197.27 58.5581ZM209.143 56.0034V56.8999H207.918C207.531 56.8999 207.262 56.98 207.109 57.1401C206.961 57.2964 206.887 57.5757 206.887 57.978V58.5581H209.143V59.396H206.887V65.1206H205.809V59.396H204.057V58.5581H205.809V58.1011C205.809 57.3823 205.973 56.853 206.301 56.5132C206.633 56.1733 207.148 56.0034 207.848 56.0034H209.143ZM210.996 58.5815H213.756V64.2827H215.895V65.1206H210.539V64.2827H212.678V59.4194H210.996V58.5815ZM212.678 56.0327H213.756V57.3921H212.678V56.0327ZM219.588 62.7476C219.588 63.2319 219.676 63.5972 219.852 63.8433C220.031 64.0894 220.295 64.2124 220.643 64.2124H221.902V65.1206H220.537C219.893 65.1206 219.393 64.9155 219.037 64.5054C218.686 64.0913 218.51 63.5054 218.51 62.7476V56.812H216.781V55.9683H219.588V62.7476ZM228.168 61.3003V61.8276H223.498V61.8628C223.467 62.7573 223.637 63.3999 224.008 63.7905C224.383 64.1812 224.91 64.3765 225.59 64.3765C225.934 64.3765 226.293 64.3218 226.668 64.2124C227.043 64.103 227.443 63.937 227.869 63.7144V64.7866C227.459 64.9546 227.062 65.0796 226.68 65.1616C226.301 65.2476 225.934 65.2905 225.578 65.2905C224.559 65.2905 223.762 64.9858 223.188 64.3765C222.613 63.7632 222.326 62.9194 222.326 61.8452C222.326 60.7983 222.607 59.9624 223.17 59.3374C223.732 58.7124 224.482 58.3999 225.42 58.3999C226.256 58.3999 226.914 58.6831 227.395 59.2495C227.879 59.8159 228.137 60.4995 228.168 61.3003ZM227.09 60.9839C227.043 60.5308 226.877 60.1401 226.592 59.812C226.311 59.48 225.904 59.314 225.373 59.314C224.854 59.314 224.426 59.4858 224.09 59.8296C223.754 60.1733 223.57 60.5601 223.539 60.9897L227.09 60.9839ZM229.875 55.4292H230.812C231.402 56.3511 231.842 57.2534 232.131 58.1362C232.42 59.019 232.564 59.896 232.564 60.7671C232.564 61.646 232.42 62.5269 232.131 63.4097C231.842 64.2925 231.402 65.1948 230.812 66.1167H229.875C230.395 65.2104 230.781 64.314 231.035 63.4272C231.293 62.5405 231.422 61.6538 231.422 60.7671C231.422 59.8765 231.293 58.9878 231.035 58.1011C230.781 57.2144 230.395 56.3237 229.875 55.4292ZM85.0723 77.9116C84.8418 77.7319 84.6074 77.6011 84.3691 77.519C84.1309 77.437 83.8691 77.396 83.584 77.396C82.9121 77.396 82.3984 77.6069 82.043 78.0288C81.6875 78.4507 81.5098 79.0601 81.5098 79.8569V83.1206H80.4258V76.5581H81.5098V77.8413C81.6895 77.3765 81.9648 77.021 82.3359 76.7749C82.7109 76.5249 83.1543 76.3999 83.666 76.3999C83.9316 76.3999 84.1797 76.4331 84.4102 76.4995C84.6406 76.5659 84.8613 76.6694 85.0723 76.8101V77.9116ZM88.1445 77.314C87.5977 77.314 87.1836 77.5269 86.9023 77.9526C86.6211 78.3784 86.4805 79.0093 86.4805 79.8452C86.4805 80.6772 86.6211 81.3081 86.9023 81.7378C87.1836 82.1636 87.5977 82.3765 88.1445 82.3765C88.6953 82.3765 89.1113 82.1636 89.3926 81.7378C89.6738 81.3081 89.8145 80.6772 89.8145 79.8452C89.8145 79.0093 89.6738 78.3784 89.3926 77.9526C89.1113 77.5269 88.6953 77.314 88.1445 77.314ZM88.1445 76.3999C89.0547 76.3999 89.75 76.6948 90.2305 77.2847C90.7148 77.8745 90.957 78.728 90.957 79.8452C90.957 80.9663 90.7168 81.8218 90.2363 82.4116C89.7559 82.9976 89.0586 83.2905 88.1445 83.2905C87.2344 83.2905 86.5391 82.9976 86.0586 82.4116C85.5781 81.8218 85.3379 80.9663 85.3379 79.8452C85.3379 78.728 85.5781 77.8745 86.0586 77.2847C86.5391 76.6948 87.2344 76.3999 88.1445 76.3999ZM90.7656 76.5581H91.832L92.9746 81.8608L93.9121 78.4741H94.832L95.7812 81.8608L96.9238 76.5581H97.9902L96.4551 83.1206H95.4238L94.375 79.5229L93.332 83.1206H92.3008L90.7656 76.5581ZM128.135 82.7866C127.846 82.9546 127.547 83.0796 127.238 83.1616C126.934 83.2476 126.621 83.2905 126.301 83.2905C125.285 83.2905 124.49 82.9858 123.916 82.3765C123.346 81.7671 123.061 80.9233 123.061 79.8452C123.061 78.7671 123.346 77.9233 123.916 77.314C124.49 76.7046 125.285 76.3999 126.301 76.3999C126.617 76.3999 126.926 76.4409 127.227 76.5229C127.527 76.605 127.83 76.7319 128.135 76.9038V78.0347C127.85 77.7808 127.562 77.5972 127.273 77.4839C126.988 77.3706 126.664 77.314 126.301 77.314C125.625 77.314 125.105 77.5327 124.742 77.9702C124.379 78.4077 124.197 79.0327 124.197 79.8452C124.197 80.6538 124.379 81.2788 124.742 81.7202C125.109 82.1577 125.629 82.3765 126.301 82.3765C126.676 82.3765 127.012 82.3198 127.309 82.2065C127.605 82.0894 127.881 81.9097 128.135 81.6675V82.7866ZM133.85 76.7866V77.8413C133.541 77.6616 133.23 77.5269 132.918 77.437C132.605 77.3472 132.287 77.3022 131.963 77.3022C131.475 77.3022 131.109 77.3823 130.867 77.5425C130.629 77.6987 130.51 77.939 130.51 78.2632C130.51 78.5562 130.6 78.7749 130.779 78.9194C130.959 79.064 131.406 79.2046 132.121 79.3413L132.555 79.4233C133.09 79.5249 133.494 79.728 133.768 80.0327C134.045 80.3374 134.184 80.7339 134.184 81.2222C134.184 81.8706 133.953 82.3784 133.492 82.7456C133.031 83.1089 132.391 83.2905 131.57 83.2905C131.246 83.2905 130.906 83.2554 130.551 83.1851C130.195 83.1187 129.811 83.0171 129.396 82.8804V81.7671C129.799 81.9741 130.184 82.1304 130.551 82.2358C130.918 82.3374 131.266 82.3882 131.594 82.3882C132.07 82.3882 132.439 82.2925 132.701 82.1011C132.963 81.9058 133.094 81.6343 133.094 81.2866C133.094 80.7866 132.615 80.4409 131.658 80.2495L131.611 80.2378L131.207 80.1558C130.586 80.0347 130.133 79.8315 129.848 79.5464C129.562 79.2573 129.42 78.8647 129.42 78.3687C129.42 77.7397 129.633 77.2554 130.059 76.9155C130.484 76.5718 131.092 76.3999 131.881 76.3999C132.232 76.3999 132.57 76.4331 132.895 76.4995C133.219 76.562 133.537 76.6577 133.85 76.7866ZM134.965 76.5581H136.084L137.988 82.0659L139.898 76.5581H141.018L138.686 83.1206H137.297L134.965 76.5581ZM147.781 84.2339V85.23H140.609V84.2339H147.781ZM153.607 77.9116C153.377 77.7319 153.143 77.6011 152.904 77.519C152.666 77.437 152.404 77.396 152.119 77.396C151.447 77.396 150.934 77.6069 150.578 78.0288C150.223 78.4507 150.045 79.0601 150.045 79.8569V83.1206H148.961V76.5581H150.045V77.8413C150.225 77.3765 150.5 77.021 150.871 76.7749C151.246 76.5249 151.689 76.3999 152.201 76.3999C152.467 76.3999 152.715 76.4331 152.945 76.4995C153.176 76.5659 153.396 76.6694 153.607 76.8101V77.9116ZM159.633 79.3003V79.8276H154.963V79.8628C154.932 80.7573 155.102 81.3999 155.473 81.7905C155.848 82.1812 156.375 82.3765 157.055 82.3765C157.398 82.3765 157.758 82.3218 158.133 82.2124C158.508 82.103 158.908 81.937 159.334 81.7144V82.7866C158.924 82.9546 158.527 83.0796 158.145 83.1616C157.766 83.2476 157.398 83.2905 157.043 83.2905C156.023 83.2905 155.227 82.9858 154.652 82.3765C154.078 81.7632 153.791 80.9194 153.791 79.8452C153.791 78.7983 154.072 77.9624 154.635 77.3374C155.197 76.7124 155.947 76.3999 156.885 76.3999C157.721 76.3999 158.379 76.6831 158.859 77.2495C159.344 77.8159 159.602 78.4995 159.633 79.3003ZM158.555 78.9839C158.508 78.5308 158.342 78.1401 158.057 77.812C157.775 77.48 157.369 77.314 156.838 77.314C156.318 77.314 155.891 77.4858 155.555 77.8296C155.219 78.1733 155.035 78.5601 155.004 78.9897L158.555 78.9839ZM163.414 79.8218H163.057C162.428 79.8218 161.953 79.9331 161.633 80.1558C161.316 80.3745 161.158 80.7026 161.158 81.1401C161.158 81.5347 161.277 81.8413 161.516 82.0601C161.754 82.2788 162.084 82.3882 162.506 82.3882C163.1 82.3882 163.566 82.1831 163.906 81.7729C164.246 81.3589 164.418 80.7886 164.422 80.062V79.8218H163.414ZM165.506 79.3765V83.1206H164.422V82.1479C164.191 82.5386 163.9 82.8276 163.549 83.0151C163.201 83.1987 162.777 83.2905 162.277 83.2905C161.609 83.2905 161.076 83.103 160.678 82.728C160.279 82.3491 160.08 81.8433 160.08 81.2104C160.08 80.48 160.324 79.9253 160.812 79.5464C161.305 79.1675 162.025 78.978 162.975 78.978H164.422V78.8081C164.418 78.2847 164.285 77.9058 164.023 77.6714C163.762 77.4331 163.344 77.314 162.77 77.314C162.402 77.314 162.031 77.3667 161.656 77.4722C161.281 77.5776 160.916 77.7319 160.561 77.9351V76.8569C160.959 76.7046 161.34 76.5913 161.703 76.5171C162.07 76.439 162.426 76.3999 162.77 76.3999C163.312 76.3999 163.775 76.48 164.158 76.6401C164.545 76.8003 164.857 77.0405 165.096 77.3608C165.244 77.5562 165.35 77.7983 165.412 78.0874C165.475 78.3726 165.506 78.8022 165.506 79.3765ZM170.559 77.396V74.0034H171.637V83.1206H170.559V82.2944C170.379 82.6187 170.139 82.8667 169.838 83.0386C169.541 83.2065 169.197 83.2905 168.807 83.2905C168.014 83.2905 167.389 82.9839 166.932 82.3706C166.479 81.7534 166.252 80.9038 166.252 79.8218C166.252 78.7554 166.48 77.9194 166.938 77.314C167.395 76.7046 168.018 76.3999 168.807 76.3999C169.201 76.3999 169.549 76.4858 169.85 76.6577C170.15 76.8257 170.387 77.0718 170.559 77.396ZM167.389 79.8452C167.389 80.6812 167.521 81.312 167.787 81.7378C168.053 82.1636 168.445 82.3765 168.965 82.3765C169.484 82.3765 169.879 82.1616 170.148 81.7319C170.422 81.3022 170.559 80.6733 170.559 79.8452C170.559 79.0132 170.422 78.3843 170.148 77.9585C169.879 77.5288 169.484 77.314 168.965 77.314C168.445 77.314 168.053 77.5269 167.787 77.9526C167.521 78.3784 167.389 79.0093 167.389 79.8452ZM178.324 79.3003V79.8276H173.654V79.8628C173.623 80.7573 173.793 81.3999 174.164 81.7905C174.539 82.1812 175.066 82.3765 175.746 82.3765C176.09 82.3765 176.449 82.3218 176.824 82.2124C177.199 82.103 177.6 81.937 178.025 81.7144V82.7866C177.615 82.9546 177.219 83.0796 176.836 83.1616C176.457 83.2476 176.09 83.2905 175.734 83.2905C174.715 83.2905 173.918 82.9858 173.344 82.3765C172.77 81.7632 172.482 80.9194 172.482 79.8452C172.482 78.7983 172.764 77.9624 173.326 77.3374C173.889 76.7124 174.639 76.3999 175.576 76.3999C176.412 76.3999 177.07 76.6831 177.551 77.2495C178.035 77.8159 178.293 78.4995 178.324 79.3003ZM177.246 78.9839C177.199 78.5308 177.033 78.1401 176.748 77.812C176.467 77.48 176.061 77.314 175.529 77.314C175.01 77.314 174.582 77.4858 174.246 77.8296C173.91 78.1733 173.727 78.5601 173.695 78.9897L177.246 78.9839ZM184.76 77.9116C184.529 77.7319 184.295 77.6011 184.057 77.519C183.818 77.437 183.557 77.396 183.271 77.396C182.6 77.396 182.086 77.6069 181.73 78.0288C181.375 78.4507 181.197 79.0601 181.197 79.8569V83.1206H180.113V76.5581H181.197V77.8413C181.377 77.3765 181.652 77.021 182.023 76.7749C182.398 76.5249 182.842 76.3999 183.354 76.3999C183.619 76.3999 183.867 76.4331 184.098 76.4995C184.328 76.5659 184.549 76.6694 184.76 76.8101V77.9116ZM186.736 76.564H188.564V78.6792H186.736V76.564ZM186.736 80.9878H188.564V83.1206H186.736V80.9878ZM102.006 91.4292C101.486 92.3198 101.098 93.2085 100.84 94.0952C100.586 94.978 100.459 95.8687 100.459 96.7671C100.459 97.6616 100.586 98.5522 100.84 99.439C101.098 100.326 101.486 101.218 102.006 102.117H101.068C100.479 101.187 100.039 100.283 99.75 99.4038C99.4609 98.521 99.3164 97.6421 99.3164 96.7671C99.3164 95.896 99.4609 95.019 99.75 94.1362C100.039 93.2534 100.479 92.3511 101.068 91.4292H102.006ZM130.428 98.7534H132.49V101.121H130.428V98.7534ZM137.895 101.238V95.396H136.037V94.5581H138.973V101.238C138.973 102 138.797 102.585 138.445 102.996C138.098 103.41 137.602 103.617 136.957 103.617H135.469V102.703H136.84C137.191 102.703 137.455 102.58 137.631 102.333C137.807 102.091 137.895 101.726 137.895 101.238ZM137.895 92.0034H138.973V93.3687H137.895V92.0034ZM144.219 95.314C143.672 95.314 143.258 95.5269 142.977 95.9526C142.695 96.3784 142.555 97.0093 142.555 97.8452C142.555 98.6772 142.695 99.3081 142.977 99.7378C143.258 100.164 143.672 100.376 144.219 100.376C144.77 100.376 145.186 100.164 145.467 99.7378C145.748 99.3081 145.889 98.6772 145.889 97.8452C145.889 97.0093 145.748 96.3784 145.467 95.9526C145.186 95.5269 144.77 95.314 144.219 95.314ZM144.219 94.3999C145.129 94.3999 145.824 94.6948 146.305 95.2847C146.789 95.8745 147.031 96.728 147.031 97.8452C147.031 98.9663 146.791 99.8218 146.311 100.412C145.83 100.998 145.133 101.291 144.219 101.291C143.309 101.291 142.613 100.998 142.133 100.412C141.652 99.8218 141.412 98.9663 141.412 97.8452C141.412 96.728 141.652 95.8745 142.133 95.2847C142.613 94.6948 143.309 94.3999 144.219 94.3999ZM148.691 94.5815H151.451V100.283H153.59V101.121H148.234V100.283H150.373V95.4194H148.691V94.5815ZM150.373 92.0327H151.451V93.3921H150.373V92.0327ZM159.229 97.0542V101.121H158.145V97.0542C158.145 96.4644 158.041 96.0308 157.834 95.7534C157.627 95.4761 157.303 95.3374 156.861 95.3374C156.357 95.3374 155.969 95.5171 155.695 95.8765C155.426 96.2319 155.291 96.7437 155.291 97.4116V101.121H154.213V94.5581H155.291V95.5425C155.482 95.1675 155.742 94.8843 156.07 94.6929C156.398 94.4976 156.787 94.3999 157.236 94.3999C157.904 94.3999 158.402 94.6206 158.73 95.062C159.062 95.4995 159.229 96.1636 159.229 97.0542ZM164.311 91.4292C163.791 92.3198 163.402 93.2085 163.145 94.0952C162.891 94.978 162.764 95.8687 162.764 96.7671C162.764 97.6616 162.891 98.5522 163.145 99.439C163.402 100.326 163.791 101.218 164.311 102.117H163.373C162.783 101.187 162.344 100.283 162.055 99.4038C161.766 98.521 161.621 97.6421 161.621 96.7671C161.621 95.896 161.766 95.019 162.055 94.1362C162.344 93.2534 162.783 92.3511 163.373 91.4292H164.311ZM172.299 95.9116C172.068 95.7319 171.834 95.6011 171.596 95.519C171.357 95.437 171.096 95.396 170.811 95.396C170.139 95.396 169.625 95.6069 169.27 96.0288C168.914 96.4507 168.736 97.0601 168.736 97.8569V101.121H167.652V94.5581H168.736V95.8413C168.916 95.3765 169.191 95.021 169.562 94.7749C169.938 94.5249 170.381 94.3999 170.893 94.3999C171.158 94.3999 171.406 94.4331 171.637 94.4995C171.867 94.5659 172.088 94.6694 172.299 94.8101V95.9116ZM175.371 95.314C174.824 95.314 174.41 95.5269 174.129 95.9526C173.848 96.3784 173.707 97.0093 173.707 97.8452C173.707 98.6772 173.848 99.3081 174.129 99.7378C174.41 100.164 174.824 100.376 175.371 100.376C175.922 100.376 176.338 100.164 176.619 99.7378C176.9 99.3081 177.041 98.6772 177.041 97.8452C177.041 97.0093 176.9 96.3784 176.619 95.9526C176.338 95.5269 175.922 95.314 175.371 95.314ZM175.371 94.3999C176.281 94.3999 176.977 94.6948 177.457 95.2847C177.941 95.8745 178.184 96.728 178.184 97.8452C178.184 98.9663 177.943 99.8218 177.463 100.412C176.982 100.998 176.285 101.291 175.371 101.291C174.461 101.291 173.766 100.998 173.285 100.412C172.805 99.8218 172.564 98.9663 172.564 97.8452C172.564 96.728 172.805 95.8745 173.285 95.2847C173.766 94.6948 174.461 94.3999 175.371 94.3999ZM177.992 94.5581H179.059L180.201 99.8608L181.139 96.4741H182.059L183.008 99.8608L184.15 94.5581H185.217L183.682 101.121H182.65L181.602 97.5229L180.559 101.121H179.527L177.992 94.5581ZM186.262 91.4292H187.199C187.789 92.3511 188.229 93.2534 188.518 94.1362C188.807 95.019 188.951 95.896 188.951 96.7671C188.951 97.646 188.807 98.5269 188.518 99.4097C188.229 100.292 187.789 101.195 187.199 102.117H186.262C186.781 101.21 187.168 100.314 187.422 99.4272C187.68 98.5405 187.809 97.6538 187.809 96.7671C187.809 95.8765 187.68 94.9878 187.422 94.1011C187.168 93.2144 186.781 92.3237 186.262 91.4292ZM192.492 91.4292H193.43C194.02 92.3511 194.459 93.2534 194.748 94.1362C195.037 95.019 195.182 95.896 195.182 96.7671C195.182 97.646 195.037 98.5269 194.748 99.4097C194.459 100.292 194.02 101.195 193.43 102.117H192.492C193.012 101.21 193.398 100.314 193.652 99.4272C193.91 98.5405 194.039 97.6538 194.039 96.7671C194.039 95.8765 193.91 94.9878 193.652 94.1011C193.398 93.2144 193.012 92.3237 192.492 91.4292Z" fill="white"/>
<path d="M78.291 28.7866C78.002 28.9546 77.7031 29.0796 77.3945 29.1616C77.0898 29.2476 76.7773 29.2905 76.457 29.2905C75.4414 29.2905 74.6465 28.9858 74.0723 28.3765C73.502 27.7671 73.2168 26.9233 73.2168 25.8452C73.2168 24.7671 73.502 23.9233 74.0723 23.314C74.6465 22.7046 75.4414 22.3999 76.457 22.3999C76.7734 22.3999 77.082 22.4409 77.3828 22.5229C77.6836 22.605 77.9863 22.7319 78.291 22.9038V24.0347C78.0059 23.7808 77.7188 23.5972 77.4297 23.4839C77.1445 23.3706 76.8203 23.314 76.457 23.314C75.7812 23.314 75.2617 23.5327 74.8984 23.9702C74.5352 24.4077 74.3535 25.0327 74.3535 25.8452C74.3535 26.6538 74.5352 27.2788 74.8984 27.7202C75.2656 28.1577 75.7852 28.3765 76.457 28.3765C76.832 28.3765 77.168 28.3198 77.4648 28.2065C77.7617 28.0894 78.0371 27.9097 78.291 27.6675V28.7866ZM84.0059 22.7866V23.8413C83.6973 23.6616 83.3867 23.5269 83.0742 23.437C82.7617 23.3472 82.4434 23.3022 82.1191 23.3022C81.6309 23.3022 81.2656 23.3823 81.0234 23.5425C80.7852 23.6987 80.666 23.939 80.666 24.2632C80.666 24.5562 80.7559 24.7749 80.9355 24.9194C81.1152 25.064 81.5625 25.2046 82.2773 25.3413L82.7109 25.4233C83.2461 25.5249 83.6504 25.728 83.9238 26.0327C84.2012 26.3374 84.3398 26.7339 84.3398 27.2222C84.3398 27.8706 84.1094 28.3784 83.6484 28.7456C83.1875 29.1089 82.5469 29.2905 81.7266 29.2905C81.4023 29.2905 81.0625 29.2554 80.707 29.1851C80.3516 29.1187 79.9668 29.0171 79.5527 28.8804V27.7671C79.9551 27.9741 80.3398 28.1304 80.707 28.2358C81.0742 28.3374 81.4219 28.3882 81.75 28.3882C82.2266 28.3882 82.5957 28.2925 82.8574 28.1011C83.1191 27.9058 83.25 27.6343 83.25 27.2866C83.25 26.7866 82.7715 26.4409 81.8145 26.2495L81.7676 26.2378L81.3633 26.1558C80.7422 26.0347 80.2891 25.8315 80.0039 25.5464C79.7188 25.2573 79.5762 24.8647 79.5762 24.3687C79.5762 23.7397 79.7891 23.2554 80.2148 22.9155C80.6406 22.5718 81.248 22.3999 82.0371 22.3999C82.3887 22.3999 82.7266 22.4331 83.0508 22.4995C83.375 22.562 83.6934 22.6577 84.0059 22.7866ZM85.1211 22.5581H86.2402L88.1445 28.0659L90.0547 22.5581H91.1738L88.8418 29.1206H87.4531L85.1211 22.5581ZM94.9551 41.4546H93.4785V40.2417L94.627 38.0034H95.5293L94.9551 40.2417V41.4546ZM100.957 41.2261C101.09 40.9448 101.258 40.7378 101.461 40.605C101.668 40.4683 101.916 40.3999 102.205 40.3999C102.732 40.3999 103.104 40.605 103.318 41.0151C103.537 41.4214 103.646 42.189 103.646 43.3179V47.1206H102.662V43.3647C102.662 42.439 102.609 41.8647 102.504 41.6421C102.402 41.4155 102.215 41.3022 101.941 41.3022C101.629 41.3022 101.414 41.4233 101.297 41.6655C101.184 41.9038 101.127 42.4702 101.127 43.3647V47.1206H100.143V43.3647C100.143 42.4272 100.086 41.8491 99.9727 41.6304C99.8633 41.4116 99.6641 41.3022 99.375 41.3022C99.0898 41.3022 98.8906 41.4233 98.7773 41.6655C98.668 41.9038 98.6133 42.4702 98.6133 43.3647V47.1206H97.6348V40.5581H98.6133V41.1206C98.7422 40.8862 98.9023 40.7085 99.0938 40.5874C99.2891 40.4624 99.5098 40.3999 99.7559 40.3999C100.053 40.3999 100.299 40.4683 100.494 40.605C100.693 40.7417 100.848 40.9487 100.957 41.2261ZM108.254 45.0112C108.074 45.4683 107.846 46.0698 107.568 46.8159C107.182 47.8472 106.922 48.4761 106.789 48.7026C106.609 49.0073 106.385 49.2358 106.115 49.3882C105.846 49.5405 105.531 49.6167 105.172 49.6167H104.305V48.7144H104.943C105.26 48.7144 105.508 48.6226 105.688 48.439C105.867 48.2554 106.096 47.7808 106.373 47.0151L103.836 40.5581H104.979L106.924 45.6909L108.84 40.5581H109.982L108.254 45.0112ZM116.629 48.2339V49.23H109.457V48.2339H116.629ZM121.916 38.0034V38.8999H120.691C120.305 38.8999 120.035 38.98 119.883 39.1401C119.734 39.2964 119.66 39.5757 119.66 39.978V40.5581H121.916V41.396H119.66V47.1206H118.582V41.396H116.83V40.5581H118.582V40.1011C118.582 39.3823 118.746 38.853 119.074 38.5132C119.406 38.1733 119.922 38.0034 120.621 38.0034H121.916ZM123.77 40.5815H126.529V46.2827H128.668V47.1206H123.312V46.2827H125.451V41.4194H123.77V40.5815ZM125.451 38.0327H126.529V39.3921H125.451V38.0327ZM132.361 44.7476C132.361 45.2319 132.449 45.5972 132.625 45.8433C132.805 46.0894 133.068 46.2124 133.416 46.2124H134.676V47.1206H133.311C132.666 47.1206 132.166 46.9155 131.811 46.5054C131.459 46.0913 131.283 45.5054 131.283 44.7476V38.812H129.555V37.9683H132.361V44.7476ZM140.941 43.3003V43.8276H136.271V43.8628C136.24 44.7573 136.41 45.3999 136.781 45.7905C137.156 46.1812 137.684 46.3765 138.363 46.3765C138.707 46.3765 139.066 46.3218 139.441 46.2124C139.816 46.103 140.217 45.937 140.643 45.7144V46.7866C140.232 46.9546 139.836 47.0796 139.453 47.1616C139.074 47.2476 138.707 47.2905 138.352 47.2905C137.332 47.2905 136.535 46.9858 135.961 46.3765C135.387 45.7632 135.1 44.9194 135.1 43.8452C135.1 42.7983 135.381 41.9624 135.943 41.3374C136.506 40.7124 137.256 40.3999 138.193 40.3999C139.029 40.3999 139.688 40.6831 140.168 41.2495C140.652 41.8159 140.91 42.4995 140.941 43.3003ZM139.863 42.9839C139.816 42.5308 139.65 42.1401 139.365 41.812C139.084 41.48 138.678 41.314 138.146 41.314C137.627 41.314 137.199 41.4858 136.863 41.8296C136.527 42.1733 136.344 42.5601 136.312 42.9897L139.863 42.9839ZM142.889 44.7534H144.951V47.1206H142.889V44.7534ZM153.057 46.7866C152.768 46.9546 152.469 47.0796 152.16 47.1616C151.855 47.2476 151.543 47.2905 151.223 47.2905C150.207 47.2905 149.412 46.9858 148.838 46.3765C148.268 45.7671 147.982 44.9233 147.982 43.8452C147.982 42.7671 148.268 41.9233 148.838 41.314C149.412 40.7046 150.207 40.3999 151.223 40.3999C151.539 40.3999 151.848 40.4409 152.148 40.5229C152.449 40.605 152.752 40.7319 153.057 40.9038V42.0347C152.771 41.7808 152.484 41.5972 152.195 41.4839C151.91 41.3706 151.586 41.314 151.223 41.314C150.547 41.314 150.027 41.5327 149.664 41.9702C149.301 42.4077 149.119 43.0327 149.119 43.8452C149.119 44.6538 149.301 45.2788 149.664 45.7202C150.031 46.1577 150.551 46.3765 151.223 46.3765C151.598 46.3765 151.934 46.3198 152.23 46.2065C152.527 46.0894 152.803 45.9097 153.057 45.6675V46.7866ZM153.656 40.5581H154.775L156.68 46.0659L158.59 40.5581H159.709L157.377 47.1206H155.988L153.656 40.5581ZM165.002 40.7866V41.8413C164.693 41.6616 164.383 41.5269 164.07 41.437C163.758 41.3472 163.439 41.3022 163.115 41.3022C162.627 41.3022 162.262 41.3823 162.02 41.5425C161.781 41.6987 161.662 41.939 161.662 42.2632C161.662 42.5562 161.752 42.7749 161.932 42.9194C162.111 43.064 162.559 43.2046 163.273 43.3413L163.707 43.4233C164.242 43.5249 164.646 43.728 164.92 44.0327C165.197 44.3374 165.336 44.7339 165.336 45.2222C165.336 45.8706 165.105 46.3784 164.645 46.7456C164.184 47.1089 163.543 47.2905 162.723 47.2905C162.398 47.2905 162.059 47.2554 161.703 47.1851C161.348 47.1187 160.963 47.0171 160.549 46.8804V45.7671C160.951 45.9741 161.336 46.1304 161.703 46.2358C162.07 46.3374 162.418 46.3882 162.746 46.3882C163.223 46.3882 163.592 46.2925 163.854 46.1011C164.115 45.9058 164.246 45.6343 164.246 45.2866C164.246 44.7866 163.768 44.4409 162.811 44.2495L162.764 44.2378L162.359 44.1558C161.738 44.0347 161.285 43.8315 161 43.5464C160.715 43.2573 160.572 42.8647 160.572 42.3687C160.572 41.7397 160.785 41.2554 161.211 40.9155C161.637 40.5718 162.244 40.3999 163.033 40.3999C163.385 40.3999 163.723 40.4331 164.047 40.4995C164.371 40.562 164.689 40.6577 165.002 40.7866ZM168.818 38.0034H170.295V39.2104L169.141 41.4546H168.244L168.818 39.2104V38.0034Z" fill="#23A9F2"/>
<rect opacity="0.3" x="14" y="16.9858" width="83" height="18" fill="#23A9F2"/>
<rect opacity="0.3" x="14" y="34.9858" width="242" height="19" fill="#23A9F2"/>
<g filter="url(#filter0_d_1527_25426)">
<path d="M16 124.986C16 122.777 17.7909 120.986 20 120.986H142C144.209 120.986 146 122.777 146 124.986V151.986C146 154.195 144.209 155.986 142 155.986H20C17.7909 155.986 16 154.195 16 151.986V124.986Z" fill="#1F2228"/>
<path d="M29.9297 134.537V135.738C29.5703 135.507 29.209 135.333 28.8457 135.216C28.4863 135.099 28.123 135.041 27.7559 135.041C27.1973 135.041 26.7559 135.171 26.4316 135.433C26.1074 135.691 25.9453 136.041 25.9453 136.482C25.9453 136.869 26.0508 137.164 26.2617 137.367C26.4766 137.57 26.875 137.74 27.457 137.876L28.0781 138.017C28.8984 138.208 29.4961 138.509 29.8711 138.919C30.2461 139.33 30.4336 139.888 30.4336 140.595C30.4336 141.427 30.1758 142.062 29.6602 142.5C29.1445 142.937 28.3945 143.156 27.4102 143.156C27 143.156 26.5879 143.111 26.1738 143.021C25.7598 142.935 25.3438 142.804 24.9258 142.628V141.369C25.375 141.654 25.7988 141.863 26.1973 141.996C26.5996 142.128 27.0039 142.195 27.4102 142.195C28.0078 142.195 28.4727 142.062 28.8047 141.796C29.1367 141.527 29.3027 141.152 29.3027 140.671C29.3027 140.234 29.1875 139.9 28.957 139.669C28.7305 139.439 28.334 139.261 27.7676 139.136L27.1348 138.99C26.3223 138.806 25.7324 138.529 25.3652 138.158C24.998 137.787 24.8145 137.289 24.8145 136.664C24.8145 135.882 25.0762 135.257 25.5996 134.789C26.127 134.316 26.8262 134.08 27.6973 134.08C28.0332 134.08 28.3867 134.119 28.7578 134.197C29.1289 134.271 29.5195 134.384 29.9297 134.537ZM36.3887 138.919V142.986H35.3047V138.919C35.3047 138.33 35.2012 137.896 34.9941 137.619C34.7871 137.341 34.4629 137.203 34.0215 137.203C33.5176 137.203 33.1289 137.382 32.8555 137.742C32.5859 138.097 32.4512 138.609 32.4512 139.277V142.986H31.373V133.869H32.4512V137.408C32.6426 137.033 32.9023 136.75 33.2305 136.558C33.5586 136.363 33.9473 136.265 34.3965 136.265C35.0645 136.265 35.5625 136.486 35.8906 136.927C36.2227 137.365 36.3887 138.029 36.3887 138.919ZM40.5742 139.687H40.2168C39.5879 139.687 39.1133 139.798 38.793 140.021C38.4766 140.24 38.3184 140.568 38.3184 141.005C38.3184 141.4 38.4375 141.707 38.6758 141.925C38.9141 142.144 39.2441 142.253 39.666 142.253C40.2598 142.253 40.7266 142.048 41.0664 141.638C41.4062 141.224 41.5781 140.654 41.582 139.927V139.687H40.5742ZM42.666 139.242V142.986H41.582V142.013C41.3516 142.404 41.0605 142.693 40.709 142.88C40.3613 143.064 39.9375 143.156 39.4375 143.156C38.7695 143.156 38.2363 142.968 37.8379 142.593C37.4395 142.214 37.2402 141.708 37.2402 141.076C37.2402 140.345 37.4844 139.791 37.9727 139.412C38.4648 139.033 39.1855 138.843 40.1348 138.843H41.582V138.673C41.5781 138.15 41.4453 137.771 41.1836 137.537C40.9219 137.298 40.5039 137.179 39.9297 137.179C39.5625 137.179 39.1914 137.232 38.8164 137.337C38.4414 137.443 38.0762 137.597 37.7207 137.8V136.722C38.1191 136.57 38.5 136.457 38.8633 136.382C39.2305 136.304 39.5859 136.265 39.9297 136.265C40.4727 136.265 40.9355 136.345 41.3184 136.505C41.7051 136.666 42.0176 136.906 42.2559 137.226C42.4043 137.421 42.5098 137.664 42.5723 137.953C42.6348 138.238 42.666 138.667 42.666 139.242ZM49.459 137.777C49.2285 137.597 48.9941 137.466 48.7559 137.384C48.5176 137.302 48.2559 137.261 47.9707 137.261C47.2988 137.261 46.7852 137.472 46.4297 137.894C46.0742 138.316 45.8965 138.925 45.8965 139.722V142.986H44.8125V136.423H45.8965V137.707C46.0762 137.242 46.3516 136.886 46.7227 136.64C47.0977 136.39 47.541 136.265 48.0527 136.265C48.3184 136.265 48.5664 136.298 48.7969 136.365C49.0273 136.431 49.248 136.535 49.459 136.675V137.777ZM55.4844 139.166V139.693H50.8145V139.728C50.7832 140.623 50.9531 141.265 51.3242 141.656C51.6992 142.046 52.2266 142.242 52.9062 142.242C53.25 142.242 53.6094 142.187 53.9844 142.078C54.3594 141.968 54.7598 141.802 55.1855 141.58V142.652C54.7754 142.82 54.3789 142.945 53.9961 143.027C53.6172 143.113 53.25 143.156 52.8945 143.156C51.875 143.156 51.0781 142.851 50.5039 142.242C49.9297 141.628 49.6426 140.785 49.6426 139.71C49.6426 138.664 49.9238 137.828 50.4863 137.203C51.0488 136.578 51.7988 136.265 52.7363 136.265C53.5723 136.265 54.2305 136.548 54.7109 137.115C55.1953 137.681 55.4531 138.365 55.4844 139.166ZM54.4062 138.849C54.3594 138.396 54.1934 138.005 53.9082 137.677C53.627 137.345 53.2207 137.179 52.6895 137.179C52.1699 137.179 51.7422 137.351 51.4062 137.695C51.0703 138.039 50.8867 138.425 50.8555 138.855L54.4062 138.849ZM67.6699 142.675C67.3691 142.835 67.0605 142.955 66.7441 143.033C66.4277 143.115 66.0918 143.156 65.7363 143.156C64.6152 143.156 63.7441 142.759 63.123 141.966C62.5059 141.173 62.1973 140.058 62.1973 138.621C62.1973 137.191 62.5078 136.078 63.1289 135.281C63.7539 134.48 64.623 134.08 65.7363 134.08C66.0918 134.08 66.4277 134.121 66.7441 134.203C67.0605 134.281 67.3691 134.4 67.6699 134.56V135.773C67.3809 135.535 67.0703 135.353 66.7383 135.228C66.4062 135.103 66.0723 135.041 65.7363 135.041C64.9668 135.041 64.3906 135.337 64.0078 135.931C63.625 136.525 63.4336 137.421 63.4336 138.621C63.4336 139.816 63.625 140.71 64.0078 141.304C64.3906 141.898 64.9668 142.195 65.7363 142.195C66.0801 142.195 66.416 142.132 66.7441 142.007C67.0762 141.882 67.3848 141.701 67.6699 141.462V142.675ZM71.2227 137.179C70.6758 137.179 70.2617 137.392 69.9805 137.818C69.6992 138.244 69.5586 138.875 69.5586 139.71C69.5586 140.542 69.6992 141.173 69.9805 141.603C70.2617 142.029 70.6758 142.242 71.2227 142.242C71.7734 142.242 72.1895 142.029 72.4707 141.603C72.752 141.173 72.8926 140.542 72.8926 139.71C72.8926 138.875 72.752 138.244 72.4707 137.818C72.1895 137.392 71.7734 137.179 71.2227 137.179ZM71.2227 136.265C72.1328 136.265 72.8281 136.56 73.3086 137.15C73.793 137.74 74.0352 138.593 74.0352 139.71C74.0352 140.832 73.7949 141.687 73.3145 142.277C72.834 142.863 72.1367 143.156 71.2227 143.156C70.3125 143.156 69.6172 142.863 69.1367 142.277C68.6562 141.687 68.416 140.832 68.416 139.71C68.416 138.593 68.6562 137.74 69.1367 137.15C69.6172 136.56 70.3125 136.265 71.2227 136.265ZM78.8711 137.261V133.869H79.9492V142.986H78.8711V142.16C78.6914 142.484 78.4512 142.732 78.1504 142.904C77.8535 143.072 77.5098 143.156 77.1191 143.156C76.3262 143.156 75.7012 142.849 75.2441 142.236C74.791 141.619 74.5645 140.769 74.5645 139.687C74.5645 138.621 74.793 137.785 75.25 137.179C75.707 136.57 76.3301 136.265 77.1191 136.265C77.5137 136.265 77.8613 136.351 78.1621 136.523C78.4629 136.691 78.6992 136.937 78.8711 137.261ZM75.7012 139.71C75.7012 140.546 75.834 141.177 76.0996 141.603C76.3652 142.029 76.7578 142.242 77.2773 142.242C77.7969 142.242 78.1914 142.027 78.4609 141.597C78.7344 141.167 78.8711 140.539 78.8711 139.71C78.8711 138.878 78.7344 138.25 78.4609 137.824C78.1914 137.394 77.7969 137.179 77.2773 137.179C76.7578 137.179 76.3652 137.392 76.0996 137.818C75.834 138.244 75.7012 138.875 75.7012 139.71ZM86.6367 139.166V139.693H81.9668V139.728C81.9355 140.623 82.1055 141.265 82.4766 141.656C82.8516 142.046 83.3789 142.242 84.0586 142.242C84.4023 142.242 84.7617 142.187 85.1367 142.078C85.5117 141.968 85.9121 141.802 86.3379 141.58V142.652C85.9277 142.82 85.5312 142.945 85.1484 143.027C84.7695 143.113 84.4023 143.156 84.0469 143.156C83.0273 143.156 82.2305 142.851 81.6562 142.242C81.082 141.628 80.7949 140.785 80.7949 139.71C80.7949 138.664 81.0762 137.828 81.6387 137.203C82.2012 136.578 82.9512 136.265 83.8887 136.265C84.7246 136.265 85.3828 136.548 85.8633 137.115C86.3477 137.681 86.6055 138.365 86.6367 139.166ZM85.5586 138.849C85.5117 138.396 85.3457 138.005 85.0605 137.677C84.7793 137.345 84.373 137.179 83.8418 137.179C83.3223 137.179 82.8945 137.351 82.5586 137.695C82.2227 138.039 82.0391 138.425 82.0078 138.855L85.5586 138.849ZM98.4648 134.537V135.738C98.1055 135.507 97.7441 135.333 97.3809 135.216C97.0215 135.099 96.6582 135.041 96.291 135.041C95.7324 135.041 95.291 135.171 94.9668 135.433C94.6426 135.691 94.4805 136.041 94.4805 136.482C94.4805 136.869 94.5859 137.164 94.7969 137.367C95.0117 137.57 95.4102 137.74 95.9922 137.876L96.6133 138.017C97.4336 138.208 98.0312 138.509 98.4062 138.919C98.7812 139.33 98.9688 139.888 98.9688 140.595C98.9688 141.427 98.7109 142.062 98.1953 142.5C97.6797 142.937 96.9297 143.156 95.9453 143.156C95.5352 143.156 95.123 143.111 94.709 143.021C94.2949 142.935 93.8789 142.804 93.4609 142.628V141.369C93.9102 141.654 94.334 141.863 94.7324 141.996C95.1348 142.128 95.5391 142.195 95.9453 142.195C96.543 142.195 97.0078 142.062 97.3398 141.796C97.6719 141.527 97.8379 141.152 97.8379 140.671C97.8379 140.234 97.7227 139.9 97.4922 139.669C97.2656 139.439 96.8691 139.261 96.3027 139.136L95.6699 138.99C94.8574 138.806 94.2676 138.529 93.9004 138.158C93.5332 137.787 93.3496 137.289 93.3496 136.664C93.3496 135.882 93.6113 135.257 94.1348 134.789C94.6621 134.316 95.3613 134.08 96.2324 134.08C96.5684 134.08 96.9219 134.119 97.293 134.197C97.6641 134.271 98.0547 134.384 98.4648 134.537ZM104.924 138.919V142.986H103.84V138.919C103.84 138.33 103.736 137.896 103.529 137.619C103.322 137.341 102.998 137.203 102.557 137.203C102.053 137.203 101.664 137.382 101.391 137.742C101.121 138.097 100.986 138.609 100.986 139.277V142.986H99.9082V136.423H100.986V137.408C101.178 137.033 101.438 136.75 101.766 136.558C102.094 136.363 102.482 136.265 102.932 136.265C103.6 136.265 104.098 136.486 104.426 136.927C104.758 137.365 104.924 138.029 104.924 138.919ZM106.848 136.447H109.607V142.148H111.746V142.986H106.391V142.148H108.529V137.285H106.848V136.447ZM108.529 133.898H109.607V135.257H108.529V133.898ZM113.424 142.16V145.482H112.34V136.423H113.424V137.261C113.604 136.937 113.842 136.691 114.139 136.523C114.439 136.351 114.785 136.265 115.176 136.265C115.969 136.265 116.59 136.572 117.039 137.185C117.492 137.798 117.719 138.648 117.719 139.734C117.719 140.8 117.492 141.638 117.039 142.248C116.586 142.853 115.965 143.156 115.176 143.156C114.777 143.156 114.428 143.072 114.127 142.904C113.83 142.732 113.596 142.484 113.424 142.16ZM116.588 139.71C116.588 138.875 116.455 138.244 116.189 137.818C115.928 137.392 115.537 137.179 115.018 137.179C114.494 137.179 114.098 137.394 113.828 137.824C113.559 138.25 113.424 138.878 113.424 139.71C113.424 140.539 113.559 141.167 113.828 141.597C114.098 142.027 114.494 142.242 115.018 142.242C115.537 142.242 115.928 142.029 116.189 141.603C116.455 141.177 116.588 140.546 116.588 139.71ZM119.654 142.16V145.482H118.57V136.423H119.654V137.261C119.834 136.937 120.072 136.691 120.369 136.523C120.67 136.351 121.016 136.265 121.406 136.265C122.199 136.265 122.82 136.572 123.27 137.185C123.723 137.798 123.949 138.648 123.949 139.734C123.949 140.8 123.723 141.638 123.27 142.248C122.816 142.853 122.195 143.156 121.406 143.156C121.008 143.156 120.658 143.072 120.357 142.904C120.061 142.732 119.826 142.484 119.654 142.16ZM122.818 139.71C122.818 138.875 122.686 138.244 122.42 137.818C122.158 137.392 121.768 137.179 121.248 137.179C120.725 137.179 120.328 137.394 120.059 137.824C119.789 138.25 119.654 138.878 119.654 139.71C119.654 140.539 119.789 141.167 120.059 141.597C120.328 142.027 120.725 142.242 121.248 142.242C121.768 142.242 122.158 142.029 122.42 141.603C122.686 141.177 122.818 140.546 122.818 139.71ZM130.25 139.166V139.693H125.58V139.728C125.549 140.623 125.719 141.265 126.09 141.656C126.465 142.046 126.992 142.242 127.672 142.242C128.016 142.242 128.375 142.187 128.75 142.078C129.125 141.968 129.525 141.802 129.951 141.58V142.652C129.541 142.82 129.145 142.945 128.762 143.027C128.383 143.113 128.016 143.156 127.66 143.156C126.641 143.156 125.844 142.851 125.27 142.242C124.695 141.628 124.408 140.785 124.408 139.71C124.408 138.664 124.689 137.828 125.252 137.203C125.814 136.578 126.564 136.265 127.502 136.265C128.338 136.265 128.996 136.548 129.477 137.115C129.961 137.681 130.219 138.365 130.25 139.166ZM129.172 138.849C129.125 138.396 128.959 138.005 128.674 137.677C128.393 137.345 127.986 137.179 127.455 137.179C126.936 137.179 126.508 137.351 126.172 137.695C125.836 138.039 125.652 138.425 125.621 138.855L129.172 138.849ZM133.516 134.56V136.423H135.965V137.261H133.516V140.824C133.516 141.308 133.607 141.646 133.791 141.837C133.975 142.029 134.295 142.125 134.752 142.125H135.965V142.986H134.646C133.838 142.986 133.268 142.824 132.936 142.5C132.604 142.175 132.438 141.617 132.438 140.824V137.261H130.686V136.423H132.438V134.56H133.516Z" fill="white"/>
<path d="M20 121.986H142V119.986H20V121.986ZM145 124.986V151.986H147V124.986H145ZM142 154.986H20V156.986H142V154.986ZM17 151.986V124.986H15V151.986H17ZM20 154.986C18.3431 154.986 17 153.643 17 151.986H15C15 154.747 17.2386 156.986 20 156.986V154.986ZM145 151.986C145 153.643 143.657 154.986 142 154.986V156.986C144.761 156.986 147 154.747 147 151.986H145ZM142 121.986C143.657 121.986 145 123.329 145 124.986H147C147 122.224 144.761 119.986 142 119.986V121.986ZM20 119.986C17.2386 119.986 15 122.224 15 124.986H17C17 123.329 18.3431 121.986 20 121.986V119.986Z" fill="url(#paint0_linear_1527_25426)" fill-opacity="0.85"/>
</g>
<rect opacity="0.3" x="14" y="53.9858" width="221" height="19" fill="#23A9F2"/>
<rect opacity="0.3" x="14" y="72.9858" width="180" height="15" fill="#23A9F2"/>
<rect opacity="0.3" x="14" y="87.9858" width="184" height="19" fill="#23A9F2"/>
<g clip-path="url(#clip0_1527_25426)">
<g filter="url(#filter1_d_1527_25426)">
<path d="M90.2186 171.861H94.5136C94.5636 171.861 94.6116 171.841 94.647 171.806L95.8789 170.574C96.0152 170.437 96.2 170.361 96.3927 170.361C96.6679 170.361 96.9195 170.516 97.0426 170.762L97.5641 171.806C97.581 171.839 97.6157 171.861 97.6535 171.861H99.4234C99.6545 171.861 99.8417 171.674 99.8417 171.443C99.8417 169.745 100.237 168.07 100.996 166.552C101.969 164.606 103.153 162.637 102.804 160.366L102.531 158.587C102.445 158.025 101.962 157.611 101.394 157.611H101.187C100.666 157.611 100.244 158.033 100.244 158.554V159.297C100.244 159.408 100.154 159.498 100.043 159.498C99.9318 159.498 99.8417 159.408 99.8417 159.297V157.611C99.8417 156.782 99.1702 156.111 98.3417 156.111C97.5133 156.111 96.8417 156.782 96.8417 157.611V159.329C96.8417 159.536 96.6738 159.704 96.4667 159.704C96.2596 159.704 96.0917 159.536 96.0917 159.329V157.611C96.0917 156.782 95.4202 156.111 94.5917 156.111C93.7633 156.111 93.0917 156.782 93.0917 157.611V159.772C93.0917 159.831 93.0782 159.888 93.0522 159.94C92.914 160.216 92.5195 160.216 92.3813 159.94C92.3553 159.888 92.3417 159.831 92.3417 159.772V152.361C92.3417 151.383 91.5448 150.111 90.4667 150.111C89.3887 150.111 88.5917 151.383 88.5917 152.361V161.635C88.5917 161.898 88.3788 162.111 88.116 162.111C87.9463 162.111 87.7898 162.021 87.7029 161.875C87.4142 161.39 86.7425 160.291 86.3417 159.861C86.1158 159.619 85.6628 159.445 85.2222 159.327C84.5389 159.143 83.8453 159.48 83.4528 160.069C82.9521 160.82 83.0512 161.82 83.6894 162.458L84.921 163.69C85.3621 164.131 85.6944 164.669 85.8917 165.261L85.9667 165.486C86.2134 166.226 86.6288 166.898 87.1803 167.449L89.1208 169.39C89.7425 170.012 90.0917 170.855 90.0917 171.734C90.0917 171.804 90.1485 171.861 90.2186 171.861Z" fill="white"/>
<path d="M90.2186 171.861H94.5136C94.5636 171.861 94.6116 171.841 94.647 171.806L95.8789 170.574C96.0152 170.437 96.2 170.361 96.3927 170.361C96.6679 170.361 96.9195 170.516 97.0426 170.762L97.5641 171.806C97.581 171.839 97.6157 171.861 97.6535 171.861H99.4234C99.6545 171.861 99.8417 171.674 99.8417 171.443C99.8417 169.745 100.237 168.07 100.996 166.552C101.969 164.606 103.153 162.637 102.804 160.366L102.531 158.587C102.445 158.025 101.962 157.611 101.394 157.611H101.187C100.666 157.611 100.244 158.033 100.244 158.554V159.297C100.244 159.408 100.154 159.498 100.043 159.498C99.9318 159.498 99.8417 159.408 99.8417 159.297V157.611C99.8417 156.782 99.1702 156.111 98.3417 156.111C97.5133 156.111 96.8417 156.782 96.8417 157.611V159.329C96.8417 159.536 96.6738 159.704 96.4667 159.704C96.2596 159.704 96.0917 159.536 96.0917 159.329V157.611C96.0917 156.782 95.4202 156.111 94.5917 156.111C93.7633 156.111 93.0917 156.782 93.0917 157.611V159.772C93.0917 159.831 93.0782 159.888 93.0522 159.94C92.914 160.216 92.5195 160.216 92.3813 159.94C92.3553 159.888 92.3417 159.831 92.3417 159.772V152.361C92.3417 151.383 91.5448 150.111 90.4667 150.111C89.3887 150.111 88.5917 151.383 88.5917 152.361V161.635C88.5917 161.898 88.3788 162.111 88.116 162.111C87.9463 162.111 87.7898 162.021 87.7029 161.875C87.4142 161.39 86.7425 160.291 86.3417 159.861C86.1158 159.619 85.6628 159.445 85.2222 159.327C84.5389 159.143 83.8453 159.48 83.4528 160.069C82.9521 160.82 83.0512 161.82 83.6894 162.458L84.921 163.69C85.3621 164.131 85.6944 164.669 85.8917 165.261L85.9667 165.486C86.2134 166.226 86.6288 166.898 87.1803 167.449L89.1208 169.39C89.7425 170.012 90.0917 170.855 90.0917 171.734C90.0917 171.804 90.1485 171.861 90.2186 171.861Z" stroke="black"/>
</g>
<line x1="92.8086" y1="162.648" x2="92.8086" y2="168.42" stroke="black"/>
<line x1="95.7676" y1="162.648" x2="95.7676" y2="168.42" stroke="black"/>
<line x1="98.8027" y1="162.648" x2="98.8027" y2="168.42" stroke="black"/>
</g>
<defs>
<filter id="filter0_d_1527_25426" x="0" y="104.986" width="164" height="69" filterUnits="userSpaceOnUse" color-interpolation-filters="sRGB">
<feFlood flood-opacity="0" result="BackgroundImageFix"/>
<feColorMatrix in="SourceAlpha" type="matrix" values="0 0 0 0 0 0 0 0 0 0 0 0 0 0 0 0 0 0 127 0" result="hardAlpha"/>
<feOffset dx="1" dy="1"/>
<feGaussianBlur stdDeviation="8"/>
<feColorMatrix type="matrix" values="0 0 0 0 0.101961 0 0 0 0 0.101961 0 0 0 0 0.101961 0 0 0 0.65 0"/>
<feBlend mode="normal" in2="BackgroundImageFix" result="effect1_dropShadow_1527_25426"/>
<feBlend mode="normal" in="SourceGraphic" in2="effect1_dropShadow_1527_25426" result="shape"/>
</filter>
<filter id="filter1_d_1527_25426" x="75.6783" y="146.316" width="30.9821" height="33.0016" filterUnits="userSpaceOnUse" color-interpolation-filters="sRGB">
<feFlood flood-opacity="0" result="BackgroundImageFix"/>
<feColorMatrix in="SourceAlpha" type="matrix" values="0 0 0 0 0 0 0 0 0 0 0 0 0 0 0 0 0 0 127 0" result="hardAlpha"/>
<feOffset dx="-1.83065" dy="1.83065"/>
<feGaussianBlur stdDeviation="2.56291"/>
<feColorMatrix type="matrix" values="0 0 0 0 0 0 0 0 0 0 0 0 0 0 0 0 0 0 0.6 0"/>
<feBlend mode="normal" in2="BackgroundImageFix" result="effect1_dropShadow_1527_25426"/>
<feBlend mode="normal" in="SourceGraphic" in2="effect1_dropShadow_1527_25426" result="shape"/>
</filter>
<linearGradient id="paint0_linear_1527_25426" x1="45.5" y1="112.688" x2="52.9365" y2="164.489" gradientUnits="userSpaceOnUse">
<stop stop-color="#23A9F2"/>
<stop offset="0.980392" stop-color="#00C543"/>
</linearGradient>
<clipPath id="clip0_1527_25426">
<rect width="36" height="36" fill="white" transform="translate(75 142.986)"/>
</clipPath>
</defs>
</svg>
