<svg width="520" height="341" viewBox="0 0 520 341" fill="none" xmlns="http://www.w3.org/2000/svg">
<g filter="url(#filter0_dddddd_1508_21499)">
<rect x="80" y="0.297852" width="360" height="160" rx="8" fill="#282C34"/>
<path d="M97.582 28.3076H99.4219V21.6982L97.2188 22.7588V21.6221L99.4102 20.5791H100.594V28.3076H102.41V29.2979H97.582V28.3076ZM98.1855 46.3018H102.205V47.2979H96.8906V46.3018C97.6211 45.5322 98.2598 44.8525 98.8066 44.2627C99.3535 43.6729 99.7305 43.2568 99.9375 43.0146C100.328 42.5381 100.592 42.1533 100.729 41.8604C100.865 41.5635 100.934 41.2607 100.934 40.9521C100.934 40.4639 100.789 40.0811 100.5 39.8037C100.215 39.5264 99.8223 39.3877 99.3223 39.3877C98.9668 39.3877 98.5938 39.4521 98.2031 39.5811C97.8125 39.71 97.3984 39.9053 96.9609 40.167V38.9717C97.3633 38.7803 97.7578 38.6357 98.1445 38.5381C98.5352 38.4404 98.9199 38.3916 99.2988 38.3916C100.154 38.3916 100.842 38.6201 101.361 39.0771C101.885 39.5303 102.146 40.126 102.146 40.8643C102.146 41.2393 102.059 41.6143 101.883 41.9893C101.711 42.3643 101.43 42.7783 101.039 43.2314C100.82 43.4854 100.502 43.8369 100.084 44.2861C99.6699 44.7354 99.0371 45.4072 98.1855 46.3018ZM100.547 60.6162C101.121 60.7686 101.561 61.04 101.865 61.4307C102.17 61.8174 102.322 62.3018 102.322 62.8838C102.322 63.6885 102.051 64.3213 101.508 64.7822C100.969 65.2393 100.221 65.4678 99.2637 65.4678C98.8613 65.4678 98.4512 65.4307 98.0332 65.3564C97.6152 65.2822 97.2051 65.1748 96.8027 65.0342V63.8564C97.2012 64.0635 97.5938 64.2178 97.9805 64.3193C98.3672 64.4209 98.752 64.4717 99.1348 64.4717C99.7832 64.4717 100.281 64.3252 100.629 64.0322C100.977 63.7393 101.15 63.3174 101.15 62.7666C101.15 62.2588 100.977 61.8564 100.629 61.5596C100.281 61.2588 99.8105 61.1084 99.2168 61.1084H98.3145V60.1357H99.2168C99.7598 60.1357 100.184 60.0166 100.488 59.7783C100.793 59.54 100.945 59.208 100.945 58.7822C100.945 58.333 100.803 57.9893 100.518 57.751C100.236 57.5088 99.834 57.3877 99.3105 57.3877C98.9629 57.3877 98.6035 57.4268 98.2324 57.5049C97.8613 57.583 97.4727 57.7002 97.0664 57.8564V56.7666C97.5391 56.6416 97.959 56.5479 98.3262 56.4854C98.6973 56.4229 99.0254 56.3916 99.3105 56.3916C100.162 56.3916 100.842 56.6064 101.35 57.0361C101.861 57.4619 102.117 58.0283 102.117 58.7354C102.117 59.2158 101.982 59.6162 101.713 59.9365C101.447 60.2568 101.059 60.4834 100.547 60.6162ZM100.307 75.6279L97.5469 80.251H100.307V75.6279ZM100.113 74.5498H101.484V80.251H102.65V81.2119H101.484V83.2979H100.307V81.2119H96.5977V80.0928L100.113 74.5498ZM97.2129 92.5498H101.643V93.5459H98.291V95.6963C98.459 95.6338 98.627 95.5889 98.7949 95.5615C98.9668 95.5303 99.1387 95.5146 99.3105 95.5146C100.217 95.5146 100.936 95.7822 101.467 96.3174C101.998 96.8525 102.264 97.5771 102.264 98.4912C102.264 99.4131 101.984 100.14 101.426 100.671C100.871 101.202 100.111 101.468 99.1465 101.468C98.6816 101.468 98.2559 101.437 97.8691 101.374C97.4863 101.312 97.1426 101.218 96.8379 101.093V99.8916C97.1973 100.087 97.5586 100.233 97.9219 100.331C98.2852 100.425 98.6562 100.472 99.0352 100.472C99.6875 100.472 100.189 100.3 100.541 99.9561C100.896 99.6123 101.074 99.124 101.074 98.4912C101.074 97.8662 100.891 97.3799 100.523 97.0322C100.16 96.6846 99.6523 96.5107 99 96.5107C98.6836 96.5107 98.375 96.5479 98.0742 96.6221C97.7734 96.6924 97.4863 96.7998 97.2129 96.9443V92.5498Z" fill="white" fill-opacity="0.4"/>
<path d="M110.312 22.7588H113.072V28.46H115.211V29.2979H109.855V28.46H111.994V23.5967H110.312V22.7588ZM111.994 20.21H113.072V21.5693H111.994V20.21ZM118.652 23.4033C118.785 23.1221 118.953 22.915 119.156 22.7822C119.363 22.6455 119.611 22.5771 119.9 22.5771C120.428 22.5771 120.799 22.7822 121.014 23.1924C121.232 23.5986 121.342 24.3662 121.342 25.4951V29.2979H120.357V25.542C120.357 24.6162 120.305 24.042 120.199 23.8193C120.098 23.5928 119.91 23.4795 119.637 23.4795C119.324 23.4795 119.109 23.6006 118.992 23.8428C118.879 24.0811 118.822 24.6475 118.822 25.542V29.2979H117.838V25.542C117.838 24.6045 117.781 24.0264 117.668 23.8076C117.559 23.5889 117.359 23.4795 117.07 23.4795C116.785 23.4795 116.586 23.6006 116.473 23.8428C116.363 24.0811 116.309 24.6475 116.309 25.542V29.2979H115.33V22.7354H116.309V23.2979C116.438 23.0635 116.598 22.8857 116.789 22.7646C116.984 22.6396 117.205 22.5771 117.451 22.5771C117.748 22.5771 117.994 22.6455 118.189 22.7822C118.389 22.9189 118.543 23.126 118.652 23.4033ZM123.119 28.4717V31.7939H122.035V22.7354H123.119V23.5732C123.299 23.249 123.537 23.0029 123.834 22.835C124.135 22.6631 124.48 22.5771 124.871 22.5771C125.664 22.5771 126.285 22.8838 126.734 23.4971C127.188 24.1104 127.414 24.96 127.414 26.0459C127.414 27.1123 127.188 27.9502 126.734 28.5596C126.281 29.165 125.66 29.4678 124.871 29.4678C124.473 29.4678 124.123 29.3838 123.822 29.2158C123.525 29.0439 123.291 28.7959 123.119 28.4717ZM126.283 26.0225C126.283 25.1865 126.15 24.5557 125.885 24.1299C125.623 23.7041 125.232 23.4912 124.713 23.4912C124.189 23.4912 123.793 23.7061 123.523 24.1357C123.254 24.5615 123.119 25.1904 123.119 26.0225C123.119 26.8506 123.254 27.4795 123.523 27.9092C123.793 28.3389 124.189 28.5537 124.713 28.5537C125.232 28.5537 125.623 28.3408 125.885 27.915C126.15 27.4893 126.283 26.8584 126.283 26.0225ZM130.762 23.4912C130.215 23.4912 129.801 23.7041 129.52 24.1299C129.238 24.5557 129.098 25.1865 129.098 26.0225C129.098 26.8545 129.238 27.4854 129.52 27.915C129.801 28.3408 130.215 28.5537 130.762 28.5537C131.312 28.5537 131.729 28.3408 132.01 27.915C132.291 27.4854 132.432 26.8545 132.432 26.0225C132.432 25.1865 132.291 24.5557 132.01 24.1299C131.729 23.7041 131.312 23.4912 130.762 23.4912ZM130.762 22.5771C131.672 22.5771 132.367 22.8721 132.848 23.4619C133.332 24.0518 133.574 24.9053 133.574 26.0225C133.574 27.1436 133.334 27.999 132.854 28.5889C132.373 29.1748 131.676 29.4678 130.762 29.4678C129.852 29.4678 129.156 29.1748 128.676 28.5889C128.195 27.999 127.955 27.1436 127.955 26.0225C127.955 24.9053 128.195 24.0518 128.676 23.4619C129.156 22.8721 129.852 22.5771 130.762 22.5771ZM140.15 24.0889C139.92 23.9092 139.686 23.7783 139.447 23.6963C139.209 23.6143 138.947 23.5732 138.662 23.5732C137.99 23.5732 137.477 23.7842 137.121 24.2061C136.766 24.6279 136.588 25.2373 136.588 26.0342V29.2979H135.504V22.7354H136.588V24.0186C136.768 23.5537 137.043 23.1982 137.414 22.9521C137.789 22.7021 138.232 22.5771 138.744 22.5771C139.01 22.5771 139.258 22.6104 139.488 22.6768C139.719 22.7432 139.939 22.8467 140.15 22.9873V24.0889ZM143.211 20.8721V22.7354H145.66V23.5732H143.211V27.1357C143.211 27.6201 143.303 27.958 143.486 28.1494C143.67 28.3408 143.99 28.4365 144.447 28.4365H145.66V29.2979H144.342C143.533 29.2979 142.963 29.1357 142.631 28.8115C142.299 28.4873 142.133 27.9287 142.133 27.1357V23.5732H140.381V22.7354H142.133V20.8721H143.211ZM108.461 40.7354H109.527L110.67 46.0381L111.607 42.6514H112.527L113.477 46.0381L114.619 40.7354H115.686L114.15 47.2979H113.119L112.07 43.7002L111.027 47.2979H109.996L108.461 40.7354ZM116.543 40.7588H119.303V46.46H121.441V47.2979H116.086V46.46H118.225V41.5967H116.543V40.7588ZM118.225 38.21H119.303V39.5693H118.225V38.21ZM124.52 38.8721V40.7354H126.969V41.5732H124.52V45.1357C124.52 45.6201 124.611 45.958 124.795 46.1494C124.979 46.3408 125.299 46.4365 125.756 46.4365H126.969V47.2979H125.65C124.842 47.2979 124.271 47.1357 123.939 46.8115C123.607 46.4873 123.441 45.9287 123.441 45.1357V41.5732H121.689V40.7354H123.441V38.8721H124.52ZM133.311 43.2314V47.2979H132.227V43.2314C132.227 42.6416 132.123 42.208 131.916 41.9307C131.709 41.6533 131.385 41.5146 130.943 41.5146C130.439 41.5146 130.051 41.6943 129.777 42.0537C129.508 42.4092 129.373 42.9209 129.373 43.5889V47.2979H128.295V38.1807H129.373V41.7197C129.564 41.3447 129.824 41.0615 130.152 40.8701C130.48 40.6748 130.869 40.5771 131.318 40.5771C131.986 40.5771 132.484 40.7979 132.812 41.2393C133.145 41.6768 133.311 42.3408 133.311 43.2314ZM143.223 41.4912C142.676 41.4912 142.262 41.7041 141.98 42.1299C141.699 42.5557 141.559 43.1865 141.559 44.0225C141.559 44.8545 141.699 45.4854 141.98 45.915C142.262 46.3408 142.676 46.5537 143.223 46.5537C143.773 46.5537 144.189 46.3408 144.471 45.915C144.752 45.4854 144.893 44.8545 144.893 44.0225C144.893 43.1865 144.752 42.5557 144.471 42.1299C144.189 41.7041 143.773 41.4912 143.223 41.4912ZM143.223 40.5771C144.133 40.5771 144.828 40.8721 145.309 41.4619C145.793 42.0518 146.035 42.9053 146.035 44.0225C146.035 45.1436 145.795 45.999 145.314 46.5889C144.834 47.1748 144.137 47.4678 143.223 47.4678C142.312 47.4678 141.617 47.1748 141.137 46.5889C140.656 45.999 140.416 45.1436 140.416 44.0225C140.416 42.9053 140.656 42.0518 141.137 41.4619C141.617 40.8721 142.312 40.5771 143.223 40.5771ZM148.041 46.4717V49.7939H146.957V40.7354H148.041V41.5732C148.221 41.249 148.459 41.0029 148.756 40.835C149.057 40.6631 149.402 40.5771 149.793 40.5771C150.586 40.5771 151.207 40.8838 151.656 41.4971C152.109 42.1104 152.336 42.96 152.336 44.0459C152.336 45.1123 152.109 45.9502 151.656 46.5596C151.203 47.165 150.582 47.4678 149.793 47.4678C149.395 47.4678 149.045 47.3838 148.744 47.2158C148.447 47.0439 148.213 46.7959 148.041 46.4717ZM151.205 44.0225C151.205 43.1865 151.072 42.5557 150.807 42.1299C150.545 41.7041 150.154 41.4912 149.635 41.4912C149.111 41.4912 148.715 41.7061 148.445 42.1357C148.176 42.5615 148.041 43.1904 148.041 44.0225C148.041 44.8506 148.176 45.4795 148.445 45.9092C148.715 46.3389 149.111 46.5537 149.635 46.5537C150.154 46.5537 150.545 46.3408 150.807 45.915C151.072 45.4893 151.205 44.8584 151.205 44.0225ZM158.637 43.4775V44.0049H153.967V44.04C153.936 44.9346 154.105 45.5771 154.477 45.9678C154.852 46.3584 155.379 46.5537 156.059 46.5537C156.402 46.5537 156.762 46.499 157.137 46.3896C157.512 46.2803 157.912 46.1143 158.338 45.8916V46.9639C157.928 47.1318 157.531 47.2568 157.148 47.3389C156.77 47.4248 156.402 47.4678 156.047 47.4678C155.027 47.4678 154.23 47.1631 153.656 46.5537C153.082 45.9404 152.795 45.0967 152.795 44.0225C152.795 42.9756 153.076 42.1396 153.639 41.5146C154.201 40.8896 154.951 40.5771 155.889 40.5771C156.725 40.5771 157.383 40.8604 157.863 41.4268C158.348 41.9932 158.605 42.6768 158.637 43.4775ZM157.559 43.1611C157.512 42.708 157.346 42.3174 157.061 41.9893C156.779 41.6572 156.373 41.4912 155.842 41.4912C155.322 41.4912 154.895 41.6631 154.559 42.0068C154.223 42.3506 154.039 42.7373 154.008 43.167L157.559 43.1611ZM164.463 43.2314V47.2979H163.379V43.2314C163.379 42.6416 163.275 42.208 163.068 41.9307C162.861 41.6533 162.537 41.5146 162.096 41.5146C161.592 41.5146 161.203 41.6943 160.93 42.0537C160.66 42.4092 160.525 42.9209 160.525 43.5889V47.2979H159.447V40.7354H160.525V41.7197C160.717 41.3447 160.977 41.0615 161.305 40.8701C161.633 40.6748 162.021 40.5771 162.471 40.5771C163.139 40.5771 163.637 40.7979 163.965 41.2393C164.297 41.6768 164.463 42.3408 164.463 43.2314ZM268.324 44.2158C267.684 44.2158 267.236 44.2979 266.982 44.4619C266.729 44.626 266.602 44.9072 266.602 45.3057C266.602 45.6025 266.689 45.8389 266.865 46.0146C267.041 46.1904 267.279 46.2783 267.58 46.2783C268.033 46.2783 268.385 46.1084 268.635 45.7686C268.885 45.4248 269.01 44.9463 269.01 44.333V44.2158H268.324ZM270.715 43.5537V47.2979H269.01V46.5654C268.803 46.8545 268.537 47.0771 268.213 47.2334C267.889 47.3896 267.531 47.4678 267.141 47.4678C266.395 47.4678 265.812 47.2705 265.395 46.876C264.98 46.4814 264.773 45.9307 264.773 45.2236C264.773 44.458 265.021 43.8936 265.518 43.5303C266.014 43.1631 266.781 42.9795 267.82 42.9795H269.01V42.6924C269.01 42.415 268.908 42.2061 268.705 42.0654C268.506 41.9209 268.211 41.8486 267.82 41.8486C267.41 41.8486 267.012 41.9014 266.625 42.0068C266.242 42.1084 265.842 42.2725 265.424 42.499V41.0342C265.803 40.8779 266.188 40.7627 266.578 40.6885C266.969 40.6143 267.383 40.5771 267.82 40.5771C268.887 40.5771 269.635 40.7939 270.064 41.2275C270.498 41.6611 270.715 42.4365 270.715 43.5537ZM276.26 40.9404V42.4404C275.943 42.2373 275.613 42.085 275.27 41.9834C274.93 41.8779 274.588 41.8252 274.244 41.8252C273.861 41.8252 273.572 41.8818 273.377 41.9951C273.182 42.1045 273.084 42.2686 273.084 42.4873C273.084 42.7998 273.502 43.0537 274.338 43.249L274.402 43.2666L274.895 43.3838C275.52 43.5322 275.977 43.7725 276.266 44.1045C276.559 44.4326 276.705 44.8779 276.705 45.4404C276.705 46.1162 276.482 46.624 276.037 46.9639C275.596 47.2998 274.93 47.4678 274.039 47.4678C273.645 47.4678 273.24 47.4326 272.826 47.3623C272.412 47.2959 271.992 47.1943 271.566 47.0576V45.5576C271.945 45.7725 272.33 45.9365 272.721 46.0498C273.115 46.1631 273.496 46.2197 273.863 46.2197C274.266 46.2197 274.57 46.1611 274.777 46.0439C274.984 45.9268 275.088 45.7568 275.088 45.5342C275.088 45.3154 275.014 45.1475 274.865 45.0303C274.721 44.9131 274.373 44.7881 273.822 44.6553L273.348 44.5498C272.691 44.4014 272.213 44.1689 271.912 43.8525C271.611 43.5361 271.461 43.1123 271.461 42.5811C271.461 41.9482 271.689 41.4561 272.146 41.1045C272.604 40.7529 273.246 40.5771 274.074 40.5771C274.445 40.5771 274.814 40.6084 275.182 40.6709C275.553 40.7295 275.912 40.8193 276.26 40.9404ZM137.713 76.1611V76.7354H139.729V78.0537H137.713V83.2979H135.996V78.0537H134.402V76.7354H135.996V76.2783C135.996 75.4893 136.16 74.9424 136.488 74.6377C136.816 74.333 137.426 74.1807 138.316 74.1807H139.729V75.499H138.387C138.129 75.499 137.953 75.5459 137.859 75.6396C137.77 75.7334 137.721 75.9072 137.713 76.1611ZM143.223 77.9717C142.812 77.9717 142.49 78.1533 142.256 78.5166C142.021 78.876 141.904 79.3779 141.904 80.0225C141.904 80.667 142.021 81.1709 142.256 81.5342C142.49 81.8936 142.812 82.0732 143.223 82.0732C143.637 82.0732 143.961 81.8936 144.195 81.5342C144.43 81.1709 144.547 80.667 144.547 80.0225C144.547 79.3779 144.43 78.876 144.195 78.5166C143.961 78.1533 143.637 77.9717 143.223 77.9717ZM140.188 80.0225C140.188 78.9639 140.461 78.126 141.008 77.5088C141.559 76.8877 142.297 76.5771 143.223 76.5771C144.152 76.5771 144.891 76.8877 145.438 77.5088C145.988 78.126 146.264 78.9639 146.264 80.0225C146.264 81.0811 145.988 81.9209 145.438 82.542C144.891 83.1592 144.152 83.4678 143.223 83.4678C142.297 83.4678 141.559 83.1592 141.008 82.542C140.461 81.9209 140.188 81.0811 140.188 80.0225ZM152.588 78.5459C152.4 78.374 152.18 78.2451 151.926 78.1592C151.676 78.0732 151.4 78.0303 151.1 78.0303C150.736 78.0303 150.418 78.0947 150.145 78.2236C149.875 78.3486 149.666 78.5322 149.518 78.7744C149.424 78.9229 149.357 79.1025 149.318 79.3135C149.283 79.5244 149.266 79.8447 149.266 80.2744V83.2979H147.549V76.7354H149.266V77.7549C149.434 77.3799 149.691 77.0908 150.039 76.8877C150.387 76.6807 150.793 76.5771 151.258 76.5771C151.492 76.5771 151.721 76.6064 151.943 76.665C152.17 76.7197 152.385 76.8018 152.588 76.9111V78.5459ZM184.521 76.7354H187.92V81.9795H190.053V83.2979H184.064V81.9795H186.203V78.0537H184.521V76.7354ZM186.203 73.542H187.92V75.5459H186.203V73.542ZM195.732 79.0381V83.2979H194.027V79.3018C194.027 78.8252 193.959 78.4854 193.822 78.2822C193.689 78.0752 193.471 77.9717 193.166 77.9717C192.857 77.9717 192.613 78.1104 192.434 78.3877C192.258 78.665 192.17 79.0498 192.17 79.542V83.2979H190.465V76.7354H192.17V77.7197C192.291 77.3564 192.498 77.0752 192.791 76.876C193.084 76.6768 193.438 76.5771 193.852 76.5771C194.473 76.5771 194.941 76.7842 195.258 77.1982C195.574 77.6084 195.732 78.2217 195.732 79.0381ZM148.041 100.472V103.794H146.957V94.7354H148.041V95.5732C148.221 95.249 148.459 95.0029 148.756 94.835C149.057 94.6631 149.402 94.5771 149.793 94.5771C150.586 94.5771 151.207 94.8838 151.656 95.4971C152.109 96.1104 152.336 96.96 152.336 98.0459C152.336 99.1123 152.109 99.9502 151.656 100.56C151.203 101.165 150.582 101.468 149.793 101.468C149.395 101.468 149.045 101.384 148.744 101.216C148.447 101.044 148.213 100.796 148.041 100.472ZM151.205 98.0225C151.205 97.1865 151.072 96.5557 150.807 96.1299C150.545 95.7041 150.154 95.4912 149.635 95.4912C149.111 95.4912 148.715 95.7061 148.445 96.1357C148.176 96.5615 148.041 97.1904 148.041 98.0225C148.041 98.8506 148.176 99.4795 148.445 99.9092C148.715 100.339 149.111 100.554 149.635 100.554C150.154 100.554 150.545 100.341 150.807 99.915C151.072 99.4893 151.205 98.8584 151.205 98.0225ZM158.842 96.0889C158.611 95.9092 158.377 95.7783 158.139 95.6963C157.9 95.6143 157.639 95.5732 157.354 95.5732C156.682 95.5732 156.168 95.7842 155.812 96.2061C155.457 96.6279 155.279 97.2373 155.279 98.0342V101.298H154.195V94.7354H155.279V96.0186C155.459 95.5537 155.734 95.1982 156.105 94.9521C156.48 94.7021 156.924 94.5771 157.436 94.5771C157.701 94.5771 157.949 94.6104 158.18 94.6768C158.41 94.7432 158.631 94.8467 158.842 94.9873V96.0889ZM160.156 94.7588H162.916V100.46H165.055V101.298H159.699V100.46H161.838V95.5967H160.156V94.7588ZM161.838 92.21H162.916V93.5693H161.838V92.21ZM170.693 97.2314V101.298H169.609V97.2314C169.609 96.6416 169.506 96.208 169.299 95.9307C169.092 95.6533 168.768 95.5146 168.326 95.5146C167.822 95.5146 167.434 95.6943 167.16 96.0537C166.891 96.4092 166.756 96.9209 166.756 97.5889V101.298H165.678V94.7354H166.756V95.7197C166.947 95.3447 167.207 95.0615 167.535 94.8701C167.863 94.6748 168.252 94.5771 168.701 94.5771C169.369 94.5771 169.867 94.7979 170.195 95.2393C170.527 95.6768 170.693 96.3408 170.693 97.2314ZM174.363 92.8721V94.7354H176.812V95.5732H174.363V99.1357C174.363 99.6201 174.455 99.958 174.639 100.149C174.822 100.341 175.143 100.437 175.6 100.437H176.812V101.298H175.494C174.686 101.298 174.115 101.136 173.783 100.812C173.451 100.487 173.285 99.9287 173.285 99.1357V95.5732H171.533V94.7354H173.285V92.8721H174.363ZM187.574 92.1689V95.8193H186.262V92.1689H187.574ZM192.047 99.1826H193.875V100.735L192.574 103.261L191.402 103.267L192.047 100.735V99.1826ZM206.266 92.1689V95.8193H204.953V92.1689H206.266Z" fill="#00C543"/>
<path d="M169.545 37.6064C169.025 38.4971 168.637 39.3857 168.379 40.2725C168.125 41.1553 167.998 42.0459 167.998 42.9443C167.998 43.8389 168.125 44.7295 168.379 45.6162C168.637 46.5029 169.025 47.3955 169.545 48.2939H168.607C168.018 47.3643 167.578 46.46 167.289 45.5811C167 44.6982 166.855 43.8193 166.855 42.9443C166.855 42.0732 167 41.1963 167.289 40.3135C167.578 39.4307 168.018 38.5283 168.607 37.6064H169.545ZM253.801 37.6064H254.738C255.328 38.5283 255.768 39.4307 256.057 40.3135C256.346 41.1963 256.49 42.0732 256.49 42.9443C256.49 43.8232 256.346 44.7041 256.057 45.5869C255.768 46.4697 255.328 47.3721 254.738 48.2939H253.801C254.32 47.3877 254.707 46.4912 254.961 45.6045C255.219 44.7178 255.348 43.8311 255.348 42.9443C255.348 42.0537 255.219 41.165 254.961 40.2783C254.707 39.3916 254.32 38.501 253.801 37.6064ZM289.131 46.9639C288.842 47.1318 288.543 47.2568 288.234 47.3389C287.93 47.4248 287.617 47.4678 287.297 47.4678C286.281 47.4678 285.486 47.1631 284.912 46.5537C284.342 45.9443 284.057 45.1006 284.057 44.0225C284.057 42.9443 284.342 42.1006 284.912 41.4912C285.486 40.8818 286.281 40.5771 287.297 40.5771C287.613 40.5771 287.922 40.6182 288.223 40.7002C288.523 40.7822 288.826 40.9092 289.131 41.0811V42.2119C288.846 41.958 288.559 41.7744 288.27 41.6611C287.984 41.5479 287.66 41.4912 287.297 41.4912C286.621 41.4912 286.102 41.71 285.738 42.1475C285.375 42.585 285.193 43.21 285.193 44.0225C285.193 44.8311 285.375 45.4561 285.738 45.8975C286.105 46.335 286.625 46.5537 287.297 46.5537C287.672 46.5537 288.008 46.4971 288.305 46.3838C288.602 46.2666 288.877 46.0869 289.131 45.8447V46.9639ZM294.846 40.9639V42.0186C294.537 41.8389 294.227 41.7041 293.914 41.6143C293.602 41.5244 293.283 41.4795 292.959 41.4795C292.471 41.4795 292.105 41.5596 291.863 41.7197C291.625 41.876 291.506 42.1162 291.506 42.4404C291.506 42.7334 291.596 42.9521 291.775 43.0967C291.955 43.2412 292.402 43.3818 293.117 43.5186L293.551 43.6006C294.086 43.7021 294.49 43.9053 294.764 44.21C295.041 44.5146 295.18 44.9111 295.18 45.3994C295.18 46.0479 294.949 46.5557 294.488 46.9229C294.027 47.2861 293.387 47.4678 292.566 47.4678C292.242 47.4678 291.902 47.4326 291.547 47.3623C291.191 47.2959 290.807 47.1943 290.393 47.0576V45.9443C290.795 46.1514 291.18 46.3076 291.547 46.4131C291.914 46.5146 292.262 46.5654 292.59 46.5654C293.066 46.5654 293.436 46.4697 293.697 46.2783C293.959 46.083 294.09 45.8115 294.09 45.4639C294.09 44.9639 293.611 44.6182 292.654 44.4268L292.607 44.415L292.203 44.333C291.582 44.2119 291.129 44.0088 290.844 43.7236C290.559 43.4346 290.416 43.042 290.416 42.5459C290.416 41.917 290.629 41.4326 291.055 41.0928C291.48 40.749 292.088 40.5771 292.877 40.5771C293.229 40.5771 293.566 40.6104 293.891 40.6768C294.215 40.7393 294.533 40.835 294.846 40.9639ZM295.961 40.7354H297.08L298.984 46.2432L300.895 40.7354H302.014L299.682 47.2979H298.293L295.961 40.7354ZM307.834 38.1807V39.0771H306.609C306.223 39.0771 305.953 39.1572 305.801 39.3174C305.652 39.4736 305.578 39.7529 305.578 40.1553V40.7354H307.834V41.5732H305.578V47.2979H304.5V41.5732H302.748V40.7354H304.5V40.2783C304.5 39.5596 304.664 39.0303 304.992 38.6904C305.324 38.3506 305.84 38.1807 306.539 38.1807H307.834ZM309.688 40.7588H312.447V46.46H314.586V47.2979H309.23V46.46H311.369V41.5967H309.688V40.7588ZM311.369 38.21H312.447V39.5693H311.369V38.21ZM318.279 44.9248C318.279 45.4092 318.367 45.7744 318.543 46.0205C318.723 46.2666 318.986 46.3896 319.334 46.3896H320.594V47.2979H319.229C318.584 47.2979 318.084 47.0928 317.729 46.6826C317.377 46.2686 317.201 45.6826 317.201 44.9248V38.9893H315.473V38.1455H318.279V44.9248ZM326.859 43.4775V44.0049H322.189V44.04C322.158 44.9346 322.328 45.5771 322.699 45.9678C323.074 46.3584 323.602 46.5537 324.281 46.5537C324.625 46.5537 324.984 46.499 325.359 46.3896C325.734 46.2803 326.135 46.1143 326.561 45.8916V46.9639C326.15 47.1318 325.754 47.2568 325.371 47.3389C324.992 47.4248 324.625 47.4678 324.27 47.4678C323.25 47.4678 322.453 47.1631 321.879 46.5537C321.305 45.9404 321.018 45.0967 321.018 44.0225C321.018 42.9756 321.299 42.1396 321.861 41.5146C322.424 40.8896 323.174 40.5771 324.111 40.5771C324.947 40.5771 325.605 40.8604 326.086 41.4268C326.57 41.9932 326.828 42.6768 326.859 43.4775ZM325.781 43.1611C325.734 42.708 325.568 42.3174 325.283 41.9893C325.002 41.6572 324.596 41.4912 324.064 41.4912C323.545 41.4912 323.117 41.6631 322.781 42.0068C322.445 42.3506 322.262 42.7373 322.23 43.167L325.781 43.1611ZM329.041 40.7412H330.869V42.8564H329.041V40.7412ZM329.041 45.165H330.869V47.2979H329.041V45.165ZM120.908 64.9639C120.619 65.1318 120.32 65.2568 120.012 65.3389C119.707 65.4248 119.395 65.4678 119.074 65.4678C118.059 65.4678 117.264 65.1631 116.689 64.5537C116.119 63.9443 115.834 63.1006 115.834 62.0225C115.834 60.9443 116.119 60.1006 116.689 59.4912C117.264 58.8818 118.059 58.5771 119.074 58.5771C119.391 58.5771 119.699 58.6182 120 58.7002C120.301 58.7822 120.604 58.9092 120.908 59.0811V60.2119C120.623 59.958 120.336 59.7744 120.047 59.6611C119.762 59.5479 119.438 59.4912 119.074 59.4912C118.398 59.4912 117.879 59.71 117.516 60.1475C117.152 60.585 116.971 61.21 116.971 62.0225C116.971 62.8311 117.152 63.4561 117.516 63.8975C117.883 64.335 118.402 64.5537 119.074 64.5537C119.449 64.5537 119.785 64.4971 120.082 64.3838C120.379 64.2666 120.654 64.0869 120.908 63.8447V64.9639ZM126.623 58.9639V60.0186C126.314 59.8389 126.004 59.7041 125.691 59.6143C125.379 59.5244 125.061 59.4795 124.736 59.4795C124.248 59.4795 123.883 59.5596 123.641 59.7197C123.402 59.876 123.283 60.1162 123.283 60.4404C123.283 60.7334 123.373 60.9521 123.553 61.0967C123.732 61.2412 124.18 61.3818 124.895 61.5186L125.328 61.6006C125.863 61.7021 126.268 61.9053 126.541 62.21C126.818 62.5146 126.957 62.9111 126.957 63.3994C126.957 64.0479 126.727 64.5557 126.266 64.9229C125.805 65.2861 125.164 65.4678 124.344 65.4678C124.02 65.4678 123.68 65.4326 123.324 65.3623C122.969 65.2959 122.584 65.1943 122.17 65.0576V63.9443C122.572 64.1514 122.957 64.3076 123.324 64.4131C123.691 64.5146 124.039 64.5654 124.367 64.5654C124.844 64.5654 125.213 64.4697 125.475 64.2783C125.736 64.083 125.867 63.8115 125.867 63.4639C125.867 62.9639 125.389 62.6182 124.432 62.4268L124.385 62.415L123.98 62.333C123.359 62.2119 122.906 62.0088 122.621 61.7236C122.336 61.4346 122.193 61.042 122.193 60.5459C122.193 59.917 122.406 59.4326 122.832 59.0928C123.258 58.749 123.865 58.5771 124.654 58.5771C125.006 58.5771 125.344 58.6104 125.668 58.6768C125.992 58.7393 126.311 58.835 126.623 58.9639ZM127.738 58.7354H128.857L130.762 64.2432L132.672 58.7354H133.791L131.459 65.2979H130.07L127.738 58.7354ZM140.555 66.4111V67.4072H133.383V66.4111H140.555ZM146.381 60.0889C146.15 59.9092 145.916 59.7783 145.678 59.6963C145.439 59.6143 145.178 59.5732 144.893 59.5732C144.221 59.5732 143.707 59.7842 143.352 60.2061C142.996 60.6279 142.818 61.2373 142.818 62.0342V65.2979H141.734V58.7354H142.818V60.0186C142.998 59.5537 143.273 59.1982 143.645 58.9521C144.02 58.7021 144.463 58.5771 144.975 58.5771C145.24 58.5771 145.488 58.6104 145.719 58.6768C145.949 58.7432 146.17 58.8467 146.381 58.9873V60.0889ZM152.406 61.4775V62.0049H147.736V62.04C147.705 62.9346 147.875 63.5771 148.246 63.9678C148.621 64.3584 149.148 64.5537 149.828 64.5537C150.172 64.5537 150.531 64.499 150.906 64.3896C151.281 64.2803 151.682 64.1143 152.107 63.8916V64.9639C151.697 65.1318 151.301 65.2568 150.918 65.3389C150.539 65.4248 150.172 65.4678 149.816 65.4678C148.797 65.4678 148 65.1631 147.426 64.5537C146.852 63.9404 146.564 63.0967 146.564 62.0225C146.564 60.9756 146.846 60.1396 147.408 59.5146C147.971 58.8896 148.721 58.5771 149.658 58.5771C150.494 58.5771 151.152 58.8604 151.633 59.4268C152.117 59.9932 152.375 60.6768 152.406 61.4775ZM151.328 61.1611C151.281 60.708 151.115 60.3174 150.83 59.9893C150.549 59.6572 150.143 59.4912 149.611 59.4912C149.092 59.4912 148.664 59.6631 148.328 60.0068C147.992 60.3506 147.809 60.7373 147.777 61.167L151.328 61.1611ZM156.188 61.999H155.83C155.201 61.999 154.727 62.1104 154.406 62.333C154.09 62.5518 153.932 62.8799 153.932 63.3174C153.932 63.7119 154.051 64.0186 154.289 64.2373C154.527 64.4561 154.857 64.5654 155.279 64.5654C155.873 64.5654 156.34 64.3604 156.68 63.9502C157.02 63.5361 157.191 62.9658 157.195 62.2393V61.999H156.188ZM158.279 61.5537V65.2979H157.195V64.3252C156.965 64.7158 156.674 65.0049 156.322 65.1924C155.975 65.376 155.551 65.4678 155.051 65.4678C154.383 65.4678 153.85 65.2803 153.451 64.9053C153.053 64.5264 152.854 64.0205 152.854 63.3877C152.854 62.6572 153.098 62.1025 153.586 61.7236C154.078 61.3447 154.799 61.1553 155.748 61.1553H157.195V60.9854C157.191 60.4619 157.059 60.083 156.797 59.8486C156.535 59.6104 156.117 59.4912 155.543 59.4912C155.176 59.4912 154.805 59.5439 154.43 59.6494C154.055 59.7549 153.689 59.9092 153.334 60.1123V59.0342C153.732 58.8818 154.113 58.7686 154.477 58.6943C154.844 58.6162 155.199 58.5771 155.543 58.5771C156.086 58.5771 156.549 58.6572 156.932 58.8174C157.318 58.9775 157.631 59.2178 157.869 59.5381C158.018 59.7334 158.123 59.9756 158.186 60.2646C158.248 60.5498 158.279 60.9795 158.279 61.5537ZM163.332 59.5732V56.1807H164.41V65.2979H163.332V64.4717C163.152 64.7959 162.912 65.0439 162.611 65.2158C162.314 65.3838 161.971 65.4678 161.58 65.4678C160.787 65.4678 160.162 65.1611 159.705 64.5479C159.252 63.9307 159.025 63.0811 159.025 61.999C159.025 60.9326 159.254 60.0967 159.711 59.4912C160.168 58.8818 160.791 58.5771 161.58 58.5771C161.975 58.5771 162.322 58.6631 162.623 58.835C162.924 59.0029 163.16 59.249 163.332 59.5732ZM160.162 62.0225C160.162 62.8584 160.295 63.4893 160.561 63.915C160.826 64.3408 161.219 64.5537 161.738 64.5537C162.258 64.5537 162.652 64.3389 162.922 63.9092C163.195 63.4795 163.332 62.8506 163.332 62.0225C163.332 61.1904 163.195 60.5615 162.922 60.1357C162.652 59.7061 162.258 59.4912 161.738 59.4912C161.219 59.4912 160.826 59.7041 160.561 60.1299C160.295 60.5557 160.162 61.1865 160.162 62.0225ZM171.098 61.4775V62.0049H166.428V62.04C166.396 62.9346 166.566 63.5771 166.938 63.9678C167.312 64.3584 167.84 64.5537 168.52 64.5537C168.863 64.5537 169.223 64.499 169.598 64.3896C169.973 64.2803 170.373 64.1143 170.799 63.8916V64.9639C170.389 65.1318 169.992 65.2568 169.609 65.3389C169.23 65.4248 168.863 65.4678 168.508 65.4678C167.488 65.4678 166.691 65.1631 166.117 64.5537C165.543 63.9404 165.256 63.0967 165.256 62.0225C165.256 60.9756 165.537 60.1396 166.1 59.5146C166.662 58.8896 167.412 58.5771 168.35 58.5771C169.186 58.5771 169.844 58.8604 170.324 59.4268C170.809 59.9932 171.066 60.6768 171.098 61.4775ZM170.02 61.1611C169.973 60.708 169.807 60.3174 169.521 59.9893C169.24 59.6572 168.834 59.4912 168.303 59.4912C167.783 59.4912 167.355 59.6631 167.02 60.0068C166.684 60.3506 166.5 60.7373 166.469 61.167L170.02 61.1611ZM177.533 60.0889C177.303 59.9092 177.068 59.7783 176.83 59.6963C176.592 59.6143 176.33 59.5732 176.045 59.5732C175.373 59.5732 174.859 59.7842 174.504 60.2061C174.148 60.6279 173.971 61.2373 173.971 62.0342V65.2979H172.887V58.7354H173.971V60.0186C174.15 59.5537 174.426 59.1982 174.797 58.9521C175.172 58.7021 175.615 58.5771 176.127 58.5771C176.393 58.5771 176.641 58.6104 176.871 58.6768C177.102 58.7432 177.322 58.8467 177.533 58.9873V60.0889ZM183.742 62.3682H189.936V63.3584H183.742V62.3682ZM183.742 59.6084H189.936V60.5986H183.742V59.6084ZM201.904 64.9639C201.615 65.1318 201.316 65.2568 201.008 65.3389C200.703 65.4248 200.391 65.4678 200.07 65.4678C199.055 65.4678 198.26 65.1631 197.686 64.5537C197.115 63.9443 196.83 63.1006 196.83 62.0225C196.83 60.9443 197.115 60.1006 197.686 59.4912C198.26 58.8818 199.055 58.5771 200.07 58.5771C200.387 58.5771 200.695 58.6182 200.996 58.7002C201.297 58.7822 201.6 58.9092 201.904 59.0811V60.2119C201.619 59.958 201.332 59.7744 201.043 59.6611C200.758 59.5479 200.434 59.4912 200.07 59.4912C199.395 59.4912 198.875 59.71 198.512 60.1475C198.148 60.585 197.967 61.21 197.967 62.0225C197.967 62.8311 198.148 63.4561 198.512 63.8975C198.879 64.335 199.398 64.5537 200.07 64.5537C200.445 64.5537 200.781 64.4971 201.078 64.3838C201.375 64.2666 201.65 64.0869 201.904 63.8447V64.9639ZM207.619 58.9639V60.0186C207.311 59.8389 207 59.7041 206.688 59.6143C206.375 59.5244 206.057 59.4795 205.732 59.4795C205.244 59.4795 204.879 59.5596 204.637 59.7197C204.398 59.876 204.279 60.1162 204.279 60.4404C204.279 60.7334 204.369 60.9521 204.549 61.0967C204.729 61.2412 205.176 61.3818 205.891 61.5186L206.324 61.6006C206.859 61.7021 207.264 61.9053 207.537 62.21C207.814 62.5146 207.953 62.9111 207.953 63.3994C207.953 64.0479 207.723 64.5557 207.262 64.9229C206.801 65.2861 206.16 65.4678 205.34 65.4678C205.016 65.4678 204.676 65.4326 204.32 65.3623C203.965 65.2959 203.58 65.1943 203.166 65.0576V63.9443C203.568 64.1514 203.953 64.3076 204.32 64.4131C204.688 64.5146 205.035 64.5654 205.363 64.5654C205.84 64.5654 206.209 64.4697 206.471 64.2783C206.732 64.083 206.863 63.8115 206.863 63.4639C206.863 62.9639 206.385 62.6182 205.428 62.4268L205.381 62.415L204.977 62.333C204.355 62.2119 203.902 62.0088 203.617 61.7236C203.332 61.4346 203.189 61.042 203.189 60.5459C203.189 59.917 203.402 59.4326 203.828 59.0928C204.254 58.749 204.861 58.5771 205.65 58.5771C206.002 58.5771 206.34 58.6104 206.664 58.6768C206.988 58.7393 207.307 58.835 207.619 58.9639ZM208.734 58.7354H209.854L211.758 64.2432L213.668 58.7354H214.787L212.455 65.2979H211.066L208.734 58.7354ZM216.658 62.9307H218.721V65.2979H216.658V62.9307ZM227.377 60.0889C227.146 59.9092 226.912 59.7783 226.674 59.6963C226.436 59.6143 226.174 59.5732 225.889 59.5732C225.217 59.5732 224.703 59.7842 224.348 60.2061C223.992 60.6279 223.814 61.2373 223.814 62.0342V65.2979H222.73V58.7354H223.814V60.0186C223.994 59.5537 224.27 59.1982 224.641 58.9521C225.016 58.7021 225.459 58.5771 225.971 58.5771C226.236 58.5771 226.484 58.6104 226.715 58.6768C226.945 58.7432 227.166 58.8467 227.377 58.9873V60.0889ZM233.402 61.4775V62.0049H228.732V62.04C228.701 62.9346 228.871 63.5771 229.242 63.9678C229.617 64.3584 230.145 64.5537 230.824 64.5537C231.168 64.5537 231.527 64.499 231.902 64.3896C232.277 64.2803 232.678 64.1143 233.104 63.8916V64.9639C232.693 65.1318 232.297 65.2568 231.914 65.3389C231.535 65.4248 231.168 65.4678 230.812 65.4678C229.793 65.4678 228.996 65.1631 228.422 64.5537C227.848 63.9404 227.561 63.0967 227.561 62.0225C227.561 60.9756 227.842 60.1396 228.404 59.5146C228.967 58.8896 229.717 58.5771 230.654 58.5771C231.49 58.5771 232.148 58.8604 232.629 59.4268C233.113 59.9932 233.371 60.6768 233.402 61.4775ZM232.324 61.1611C232.277 60.708 232.111 60.3174 231.826 59.9893C231.545 59.6572 231.139 59.4912 230.607 59.4912C230.088 59.4912 229.66 59.6631 229.324 60.0068C228.988 60.3506 228.805 60.7373 228.773 61.167L232.324 61.1611ZM237.184 61.999H236.826C236.197 61.999 235.723 62.1104 235.402 62.333C235.086 62.5518 234.928 62.8799 234.928 63.3174C234.928 63.7119 235.047 64.0186 235.285 64.2373C235.523 64.4561 235.854 64.5654 236.275 64.5654C236.869 64.5654 237.336 64.3604 237.676 63.9502C238.016 63.5361 238.188 62.9658 238.191 62.2393V61.999H237.184ZM239.275 61.5537V65.2979H238.191V64.3252C237.961 64.7158 237.67 65.0049 237.318 65.1924C236.971 65.376 236.547 65.4678 236.047 65.4678C235.379 65.4678 234.846 65.2803 234.447 64.9053C234.049 64.5264 233.85 64.0205 233.85 63.3877C233.85 62.6572 234.094 62.1025 234.582 61.7236C235.074 61.3447 235.795 61.1553 236.744 61.1553H238.191V60.9854C238.188 60.4619 238.055 60.083 237.793 59.8486C237.531 59.6104 237.113 59.4912 236.539 59.4912C236.172 59.4912 235.801 59.5439 235.426 59.6494C235.051 59.7549 234.686 59.9092 234.33 60.1123V59.0342C234.729 58.8818 235.109 58.7686 235.473 58.6943C235.84 58.6162 236.195 58.5771 236.539 58.5771C237.082 58.5771 237.545 58.6572 237.928 58.8174C238.314 58.9775 238.627 59.2178 238.865 59.5381C239.014 59.7334 239.119 59.9756 239.182 60.2646C239.244 60.5498 239.275 60.9795 239.275 61.5537ZM244.328 59.5732V56.1807H245.406V65.2979H244.328V64.4717C244.148 64.7959 243.908 65.0439 243.607 65.2158C243.311 65.3838 242.967 65.4678 242.576 65.4678C241.783 65.4678 241.158 65.1611 240.701 64.5479C240.248 63.9307 240.021 63.0811 240.021 61.999C240.021 60.9326 240.25 60.0967 240.707 59.4912C241.164 58.8818 241.787 58.5771 242.576 58.5771C242.971 58.5771 243.318 58.6631 243.619 58.835C243.92 59.0029 244.156 59.249 244.328 59.5732ZM241.158 62.0225C241.158 62.8584 241.291 63.4893 241.557 63.915C241.822 64.3408 242.215 64.5537 242.734 64.5537C243.254 64.5537 243.648 64.3389 243.918 63.9092C244.191 63.4795 244.328 62.8506 244.328 62.0225C244.328 61.1904 244.191 60.5615 243.918 60.1357C243.648 59.7061 243.254 59.4912 242.734 59.4912C242.215 59.4912 241.822 59.7041 241.557 60.1299C241.291 60.5557 241.158 61.1865 241.158 62.0225ZM252.094 61.4775V62.0049H247.424V62.04C247.393 62.9346 247.562 63.5771 247.934 63.9678C248.309 64.3584 248.836 64.5537 249.516 64.5537C249.859 64.5537 250.219 64.499 250.594 64.3896C250.969 64.2803 251.369 64.1143 251.795 63.8916V64.9639C251.385 65.1318 250.988 65.2568 250.605 65.3389C250.227 65.4248 249.859 65.4678 249.504 65.4678C248.484 65.4678 247.688 65.1631 247.113 64.5537C246.539 63.9404 246.252 63.0967 246.252 62.0225C246.252 60.9756 246.533 60.1396 247.096 59.5146C247.658 58.8896 248.408 58.5771 249.346 58.5771C250.182 58.5771 250.84 58.8604 251.32 59.4268C251.805 59.9932 252.062 60.6768 252.094 61.4775ZM251.016 61.1611C250.969 60.708 250.803 60.3174 250.518 59.9893C250.236 59.6572 249.83 59.4912 249.299 59.4912C248.779 59.4912 248.352 59.6631 248.016 60.0068C247.68 60.3506 247.496 60.7373 247.465 61.167L251.016 61.1611ZM258.529 60.0889C258.299 59.9092 258.064 59.7783 257.826 59.6963C257.588 59.6143 257.326 59.5732 257.041 59.5732C256.369 59.5732 255.855 59.7842 255.5 60.2061C255.145 60.6279 254.967 61.2373 254.967 62.0342V65.2979H253.883V58.7354H254.967V60.0186C255.146 59.5537 255.422 59.1982 255.793 58.9521C256.168 58.7021 256.611 58.5771 257.123 58.5771C257.389 58.5771 257.637 58.6104 257.867 58.6768C258.098 58.7432 258.318 58.8467 258.529 58.9873V60.0889ZM263.002 55.6064C262.482 56.4971 262.094 57.3857 261.836 58.2725C261.582 59.1553 261.455 60.0459 261.455 60.9443C261.455 61.8389 261.582 62.7295 261.836 63.6162C262.094 64.5029 262.482 65.3955 263.002 66.2939H262.064C261.475 65.3643 261.035 64.46 260.746 63.5811C260.457 62.6982 260.312 61.8193 260.312 60.9443C260.312 60.0732 260.457 59.1963 260.746 58.3135C261.035 57.4307 261.475 56.5283 262.064 55.6064H263.002ZM270.439 64.9639C270.15 65.1318 269.852 65.2568 269.543 65.3389C269.238 65.4248 268.926 65.4678 268.605 65.4678C267.59 65.4678 266.795 65.1631 266.221 64.5537C265.65 63.9443 265.365 63.1006 265.365 62.0225C265.365 60.9443 265.65 60.1006 266.221 59.4912C266.795 58.8818 267.59 58.5771 268.605 58.5771C268.922 58.5771 269.23 58.6182 269.531 58.7002C269.832 58.7822 270.135 58.9092 270.439 59.0811V60.2119C270.154 59.958 269.867 59.7744 269.578 59.6611C269.293 59.5479 268.969 59.4912 268.605 59.4912C267.93 59.4912 267.41 59.71 267.047 60.1475C266.684 60.585 266.502 61.21 266.502 62.0225C266.502 62.8311 266.684 63.4561 267.047 63.8975C267.414 64.335 267.934 64.5537 268.605 64.5537C268.98 64.5537 269.316 64.4971 269.613 64.3838C269.91 64.2666 270.186 64.0869 270.439 63.8447V64.9639ZM276.154 58.9639V60.0186C275.846 59.8389 275.535 59.7041 275.223 59.6143C274.91 59.5244 274.592 59.4795 274.268 59.4795C273.779 59.4795 273.414 59.5596 273.172 59.7197C272.934 59.876 272.814 60.1162 272.814 60.4404C272.814 60.7334 272.904 60.9521 273.084 61.0967C273.264 61.2412 273.711 61.3818 274.426 61.5186L274.859 61.6006C275.395 61.7021 275.799 61.9053 276.072 62.21C276.35 62.5146 276.488 62.9111 276.488 63.3994C276.488 64.0479 276.258 64.5557 275.797 64.9229C275.336 65.2861 274.695 65.4678 273.875 65.4678C273.551 65.4678 273.211 65.4326 272.855 65.3623C272.5 65.2959 272.115 65.1943 271.701 65.0576V63.9443C272.104 64.1514 272.488 64.3076 272.855 64.4131C273.223 64.5146 273.57 64.5654 273.898 64.5654C274.375 64.5654 274.744 64.4697 275.006 64.2783C275.268 64.083 275.398 63.8115 275.398 63.4639C275.398 62.9639 274.92 62.6182 273.963 62.4268L273.916 62.415L273.512 62.333C272.891 62.2119 272.438 62.0088 272.152 61.7236C271.867 61.4346 271.725 61.042 271.725 60.5459C271.725 59.917 271.938 59.4326 272.363 59.0928C272.789 58.749 273.396 58.5771 274.186 58.5771C274.537 58.5771 274.875 58.6104 275.199 58.6768C275.523 58.7393 275.842 58.835 276.154 58.9639ZM277.27 58.7354H278.389L280.293 64.2432L282.203 58.7354H283.322L280.99 65.2979H279.602L277.27 58.7354ZM289.143 56.1807V57.0771H287.918C287.531 57.0771 287.262 57.1572 287.109 57.3174C286.961 57.4736 286.887 57.7529 286.887 58.1553V58.7354H289.143V59.5732H286.887V65.2979H285.809V59.5732H284.057V58.7354H285.809V58.2783C285.809 57.5596 285.973 57.0303 286.301 56.6904C286.633 56.3506 287.148 56.1807 287.848 56.1807H289.143ZM290.996 58.7588H293.756V64.46H295.895V65.2979H290.539V64.46H292.678V59.5967H290.996V58.7588ZM292.678 56.21H293.756V57.5693H292.678V56.21ZM299.588 62.9248C299.588 63.4092 299.676 63.7744 299.852 64.0205C300.031 64.2666 300.295 64.3896 300.643 64.3896H301.902V65.2979H300.537C299.893 65.2979 299.393 65.0928 299.037 64.6826C298.686 64.2686 298.51 63.6826 298.51 62.9248V56.9893H296.781V56.1455H299.588V62.9248ZM308.168 61.4775V62.0049H303.498V62.04C303.467 62.9346 303.637 63.5771 304.008 63.9678C304.383 64.3584 304.91 64.5537 305.59 64.5537C305.934 64.5537 306.293 64.499 306.668 64.3896C307.043 64.2803 307.443 64.1143 307.869 63.8916V64.9639C307.459 65.1318 307.062 65.2568 306.68 65.3389C306.301 65.4248 305.934 65.4678 305.578 65.4678C304.559 65.4678 303.762 65.1631 303.188 64.5537C302.613 63.9404 302.326 63.0967 302.326 62.0225C302.326 60.9756 302.607 60.1396 303.17 59.5146C303.732 58.8896 304.482 58.5771 305.42 58.5771C306.256 58.5771 306.914 58.8604 307.395 59.4268C307.879 59.9932 308.137 60.6768 308.168 61.4775ZM307.09 61.1611C307.043 60.708 306.877 60.3174 306.592 59.9893C306.311 59.6572 305.904 59.4912 305.373 59.4912C304.854 59.4912 304.426 59.6631 304.09 60.0068C303.754 60.3506 303.57 60.7373 303.539 61.167L307.09 61.1611ZM309.875 55.6064H310.812C311.402 56.5283 311.842 57.4307 312.131 58.3135C312.42 59.1963 312.564 60.0732 312.564 60.9443C312.564 61.8232 312.42 62.7041 312.131 63.5869C311.842 64.4697 311.402 65.3721 310.812 66.2939H309.875C310.395 65.3877 310.781 64.4912 311.035 63.6045C311.293 62.7178 311.422 61.8311 311.422 60.9443C311.422 60.0537 311.293 59.165 311.035 58.2783C310.781 57.3916 310.395 56.501 309.875 55.6064ZM165.072 78.0889C164.842 77.9092 164.607 77.7783 164.369 77.6963C164.131 77.6143 163.869 77.5732 163.584 77.5732C162.912 77.5732 162.398 77.7842 162.043 78.2061C161.688 78.6279 161.51 79.2373 161.51 80.0342V83.2979H160.426V76.7354H161.51V78.0186C161.689 77.5537 161.965 77.1982 162.336 76.9521C162.711 76.7021 163.154 76.5771 163.666 76.5771C163.932 76.5771 164.18 76.6104 164.41 76.6768C164.641 76.7432 164.861 76.8467 165.072 76.9873V78.0889ZM168.145 77.4912C167.598 77.4912 167.184 77.7041 166.902 78.1299C166.621 78.5557 166.48 79.1865 166.48 80.0225C166.48 80.8545 166.621 81.4854 166.902 81.915C167.184 82.3408 167.598 82.5537 168.145 82.5537C168.695 82.5537 169.111 82.3408 169.393 81.915C169.674 81.4854 169.814 80.8545 169.814 80.0225C169.814 79.1865 169.674 78.5557 169.393 78.1299C169.111 77.7041 168.695 77.4912 168.145 77.4912ZM168.145 76.5771C169.055 76.5771 169.75 76.8721 170.23 77.4619C170.715 78.0518 170.957 78.9053 170.957 80.0225C170.957 81.1436 170.717 81.999 170.236 82.5889C169.756 83.1748 169.059 83.4678 168.145 83.4678C167.234 83.4678 166.539 83.1748 166.059 82.5889C165.578 81.999 165.338 81.1436 165.338 80.0225C165.338 78.9053 165.578 78.0518 166.059 77.4619C166.539 76.8721 167.234 76.5771 168.145 76.5771ZM170.766 76.7354H171.832L172.975 82.0381L173.912 78.6514H174.832L175.781 82.0381L176.924 76.7354H177.99L176.455 83.2979H175.424L174.375 79.7002L173.332 83.2979H172.301L170.766 76.7354ZM208.135 82.9639C207.846 83.1318 207.547 83.2568 207.238 83.3389C206.934 83.4248 206.621 83.4678 206.301 83.4678C205.285 83.4678 204.49 83.1631 203.916 82.5537C203.346 81.9443 203.061 81.1006 203.061 80.0225C203.061 78.9443 203.346 78.1006 203.916 77.4912C204.49 76.8818 205.285 76.5771 206.301 76.5771C206.617 76.5771 206.926 76.6182 207.227 76.7002C207.527 76.7822 207.83 76.9092 208.135 77.0811V78.2119C207.85 77.958 207.562 77.7744 207.273 77.6611C206.988 77.5479 206.664 77.4912 206.301 77.4912C205.625 77.4912 205.105 77.71 204.742 78.1475C204.379 78.585 204.197 79.21 204.197 80.0225C204.197 80.8311 204.379 81.4561 204.742 81.8975C205.109 82.335 205.629 82.5537 206.301 82.5537C206.676 82.5537 207.012 82.4971 207.309 82.3838C207.605 82.2666 207.881 82.0869 208.135 81.8447V82.9639ZM213.85 76.9639V78.0186C213.541 77.8389 213.23 77.7041 212.918 77.6143C212.605 77.5244 212.287 77.4795 211.963 77.4795C211.475 77.4795 211.109 77.5596 210.867 77.7197C210.629 77.876 210.51 78.1162 210.51 78.4404C210.51 78.7334 210.6 78.9521 210.779 79.0967C210.959 79.2412 211.406 79.3818 212.121 79.5186L212.555 79.6006C213.09 79.7021 213.494 79.9053 213.768 80.21C214.045 80.5146 214.184 80.9111 214.184 81.3994C214.184 82.0479 213.953 82.5557 213.492 82.9229C213.031 83.2861 212.391 83.4678 211.57 83.4678C211.246 83.4678 210.906 83.4326 210.551 83.3623C210.195 83.2959 209.811 83.1943 209.396 83.0576V81.9443C209.799 82.1514 210.184 82.3076 210.551 82.4131C210.918 82.5146 211.266 82.5654 211.594 82.5654C212.07 82.5654 212.439 82.4697 212.701 82.2783C212.963 82.083 213.094 81.8115 213.094 81.4639C213.094 80.9639 212.615 80.6182 211.658 80.4268L211.611 80.415L211.207 80.333C210.586 80.2119 210.133 80.0088 209.848 79.7236C209.562 79.4346 209.42 79.042 209.42 78.5459C209.42 77.917 209.633 77.4326 210.059 77.0928C210.484 76.749 211.092 76.5771 211.881 76.5771C212.232 76.5771 212.57 76.6104 212.895 76.6768C213.219 76.7393 213.537 76.835 213.85 76.9639ZM214.965 76.7354H216.084L217.988 82.2432L219.898 76.7354H221.018L218.686 83.2979H217.297L214.965 76.7354ZM227.781 84.4111V85.4072H220.609V84.4111H227.781ZM233.607 78.0889C233.377 77.9092 233.143 77.7783 232.904 77.6963C232.666 77.6143 232.404 77.5732 232.119 77.5732C231.447 77.5732 230.934 77.7842 230.578 78.2061C230.223 78.6279 230.045 79.2373 230.045 80.0342V83.2979H228.961V76.7354H230.045V78.0186C230.225 77.5537 230.5 77.1982 230.871 76.9521C231.246 76.7021 231.689 76.5771 232.201 76.5771C232.467 76.5771 232.715 76.6104 232.945 76.6768C233.176 76.7432 233.396 76.8467 233.607 76.9873V78.0889ZM239.633 79.4775V80.0049H234.963V80.04C234.932 80.9346 235.102 81.5771 235.473 81.9678C235.848 82.3584 236.375 82.5537 237.055 82.5537C237.398 82.5537 237.758 82.499 238.133 82.3896C238.508 82.2803 238.908 82.1143 239.334 81.8916V82.9639C238.924 83.1318 238.527 83.2568 238.145 83.3389C237.766 83.4248 237.398 83.4678 237.043 83.4678C236.023 83.4678 235.227 83.1631 234.652 82.5537C234.078 81.9404 233.791 81.0967 233.791 80.0225C233.791 78.9756 234.072 78.1396 234.635 77.5146C235.197 76.8896 235.947 76.5771 236.885 76.5771C237.721 76.5771 238.379 76.8604 238.859 77.4268C239.344 77.9932 239.602 78.6768 239.633 79.4775ZM238.555 79.1611C238.508 78.708 238.342 78.3174 238.057 77.9893C237.775 77.6572 237.369 77.4912 236.838 77.4912C236.318 77.4912 235.891 77.6631 235.555 78.0068C235.219 78.3506 235.035 78.7373 235.004 79.167L238.555 79.1611ZM243.414 79.999H243.057C242.428 79.999 241.953 80.1104 241.633 80.333C241.316 80.5518 241.158 80.8799 241.158 81.3174C241.158 81.7119 241.277 82.0186 241.516 82.2373C241.754 82.4561 242.084 82.5654 242.506 82.5654C243.1 82.5654 243.566 82.3604 243.906 81.9502C244.246 81.5361 244.418 80.9658 244.422 80.2393V79.999H243.414ZM245.506 79.5537V83.2979H244.422V82.3252C244.191 82.7158 243.9 83.0049 243.549 83.1924C243.201 83.376 242.777 83.4678 242.277 83.4678C241.609 83.4678 241.076 83.2803 240.678 82.9053C240.279 82.5264 240.08 82.0205 240.08 81.3877C240.08 80.6572 240.324 80.1025 240.812 79.7236C241.305 79.3447 242.025 79.1553 242.975 79.1553H244.422V78.9854C244.418 78.4619 244.285 78.083 244.023 77.8486C243.762 77.6104 243.344 77.4912 242.77 77.4912C242.402 77.4912 242.031 77.5439 241.656 77.6494C241.281 77.7549 240.916 77.9092 240.561 78.1123V77.0342C240.959 76.8818 241.34 76.7686 241.703 76.6943C242.07 76.6162 242.426 76.5771 242.77 76.5771C243.312 76.5771 243.775 76.6572 244.158 76.8174C244.545 76.9775 244.857 77.2178 245.096 77.5381C245.244 77.7334 245.35 77.9756 245.412 78.2646C245.475 78.5498 245.506 78.9795 245.506 79.5537ZM250.559 77.5732V74.1807H251.637V83.2979H250.559V82.4717C250.379 82.7959 250.139 83.0439 249.838 83.2158C249.541 83.3838 249.197 83.4678 248.807 83.4678C248.014 83.4678 247.389 83.1611 246.932 82.5479C246.479 81.9307 246.252 81.0811 246.252 79.999C246.252 78.9326 246.48 78.0967 246.938 77.4912C247.395 76.8818 248.018 76.5771 248.807 76.5771C249.201 76.5771 249.549 76.6631 249.85 76.835C250.15 77.0029 250.387 77.249 250.559 77.5732ZM247.389 80.0225C247.389 80.8584 247.521 81.4893 247.787 81.915C248.053 82.3408 248.445 82.5537 248.965 82.5537C249.484 82.5537 249.879 82.3389 250.148 81.9092C250.422 81.4795 250.559 80.8506 250.559 80.0225C250.559 79.1904 250.422 78.5615 250.148 78.1357C249.879 77.7061 249.484 77.4912 248.965 77.4912C248.445 77.4912 248.053 77.7041 247.787 78.1299C247.521 78.5557 247.389 79.1865 247.389 80.0225ZM258.324 79.4775V80.0049H253.654V80.04C253.623 80.9346 253.793 81.5771 254.164 81.9678C254.539 82.3584 255.066 82.5537 255.746 82.5537C256.09 82.5537 256.449 82.499 256.824 82.3896C257.199 82.2803 257.6 82.1143 258.025 81.8916V82.9639C257.615 83.1318 257.219 83.2568 256.836 83.3389C256.457 83.4248 256.09 83.4678 255.734 83.4678C254.715 83.4678 253.918 83.1631 253.344 82.5537C252.77 81.9404 252.482 81.0967 252.482 80.0225C252.482 78.9756 252.764 78.1396 253.326 77.5146C253.889 76.8896 254.639 76.5771 255.576 76.5771C256.412 76.5771 257.07 76.8604 257.551 77.4268C258.035 77.9932 258.293 78.6768 258.324 79.4775ZM257.246 79.1611C257.199 78.708 257.033 78.3174 256.748 77.9893C256.467 77.6572 256.061 77.4912 255.529 77.4912C255.01 77.4912 254.582 77.6631 254.246 78.0068C253.91 78.3506 253.727 78.7373 253.695 79.167L257.246 79.1611ZM264.76 78.0889C264.529 77.9092 264.295 77.7783 264.057 77.6963C263.818 77.6143 263.557 77.5732 263.271 77.5732C262.6 77.5732 262.086 77.7842 261.73 78.2061C261.375 78.6279 261.197 79.2373 261.197 80.0342V83.2979H260.113V76.7354H261.197V78.0186C261.377 77.5537 261.652 77.1982 262.023 76.9521C262.398 76.7021 262.842 76.5771 263.354 76.5771C263.619 76.5771 263.867 76.6104 264.098 76.6768C264.328 76.7432 264.549 76.8467 264.76 76.9873V78.0889ZM266.736 76.7412H268.564V78.8564H266.736V76.7412ZM266.736 81.165H268.564V83.2979H266.736V81.165ZM182.006 91.6064C181.486 92.4971 181.098 93.3857 180.84 94.2725C180.586 95.1553 180.459 96.0459 180.459 96.9443C180.459 97.8389 180.586 98.7295 180.84 99.6162C181.098 100.503 181.486 101.396 182.006 102.294H181.068C180.479 101.364 180.039 100.46 179.75 99.5811C179.461 98.6982 179.316 97.8193 179.316 96.9443C179.316 96.0732 179.461 95.1963 179.75 94.3135C180.039 93.4307 180.479 92.5283 181.068 91.6064H182.006ZM210.428 98.9307H212.49V101.298H210.428V98.9307ZM217.895 101.415V95.5732H216.037V94.7354H218.973V101.415C218.973 102.177 218.797 102.763 218.445 103.173C218.098 103.587 217.602 103.794 216.957 103.794H215.469V102.88H216.84C217.191 102.88 217.455 102.757 217.631 102.511C217.807 102.269 217.895 101.903 217.895 101.415ZM217.895 92.1807H218.973V93.5459H217.895V92.1807ZM224.219 95.4912C223.672 95.4912 223.258 95.7041 222.977 96.1299C222.695 96.5557 222.555 97.1865 222.555 98.0225C222.555 98.8545 222.695 99.4854 222.977 99.915C223.258 100.341 223.672 100.554 224.219 100.554C224.77 100.554 225.186 100.341 225.467 99.915C225.748 99.4854 225.889 98.8545 225.889 98.0225C225.889 97.1865 225.748 96.5557 225.467 96.1299C225.186 95.7041 224.77 95.4912 224.219 95.4912ZM224.219 94.5771C225.129 94.5771 225.824 94.8721 226.305 95.4619C226.789 96.0518 227.031 96.9053 227.031 98.0225C227.031 99.1436 226.791 99.999 226.311 100.589C225.83 101.175 225.133 101.468 224.219 101.468C223.309 101.468 222.613 101.175 222.133 100.589C221.652 99.999 221.412 99.1436 221.412 98.0225C221.412 96.9053 221.652 96.0518 222.133 95.4619C222.613 94.8721 223.309 94.5771 224.219 94.5771ZM228.691 94.7588H231.451V100.46H233.59V101.298H228.234V100.46H230.373V95.5967H228.691V94.7588ZM230.373 92.21H231.451V93.5693H230.373V92.21ZM239.229 97.2314V101.298H238.145V97.2314C238.145 96.6416 238.041 96.208 237.834 95.9307C237.627 95.6533 237.303 95.5146 236.861 95.5146C236.357 95.5146 235.969 95.6943 235.695 96.0537C235.426 96.4092 235.291 96.9209 235.291 97.5889V101.298H234.213V94.7354H235.291V95.7197C235.482 95.3447 235.742 95.0615 236.07 94.8701C236.398 94.6748 236.787 94.5771 237.236 94.5771C237.904 94.5771 238.402 94.7979 238.73 95.2393C239.062 95.6768 239.229 96.3408 239.229 97.2314ZM244.311 91.6064C243.791 92.4971 243.402 93.3857 243.145 94.2725C242.891 95.1553 242.764 96.0459 242.764 96.9443C242.764 97.8389 242.891 98.7295 243.145 99.6162C243.402 100.503 243.791 101.396 244.311 102.294H243.373C242.783 101.364 242.344 100.46 242.055 99.5811C241.766 98.6982 241.621 97.8193 241.621 96.9443C241.621 96.0732 241.766 95.1963 242.055 94.3135C242.344 93.4307 242.783 92.5283 243.373 91.6064H244.311ZM252.299 96.0889C252.068 95.9092 251.834 95.7783 251.596 95.6963C251.357 95.6143 251.096 95.5732 250.811 95.5732C250.139 95.5732 249.625 95.7842 249.27 96.2061C248.914 96.6279 248.736 97.2373 248.736 98.0342V101.298H247.652V94.7354H248.736V96.0186C248.916 95.5537 249.191 95.1982 249.562 94.9521C249.938 94.7021 250.381 94.5771 250.893 94.5771C251.158 94.5771 251.406 94.6104 251.637 94.6768C251.867 94.7432 252.088 94.8467 252.299 94.9873V96.0889ZM255.371 95.4912C254.824 95.4912 254.41 95.7041 254.129 96.1299C253.848 96.5557 253.707 97.1865 253.707 98.0225C253.707 98.8545 253.848 99.4854 254.129 99.915C254.41 100.341 254.824 100.554 255.371 100.554C255.922 100.554 256.338 100.341 256.619 99.915C256.9 99.4854 257.041 98.8545 257.041 98.0225C257.041 97.1865 256.9 96.5557 256.619 96.1299C256.338 95.7041 255.922 95.4912 255.371 95.4912ZM255.371 94.5771C256.281 94.5771 256.977 94.8721 257.457 95.4619C257.941 96.0518 258.184 96.9053 258.184 98.0225C258.184 99.1436 257.943 99.999 257.463 100.589C256.982 101.175 256.285 101.468 255.371 101.468C254.461 101.468 253.766 101.175 253.285 100.589C252.805 99.999 252.564 99.1436 252.564 98.0225C252.564 96.9053 252.805 96.0518 253.285 95.4619C253.766 94.8721 254.461 94.5771 255.371 94.5771ZM257.992 94.7354H259.059L260.201 100.038L261.139 96.6514H262.059L263.008 100.038L264.15 94.7354H265.217L263.682 101.298H262.65L261.602 97.7002L260.559 101.298H259.527L257.992 94.7354ZM266.262 91.6064H267.199C267.789 92.5283 268.229 93.4307 268.518 94.3135C268.807 95.1963 268.951 96.0732 268.951 96.9443C268.951 97.8232 268.807 98.7041 268.518 99.5869C268.229 100.47 267.789 101.372 267.199 102.294H266.262C266.781 101.388 267.168 100.491 267.422 99.6045C267.68 98.7178 267.809 97.8311 267.809 96.9443C267.809 96.0537 267.68 95.165 267.422 94.2783C267.168 93.3916 266.781 92.501 266.262 91.6064ZM272.492 91.6064H273.43C274.02 92.5283 274.459 93.4307 274.748 94.3135C275.037 95.1963 275.182 96.0732 275.182 96.9443C275.182 97.8232 275.037 98.7041 274.748 99.5869C274.459 100.47 274.02 101.372 273.43 102.294H272.492C273.012 101.388 273.398 100.491 273.652 99.6045C273.91 98.7178 274.039 97.8311 274.039 96.9443C274.039 96.0537 273.91 95.165 273.652 94.2783C273.398 93.3916 273.012 92.501 272.492 91.6064Z" fill="white"/>
<path d="M158.291 28.9639C158.002 29.1318 157.703 29.2568 157.395 29.3389C157.09 29.4248 156.777 29.4678 156.457 29.4678C155.441 29.4678 154.646 29.1631 154.072 28.5537C153.502 27.9443 153.217 27.1006 153.217 26.0225C153.217 24.9443 153.502 24.1006 154.072 23.4912C154.646 22.8818 155.441 22.5771 156.457 22.5771C156.773 22.5771 157.082 22.6182 157.383 22.7002C157.684 22.7822 157.986 22.9092 158.291 23.0811V24.2119C158.006 23.958 157.719 23.7744 157.43 23.6611C157.145 23.5479 156.82 23.4912 156.457 23.4912C155.781 23.4912 155.262 23.71 154.898 24.1475C154.535 24.585 154.354 25.21 154.354 26.0225C154.354 26.8311 154.535 27.4561 154.898 27.8975C155.266 28.335 155.785 28.5537 156.457 28.5537C156.832 28.5537 157.168 28.4971 157.465 28.3838C157.762 28.2666 158.037 28.0869 158.291 27.8447V28.9639ZM164.006 22.9639V24.0186C163.697 23.8389 163.387 23.7041 163.074 23.6143C162.762 23.5244 162.443 23.4795 162.119 23.4795C161.631 23.4795 161.266 23.5596 161.023 23.7197C160.785 23.876 160.666 24.1162 160.666 24.4404C160.666 24.7334 160.756 24.9521 160.936 25.0967C161.115 25.2412 161.562 25.3818 162.277 25.5186L162.711 25.6006C163.246 25.7021 163.65 25.9053 163.924 26.21C164.201 26.5146 164.34 26.9111 164.34 27.3994C164.34 28.0479 164.109 28.5557 163.648 28.9229C163.188 29.2861 162.547 29.4678 161.727 29.4678C161.402 29.4678 161.062 29.4326 160.707 29.3623C160.352 29.2959 159.967 29.1943 159.553 29.0576V27.9443C159.955 28.1514 160.34 28.3076 160.707 28.4131C161.074 28.5146 161.422 28.5654 161.75 28.5654C162.227 28.5654 162.596 28.4697 162.857 28.2783C163.119 28.083 163.25 27.8115 163.25 27.4639C163.25 26.9639 162.771 26.6182 161.814 26.4268L161.768 26.415L161.363 26.333C160.742 26.2119 160.289 26.0088 160.004 25.7236C159.719 25.4346 159.576 25.042 159.576 24.5459C159.576 23.917 159.789 23.4326 160.215 23.0928C160.641 22.749 161.248 22.5771 162.037 22.5771C162.389 22.5771 162.727 22.6104 163.051 22.6768C163.375 22.7393 163.693 22.835 164.006 22.9639ZM165.121 22.7354H166.24L168.145 28.2432L170.055 22.7354H171.174L168.842 29.2979H167.453L165.121 22.7354ZM174.955 41.6318H173.479V40.4189L174.627 38.1807H175.529L174.955 40.4189V41.6318ZM180.957 41.4033C181.09 41.1221 181.258 40.915 181.461 40.7822C181.668 40.6455 181.916 40.5771 182.205 40.5771C182.732 40.5771 183.104 40.7822 183.318 41.1924C183.537 41.5986 183.646 42.3662 183.646 43.4951V47.2979H182.662V43.542C182.662 42.6162 182.609 42.042 182.504 41.8193C182.402 41.5928 182.215 41.4795 181.941 41.4795C181.629 41.4795 181.414 41.6006 181.297 41.8428C181.184 42.0811 181.127 42.6475 181.127 43.542V47.2979H180.143V43.542C180.143 42.6045 180.086 42.0264 179.973 41.8076C179.863 41.5889 179.664 41.4795 179.375 41.4795C179.09 41.4795 178.891 41.6006 178.777 41.8428C178.668 42.0811 178.613 42.6475 178.613 43.542V47.2979H177.635V40.7354H178.613V41.2979C178.742 41.0635 178.902 40.8857 179.094 40.7646C179.289 40.6396 179.51 40.5771 179.756 40.5771C180.053 40.5771 180.299 40.6455 180.494 40.7822C180.693 40.9189 180.848 41.126 180.957 41.4033ZM188.254 45.1885C188.074 45.6455 187.846 46.2471 187.568 46.9932C187.182 48.0244 186.922 48.6533 186.789 48.8799C186.609 49.1846 186.385 49.4131 186.115 49.5654C185.846 49.7178 185.531 49.7939 185.172 49.7939H184.305V48.8916H184.943C185.26 48.8916 185.508 48.7998 185.688 48.6162C185.867 48.4326 186.096 47.958 186.373 47.1924L183.836 40.7354H184.979L186.924 45.8682L188.84 40.7354H189.982L188.254 45.1885ZM196.629 48.4111V49.4072H189.457V48.4111H196.629ZM201.916 38.1807V39.0771H200.691C200.305 39.0771 200.035 39.1572 199.883 39.3174C199.734 39.4736 199.66 39.7529 199.66 40.1553V40.7354H201.916V41.5732H199.66V47.2979H198.582V41.5732H196.83V40.7354H198.582V40.2783C198.582 39.5596 198.746 39.0303 199.074 38.6904C199.406 38.3506 199.922 38.1807 200.621 38.1807H201.916ZM203.77 40.7588H206.529V46.46H208.668V47.2979H203.312V46.46H205.451V41.5967H203.77V40.7588ZM205.451 38.21H206.529V39.5693H205.451V38.21ZM212.361 44.9248C212.361 45.4092 212.449 45.7744 212.625 46.0205C212.805 46.2666 213.068 46.3896 213.416 46.3896H214.676V47.2979H213.311C212.666 47.2979 212.166 47.0928 211.811 46.6826C211.459 46.2686 211.283 45.6826 211.283 44.9248V38.9893H209.555V38.1455H212.361V44.9248ZM220.941 43.4775V44.0049H216.271V44.04C216.24 44.9346 216.41 45.5771 216.781 45.9678C217.156 46.3584 217.684 46.5537 218.363 46.5537C218.707 46.5537 219.066 46.499 219.441 46.3896C219.816 46.2803 220.217 46.1143 220.643 45.8916V46.9639C220.232 47.1318 219.836 47.2568 219.453 47.3389C219.074 47.4248 218.707 47.4678 218.352 47.4678C217.332 47.4678 216.535 47.1631 215.961 46.5537C215.387 45.9404 215.1 45.0967 215.1 44.0225C215.1 42.9756 215.381 42.1396 215.943 41.5146C216.506 40.8896 217.256 40.5771 218.193 40.5771C219.029 40.5771 219.688 40.8604 220.168 41.4268C220.652 41.9932 220.91 42.6768 220.941 43.4775ZM219.863 43.1611C219.816 42.708 219.65 42.3174 219.365 41.9893C219.084 41.6572 218.678 41.4912 218.146 41.4912C217.627 41.4912 217.199 41.6631 216.863 42.0068C216.527 42.3506 216.344 42.7373 216.312 43.167L219.863 43.1611ZM222.889 44.9307H224.951V47.2979H222.889V44.9307ZM233.057 46.9639C232.768 47.1318 232.469 47.2568 232.16 47.3389C231.855 47.4248 231.543 47.4678 231.223 47.4678C230.207 47.4678 229.412 47.1631 228.838 46.5537C228.268 45.9443 227.982 45.1006 227.982 44.0225C227.982 42.9443 228.268 42.1006 228.838 41.4912C229.412 40.8818 230.207 40.5771 231.223 40.5771C231.539 40.5771 231.848 40.6182 232.148 40.7002C232.449 40.7822 232.752 40.9092 233.057 41.0811V42.2119C232.771 41.958 232.484 41.7744 232.195 41.6611C231.91 41.5479 231.586 41.4912 231.223 41.4912C230.547 41.4912 230.027 41.71 229.664 42.1475C229.301 42.585 229.119 43.21 229.119 44.0225C229.119 44.8311 229.301 45.4561 229.664 45.8975C230.031 46.335 230.551 46.5537 231.223 46.5537C231.598 46.5537 231.934 46.4971 232.23 46.3838C232.527 46.2666 232.803 46.0869 233.057 45.8447V46.9639ZM233.656 40.7354H234.775L236.68 46.2432L238.59 40.7354H239.709L237.377 47.2979H235.988L233.656 40.7354ZM245.002 40.9639V42.0186C244.693 41.8389 244.383 41.7041 244.07 41.6143C243.758 41.5244 243.439 41.4795 243.115 41.4795C242.627 41.4795 242.262 41.5596 242.02 41.7197C241.781 41.876 241.662 42.1162 241.662 42.4404C241.662 42.7334 241.752 42.9521 241.932 43.0967C242.111 43.2412 242.559 43.3818 243.273 43.5186L243.707 43.6006C244.242 43.7021 244.646 43.9053 244.92 44.21C245.197 44.5146 245.336 44.9111 245.336 45.3994C245.336 46.0479 245.105 46.5557 244.645 46.9229C244.184 47.2861 243.543 47.4678 242.723 47.4678C242.398 47.4678 242.059 47.4326 241.703 47.3623C241.348 47.2959 240.963 47.1943 240.549 47.0576V45.9443C240.951 46.1514 241.336 46.3076 241.703 46.4131C242.07 46.5146 242.418 46.5654 242.746 46.5654C243.223 46.5654 243.592 46.4697 243.854 46.2783C244.115 46.083 244.246 45.8115 244.246 45.4639C244.246 44.9639 243.768 44.6182 242.811 44.4268L242.764 44.415L242.359 44.333C241.738 44.2119 241.285 44.0088 241 43.7236C240.715 43.4346 240.572 43.042 240.572 42.5459C240.572 41.917 240.785 41.4326 241.211 41.0928C241.637 40.749 242.244 40.5771 243.033 40.5771C243.385 40.5771 243.723 40.6104 244.047 40.6768C244.371 40.7393 244.689 40.835 245.002 40.9639ZM248.818 38.1807H250.295V39.3877L249.141 41.6318H248.244L248.818 39.3877V38.1807Z" fill="#23A9F2"/>
</g>
<g filter="url(#filter1_d_1508_21499)">
<rect x="271" y="116.298" width="161" height="36" rx="4" fill="#1F2228"/>
<path d="M271 120.298C271 118.089 272.791 116.298 275 116.298V152.298C272.791 152.298 271 150.507 271 148.298V120.298Z" fill="#00C543"/>
<path d="M275 116.298H428C430.209 116.298 432 118.089 432 120.298V149.298C432 151.507 430.209 153.298 428 153.298H275V116.298Z" fill="#383838"/>
<path d="M290.287 138.987C289.986 139.147 289.678 139.267 289.361 139.345C289.045 139.427 288.709 139.468 288.354 139.468C287.232 139.468 286.361 139.071 285.74 138.278C285.123 137.485 284.814 136.37 284.814 134.933C284.814 133.503 285.125 132.39 285.746 131.593C286.371 130.792 287.24 130.392 288.354 130.392C288.709 130.392 289.045 130.433 289.361 130.515C289.678 130.593 289.986 130.712 290.287 130.872V132.085C289.998 131.847 289.688 131.665 289.355 131.54C289.023 131.415 288.689 131.353 288.354 131.353C287.584 131.353 287.008 131.649 286.625 132.243C286.242 132.837 286.051 133.733 286.051 134.933C286.051 136.128 286.242 137.022 286.625 137.616C287.008 138.21 287.584 138.507 288.354 138.507C288.697 138.507 289.033 138.444 289.361 138.319C289.693 138.194 290.002 138.013 290.287 137.774V138.987ZM293.84 133.491C293.293 133.491 292.879 133.704 292.598 134.13C292.316 134.556 292.176 135.187 292.176 136.022C292.176 136.854 292.316 137.485 292.598 137.915C292.879 138.341 293.293 138.554 293.84 138.554C294.391 138.554 294.807 138.341 295.088 137.915C295.369 137.485 295.51 136.854 295.51 136.022C295.51 135.187 295.369 134.556 295.088 134.13C294.807 133.704 294.391 133.491 293.84 133.491ZM293.84 132.577C294.75 132.577 295.445 132.872 295.926 133.462C296.41 134.052 296.652 134.905 296.652 136.022C296.652 137.144 296.412 137.999 295.932 138.589C295.451 139.175 294.754 139.468 293.84 139.468C292.93 139.468 292.234 139.175 291.754 138.589C291.273 137.999 291.033 137.144 291.033 136.022C291.033 134.905 291.273 134.052 291.754 133.462C292.234 132.872 292.93 132.577 293.84 132.577ZM301.488 133.573V130.181H302.566V139.298H301.488V138.472C301.309 138.796 301.068 139.044 300.768 139.216C300.471 139.384 300.127 139.468 299.736 139.468C298.943 139.468 298.318 139.161 297.861 138.548C297.408 137.931 297.182 137.081 297.182 135.999C297.182 134.933 297.41 134.097 297.867 133.491C298.324 132.882 298.947 132.577 299.736 132.577C300.131 132.577 300.479 132.663 300.779 132.835C301.08 133.003 301.316 133.249 301.488 133.573ZM298.318 136.022C298.318 136.858 298.451 137.489 298.717 137.915C298.982 138.341 299.375 138.554 299.895 138.554C300.414 138.554 300.809 138.339 301.078 137.909C301.352 137.479 301.488 136.851 301.488 136.022C301.488 135.19 301.352 134.562 301.078 134.136C300.809 133.706 300.414 133.491 299.895 133.491C299.375 133.491 298.982 133.704 298.717 134.13C298.451 134.556 298.318 135.187 298.318 136.022ZM309.254 135.478V136.005H304.584V136.04C304.553 136.935 304.723 137.577 305.094 137.968C305.469 138.358 305.996 138.554 306.676 138.554C307.02 138.554 307.379 138.499 307.754 138.39C308.129 138.28 308.529 138.114 308.955 137.892V138.964C308.545 139.132 308.148 139.257 307.766 139.339C307.387 139.425 307.02 139.468 306.664 139.468C305.645 139.468 304.848 139.163 304.273 138.554C303.699 137.94 303.412 137.097 303.412 136.022C303.412 134.976 303.693 134.14 304.256 133.515C304.818 132.89 305.568 132.577 306.506 132.577C307.342 132.577 308 132.86 308.48 133.427C308.965 133.993 309.223 134.677 309.254 135.478ZM308.176 135.161C308.129 134.708 307.963 134.317 307.678 133.989C307.396 133.657 306.99 133.491 306.459 133.491C305.939 133.491 305.512 133.663 305.176 134.007C304.84 134.351 304.656 134.737 304.625 135.167L308.176 135.161ZM321.082 130.849V132.05C320.723 131.819 320.361 131.646 319.998 131.528C319.639 131.411 319.275 131.353 318.908 131.353C318.35 131.353 317.908 131.483 317.584 131.745C317.26 132.003 317.098 132.353 317.098 132.794C317.098 133.181 317.203 133.476 317.414 133.679C317.629 133.882 318.027 134.052 318.609 134.188L319.23 134.329C320.051 134.521 320.648 134.821 321.023 135.231C321.398 135.642 321.586 136.2 321.586 136.907C321.586 137.739 321.328 138.374 320.812 138.812C320.297 139.249 319.547 139.468 318.562 139.468C318.152 139.468 317.74 139.423 317.326 139.333C316.912 139.247 316.496 139.116 316.078 138.94V137.681C316.527 137.966 316.951 138.175 317.35 138.308C317.752 138.44 318.156 138.507 318.562 138.507C319.16 138.507 319.625 138.374 319.957 138.108C320.289 137.839 320.455 137.464 320.455 136.983C320.455 136.546 320.34 136.212 320.109 135.981C319.883 135.751 319.486 135.573 318.92 135.448L318.287 135.302C317.475 135.118 316.885 134.841 316.518 134.47C316.15 134.099 315.967 133.601 315.967 132.976C315.967 132.194 316.229 131.569 316.752 131.101C317.279 130.628 317.979 130.392 318.85 130.392C319.186 130.392 319.539 130.431 319.91 130.509C320.281 130.583 320.672 130.696 321.082 130.849ZM327.541 135.231V139.298H326.457V135.231C326.457 134.642 326.354 134.208 326.146 133.931C325.939 133.653 325.615 133.515 325.174 133.515C324.67 133.515 324.281 133.694 324.008 134.054C323.738 134.409 323.604 134.921 323.604 135.589V139.298H322.525V132.735H323.604V133.72C323.795 133.345 324.055 133.062 324.383 132.87C324.711 132.675 325.1 132.577 325.549 132.577C326.217 132.577 326.715 132.798 327.043 133.239C327.375 133.677 327.541 134.341 327.541 135.231ZM329.465 132.759H332.225V138.46H334.363V139.298H329.008V138.46H331.146V133.597H329.465V132.759ZM331.146 130.21H332.225V131.569H331.146V130.21ZM336.041 138.472V141.794H334.957V132.735H336.041V133.573C336.221 133.249 336.459 133.003 336.756 132.835C337.057 132.663 337.402 132.577 337.793 132.577C338.586 132.577 339.207 132.884 339.656 133.497C340.109 134.11 340.336 134.96 340.336 136.046C340.336 137.112 340.109 137.95 339.656 138.56C339.203 139.165 338.582 139.468 337.793 139.468C337.395 139.468 337.045 139.384 336.744 139.216C336.447 139.044 336.213 138.796 336.041 138.472ZM339.205 136.022C339.205 135.187 339.072 134.556 338.807 134.13C338.545 133.704 338.154 133.491 337.635 133.491C337.111 133.491 336.715 133.706 336.445 134.136C336.176 134.562 336.041 135.19 336.041 136.022C336.041 136.851 336.176 137.479 336.445 137.909C336.715 138.339 337.111 138.554 337.635 138.554C338.154 138.554 338.545 138.341 338.807 137.915C339.072 137.489 339.205 136.858 339.205 136.022ZM342.271 138.472V141.794H341.188V132.735H342.271V133.573C342.451 133.249 342.689 133.003 342.986 132.835C343.287 132.663 343.633 132.577 344.023 132.577C344.816 132.577 345.438 132.884 345.887 133.497C346.34 134.11 346.566 134.96 346.566 136.046C346.566 137.112 346.34 137.95 345.887 138.56C345.434 139.165 344.812 139.468 344.023 139.468C343.625 139.468 343.275 139.384 342.975 139.216C342.678 139.044 342.443 138.796 342.271 138.472ZM345.436 136.022C345.436 135.187 345.303 134.556 345.037 134.13C344.775 133.704 344.385 133.491 343.865 133.491C343.342 133.491 342.945 133.706 342.676 134.136C342.406 134.562 342.271 135.19 342.271 136.022C342.271 136.851 342.406 137.479 342.676 137.909C342.945 138.339 343.342 138.554 343.865 138.554C344.385 138.554 344.775 138.341 345.037 137.915C345.303 137.489 345.436 136.858 345.436 136.022ZM352.867 135.478V136.005H348.197V136.04C348.166 136.935 348.336 137.577 348.707 137.968C349.082 138.358 349.609 138.554 350.289 138.554C350.633 138.554 350.992 138.499 351.367 138.39C351.742 138.28 352.143 138.114 352.568 137.892V138.964C352.158 139.132 351.762 139.257 351.379 139.339C351 139.425 350.633 139.468 350.277 139.468C349.258 139.468 348.461 139.163 347.887 138.554C347.312 137.94 347.025 137.097 347.025 136.022C347.025 134.976 347.307 134.14 347.869 133.515C348.432 132.89 349.182 132.577 350.119 132.577C350.955 132.577 351.613 132.86 352.094 133.427C352.578 133.993 352.836 134.677 352.867 135.478ZM351.789 135.161C351.742 134.708 351.576 134.317 351.291 133.989C351.01 133.657 350.604 133.491 350.072 133.491C349.553 133.491 349.125 133.663 348.789 134.007C348.453 134.351 348.27 134.737 348.238 135.167L351.789 135.161ZM356.133 130.872V132.735H358.582V133.573H356.133V137.136C356.133 137.62 356.225 137.958 356.408 138.149C356.592 138.341 356.912 138.437 357.369 138.437H358.582V139.298H357.264C356.455 139.298 355.885 139.136 355.553 138.812C355.221 138.487 355.055 137.929 355.055 137.136V133.573H353.303V132.735H355.055V130.872H356.133ZM366.848 132.759H369.607V138.46H371.746V139.298H366.391V138.46H368.529V133.597H366.848V132.759ZM368.529 130.21H369.607V131.569H368.529V130.21ZM375.188 133.403C375.32 133.122 375.488 132.915 375.691 132.782C375.898 132.646 376.146 132.577 376.436 132.577C376.963 132.577 377.334 132.782 377.549 133.192C377.768 133.599 377.877 134.366 377.877 135.495V139.298H376.893V135.542C376.893 134.616 376.84 134.042 376.734 133.819C376.633 133.593 376.445 133.479 376.172 133.479C375.859 133.479 375.645 133.601 375.527 133.843C375.414 134.081 375.357 134.647 375.357 135.542V139.298H374.373V135.542C374.373 134.604 374.316 134.026 374.203 133.808C374.094 133.589 373.895 133.479 373.605 133.479C373.32 133.479 373.121 133.601 373.008 133.843C372.898 134.081 372.844 134.647 372.844 135.542V139.298H371.865V132.735H372.844V133.298C372.973 133.063 373.133 132.886 373.324 132.765C373.52 132.64 373.74 132.577 373.986 132.577C374.283 132.577 374.529 132.646 374.725 132.782C374.924 132.919 375.078 133.126 375.188 133.403ZM379.654 138.472V141.794H378.57V132.735H379.654V133.573C379.834 133.249 380.072 133.003 380.369 132.835C380.67 132.663 381.016 132.577 381.406 132.577C382.199 132.577 382.82 132.884 383.27 133.497C383.723 134.11 383.949 134.96 383.949 136.046C383.949 137.112 383.723 137.95 383.27 138.56C382.816 139.165 382.195 139.468 381.406 139.468C381.008 139.468 380.658 139.384 380.357 139.216C380.061 139.044 379.826 138.796 379.654 138.472ZM382.818 136.022C382.818 135.187 382.686 134.556 382.42 134.13C382.158 133.704 381.768 133.491 381.248 133.491C380.725 133.491 380.328 133.706 380.059 134.136C379.789 134.562 379.654 135.19 379.654 136.022C379.654 136.851 379.789 137.479 380.059 137.909C380.328 138.339 380.725 138.554 381.248 138.554C381.768 138.554 382.158 138.341 382.42 137.915C382.686 137.489 382.818 136.858 382.818 136.022ZM387.297 133.491C386.75 133.491 386.336 133.704 386.055 134.13C385.773 134.556 385.633 135.187 385.633 136.022C385.633 136.854 385.773 137.485 386.055 137.915C386.336 138.341 386.75 138.554 387.297 138.554C387.848 138.554 388.264 138.341 388.545 137.915C388.826 137.485 388.967 136.854 388.967 136.022C388.967 135.187 388.826 134.556 388.545 134.13C388.264 133.704 387.848 133.491 387.297 133.491ZM387.297 132.577C388.207 132.577 388.902 132.872 389.383 133.462C389.867 134.052 390.109 134.905 390.109 136.022C390.109 137.144 389.869 137.999 389.389 138.589C388.908 139.175 388.211 139.468 387.297 139.468C386.387 139.468 385.691 139.175 385.211 138.589C384.73 137.999 384.49 137.144 384.49 136.022C384.49 134.905 384.73 134.052 385.211 133.462C385.691 132.872 386.387 132.577 387.297 132.577ZM396.686 134.089C396.455 133.909 396.221 133.778 395.982 133.696C395.744 133.614 395.482 133.573 395.197 133.573C394.525 133.573 394.012 133.784 393.656 134.206C393.301 134.628 393.123 135.237 393.123 136.034V139.298H392.039V132.735H393.123V134.019C393.303 133.554 393.578 133.198 393.949 132.952C394.324 132.702 394.768 132.577 395.279 132.577C395.545 132.577 395.793 132.61 396.023 132.677C396.254 132.743 396.475 132.847 396.686 132.987V134.089ZM399.746 130.872V132.735H402.195V133.573H399.746V137.136C399.746 137.62 399.838 137.958 400.021 138.149C400.205 138.341 400.525 138.437 400.982 138.437H402.195V139.298H400.877C400.068 139.298 399.498 139.136 399.166 138.812C398.834 138.487 398.668 137.929 398.668 137.136V133.573H396.916V132.735H398.668V130.872H399.746ZM408.941 135.478V136.005H404.271V136.04C404.24 136.935 404.41 137.577 404.781 137.968C405.156 138.358 405.684 138.554 406.363 138.554C406.707 138.554 407.066 138.499 407.441 138.39C407.816 138.28 408.217 138.114 408.643 137.892V138.964C408.232 139.132 407.836 139.257 407.453 139.339C407.074 139.425 406.707 139.468 406.352 139.468C405.332 139.468 404.535 139.163 403.961 138.554C403.387 137.94 403.1 137.097 403.1 136.022C403.1 134.976 403.381 134.14 403.943 133.515C404.506 132.89 405.256 132.577 406.193 132.577C407.029 132.577 407.688 132.86 408.168 133.427C408.652 133.993 408.91 134.677 408.941 135.478ZM407.863 135.161C407.816 134.708 407.65 134.317 407.365 133.989C407.084 133.657 406.678 133.491 406.146 133.491C405.627 133.491 405.199 133.663 404.863 134.007C404.527 134.351 404.344 134.737 404.312 135.167L407.863 135.161ZM413.637 133.573V130.181H414.715V139.298H413.637V138.472C413.457 138.796 413.217 139.044 412.916 139.216C412.619 139.384 412.275 139.468 411.885 139.468C411.092 139.468 410.467 139.161 410.01 138.548C409.557 137.931 409.33 137.081 409.33 135.999C409.33 134.933 409.559 134.097 410.016 133.491C410.473 132.882 411.096 132.577 411.885 132.577C412.279 132.577 412.627 132.663 412.928 132.835C413.229 133.003 413.465 133.249 413.637 133.573ZM410.467 136.022C410.467 136.858 410.6 137.489 410.865 137.915C411.131 138.341 411.523 138.554 412.043 138.554C412.562 138.554 412.957 138.339 413.227 137.909C413.5 137.479 413.637 136.851 413.637 136.022C413.637 135.19 413.5 134.562 413.227 134.136C412.957 133.706 412.562 133.491 412.043 133.491C411.523 133.491 411.131 133.704 410.865 134.13C410.6 134.556 410.467 135.187 410.467 136.022ZM418.039 130.55H419.229V134.388L419.105 136.187H418.162L418.039 134.388V130.55ZM417.863 137.81H419.404V139.298H417.863V137.81Z" fill="white"/>
</g>
<defs>
<filter id="filter0_dddddd_1508_21499" x="0" y="0.297852" width="520" height="340" filterUnits="userSpaceOnUse" color-interpolation-filters="sRGB">
<feFlood flood-opacity="0" result="BackgroundImageFix"/>
<feColorMatrix in="SourceAlpha" type="matrix" values="0 0 0 0 0 0 0 0 0 0 0 0 0 0 0 0 0 0 127 0" result="hardAlpha"/>
<feOffset dy="2.76726"/>
<feGaussianBlur stdDeviation="1.1069"/>
<feColorMatrix type="matrix" values="0 0 0 0 0 0 0 0 0 0 0 0 0 0 0 0 0 0 0.0196802 0"/>
<feBlend mode="normal" in2="BackgroundImageFix" result="effect1_dropShadow_1508_21499"/>
<feColorMatrix in="SourceAlpha" type="matrix" values="0 0 0 0 0 0 0 0 0 0 0 0 0 0 0 0 0 0 127 0" result="hardAlpha"/>
<feOffset dy="6.6501"/>
<feGaussianBlur stdDeviation="2.66004"/>
<feColorMatrix type="matrix" values="0 0 0 0 0 0 0 0 0 0 0 0 0 0 0 0 0 0 0.0282725 0"/>
<feBlend mode="normal" in2="effect1_dropShadow_1508_21499" result="effect2_dropShadow_1508_21499"/>
<feColorMatrix in="SourceAlpha" type="matrix" values="0 0 0 0 0 0 0 0 0 0 0 0 0 0 0 0 0 0 127 0" result="hardAlpha"/>
<feOffset dy="12.5216"/>
<feGaussianBlur stdDeviation="5.00862"/>
<feColorMatrix type="matrix" values="0 0 0 0 0 0 0 0 0 0 0 0 0 0 0 0 0 0 0.035 0"/>
<feBlend mode="normal" in2="effect2_dropShadow_1508_21499" result="effect3_dropShadow_1508_21499"/>
<feColorMatrix in="SourceAlpha" type="matrix" values="0 0 0 0 0 0 0 0 0 0 0 0 0 0 0 0 0 0 127 0" result="hardAlpha"/>
<feOffset dy="22.3363"/>
<feGaussianBlur stdDeviation="8.93452"/>
<feColorMatrix type="matrix" values="0 0 0 0 0 0 0 0 0 0 0 0 0 0 0 0 0 0 0.0417275 0"/>
<feBlend mode="normal" in2="effect3_dropShadow_1508_21499" result="effect4_dropShadow_1508_21499"/>
<feColorMatrix in="SourceAlpha" type="matrix" values="0 0 0 0 0 0 0 0 0 0 0 0 0 0 0 0 0 0 127 0" result="hardAlpha"/>
<feOffset dy="41.7776"/>
<feGaussianBlur stdDeviation="16.711"/>
<feColorMatrix type="matrix" values="0 0 0 0 0 0 0 0 0 0 0 0 0 0 0 0 0 0 0.0503198 0"/>
<feBlend mode="normal" in2="effect4_dropShadow_1508_21499" result="effect5_dropShadow_1508_21499"/>
<feColorMatrix in="SourceAlpha" type="matrix" values="0 0 0 0 0 0 0 0 0 0 0 0 0 0 0 0 0 0 127 0" result="hardAlpha"/>
<feOffset dy="100"/>
<feGaussianBlur stdDeviation="40"/>
<feColorMatrix type="matrix" values="0 0 0 0 0 0 0 0 0 0 0 0 0 0 0 0 0 0 0.07 0"/>
<feBlend mode="normal" in2="effect5_dropShadow_1508_21499" result="effect6_dropShadow_1508_21499"/>
<feBlend mode="normal" in="SourceGraphic" in2="effect6_dropShadow_1508_21499" result="shape"/>
</filter>
<filter id="filter1_d_1508_21499" x="256" y="101.298" width="193" height="69" filterUnits="userSpaceOnUse" color-interpolation-filters="sRGB">
<feFlood flood-opacity="0" result="BackgroundImageFix"/>
<feColorMatrix in="SourceAlpha" type="matrix" values="0 0 0 0 0 0 0 0 0 0 0 0 0 0 0 0 0 0 127 0" result="hardAlpha"/>
<feOffset dx="1" dy="1"/>
<feGaussianBlur stdDeviation="8"/>
<feColorMatrix type="matrix" values="0 0 0 0 0.101961 0 0 0 0 0.101961 0 0 0 0 0.101961 0 0 0 0.65 0"/>
<feBlend mode="normal" in2="BackgroundImageFix" result="effect1_dropShadow_1508_21499"/>
<feBlend mode="normal" in="SourceGraphic" in2="effect1_dropShadow_1508_21499" result="shape"/>
</filter>
</defs>
</svg>
