<svg width="369" height="171" viewBox="0 0 369 171" fill="none" xmlns="http://www.w3.org/2000/svg">
<rect y="0.98584" width="360" height="160" rx="8" fill="#282C34"/>
<path d="M17.582 28.9956H19.4219V22.3862L17.2188 23.4468V22.3101L19.4102 21.2671H20.5938V28.9956H22.4102V29.9858H17.582V28.9956ZM18.1855 46.9897H22.2051V47.9858H16.8906V46.9897C17.6211 46.2202 18.2598 45.5405 18.8066 44.9507C19.3535 44.3608 19.7305 43.9448 19.9375 43.7026C20.3281 43.2261 20.5918 42.8413 20.7285 42.5483C20.8652 42.2515 20.9336 41.9487 20.9336 41.6401C20.9336 41.1519 20.7891 40.769 20.5 40.4917C20.2148 40.2144 19.8223 40.0757 19.3223 40.0757C18.9668 40.0757 18.5938 40.1401 18.2031 40.269C17.8125 40.3979 17.3984 40.5933 16.9609 40.855V39.6597C17.3633 39.4683 17.7578 39.3237 18.1445 39.2261C18.5352 39.1284 18.9199 39.0796 19.2988 39.0796C20.1543 39.0796 20.8418 39.3081 21.3613 39.7651C21.8848 40.2183 22.1465 40.814 22.1465 41.5522C22.1465 41.9272 22.0586 42.3022 21.8828 42.6772C21.7109 43.0522 21.4297 43.4663 21.0391 43.9194C20.8203 44.1733 20.502 44.5249 20.084 44.9741C19.6699 45.4233 19.0371 46.0952 18.1855 46.9897ZM20.5469 61.3042C21.1211 61.4565 21.5605 61.728 21.8652 62.1187C22.1699 62.5054 22.3223 62.9897 22.3223 63.5718C22.3223 64.3765 22.0508 65.0093 21.5078 65.4702C20.9688 65.9272 20.2207 66.1558 19.2637 66.1558C18.8613 66.1558 18.4512 66.1187 18.0332 66.0444C17.6152 65.9702 17.2051 65.8628 16.8027 65.7222V64.5444C17.2012 64.7515 17.5938 64.9058 17.9805 65.0073C18.3672 65.1089 18.752 65.1597 19.1348 65.1597C19.7832 65.1597 20.2812 65.0132 20.6289 64.7202C20.9766 64.4272 21.1504 64.0054 21.1504 63.4546C21.1504 62.9468 20.9766 62.5444 20.6289 62.2476C20.2812 61.9468 19.8105 61.7964 19.2168 61.7964H18.3145V60.8237H19.2168C19.7598 60.8237 20.1836 60.7046 20.4883 60.4663C20.793 60.228 20.9453 59.896 20.9453 59.4702C20.9453 59.021 20.8027 58.6772 20.5176 58.439C20.2363 58.1968 19.834 58.0757 19.3105 58.0757C18.9629 58.0757 18.6035 58.1147 18.2324 58.1929C17.8613 58.271 17.4727 58.3882 17.0664 58.5444V57.4546C17.5391 57.3296 17.959 57.2358 18.3262 57.1733C18.6973 57.1108 19.0254 57.0796 19.3105 57.0796C20.1621 57.0796 20.8418 57.2944 21.3496 57.7241C21.8613 58.1499 22.1172 58.7163 22.1172 59.4233C22.1172 59.9038 21.9824 60.3042 21.7129 60.6245C21.4473 60.9448 21.0586 61.1714 20.5469 61.3042ZM20.3066 76.3159L17.5469 80.939H20.3066V76.3159ZM20.1133 75.2378H21.4844V80.939H22.6504V81.8999H21.4844V83.9858H20.3066V81.8999H16.5977V80.7808L20.1133 75.2378ZM17.2129 93.2378H21.6426V94.2339H18.291V96.3843C18.459 96.3218 18.627 96.2769 18.7949 96.2495C18.9668 96.2183 19.1387 96.2026 19.3105 96.2026C20.2168 96.2026 20.9355 96.4702 21.4668 97.0054C21.998 97.5405 22.2637 98.2651 22.2637 99.1792C22.2637 100.101 21.9844 100.828 21.4258 101.359C20.8711 101.89 20.1113 102.156 19.1465 102.156C18.6816 102.156 18.2559 102.125 17.8691 102.062C17.4863 102 17.1426 101.906 16.8379 101.781V100.58C17.1973 100.775 17.5586 100.921 17.9219 101.019C18.2852 101.113 18.6562 101.16 19.0352 101.16C19.6875 101.16 20.1895 100.988 20.541 100.644C20.8965 100.3 21.0742 99.812 21.0742 99.1792C21.0742 98.5542 20.8906 98.0679 20.5234 97.7202C20.1602 97.3726 19.6523 97.1987 19 97.1987C18.6836 97.1987 18.375 97.2358 18.0742 97.3101C17.7734 97.3804 17.4863 97.4878 17.2129 97.6323V93.2378Z" fill="white" fill-opacity="0.4"/>
<path d="M30.3125 23.4468H33.0723V29.1479H35.2109V29.9858H29.8555V29.1479H31.9941V24.2847H30.3125V23.4468ZM31.9941 20.8979H33.0723V22.2573H31.9941V20.8979ZM38.6523 24.0913C38.7852 23.8101 38.9531 23.603 39.1562 23.4702C39.3633 23.3335 39.6113 23.2651 39.9004 23.2651C40.4277 23.2651 40.7988 23.4702 41.0137 23.8804C41.2324 24.2866 41.3418 25.0542 41.3418 26.1831V29.9858H40.3574V26.23C40.3574 25.3042 40.3047 24.73 40.1992 24.5073C40.0977 24.2808 39.9102 24.1675 39.6367 24.1675C39.3242 24.1675 39.1094 24.2886 38.9922 24.5308C38.8789 24.769 38.8223 25.3354 38.8223 26.23V29.9858H37.8379V26.23C37.8379 25.2925 37.7812 24.7144 37.668 24.4956C37.5586 24.2769 37.3594 24.1675 37.0703 24.1675C36.7852 24.1675 36.5859 24.2886 36.4727 24.5308C36.3633 24.769 36.3086 25.3354 36.3086 26.23V29.9858H35.3301V23.4233H36.3086V23.9858C36.4375 23.7515 36.5977 23.5737 36.7891 23.4526C36.9844 23.3276 37.2051 23.2651 37.4512 23.2651C37.748 23.2651 37.9941 23.3335 38.1895 23.4702C38.3887 23.6069 38.543 23.814 38.6523 24.0913ZM43.1191 29.1597V32.4819H42.0352V23.4233H43.1191V24.2612C43.2988 23.937 43.5371 23.6909 43.834 23.5229C44.1348 23.3511 44.4805 23.2651 44.8711 23.2651C45.6641 23.2651 46.2852 23.5718 46.7344 24.1851C47.1875 24.7983 47.4141 25.6479 47.4141 26.7339C47.4141 27.8003 47.1875 28.6382 46.7344 29.2476C46.2812 29.853 45.6602 30.1558 44.8711 30.1558C44.4727 30.1558 44.123 30.0718 43.8223 29.9038C43.5254 29.7319 43.291 29.4839 43.1191 29.1597ZM46.2832 26.7104C46.2832 25.8745 46.1504 25.2437 45.8848 24.8179C45.623 24.3921 45.2324 24.1792 44.7129 24.1792C44.1895 24.1792 43.793 24.394 43.5234 24.8237C43.2539 25.2495 43.1191 25.8784 43.1191 26.7104C43.1191 27.5386 43.2539 28.1675 43.5234 28.5972C43.793 29.0269 44.1895 29.2417 44.7129 29.2417C45.2324 29.2417 45.623 29.0288 45.8848 28.603C46.1504 28.1772 46.2832 27.5464 46.2832 26.7104ZM50.7617 24.1792C50.2148 24.1792 49.8008 24.3921 49.5195 24.8179C49.2383 25.2437 49.0977 25.8745 49.0977 26.7104C49.0977 27.5425 49.2383 28.1733 49.5195 28.603C49.8008 29.0288 50.2148 29.2417 50.7617 29.2417C51.3125 29.2417 51.7285 29.0288 52.0098 28.603C52.291 28.1733 52.4316 27.5425 52.4316 26.7104C52.4316 25.8745 52.291 25.2437 52.0098 24.8179C51.7285 24.3921 51.3125 24.1792 50.7617 24.1792ZM50.7617 23.2651C51.6719 23.2651 52.3672 23.5601 52.8477 24.1499C53.332 24.7397 53.5742 25.5933 53.5742 26.7104C53.5742 27.8315 53.334 28.687 52.8535 29.2769C52.373 29.8628 51.6758 30.1558 50.7617 30.1558C49.8516 30.1558 49.1562 29.8628 48.6758 29.2769C48.1953 28.687 47.9551 27.8315 47.9551 26.7104C47.9551 25.5933 48.1953 24.7397 48.6758 24.1499C49.1562 23.5601 49.8516 23.2651 50.7617 23.2651ZM60.1504 24.7769C59.9199 24.5972 59.6855 24.4663 59.4473 24.3843C59.209 24.3022 58.9473 24.2612 58.6621 24.2612C57.9902 24.2612 57.4766 24.4722 57.1211 24.894C56.7656 25.3159 56.5879 25.9253 56.5879 26.7222V29.9858H55.5039V23.4233H56.5879V24.7065C56.7676 24.2417 57.043 23.8862 57.4141 23.6401C57.7891 23.3901 58.2324 23.2651 58.7441 23.2651C59.0098 23.2651 59.2578 23.2983 59.4883 23.3647C59.7188 23.4312 59.9395 23.5347 60.1504 23.6753V24.7769ZM63.2109 21.5601V23.4233H65.6602V24.2612H63.2109V27.8237C63.2109 28.3081 63.3027 28.646 63.4863 28.8374C63.6699 29.0288 63.9902 29.1245 64.4473 29.1245H65.6602V29.9858H64.3418C63.5332 29.9858 62.9629 29.8237 62.6309 29.4995C62.2988 29.1753 62.1328 28.6167 62.1328 27.8237V24.2612H60.3809V23.4233H62.1328V21.5601H63.2109ZM28.4609 41.4233H29.5273L30.6699 46.7261L31.6074 43.3394H32.5273L33.4766 46.7261L34.6191 41.4233H35.6855L34.1504 47.9858H33.1191L32.0703 44.3882L31.0273 47.9858H29.9961L28.4609 41.4233ZM36.543 41.4468H39.3027V47.1479H41.4414V47.9858H36.0859V47.1479H38.2246V42.2847H36.543V41.4468ZM38.2246 38.8979H39.3027V40.2573H38.2246V38.8979ZM44.5195 39.5601V41.4233H46.9688V42.2612H44.5195V45.8237C44.5195 46.3081 44.6113 46.646 44.7949 46.8374C44.9785 47.0288 45.2988 47.1245 45.7559 47.1245H46.9688V47.9858H45.6504C44.8418 47.9858 44.2715 47.8237 43.9395 47.4995C43.6074 47.1753 43.4414 46.6167 43.4414 45.8237V42.2612H41.6895V41.4233H43.4414V39.5601H44.5195ZM53.3105 43.9194V47.9858H52.2266V43.9194C52.2266 43.3296 52.123 42.896 51.916 42.6187C51.709 42.3413 51.3848 42.2026 50.9434 42.2026C50.4395 42.2026 50.0508 42.3823 49.7773 42.7417C49.5078 43.0972 49.373 43.6089 49.373 44.2769V47.9858H48.2949V38.8687H49.373V42.4077C49.5645 42.0327 49.8242 41.7495 50.1523 41.5581C50.4805 41.3628 50.8691 41.2651 51.3184 41.2651C51.9863 41.2651 52.4844 41.4858 52.8125 41.9272C53.1445 42.3647 53.3105 43.0288 53.3105 43.9194ZM63.2227 42.1792C62.6758 42.1792 62.2617 42.3921 61.9805 42.8179C61.6992 43.2437 61.5586 43.8745 61.5586 44.7104C61.5586 45.5425 61.6992 46.1733 61.9805 46.603C62.2617 47.0288 62.6758 47.2417 63.2227 47.2417C63.7734 47.2417 64.1895 47.0288 64.4707 46.603C64.752 46.1733 64.8926 45.5425 64.8926 44.7104C64.8926 43.8745 64.752 43.2437 64.4707 42.8179C64.1895 42.3921 63.7734 42.1792 63.2227 42.1792ZM63.2227 41.2651C64.1328 41.2651 64.8281 41.5601 65.3086 42.1499C65.793 42.7397 66.0352 43.5933 66.0352 44.7104C66.0352 45.8315 65.7949 46.687 65.3145 47.2769C64.834 47.8628 64.1367 48.1558 63.2227 48.1558C62.3125 48.1558 61.6172 47.8628 61.1367 47.2769C60.6562 46.687 60.416 45.8315 60.416 44.7104C60.416 43.5933 60.6562 42.7397 61.1367 42.1499C61.6172 41.5601 62.3125 41.2651 63.2227 41.2651ZM68.041 47.1597V50.4819H66.957V41.4233H68.041V42.2612C68.2207 41.937 68.459 41.6909 68.7559 41.5229C69.0566 41.3511 69.4023 41.2651 69.793 41.2651C70.5859 41.2651 71.207 41.5718 71.6562 42.1851C72.1094 42.7983 72.3359 43.6479 72.3359 44.7339C72.3359 45.8003 72.1094 46.6382 71.6562 47.2476C71.2031 47.853 70.582 48.1558 69.793 48.1558C69.3945 48.1558 69.0449 48.0718 68.7441 47.9038C68.4473 47.7319 68.2129 47.4839 68.041 47.1597ZM71.2051 44.7104C71.2051 43.8745 71.0723 43.2437 70.8066 42.8179C70.5449 42.3921 70.1543 42.1792 69.6348 42.1792C69.1113 42.1792 68.7148 42.394 68.4453 42.8237C68.1758 43.2495 68.041 43.8784 68.041 44.7104C68.041 45.5386 68.1758 46.1675 68.4453 46.5972C68.7148 47.0269 69.1113 47.2417 69.6348 47.2417C70.1543 47.2417 70.5449 47.0288 70.8066 46.603C71.0723 46.1772 71.2051 45.5464 71.2051 44.7104ZM78.6367 44.1655V44.6929H73.9668V44.728C73.9355 45.6226 74.1055 46.2651 74.4766 46.6558C74.8516 47.0464 75.3789 47.2417 76.0586 47.2417C76.4023 47.2417 76.7617 47.187 77.1367 47.0776C77.5117 46.9683 77.9121 46.8022 78.3379 46.5796V47.6519C77.9277 47.8198 77.5312 47.9448 77.1484 48.0269C76.7695 48.1128 76.4023 48.1558 76.0469 48.1558C75.0273 48.1558 74.2305 47.8511 73.6562 47.2417C73.082 46.6284 72.7949 45.7847 72.7949 44.7104C72.7949 43.6636 73.0762 42.8276 73.6387 42.2026C74.2012 41.5776 74.9512 41.2651 75.8887 41.2651C76.7246 41.2651 77.3828 41.5483 77.8633 42.1147C78.3477 42.6812 78.6055 43.3647 78.6367 44.1655ZM77.5586 43.8491C77.5117 43.396 77.3457 43.0054 77.0605 42.6772C76.7793 42.3452 76.373 42.1792 75.8418 42.1792C75.3223 42.1792 74.8945 42.3511 74.5586 42.6948C74.2227 43.0386 74.0391 43.4253 74.0078 43.855L77.5586 43.8491ZM84.4629 43.9194V47.9858H83.3789V43.9194C83.3789 43.3296 83.2754 42.896 83.0684 42.6187C82.8613 42.3413 82.5371 42.2026 82.0957 42.2026C81.5918 42.2026 81.2031 42.3823 80.9297 42.7417C80.6602 43.0972 80.5254 43.6089 80.5254 44.2769V47.9858H79.4473V41.4233H80.5254V42.4077C80.7168 42.0327 80.9766 41.7495 81.3047 41.5581C81.6328 41.3628 82.0215 41.2651 82.4707 41.2651C83.1387 41.2651 83.6367 41.4858 83.9648 41.9272C84.2969 42.3647 84.4629 43.0288 84.4629 43.9194ZM188.324 44.9038C187.684 44.9038 187.236 44.9858 186.982 45.1499C186.729 45.314 186.602 45.5952 186.602 45.9937C186.602 46.2905 186.689 46.5269 186.865 46.7026C187.041 46.8784 187.279 46.9663 187.58 46.9663C188.033 46.9663 188.385 46.7964 188.635 46.4565C188.885 46.1128 189.01 45.6343 189.01 45.021V44.9038H188.324ZM190.715 44.2417V47.9858H189.01V47.2534C188.803 47.5425 188.537 47.7651 188.213 47.9214C187.889 48.0776 187.531 48.1558 187.141 48.1558C186.395 48.1558 185.812 47.9585 185.395 47.564C184.98 47.1694 184.773 46.6187 184.773 45.9116C184.773 45.146 185.021 44.5815 185.518 44.2183C186.014 43.8511 186.781 43.6675 187.82 43.6675H189.01V43.3804C189.01 43.103 188.908 42.894 188.705 42.7534C188.506 42.6089 188.211 42.5366 187.82 42.5366C187.41 42.5366 187.012 42.5894 186.625 42.6948C186.242 42.7964 185.842 42.9604 185.424 43.187V41.7222C185.803 41.5659 186.188 41.4507 186.578 41.3765C186.969 41.3022 187.383 41.2651 187.82 41.2651C188.887 41.2651 189.635 41.4819 190.064 41.9155C190.498 42.3491 190.715 43.1245 190.715 44.2417ZM196.26 41.6284V43.1284C195.943 42.9253 195.613 42.7729 195.27 42.6714C194.93 42.5659 194.588 42.5132 194.244 42.5132C193.861 42.5132 193.572 42.5698 193.377 42.6831C193.182 42.7925 193.084 42.9565 193.084 43.1753C193.084 43.4878 193.502 43.7417 194.338 43.937L194.402 43.9546L194.895 44.0718C195.52 44.2202 195.977 44.4604 196.266 44.7925C196.559 45.1206 196.705 45.5659 196.705 46.1284C196.705 46.8042 196.482 47.312 196.037 47.6519C195.596 47.9878 194.93 48.1558 194.039 48.1558C193.645 48.1558 193.24 48.1206 192.826 48.0503C192.412 47.9839 191.992 47.8823 191.566 47.7456V46.2456C191.945 46.4604 192.33 46.6245 192.721 46.7378C193.115 46.8511 193.496 46.9077 193.863 46.9077C194.266 46.9077 194.57 46.8491 194.777 46.7319C194.984 46.6147 195.088 46.4448 195.088 46.2222C195.088 46.0034 195.014 45.8354 194.865 45.7183C194.721 45.6011 194.373 45.4761 193.822 45.3433L193.348 45.2378C192.691 45.0894 192.213 44.8569 191.912 44.5405C191.611 44.2241 191.461 43.8003 191.461 43.269C191.461 42.6362 191.689 42.144 192.146 41.7925C192.604 41.4409 193.246 41.2651 194.074 41.2651C194.445 41.2651 194.814 41.2964 195.182 41.3589C195.553 41.4175 195.912 41.5073 196.26 41.6284ZM57.7129 76.8491V77.4233H59.7285V78.7417H57.7129V83.9858H55.9961V78.7417H54.4023V77.4233H55.9961V76.9663C55.9961 76.1772 56.1602 75.6304 56.4883 75.3257C56.8164 75.021 57.4258 74.8687 58.3164 74.8687H59.7285V76.187H58.3867C58.1289 76.187 57.9531 76.2339 57.8594 76.3276C57.7695 76.4214 57.7207 76.5952 57.7129 76.8491ZM63.2227 78.6597C62.8125 78.6597 62.4902 78.8413 62.2559 79.2046C62.0215 79.564 61.9043 80.0659 61.9043 80.7104C61.9043 81.355 62.0215 81.8589 62.2559 82.2222C62.4902 82.5815 62.8125 82.7612 63.2227 82.7612C63.6367 82.7612 63.9609 82.5815 64.1953 82.2222C64.4297 81.8589 64.5469 81.355 64.5469 80.7104C64.5469 80.0659 64.4297 79.564 64.1953 79.2046C63.9609 78.8413 63.6367 78.6597 63.2227 78.6597ZM60.1875 80.7104C60.1875 79.6519 60.4609 78.814 61.0078 78.1968C61.5586 77.5757 62.2969 77.2651 63.2227 77.2651C64.1523 77.2651 64.8906 77.5757 65.4375 78.1968C65.9883 78.814 66.2637 79.6519 66.2637 80.7104C66.2637 81.769 65.9883 82.6089 65.4375 83.23C64.8906 83.8472 64.1523 84.1558 63.2227 84.1558C62.2969 84.1558 61.5586 83.8472 61.0078 83.23C60.4609 82.6089 60.1875 81.769 60.1875 80.7104ZM72.5879 79.2339C72.4004 79.062 72.1797 78.9331 71.9258 78.8472C71.6758 78.7612 71.4004 78.7183 71.0996 78.7183C70.7363 78.7183 70.418 78.7827 70.1445 78.9116C69.875 79.0366 69.666 79.2202 69.5176 79.4624C69.4238 79.6108 69.3574 79.7905 69.3184 80.0015C69.2832 80.2124 69.2656 80.5327 69.2656 80.9624V83.9858H67.5488V77.4233H69.2656V78.4429C69.4336 78.0679 69.6914 77.7788 70.0391 77.5757C70.3867 77.3687 70.793 77.2651 71.2578 77.2651C71.4922 77.2651 71.7207 77.2944 71.9434 77.353C72.1699 77.4077 72.3848 77.4897 72.5879 77.5991V79.2339ZM104.521 77.4233H107.92V82.6675H110.053V83.9858H104.064V82.6675H106.203V78.7417H104.521V77.4233ZM106.203 74.23H107.92V76.2339H106.203V74.23ZM115.732 79.7261V83.9858H114.027V79.9897C114.027 79.5132 113.959 79.1733 113.822 78.9702C113.689 78.7632 113.471 78.6597 113.166 78.6597C112.857 78.6597 112.613 78.7983 112.434 79.0757C112.258 79.353 112.17 79.7378 112.17 80.23V83.9858H110.465V77.4233H112.17V78.4077C112.291 78.0444 112.498 77.7632 112.791 77.564C113.084 77.3647 113.438 77.2651 113.852 77.2651C114.473 77.2651 114.941 77.4722 115.258 77.8862C115.574 78.2964 115.732 78.9097 115.732 79.7261ZM68.041 101.16V104.482H66.957V95.4233H68.041V96.2612C68.2207 95.937 68.459 95.6909 68.7559 95.5229C69.0566 95.3511 69.4023 95.2651 69.793 95.2651C70.5859 95.2651 71.207 95.5718 71.6562 96.1851C72.1094 96.7983 72.3359 97.6479 72.3359 98.7339C72.3359 99.8003 72.1094 100.638 71.6562 101.248C71.2031 101.853 70.582 102.156 69.793 102.156C69.3945 102.156 69.0449 102.072 68.7441 101.904C68.4473 101.732 68.2129 101.484 68.041 101.16ZM71.2051 98.7104C71.2051 97.8745 71.0723 97.2437 70.8066 96.8179C70.5449 96.3921 70.1543 96.1792 69.6348 96.1792C69.1113 96.1792 68.7148 96.394 68.4453 96.8237C68.1758 97.2495 68.041 97.8784 68.041 98.7104C68.041 99.5386 68.1758 100.167 68.4453 100.597C68.7148 101.027 69.1113 101.242 69.6348 101.242C70.1543 101.242 70.5449 101.029 70.8066 100.603C71.0723 100.177 71.2051 99.5464 71.2051 98.7104ZM78.8418 96.7769C78.6113 96.5972 78.377 96.4663 78.1387 96.3843C77.9004 96.3022 77.6387 96.2612 77.3535 96.2612C76.6816 96.2612 76.168 96.4722 75.8125 96.894C75.457 97.3159 75.2793 97.9253 75.2793 98.7222V101.986H74.1953V95.4233H75.2793V96.7065C75.459 96.2417 75.7344 95.8862 76.1055 95.6401C76.4805 95.3901 76.9238 95.2651 77.4355 95.2651C77.7012 95.2651 77.9492 95.2983 78.1797 95.3647C78.4102 95.4312 78.6309 95.5347 78.8418 95.6753V96.7769ZM80.1562 95.4468H82.916V101.148H85.0547V101.986H79.6992V101.148H81.8379V96.2847H80.1562V95.4468ZM81.8379 92.8979H82.916V94.2573H81.8379V92.8979ZM90.6934 97.9194V101.986H89.6094V97.9194C89.6094 97.3296 89.5059 96.896 89.2988 96.6187C89.0918 96.3413 88.7676 96.2026 88.3262 96.2026C87.8223 96.2026 87.4336 96.3823 87.1602 96.7417C86.8906 97.0972 86.7559 97.6089 86.7559 98.2769V101.986H85.6777V95.4233H86.7559V96.4077C86.9473 96.0327 87.207 95.7495 87.5352 95.5581C87.8633 95.3628 88.252 95.2651 88.7012 95.2651C89.3691 95.2651 89.8672 95.4858 90.1953 95.9272C90.5273 96.3647 90.6934 97.0288 90.6934 97.9194ZM94.3633 93.5601V95.4233H96.8125V96.2612H94.3633V99.8237C94.3633 100.308 94.4551 100.646 94.6387 100.837C94.8223 101.029 95.1426 101.125 95.5996 101.125H96.8125V101.986H95.4941C94.6855 101.986 94.1152 101.824 93.7832 101.5C93.4512 101.175 93.2852 100.617 93.2852 99.8237V96.2612H91.5332V95.4233H93.2852V93.5601H94.3633ZM107.574 92.8569V96.5073H106.262V92.8569H107.574ZM112.047 99.8706H113.875V101.423L112.574 103.949L111.402 103.955L112.047 101.423V99.8706ZM126.266 92.8569V96.5073H124.953V92.8569H126.266Z" fill="#00C543"/>
<path d="M89.5449 38.2944C89.0254 39.1851 88.6367 40.0737 88.3789 40.9604C88.125 41.8433 87.998 42.7339 87.998 43.6323C87.998 44.5269 88.125 45.4175 88.3789 46.3042C88.6367 47.1909 89.0254 48.0835 89.5449 48.9819H88.6074C88.0176 48.0522 87.5781 47.1479 87.2891 46.269C87 45.3862 86.8555 44.5073 86.8555 43.6323C86.8555 42.7612 87 41.8843 87.2891 41.0015C87.5781 40.1187 88.0176 39.2163 88.6074 38.2944H89.5449ZM173.801 38.2944H174.738C175.328 39.2163 175.768 40.1187 176.057 41.0015C176.346 41.8843 176.49 42.7612 176.49 43.6323C176.49 44.5112 176.346 45.3921 176.057 46.2749C175.768 47.1577 175.328 48.0601 174.738 48.9819H173.801C174.32 48.0757 174.707 47.1792 174.961 46.2925C175.219 45.4058 175.348 44.519 175.348 43.6323C175.348 42.7417 175.219 41.853 174.961 40.9663C174.707 40.0796 174.32 39.189 173.801 38.2944ZM209.131 47.6519C208.842 47.8198 208.543 47.9448 208.234 48.0269C207.93 48.1128 207.617 48.1558 207.297 48.1558C206.281 48.1558 205.486 47.8511 204.912 47.2417C204.342 46.6323 204.057 45.7886 204.057 44.7104C204.057 43.6323 204.342 42.7886 204.912 42.1792C205.486 41.5698 206.281 41.2651 207.297 41.2651C207.613 41.2651 207.922 41.3062 208.223 41.3882C208.523 41.4702 208.826 41.5972 209.131 41.769V42.8999C208.846 42.646 208.559 42.4624 208.27 42.3491C207.984 42.2358 207.66 42.1792 207.297 42.1792C206.621 42.1792 206.102 42.3979 205.738 42.8354C205.375 43.2729 205.193 43.8979 205.193 44.7104C205.193 45.519 205.375 46.144 205.738 46.5854C206.105 47.0229 206.625 47.2417 207.297 47.2417C207.672 47.2417 208.008 47.1851 208.305 47.0718C208.602 46.9546 208.877 46.7749 209.131 46.5327V47.6519ZM214.846 41.6519V42.7065C214.537 42.5269 214.227 42.3921 213.914 42.3022C213.602 42.2124 213.283 42.1675 212.959 42.1675C212.471 42.1675 212.105 42.2476 211.863 42.4077C211.625 42.564 211.506 42.8042 211.506 43.1284C211.506 43.4214 211.596 43.6401 211.775 43.7847C211.955 43.9292 212.402 44.0698 213.117 44.2065L213.551 44.2886C214.086 44.3901 214.49 44.5933 214.764 44.8979C215.041 45.2026 215.18 45.5991 215.18 46.0874C215.18 46.7358 214.949 47.2437 214.488 47.6108C214.027 47.9741 213.387 48.1558 212.566 48.1558C212.242 48.1558 211.902 48.1206 211.547 48.0503C211.191 47.9839 210.807 47.8823 210.393 47.7456V46.6323C210.795 46.8394 211.18 46.9956 211.547 47.1011C211.914 47.2026 212.262 47.2534 212.59 47.2534C213.066 47.2534 213.436 47.1577 213.697 46.9663C213.959 46.771 214.09 46.4995 214.09 46.1519C214.09 45.6519 213.611 45.3062 212.654 45.1147L212.607 45.103L212.203 45.021C211.582 44.8999 211.129 44.6968 210.844 44.4116C210.559 44.1226 210.416 43.73 210.416 43.2339C210.416 42.605 210.629 42.1206 211.055 41.7808C211.48 41.437 212.088 41.2651 212.877 41.2651C213.229 41.2651 213.566 41.2983 213.891 41.3647C214.215 41.4272 214.533 41.5229 214.846 41.6519ZM215.961 41.4233H217.08L218.984 46.9312L220.895 41.4233H222.014L219.682 47.9858H218.293L215.961 41.4233ZM227.834 38.8687V39.7651H226.609C226.223 39.7651 225.953 39.8452 225.801 40.0054C225.652 40.1616 225.578 40.4409 225.578 40.8433V41.4233H227.834V42.2612H225.578V47.9858H224.5V42.2612H222.748V41.4233H224.5V40.9663C224.5 40.2476 224.664 39.7183 224.992 39.3784C225.324 39.0386 225.84 38.8687 226.539 38.8687H227.834ZM229.688 41.4468H232.447V47.1479H234.586V47.9858H229.23V47.1479H231.369V42.2847H229.688V41.4468ZM231.369 38.8979H232.447V40.2573H231.369V38.8979ZM238.279 45.6128C238.279 46.0972 238.367 46.4624 238.543 46.7085C238.723 46.9546 238.986 47.0776 239.334 47.0776H240.594V47.9858H239.229C238.584 47.9858 238.084 47.7808 237.729 47.3706C237.377 46.9565 237.201 46.3706 237.201 45.6128V39.6772H235.473V38.8335H238.279V45.6128ZM246.859 44.1655V44.6929H242.189V44.728C242.158 45.6226 242.328 46.2651 242.699 46.6558C243.074 47.0464 243.602 47.2417 244.281 47.2417C244.625 47.2417 244.984 47.187 245.359 47.0776C245.734 46.9683 246.135 46.8022 246.561 46.5796V47.6519C246.15 47.8198 245.754 47.9448 245.371 48.0269C244.992 48.1128 244.625 48.1558 244.27 48.1558C243.25 48.1558 242.453 47.8511 241.879 47.2417C241.305 46.6284 241.018 45.7847 241.018 44.7104C241.018 43.6636 241.299 42.8276 241.861 42.2026C242.424 41.5776 243.174 41.2651 244.111 41.2651C244.947 41.2651 245.605 41.5483 246.086 42.1147C246.57 42.6812 246.828 43.3647 246.859 44.1655ZM245.781 43.8491C245.734 43.396 245.568 43.0054 245.283 42.6772C245.002 42.3452 244.596 42.1792 244.064 42.1792C243.545 42.1792 243.117 42.3511 242.781 42.6948C242.445 43.0386 242.262 43.4253 242.23 43.855L245.781 43.8491ZM249.041 41.4292H250.869V43.5444H249.041V41.4292ZM249.041 45.853H250.869V47.9858H249.041V45.853ZM40.9082 65.6519C40.6191 65.8198 40.3203 65.9448 40.0117 66.0269C39.707 66.1128 39.3945 66.1558 39.0742 66.1558C38.0586 66.1558 37.2637 65.8511 36.6895 65.2417C36.1191 64.6323 35.834 63.7886 35.834 62.7104C35.834 61.6323 36.1191 60.7886 36.6895 60.1792C37.2637 59.5698 38.0586 59.2651 39.0742 59.2651C39.3906 59.2651 39.6992 59.3062 40 59.3882C40.3008 59.4702 40.6035 59.5972 40.9082 59.769V60.8999C40.623 60.646 40.3359 60.4624 40.0469 60.3491C39.7617 60.2358 39.4375 60.1792 39.0742 60.1792C38.3984 60.1792 37.8789 60.3979 37.5156 60.8354C37.1523 61.2729 36.9707 61.8979 36.9707 62.7104C36.9707 63.519 37.1523 64.144 37.5156 64.5854C37.8828 65.0229 38.4023 65.2417 39.0742 65.2417C39.4492 65.2417 39.7852 65.1851 40.082 65.0718C40.3789 64.9546 40.6543 64.7749 40.9082 64.5327V65.6519ZM46.623 59.6519V60.7065C46.3145 60.5269 46.0039 60.3921 45.6914 60.3022C45.3789 60.2124 45.0605 60.1675 44.7363 60.1675C44.248 60.1675 43.8828 60.2476 43.6406 60.4077C43.4023 60.564 43.2832 60.8042 43.2832 61.1284C43.2832 61.4214 43.373 61.6401 43.5527 61.7847C43.7324 61.9292 44.1797 62.0698 44.8945 62.2065L45.3281 62.2886C45.8633 62.3901 46.2676 62.5933 46.541 62.8979C46.8184 63.2026 46.957 63.5991 46.957 64.0874C46.957 64.7358 46.7266 65.2437 46.2656 65.6108C45.8047 65.9741 45.1641 66.1558 44.3438 66.1558C44.0195 66.1558 43.6797 66.1206 43.3242 66.0503C42.9688 65.9839 42.584 65.8823 42.1699 65.7456V64.6323C42.5723 64.8394 42.957 64.9956 43.3242 65.1011C43.6914 65.2026 44.0391 65.2534 44.3672 65.2534C44.8438 65.2534 45.2129 65.1577 45.4746 64.9663C45.7363 64.771 45.8672 64.4995 45.8672 64.1519C45.8672 63.6519 45.3887 63.3062 44.4316 63.1147L44.3848 63.103L43.9805 63.021C43.3594 62.8999 42.9062 62.6968 42.6211 62.4116C42.3359 62.1226 42.1934 61.73 42.1934 61.2339C42.1934 60.605 42.4062 60.1206 42.832 59.7808C43.2578 59.437 43.8652 59.2651 44.6543 59.2651C45.0059 59.2651 45.3438 59.2983 45.668 59.3647C45.9922 59.4272 46.3105 59.5229 46.623 59.6519ZM47.7383 59.4233H48.8574L50.7617 64.9312L52.6719 59.4233H53.791L51.459 65.9858H50.0703L47.7383 59.4233ZM60.5547 67.0991V68.0952H53.3828V67.0991H60.5547ZM66.3809 60.7769C66.1504 60.5972 65.916 60.4663 65.6777 60.3843C65.4395 60.3022 65.1777 60.2612 64.8926 60.2612C64.2207 60.2612 63.707 60.4722 63.3516 60.894C62.9961 61.3159 62.8184 61.9253 62.8184 62.7222V65.9858H61.7344V59.4233H62.8184V60.7065C62.998 60.2417 63.2734 59.8862 63.6445 59.6401C64.0195 59.3901 64.4629 59.2651 64.9746 59.2651C65.2402 59.2651 65.4883 59.2983 65.7188 59.3647C65.9492 59.4312 66.1699 59.5347 66.3809 59.6753V60.7769ZM72.4062 62.1655V62.6929H67.7363V62.728C67.7051 63.6226 67.875 64.2651 68.2461 64.6558C68.6211 65.0464 69.1484 65.2417 69.8281 65.2417C70.1719 65.2417 70.5312 65.187 70.9062 65.0776C71.2812 64.9683 71.6816 64.8022 72.1074 64.5796V65.6519C71.6973 65.8198 71.3008 65.9448 70.918 66.0269C70.5391 66.1128 70.1719 66.1558 69.8164 66.1558C68.7969 66.1558 68 65.8511 67.4258 65.2417C66.8516 64.6284 66.5645 63.7847 66.5645 62.7104C66.5645 61.6636 66.8457 60.8276 67.4082 60.2026C67.9707 59.5776 68.7207 59.2651 69.6582 59.2651C70.4941 59.2651 71.1523 59.5483 71.6328 60.1147C72.1172 60.6812 72.375 61.3647 72.4062 62.1655ZM71.3281 61.8491C71.2812 61.396 71.1152 61.0054 70.8301 60.6772C70.5488 60.3452 70.1426 60.1792 69.6113 60.1792C69.0918 60.1792 68.6641 60.3511 68.3281 60.6948C67.9922 61.0386 67.8086 61.4253 67.7773 61.855L71.3281 61.8491ZM76.1875 62.687H75.8301C75.2012 62.687 74.7266 62.7983 74.4062 63.021C74.0898 63.2397 73.9316 63.5679 73.9316 64.0054C73.9316 64.3999 74.0508 64.7065 74.2891 64.9253C74.5273 65.144 74.8574 65.2534 75.2793 65.2534C75.873 65.2534 76.3398 65.0483 76.6797 64.6382C77.0195 64.2241 77.1914 63.6538 77.1953 62.9272V62.687H76.1875ZM78.2793 62.2417V65.9858H77.1953V65.0132C76.9648 65.4038 76.6738 65.6929 76.3223 65.8804C75.9746 66.064 75.5508 66.1558 75.0508 66.1558C74.3828 66.1558 73.8496 65.9683 73.4512 65.5933C73.0527 65.2144 72.8535 64.7085 72.8535 64.0757C72.8535 63.3452 73.0977 62.7905 73.5859 62.4116C74.0781 62.0327 74.7988 61.8433 75.748 61.8433H77.1953V61.6733C77.1914 61.1499 77.0586 60.771 76.7969 60.5366C76.5352 60.2983 76.1172 60.1792 75.543 60.1792C75.1758 60.1792 74.8047 60.2319 74.4297 60.3374C74.0547 60.4429 73.6895 60.5972 73.334 60.8003V59.7222C73.7324 59.5698 74.1133 59.4565 74.4766 59.3823C74.8438 59.3042 75.1992 59.2651 75.543 59.2651C76.0859 59.2651 76.5488 59.3452 76.9316 59.5054C77.3184 59.6655 77.6309 59.9058 77.8691 60.2261C78.0176 60.4214 78.123 60.6636 78.1855 60.9526C78.248 61.2378 78.2793 61.6675 78.2793 62.2417ZM83.332 60.2612V56.8687H84.4102V65.9858H83.332V65.1597C83.1523 65.4839 82.9121 65.7319 82.6113 65.9038C82.3145 66.0718 81.9707 66.1558 81.5801 66.1558C80.7871 66.1558 80.1621 65.8491 79.7051 65.2358C79.252 64.6187 79.0254 63.769 79.0254 62.687C79.0254 61.6206 79.2539 60.7847 79.7109 60.1792C80.168 59.5698 80.791 59.2651 81.5801 59.2651C81.9746 59.2651 82.3223 59.3511 82.623 59.5229C82.9238 59.6909 83.1602 59.937 83.332 60.2612ZM80.1621 62.7104C80.1621 63.5464 80.2949 64.1772 80.5605 64.603C80.8262 65.0288 81.2188 65.2417 81.7383 65.2417C82.2578 65.2417 82.6523 65.0269 82.9219 64.5972C83.1953 64.1675 83.332 63.5386 83.332 62.7104C83.332 61.8784 83.1953 61.2495 82.9219 60.8237C82.6523 60.394 82.2578 60.1792 81.7383 60.1792C81.2188 60.1792 80.8262 60.3921 80.5605 60.8179C80.2949 61.2437 80.1621 61.8745 80.1621 62.7104ZM91.0977 62.1655V62.6929H86.4277V62.728C86.3965 63.6226 86.5664 64.2651 86.9375 64.6558C87.3125 65.0464 87.8398 65.2417 88.5195 65.2417C88.8633 65.2417 89.2227 65.187 89.5977 65.0776C89.9727 64.9683 90.373 64.8022 90.7988 64.5796V65.6519C90.3887 65.8198 89.9922 65.9448 89.6094 66.0269C89.2305 66.1128 88.8633 66.1558 88.5078 66.1558C87.4883 66.1558 86.6914 65.8511 86.1172 65.2417C85.543 64.6284 85.2559 63.7847 85.2559 62.7104C85.2559 61.6636 85.5371 60.8276 86.0996 60.2026C86.6621 59.5776 87.4121 59.2651 88.3496 59.2651C89.1855 59.2651 89.8438 59.5483 90.3242 60.1147C90.8086 60.6812 91.0664 61.3647 91.0977 62.1655ZM90.0195 61.8491C89.9727 61.396 89.8066 61.0054 89.5215 60.6772C89.2402 60.3452 88.834 60.1792 88.3027 60.1792C87.7832 60.1792 87.3555 60.3511 87.0195 60.6948C86.6836 61.0386 86.5 61.4253 86.4688 61.855L90.0195 61.8491ZM97.5332 60.7769C97.3027 60.5972 97.0684 60.4663 96.8301 60.3843C96.5918 60.3022 96.3301 60.2612 96.0449 60.2612C95.373 60.2612 94.8594 60.4722 94.5039 60.894C94.1484 61.3159 93.9707 61.9253 93.9707 62.7222V65.9858H92.8867V59.4233H93.9707V60.7065C94.1504 60.2417 94.4258 59.8862 94.7969 59.6401C95.1719 59.3901 95.6152 59.2651 96.127 59.2651C96.3926 59.2651 96.6406 59.2983 96.8711 59.3647C97.1016 59.4312 97.3223 59.5347 97.5332 59.6753V60.7769ZM103.742 63.0562H109.936V64.0464H103.742V63.0562ZM103.742 60.2964H109.936V61.2866H103.742V60.2964ZM121.904 65.6519C121.615 65.8198 121.316 65.9448 121.008 66.0269C120.703 66.1128 120.391 66.1558 120.07 66.1558C119.055 66.1558 118.26 65.8511 117.686 65.2417C117.115 64.6323 116.83 63.7886 116.83 62.7104C116.83 61.6323 117.115 60.7886 117.686 60.1792C118.26 59.5698 119.055 59.2651 120.07 59.2651C120.387 59.2651 120.695 59.3062 120.996 59.3882C121.297 59.4702 121.6 59.5972 121.904 59.769V60.8999C121.619 60.646 121.332 60.4624 121.043 60.3491C120.758 60.2358 120.434 60.1792 120.07 60.1792C119.395 60.1792 118.875 60.3979 118.512 60.8354C118.148 61.2729 117.967 61.8979 117.967 62.7104C117.967 63.519 118.148 64.144 118.512 64.5854C118.879 65.0229 119.398 65.2417 120.07 65.2417C120.445 65.2417 120.781 65.1851 121.078 65.0718C121.375 64.9546 121.65 64.7749 121.904 64.5327V65.6519ZM127.619 59.6519V60.7065C127.311 60.5269 127 60.3921 126.688 60.3022C126.375 60.2124 126.057 60.1675 125.732 60.1675C125.244 60.1675 124.879 60.2476 124.637 60.4077C124.398 60.564 124.279 60.8042 124.279 61.1284C124.279 61.4214 124.369 61.6401 124.549 61.7847C124.729 61.9292 125.176 62.0698 125.891 62.2065L126.324 62.2886C126.859 62.3901 127.264 62.5933 127.537 62.8979C127.814 63.2026 127.953 63.5991 127.953 64.0874C127.953 64.7358 127.723 65.2437 127.262 65.6108C126.801 65.9741 126.16 66.1558 125.34 66.1558C125.016 66.1558 124.676 66.1206 124.32 66.0503C123.965 65.9839 123.58 65.8823 123.166 65.7456V64.6323C123.568 64.8394 123.953 64.9956 124.32 65.1011C124.688 65.2026 125.035 65.2534 125.363 65.2534C125.84 65.2534 126.209 65.1577 126.471 64.9663C126.732 64.771 126.863 64.4995 126.863 64.1519C126.863 63.6519 126.385 63.3062 125.428 63.1147L125.381 63.103L124.977 63.021C124.355 62.8999 123.902 62.6968 123.617 62.4116C123.332 62.1226 123.189 61.73 123.189 61.2339C123.189 60.605 123.402 60.1206 123.828 59.7808C124.254 59.437 124.861 59.2651 125.65 59.2651C126.002 59.2651 126.34 59.2983 126.664 59.3647C126.988 59.4272 127.307 59.5229 127.619 59.6519ZM128.734 59.4233H129.854L131.758 64.9312L133.668 59.4233H134.787L132.455 65.9858H131.066L128.734 59.4233ZM136.658 63.6187H138.721V65.9858H136.658V63.6187ZM147.377 60.7769C147.146 60.5972 146.912 60.4663 146.674 60.3843C146.436 60.3022 146.174 60.2612 145.889 60.2612C145.217 60.2612 144.703 60.4722 144.348 60.894C143.992 61.3159 143.814 61.9253 143.814 62.7222V65.9858H142.73V59.4233H143.814V60.7065C143.994 60.2417 144.27 59.8862 144.641 59.6401C145.016 59.3901 145.459 59.2651 145.971 59.2651C146.236 59.2651 146.484 59.2983 146.715 59.3647C146.945 59.4312 147.166 59.5347 147.377 59.6753V60.7769ZM153.402 62.1655V62.6929H148.732V62.728C148.701 63.6226 148.871 64.2651 149.242 64.6558C149.617 65.0464 150.145 65.2417 150.824 65.2417C151.168 65.2417 151.527 65.187 151.902 65.0776C152.277 64.9683 152.678 64.8022 153.104 64.5796V65.6519C152.693 65.8198 152.297 65.9448 151.914 66.0269C151.535 66.1128 151.168 66.1558 150.812 66.1558C149.793 66.1558 148.996 65.8511 148.422 65.2417C147.848 64.6284 147.561 63.7847 147.561 62.7104C147.561 61.6636 147.842 60.8276 148.404 60.2026C148.967 59.5776 149.717 59.2651 150.654 59.2651C151.49 59.2651 152.148 59.5483 152.629 60.1147C153.113 60.6812 153.371 61.3647 153.402 62.1655ZM152.324 61.8491C152.277 61.396 152.111 61.0054 151.826 60.6772C151.545 60.3452 151.139 60.1792 150.607 60.1792C150.088 60.1792 149.66 60.3511 149.324 60.6948C148.988 61.0386 148.805 61.4253 148.773 61.855L152.324 61.8491ZM157.184 62.687H156.826C156.197 62.687 155.723 62.7983 155.402 63.021C155.086 63.2397 154.928 63.5679 154.928 64.0054C154.928 64.3999 155.047 64.7065 155.285 64.9253C155.523 65.144 155.854 65.2534 156.275 65.2534C156.869 65.2534 157.336 65.0483 157.676 64.6382C158.016 64.2241 158.188 63.6538 158.191 62.9272V62.687H157.184ZM159.275 62.2417V65.9858H158.191V65.0132C157.961 65.4038 157.67 65.6929 157.318 65.8804C156.971 66.064 156.547 66.1558 156.047 66.1558C155.379 66.1558 154.846 65.9683 154.447 65.5933C154.049 65.2144 153.85 64.7085 153.85 64.0757C153.85 63.3452 154.094 62.7905 154.582 62.4116C155.074 62.0327 155.795 61.8433 156.744 61.8433H158.191V61.6733C158.188 61.1499 158.055 60.771 157.793 60.5366C157.531 60.2983 157.113 60.1792 156.539 60.1792C156.172 60.1792 155.801 60.2319 155.426 60.3374C155.051 60.4429 154.686 60.5972 154.33 60.8003V59.7222C154.729 59.5698 155.109 59.4565 155.473 59.3823C155.84 59.3042 156.195 59.2651 156.539 59.2651C157.082 59.2651 157.545 59.3452 157.928 59.5054C158.314 59.6655 158.627 59.9058 158.865 60.2261C159.014 60.4214 159.119 60.6636 159.182 60.9526C159.244 61.2378 159.275 61.6675 159.275 62.2417ZM164.328 60.2612V56.8687H165.406V65.9858H164.328V65.1597C164.148 65.4839 163.908 65.7319 163.607 65.9038C163.311 66.0718 162.967 66.1558 162.576 66.1558C161.783 66.1558 161.158 65.8491 160.701 65.2358C160.248 64.6187 160.021 63.769 160.021 62.687C160.021 61.6206 160.25 60.7847 160.707 60.1792C161.164 59.5698 161.787 59.2651 162.576 59.2651C162.971 59.2651 163.318 59.3511 163.619 59.5229C163.92 59.6909 164.156 59.937 164.328 60.2612ZM161.158 62.7104C161.158 63.5464 161.291 64.1772 161.557 64.603C161.822 65.0288 162.215 65.2417 162.734 65.2417C163.254 65.2417 163.648 65.0269 163.918 64.5972C164.191 64.1675 164.328 63.5386 164.328 62.7104C164.328 61.8784 164.191 61.2495 163.918 60.8237C163.648 60.394 163.254 60.1792 162.734 60.1792C162.215 60.1792 161.822 60.3921 161.557 60.8179C161.291 61.2437 161.158 61.8745 161.158 62.7104ZM172.094 62.1655V62.6929H167.424V62.728C167.393 63.6226 167.562 64.2651 167.934 64.6558C168.309 65.0464 168.836 65.2417 169.516 65.2417C169.859 65.2417 170.219 65.187 170.594 65.0776C170.969 64.9683 171.369 64.8022 171.795 64.5796V65.6519C171.385 65.8198 170.988 65.9448 170.605 66.0269C170.227 66.1128 169.859 66.1558 169.504 66.1558C168.484 66.1558 167.688 65.8511 167.113 65.2417C166.539 64.6284 166.252 63.7847 166.252 62.7104C166.252 61.6636 166.533 60.8276 167.096 60.2026C167.658 59.5776 168.408 59.2651 169.346 59.2651C170.182 59.2651 170.84 59.5483 171.32 60.1147C171.805 60.6812 172.062 61.3647 172.094 62.1655ZM171.016 61.8491C170.969 61.396 170.803 61.0054 170.518 60.6772C170.236 60.3452 169.83 60.1792 169.299 60.1792C168.779 60.1792 168.352 60.3511 168.016 60.6948C167.68 61.0386 167.496 61.4253 167.465 61.855L171.016 61.8491ZM178.529 60.7769C178.299 60.5972 178.064 60.4663 177.826 60.3843C177.588 60.3022 177.326 60.2612 177.041 60.2612C176.369 60.2612 175.855 60.4722 175.5 60.894C175.145 61.3159 174.967 61.9253 174.967 62.7222V65.9858H173.883V59.4233H174.967V60.7065C175.146 60.2417 175.422 59.8862 175.793 59.6401C176.168 59.3901 176.611 59.2651 177.123 59.2651C177.389 59.2651 177.637 59.2983 177.867 59.3647C178.098 59.4312 178.318 59.5347 178.529 59.6753V60.7769ZM183.002 56.2944C182.482 57.1851 182.094 58.0737 181.836 58.9604C181.582 59.8433 181.455 60.7339 181.455 61.6323C181.455 62.5269 181.582 63.4175 181.836 64.3042C182.094 65.1909 182.482 66.0835 183.002 66.9819H182.064C181.475 66.0522 181.035 65.1479 180.746 64.269C180.457 63.3862 180.312 62.5073 180.312 61.6323C180.312 60.7612 180.457 59.8843 180.746 59.0015C181.035 58.1187 181.475 57.2163 182.064 56.2944H183.002ZM190.439 65.6519C190.15 65.8198 189.852 65.9448 189.543 66.0269C189.238 66.1128 188.926 66.1558 188.605 66.1558C187.59 66.1558 186.795 65.8511 186.221 65.2417C185.65 64.6323 185.365 63.7886 185.365 62.7104C185.365 61.6323 185.65 60.7886 186.221 60.1792C186.795 59.5698 187.59 59.2651 188.605 59.2651C188.922 59.2651 189.23 59.3062 189.531 59.3882C189.832 59.4702 190.135 59.5972 190.439 59.769V60.8999C190.154 60.646 189.867 60.4624 189.578 60.3491C189.293 60.2358 188.969 60.1792 188.605 60.1792C187.93 60.1792 187.41 60.3979 187.047 60.8354C186.684 61.2729 186.502 61.8979 186.502 62.7104C186.502 63.519 186.684 64.144 187.047 64.5854C187.414 65.0229 187.934 65.2417 188.605 65.2417C188.98 65.2417 189.316 65.1851 189.613 65.0718C189.91 64.9546 190.186 64.7749 190.439 64.5327V65.6519ZM196.154 59.6519V60.7065C195.846 60.5269 195.535 60.3921 195.223 60.3022C194.91 60.2124 194.592 60.1675 194.268 60.1675C193.779 60.1675 193.414 60.2476 193.172 60.4077C192.934 60.564 192.814 60.8042 192.814 61.1284C192.814 61.4214 192.904 61.6401 193.084 61.7847C193.264 61.9292 193.711 62.0698 194.426 62.2065L194.859 62.2886C195.395 62.3901 195.799 62.5933 196.072 62.8979C196.35 63.2026 196.488 63.5991 196.488 64.0874C196.488 64.7358 196.258 65.2437 195.797 65.6108C195.336 65.9741 194.695 66.1558 193.875 66.1558C193.551 66.1558 193.211 66.1206 192.855 66.0503C192.5 65.9839 192.115 65.8823 191.701 65.7456V64.6323C192.104 64.8394 192.488 64.9956 192.855 65.1011C193.223 65.2026 193.57 65.2534 193.898 65.2534C194.375 65.2534 194.744 65.1577 195.006 64.9663C195.268 64.771 195.398 64.4995 195.398 64.1519C195.398 63.6519 194.92 63.3062 193.963 63.1147L193.916 63.103L193.512 63.021C192.891 62.8999 192.438 62.6968 192.152 62.4116C191.867 62.1226 191.725 61.73 191.725 61.2339C191.725 60.605 191.938 60.1206 192.363 59.7808C192.789 59.437 193.396 59.2651 194.186 59.2651C194.537 59.2651 194.875 59.2983 195.199 59.3647C195.523 59.4272 195.842 59.5229 196.154 59.6519ZM197.27 59.4233H198.389L200.293 64.9312L202.203 59.4233H203.322L200.99 65.9858H199.602L197.27 59.4233ZM209.143 56.8687V57.7651H207.918C207.531 57.7651 207.262 57.8452 207.109 58.0054C206.961 58.1616 206.887 58.4409 206.887 58.8433V59.4233H209.143V60.2612H206.887V65.9858H205.809V60.2612H204.057V59.4233H205.809V58.9663C205.809 58.2476 205.973 57.7183 206.301 57.3784C206.633 57.0386 207.148 56.8687 207.848 56.8687H209.143ZM210.996 59.4468H213.756V65.1479H215.895V65.9858H210.539V65.1479H212.678V60.2847H210.996V59.4468ZM212.678 56.8979H213.756V58.2573H212.678V56.8979ZM219.588 63.6128C219.588 64.0972 219.676 64.4624 219.852 64.7085C220.031 64.9546 220.295 65.0776 220.643 65.0776H221.902V65.9858H220.537C219.893 65.9858 219.393 65.7808 219.037 65.3706C218.686 64.9565 218.51 64.3706 218.51 63.6128V57.6772H216.781V56.8335H219.588V63.6128ZM228.168 62.1655V62.6929H223.498V62.728C223.467 63.6226 223.637 64.2651 224.008 64.6558C224.383 65.0464 224.91 65.2417 225.59 65.2417C225.934 65.2417 226.293 65.187 226.668 65.0776C227.043 64.9683 227.443 64.8022 227.869 64.5796V65.6519C227.459 65.8198 227.062 65.9448 226.68 66.0269C226.301 66.1128 225.934 66.1558 225.578 66.1558C224.559 66.1558 223.762 65.8511 223.188 65.2417C222.613 64.6284 222.326 63.7847 222.326 62.7104C222.326 61.6636 222.607 60.8276 223.17 60.2026C223.732 59.5776 224.482 59.2651 225.42 59.2651C226.256 59.2651 226.914 59.5483 227.395 60.1147C227.879 60.6812 228.137 61.3647 228.168 62.1655ZM227.09 61.8491C227.043 61.396 226.877 61.0054 226.592 60.6772C226.311 60.3452 225.904 60.1792 225.373 60.1792C224.854 60.1792 224.426 60.3511 224.09 60.6948C223.754 61.0386 223.57 61.4253 223.539 61.855L227.09 61.8491ZM229.875 56.2944H230.812C231.402 57.2163 231.842 58.1187 232.131 59.0015C232.42 59.8843 232.564 60.7612 232.564 61.6323C232.564 62.5112 232.42 63.3921 232.131 64.2749C231.842 65.1577 231.402 66.0601 230.812 66.9819H229.875C230.395 66.0757 230.781 65.1792 231.035 64.2925C231.293 63.4058 231.422 62.519 231.422 61.6323C231.422 60.7417 231.293 59.853 231.035 58.9663C230.781 58.0796 230.395 57.189 229.875 56.2944ZM85.0723 78.7769C84.8418 78.5972 84.6074 78.4663 84.3691 78.3843C84.1309 78.3022 83.8691 78.2612 83.584 78.2612C82.9121 78.2612 82.3984 78.4722 82.043 78.894C81.6875 79.3159 81.5098 79.9253 81.5098 80.7222V83.9858H80.4258V77.4233H81.5098V78.7065C81.6895 78.2417 81.9648 77.8862 82.3359 77.6401C82.7109 77.3901 83.1543 77.2651 83.666 77.2651C83.9316 77.2651 84.1797 77.2983 84.4102 77.3647C84.6406 77.4312 84.8613 77.5347 85.0723 77.6753V78.7769ZM88.1445 78.1792C87.5977 78.1792 87.1836 78.3921 86.9023 78.8179C86.6211 79.2437 86.4805 79.8745 86.4805 80.7104C86.4805 81.5425 86.6211 82.1733 86.9023 82.603C87.1836 83.0288 87.5977 83.2417 88.1445 83.2417C88.6953 83.2417 89.1113 83.0288 89.3926 82.603C89.6738 82.1733 89.8145 81.5425 89.8145 80.7104C89.8145 79.8745 89.6738 79.2437 89.3926 78.8179C89.1113 78.3921 88.6953 78.1792 88.1445 78.1792ZM88.1445 77.2651C89.0547 77.2651 89.75 77.5601 90.2305 78.1499C90.7148 78.7397 90.957 79.5933 90.957 80.7104C90.957 81.8315 90.7168 82.687 90.2363 83.2769C89.7559 83.8628 89.0586 84.1558 88.1445 84.1558C87.2344 84.1558 86.5391 83.8628 86.0586 83.2769C85.5781 82.687 85.3379 81.8315 85.3379 80.7104C85.3379 79.5933 85.5781 78.7397 86.0586 78.1499C86.5391 77.5601 87.2344 77.2651 88.1445 77.2651ZM90.7656 77.4233H91.832L92.9746 82.7261L93.9121 79.3394H94.832L95.7812 82.7261L96.9238 77.4233H97.9902L96.4551 83.9858H95.4238L94.375 80.3882L93.332 83.9858H92.3008L90.7656 77.4233ZM128.135 83.6519C127.846 83.8198 127.547 83.9448 127.238 84.0269C126.934 84.1128 126.621 84.1558 126.301 84.1558C125.285 84.1558 124.49 83.8511 123.916 83.2417C123.346 82.6323 123.061 81.7886 123.061 80.7104C123.061 79.6323 123.346 78.7886 123.916 78.1792C124.49 77.5698 125.285 77.2651 126.301 77.2651C126.617 77.2651 126.926 77.3062 127.227 77.3882C127.527 77.4702 127.83 77.5972 128.135 77.769V78.8999C127.85 78.646 127.562 78.4624 127.273 78.3491C126.988 78.2358 126.664 78.1792 126.301 78.1792C125.625 78.1792 125.105 78.3979 124.742 78.8354C124.379 79.2729 124.197 79.8979 124.197 80.7104C124.197 81.519 124.379 82.144 124.742 82.5854C125.109 83.0229 125.629 83.2417 126.301 83.2417C126.676 83.2417 127.012 83.1851 127.309 83.0718C127.605 82.9546 127.881 82.7749 128.135 82.5327V83.6519ZM133.85 77.6519V78.7065C133.541 78.5269 133.23 78.3921 132.918 78.3022C132.605 78.2124 132.287 78.1675 131.963 78.1675C131.475 78.1675 131.109 78.2476 130.867 78.4077C130.629 78.564 130.51 78.8042 130.51 79.1284C130.51 79.4214 130.6 79.6401 130.779 79.7847C130.959 79.9292 131.406 80.0698 132.121 80.2065L132.555 80.2886C133.09 80.3901 133.494 80.5933 133.768 80.8979C134.045 81.2026 134.184 81.5991 134.184 82.0874C134.184 82.7358 133.953 83.2437 133.492 83.6108C133.031 83.9741 132.391 84.1558 131.57 84.1558C131.246 84.1558 130.906 84.1206 130.551 84.0503C130.195 83.9839 129.811 83.8823 129.396 83.7456V82.6323C129.799 82.8394 130.184 82.9956 130.551 83.1011C130.918 83.2026 131.266 83.2534 131.594 83.2534C132.07 83.2534 132.439 83.1577 132.701 82.9663C132.963 82.771 133.094 82.4995 133.094 82.1519C133.094 81.6519 132.615 81.3062 131.658 81.1147L131.611 81.103L131.207 81.021C130.586 80.8999 130.133 80.6968 129.848 80.4116C129.562 80.1226 129.42 79.73 129.42 79.2339C129.42 78.605 129.633 78.1206 130.059 77.7808C130.484 77.437 131.092 77.2651 131.881 77.2651C132.232 77.2651 132.57 77.2983 132.895 77.3647C133.219 77.4272 133.537 77.5229 133.85 77.6519ZM134.965 77.4233H136.084L137.988 82.9312L139.898 77.4233H141.018L138.686 83.9858H137.297L134.965 77.4233ZM147.781 85.0991V86.0952H140.609V85.0991H147.781ZM153.607 78.7769C153.377 78.5972 153.143 78.4663 152.904 78.3843C152.666 78.3022 152.404 78.2612 152.119 78.2612C151.447 78.2612 150.934 78.4722 150.578 78.894C150.223 79.3159 150.045 79.9253 150.045 80.7222V83.9858H148.961V77.4233H150.045V78.7065C150.225 78.2417 150.5 77.8862 150.871 77.6401C151.246 77.3901 151.689 77.2651 152.201 77.2651C152.467 77.2651 152.715 77.2983 152.945 77.3647C153.176 77.4312 153.396 77.5347 153.607 77.6753V78.7769ZM159.633 80.1655V80.6929H154.963V80.728C154.932 81.6226 155.102 82.2651 155.473 82.6558C155.848 83.0464 156.375 83.2417 157.055 83.2417C157.398 83.2417 157.758 83.187 158.133 83.0776C158.508 82.9683 158.908 82.8022 159.334 82.5796V83.6519C158.924 83.8198 158.527 83.9448 158.145 84.0269C157.766 84.1128 157.398 84.1558 157.043 84.1558C156.023 84.1558 155.227 83.8511 154.652 83.2417C154.078 82.6284 153.791 81.7847 153.791 80.7104C153.791 79.6636 154.072 78.8276 154.635 78.2026C155.197 77.5776 155.947 77.2651 156.885 77.2651C157.721 77.2651 158.379 77.5483 158.859 78.1147C159.344 78.6812 159.602 79.3647 159.633 80.1655ZM158.555 79.8491C158.508 79.396 158.342 79.0054 158.057 78.6772C157.775 78.3452 157.369 78.1792 156.838 78.1792C156.318 78.1792 155.891 78.3511 155.555 78.6948C155.219 79.0386 155.035 79.4253 155.004 79.855L158.555 79.8491ZM163.414 80.687H163.057C162.428 80.687 161.953 80.7983 161.633 81.021C161.316 81.2397 161.158 81.5679 161.158 82.0054C161.158 82.3999 161.277 82.7065 161.516 82.9253C161.754 83.144 162.084 83.2534 162.506 83.2534C163.1 83.2534 163.566 83.0483 163.906 82.6382C164.246 82.2241 164.418 81.6538 164.422 80.9272V80.687H163.414ZM165.506 80.2417V83.9858H164.422V83.0132C164.191 83.4038 163.9 83.6929 163.549 83.8804C163.201 84.064 162.777 84.1558 162.277 84.1558C161.609 84.1558 161.076 83.9683 160.678 83.5933C160.279 83.2144 160.08 82.7085 160.08 82.0757C160.08 81.3452 160.324 80.7905 160.812 80.4116C161.305 80.0327 162.025 79.8433 162.975 79.8433H164.422V79.6733C164.418 79.1499 164.285 78.771 164.023 78.5366C163.762 78.2983 163.344 78.1792 162.77 78.1792C162.402 78.1792 162.031 78.2319 161.656 78.3374C161.281 78.4429 160.916 78.5972 160.561 78.8003V77.7222C160.959 77.5698 161.34 77.4565 161.703 77.3823C162.07 77.3042 162.426 77.2651 162.77 77.2651C163.312 77.2651 163.775 77.3452 164.158 77.5054C164.545 77.6655 164.857 77.9058 165.096 78.2261C165.244 78.4214 165.35 78.6636 165.412 78.9526C165.475 79.2378 165.506 79.6675 165.506 80.2417ZM170.559 78.2612V74.8687H171.637V83.9858H170.559V83.1597C170.379 83.4839 170.139 83.7319 169.838 83.9038C169.541 84.0718 169.197 84.1558 168.807 84.1558C168.014 84.1558 167.389 83.8491 166.932 83.2358C166.479 82.6187 166.252 81.769 166.252 80.687C166.252 79.6206 166.48 78.7847 166.938 78.1792C167.395 77.5698 168.018 77.2651 168.807 77.2651C169.201 77.2651 169.549 77.3511 169.85 77.5229C170.15 77.6909 170.387 77.937 170.559 78.2612ZM167.389 80.7104C167.389 81.5464 167.521 82.1772 167.787 82.603C168.053 83.0288 168.445 83.2417 168.965 83.2417C169.484 83.2417 169.879 83.0269 170.148 82.5972C170.422 82.1675 170.559 81.5386 170.559 80.7104C170.559 79.8784 170.422 79.2495 170.148 78.8237C169.879 78.394 169.484 78.1792 168.965 78.1792C168.445 78.1792 168.053 78.3921 167.787 78.8179C167.521 79.2437 167.389 79.8745 167.389 80.7104ZM178.324 80.1655V80.6929H173.654V80.728C173.623 81.6226 173.793 82.2651 174.164 82.6558C174.539 83.0464 175.066 83.2417 175.746 83.2417C176.09 83.2417 176.449 83.187 176.824 83.0776C177.199 82.9683 177.6 82.8022 178.025 82.5796V83.6519C177.615 83.8198 177.219 83.9448 176.836 84.0269C176.457 84.1128 176.09 84.1558 175.734 84.1558C174.715 84.1558 173.918 83.8511 173.344 83.2417C172.77 82.6284 172.482 81.7847 172.482 80.7104C172.482 79.6636 172.764 78.8276 173.326 78.2026C173.889 77.5776 174.639 77.2651 175.576 77.2651C176.412 77.2651 177.07 77.5483 177.551 78.1147C178.035 78.6812 178.293 79.3647 178.324 80.1655ZM177.246 79.8491C177.199 79.396 177.033 79.0054 176.748 78.6772C176.467 78.3452 176.061 78.1792 175.529 78.1792C175.01 78.1792 174.582 78.3511 174.246 78.6948C173.91 79.0386 173.727 79.4253 173.695 79.855L177.246 79.8491ZM184.76 78.7769C184.529 78.5972 184.295 78.4663 184.057 78.3843C183.818 78.3022 183.557 78.2612 183.271 78.2612C182.6 78.2612 182.086 78.4722 181.73 78.894C181.375 79.3159 181.197 79.9253 181.197 80.7222V83.9858H180.113V77.4233H181.197V78.7065C181.377 78.2417 181.652 77.8862 182.023 77.6401C182.398 77.3901 182.842 77.2651 183.354 77.2651C183.619 77.2651 183.867 77.2983 184.098 77.3647C184.328 77.4312 184.549 77.5347 184.76 77.6753V78.7769ZM186.736 77.4292H188.564V79.5444H186.736V77.4292ZM186.736 81.853H188.564V83.9858H186.736V81.853ZM102.006 92.2944C101.486 93.1851 101.098 94.0737 100.84 94.9604C100.586 95.8433 100.459 96.7339 100.459 97.6323C100.459 98.5269 100.586 99.4175 100.84 100.304C101.098 101.191 101.486 102.083 102.006 102.982H101.068C100.479 102.052 100.039 101.148 99.75 100.269C99.4609 99.3862 99.3164 98.5073 99.3164 97.6323C99.3164 96.7612 99.4609 95.8843 99.75 95.0015C100.039 94.1187 100.479 93.2163 101.068 92.2944H102.006ZM130.428 99.6187H132.49V101.986H130.428V99.6187ZM137.895 102.103V96.2612H136.037V95.4233H138.973V102.103C138.973 102.865 138.797 103.451 138.445 103.861C138.098 104.275 137.602 104.482 136.957 104.482H135.469V103.568H136.84C137.191 103.568 137.455 103.445 137.631 103.199C137.807 102.957 137.895 102.591 137.895 102.103ZM137.895 92.8687H138.973V94.2339H137.895V92.8687ZM144.219 96.1792C143.672 96.1792 143.258 96.3921 142.977 96.8179C142.695 97.2437 142.555 97.8745 142.555 98.7104C142.555 99.5425 142.695 100.173 142.977 100.603C143.258 101.029 143.672 101.242 144.219 101.242C144.77 101.242 145.186 101.029 145.467 100.603C145.748 100.173 145.889 99.5425 145.889 98.7104C145.889 97.8745 145.748 97.2437 145.467 96.8179C145.186 96.3921 144.77 96.1792 144.219 96.1792ZM144.219 95.2651C145.129 95.2651 145.824 95.5601 146.305 96.1499C146.789 96.7397 147.031 97.5933 147.031 98.7104C147.031 99.8315 146.791 100.687 146.311 101.277C145.83 101.863 145.133 102.156 144.219 102.156C143.309 102.156 142.613 101.863 142.133 101.277C141.652 100.687 141.412 99.8315 141.412 98.7104C141.412 97.5933 141.652 96.7397 142.133 96.1499C142.613 95.5601 143.309 95.2651 144.219 95.2651ZM148.691 95.4468H151.451V101.148H153.59V101.986H148.234V101.148H150.373V96.2847H148.691V95.4468ZM150.373 92.8979H151.451V94.2573H150.373V92.8979ZM159.229 97.9194V101.986H158.145V97.9194C158.145 97.3296 158.041 96.896 157.834 96.6187C157.627 96.3413 157.303 96.2026 156.861 96.2026C156.357 96.2026 155.969 96.3823 155.695 96.7417C155.426 97.0972 155.291 97.6089 155.291 98.2769V101.986H154.213V95.4233H155.291V96.4077C155.482 96.0327 155.742 95.7495 156.07 95.5581C156.398 95.3628 156.787 95.2651 157.236 95.2651C157.904 95.2651 158.402 95.4858 158.73 95.9272C159.062 96.3647 159.229 97.0288 159.229 97.9194ZM164.311 92.2944C163.791 93.1851 163.402 94.0737 163.145 94.9604C162.891 95.8433 162.764 96.7339 162.764 97.6323C162.764 98.5269 162.891 99.4175 163.145 100.304C163.402 101.191 163.791 102.083 164.311 102.982H163.373C162.783 102.052 162.344 101.148 162.055 100.269C161.766 99.3862 161.621 98.5073 161.621 97.6323C161.621 96.7612 161.766 95.8843 162.055 95.0015C162.344 94.1187 162.783 93.2163 163.373 92.2944H164.311ZM172.299 96.7769C172.068 96.5972 171.834 96.4663 171.596 96.3843C171.357 96.3022 171.096 96.2612 170.811 96.2612C170.139 96.2612 169.625 96.4722 169.27 96.894C168.914 97.3159 168.736 97.9253 168.736 98.7222V101.986H167.652V95.4233H168.736V96.7065C168.916 96.2417 169.191 95.8862 169.562 95.6401C169.938 95.3901 170.381 95.2651 170.893 95.2651C171.158 95.2651 171.406 95.2983 171.637 95.3647C171.867 95.4312 172.088 95.5347 172.299 95.6753V96.7769ZM175.371 96.1792C174.824 96.1792 174.41 96.3921 174.129 96.8179C173.848 97.2437 173.707 97.8745 173.707 98.7104C173.707 99.5425 173.848 100.173 174.129 100.603C174.41 101.029 174.824 101.242 175.371 101.242C175.922 101.242 176.338 101.029 176.619 100.603C176.9 100.173 177.041 99.5425 177.041 98.7104C177.041 97.8745 176.9 97.2437 176.619 96.8179C176.338 96.3921 175.922 96.1792 175.371 96.1792ZM175.371 95.2651C176.281 95.2651 176.977 95.5601 177.457 96.1499C177.941 96.7397 178.184 97.5933 178.184 98.7104C178.184 99.8315 177.943 100.687 177.463 101.277C176.982 101.863 176.285 102.156 175.371 102.156C174.461 102.156 173.766 101.863 173.285 101.277C172.805 100.687 172.564 99.8315 172.564 98.7104C172.564 97.5933 172.805 96.7397 173.285 96.1499C173.766 95.5601 174.461 95.2651 175.371 95.2651ZM177.992 95.4233H179.059L180.201 100.726L181.139 97.3394H182.059L183.008 100.726L184.15 95.4233H185.217L183.682 101.986H182.65L181.602 98.3882L180.559 101.986H179.527L177.992 95.4233ZM186.262 92.2944H187.199C187.789 93.2163 188.229 94.1187 188.518 95.0015C188.807 95.8843 188.951 96.7612 188.951 97.6323C188.951 98.5112 188.807 99.3921 188.518 100.275C188.229 101.158 187.789 102.06 187.199 102.982H186.262C186.781 102.076 187.168 101.179 187.422 100.292C187.68 99.4058 187.809 98.519 187.809 97.6323C187.809 96.7417 187.68 95.853 187.422 94.9663C187.168 94.0796 186.781 93.189 186.262 92.2944ZM192.492 92.2944H193.43C194.02 93.2163 194.459 94.1187 194.748 95.0015C195.037 95.8843 195.182 96.7612 195.182 97.6323C195.182 98.5112 195.037 99.3921 194.748 100.275C194.459 101.158 194.02 102.06 193.43 102.982H192.492C193.012 102.076 193.398 101.179 193.652 100.292C193.91 99.4058 194.039 98.519 194.039 97.6323C194.039 96.7417 193.91 95.853 193.652 94.9663C193.398 94.0796 193.012 93.189 192.492 92.2944Z" fill="white"/>
<path d="M78.291 29.6519C78.002 29.8198 77.7031 29.9448 77.3945 30.0269C77.0898 30.1128 76.7773 30.1558 76.457 30.1558C75.4414 30.1558 74.6465 29.8511 74.0723 29.2417C73.502 28.6323 73.2168 27.7886 73.2168 26.7104C73.2168 25.6323 73.502 24.7886 74.0723 24.1792C74.6465 23.5698 75.4414 23.2651 76.457 23.2651C76.7734 23.2651 77.082 23.3062 77.3828 23.3882C77.6836 23.4702 77.9863 23.5972 78.291 23.769V24.8999C78.0059 24.646 77.7188 24.4624 77.4297 24.3491C77.1445 24.2358 76.8203 24.1792 76.457 24.1792C75.7812 24.1792 75.2617 24.3979 74.8984 24.8354C74.5352 25.2729 74.3535 25.8979 74.3535 26.7104C74.3535 27.519 74.5352 28.144 74.8984 28.5854C75.2656 29.0229 75.7852 29.2417 76.457 29.2417C76.832 29.2417 77.168 29.1851 77.4648 29.0718C77.7617 28.9546 78.0371 28.7749 78.291 28.5327V29.6519ZM84.0059 23.6519V24.7065C83.6973 24.5269 83.3867 24.3921 83.0742 24.3022C82.7617 24.2124 82.4434 24.1675 82.1191 24.1675C81.6309 24.1675 81.2656 24.2476 81.0234 24.4077C80.7852 24.564 80.666 24.8042 80.666 25.1284C80.666 25.4214 80.7559 25.6401 80.9355 25.7847C81.1152 25.9292 81.5625 26.0698 82.2773 26.2065L82.7109 26.2886C83.2461 26.3901 83.6504 26.5933 83.9238 26.8979C84.2012 27.2026 84.3398 27.5991 84.3398 28.0874C84.3398 28.7358 84.1094 29.2437 83.6484 29.6108C83.1875 29.9741 82.5469 30.1558 81.7266 30.1558C81.4023 30.1558 81.0625 30.1206 80.707 30.0503C80.3516 29.9839 79.9668 29.8823 79.5527 29.7456V28.6323C79.9551 28.8394 80.3398 28.9956 80.707 29.1011C81.0742 29.2026 81.4219 29.2534 81.75 29.2534C82.2266 29.2534 82.5957 29.1577 82.8574 28.9663C83.1191 28.771 83.25 28.4995 83.25 28.1519C83.25 27.6519 82.7715 27.3062 81.8145 27.1147L81.7676 27.103L81.3633 27.021C80.7422 26.8999 80.2891 26.6968 80.0039 26.4116C79.7188 26.1226 79.5762 25.73 79.5762 25.2339C79.5762 24.605 79.7891 24.1206 80.2148 23.7808C80.6406 23.437 81.248 23.2651 82.0371 23.2651C82.3887 23.2651 82.7266 23.2983 83.0508 23.3647C83.375 23.4272 83.6934 23.5229 84.0059 23.6519ZM85.1211 23.4233H86.2402L88.1445 28.9312L90.0547 23.4233H91.1738L88.8418 29.9858H87.4531L85.1211 23.4233ZM94.9551 42.3198H93.4785V41.1069L94.627 38.8687H95.5293L94.9551 41.1069V42.3198ZM100.957 42.0913C101.09 41.8101 101.258 41.603 101.461 41.4702C101.668 41.3335 101.916 41.2651 102.205 41.2651C102.732 41.2651 103.104 41.4702 103.318 41.8804C103.537 42.2866 103.646 43.0542 103.646 44.1831V47.9858H102.662V44.23C102.662 43.3042 102.609 42.73 102.504 42.5073C102.402 42.2808 102.215 42.1675 101.941 42.1675C101.629 42.1675 101.414 42.2886 101.297 42.5308C101.184 42.769 101.127 43.3354 101.127 44.23V47.9858H100.143V44.23C100.143 43.2925 100.086 42.7144 99.9727 42.4956C99.8633 42.2769 99.6641 42.1675 99.375 42.1675C99.0898 42.1675 98.8906 42.2886 98.7773 42.5308C98.668 42.769 98.6133 43.3354 98.6133 44.23V47.9858H97.6348V41.4233H98.6133V41.9858C98.7422 41.7515 98.9023 41.5737 99.0938 41.4526C99.2891 41.3276 99.5098 41.2651 99.7559 41.2651C100.053 41.2651 100.299 41.3335 100.494 41.4702C100.693 41.6069 100.848 41.814 100.957 42.0913ZM108.254 45.8765C108.074 46.3335 107.846 46.9351 107.568 47.6812C107.182 48.7124 106.922 49.3413 106.789 49.5679C106.609 49.8726 106.385 50.1011 106.115 50.2534C105.846 50.4058 105.531 50.4819 105.172 50.4819H104.305V49.5796H104.943C105.26 49.5796 105.508 49.4878 105.688 49.3042C105.867 49.1206 106.096 48.646 106.373 47.8804L103.836 41.4233H104.979L106.924 46.5562L108.84 41.4233H109.982L108.254 45.8765ZM116.629 49.0991V50.0952H109.457V49.0991H116.629ZM121.916 38.8687V39.7651H120.691C120.305 39.7651 120.035 39.8452 119.883 40.0054C119.734 40.1616 119.66 40.4409 119.66 40.8433V41.4233H121.916V42.2612H119.66V47.9858H118.582V42.2612H116.83V41.4233H118.582V40.9663C118.582 40.2476 118.746 39.7183 119.074 39.3784C119.406 39.0386 119.922 38.8687 120.621 38.8687H121.916ZM123.77 41.4468H126.529V47.1479H128.668V47.9858H123.312V47.1479H125.451V42.2847H123.77V41.4468ZM125.451 38.8979H126.529V40.2573H125.451V38.8979ZM132.361 45.6128C132.361 46.0972 132.449 46.4624 132.625 46.7085C132.805 46.9546 133.068 47.0776 133.416 47.0776H134.676V47.9858H133.311C132.666 47.9858 132.166 47.7808 131.811 47.3706C131.459 46.9565 131.283 46.3706 131.283 45.6128V39.6772H129.555V38.8335H132.361V45.6128ZM140.941 44.1655V44.6929H136.271V44.728C136.24 45.6226 136.41 46.2651 136.781 46.6558C137.156 47.0464 137.684 47.2417 138.363 47.2417C138.707 47.2417 139.066 47.187 139.441 47.0776C139.816 46.9683 140.217 46.8022 140.643 46.5796V47.6519C140.232 47.8198 139.836 47.9448 139.453 48.0269C139.074 48.1128 138.707 48.1558 138.352 48.1558C137.332 48.1558 136.535 47.8511 135.961 47.2417C135.387 46.6284 135.1 45.7847 135.1 44.7104C135.1 43.6636 135.381 42.8276 135.943 42.2026C136.506 41.5776 137.256 41.2651 138.193 41.2651C139.029 41.2651 139.688 41.5483 140.168 42.1147C140.652 42.6812 140.91 43.3647 140.941 44.1655ZM139.863 43.8491C139.816 43.396 139.65 43.0054 139.365 42.6772C139.084 42.3452 138.678 42.1792 138.146 42.1792C137.627 42.1792 137.199 42.3511 136.863 42.6948C136.527 43.0386 136.344 43.4253 136.312 43.855L139.863 43.8491ZM142.889 45.6187H144.951V47.9858H142.889V45.6187ZM153.057 47.6519C152.768 47.8198 152.469 47.9448 152.16 48.0269C151.855 48.1128 151.543 48.1558 151.223 48.1558C150.207 48.1558 149.412 47.8511 148.838 47.2417C148.268 46.6323 147.982 45.7886 147.982 44.7104C147.982 43.6323 148.268 42.7886 148.838 42.1792C149.412 41.5698 150.207 41.2651 151.223 41.2651C151.539 41.2651 151.848 41.3062 152.148 41.3882C152.449 41.4702 152.752 41.5972 153.057 41.769V42.8999C152.771 42.646 152.484 42.4624 152.195 42.3491C151.91 42.2358 151.586 42.1792 151.223 42.1792C150.547 42.1792 150.027 42.3979 149.664 42.8354C149.301 43.2729 149.119 43.8979 149.119 44.7104C149.119 45.519 149.301 46.144 149.664 46.5854C150.031 47.0229 150.551 47.2417 151.223 47.2417C151.598 47.2417 151.934 47.1851 152.23 47.0718C152.527 46.9546 152.803 46.7749 153.057 46.5327V47.6519ZM153.656 41.4233H154.775L156.68 46.9312L158.59 41.4233H159.709L157.377 47.9858H155.988L153.656 41.4233ZM165.002 41.6519V42.7065C164.693 42.5269 164.383 42.3921 164.07 42.3022C163.758 42.2124 163.439 42.1675 163.115 42.1675C162.627 42.1675 162.262 42.2476 162.02 42.4077C161.781 42.564 161.662 42.8042 161.662 43.1284C161.662 43.4214 161.752 43.6401 161.932 43.7847C162.111 43.9292 162.559 44.0698 163.273 44.2065L163.707 44.2886C164.242 44.3901 164.646 44.5933 164.92 44.8979C165.197 45.2026 165.336 45.5991 165.336 46.0874C165.336 46.7358 165.105 47.2437 164.645 47.6108C164.184 47.9741 163.543 48.1558 162.723 48.1558C162.398 48.1558 162.059 48.1206 161.703 48.0503C161.348 47.9839 160.963 47.8823 160.549 47.7456V46.6323C160.951 46.8394 161.336 46.9956 161.703 47.1011C162.07 47.2026 162.418 47.2534 162.746 47.2534C163.223 47.2534 163.592 47.1577 163.854 46.9663C164.115 46.771 164.246 46.4995 164.246 46.1519C164.246 45.6519 163.768 45.3062 162.811 45.1147L162.764 45.103L162.359 45.021C161.738 44.8999 161.285 44.6968 161 44.4116C160.715 44.1226 160.572 43.73 160.572 43.2339C160.572 42.605 160.785 42.1206 161.211 41.7808C161.637 41.437 162.244 41.2651 163.033 41.2651C163.385 41.2651 163.723 41.2983 164.047 41.3647C164.371 41.4272 164.689 41.5229 165.002 41.6519ZM168.818 38.8687H170.295V40.0757L169.141 42.3198H168.244L168.818 40.0757V38.8687Z" fill="#23A9F2"/>
<g filter="url(#filter0_d_1527_25442)">
<rect x="191" y="116.986" width="161" height="36" rx="4" fill="#1F2228"/>
<path d="M191 120.986C191 118.777 192.791 116.986 195 116.986V116.986V152.986V152.986C192.791 152.986 191 151.195 191 148.986V120.986Z" fill="#00C543"/>
<path d="M195 116.986H348C350.209 116.986 352 118.777 352 120.986V149.986C352 152.195 350.209 153.986 348 153.986H195V116.986Z" fill="#383838"/>
<path d="M210.287 139.675C209.986 139.835 209.678 139.955 209.361 140.033C209.045 140.115 208.709 140.156 208.354 140.156C207.232 140.156 206.361 139.759 205.74 138.966C205.123 138.173 204.814 137.058 204.814 135.621C204.814 134.191 205.125 133.078 205.746 132.281C206.371 131.48 207.24 131.08 208.354 131.08C208.709 131.08 209.045 131.121 209.361 131.203C209.678 131.281 209.986 131.4 210.287 131.56V132.773C209.998 132.535 209.688 132.353 209.355 132.228C209.023 132.103 208.689 132.041 208.354 132.041C207.584 132.041 207.008 132.337 206.625 132.931C206.242 133.525 206.051 134.421 206.051 135.621C206.051 136.816 206.242 137.71 206.625 138.304C207.008 138.898 207.584 139.195 208.354 139.195C208.697 139.195 209.033 139.132 209.361 139.007C209.693 138.882 210.002 138.701 210.287 138.462V139.675ZM213.84 134.179C213.293 134.179 212.879 134.392 212.598 134.818C212.316 135.244 212.176 135.875 212.176 136.71C212.176 137.542 212.316 138.173 212.598 138.603C212.879 139.029 213.293 139.242 213.84 139.242C214.391 139.242 214.807 139.029 215.088 138.603C215.369 138.173 215.51 137.542 215.51 136.71C215.51 135.875 215.369 135.244 215.088 134.818C214.807 134.392 214.391 134.179 213.84 134.179ZM213.84 133.265C214.75 133.265 215.445 133.56 215.926 134.15C216.41 134.74 216.652 135.593 216.652 136.71C216.652 137.832 216.412 138.687 215.932 139.277C215.451 139.863 214.754 140.156 213.84 140.156C212.93 140.156 212.234 139.863 211.754 139.277C211.273 138.687 211.033 137.832 211.033 136.71C211.033 135.593 211.273 134.74 211.754 134.15C212.234 133.56 212.93 133.265 213.84 133.265ZM221.488 134.261V130.869H222.566V139.986H221.488V139.16C221.309 139.484 221.068 139.732 220.768 139.904C220.471 140.072 220.127 140.156 219.736 140.156C218.943 140.156 218.318 139.849 217.861 139.236C217.408 138.619 217.182 137.769 217.182 136.687C217.182 135.621 217.41 134.785 217.867 134.179C218.324 133.57 218.947 133.265 219.736 133.265C220.131 133.265 220.479 133.351 220.779 133.523C221.08 133.691 221.316 133.937 221.488 134.261ZM218.318 136.71C218.318 137.546 218.451 138.177 218.717 138.603C218.982 139.029 219.375 139.242 219.895 139.242C220.414 139.242 220.809 139.027 221.078 138.597C221.352 138.167 221.488 137.539 221.488 136.71C221.488 135.878 221.352 135.25 221.078 134.824C220.809 134.394 220.414 134.179 219.895 134.179C219.375 134.179 218.982 134.392 218.717 134.818C218.451 135.244 218.318 135.875 218.318 136.71ZM229.254 136.166V136.693H224.584V136.728C224.553 137.623 224.723 138.265 225.094 138.656C225.469 139.046 225.996 139.242 226.676 139.242C227.02 139.242 227.379 139.187 227.754 139.078C228.129 138.968 228.529 138.802 228.955 138.58V139.652C228.545 139.82 228.148 139.945 227.766 140.027C227.387 140.113 227.02 140.156 226.664 140.156C225.645 140.156 224.848 139.851 224.273 139.242C223.699 138.628 223.412 137.785 223.412 136.71C223.412 135.664 223.693 134.828 224.256 134.203C224.818 133.578 225.568 133.265 226.506 133.265C227.342 133.265 228 133.548 228.48 134.115C228.965 134.681 229.223 135.365 229.254 136.166ZM228.176 135.849C228.129 135.396 227.963 135.005 227.678 134.677C227.396 134.345 226.99 134.179 226.459 134.179C225.939 134.179 225.512 134.351 225.176 134.695C224.84 135.039 224.656 135.425 224.625 135.855L228.176 135.849ZM241.082 131.537V132.738C240.723 132.507 240.361 132.333 239.998 132.216C239.639 132.099 239.275 132.041 238.908 132.041C238.35 132.041 237.908 132.171 237.584 132.433C237.26 132.691 237.098 133.041 237.098 133.482C237.098 133.869 237.203 134.164 237.414 134.367C237.629 134.57 238.027 134.74 238.609 134.876L239.23 135.017C240.051 135.208 240.648 135.509 241.023 135.919C241.398 136.33 241.586 136.888 241.586 137.595C241.586 138.427 241.328 139.062 240.812 139.5C240.297 139.937 239.547 140.156 238.562 140.156C238.152 140.156 237.74 140.111 237.326 140.021C236.912 139.935 236.496 139.804 236.078 139.628V138.369C236.527 138.654 236.951 138.863 237.35 138.996C237.752 139.128 238.156 139.195 238.562 139.195C239.16 139.195 239.625 139.062 239.957 138.796C240.289 138.527 240.455 138.152 240.455 137.671C240.455 137.234 240.34 136.9 240.109 136.669C239.883 136.439 239.486 136.261 238.92 136.136L238.287 135.99C237.475 135.806 236.885 135.529 236.518 135.158C236.15 134.787 235.967 134.289 235.967 133.664C235.967 132.882 236.229 132.257 236.752 131.789C237.279 131.316 237.979 131.08 238.85 131.08C239.186 131.08 239.539 131.119 239.91 131.197C240.281 131.271 240.672 131.384 241.082 131.537ZM247.541 135.919V139.986H246.457V135.919C246.457 135.33 246.354 134.896 246.146 134.619C245.939 134.341 245.615 134.203 245.174 134.203C244.67 134.203 244.281 134.382 244.008 134.742C243.738 135.097 243.604 135.609 243.604 136.277V139.986H242.525V133.423H243.604V134.408C243.795 134.033 244.055 133.75 244.383 133.558C244.711 133.363 245.1 133.265 245.549 133.265C246.217 133.265 246.715 133.486 247.043 133.927C247.375 134.365 247.541 135.029 247.541 135.919ZM249.465 133.447H252.225V139.148H254.363V139.986H249.008V139.148H251.146V134.285H249.465V133.447ZM251.146 130.898H252.225V132.257H251.146V130.898ZM256.041 139.16V142.482H254.957V133.423H256.041V134.261C256.221 133.937 256.459 133.691 256.756 133.523C257.057 133.351 257.402 133.265 257.793 133.265C258.586 133.265 259.207 133.572 259.656 134.185C260.109 134.798 260.336 135.648 260.336 136.734C260.336 137.8 260.109 138.638 259.656 139.248C259.203 139.853 258.582 140.156 257.793 140.156C257.395 140.156 257.045 140.072 256.744 139.904C256.447 139.732 256.213 139.484 256.041 139.16ZM259.205 136.71C259.205 135.875 259.072 135.244 258.807 134.818C258.545 134.392 258.154 134.179 257.635 134.179C257.111 134.179 256.715 134.394 256.445 134.824C256.176 135.25 256.041 135.878 256.041 136.71C256.041 137.539 256.176 138.167 256.445 138.597C256.715 139.027 257.111 139.242 257.635 139.242C258.154 139.242 258.545 139.029 258.807 138.603C259.072 138.177 259.205 137.546 259.205 136.71ZM262.271 139.16V142.482H261.188V133.423H262.271V134.261C262.451 133.937 262.689 133.691 262.986 133.523C263.287 133.351 263.633 133.265 264.023 133.265C264.816 133.265 265.438 133.572 265.887 134.185C266.34 134.798 266.566 135.648 266.566 136.734C266.566 137.8 266.34 138.638 265.887 139.248C265.434 139.853 264.812 140.156 264.023 140.156C263.625 140.156 263.275 140.072 262.975 139.904C262.678 139.732 262.443 139.484 262.271 139.16ZM265.436 136.71C265.436 135.875 265.303 135.244 265.037 134.818C264.775 134.392 264.385 134.179 263.865 134.179C263.342 134.179 262.945 134.394 262.676 134.824C262.406 135.25 262.271 135.878 262.271 136.71C262.271 137.539 262.406 138.167 262.676 138.597C262.945 139.027 263.342 139.242 263.865 139.242C264.385 139.242 264.775 139.029 265.037 138.603C265.303 138.177 265.436 137.546 265.436 136.71ZM272.867 136.166V136.693H268.197V136.728C268.166 137.623 268.336 138.265 268.707 138.656C269.082 139.046 269.609 139.242 270.289 139.242C270.633 139.242 270.992 139.187 271.367 139.078C271.742 138.968 272.143 138.802 272.568 138.58V139.652C272.158 139.82 271.762 139.945 271.379 140.027C271 140.113 270.633 140.156 270.277 140.156C269.258 140.156 268.461 139.851 267.887 139.242C267.312 138.628 267.025 137.785 267.025 136.71C267.025 135.664 267.307 134.828 267.869 134.203C268.432 133.578 269.182 133.265 270.119 133.265C270.955 133.265 271.613 133.548 272.094 134.115C272.578 134.681 272.836 135.365 272.867 136.166ZM271.789 135.849C271.742 135.396 271.576 135.005 271.291 134.677C271.01 134.345 270.604 134.179 270.072 134.179C269.553 134.179 269.125 134.351 268.789 134.695C268.453 135.039 268.27 135.425 268.238 135.855L271.789 135.849ZM276.133 131.56V133.423H278.582V134.261H276.133V137.824C276.133 138.308 276.225 138.646 276.408 138.837C276.592 139.029 276.912 139.125 277.369 139.125H278.582V139.986H277.264C276.455 139.986 275.885 139.824 275.553 139.5C275.221 139.175 275.055 138.617 275.055 137.824V134.261H273.303V133.423H275.055V131.56H276.133ZM286.848 133.447H289.607V139.148H291.746V139.986H286.391V139.148H288.529V134.285H286.848V133.447ZM288.529 130.898H289.607V132.257H288.529V130.898ZM295.188 134.091C295.32 133.81 295.488 133.603 295.691 133.47C295.898 133.333 296.146 133.265 296.436 133.265C296.963 133.265 297.334 133.47 297.549 133.88C297.768 134.287 297.877 135.054 297.877 136.183V139.986H296.893V136.23C296.893 135.304 296.84 134.73 296.734 134.507C296.633 134.281 296.445 134.167 296.172 134.167C295.859 134.167 295.645 134.289 295.527 134.531C295.414 134.769 295.357 135.335 295.357 136.23V139.986H294.373V136.23C294.373 135.292 294.316 134.714 294.203 134.496C294.094 134.277 293.895 134.167 293.605 134.167C293.32 134.167 293.121 134.289 293.008 134.531C292.898 134.769 292.844 135.335 292.844 136.23V139.986H291.865V133.423H292.844V133.986C292.973 133.751 293.133 133.574 293.324 133.453C293.52 133.328 293.74 133.265 293.986 133.265C294.283 133.265 294.529 133.333 294.725 133.47C294.924 133.607 295.078 133.814 295.188 134.091ZM299.654 139.16V142.482H298.57V133.423H299.654V134.261C299.834 133.937 300.072 133.691 300.369 133.523C300.67 133.351 301.016 133.265 301.406 133.265C302.199 133.265 302.82 133.572 303.27 134.185C303.723 134.798 303.949 135.648 303.949 136.734C303.949 137.8 303.723 138.638 303.27 139.248C302.816 139.853 302.195 140.156 301.406 140.156C301.008 140.156 300.658 140.072 300.357 139.904C300.061 139.732 299.826 139.484 299.654 139.16ZM302.818 136.71C302.818 135.875 302.686 135.244 302.42 134.818C302.158 134.392 301.768 134.179 301.248 134.179C300.725 134.179 300.328 134.394 300.059 134.824C299.789 135.25 299.654 135.878 299.654 136.71C299.654 137.539 299.789 138.167 300.059 138.597C300.328 139.027 300.725 139.242 301.248 139.242C301.768 139.242 302.158 139.029 302.42 138.603C302.686 138.177 302.818 137.546 302.818 136.71ZM307.297 134.179C306.75 134.179 306.336 134.392 306.055 134.818C305.773 135.244 305.633 135.875 305.633 136.71C305.633 137.542 305.773 138.173 306.055 138.603C306.336 139.029 306.75 139.242 307.297 139.242C307.848 139.242 308.264 139.029 308.545 138.603C308.826 138.173 308.967 137.542 308.967 136.71C308.967 135.875 308.826 135.244 308.545 134.818C308.264 134.392 307.848 134.179 307.297 134.179ZM307.297 133.265C308.207 133.265 308.902 133.56 309.383 134.15C309.867 134.74 310.109 135.593 310.109 136.71C310.109 137.832 309.869 138.687 309.389 139.277C308.908 139.863 308.211 140.156 307.297 140.156C306.387 140.156 305.691 139.863 305.211 139.277C304.73 138.687 304.49 137.832 304.49 136.71C304.49 135.593 304.73 134.74 305.211 134.15C305.691 133.56 306.387 133.265 307.297 133.265ZM316.686 134.777C316.455 134.597 316.221 134.466 315.982 134.384C315.744 134.302 315.482 134.261 315.197 134.261C314.525 134.261 314.012 134.472 313.656 134.894C313.301 135.316 313.123 135.925 313.123 136.722V139.986H312.039V133.423H313.123V134.707C313.303 134.242 313.578 133.886 313.949 133.64C314.324 133.39 314.768 133.265 315.279 133.265C315.545 133.265 315.793 133.298 316.023 133.365C316.254 133.431 316.475 133.535 316.686 133.675V134.777ZM319.746 131.56V133.423H322.195V134.261H319.746V137.824C319.746 138.308 319.838 138.646 320.021 138.837C320.205 139.029 320.525 139.125 320.982 139.125H322.195V139.986H320.877C320.068 139.986 319.498 139.824 319.166 139.5C318.834 139.175 318.668 138.617 318.668 137.824V134.261H316.916V133.423H318.668V131.56H319.746ZM328.941 136.166V136.693H324.271V136.728C324.24 137.623 324.41 138.265 324.781 138.656C325.156 139.046 325.684 139.242 326.363 139.242C326.707 139.242 327.066 139.187 327.441 139.078C327.816 138.968 328.217 138.802 328.643 138.58V139.652C328.232 139.82 327.836 139.945 327.453 140.027C327.074 140.113 326.707 140.156 326.352 140.156C325.332 140.156 324.535 139.851 323.961 139.242C323.387 138.628 323.1 137.785 323.1 136.71C323.1 135.664 323.381 134.828 323.943 134.203C324.506 133.578 325.256 133.265 326.193 133.265C327.029 133.265 327.688 133.548 328.168 134.115C328.652 134.681 328.91 135.365 328.941 136.166ZM327.863 135.849C327.816 135.396 327.65 135.005 327.365 134.677C327.084 134.345 326.678 134.179 326.146 134.179C325.627 134.179 325.199 134.351 324.863 134.695C324.527 135.039 324.344 135.425 324.312 135.855L327.863 135.849ZM333.637 134.261V130.869H334.715V139.986H333.637V139.16C333.457 139.484 333.217 139.732 332.916 139.904C332.619 140.072 332.275 140.156 331.885 140.156C331.092 140.156 330.467 139.849 330.01 139.236C329.557 138.619 329.33 137.769 329.33 136.687C329.33 135.621 329.559 134.785 330.016 134.179C330.473 133.57 331.096 133.265 331.885 133.265C332.279 133.265 332.627 133.351 332.928 133.523C333.229 133.691 333.465 133.937 333.637 134.261ZM330.467 136.71C330.467 137.546 330.6 138.177 330.865 138.603C331.131 139.029 331.523 139.242 332.043 139.242C332.562 139.242 332.957 139.027 333.227 138.597C333.5 138.167 333.637 137.539 333.637 136.71C333.637 135.878 333.5 135.25 333.227 134.824C332.957 134.394 332.562 134.179 332.043 134.179C331.523 134.179 331.131 134.392 330.865 134.818C330.6 135.244 330.467 135.875 330.467 136.71ZM338.039 131.238H339.229V135.076L339.105 136.875H338.162L338.039 135.076V131.238ZM337.863 138.498H339.404V139.986H337.863V138.498Z" fill="white"/>
</g>
<defs>
<filter id="filter0_d_1527_25442" x="176" y="101.986" width="193" height="69" filterUnits="userSpaceOnUse" color-interpolation-filters="sRGB">
<feFlood flood-opacity="0" result="BackgroundImageFix"/>
<feColorMatrix in="SourceAlpha" type="matrix" values="0 0 0 0 0 0 0 0 0 0 0 0 0 0 0 0 0 0 127 0" result="hardAlpha"/>
<feOffset dx="1" dy="1"/>
<feGaussianBlur stdDeviation="8"/>
<feColorMatrix type="matrix" values="0 0 0 0 0.101961 0 0 0 0 0.101961 0 0 0 0 0.101961 0 0 0 0.65 0"/>
<feBlend mode="normal" in2="BackgroundImageFix" result="effect1_dropShadow_1527_25442"/>
<feBlend mode="normal" in="SourceGraphic" in2="effect1_dropShadow_1527_25442" result="shape"/>
</filter>
</defs>
</svg>
