<svg width="14" height="13" viewBox="0 0 14 13" fill="none" xmlns="http://www.w3.org/2000/svg">
<path d="M10.8499 12.2323C10.7925 12.2323 10.7351 12.2183 10.6826 12.1896L6.99995 10.1813L3.31725 12.1896C3.19965 12.254 3.05615 12.2449 2.94695 12.1672C2.83775 12.0895 2.78245 11.9565 2.80485 11.8242L3.47545 7.80197L0.802847 5.12937C0.710447 5.03697 0.676847 4.89978 0.716747 4.77518C0.756647 4.65058 0.863047 4.55817 0.992547 4.53647L5.01685 3.86588L6.68705 0.525475C6.74655 0.407175 6.86765 0.332275 6.99995 0.332275C7.13225 0.332275 7.25405 0.407175 7.31285 0.525475L8.98305 3.86588L13.0073 4.53647C13.1368 4.55817 13.2432 4.64988 13.2831 4.77518C13.323 4.90048 13.2901 5.03697 13.197 5.12937L10.5244 7.80197L11.195 11.8242C11.2167 11.9565 11.1614 12.0895 11.0529 12.1672C10.9927 12.2099 10.9213 12.2323 10.8499 12.2323ZM6.99995 9.43227C7.05735 9.43227 7.11545 9.44627 7.16725 9.47497L10.3865 11.2306L9.80485 7.73967C9.78595 7.62837 9.82235 7.51427 9.90285 7.43447L12.2219 5.11538L8.69255 4.52738C8.58195 4.50917 8.48745 4.43848 8.43705 4.33838L6.99995 1.46418L5.56285 4.33838C5.51245 4.43848 5.41795 4.50847 5.30735 4.52738L1.77795 5.11538L4.09705 7.43447C4.17685 7.51427 4.21325 7.62767 4.19505 7.73967L3.61335 11.2306L6.83265 9.47497C6.88515 9.44627 6.94255 9.43227 6.99995 9.43227Z" fill="white"/>
</svg>
