<svg width="160" height="25" viewBox="0 0 160 25" fill="none" xmlns="http://www.w3.org/2000/svg">
<path fill-rule="evenodd" clip-rule="evenodd" d="M0.392958 5.8755L5.76011 0.399341C6.00157 0.153807 6.32558 0.0112548 6.66633 0.000638446C7.00708 -0.00997791 7.33901 0.112137 7.59471 0.342182C7.8504 0.572227 8.0107 0.892951 8.04302 1.23921C8.07535 1.58547 7.97729 1.93131 7.76876 2.20647L7.65739 2.33516L3.23889 6.84341L7.65739 11.3517C7.9006 11.5975 8.04253 11.9288 8.05414 12.2779C8.06575 12.627 7.94615 12.9674 7.71983 13.2294C7.49352 13.4915 7.17759 13.6554 6.83673 13.6875C6.49586 13.7197 6.15583 13.6177 5.88624 13.4025L5.76011 13.2875L0.392958 7.81132C0.161933 7.57559 0.0231504 7.26194 0.00264628 6.92923C-0.0178578 6.59651 0.0813258 6.2676 0.281589 6.00419L0.392958 5.8755ZM8.34415 22.0219V22.0234L8.28381 22.1892C8.17575 22.5576 8.21242 22.9534 8.38634 23.2957C8.56026 23.638 8.85833 23.9011 9.21972 24.0313C9.58111 24.1615 9.9786 24.149 10.3311 23.9963C10.6835 23.8436 10.9644 23.5623 11.1165 23.2097L20.1604 2.10035L20.2207 1.93454C20.3288 1.56612 20.2921 1.17038 20.1182 0.828065C19.9443 0.485747 19.6462 0.222648 19.2848 0.0924518C18.9234 -0.0377449 18.526 -0.0252274 18.1735 0.12745C17.821 0.280127 17.5401 0.561457 17.3881 0.914038L8.34415 22.0219ZM20.3507 11.9744L25.7804 8.06997C26.0158 7.80561 26.3498 7.63251 26.7145 7.58582C27.0793 7.53913 27.4474 7.62236 27.744 7.81861C28.0407 8.01485 28.2438 8.30939 28.3119 8.6424C28.3801 8.97542 28.3083 9.32193 28.111 9.61157L28.0039 9.74851L23.499 12.6112L28.6773 16.5202C28.9621 16.7331 29.1465 17.0399 29.1927 17.3779C29.2388 17.7159 29.1434 18.0594 28.9258 18.3382L28.9106 18.3572L28.9028 18.3677L28.7958 18.491L28.7701 18.5069C28.6341 18.6322 28.4731 18.7317 28.2966 18.7998L23.1539 21.9814C22.9048 22.2372 22.5608 22.3973 22.192 22.4291C21.8232 22.4609 21.4574 22.3619 21.1694 22.1523C20.8813 21.9427 20.6926 21.6384 20.6418 21.3014C20.591 20.9644 20.6819 20.6202 20.896 20.3389L21.003 20.2155L21.0035 20.2142L25.3775 17.5089L20.5378 13.8555C20.267 13.651 20.0877 13.3611 20.0336 13.04C19.9794 12.7189 20.0541 12.3887 20.2436 12.1113L20.3507 11.9744Z" fill="url(#paint0_linear_1945_5032)"/>
<path d="M36.5 11.8245C36.5 11.0294 36.6618 10.336 36.9854 9.74433C37.309 9.14339 37.7574 8.68112 38.3306 8.35753C38.9038 8.0247 39.5602 7.85828 40.2998 7.85828C41.2521 7.85828 42.038 8.09866 42.6574 8.57942C43.2861 9.05093 43.7067 9.7166 43.9194 10.5764H41.8253C41.7144 10.2436 41.5248 9.98471 41.2567 9.7998C40.9979 9.60565 40.6743 9.50857 40.286 9.50857C39.7312 9.50857 39.2921 9.71197 38.9685 10.1188C38.6449 10.5163 38.4831 11.0849 38.4831 11.8245C38.4831 12.5549 38.6449 13.1235 38.9685 13.5303C39.2921 13.9278 39.7312 14.1266 40.286 14.1266C41.0718 14.1266 41.5849 13.7753 41.8253 13.0726H43.9194C43.7067 13.9047 43.2861 14.5658 42.6574 15.0558C42.0287 15.5458 41.2429 15.7908 40.2998 15.7908C39.5602 15.7908 38.9038 15.629 38.3306 15.3054C37.7574 14.9726 37.309 14.5103 36.9854 13.9186C36.6618 13.3177 36.5 12.6196 36.5 11.8245Z" fill="white"/>
<path d="M48.4065 15.7908C47.6669 15.7908 47.0013 15.629 46.4095 15.3054C45.8178 14.9726 45.351 14.5057 45.0089 13.9047C44.6761 13.3038 44.5096 12.6104 44.5096 11.8245C44.5096 11.0387 44.6807 10.3453 45.0227 9.74433C45.3741 9.14339 45.8502 8.68112 46.4512 8.35753C47.0521 8.0247 47.7224 7.85828 48.462 7.85828C49.2016 7.85828 49.8719 8.0247 50.4729 8.35753C51.0738 8.68112 51.5453 9.14339 51.8874 9.74433C52.2387 10.3453 52.4144 11.0387 52.4144 11.8245C52.4144 12.6104 52.2341 13.3038 51.8735 13.9047C51.5222 14.5057 51.0415 14.9726 50.4313 15.3054C49.8303 15.629 49.1554 15.7908 48.4065 15.7908ZM48.4065 14.0989C48.7579 14.0989 49.0861 14.0157 49.3912 13.8493C49.7055 13.6736 49.9551 13.4147 50.14 13.0726C50.3249 12.7306 50.4174 12.3145 50.4174 11.8245C50.4174 11.0942 50.2232 10.5348 49.8349 10.1465C49.4559 9.74895 48.989 9.55018 48.4343 9.55018C47.8796 9.55018 47.4127 9.74895 47.0336 10.1465C46.6638 10.5348 46.4789 11.0942 46.4789 11.8245C46.4789 12.5549 46.6592 13.1189 47.0197 13.5164C47.3896 13.9047 47.8518 14.0989 48.4065 14.0989Z" fill="white"/>
<path d="M52.9926 11.7968C52.9926 11.0202 53.1452 10.3314 53.4503 9.73046C53.7646 9.12952 54.1899 8.66725 54.7261 8.34366C55.2623 8.02008 55.8587 7.85828 56.5151 7.85828C57.0143 7.85828 57.4905 7.96923 57.9435 8.19112C58.3965 8.40376 58.7571 8.69036 59.0252 9.05093V5.40365H60.9945V15.666H59.0252V14.5288C58.7848 14.9078 58.4474 15.2129 58.0128 15.4441C57.5783 15.6752 57.0744 15.7908 56.5012 15.7908C55.8541 15.7908 55.2623 15.6244 54.7261 15.2915C54.1899 14.9587 53.7646 14.4918 53.4503 13.8909C53.1452 13.2807 52.9926 12.5826 52.9926 11.7968ZM59.0391 11.8245C59.0391 11.353 58.9466 10.9508 58.7617 10.618C58.5768 10.2759 58.3272 10.0171 58.0128 9.84141C57.6985 9.6565 57.361 9.56405 57.0005 9.56405C56.6399 9.56405 56.3071 9.65188 56.002 9.82754C55.6969 10.0032 55.4473 10.2621 55.2531 10.6041C55.0682 10.937 54.9757 11.3345 54.9757 11.7968C54.9757 12.2591 55.0682 12.6659 55.2531 13.0172C55.4473 13.3593 55.6969 13.6227 56.002 13.8077C56.3163 13.9926 56.6491 14.085 57.0005 14.085C57.361 14.085 57.6985 13.9972 58.0128 13.8215C58.3272 13.6366 58.5768 13.3777 58.7617 13.0449C58.9466 12.7028 59.0391 12.296 59.0391 11.8245Z" fill="white"/>
<path d="M69.686 11.6581C69.686 11.9355 69.6675 12.1851 69.6305 12.407H64.014C64.0602 12.9617 64.2544 13.3962 64.5964 13.7106C64.9385 14.0249 65.3592 14.1821 65.8584 14.1821C66.5796 14.1821 67.0927 13.8724 67.3978 13.2529H69.4919C69.27 13.9926 68.8447 14.6028 68.216 15.0835C67.5873 15.555 66.8153 15.7908 65.9 15.7908C65.1604 15.7908 64.4948 15.629 63.903 15.3054C63.3206 14.9726 62.863 14.5057 62.5301 13.9047C62.2065 13.3038 62.0447 12.6104 62.0447 11.8245C62.0447 11.0294 62.2065 10.3314 62.5301 9.73046C62.8537 9.12952 63.3067 8.66725 63.8892 8.34366C64.4716 8.02008 65.1419 7.85828 65.9 7.85828C66.6304 7.85828 67.2822 8.01545 67.8554 8.3298C68.4379 8.64414 68.8863 9.09254 69.2006 9.67499C69.5242 10.2482 69.686 10.9092 69.686 11.6581ZM67.6751 11.1034C67.6659 10.6041 67.4856 10.2066 67.1343 9.91075C66.783 9.60565 66.3531 9.4531 65.8446 9.4531C65.3638 9.4531 64.957 9.60103 64.6242 9.89688C64.3006 10.1835 64.1018 10.5857 64.0279 11.1034H67.6751Z" fill="white"/>
<path d="M76.6542 15.7908C76.0256 15.7908 75.4616 15.6798 74.9623 15.4579C74.4631 15.2268 74.0655 14.9171 73.7697 14.5288C73.4831 14.1405 73.3259 13.7106 73.2982 13.2391H75.2536C75.2906 13.5349 75.4339 13.7799 75.6835 13.9741C75.9423 14.1682 76.2613 14.2653 76.6404 14.2653C77.0102 14.2653 77.2968 14.1913 77.5002 14.0434C77.7128 13.8955 77.8191 13.706 77.8191 13.4748C77.8191 13.2252 77.6897 13.0403 77.4308 12.9201C77.1812 12.7907 76.779 12.652 76.2243 12.5041C75.6511 12.3654 75.1796 12.2221 74.8098 12.0742C74.4492 11.9262 74.1349 11.6997 73.8668 11.3946C73.6079 11.0895 73.4785 10.6781 73.4785 10.1604C73.4785 9.73509 73.5987 9.34678 73.839 8.99546C74.0887 8.64414 74.44 8.36678 74.893 8.16338C75.3553 7.95998 75.8961 7.85828 76.5156 7.85828C77.4308 7.85828 78.1612 8.08942 78.7067 8.55168C79.2522 9.0047 79.5526 9.61952 79.6081 10.3961H77.7498C77.7221 10.091 77.5926 9.85065 77.3615 9.67499C77.1396 9.49008 76.8391 9.39763 76.4601 9.39763C76.1088 9.39763 75.836 9.46235 75.6419 9.59178C75.457 9.72122 75.3645 9.9015 75.3645 10.1326C75.3645 10.3915 75.4939 10.5903 75.7528 10.729C76.0117 10.8584 76.4139 10.9925 76.9593 11.1311C77.5141 11.2698 77.9717 11.4131 78.3323 11.561C78.6928 11.709 79.0026 11.9401 79.2614 12.2544C79.5295 12.5595 79.6682 12.9663 79.6775 13.4748C79.6775 13.9186 79.5527 14.3161 79.303 14.6675C79.0626 15.0188 78.7113 15.2962 78.2491 15.4995C77.796 15.6937 77.2644 15.7908 76.6542 15.7908Z" fill="white"/>
<path d="M85.182 7.87215C86.0973 7.87215 86.8369 8.16338 87.4008 8.74584C87.9648 9.31905 88.2468 10.1234 88.2468 11.1589V15.666H86.3053V11.4224C86.3053 10.8122 86.1527 10.3453 85.8476 10.0217C85.5425 9.68886 85.1265 9.52244 84.5995 9.52244C84.0633 9.52244 83.638 9.68886 83.3237 10.0217C83.0186 10.3453 82.866 10.8122 82.866 11.4224V15.666H80.9245V7.9831H82.866V8.93999C83.1249 8.60716 83.4531 8.34829 83.8506 8.16338C84.2574 7.96923 84.7012 7.87215 85.182 7.87215Z" fill="white"/>
<path d="M90.731 7.06781C90.3889 7.06781 90.1023 6.96149 89.8712 6.74884C89.6493 6.52696 89.5384 6.25422 89.5384 5.93063C89.5384 5.60705 89.6493 5.33893 89.8712 5.12629C90.1023 4.9044 90.3889 4.79346 90.731 4.79346C91.0731 4.79346 91.3551 4.9044 91.577 5.12629C91.8081 5.33893 91.9237 5.60705 91.9237 5.93063C91.9237 6.25422 91.8081 6.52696 91.577 6.74884C91.3551 6.96149 91.0731 7.06781 90.731 7.06781ZM91.6879 7.9831V15.666H89.7464V7.9831H91.6879Z" fill="white"/>
<path d="M95.2009 9.09254C95.4506 8.74121 95.7926 8.44999 96.2272 8.21885C96.671 7.97847 97.1748 7.85828 97.7388 7.85828C98.3952 7.85828 98.9869 8.02008 99.5139 8.34366C100.05 8.66725 100.471 9.12952 100.776 9.73046C101.09 10.3222 101.247 11.0109 101.247 11.7968C101.247 12.5826 101.09 13.2807 100.776 13.8909C100.471 14.4918 100.05 14.9587 99.5139 15.2915C98.9869 15.6244 98.3952 15.7908 97.7388 15.7908C97.1748 15.7908 96.6756 15.6752 96.241 15.4441C95.8158 15.2129 95.4691 14.9217 95.2009 14.5704V19.3271H93.2594V7.9831H95.2009V9.09254ZM99.2643 11.7968C99.2643 11.3345 99.1672 10.937 98.973 10.6041C98.7881 10.2621 98.5385 10.0032 98.2242 9.82754C97.9191 9.65188 97.5862 9.56405 97.2257 9.56405C96.8743 9.56405 96.5415 9.6565 96.2272 9.84141C95.9221 10.0171 95.6725 10.2759 95.4783 10.618C95.2934 10.9601 95.2009 11.3623 95.2009 11.8245C95.2009 12.2868 95.2934 12.689 95.4783 13.031C95.6725 13.3731 95.9221 13.6366 96.2272 13.8215C96.5415 13.9972 96.8743 14.085 97.2257 14.085C97.5862 14.085 97.9191 13.9926 98.2242 13.8077C98.5385 13.6227 98.7881 13.3593 98.973 13.0172C99.1672 12.6751 99.2643 12.2683 99.2643 11.7968Z" fill="white"/>
<path d="M104.253 9.09254C104.503 8.74121 104.845 8.44999 105.279 8.21885C105.723 7.97847 106.227 7.85828 106.791 7.85828C107.447 7.85828 108.039 8.02008 108.566 8.34366C109.102 8.66725 109.523 9.12952 109.828 9.73046C110.142 10.3222 110.3 11.0109 110.3 11.7968C110.3 12.5826 110.142 13.2807 109.828 13.8909C109.523 14.4918 109.102 14.9587 108.566 15.2915C108.039 15.6244 107.447 15.7908 106.791 15.7908C106.227 15.7908 105.728 15.6752 105.293 15.4441C104.868 15.2129 104.521 14.9217 104.253 14.5704V19.3271H102.312V7.9831H104.253V9.09254ZM108.316 11.7968C108.316 11.3345 108.219 10.937 108.025 10.6041C107.84 10.2621 107.591 10.0032 107.276 9.82754C106.971 9.65188 106.638 9.56405 106.278 9.56405C105.926 9.56405 105.594 9.6565 105.279 9.84141C104.974 10.0171 104.725 10.2759 104.53 10.618C104.346 10.9601 104.253 11.3623 104.253 11.8245C104.253 12.2868 104.346 12.689 104.53 13.031C104.725 13.3731 104.974 13.6366 105.279 13.8215C105.594 13.9972 105.926 14.085 106.278 14.085C106.638 14.085 106.971 13.9926 107.276 13.8077C107.591 13.6227 107.84 13.3593 108.025 13.0172C108.219 12.6751 108.316 12.2683 108.316 11.7968Z" fill="white"/>
<path d="M118.506 11.6581C118.506 11.9355 118.487 12.1851 118.45 12.407H112.834C112.88 12.9617 113.074 13.3962 113.416 13.7106C113.758 14.0249 114.179 14.1821 114.678 14.1821C115.399 14.1821 115.912 13.8724 116.217 13.2529H118.312C118.09 13.9926 117.664 14.6028 117.036 15.0835C116.407 15.555 115.635 15.7908 114.72 15.7908C113.98 15.7908 113.314 15.629 112.723 15.3054C112.14 14.9726 111.683 14.5057 111.35 13.9047C111.026 13.3038 110.864 12.6104 110.864 11.8245C110.864 11.0294 111.026 10.3314 111.35 9.73046C111.673 9.12952 112.126 8.66725 112.709 8.34366C113.291 8.02008 113.962 7.85828 114.72 7.85828C115.45 7.85828 116.102 8.01545 116.675 8.3298C117.258 8.64414 117.706 9.09254 118.02 9.67499C118.344 10.2482 118.506 10.9092 118.506 11.6581ZM116.495 11.1034C116.486 10.6041 116.305 10.2066 115.954 9.91075C115.603 9.60565 115.173 9.4531 114.664 9.4531C114.183 9.4531 113.777 9.60103 113.444 9.89688C113.12 10.1835 112.921 10.5857 112.848 11.1034H116.495Z" fill="white"/>
<path d="M121.837 9.57792V13.2945C121.837 13.5534 121.897 13.7429 122.017 13.8631C122.146 13.9741 122.359 14.0295 122.655 14.0295H123.556V15.666H122.336C120.699 15.666 119.881 14.8709 119.881 13.2807V9.57792H118.966V7.9831H119.881V6.08318H121.837V7.9831H123.556V9.57792H121.837Z" fill="white"/>
<path d="M127.546 15.7908C126.917 15.7908 126.353 15.6798 125.854 15.4579C125.355 15.2268 124.957 14.9171 124.661 14.5288C124.375 14.1405 124.218 13.7106 124.19 13.2391H126.145C126.182 13.5349 126.326 13.7799 126.575 13.9741C126.834 14.1682 127.153 14.2653 127.532 14.2653C127.902 14.2653 128.189 14.1913 128.392 14.0434C128.605 13.8955 128.711 13.706 128.711 13.4748C128.711 13.2252 128.581 13.0403 128.323 12.9201C128.073 12.7907 127.671 12.652 127.116 12.5041C126.543 12.3654 126.071 12.2221 125.702 12.0742C125.341 11.9262 125.027 11.6997 124.759 11.3946C124.5 11.0895 124.37 10.6781 124.37 10.1604C124.37 9.73509 124.49 9.34678 124.731 8.99546C124.98 8.64414 125.332 8.36678 125.785 8.16338C126.247 7.95998 126.788 7.85828 127.407 7.85828C128.323 7.85828 129.053 8.08942 129.598 8.55168C130.144 9.0047 130.444 9.61952 130.5 10.3961H128.642C128.614 10.091 128.484 9.85065 128.253 9.67499C128.031 9.49008 127.731 9.39763 127.352 9.39763C127.001 9.39763 126.728 9.46235 126.534 9.59178C126.349 9.72122 126.256 9.9015 126.256 10.1326C126.256 10.3915 126.386 10.5903 126.645 10.729C126.903 10.8584 127.306 10.9925 127.851 11.1311C128.406 11.2698 128.863 11.4131 129.224 11.561C129.585 11.709 129.894 11.9401 130.153 12.2544C130.421 12.5595 130.56 12.9663 130.569 13.4748C130.569 13.9186 130.444 14.3161 130.195 14.6675C129.954 15.0188 129.603 15.2962 129.141 15.4995C128.688 15.6937 128.156 15.7908 127.546 15.7908Z" fill="white"/>
<path d="M132.676 15.763C132.325 15.763 132.034 15.6567 131.802 15.4441C131.58 15.2222 131.47 14.9495 131.47 14.6259C131.47 14.3023 131.58 14.0342 131.802 13.8215C132.034 13.5996 132.325 13.4887 132.676 13.4887C133.018 13.4887 133.3 13.5996 133.522 13.8215C133.744 14.0342 133.855 14.3023 133.855 14.6259C133.855 14.9495 133.744 15.2222 133.522 15.4441C133.3 15.6567 133.018 15.763 132.676 15.763Z" fill="white"/>
<path d="M135.055 11.4352C135.055 10.6687 135.205 9.98882 135.506 9.39567C135.817 8.80252 136.236 8.34625 136.766 8.02687C137.295 7.70748 137.884 7.54778 138.531 7.54778C139.024 7.54778 139.494 7.65729 139.941 7.8763C140.388 8.08618 140.744 8.36907 141.009 8.72496V5.125H142.953V15.2542H141.009V14.1317C140.772 14.5059 140.439 14.807 140.01 15.0351C139.581 15.2633 139.084 15.3773 138.518 15.3773C137.879 15.3773 137.295 15.2131 136.766 14.8846C136.236 14.5561 135.817 14.0952 135.506 13.5021C135.205 12.8998 135.055 12.2108 135.055 11.4352ZM141.023 11.4626C141.023 10.9972 140.931 10.6002 140.749 10.2717C140.566 9.93407 140.32 9.67856 140.01 9.50518C139.699 9.32267 139.366 9.23141 139.011 9.23141C138.655 9.23141 138.326 9.31811 138.025 9.49149C137.724 9.66487 137.477 9.92038 137.286 10.258C137.103 10.5865 137.012 10.9789 137.012 11.4352C137.012 11.8915 137.103 12.293 137.286 12.6397C137.477 12.9774 137.724 13.2374 138.025 13.42C138.335 13.6025 138.664 13.6937 139.011 13.6937C139.366 13.6937 139.699 13.607 140.01 13.4336C140.32 13.2511 140.566 12.9956 140.749 12.6671C140.931 12.3295 141.023 11.928 141.023 11.4626Z" fill="white"/>
<path d="M151.633 11.2983C151.633 11.5721 151.615 11.8185 151.578 12.0375H146.034C146.08 12.585 146.272 13.0139 146.609 13.3241C146.947 13.6344 147.362 13.7895 147.855 13.7895C148.567 13.7895 149.073 13.4838 149.374 12.8724H151.441C151.222 13.6025 150.803 14.2047 150.182 14.6793C149.561 15.1447 148.799 15.3773 147.896 15.3773C147.166 15.3773 146.509 15.2177 145.925 14.8983C145.35 14.5698 144.898 14.1089 144.57 13.5158C144.25 12.9226 144.091 12.2382 144.091 11.4626C144.091 10.6778 144.25 9.98882 144.57 9.39567C144.889 8.80252 145.336 8.34625 145.911 8.02687C146.486 7.70748 147.148 7.54778 147.896 7.54778C148.617 7.54778 149.26 7.70292 149.826 8.01318C150.401 8.32344 150.844 8.76602 151.154 9.34092C151.473 9.90669 151.633 10.5592 151.633 11.2983ZM149.648 10.7508C149.639 10.258 149.461 9.86563 149.114 9.57362C148.768 9.27248 148.343 9.12191 147.841 9.12191C147.367 9.12191 146.965 9.26792 146.637 9.55993C146.317 9.84281 146.121 10.2398 146.048 10.7508H149.648Z" fill="white"/>
<path d="M156.043 13.4884L157.959 7.67098H159.999L157.193 15.2542H154.866L152.073 7.67098H154.127L156.043 13.4884Z" fill="white"/>
<defs>
<linearGradient id="paint0_linear_1945_5032" x1="14.602" y1="0" x2="14.602" y2="24.1206" gradientUnits="userSpaceOnUse">
<stop stop-color="#23A9F2"/>
<stop offset="1" stop-color="#00C543"/>
</linearGradient>
</defs>
</svg>
