<svg width="120" height="26" viewBox="0 0 120 26" fill="none" xmlns="http://www.w3.org/2000/svg">
<path fill-rule="evenodd" clip-rule="evenodd" d="M12.5626 25.1251C19.5007 25.1251 25.1251 19.5007 25.1251 12.5626C25.1251 5.62445 19.5007 0 12.5626 0C5.62446 0 0 5.62445 0 12.5626C0 19.5007 5.62446 25.1251 12.5626 25.1251ZM10.0502 15.0008L9.11966 16.1835L5.39759 13.1547C5.31038 13.0838 5.23997 12.9938 5.19159 12.8914C5.14321 12.789 5.11808 12.6769 5.11808 12.5633C5.11808 12.4497 5.14321 12.3376 5.19159 12.2352C5.23997 12.1329 5.31038 12.0429 5.39759 11.9719L9.11966 8.94311L10.0502 10.1259L7.05465 12.5633L10.0502 15.0008ZM15.075 10.1259L16.0055 8.94311L19.7276 11.9719C19.8148 12.0429 19.8852 12.1329 19.9336 12.2352C19.9819 12.3376 20.0071 12.4497 20.0071 12.5633C20.0071 12.6769 19.9819 12.789 19.9336 12.8914C19.8852 12.9938 19.8148 13.0838 19.7276 13.1547L16.0055 16.1835L15.075 15.0008L18.0705 12.5633L15.075 10.1259ZM11.8003 19.5418L14.7779 5.91199L13.3241 5.58336L10.3465 19.2131L11.8003 19.5418Z" fill="url(#paint0_linear_2089_3421)"/>
<path d="M34.1088 18.2027C33.1125 18.2027 32.2253 18.0321 31.4474 17.6909C30.6695 17.3497 30.0553 16.8857 29.6049 16.2988C29.1545 15.6983 28.902 15.0295 28.8474 14.2925H32.3072C32.3482 14.6883 32.5324 15.0091 32.86 15.2547C33.1875 15.5004 33.5902 15.6232 34.0679 15.6232C34.5046 15.6232 34.839 15.5413 35.071 15.3776C35.3167 15.2001 35.4395 14.9749 35.4395 14.702C35.4395 14.3744 35.2689 14.1356 34.9277 13.9854C34.5865 13.8217 34.0337 13.6442 33.2694 13.4532C32.4505 13.2621 31.7681 13.0642 31.2222 12.8595C30.6763 12.6411 30.2054 12.3067 29.8096 11.8563C29.4138 11.3923 29.2159 10.7713 29.2159 9.99334C29.2159 9.33823 29.3933 8.74453 29.7482 8.21225C30.1167 7.66632 30.649 7.2364 31.345 6.92249C32.0547 6.60858 32.8941 6.45162 33.8631 6.45162C35.2962 6.45162 36.4222 6.80648 37.2411 7.51619C38.0736 8.22589 38.5513 9.16762 38.6741 10.3414H35.4395C35.3849 9.94557 35.2075 9.63166 34.9072 9.39964C34.6206 9.16762 34.2385 9.05161 33.7608 9.05161C33.3513 9.05161 33.0374 9.1335 32.819 9.29728C32.6007 9.44741 32.4915 9.65896 32.4915 9.93192C32.4915 10.2595 32.6621 10.5051 33.0033 10.6689C33.3582 10.8327 33.9041 10.9965 34.6411 11.1603C35.4873 11.3786 36.1765 11.597 36.7088 11.8154C37.2411 12.0201 37.7051 12.3613 38.1009 12.839C38.5104 13.303 38.7219 13.9309 38.7356 14.7225C38.7356 15.3912 38.5445 15.9917 38.1623 16.524C37.7938 17.0426 37.2547 17.4521 36.545 17.7524C35.849 18.0526 35.0369 18.2027 34.1088 18.2027Z" fill="white"/>
<path d="M47.019 6.49257C48.3565 6.49257 49.4211 6.92931 50.2127 7.8028C51.0179 8.66264 51.4206 9.85003 51.4206 11.365V18.039H47.9403V11.8358C47.9403 11.0715 47.7424 10.4779 47.3466 10.0548C46.9508 9.63166 46.4185 9.42011 45.7497 9.42011C45.081 9.42011 44.5487 9.63166 44.1529 10.0548C43.7571 10.4779 43.5592 11.0715 43.5592 11.8358V18.039H40.0584V6.6154H43.5592V8.13036C43.914 7.62537 44.3917 7.22957 44.9923 6.94296C45.5928 6.6427 46.2684 6.49257 47.019 6.49257Z" fill="white"/>
<path d="M54.795 5.42801C54.1808 5.42801 53.6758 5.25058 53.28 4.89573C52.8979 4.52723 52.7068 4.07683 52.7068 3.54455C52.7068 2.99862 52.8979 2.54823 53.28 2.19338C53.6758 1.82488 54.1808 1.64062 54.795 1.64062C55.3955 1.64062 55.8868 1.82488 56.269 2.19338C56.6648 2.54823 56.8627 2.99862 56.8627 3.54455C56.8627 4.07683 56.6648 4.52723 56.269 4.89573C55.8868 5.25058 55.3955 5.42801 54.795 5.42801ZM56.5351 6.6154V18.039H53.0344V6.6154H56.5351Z" fill="white"/>
<path d="M61.754 8.23272C62.0952 7.70044 62.5661 7.27052 63.1666 6.94296C63.7671 6.6154 64.47 6.45162 65.2752 6.45162C66.2169 6.45162 67.07 6.69047 67.8343 7.16816C68.5986 7.64584 69.1991 8.32826 69.6358 9.21539C70.0862 10.1025 70.3114 11.133 70.3114 12.3067C70.3114 13.4805 70.0862 14.5177 69.6358 15.4185C69.1991 16.3056 68.5986 16.9949 67.8343 17.4862C67.07 17.9639 66.2169 18.2027 65.2752 18.2027C64.4836 18.2027 63.7807 18.039 63.1666 17.7114C62.5661 17.3839 62.0952 16.9608 61.754 16.4421V23.4846H58.2532V6.6154H61.754V8.23272ZM66.7492 12.3067C66.7492 11.4332 66.5036 10.7508 66.0122 10.2595C65.5345 9.7545 64.9408 9.502 64.2311 9.502C63.5351 9.502 62.9414 9.7545 62.45 10.2595C61.9724 10.7645 61.7335 11.4537 61.7335 12.3272C61.7335 13.2007 61.9724 13.8899 62.45 14.3949C62.9414 14.8999 63.5351 15.1524 64.2311 15.1524C64.9272 15.1524 65.5209 14.8999 66.0122 14.3949C66.5036 13.8763 66.7492 13.1802 66.7492 12.3067Z" fill="white"/>
<path d="M77.696 15.0705V18.039H75.9149C74.6456 18.039 73.6561 17.7319 72.9464 17.1177C72.2367 16.4899 71.8819 15.4731 71.8819 14.0673V9.52248H70.4898V6.6154H71.8819V3.83117H75.3826V6.6154H77.6755V9.52248H75.3826V14.1083C75.3826 14.4495 75.4645 14.6952 75.6283 14.8453C75.7921 14.9954 76.065 15.0705 76.4472 15.0705H77.696Z" fill="white"/>
<path d="M80.4649 18.2027C79.8507 18.2027 79.3457 18.0253 78.9499 17.6705C78.5678 17.302 78.3767 16.8516 78.3767 16.3193C78.3767 15.7734 78.5678 15.3161 78.9499 14.9476C79.3457 14.5791 79.8507 14.3949 80.4649 14.3949C81.0654 14.3949 81.5568 14.5791 81.9389 14.9476C82.3347 15.3161 82.5326 15.7734 82.5326 16.3193C82.5326 16.8516 82.3347 17.302 81.9389 17.6705C81.5568 18.0253 81.0654 18.2027 80.4649 18.2027Z" fill="white"/>
<path d="M83.09 12.3067C83.09 11.133 83.3084 10.1025 83.7451 9.21539C84.1955 8.32826 84.8028 7.64584 85.5672 7.16816C86.3315 6.69047 87.1845 6.45162 88.1262 6.45162C88.8768 6.45162 89.5592 6.60858 90.1734 6.92249C90.8012 7.2364 91.2926 7.65949 91.6474 8.19177V2.88944H95.1482V18.039H91.6474V16.4012C91.3199 16.9471 90.849 17.3839 90.2348 17.7114C89.6343 18.039 88.9314 18.2027 88.1262 18.2027C87.1845 18.2027 86.3315 17.9639 85.5672 17.4862C84.8028 16.9949 84.1955 16.3056 83.7451 15.4185C83.3084 14.5177 83.09 13.4805 83.09 12.3067ZM91.6474 12.3272C91.6474 11.4537 91.4018 10.7645 90.9104 10.2595C90.4327 9.7545 89.8459 9.502 89.1498 9.502C88.4537 9.502 87.8601 9.7545 87.3687 10.2595C86.891 10.7508 86.6522 11.4332 86.6522 12.3067C86.6522 13.1802 86.891 13.8763 87.3687 14.3949C87.8601 14.8999 88.4537 15.1524 89.1498 15.1524C89.8459 15.1524 90.4327 14.8999 90.9104 14.3949C91.4018 13.8899 91.6474 13.2007 91.6474 12.3272Z" fill="white"/>
<path d="M107.63 12.1429C107.63 12.4705 107.61 12.8117 107.569 13.1666H99.6462C99.7008 13.8763 99.926 14.4222 100.322 14.8043C100.731 15.1728 101.229 15.3571 101.816 15.3571C102.69 15.3571 103.297 14.9886 103.638 14.2516H107.364C107.173 15.0022 106.825 15.6778 106.32 16.2783C105.829 16.8789 105.208 17.3497 104.457 17.6909C103.707 18.0321 102.867 18.2027 101.939 18.2027C100.82 18.2027 99.8236 17.9639 98.9501 17.4862C98.0767 17.0085 97.3942 16.3261 96.9029 15.439C96.4116 14.5518 96.1659 13.5146 96.1659 12.3272C96.1659 11.1398 96.4047 10.1025 96.8824 9.21539C97.3738 8.32826 98.0562 7.64584 98.9297 7.16816C99.8031 6.69047 100.806 6.45162 101.939 6.45162C103.045 6.45162 104.027 6.68364 104.887 7.14768C105.747 7.61172 106.416 8.27366 106.893 9.1335C107.385 9.99334 107.63 10.9965 107.63 12.1429ZM104.048 11.2217C104.048 10.6212 103.843 10.1435 103.434 9.78862C103.024 9.43376 102.512 9.25633 101.898 9.25633C101.311 9.25633 100.813 9.42694 100.404 9.76814C100.008 10.1093 99.7622 10.5939 99.6667 11.2217H104.048Z" fill="white"/>
<path d="M113.797 14.7634L116.274 6.6154H120L115.946 18.039H111.627L107.573 6.6154H111.32L113.797 14.7634Z" fill="white"/>
<defs>
<linearGradient id="paint0_linear_2089_3421" x1="23.0314" y1="0.465281" x2="-0.697915" y2="27.6842" gradientUnits="userSpaceOnUse">
<stop stop-color="#23A9F2"/>
<stop offset="1" stop-color="#00C543"/>
</linearGradient>
</defs>
</svg>
