<svg width="60" height="23" viewBox="0 0 60 23" fill="none" xmlns="http://www.w3.org/2000/svg">
<path d="M25.6177 14.924C24.5321 14.924 23.6304 14.5651 22.9127 13.8473C22.1947 13.1295 21.8358 12.2208 21.8359 11.1213C21.8359 10.0219 22.1949 9.11318 22.9127 8.39526C23.6304 7.67749 24.5321 7.31858 25.6177 7.31852C26.168 7.31349 26.7128 7.42819 27.2144 7.65467C27.6954 7.87172 28.1183 8.19924 28.4487 8.6106C28.785 9.03147 29.0204 9.5238 29.1368 10.0498H27.9183C27.7601 9.58195 27.4541 9.17823 27.0464 8.89951C26.6239 8.61805 26.1252 8.47319 25.6177 8.48455C24.8824 8.48455 24.2731 8.73316 23.7899 9.23039C23.3067 9.72775 23.0651 10.3598 23.065 11.1265C23.065 11.8934 23.3067 12.5237 23.7899 13.0174C24.2731 13.5111 24.8824 13.758 25.6177 13.758C26.1398 13.7698 26.6517 13.6133 27.0779 13.3115C27.4932 13.0109 27.7964 12.5802 27.9393 12.0877H29.1683C28.9793 12.9491 28.5626 13.6372 27.9183 14.1519C27.2738 14.6667 26.507 14.924 25.6177 14.924Z" fill="white"/>
<path d="M35.1195 14.0784C34.5418 14.6422 33.8187 14.924 32.9502 14.924C32.0818 14.924 31.3587 14.6421 30.781 14.0784C30.2033 13.5147 29.9144 12.8056 29.9143 11.9511C29.9075 11.4173 30.0435 10.8914 30.3083 10.4279C30.5659 9.9776 30.9443 9.60827 31.4008 9.36167C31.8784 9.10987 32.4103 8.97827 32.9502 8.97827C33.4902 8.97827 34.022 9.10987 34.4997 9.36167C34.9561 9.60833 35.3345 9.97764 35.5922 10.4279C35.857 10.8914 35.993 11.4173 35.9862 11.9511C35.9862 12.8056 35.6973 13.5147 35.1195 14.0784ZM32.9502 13.8105C33.284 13.8163 33.6136 13.7348 33.9062 13.5741C34.183 13.4198 34.4106 13.1904 34.5628 12.9123C34.7231 12.6176 34.8045 12.2865 34.7991 11.9511C34.7991 11.4119 34.6258 10.9672 34.2791 10.617C33.9325 10.2668 33.4895 10.0917 32.9502 10.0918C32.4109 10.0918 31.968 10.2668 31.6214 10.617C31.2747 10.9672 31.1014 11.4119 31.1014 11.9511C31.1014 12.4904 31.2747 12.9352 31.6214 13.2852C31.9681 13.6355 32.411 13.8106 32.9502 13.8105Z" fill="white"/>
<path d="M41.6264 7.19775H42.7925V14.9083H41.9101L41.763 14.2675C41.2167 14.7858 40.5479 15.0449 39.7566 15.0449C38.902 15.0449 38.1965 14.763 37.6398 14.1992C37.0831 13.6356 36.8047 12.9265 36.8047 12.072C36.8047 11.2176 37.0831 10.5086 37.6398 9.94478C38.1966 9.38112 38.9021 9.09924 39.7566 9.09913C40.4395 9.08553 41.1041 9.32074 41.6264 9.76094V7.19775ZM38.5275 13.4009C38.8776 13.7546 39.3188 13.9314 39.8511 13.9314C40.097 13.9377 40.3416 13.8939 40.5701 13.8027C40.7985 13.7115 41.006 13.5748 41.18 13.4008C41.3539 13.2269 41.4906 13.0194 41.5818 12.7909C41.673 12.5625 41.7168 12.3179 41.7104 12.072C41.7149 11.7394 41.6316 11.4114 41.4689 11.1213C41.3119 10.8419 41.0811 10.6112 40.8018 10.4542C40.51 10.2957 40.1832 10.2126 39.8511 10.2126C39.519 10.2126 39.1922 10.2957 38.9004 10.4542C38.6218 10.6103 38.3925 10.8414 38.2386 11.1213C38.0791 11.4125 37.9977 11.74 38.0022 12.072C38.0022 12.6043 38.1773 13.0473 38.5275 13.4009Z" fill="white"/>
<path d="M44.4297 8.44267V7.24512H45.6377V8.44267H44.4297ZM44.4507 14.9977V9.32508H45.6167V14.9977H44.4507Z" fill="white"/>
<path d="M51.9194 9.11485H52.6863V14.0416C52.6863 14.644 52.5725 15.164 52.3449 15.6016C52.1269 16.0293 51.7845 16.3808 51.3627 16.61C50.9354 16.8446 50.4312 16.9619 49.85 16.962C49.1286 16.962 48.5228 16.7851 48.0326 16.4315C47.5424 16.0778 47.2237 15.5858 47.0767 14.9556H48.2427C48.3461 15.2617 48.562 15.5171 48.8467 15.6699C49.1499 15.8394 49.4922 15.9263 49.8394 15.922C50.3437 15.922 50.7534 15.7679 51.0685 15.4598C51.3837 15.1515 51.5413 14.7313 51.5413 14.1992V13.9471C51.016 14.3953 50.3892 14.6194 49.6609 14.6194C49.291 14.6269 48.9236 14.5585 48.5812 14.4185C48.2388 14.2784 47.9288 14.0697 47.6702 13.8052C47.1274 13.2626 46.856 12.5956 46.8561 11.8041C46.8482 11.4319 46.9164 11.0619 47.0563 10.717C47.1963 10.372 47.4052 10.0592 47.6702 9.79765C47.928 9.53179 48.2378 9.32185 48.5803 9.18089C48.9228 9.03993 49.2906 8.97098 49.6609 8.97831C50.4942 8.97831 51.1841 9.26894 51.7304 9.85019L51.9194 9.11485ZM49.7975 13.5374C50.0349 13.5389 50.2703 13.4943 50.4908 13.4061C50.6981 13.3249 50.8873 13.2035 51.0476 13.0489C51.2055 12.8924 51.3289 12.7045 51.4099 12.4974C51.4981 12.277 51.5427 12.0415 51.5413 11.8041C51.5413 11.2999 51.3767 10.8832 51.0475 10.554C50.7183 10.2249 50.3016 10.0603 49.7974 10.0603C49.5661 10.0536 49.3359 10.0941 49.1207 10.1792C48.9056 10.2643 48.71 10.3924 48.5459 10.5555C48.3818 10.7186 48.2526 10.9135 48.1661 11.1281C48.0797 11.3428 48.0379 11.5727 48.0432 11.8041C48.0366 12.0339 48.0775 12.2626 48.1634 12.4759C48.2492 12.6892 48.3782 12.8825 48.5421 13.0437C48.8747 13.3729 49.2931 13.5375 49.7975 13.5374Z" fill="white"/>
<path d="M59.0941 9.11483H59.9976V14.7875H59.0522L58.9366 14.0942C58.3903 14.6475 57.7075 14.9241 56.8882 14.924C56.0407 14.924 55.3352 14.6404 54.7714 14.0731C54.2077 13.5058 53.9258 12.7967 53.9258 11.9459C53.9258 11.095 54.2077 10.3877 54.7714 9.82392C55.3351 9.26026 56.0407 8.97837 56.8882 8.97827C57.7215 8.97827 58.4113 9.25839 58.9576 9.81863L59.0941 9.11483ZM55.6434 13.28C55.9969 13.6337 56.4416 13.8106 56.9774 13.8105C57.5133 13.8105 57.9545 13.6337 58.301 13.28C58.6477 12.9265 58.8211 12.4818 58.8211 11.9459C58.8211 11.4101 58.6477 10.9672 58.301 10.6171C57.9544 10.2669 57.5114 10.0918 56.9722 10.0918C56.6396 10.0873 56.3117 10.1707 56.0215 10.3334C55.7421 10.4903 55.5113 10.7211 55.3544 11.0004C55.1917 11.2906 55.1083 11.6185 55.1129 11.9511C55.1059 12.1971 55.1493 12.4419 55.2406 12.6705C55.3318 12.899 55.4689 13.1065 55.6434 13.28Z" fill="white"/>
<path d="M9.54104 16.6299L19.0822 11.1213V16.6299L9.54104 22.1384L0 16.6299V5.61279L9.54104 0.104248L19.0822 5.61279L9.54104 11.1213L4.77056 8.3671V13.8756L9.54104 16.6299Z" fill="url(#gradient)"/>
<path opacity="0.6" d="M14.3106 8.36703L9.54002 11.1213L4.76953 8.36703L9.54002 5.61279L14.3106 8.36703Z" fill="white"/>
<defs>
<linearGradient id="gradient" x1="2.01626" y1="18.6461" x2="17.0659" y2="3.59653" gradientUnits="userSpaceOnUse">
<stop stop-color="#F71C9D"/>
<stop offset="1" stop-color="#FC8926"/>
</linearGradient>
</defs>
</svg>
