<svg width="16" height="17" viewBox="0 0 16 17" fill="none" xmlns="http://www.w3.org/2000/svg">
<path d="M2.9215 0.121338C1.30312 0.121338 0 1.42446 0 3.04284V13.1999C0 14.8182 1.30312 16.1214 2.9215 16.1214H8.42651V9.86635H6.77251V7.61435H8.42651V5.69035C8.42651 4.17875 9.40378 2.79084 11.655 2.79084C12.5665 2.79084 13.2405 2.87835 13.2405 2.87835L13.1875 4.98135C13.1875 4.98135 12.5001 4.97486 11.75 4.97486C10.9382 4.97486 10.808 5.34891 10.808 5.96987V7.61436H13.252L13.1455 9.86636H10.808V16.1214H13.0785C14.6969 16.1214 16 14.8183 16 13.1999V3.04286C16 1.42447 14.6969 0.121354 13.0785 0.121354H2.92149L2.9215 0.121338Z" fill="#3B5998"/>
</svg>
