<svg width="16" height="17" viewBox="0 0 16 17" fill="none" xmlns="http://www.w3.org/2000/svg">
<path fill-rule="evenodd" clip-rule="evenodd" d="M1.97862e-07 1.45807C1.97862e-07 1.10354 0.140834 0.763543 0.391519 0.512858C0.642204 0.262173 0.982205 0.12134 1.33673 0.12134H14.6618C14.8375 0.121053 15.0115 0.155422 15.1739 0.222479C15.3363 0.289536 15.4839 0.387965 15.6082 0.51213C15.7325 0.636294 15.8311 0.783757 15.8983 0.946074C15.9655 1.10839 16.0001 1.28238 16 1.45807V14.7832C16.0002 14.9589 15.9657 15.1329 15.8986 15.2953C15.8315 15.4577 15.733 15.6053 15.6087 15.7296C15.4845 15.8539 15.337 15.9524 15.1746 16.0197C15.0123 16.0869 14.8383 16.1214 14.6625 16.1213H1.33673C1.16112 16.1213 0.987243 16.0867 0.825016 16.0195C0.662789 15.9523 0.515397 15.8538 0.391261 15.7296C0.267125 15.6054 0.168678 15.4579 0.101544 15.2957C0.0344096 15.1334 -9.53422e-05 14.9595 1.97862e-07 14.7839V1.45807ZM6.33309 6.2217H8.49964V7.3097C8.81236 6.68425 9.61236 6.12134 10.8145 6.12134C13.1193 6.12134 13.6655 7.36716 13.6655 9.65298V13.8872H11.3331V10.1737C11.3331 8.87188 11.0204 8.13734 10.2262 8.13734C9.12436 8.13734 8.66618 8.92934 8.66618 10.1737V13.8872H6.33309V6.2217ZM2.33309 13.7875H4.66618V6.12134H2.33309V13.7868V13.7875ZM5 3.62098C5.0044 3.82074 4.96885 4.01937 4.89545 4.2052C4.82204 4.39104 4.71226 4.56035 4.57253 4.70318C4.43281 4.84601 4.26596 4.9595 4.08179 5.03698C3.89761 5.11446 3.69981 5.15437 3.5 5.15437C3.30019 5.15437 3.10239 5.11446 2.91821 5.03698C2.73404 4.9595 2.56719 4.84601 2.42747 4.70318C2.28774 4.56035 2.17796 4.39104 2.10455 4.2052C2.03115 4.01937 1.9956 3.82074 2 3.62098C2.00863 3.22887 2.17046 2.85573 2.45083 2.58147C2.73119 2.30722 3.1078 2.15364 3.5 2.15364C3.8922 2.15364 4.26881 2.30722 4.54917 2.58147C4.82954 2.85573 4.99137 3.22887 5 3.62098Z" fill="#0072B1"/>
</svg>
