<svg width="16" height="13" viewBox="0 0 16 13" fill="none" xmlns="http://www.w3.org/2000/svg">
<path d="M16 1.54476C15.4116 1.7853 14.7795 1.94782 14.115 2.02128C14.8007 1.64279 15.3136 1.04708 15.5582 0.345311C14.914 0.698312 14.209 0.946786 13.4738 1.07993C12.9794 0.592914 12.3245 0.270111 11.6109 0.16164C10.8973 0.0531679 10.1648 0.165096 9.52717 0.480048C8.88955 0.794999 8.38247 1.29535 8.08467 1.90342C7.78686 2.51149 7.71499 3.19326 7.88021 3.84288C6.57496 3.78242 5.29807 3.46943 4.13242 2.92422C2.96677 2.37901 1.93841 1.61377 1.11407 0.678166C0.832203 1.12674 0.670131 1.64682 0.670131 2.20071C0.669817 2.69934 0.802912 3.19033 1.05761 3.63012C1.3123 4.06991 1.68073 4.4449 2.13019 4.72183C1.60893 4.70652 1.09918 4.57658 0.643354 4.34281V4.38182C0.643302 5.08117 0.905511 5.75899 1.38549 6.30028C1.86547 6.84157 2.53365 7.21299 3.27667 7.3515C2.79312 7.47224 2.28615 7.49002 1.79406 7.40351C2.0037 8.00526 2.41205 8.53146 2.96194 8.90846C3.51184 9.28546 4.17575 9.49437 4.86074 9.50596C3.69794 10.3481 2.26188 10.8049 0.783581 10.8029C0.521717 10.803 0.260073 10.7889 0 10.7607C1.50056 11.6508 3.24731 12.1232 5.03127 12.1213C11.0702 12.1213 14.3715 7.50688 14.3715 3.50483C14.3715 3.37481 14.368 3.24348 14.3617 3.11346C15.0038 2.68503 15.5581 2.15449 15.9986 1.54671L16 1.54476Z" fill="#00ACEE"/>
</svg>
