<svg width="26" height="26" viewBox="0 0 26 26" fill="none" xmlns="http://www.w3.org/2000/svg">
<path fill-rule="evenodd" clip-rule="evenodd" d="M12.5626 25.5625C19.5007 25.5625 25.1251 19.9381 25.1251 12.9999C25.1251 6.06183 19.5007 0.437378 12.5626 0.437378C5.62446 0.437378 0 6.06183 0 12.9999C0 19.9381 5.62446 25.5625 12.5626 25.5625ZM10.0502 15.4382L9.11966 16.6209L5.39759 13.5921C5.31038 13.5212 5.23997 13.4312 5.19159 13.3288C5.14321 13.2264 5.11808 13.1143 5.11808 13.0007C5.11808 12.8871 5.14321 12.775 5.19159 12.6726C5.23997 12.5702 5.31038 12.4803 5.39759 12.4093L9.11966 9.38048L10.0502 10.5632L7.05465 13.0007L10.0502 15.4382ZM15.075 10.5632L16.0055 9.38048L19.7276 12.4093C19.8148 12.4803 19.8852 12.5702 19.9336 12.6726C19.9819 12.775 20.0071 12.8871 20.0071 13.0007C20.0071 13.1143 19.9819 13.2264 19.9336 13.3288C19.8852 13.4312 19.8148 13.5212 19.7276 13.5921L16.0055 16.6209L15.075 15.4382L18.0705 13.0007L15.075 10.5632ZM11.8003 19.9792L14.7779 6.34937L13.3241 6.02074L10.3465 19.6505L11.8003 19.9792Z" fill="url(#paint0_linear_2109_328)"/>
<defs>
<linearGradient id="paint0_linear_2109_328" x1="23.0314" y1="0.902659" x2="-0.697918" y2="28.1216" gradientUnits="userSpaceOnUse">
<stop stop-color="#23A9F2"/>
<stop offset="1" stop-color="#00C543"/>
</linearGradient>
</defs>
</svg>
