<svg width="30" height="26" viewBox="0 0 30 26" fill="none" xmlns="http://www.w3.org/2000/svg">
<path fill-rule="evenodd" clip-rule="evenodd" d="M0.392958 6.8152L5.76011 1.33904C6.00157 1.0935 6.32558 0.950952 6.66633 0.940336C7.00708 0.929719 7.33901 1.05183 7.59471 1.28188C7.8504 1.51192 8.0107 1.83265 8.04302 2.17891C8.07535 2.52517 7.97729 2.87101 7.76876 3.14617L7.65739 3.27486L3.23889 7.78311L7.65739 12.2914C7.9006 12.5372 8.04253 12.8685 8.05414 13.2176C8.06575 13.5667 7.94615 13.9071 7.71983 14.1691C7.49352 14.4312 7.17759 14.595 6.83673 14.6272C6.49586 14.6594 6.15583 14.5574 5.88624 14.3422L5.76011 14.2272L0.392958 8.75102C0.161933 8.51528 0.0231504 8.20164 0.00264628 7.86892C-0.0178578 7.53621 0.0813258 7.2073 0.281589 6.94389L0.392958 6.8152ZM8.34415 22.9616V22.9631L8.28381 23.1289C8.17575 23.4973 8.21242 23.8931 8.38634 24.2354C8.56026 24.5777 8.85833 24.8408 9.21972 24.971C9.58111 25.1012 9.9786 25.0887 10.3311 24.936C10.6835 24.7833 10.9644 24.502 11.1165 24.1494L20.1604 3.04004L20.2207 2.87423C20.3288 2.50582 20.2921 2.11008 20.1182 1.76776C19.9443 1.42544 19.6462 1.16235 19.2848 1.03215C18.9234 0.901952 18.526 0.91447 18.1735 1.06715C17.821 1.21982 17.5401 1.50115 17.3881 1.85374L8.34415 22.9616ZM20.3507 12.9141L25.7804 9.00967C26.0158 8.74531 26.3498 8.5722 26.7145 8.52552C27.0793 8.47883 27.4474 8.56206 27.744 8.7583C28.0407 8.95455 28.2438 9.24909 28.3119 9.5821C28.3801 9.91512 28.3083 10.2616 28.111 10.5513L28.0039 10.6882L23.499 13.5509L28.6773 17.4599C28.9621 17.6728 29.1465 17.9796 29.1927 18.3176C29.2388 18.6556 29.1434 18.9991 28.9258 19.2779L28.9106 19.2969L28.9028 19.3074L28.7958 19.4307L28.7701 19.4466C28.6341 19.5719 28.4731 19.6714 28.2966 19.7395L23.1539 22.9211C22.9048 23.1769 22.5608 23.337 22.192 23.3688C21.8232 23.4006 21.4574 23.3016 21.1694 23.092C20.8813 22.8824 20.6926 22.5781 20.6418 22.2411C20.591 21.9041 20.6819 21.5599 20.896 21.2786L21.003 21.1552L21.0035 21.1539L25.3775 18.4486L20.5378 14.7952C20.267 14.5907 20.0877 14.3008 20.0336 13.9797C19.9794 13.6586 20.0541 13.3284 20.2436 13.051L20.3507 12.9141Z" fill="url(#paint0_linear_1932_34379)"/>
<defs>
<linearGradient id="paint0_linear_1932_34379" x1="14.602" y1="0.939697" x2="14.602" y2="25.0603" gradientUnits="userSpaceOnUse">
<stop stop-color="#23A9F2"/>
<stop offset="1" stop-color="#00C543"/>
</linearGradient>
</defs>
</svg>
