<?xml version="1.0" standalone="no"?>
<!DOCTYPE svg PUBLIC "-//W3C//DTD SVG 20010904//EN"
 "http://www.w3.org/TR/2001/REC-SVG-20010904/DTD/svg10.dtd">
<svg version="1.0" xmlns="http://www.w3.org/2000/svg"
 width="700.000000pt" height="700.000000pt" viewBox="0 0 700.000000 700.000000"
 preserveAspectRatio="xMidYMid meet">
<metadata>
Created by potrace 1.14, written by Peter Selinger 2001-2017
</metadata>
<g transform="translate(0.000000,700.000000) scale(0.100000,-0.100000)"
fill="#000000" stroke="none">
<path d="M3297 6884 c-1 -1 -51 -5 -112 -9 -60 -3 -123 -8 -140 -10 -81 -7
-161 -17 -165 -20 -3 -2 -30 -6 -60 -10 -30 -4 -57 -8 -60 -10 -3 -2 -25 -6
-50 -10 -25 -4 -47 -8 -51 -10 -3 -2 -19 -6 -35 -9 -114 -21 -393 -110 -554
-178 -898 -379 -1593 -1132 -1899 -2056 -61 -183 -116 -417 -136 -577 -4 -27
-8 -61 -11 -75 -19 -117 -26 -571 -11 -720 38 -361 117 -677 249 -994 392
-941 1197 -1660 2181 -1945 101 -30 295 -74 372 -85 22 -3 54 -8 70 -11 74
-13 125 -18 275 -30 65 -6 375 -6 440 -1 159 13 443 50 461 62 3 2 21 6 40 9
58 10 248 62 359 99 226 74 476 192 695 326 71 43 280 189 324 225 172 143
355 319 471 454 340 394 595 892 718 1403 17 68 33 143 37 168 4 25 9 52 10
60 3 14 20 134 30 206 23 163 23 543 1 719 -5 40 -19 146 -21 165 -2 15 -31
167 -39 205 -42 195 -105 393 -194 610 -35 83 -170 343 -226 432 -145 235
-293 420 -491 618 -158 158 -184 182 -305 276 -257 200 -539 363 -830 479
-138 55 -342 122 -413 136 -10 2 -27 6 -37 9 -20 6 -50 13 -90 21 -14 2 -38 7
-55 11 -48 11 -55 12 -165 28 -142 20 -178 24 -300 31 -100 5 -280 10 -283 8z
m488 -1549 c203 -46 198 -44 191 -62 -5 -13 -34 -147 -51 -232 -2 -12 -6 -30
-9 -39 -3 -9 -8 -29 -11 -44 -3 -16 -7 -40 -10 -55 -3 -16 -8 -36 -11 -45 -3
-9 -7 -25 -9 -36 -3 -16 -23 -112 -49 -232 -8 -37 -52 -234 -71 -320 -9 -41
-19 -86 -21 -100 -3 -14 -17 -77 -31 -140 -27 -122 -58 -265 -91 -420 -11 -52
-57 -259 -101 -460 -44 -201 -82 -376 -85 -390 -2 -14 -18 -86 -34 -160 -41
-181 -100 -449 -105 -480 -3 -14 -14 -65 -26 -113 -12 -49 -23 -101 -26 -115
-3 -15 -7 -36 -9 -47 -3 -11 -14 -65 -25 -119 -12 -55 -23 -101 -24 -103 -2
-1 -28 3 -58 11 -30 8 -111 26 -181 41 -69 15 -132 31 -138 35 -9 6 -7 31 9
106 12 55 23 108 26 119 2 11 18 83 35 160 17 77 33 151 36 165 3 14 32 149
65 300 34 151 62 282 64 290 2 8 20 92 40 185 20 94 38 177 40 185 6 26 124
569 150 685 32 147 86 396 90 415 2 8 10 45 19 81 8 37 17 78 20 90 4 21 42
198 51 239 2 8 33 152 70 320 36 168 68 311 70 318 3 7 13 11 22 8 10 -3 90
-21 178 -41z m-1203 -1021 c65 -82 117 -152 118 -156 0 -4 -107 -94 -237 -200
-131 -106 -265 -215 -299 -243 -33 -27 -80 -66 -104 -85 -24 -19 -70 -57 -102
-83 l-58 -48 117 -95 c65 -53 127 -103 138 -112 11 -10 138 -113 283 -231 145
-117 262 -217 260 -222 -4 -12 -228 -298 -238 -304 -8 -5 -213 157 -435 341
-22 18 -155 126 -295 240 -140 113 -270 220 -287 237 -44 41 -67 104 -61 164
9 97 -22 66 533 518 127 102 248 201 269 218 22 18 56 46 76 62 20 17 56 46
80 65 24 19 58 47 75 62 16 15 35 26 40 24 6 -1 63 -70 127 -152z m1808 95
c41 -33 84 -68 95 -77 11 -10 207 -169 436 -355 447 -363 458 -375 463 -467 5
-84 -26 -134 -128 -215 -22 -16 -44 -35 -50 -40 -6 -6 -45 -38 -86 -70 -41
-33 -77 -62 -80 -65 -3 -3 -66 -55 -140 -115 -74 -60 -162 -131 -195 -158 -33
-27 -78 -64 -100 -82 -194 -159 -291 -235 -297 -233 -17 6 -248 312 -241 318
4 4 47 39 94 77 48 38 93 75 100 81 8 7 34 28 59 48 25 20 63 51 85 69 22 19
132 108 245 200 113 91 205 169 205 174 0 7 -256 219 -555 461 -160 129 -235
194 -233 201 4 12 237 309 243 309 3 0 39 -27 80 -61z"/>
</g>
</svg>
