<?xml version="1.0" standalone="no"?>
<!DOCTYPE svg PUBLIC "-//W3C//DTD SVG 20010904//EN"
 "http://www.w3.org/TR/2001/REC-SVG-20010904/DTD/svg10.dtd">
<svg version="1.0" xmlns="http://www.w3.org/2000/svg"
 width="960.000000pt" height="960.000000pt" viewBox="0 0 960.000000 960.000000"
 preserveAspectRatio="xMidYMid meet">
<metadata>
Created by potrace 1.14, written by Peter Selinger 2001-2017
</metadata>
<g transform="translate(0.000000,960.000000) scale(0.100000,-0.100000)"
fill="#000000" stroke="none">
<path d="M2075 8653 c-37 -7 -139 -45 -152 -57 -29 -26 -42 -36 -48 -36 -3 0
-67 -63 -143 -141 -341 -349 -958 -979 -1287 -1314 -312 -317 -369 -380 -397
-437 -37 -76 -50 -142 -44 -225 8 -111 38 -187 99 -254 9 -10 17 -20 17 -22 0
-1 98 -102 218 -224 229 -234 723 -738 1005 -1026 257 -262 501 -508 539 -543
112 -103 303 -124 456 -49 39 20 72 40 72 46 0 5 6 9 13 9 17 1 87 94 114 152
36 78 49 201 30 283 -15 61 -65 158 -92 177 -5 4 -7 8 -4 8 3 0 -71 79 -165
175 -681 695 -966 986 -1198 1222 l-71 72 99 101 c54 56 169 173 254 260 85
87 301 307 480 490 179 182 379 387 445 454 66 67 139 145 162 172 160 192
117 494 -92 640 -77 53 -222 85 -310 67z"/>
<path d="M5896 8644 c-57 -14 -140 -50 -172 -76 -57 -47 -119 -122 -146 -178
-17 -36 -35 -72 -40 -80 -4 -8 -11 -22 -14 -30 -25 -65 -39 -101 -55 -135 -19
-41 -41 -96 -44 -105 0 -3 -9 -20 -18 -37 -10 -18 -14 -33 -10 -33 5 0 4 -4
-2 -8 -5 -4 -15 -20 -21 -37 -33 -85 -80 -191 -89 -197 -5 -4 -6 -8 -2 -8 5 0
2 -12 -6 -27 -27 -50 -117 -268 -117 -280 0 -7 -4 -13 -10 -13 -5 0 -10 -6
-10 -12 0 -13 -64 -170 -81 -198 -5 -8 -12 -22 -15 -30 -40 -103 -45 -115 -94
-224 -16 -37 -30 -74 -30 -82 0 -8 -4 -14 -10 -14 -5 0 -10 -6 -10 -13 0 -7
-20 -57 -43 -112 -58 -132 -60 -139 -59 -147 1 -5 -2 -8 -8 -8 -5 0 -10 -6
-10 -14 0 -8 -22 -64 -50 -126 -27 -62 -50 -118 -50 -126 0 -8 -4 -14 -10 -14
-5 0 -10 -6 -10 -13 0 -7 -25 -71 -56 -143 -72 -166 -77 -178 -78 -184 -1 -3
-4 -10 -8 -16 -4 -5 -16 -32 -27 -60 -10 -27 -30 -71 -42 -99 -13 -27 -24 -54
-25 -60 -2 -5 -29 -71 -62 -145 -64 -148 -75 -173 -77 -180 -1 -3 -13 -31 -28
-64 -15 -32 -27 -61 -27 -64 0 -3 -9 -24 -19 -46 -11 -23 -34 -75 -51 -116
-18 -41 -39 -91 -48 -110 -9 -19 -16 -37 -17 -40 -4 -11 -26 -66 -35 -85 -30
-61 -100 -232 -100 -242 0 -7 -5 -13 -11 -13 -5 0 -8 -4 -5 -8 3 -5 -4 -23
-15 -40 -10 -18 -19 -37 -19 -42 0 -5 -11 -33 -24 -62 -57 -124 -166 -383
-166 -395 0 -7 -4 -13 -10 -13 -5 0 -10 -6 -10 -13 0 -7 -25 -71 -56 -143 -62
-143 -76 -177 -79 -184 -1 -3 -10 -23 -19 -45 -10 -22 -31 -71 -48 -110 -16
-38 -36 -83 -43 -100 -7 -16 -32 -75 -55 -130 -24 -55 -50 -118 -60 -140 -10
-22 -59 -137 -109 -255 -51 -118 -96 -224 -101 -235 -12 -26 -40 -91 -80 -185
-17 -41 -38 -88 -45 -105 -30 -69 -48 -110 -50 -115 -1 -3 -9 -23 -19 -45 -10
-22 -27 -62 -38 -90 -11 -27 -26 -63 -33 -80 -36 -80 -74 -166 -75 -170 0 -3
-9 -25 -20 -50 -11 -25 -19 -46 -18 -48 1 -1 -5 -15 -15 -32 -18 -33 -37 -78
-74 -175 -36 -95 -39 -206 -9 -304 50 -161 149 -260 325 -327 36 -13 196 -18
241 -7 62 15 170 66 170 80 0 4 5 8 11 8 31 0 137 139 171 225 9 22 27 63 39
90 13 28 24 59 26 70 2 11 8 21 13 23 6 2 10 8 10 14 0 11 84 211 165 393 36
81 48 109 49 115 1 5 127 300 156 365 43 97 49 112 66 155 10 25 23 54 30 65
7 11 13 22 13 25 0 7 14 43 56 140 49 114 58 134 60 140 1 3 8 21 17 40 8 19
41 96 72 170 32 74 66 153 76 175 10 22 30 69 45 105 15 36 38 89 51 118 13
29 24 55 24 58 0 3 12 31 27 62 15 31 29 66 30 76 2 11 9 26 15 34 7 8 13 19
14 26 1 7 14 39 29 72 15 32 28 65 28 72 0 6 3 12 7 12 3 0 12 17 19 38 8 20
24 60 37 89 22 47 45 100 49 113 3 9 22 54 40 95 10 22 19 42 20 45 0 3 11 27
23 54 12 27 22 50 22 52 0 2 14 33 30 69 17 36 30 68 30 70 0 3 16 39 35 81
19 41 35 78 35 81 0 5 47 116 77 182 8 19 28 64 43 100 15 36 36 84 45 106 10
22 16 40 15 40 -2 0 8 20 20 45 13 25 25 50 26 55 1 6 55 132 119 280 65 149
128 295 140 325 25 61 49 117 72 170 36 81 55 126 63 145 4 11 17 41 29 66 11
25 21 49 21 52 0 4 11 30 24 59 13 29 43 98 66 153 23 55 53 124 66 154 14 29
26 58 27 65 1 6 5 13 8 16 3 3 17 35 32 73 15 37 36 86 46 110 11 23 41 92 66
152 26 61 53 124 60 140 7 17 28 64 45 105 17 41 38 89 45 105 7 17 34 80 60
140 26 61 53 124 60 140 45 100 144 336 155 370 7 22 15 45 19 50 3 6 6 51 7
100 4 222 -118 391 -343 475 -47 17 -180 20 -247 4z"/>
<path d="M8493 6219 c-38 -9 -82 -24 -96 -34 -15 -9 -27 -13 -27 -9 0 5 -4 4
-8 -1 -4 -6 -23 -22 -42 -37 -19 -15 -51 -40 -70 -57 -19 -17 -60 -48 -90 -68
-30 -21 -57 -40 -60 -43 -4 -5 -125 -92 -180 -130 -12 -8 -44 -31 -70 -50 -26
-19 -58 -42 -70 -50 -12 -8 -44 -32 -70 -52 -26 -21 -53 -38 -59 -38 -6 0 -11
-4 -11 -8 0 -4 -14 -16 -31 -26 -18 -10 -39 -25 -48 -33 -9 -8 -104 -78 -211
-154 -107 -77 -253 -181 -323 -232 -70 -50 -135 -96 -145 -102 -9 -5 -19 -13
-22 -16 -3 -3 -79 -59 -170 -124 -91 -65 -176 -130 -191 -146 -22 -25 -69
-108 -76 -134 -19 -78 -22 -151 -7 -202 7 -24 10 -43 8 -43 -7 0 50 -104 68
-124 10 -11 18 -22 18 -26 0 -3 26 -25 58 -50 31 -24 59 -48 60 -52 2 -4 9 -8
15 -8 7 0 28 -15 48 -33 20 -17 86 -68 145 -111 60 -44 111 -82 114 -86 3 -3
32 -25 65 -49 33 -25 62 -48 63 -53 2 -4 8 -8 13 -8 5 0 44 -27 87 -60 42 -33
82 -64 87 -68 6 -4 37 -28 70 -52 33 -25 64 -48 70 -53 5 -4 37 -28 70 -53 33
-25 67 -50 75 -57 8 -7 69 -52 135 -102 66 -49 125 -94 131 -100 6 -5 21 -17
34 -25 30 -21 170 -127 197 -150 12 -10 31 -23 42 -30 30 -15 26 -34 -11 -53
-18 -10 -49 -27 -69 -40 -20 -12 -70 -42 -110 -67 -41 -24 -76 -47 -79 -50 -9
-9 -65 -41 -82 -47 -10 -3 -18 -9 -18 -13 0 -4 -13 -13 -30 -20 -16 -7 -30
-16 -30 -21 0 -5 -4 -9 -9 -9 -6 0 -53 -27 -106 -60 -53 -33 -100 -60 -105
-60 -4 0 -10 -4 -12 -8 -2 -7 -212 -138 -352 -222 -23 -14 -60 -36 -82 -50
-22 -14 -49 -30 -59 -37 -241 -147 -245 -151 -287 -239 -35 -75 -40 -93 -43
-166 -6 -115 37 -222 121 -302 57 -55 62 -59 114 -83 82 -38 114 -46 204 -48
135 -4 225 27 342 118 38 29 76 57 84 60 8 4 27 15 42 25 109 69 180 112 188
112 6 0 10 4 10 8 0 5 15 16 33 25 38 20 61 34 104 64 17 13 35 23 38 23 4 0
25 12 48 28 23 15 51 32 62 39 112 68 161 99 163 105 2 5 7 8 12 8 11 0 110
60 128 78 7 6 19 12 26 12 8 0 20 7 27 16 7 9 20 19 29 23 9 3 95 56 193 116
230 143 248 153 275 167 12 6 22 15 22 20 0 4 4 8 10 8 5 0 41 20 80 45 39 25
91 55 116 67 190 89 295 275 262 461 -11 57 -50 148 -73 167 -8 7 -15 18 -16
24 0 9 -30 36 -108 96 -11 8 -29 23 -40 32 -12 10 -25 18 -30 18 -5 0 -11 3
-13 8 -1 4 -30 27 -63 52 -33 25 -61 48 -63 53 -2 4 -10 7 -17 7 -7 0 -15 4
-17 8 -1 4 -41 37 -88 72 -47 35 -87 66 -90 69 -3 3 -12 11 -22 16 -15 9 -124
91 -158 118 -8 7 -78 60 -155 117 -77 58 -142 107 -145 110 -3 3 -23 18 -45
35 -22 16 -46 35 -53 42 -7 7 -16 13 -20 13 -4 0 -21 13 -39 28 -18 15 -54 43
-80 62 -26 19 -50 37 -53 40 -3 3 -21 17 -40 30 -19 13 -37 27 -40 30 -3 3
-80 61 -172 130 -93 68 -168 130 -168 136 0 6 8 14 18 18 9 3 29 14 43 23 38
25 185 120 312 200 59 37 119 75 132 83 13 8 59 37 102 64 43 28 81 55 85 60
5 7 8 7 8 1 0 -5 7 -1 16 10 8 11 18 19 22 19 4 -1 44 23 89 52 46 30 87 54
93 54 5 0 10 4 10 8 0 5 15 16 33 25 36 19 70 39 77 47 3 3 30 21 60 40 290
180 338 214 367 260 85 131 91 284 19 416 -98 179 -309 265 -523 213z"/>
</g>
</svg>
