<svg width="35" height="39" viewBox="0 0 35 39" fill="none" xmlns="http://www.w3.org/2000/svg">
<path d="M30.6443 0.422607H3.73667C1.67652 0.422607 0 2.27556 0 4.55285V34.2924C0 36.5697 1.67652 38.4226 3.73667 38.4226H25.3107L34.381 28.3978V4.55194C34.381 2.27556 32.7044 0.422607 30.6443 0.422607Z" fill="#118DF0"/>
<path d="M1.80859 34.9972V4.75284C1.80859 3.36313 2.82374 2.23218 4.0705 2.23218H31.2134C32.4601 2.23218 33.4753 3.36313 33.4753 4.75284V27.4361H28.1978C26.1186 27.4361 24.4276 29.3207 24.4276 31.6369V37.5179H4.0705C2.82374 37.5179 1.80859 36.3869 1.80859 34.9972Z" fill="#118DF0"/>
<path d="M34.3797 28.4705L25.332 38.4228V31.7746C25.332 29.9543 26.6801 28.4705 28.3358 28.4705H34.3797Z" fill="black" fill-opacity="0.288"/>
<path d="M8.50458 24.851H10.1331H11.7617L6.876 18.5177L11.7617 12.1843H10.1331H8.50458L3.61886 18.5177L8.50458 24.851Z" fill="white"/>
<g filter="url(#filter0_i_1539_25971)">
<path d="M8.50458 24.851H10.1331H11.7617L6.876 18.5177L11.7617 12.1843H10.1331H8.50458L3.61886 18.5177L8.50458 24.851Z" fill="white"/>
</g>
<path d="M18.8037 7.26914L21.7219 7.43589L15.3493 29.2794C13.8901 29.196 12.4148 29.5956 12.4072 29.584C12.3996 29.572 18.8037 7.26914 18.8037 7.26914Z" fill="white"/>
<g filter="url(#filter1_i_1539_25971)">
<path d="M18.8037 7.26914L21.7219 7.43589L15.3493 29.2794C13.8901 29.196 12.4148 29.5956 12.4072 29.584C12.3996 29.572 18.8037 7.26914 18.8037 7.26914Z" fill="white"/>
</g>
<path d="M25.8743 24.851H24.2458H22.6172L27.5029 18.5177L22.6172 12.1843H24.2458H25.8743L30.76 18.5177L25.8743 24.851Z" fill="white"/>
<g filter="url(#filter2_i_1539_25971)">
<path d="M25.8743 24.851H24.2458H22.6172L27.5029 18.5177L22.6172 12.1843H24.2458H25.8743L30.76 18.5177L25.8743 24.851Z" fill="white"/>
</g>
<defs>
<filter id="filter0_i_1539_25971" x="3.61719" y="12.1843" width="8.14453" height="13.6667" filterUnits="userSpaceOnUse" color-interpolation-filters="sRGB">
<feFlood flood-opacity="0" result="BackgroundImageFix"/>
<feBlend mode="normal" in="SourceGraphic" in2="BackgroundImageFix" result="shape"/>
<feColorMatrix in="SourceAlpha" type="matrix" values="0 0 0 0 0 0 0 0 0 0 0 0 0 0 0 0 0 0 127 0" result="hardAlpha"/>
<feOffset dy="1"/>
<feGaussianBlur stdDeviation="1.5"/>
<feComposite in2="hardAlpha" operator="arithmetic" k2="-1" k3="1"/>
<feColorMatrix type="matrix" values="0 0 0 0 0.446765 0 0 0 0 0.754393 0 0 0 0 1 0 0 0 1 0"/>
<feBlend mode="normal" in2="shape" result="effect1_innerShadow_1539_25971"/>
</filter>
<filter id="filter1_i_1539_25971" x="12.4062" y="7.26904" width="9.31641" height="23.3152" filterUnits="userSpaceOnUse" color-interpolation-filters="sRGB">
<feFlood flood-opacity="0" result="BackgroundImageFix"/>
<feBlend mode="normal" in="SourceGraphic" in2="BackgroundImageFix" result="shape"/>
<feColorMatrix in="SourceAlpha" type="matrix" values="0 0 0 0 0 0 0 0 0 0 0 0 0 0 0 0 0 0 127 0" result="hardAlpha"/>
<feOffset dy="1"/>
<feGaussianBlur stdDeviation="1.5"/>
<feComposite in2="hardAlpha" operator="arithmetic" k2="-1" k3="1"/>
<feColorMatrix type="matrix" values="0 0 0 0 0.542551 0 0 0 0 0.796917 0 0 0 0 1 0 0 0 1 0"/>
<feBlend mode="normal" in2="shape" result="effect1_innerShadow_1539_25971"/>
</filter>
<filter id="filter2_i_1539_25971" x="22.6172" y="12.1843" width="8.14453" height="13.6667" filterUnits="userSpaceOnUse" color-interpolation-filters="sRGB">
<feFlood flood-opacity="0" result="BackgroundImageFix"/>
<feBlend mode="normal" in="SourceGraphic" in2="BackgroundImageFix" result="shape"/>
<feColorMatrix in="SourceAlpha" type="matrix" values="0 0 0 0 0 0 0 0 0 0 0 0 0 0 0 0 0 0 127 0" result="hardAlpha"/>
<feOffset dy="1"/>
<feGaussianBlur stdDeviation="1.5"/>
<feComposite in2="hardAlpha" operator="arithmetic" k2="-1" k3="1"/>
<feColorMatrix type="matrix" values="0 0 0 0 0.549542 0 0 0 0 0.800021 0 0 0 0 1 0 0 0 1 0"/>
<feBlend mode="normal" in2="shape" result="effect1_innerShadow_1539_25971"/>
</filter>
</defs>
</svg>
