<svg width="38" height="39" viewBox="0 0 38 39" fill="none" xmlns="http://www.w3.org/2000/svg">
<path d="M34.4375 2.79761H3.5625C1.5957 2.79761 0 4.39331 0 6.36011V32.4851C0 34.4519 1.5957 36.0476 3.5625 36.0476H34.4375C36.4043 36.0476 38 34.4519 38 32.4851V6.36011C38 4.39331 36.4043 2.79761 34.4375 2.79761Z" fill="#002240"/>
<path d="M14.25 12.2976C15.5617 12.2976 16.625 11.2343 16.625 9.92261C16.625 8.61093 15.5617 7.54761 14.25 7.54761C12.9383 7.54761 11.875 8.61093 11.875 9.92261C11.875 11.2343 12.9383 12.2976 14.25 12.2976Z" fill="#FFBD2E"/>
<path d="M21.375 12.2976C22.6867 12.2976 23.75 11.2343 23.75 9.92261C23.75 8.61093 22.6867 7.54761 21.375 7.54761C20.0633 7.54761 19 8.61093 19 9.92261C19 11.2343 20.0633 12.2976 21.375 12.2976Z" fill="#27C93F"/>
<path d="M7.125 12.2976C8.43668 12.2976 9.5 11.2343 9.5 9.92261C9.5 8.61093 8.43668 7.54761 7.125 7.54761C5.81332 7.54761 4.75 8.61093 4.75 9.92261C4.75 11.2343 5.81332 12.2976 7.125 12.2976Z" fill="#FF5F56"/>
<path d="M5.35859 19.3632H23.5496C23.8762 19.3632 24.1582 19.2296 24.1582 19.0664V18.4578C24.1582 18.2945 23.8836 18.1609 23.5496 18.1609H5.35859C5.03203 18.1609 4.75 18.2945 4.75 18.4578V19.0589C4.75 19.2222 5.02461 19.3632 5.35859 19.3632Z" fill="white"/>
<path d="M5.35859 22.9408H16.2688C16.5953 22.9408 16.8773 22.8072 16.8773 22.6439V22.0427C16.8773 21.8794 16.6027 21.7458 16.2688 21.7458H5.35859C5.03203 21.7458 4.75 21.8794 4.75 22.0427V22.6439C4.75 22.8072 5.02461 22.9408 5.35859 22.9408Z" fill="white"/>
<path d="M5.35859 30.1102H11.4223C11.7488 30.1102 12.0309 29.9766 12.0309 29.8133V29.2122C12.0309 29.0489 11.7562 28.9153 11.4223 28.9153H5.35859C5.03203 28.9153 4.75 29.0489 4.75 29.2122V29.8133C4.75 29.9766 5.02461 30.1102 5.35859 30.1102Z" fill="white"/>
<path d="M5.35859 26.5252H21.1227C21.4492 26.5252 21.7312 26.3917 21.7312 26.2284V25.6272C21.7312 25.4639 21.4566 25.3303 21.1227 25.3303H5.35859C5.03203 25.3303 4.75 25.4639 4.75 25.6272V26.2284C4.75 26.3917 5.02461 26.5252 5.35859 26.5252Z" fill="white"/>
</svg>
