<svg width="39" height="40" viewBox="0 0 39 40" fill="none" xmlns="http://www.w3.org/2000/svg">
<path fill-rule="evenodd" clip-rule="evenodd" d="M19.46 0.723633C8.70835 0.723633 0 9.52649 0 20.3948C0 29.0993 5.57043 36.4515 13.3058 39.0579C14.2788 39.23 14.6436 38.6399 14.6436 38.1235C14.6436 37.6563 14.6193 36.1072 14.6193 34.4597C9.73 35.3695 8.4651 33.2549 8.0759 32.1484C7.85698 31.5828 6.9083 29.837 6.08125 29.3698C5.40015 29.001 4.42715 28.0912 6.05692 28.0666C7.5894 28.042 8.68402 29.4928 9.0489 30.0829C10.8003 33.0582 13.5977 32.2221 14.7166 31.7058C14.8869 30.4271 15.3977 29.5665 15.9572 29.0747C11.6273 28.583 7.1029 26.8863 7.1029 19.3621C7.1029 17.2229 7.85698 15.4524 9.09755 14.0755C8.90295 13.5837 8.22185 11.5674 9.29215 8.86259C9.29215 8.86259 10.9219 8.34622 14.6436 10.8789C16.2004 10.4363 17.8545 10.215 19.5086 10.215C21.1627 10.215 22.8168 10.4363 24.3736 10.8789C28.0954 8.32163 29.7251 8.86259 29.7251 8.86259C30.7955 11.5674 30.1144 13.5837 29.9198 14.0755C31.1603 15.4524 31.9144 17.1983 31.9144 19.3621C31.9144 26.9109 27.3656 28.583 23.0358 29.0747C23.7412 29.6895 24.3493 30.8697 24.3493 32.7139C24.3493 35.3449 24.325 37.4596 24.325 38.1235C24.325 38.6399 24.6899 39.2546 25.6629 39.0579C29.526 37.7395 32.8828 35.2297 35.261 31.8818C37.6391 28.5339 38.9188 24.5164 38.92 20.3948C38.92 9.52649 30.2117 0.723633 19.46 0.723633Z" fill="url(#paint0_linear_1539_25936)"/>
<defs>
<linearGradient id="paint0_linear_1539_25936" x1="19.46" y1="0.723633" x2="19.46" y2="39.0955" gradientUnits="userSpaceOnUse">
<stop stop-color="#383838" stop-opacity="0.67"/>
<stop offset="1" stop-color="#383838"/>
</linearGradient>
</defs>
</svg>
