<svg width="39" height="40" viewBox="0 0 39 40" fill="none" xmlns="http://www.w3.org/2000/svg">
<g clip-path="url(#clip0_1539_25930)">
<path d="M0 -0.431641L38.9232 -0.431641V39.9999H0L0 -0.431641Z" fill="black"/>
<path d="M8.33747 13.3414C8.4701 13.4827 8.5742 13.6502 8.64366 13.8339C8.71312 14.0176 8.74654 14.2139 8.74196 14.4113C8.74825 14.7312 8.65724 15.0451 8.48189 15.3083C8.30653 15.5714 8.05575 15.7704 7.76522 15.877C8.12205 15.9429 8.44464 16.1386 8.67525 16.429C8.90586 16.7195 9.02943 17.0857 9.02383 17.4621C9.02383 18.5952 8.13906 19.2768 6.62072 19.2768H3.34774L3.34774 12.7549H6.60539C6.91706 12.7293 7.23053 12.7679 7.52778 12.8686C7.82503 12.9692 8.1002 13.1299 8.33747 13.3414ZM6.40698 16.6616H5.06449V17.8743H6.42273C6.9639 17.8743 7.26152 17.6603 7.26152 17.2719C7.26918 16.8756 7.00179 16.6616 6.40698 16.6616ZM6.25455 14.229H5.10239V15.386H6.20856C6.74292 15.386 7.04778 15.1959 7.04778 14.8155L7.01755 14.7916C7.01755 14.4272 6.73526 14.229 6.25455 14.229ZM18.6746 12.7076L21.3753 19.348H19.4908L19.0407 18.1596H16.5768L16.1267 19.348H14.2878L14.2941 19.3325H13.1207L11.8391 17.3352H11.0761V19.3325H9.32145V12.7549H12.2891C12.6616 12.7236 13.0364 12.7699 13.3914 12.8911C13.7465 13.0122 14.0746 13.2058 14.3567 13.4604C14.5475 13.6626 14.696 13.9035 14.7932 14.168C14.8903 14.4325 14.9339 14.7149 14.9213 14.9977C14.9382 15.4366 14.8211 15.8699 14.5869 16.2356C14.3526 16.6013 14.013 16.8807 13.6167 17.034L14.616 18.5395L16.9808 12.7071H18.6746V12.7076ZM17.7975 14.8703L17.08 16.7332H18.5064L17.7975 14.8708V14.8703ZM12.2129 14.3396H11.0531V15.9247H12.2206C12.3348 15.9541 12.454 15.9555 12.5689 15.9291C12.6837 15.9026 12.7911 15.8489 12.8827 15.7721C12.9743 15.6954 13.0475 15.5977 13.0967 15.4867C13.1459 15.3757 13.1697 15.2543 13.1662 15.1322C13.17 15.0091 13.1462 14.8868 13.0965 14.775C13.0469 14.6632 12.9728 14.5649 12.8803 14.488C12.7877 14.4111 12.6792 14.3576 12.5633 14.3319C12.4474 14.3061 12.3273 14.3088 12.2125 14.3396H12.2129ZM3.35541 32.4156H17.9499V34.9442H3.35541V32.4161V32.4156ZM3.19531 10.2109L4.32448 9.10168C4.43316 9.27782 4.58028 9.42488 4.75391 9.53092C4.92753 9.63697 5.12277 9.69901 5.32379 9.71203C5.43124 9.70675 5.53641 9.67794 5.63239 9.62747C5.72836 9.57701 5.81298 9.50603 5.88069 9.4192C5.9484 9.33237 5.99767 9.23165 6.02526 9.12365C6.05286 9.01564 6.05815 8.9028 6.04081 8.79252V4.62402H7.78779V8.80048C7.81245 9.1377 7.76962 9.47658 7.66197 9.79575C7.55432 10.1149 7.38419 10.4075 7.16231 10.655C6.92975 10.8807 6.65607 11.0559 6.35737 11.1703C6.05868 11.2846 5.74099 11.3357 5.423 11.3206C4.99213 11.3426 4.56277 11.2527 4.1738 11.059C3.78482 10.8652 3.44851 10.5737 3.19531 10.2109ZM8.19228 4.62402H13.2961V6.16935H9.93159V7.17599H12.9832V8.61782H9.93159V9.66426H13.3421V11.2494H8.19228V4.62402ZM15.6 6.22508H13.7083V4.63995L19.2622 4.63995V6.22508H17.3623V11.2175H15.6081V6.22508H15.6ZM21.5814 12.7549H23.3356V19.348H21.5814V12.7549ZM23.7784 12.7549H25.4185L28.0277 16.2419V12.7549H29.7674V19.348H28.2414L25.5254 15.7346V19.348H23.7861V12.7549H23.7784ZM29.8739 18.3657L30.8506 17.153C31.4295 17.6546 32.1568 17.9344 32.9106 17.9455C33.3908 17.9455 33.6731 17.7792 33.6731 17.494C33.6731 17.2087 33.4675 17.0738 32.5976 16.8518C31.2475 16.5351 30.2022 16.1388 30.2022 14.7916C30.2022 13.5709 31.1329 12.6837 32.6589 12.6837C33.6003 12.6451 34.5244 12.9538 35.2677 13.555L34.3906 14.8469C33.8769 14.4446 33.2559 14.2174 32.6129 14.1968C32.1855 14.1968 31.9798 14.3794 31.9798 14.6169C31.9798 14.9181 32.2012 15.053 33.086 15.2591C34.5353 15.5917 35.4431 16.0517 35.4431 17.3113C35.4431 18.6589 34.4212 19.459 32.8799 19.459C31.7823 19.4925 30.7116 19.1031 29.8739 18.3657Z" fill="white"/>
</g>
<defs>
<clipPath id="clip0_1539_25930">
<rect width="38.9232" height="38.6988" fill="white" transform="translate(0 0.723633)"/>
</clipPath>
</defs>
</svg>
