<svg width="40" height="41" viewBox="0 0 40 41" fill="none" xmlns="http://www.w3.org/2000/svg">
<g clip-path="url(#clip0_3672_30928)">
<path d="M15.7285 12.4701L15.8354 14.9289L14.125 18.1359L11.4525 23.3741L10.918 27.757L12.8422 33.9573L17.2252 36.416H23.853L30.0533 31.7124L32.8328 24.3362L26.4187 16.5324L24.6014 12.1494L15.7285 12.4701Z" fill="#ECEFF1"/>
<path d="M30.9082 18.5635C29.1977 16.1048 27.808 14.6082 27.0597 11.5081C26.3114 8.40791 27.2735 9.26312 26.6321 6.59059C26.3114 5.20087 25.7769 4.23876 25.2424 3.49045C24.601 2.74214 23.8527 2.31453 23.4251 2.20763C22.4629 1.67312 20.218 0.817911 17.4386 2.31453C14.5522 3.81115 14.8729 7.0182 15.4075 13.5392C15.4075 13.9668 15.3006 14.5013 15.0867 14.9289C14.6591 15.891 13.9108 16.7462 13.2694 17.4945C12.5211 18.5635 11.7728 19.6326 11.2383 20.8085C9.95548 23.2672 8.77956 26.3674 9.10027 27.5433C9.63478 27.4364 16.3696 37.6989 16.3696 37.9127C16.7972 37.8058 18.6145 37.8058 20.218 37.8058C22.4629 37.6989 23.7458 37.592 25.5631 38.0196C25.5631 37.6989 25.4562 37.3782 25.4562 37.0575C25.4562 36.4161 25.5631 35.8816 25.67 35.1333C25.7769 34.5988 25.8838 34.0643 25.9907 33.4228C24.9217 34.385 22.9975 35.454 21.1801 35.7747C19.5766 36.0954 16.9041 35.5609 15.6213 33.9574C15.7282 33.9574 15.942 33.9574 16.0489 33.8505C16.3696 33.7436 16.6903 33.6367 16.7972 33.4228C17.1179 32.8883 16.9041 32.3538 16.6903 32.0331C16.4765 31.7124 14.8729 30.5365 14.1246 29.8951C13.3763 29.2537 12.9487 28.933 12.5211 28.5054L11.6659 27.6502C11.4521 27.4364 11.3452 27.2226 11.2383 27.1157C11.0245 26.5812 10.9176 25.9397 11.0245 25.0845C11.1314 23.9086 11.559 22.9465 12.0935 21.8775C12.3073 21.4499 12.8418 20.5947 12.8418 20.5947C12.8418 20.5947 11.0245 25.0845 11.9866 26.4743C11.9866 26.4743 12.0935 25.0845 12.5211 23.6948C12.8418 22.7327 13.3763 21.343 14.0177 20.5947C14.6591 19.8464 16.2627 17.0669 16.3696 15.3565C16.3696 14.6082 16.4765 13.8599 16.4765 13.3254C16.0489 12.8978 23.532 11.8288 23.9596 13.0047C24.0665 13.4323 25.5631 17.2807 26.4183 19.3119C26.8459 20.274 27.3804 21.1292 27.7011 22.1982C28.0218 23.3741 28.2356 24.9776 28.2356 26.5812C28.2356 26.9019 28.2356 27.4364 28.1287 27.9709C28.3425 27.9709 32.5117 23.481 27.5942 19.7395C27.5942 19.7395 30.5875 21.1292 30.6944 23.9086C30.8013 26.1535 29.8391 27.9709 29.6253 28.2916C29.7322 28.2916 31.8703 29.2537 31.9772 29.2537C32.4048 29.2537 33.26 28.933 33.26 28.933C33.3669 28.6123 33.6876 27.7571 33.6876 27.4364C34.4359 24.9776 32.6186 21.0223 30.9082 18.5635Z" fill="#263238"/>
<path d="M17.3311 11.5082C18.0986 11.5082 18.7208 10.551 18.7208 9.37021C18.7208 8.18941 18.0986 7.23218 17.3311 7.23218C16.5636 7.23218 15.9414 8.18941 15.9414 9.37021C15.9414 10.551 16.5636 11.5082 17.3311 11.5082Z" fill="#ECEFF1"/>
<path d="M22.1415 11.7219C23.1452 11.7219 23.9589 10.6211 23.9589 9.26318C23.9589 7.90526 23.1452 6.80444 22.1415 6.80444C21.1379 6.80444 20.3242 7.90526 20.3242 9.26318C20.3242 10.6211 21.1379 11.7219 22.1415 11.7219Z" fill="#ECEFF1"/>
<path d="M18.1052 9.51595C18.0163 8.81306 17.6119 8.28527 17.2019 8.3371C16.7919 8.38892 16.5315 9.00074 16.6204 9.70363C16.7092 10.4065 17.1136 10.9343 17.5237 10.8825C17.9337 10.8307 18.194 10.2188 18.1052 9.51595Z" fill="#212121"/>
<path d="M22.0339 11.0805C22.6243 11.0805 23.1029 10.4583 23.1029 9.69074C23.1029 8.92322 22.6243 8.30103 22.0339 8.30103C21.4435 8.30103 20.9648 8.92322 20.9648 9.69074C20.9648 10.4583 21.4435 11.0805 22.0339 11.0805Z" fill="#212121"/>
<path d="M36.2529 33.2089C35.8253 32.9951 35.0769 32.6744 34.4355 31.7123C34.1148 31.1777 34.2217 29.6811 33.6872 29.0397C33.3665 28.6121 32.9389 28.8259 32.832 28.8259C31.8699 29.0397 29.625 30.5363 28.1283 28.8259C27.9145 28.6121 27.5938 28.2914 27.0593 28.2914C26.5248 28.2914 26.311 28.5052 26.0972 28.9328C25.8834 29.3604 25.8834 29.6811 25.8834 30.7501C25.8834 31.6054 25.8834 32.5675 25.7765 33.3158C25.5627 35.1331 25.242 36.2021 25.242 37.2711C25.242 38.447 25.5627 39.1954 25.9903 39.5161C26.311 39.8368 26.8455 40.0506 28.0214 40.0506C29.1974 40.0506 29.9457 39.623 30.694 38.8747C31.2285 38.3401 31.6561 38.1263 33.1527 37.0573C34.3286 36.309 36.146 35.3469 36.4667 35.0262C36.6805 34.8124 37.0012 34.7055 37.0012 34.0641C37.0012 33.5296 36.5736 33.3158 36.2529 33.2089ZM14.7657 33.5296C13.6967 31.8192 13.5898 31.4985 12.8414 30.4294C12.2 29.3604 10.8103 27.3293 9.9551 27.3293C9.31369 27.3293 8.99299 27.65 8.56538 28.0776C8.13778 28.5052 7.71017 29.4673 6.96186 30.0018C6.32045 30.5363 4.50313 30.4294 4.07552 31.0708C3.64792 31.7123 4.50313 32.6744 4.50313 34.2779C4.50313 34.9193 3.96862 35.3469 3.86172 35.7745C3.75482 36.309 3.64792 36.6297 3.86172 37.0573C4.28933 37.6987 4.82383 37.9125 8.45848 38.6608C10.3827 39.0885 12.2 40.1575 13.3759 40.2644C14.5519 40.3713 16.583 40.2644 16.583 37.378C16.6899 35.6676 15.7278 35.24 14.7657 33.5296ZM16.7968 14.1804C16.1554 13.7528 15.6209 13.3252 15.6209 12.6838C15.6209 12.0424 16.0485 11.8286 16.6899 11.2941C16.7968 11.1872 17.9727 10.1182 19.1486 10.1182C20.3245 10.1182 21.7143 10.8665 22.2488 11.0803C23.2109 11.2941 24.173 11.5079 24.0661 12.2562C23.9592 13.3252 23.8523 13.539 22.7833 14.0735C22.035 14.2873 20.6452 15.4632 19.6831 15.4632C19.2555 15.4632 18.6141 15.4632 18.1865 15.3563C17.8658 15.2494 17.3313 14.7149 16.7968 14.1804Z" fill="#FFC107"/>
<path d="M16.5815 13.3254C16.7953 13.5392 17.116 13.753 17.4367 13.8599C17.6505 13.9668 17.9712 14.0737 17.9712 14.0737H18.9333C19.4678 14.0737 20.2161 13.8599 20.9645 13.4323C21.7128 13.1116 21.8197 12.8978 22.3542 12.684C22.8887 12.3633 23.4232 12.0426 23.2094 11.9357C22.9956 11.8288 22.7818 11.9357 22.0335 12.3633C21.3921 12.7909 20.8576 13.0047 20.2161 13.3254C19.8954 13.4323 19.4678 13.6461 19.1471 13.6461H18.185C17.8643 13.6461 17.6505 13.5392 17.3298 13.4323C17.116 13.3254 17.0091 13.2185 16.9022 13.2185C16.6884 13.1116 16.2608 12.684 16.047 12.5771C16.047 12.5771 15.8332 12.5771 15.9401 12.684L16.5815 13.3254ZM19.7885 10.9736C19.8954 11.1874 20.1092 11.1874 20.2161 11.2943C20.323 11.4012 20.4299 11.4012 20.4299 11.4012C20.5368 11.2943 20.4299 11.0805 20.323 11.0805C20.323 10.8667 19.7885 10.8667 19.7885 10.9736ZM18.0781 11.1874C18.0781 11.2943 18.2919 11.4012 18.2919 11.2943C18.3988 11.1874 18.5057 11.0805 18.6126 11.0805C18.8264 10.9736 18.7195 10.8667 18.3988 10.8667C18.185 10.9736 18.185 11.0805 18.0781 11.1874Z" fill="#634703"/>
<path d="M28.4471 30.1088V30.4295C28.6609 30.8571 29.1954 30.964 29.6231 30.964C30.2645 30.964 30.9059 30.5364 31.2266 30.1088C31.2266 30.0019 31.3335 29.895 31.4404 29.7881C31.6542 29.4674 31.7611 29.2536 31.868 29.1467C31.868 29.1467 31.7611 29.0398 31.7611 28.9329C31.6542 28.7191 31.3335 28.5052 30.9059 28.3983C30.5852 28.2914 30.0507 28.1845 29.8369 28.1845C28.8747 28.0776 28.3402 28.3983 28.0195 28.7191C28.0195 28.7191 28.1264 28.7191 28.1264 28.826C28.3402 29.0398 28.4471 29.2536 28.4471 29.5743C28.554 29.7881 28.4471 29.895 28.4471 30.1088Z" fill="#455A64"/>
</g>
<defs>
<clipPath id="clip0_3672_30928">
<rect width="40" height="40" fill="white" transform="translate(0 0.824707)"/>
</clipPath>
</defs>
</svg>
