<svg width="40" height="40" viewBox="0 0 40 40" fill="none" xmlns="http://www.w3.org/2000/svg">
<g clip-path="url(#clip0_3672_30923)">
<path d="M31.1341 20.9199C31.1149 17.6411 32.6004 15.1701 35.6003 13.348C33.9225 10.9443 31.3841 9.62221 28.0381 9.36742C24.8699 9.11742 21.4037 11.2135 20.1346 11.2135C18.7933 11.2135 15.7261 9.45395 13.3127 9.45395C8.33213 9.53087 3.03906 13.4249 3.03906 21.3477C3.03906 23.689 3.46693 26.1072 4.32267 28.5974C5.46685 31.8762 9.59169 39.9095 13.8944 39.7797C16.1443 39.7268 17.7356 38.1836 20.6634 38.1836C23.5046 38.1836 24.9757 39.7797 27.4852 39.7797C31.8264 39.7172 35.557 32.4146 36.6435 29.1263C30.8216 26.3812 31.1341 21.0881 31.1341 20.9199ZM26.0814 6.25696C28.5188 3.36284 28.2977 0.728329 28.2256 -0.21875C26.0718 -0.0937549 23.5815 1.24754 22.1633 2.89651C20.6009 4.66568 19.6826 6.85309 19.8798 9.31934C22.2066 9.49722 24.3315 8.30015 26.0814 6.25696Z" fill="white"/>
</g>
<defs>
<clipPath id="clip0_3672_30923">
<rect width="40" height="40" fill="white"/>
</clipPath>
</defs>
</svg>
