<svg width="40" height="41" viewBox="0 0 40 41" fill="none" xmlns="http://www.w3.org/2000/svg">
<path d="M10.0064 26.5726V30.7398L0 20.7591L2.0836 18.6755L10.0064 26.5726ZM14.1736 30.7655H10.0064L20.0129 40.772L22.0965 38.6884L14.1736 30.7655ZM37.9164 22.8427L40 20.7591L20.0129 0.771973L17.9293 2.85557L25.8521 10.7784H21.0675L15.537 5.27358L13.4534 7.35718L16.8746 10.7784H14.4823V26.2897H29.9936V23.8974L33.4148 27.3186L35.4984 25.235L29.9936 19.7302V14.9456L37.9164 22.8427ZM11.0354 9.72374L8.95177 11.8073L11.1897 14.0453L13.2733 11.9617L11.0354 9.72374ZM28.8103 27.4729L26.7267 29.5565L28.9646 31.7945L31.0482 29.7109L28.8103 27.4729ZM6.55948 14.1996L4.47588 16.2832L10.0064 21.8138V17.6466L6.55948 14.1996ZM23.1254 30.7655H18.9582L24.4887 36.2961L26.5723 34.2125L23.1254 30.7655Z" fill="#FF6161"/>
</svg>
