<svg width="39" height="40" viewBox="0 0 39 40" fill="none" xmlns="http://www.w3.org/2000/svg">
<path fill-rule="evenodd" clip-rule="evenodd" d="M27.6076 39.2569C28.2203 39.4956 28.9189 39.4803 29.5372 39.1827L37.5459 35.3291C38.3875 34.9241 38.9226 34.0724 38.9226 33.1381V7.00797C38.9226 6.07361 38.3875 5.22191 37.546 4.81697L29.5372 0.963206C28.7257 0.572703 27.7759 0.668352 27.0636 1.18617C26.9619 1.26014 26.865 1.34274 26.774 1.43375L11.4423 15.4212L4.76416 10.3519C4.14248 9.87997 3.27293 9.91864 2.69555 10.4439L0.553646 12.3922C-0.152601 13.0347 -0.153411 14.1457 0.551895 14.7892L6.34343 20.073L0.551895 25.3567C-0.153411 26.0002 -0.152601 27.1113 0.553646 27.7537L2.69555 29.7021C3.27293 30.2273 4.14248 30.266 4.76416 29.794L11.4423 24.7248L26.774 38.7122C27.0166 38.9548 27.3014 39.1376 27.6076 39.2569ZM29.2038 11.2424L17.5705 20.073L29.2038 28.9035V11.2424Z" fill="white"/>
<path d="M37.5464 4.82337L29.5314 0.964313C28.6036 0.517627 27.4949 0.706049 26.7669 1.43413L0.528781 25.3571C-0.176957 26.0005 -0.176146 27.1117 0.530531 27.7541L2.67374 29.7025C3.25147 30.2277 4.12156 30.2663 4.7436 29.7945L36.3403 5.82452C37.4003 5.02036 38.9229 5.7764 38.9229 7.10695V7.0139C38.9229 6.07993 38.3878 5.22855 37.5464 4.82337Z" fill="#0065A9"/>
<path d="M37.5464 35.3231L29.5314 39.1821C28.6036 39.6289 27.4949 39.4404 26.7669 38.7123L0.528781 14.7894C-0.176957 14.1459 -0.176146 13.0348 0.530531 12.3924L2.67374 10.444C3.25147 9.91876 4.12156 9.88009 4.7436 10.352L36.3403 34.3219C37.4003 35.1261 38.9229 34.37 38.9229 33.0395V33.1326C38.9229 34.0665 38.3878 34.9179 37.5464 35.3231Z" fill="#007ACC"/>
<path d="M29.5305 39.1827C28.6025 39.6292 27.4938 39.4403 26.7656 38.7122C27.6628 39.6093 29.1968 38.9739 29.1968 37.7051V2.44079C29.1968 1.172 27.6628 0.536583 26.7656 1.43375C27.4938 0.705603 28.6025 0.516916 29.5305 0.963206L37.5441 4.81698C38.3861 5.22192 38.9216 6.07362 38.9216 7.00798V33.1381C38.9216 34.0724 38.3861 34.9241 37.5441 35.3291L29.5305 39.1827Z" fill="#1F9CF0"/>
<path style="mix-blend-mode:overlay" opacity="0.25" fill-rule="evenodd" clip-rule="evenodd" d="M27.5842 39.2569C28.1968 39.4956 28.8955 39.4803 29.5138 39.1827L37.5225 35.3291C38.364 34.9242 38.8992 34.0725 38.8992 33.1381V7.00799C38.8992 6.07359 38.3641 5.22189 37.5225 4.81695L29.5138 0.963206C28.7023 0.572703 27.7525 0.668352 27.0402 1.18617C26.9385 1.26015 26.8415 1.34274 26.7506 1.43375L11.4189 15.4211L4.74072 10.3519C4.11907 9.87996 3.2495 9.91866 2.67212 10.4438L0.530209 12.3922C-0.176039 13.0347 -0.176849 14.1458 0.528458 14.7892L6.31999 20.073L0.528458 25.3567C-0.176849 26.0002 -0.176039 27.1113 0.530209 27.7537L2.67212 29.7021C3.2495 30.2273 4.11907 30.2659 4.74072 29.7941L11.4189 24.7248L26.7506 38.7122C26.9931 38.9548 27.2779 39.1376 27.5842 39.2569ZM29.1803 11.2424L17.5471 20.073L29.1803 28.9035V11.2424Z" fill="url(#paint0_linear_1539_25924)"/>
<defs>
<linearGradient id="paint0_linear_1539_25924" x1="19.4496" y1="0.723633" x2="19.4496" y2="39.4223" gradientUnits="userSpaceOnUse">
<stop stop-color="white"/>
<stop offset="1" stop-color="white" stop-opacity="0"/>
</linearGradient>
</defs>
</svg>
