<svg width="80" height="80" viewBox="0 0 80 80" fill="none" xmlns="http://www.w3.org/2000/svg">
<path fill-rule="evenodd" clip-rule="evenodd" d="M32.2321 40.0347C32.2321 33.3139 26.8274 27.8833 20.1331 27.8833L20.1337 27.8846C13.4565 27.8846 8.00884 33.2893 8.00001 39.9319C7.99118 46.6684 13.3877 52.1167 20.0644 52.1167C26.7927 52.1167 32.2321 46.7201 32.2321 40.0347ZM18.3864 45.5555L19.5971 45.6412H19.5953C19.627 45.6412 19.6588 45.6414 19.6906 45.6415C19.9096 45.6425 20.1318 45.6435 20.352 45.5983C20.4718 45.5731 20.5745 45.5302 20.5493 45.3839C20.5235 45.2547 20.4894 45.1317 20.4377 45.0056C20.3784 44.8593 20.1981 44.8366 20.1035 44.9627C20.0918 44.9768 20.0833 44.9935 20.0752 45.0094C20.0536 45.0517 20.0348 45.0885 19.966 45.0573C19.9003 45.0242 19.9158 44.9703 19.9303 44.92C19.9346 44.9051 19.9388 44.8906 19.9408 44.877C20.0176 44.3535 20.1926 43.8492 20.4566 43.3907C20.5172 43.279 20.5254 43.228 20.3709 43.1933C19.8688 43.0754 19.3877 42.8813 18.9445 42.6176C18.8417 42.5514 18.7988 42.5659 18.7471 42.6775C18.3776 43.4853 18.0945 44.3107 18.1115 45.2212C18.1115 45.4293 18.189 45.5208 18.3864 45.5555ZM21.7708 45.5466H22.4329L22.4367 45.5397H23.0988C23.1871 45.5397 23.3163 45.5309 23.351 45.4451C23.392 45.3396 23.4488 45.2394 23.5057 45.1391C23.616 44.9445 23.7264 44.7499 23.7205 44.5169C23.7205 44.2079 23.672 43.8983 23.6089 43.5975C23.5824 43.5029 23.5484 43.46 23.445 43.46C23.0162 43.4689 22.5861 43.4689 22.1649 43.4171C22.0451 43.4077 22.0016 43.4253 22.0362 43.5716C22.122 43.9412 22.1737 44.3107 22.1649 44.689C22.1567 44.8442 22.1226 44.9476 21.9505 44.9728C21.8775 44.9875 21.8088 45.0183 21.7493 45.0631C21.6898 45.1078 21.6412 45.1653 21.6068 45.2313C21.5047 45.418 21.5646 45.5378 21.7708 45.5466ZM23.6278 43.0974L23.1549 41.5853L23.1625 41.5821C23.1567 41.5615 23.1585 41.5421 23.1604 41.5215C23.1614 41.5107 23.1625 41.4995 23.1625 41.4876C23.1767 41.4876 23.1833 41.4975 23.1903 41.508C23.1963 41.5169 23.2025 41.5264 23.2142 41.5304C23.5667 42.2197 23.9103 42.9398 24.2023 43.67C24.3391 43.9967 24.4735 44.3397 24.5365 44.6928C24.5617 44.8473 24.5535 44.9678 24.3473 44.9848C24.1752 45.0018 24.0377 45.1046 23.9608 45.2767C23.8839 45.4489 23.9356 45.5517 24.1247 45.5605C24.6914 45.5876 25.2589 45.5933 25.8261 45.5775C25.9159 45.5794 26.004 45.553 26.078 45.5021C26.152 45.4512 26.2081 45.3783 26.2385 45.2938C26.2616 45.2392 26.2825 45.1824 26.3034 45.1254C26.3522 44.9929 26.4013 44.8595 26.4793 44.7515C26.6679 44.4854 26.6597 44.2104 26.608 43.9267L26.118 41.934C25.903 40.9976 25.5505 40.1551 24.8203 39.459L22.7923 37.2418C22.5332 36.9452 22.2112 36.8066 21.8776 36.6629C21.802 36.6304 21.7258 36.5976 21.6497 36.5627L21.5551 37.0861L21.4693 37.6189C21.4364 37.5789 21.4048 37.5403 21.3742 37.503C21.2533 37.3553 21.1478 37.2264 21.0311 37.1031C20.9927 37.0619 20.957 37.0085 20.9211 36.9549C20.8445 36.8403 20.7672 36.7248 20.6616 36.7248C20.5575 36.7248 20.4807 36.8331 20.4026 36.9432C20.3643 36.9973 20.3256 37.0519 20.2832 37.0943L19.7504 37.6788L19.6987 36.8622C19.6848 36.5785 19.6848 36.5785 19.4326 36.7248L18.6847 37.1536C18.6016 37.2023 18.5286 37.2666 18.4697 37.3427C17.2507 38.9753 16.1579 40.6861 15.1698 42.4643C14.7081 43.2834 14.482 44.2142 14.5165 45.1538C14.5165 45.343 14.5935 45.4344 14.7574 45.4691C14.7816 45.4742 14.8064 45.4802 14.8316 45.4862C14.8897 45.5002 14.9498 45.5146 15.0096 45.5208C15.5272 45.5874 16.0499 45.5777 16.5685 45.5681C16.6533 45.5665 16.738 45.5649 16.8226 45.5637C17.3927 45.5552 17.3515 45.4277 17.2173 45.0129C17.212 44.9964 17.2065 44.9795 17.2009 44.9621C17.1328 44.7559 16.9083 44.7218 16.7797 44.9022C16.7368 44.9627 16.7053 44.9791 16.6422 44.9539C16.5684 44.9267 16.5805 44.8571 16.5894 44.8058C16.5898 44.8036 16.5902 44.8015 16.5905 44.7994C16.6422 44.5245 16.7538 44.2747 16.9083 44.0515C17.088 43.7848 17.3031 43.5527 17.5263 43.3295C17.8763 42.9852 18.1682 42.6068 18.4091 42.178L19.2264 40.8078C19.2483 40.8026 19.2635 40.7868 19.2781 40.7715C19.2865 40.7627 19.2947 40.7541 19.3039 40.7479C19.2873 40.7799 19.2855 40.8059 19.2836 40.8322C19.2827 40.8457 19.2817 40.8594 19.2787 40.874L18.7887 42.0513C18.7377 42.1635 18.7402 42.2323 18.8663 42.2922C18.9414 42.3313 19.0148 42.3748 19.0884 42.4185C19.1928 42.4805 19.2977 42.5427 19.4086 42.593C20.6941 43.2168 22.0805 43.251 23.4587 43.285C23.4806 43.2855 23.5025 43.2861 23.5244 43.2866C23.6795 43.2866 23.6625 43.2009 23.6278 43.0974ZM14.4049 39.3093C14.7244 39.1101 15.0498 38.9074 15.2095 38.5345L15.2108 38.5307C15.2914 38.5512 15.2779 38.6046 15.2676 38.6458C15.2636 38.6616 15.2601 38.6756 15.2625 38.6852C15.2602 38.7122 15.2608 38.742 15.2614 38.7719C15.2631 38.847 15.2647 38.9232 15.2196 38.9602C15.1323 39.0268 15.0484 39.1 14.9644 39.1734C14.7263 39.3813 14.4867 39.5904 14.1628 39.6538C14.1489 39.6591 14.1349 39.6631 14.1215 39.667C14.0771 39.6799 14.0384 39.6912 14.0253 39.7396C14.0076 39.8171 14.0594 39.8518 14.1111 39.877C14.228 39.925 14.3316 39.9924 14.4344 40.0592C14.4979 40.1006 14.5611 40.1417 14.6269 40.1778C14.729 40.2384 14.835 40.2813 14.9611 40.2813C15.6232 40.2636 16.2071 40.058 16.6025 39.4905L18.7679 36.4826C19.0517 36.1017 19.0517 36.1017 18.6822 35.7864L17.2041 34.5568C16.8522 34.273 16.6019 34.2989 16.2677 34.5997C16.2349 34.6226 16.2113 34.6496 16.1888 34.6754C16.178 34.6878 16.1673 34.7 16.156 34.7113C15.6402 35.287 15.1849 35.8968 14.7467 36.5242C14.6698 36.6264 14.6351 36.7468 14.695 36.8584C14.8671 37.2027 14.712 37.4171 14.4459 37.6063C14.4241 37.6242 14.4024 37.6451 14.3802 37.6666C14.349 37.6966 14.3169 37.7276 14.2819 37.7526C14.1874 37.8213 14.1527 37.9159 14.2302 38.0017C14.316 38.0988 14.2731 38.1619 14.1874 38.2249C14.007 38.3763 13.8349 38.532 13.7233 38.7294C13.6116 38.9186 13.6627 39.1765 13.8349 39.3568C13.9465 39.4716 14.0839 39.5145 14.2302 39.4199C14.2876 39.3824 14.3461 39.3459 14.4049 39.3093ZM22.0201 36.5404L22.0236 36.5419H22.0186C22.0191 36.5414 22.0196 36.5409 22.0201 36.5404ZM21.6024 36.3615L22.0201 36.5404C22.0357 36.5239 22.0471 36.5039 22.0533 36.482L21.3142 35.7253C21.1503 35.562 20.9611 35.4163 20.7467 35.3129C20.4711 35.1924 20.2132 35.2101 19.99 35.4245C19.5751 35.8281 19.2251 36.3092 18.8814 36.7821L19.5517 36.4126C19.6787 36.3381 19.7431 36.3003 19.7779 36.3187C19.8138 36.3376 19.818 36.4164 19.8267 36.5766C19.8283 36.6166 19.8292 36.6563 19.8302 36.6959C19.8343 36.8609 19.8383 37.0251 19.8866 37.2122L20.4882 36.5419C20.5909 36.4158 20.6515 36.3956 20.7631 36.5419L21.3218 37.204L21.4479 36.4473C21.4649 36.3445 21.499 36.3098 21.6024 36.3615Z" fill="#049EDB"/>
<path d="M19.7725 36.9064C19.797 36.8257 19.8487 36.7559 19.9188 36.709C19.9099 36.8036 19.8841 36.8893 19.8242 36.9581L19.7725 36.9064Z" fill="#049EDB"/>
<path d="M15.751 34.6123C15.7598 34.5871 15.7762 34.5606 15.7857 34.5347C15.7945 34.5436 15.8203 34.5518 15.8203 34.5694C15.8203 34.647 15.8292 34.7239 15.7857 34.7926C15.7686 34.7327 15.8027 34.664 15.751 34.6123Z" fill="#049EDB"/>
<path d="M23.6909 37.6624C23.6392 37.6196 23.6392 37.559 23.6392 37.4903C23.7249 37.4991 23.7167 37.5679 23.7337 37.6164C23.7217 37.6354 23.7072 37.6527 23.6909 37.6681V37.6624Z" fill="#049EDB"/>
<path fill-rule="evenodd" clip-rule="evenodd" d="M55.5505 34.7283V39.9887L55.5442 39.9855V44.9797C55.5442 45.5347 55.6558 45.7345 56.2549 45.7125C57.3481 45.6652 58.4298 45.6742 59.5166 45.6832C59.9525 45.6868 60.3892 45.6904 60.8279 45.6904C61.3791 45.6904 61.6511 45.6904 61.788 45.5544C61.9267 45.4166 61.9266 45.1392 61.9377 44.5806C61.9377 44.2022 61.833 44.0761 61.4333 44.0761L57.7254 44.0982C57.4139 44.0982 57.3029 44.0086 57.3029 43.6757V40.9453C57.2815 40.6123 57.4145 40.5455 57.7254 40.5455H60.7081C61.2447 40.5455 61.5166 40.5455 61.6544 40.4095C61.7958 40.2699 61.7958 39.987 61.7958 39.4136C61.7958 39.0131 61.6401 38.9249 61.263 38.9249L57.7778 38.9469C57.4 38.9469 57.267 38.8353 57.2891 38.4582V36.2827C57.2891 35.9485 57.3786 35.8602 57.7115 35.8602H60.797C61.3702 35.8602 61.6587 35.8602 61.8012 35.716C61.9455 35.5699 61.94 35.2757 61.9289 34.6836C61.9289 34.3065 61.7952 34.2396 61.4623 34.2396H56.0392C55.6615 34.2396 55.5505 34.3512 55.5505 34.7283ZM64.0313 45.7226C64.6972 45.8335 65.0749 45.5668 65.4078 44.9678L67.5613 41.3495L67.5669 41.3444L69.8534 45.3404C69.8759 45.3718 69.8965 45.4059 69.9174 45.4404C69.9996 45.5763 70.0851 45.7175 70.2974 45.7175H72L68.7821 40.1671C68.5822 39.8342 68.6043 39.6122 68.8041 39.3013L71.3795 35.0613C71.4171 34.9926 71.4599 34.9256 71.5035 34.8575C71.6148 34.6835 71.7312 34.5015 71.7792 34.2623C71.6228 34.2623 71.4665 34.2673 71.311 34.2722C71.0027 34.282 70.6978 34.2917 70.4027 34.2623C70.0035 34.2245 69.8036 34.396 69.6037 34.729L67.584 38.1467L65.6083 34.6615C65.5941 34.6332 65.581 34.6037 65.5679 34.5743C65.4985 34.4186 65.4287 34.2617 65.1859 34.2617H63.4328L66.2295 39.085C66.4956 39.5517 66.5403 39.884 66.2295 40.3506L63.3433 45.1456C63.325 45.171 63.3049 45.1966 63.2844 45.2226C63.1803 45.3546 63.0655 45.5003 63.1213 45.7226C63.2258 45.7226 63.3302 45.7176 63.4338 45.7126C63.6383 45.7029 63.8395 45.6933 64.0313 45.7226ZM35.8402 45.7345L35.8385 45.7383L35.8359 45.7345C35.8374 45.7345 35.8388 45.7345 35.8402 45.7345ZM41.1669 34.3058L35.8402 45.7345C36.0307 45.7345 36.2107 45.7319 36.3839 45.7294C36.7138 45.7246 37.019 45.7201 37.3241 45.7345C37.5902 45.7566 37.8122 45.6898 37.9232 45.4457L38.6338 43.6473L38.8117 43.1586C38.8117 43.1586 39.1446 43.1807 39.3445 43.1807H41.9167L43.2932 43.2027L43.9869 44.5125L44.5197 45.7547H45.8515C46.2948 45.7547 46.4285 45.7169 46.2065 45.2503L41.4557 34.7056C41.4484 34.6801 41.4422 34.6533 41.436 34.6263C41.4044 34.4885 41.3709 34.3427 41.1669 34.3058ZM47.515 34.7939V39.9887L47.5213 39.9893V44.4961C47.5213 45.1282 47.5213 45.4388 47.6766 45.5913C47.8318 45.7438 48.1424 45.7383 48.7635 45.7383C49.1413 45.7383 49.2523 45.6267 49.2523 45.2496L49.2302 41.6534C49.2302 41.2095 49.3405 41.0102 49.8292 41.0543C50.5178 41.0985 51.2064 41.0096 51.8496 40.7655C53.2874 40.2106 54.0857 38.9009 53.9306 37.2803C53.7761 35.7486 52.6877 34.6161 51.1781 34.372C50.4985 34.2716 49.8239 34.2732 49.1494 34.2748C48.7825 34.2757 48.4155 34.2766 48.0478 34.2611C47.6411 34.239 47.515 34.35 47.515 34.7939ZM41.2105 38.0095L41.2095 38.0074H41.2114L41.2105 38.0095ZM41.2105 38.0095L39.7233 41.2044C39.6123 41.4485 39.6123 41.5595 39.9232 41.5595H42.7419L41.2105 38.0095ZM49.2463 36.3489V37.6517V37.6587V37.6587C49.2463 37.8365 49.2463 38.0358 49.2243 38.2136C49.2243 38.8962 49.2243 39.2401 49.395 39.3918C49.5685 39.5458 49.9181 39.5013 50.6229 39.4117C51.6217 39.2786 52.1994 38.701 52.2435 37.8132C52.311 36.7702 51.8664 36.2146 50.8228 35.9485C50.6061 35.8956 50.3915 35.8903 50.1778 35.885C50.0351 35.8814 49.8929 35.8779 49.7508 35.8602C49.3725 35.8161 49.2022 35.9265 49.2463 36.3489Z" fill="#049EDB"/>
</svg>
