<svg width="80" height="80" viewBox="0 0 80 80" fill="none" xmlns="http://www.w3.org/2000/svg">
<path fill-rule="evenodd" clip-rule="evenodd" d="M68.2617 57.0001C68.7185 56.1811 69 55.2514 69 54.4213V25.5787C69 24.7486 68.7185 23.8244 68.2617 22.9999L40 40L68.2617 57.0001Z" fill="#3949AB"/>
<path fill-rule="evenodd" clip-rule="evenodd" d="M42.5127 73.3749L66.4882 58.9536C67.1786 58.5386 67.8054 57.8192 68.2622 57.0001L40.0005 40L11.7388 57.0001C12.1955 57.8192 12.8223 58.5386 13.5128 58.9536L37.4882 73.3749C38.8692 74.205 41.1265 74.205 42.5127 73.3749Z" fill="#283593"/>
<path fill-rule="evenodd" clip-rule="evenodd" d="M68.2617 22.9999C67.8049 22.1809 67.1782 21.4614 66.4877 21.0464L42.5122 6.62507C41.1313 5.79498 38.8687 5.79498 37.4877 6.62507L13.5123 21.0464C12.1313 21.8765 11 23.9185 11 25.5787V54.4213C11 55.2514 11.2815 56.1756 11.7383 57.0001L40 40L68.2617 22.9999Z" fill="#5C6BC0"/>
<path fill-rule="evenodd" clip-rule="evenodd" d="M39.9998 60.1434C29.3399 60.1434 20.6665 51.1065 20.6665 40C20.6665 28.8935 29.3399 19.8566 39.9998 19.8566C46.878 19.8566 53.2941 23.7138 56.7412 29.9228L48.3758 34.9697C46.6496 31.8597 43.4416 29.9339 39.9998 29.9339C34.6672 29.9339 30.3332 34.4495 30.3332 40.0055C30.3332 45.556 34.6672 50.0772 39.9998 50.0772C43.4416 50.0772 46.6496 48.1459 48.3758 45.0414L56.7412 50.0883C53.2941 56.2863 46.878 60.1434 39.9998 60.1434Z" fill="white"/>
</svg>
