<svg width="24" height="25" viewBox="0 0 24 25" fill="none" xmlns="http://www.w3.org/2000/svg">
<path d="M11.9678 0.51849C11.9678 0.51849 19.0411 0.201075 22.7912 7.3108H11.3659C11.3659 7.3108 9.20975 7.24131 7.3679 9.85707C6.83881 10.955 6.27009 12.0859 6.90831 14.3148C5.98893 12.7572 2.02734 5.85914 2.02734 5.85914C2.02734 5.85914 4.82163 0.799562 11.9677 0.51849H11.9678Z" fill="#EF3F36"/>
<path d="M22.4257 18.5674C22.4257 18.5674 19.1618 24.8537 11.1328 24.5428C12.1249 22.8266 16.847 14.6487 16.847 14.6487C16.847 14.6487 17.9879 12.8167 16.642 9.9133C15.9574 8.9047 15.2597 7.84982 13.0111 7.28758C14.82 7.27114 22.773 7.28758 22.773 7.28758C22.773 7.28758 25.7524 12.238 22.4257 18.5674Z" fill="#FCD900"/>
<path d="M1.56272 18.6169C1.56272 18.6169 -2.25011 12.648 2.03556 5.84912C3.02434 7.56542 7.7465 15.7433 7.7465 15.7433C7.7465 15.7433 8.76504 17.648 11.9495 17.9323C13.1632 17.8431 14.4264 17.767 16.0402 16.1037C15.1505 17.6778 11.1591 24.5561 11.1591 24.5561C11.1591 24.5561 5.37875 24.6619 1.56263 18.6169H1.56272Z" fill="#61BC5B"/>
<path d="M11.1289 24.6024L12.736 17.8961C12.736 17.8961 14.5019 17.7572 15.9834 16.1335C15.064 17.7507 11.1289 24.6024 11.1289 24.6024Z" fill="#5AB055"/>
<path d="M6.58594 12.6348C6.58594 9.67852 8.98346 7.28101 11.9397 7.28101C14.896 7.28101 17.2935 9.67852 17.2935 12.6348C17.2935 15.5912 14.896 17.9886 11.9397 17.9886C8.98346 17.9853 6.58594 15.5912 6.58594 12.6348Z" fill="white"/>
<path d="M7.48047 12.6349C7.48047 10.1746 9.47455 8.17725 11.9382 8.17725C14.3984 8.17725 16.3958 10.1713 16.3958 12.6349C16.3958 15.0952 14.4018 17.0926 11.9382 17.0926C9.47784 17.0926 7.48047 15.0952 7.48047 12.6349Z" fill="url(#paint0_linear_2039_29649)"/>
<path d="M22.7696 7.29105L16.1526 9.23216C16.1526 9.23216 15.1539 7.76717 13.0078 7.29105C14.8696 7.28109 22.7696 7.29105 22.7696 7.29105Z" fill="#EACA05"/>
<path d="M6.77937 14.07C5.85004 12.4596 2.02734 5.85913 2.02734 5.85913L6.92812 10.7069C6.92812 10.7069 6.42542 11.742 6.61399 13.2234L6.77928 14.07H6.77937Z" fill="#DF3A32"/>
<defs>
<linearGradient id="paint0_linear_2039_29649" x1="11.938" y1="8.24019" x2="11.938" y2="16.8242" gradientUnits="userSpaceOnUse">
<stop stop-color="#86BBE5"/>
<stop offset="1" stop-color="#1072BA"/>
</linearGradient>
</defs>
</svg>
