<svg width="80" height="80" viewBox="0 0 80 80" fill="none" xmlns="http://www.w3.org/2000/svg">
<path d="M68.2621 56.3173C68.7172 55.529 69 54.6408 69 53.8432V26.1569C69 25.3593 68.7176 24.4713 68.2623 23.683L40 40.0001L68.2621 56.3173Z" fill="#00599C"/>
<path d="M42.5118 72.0361L66.489 58.1931C67.1796 57.7943 67.8074 57.1057 68.2625 56.3172L40.0004 40.0001L11.7383 56.3174C12.1934 57.1057 12.8213 57.7945 13.5118 58.1931L37.489 72.0361C38.8701 72.8337 41.1306 72.8337 42.5118 72.0361Z" fill="#004482"/>
<path d="M68.2623 23.6828C67.807 22.8943 67.1791 22.2057 66.4886 21.8069L42.5114 7.96383C41.1302 7.16623 38.8698 7.16623 37.4886 7.96383L13.5114 21.8069C12.1301 22.6043 11 24.5619 11 26.1569V53.8432C11 54.6407 11.2826 55.5289 11.7379 56.3172L40 40.0001L68.2623 23.6828Z" fill="#659AD2"/>
<path d="M39.9998 59.3334C29.3394 59.3334 20.6665 50.6605 20.6665 40.0001C20.6665 29.3396 29.3394 20.6667 39.9998 20.6667C46.8787 20.6667 53.2942 24.3685 56.7423 30.3273L48.3753 35.169C46.6496 32.1864 43.44 30.3334 39.9998 30.3334C34.6695 30.3334 30.3332 34.6698 30.3332 40.0001C30.3332 45.3302 34.6695 49.6667 39.9998 49.6667C43.4404 49.6667 46.6499 47.8138 48.3759 44.8306L56.7429 49.6721C53.2947 55.6315 46.8791 59.3334 39.9998 59.3334Z" fill="white"/>
<path d="M59.3331 38.926H57.1848V36.7779H55.0369V38.926H52.8887V41.0741H55.0369V43.2223H57.1848V41.0741H59.3331V38.926Z" fill="white"/>
<path d="M67.3898 38.926H65.2415V36.7779H63.0936V38.926H60.9453V41.0741H63.0936V43.2223H65.2415V41.0741H67.3898V38.926Z" fill="white"/>
</svg>
