<svg width="80" height="80" viewBox="0 0 80 80" fill="none" xmlns="http://www.w3.org/2000/svg">
<g clip-path="url(#clip0_463:34360)">
<path d="M69.899 25.7934C69.8985 24.6614 69.6564 23.6611 69.1668 22.8028C68.6859 21.9583 67.9656 21.2508 66.9995 20.6913C59.0249 16.0931 51.0426 11.509 43.0705 6.90607C40.9213 5.66529 38.8375 5.71076 36.7042 6.96935C33.5301 8.84107 17.6383 17.9458 12.9027 20.6887C10.9525 21.8179 10.0035 23.5458 10.003 25.7913C10 35.0386 10.003 44.2858 10 53.5331C10 54.6403 10.2323 55.6214 10.7003 56.4668C11.1815 57.3365 11.9118 58.0636 12.9002 58.6357C17.6359 61.3786 33.5298 70.4826 36.7033 72.3551C38.8375 73.6143 40.9213 73.6594 43.0713 72.4183C51.0435 67.8152 59.0263 63.2311 67.0021 58.6329C67.9905 58.061 68.7208 57.3335 69.202 56.4644C69.6693 55.6188 69.902 54.6379 69.902 53.5305C69.902 53.5305 69.902 35.0409 69.899 25.7934Z" fill="#A179DC"/>
<path d="M40.0425 39.572L10.7002 56.4667C11.1814 57.3365 11.9117 58.0635 12.9 58.6356C17.6358 61.3785 33.5297 70.4826 36.7032 72.355C38.8374 73.6143 40.9212 73.6593 43.0711 72.4183C51.0434 67.8152 59.0262 63.231 67.002 58.6328C67.9903 58.0609 68.7207 57.3334 69.2018 56.4644L40.0425 39.572" fill="#280068"/>
<path d="M69.8988 25.7934C69.8983 24.6613 69.6562 23.661 69.1666 22.8027L40.0425 39.5723L69.2018 56.4644C69.6691 55.6188 69.9014 54.6379 69.9019 53.5305C69.9019 53.5305 69.9019 35.0409 69.8988 25.7934" fill="#390091"/>
<path d="M57.3183 33.2563V36.4143H60.4762V33.2563H62.0552V36.4143H65.2132V37.9933H62.0552V41.151H65.2132V42.73H62.0552V45.888H60.4762V42.73H57.3183V45.888H55.7393V42.73H52.5815V41.151H55.7393V37.9933H52.5815V36.4143H55.7393V33.2563H57.3183ZM60.4762 37.9931H57.3183V41.151H60.4762V37.9933V37.9931Z" fill="white"/>
<path d="M40.1072 17.3967C48.344 17.3967 55.5354 21.87 59.3873 28.5192L59.3498 28.4552L49.6584 34.0352C47.7492 30.8025 44.249 28.6207 40.2335 28.5757L40.1069 28.575C33.9839 28.575 29.0198 33.5391 29.0198 39.6621C29.0178 41.592 29.522 43.4887 30.4821 45.1629C32.3932 48.4992 35.9859 50.7495 40.1072 50.7495C44.254 50.7495 47.8671 48.4706 49.7683 45.0987L49.7222 45.1795L59.3988 50.7853C55.589 57.3783 48.4962 61.8377 40.3551 61.9266L40.1072 61.928C31.8443 61.928 24.6326 57.427 20.7902 50.7427C18.9145 47.4794 17.8413 43.6964 17.8413 39.6621C17.8413 27.3654 27.8097 17.3965 40.1069 17.3965L40.1072 17.3967Z" fill="white"/>
</g>
<defs>
<clipPath id="clip0_463:34360">
<rect width="60" height="67.5" fill="white" transform="translate(10 6)"/>
</clipPath>
</defs>
</svg>
