<svg width="80" height="80" viewBox="0 0 80 80" fill="none" xmlns="http://www.w3.org/2000/svg">
<path d="M19.8035 62.402L15.3115 12H64.6875L60.1895 62.394L39.9695 68L19.8035 62.402Z" fill="#1572B6"/>
<path d="M40 63.716L56.34 59.186L60.184 16.122H40V63.716Z" fill="#33A9DC"/>
<path d="M40 34.382H48.18L48.744 28.052H40V21.87H55.5L55.352 23.528L53.834 40.564H40V34.382Z" fill="white"/>
<path d="M40.0385 50.436L40.0105 50.444L33.1265 48.584L32.6865 43.654H26.4805L27.3465 53.36L40.0085 56.876L40.0385 56.868V50.436Z" fill="#EBEBEB"/>
<path d="M47.6536 40.302L46.9096 48.58L40.0156 50.44V56.872L52.6876 53.36L52.7816 52.316L53.8556 40.302H47.6536Z" fill="white"/>
<path d="M40.0221 21.87V28.052H25.0901L24.9661 26.662L24.6841 23.528L24.5361 21.87H40.0221Z" fill="#EBEBEB"/>
<path d="M40.0004 34.382V40.564H33.2024L33.0784 39.174L32.7984 36.04L32.6504 34.382H40.0004Z" fill="#EBEBEB"/>
</svg>
