<svg width="80" height="80" viewBox="0 0 80 80" fill="none" xmlns="http://www.w3.org/2000/svg">
<path d="M25.2684 25.7033L21.1318 21.5668L21.1493 51.4669L21.1988 52.8644C21.2193 53.5219 21.3413 54.2639 21.5448 55.0329L54.321 66.5905L62.514 62.9605L62.517 62.9505L25.2684 25.7033Z" fill="#00D2B8"/>
<path d="M21.5451 55.0329L21.5471 55.0349C21.5451 55.0214 21.5381 55.0064 21.5381 54.9924C21.5381 55.0064 21.5401 55.0194 21.5451 55.0329ZM62.5142 62.9605L54.3212 66.5905L21.5471 55.0349C22.1731 57.4369 23.5591 60.1369 25.0506 61.6135L35.7466 72.2485L59.5292 72.2795L62.5172 62.9505L62.5142 62.9605Z" fill="#55DDCA"/>
<path d="M8.39355 40.8084C7.33455 41.9389 7.86055 44.2709 9.56556 45.9889L16.9201 53.4044L21.5451 55.0329C21.3416 54.2639 21.2196 53.5219 21.1991 52.8644L21.1496 51.4669L21.1321 21.5668L8.39355 40.8084Z" fill="#0081C6"/>
<path d="M54.59 21.9508C53.821 21.7543 53.0835 21.6328 52.415 21.6118L50.9379 21.5608L21.1318 21.5648L62.521 62.9504H62.5245L66.1595 54.7494L54.59 21.9508Z" fill="#0079B3"/>
<path d="M54.5527 21.9428C54.5687 21.9463 54.5812 21.9508 54.5917 21.9523L54.5902 21.9508C54.5812 21.9463 54.5687 21.9463 54.5527 21.9428ZM61.1648 25.4623C59.6628 23.9478 56.9982 22.5713 54.5917 21.9523L66.1598 54.7494L62.5248 62.9505H62.5213L71.4043 60.1134L71.4233 35.7594L61.1648 25.4623Z" fill="#00A4E4"/>
<path d="M52.9695 17.3538L45.5559 9.99476C43.8414 8.29625 41.5084 7.76775 40.3809 8.82375L21.1318 21.5648L50.9379 21.5608L52.415 21.6118C53.0835 21.6328 53.821 21.7543 54.59 21.9508L52.9695 17.3538Z" fill="#00D2B8"/>
</svg>
