<svg width="80" height="76" viewBox="0 0 80 76" fill="none" xmlns="http://www.w3.org/2000/svg">
<path d="M44.3822 31.7759H49.4002V37.2286H51.9402C53.1268 37.2231 54.3046 37.0135 55.4282 36.6081C56.0187 36.4004 56.5871 36.1276 57.1242 35.7943C56.4368 34.7837 56.0288 33.5892 55.9462 32.3454C55.7356 30.5304 56.1754 28.6977 57.1782 27.2114L57.7062 26.5633L58.3342 27.1009C60.0003 28.399 61.129 30.3317 61.4842 32.4941C63.4216 31.8611 65.516 32.0681 67.3102 33.07L68.0002 33.495L67.6382 34.2473C66.9042 35.5628 65.8186 36.6167 64.5195 37.2751C63.2204 37.9335 61.7663 38.1666 60.3422 37.9448C55.9962 49.4474 46.5422 54.8938 35.0582 54.8938C32.1984 55.0746 29.3456 54.4318 26.8009 53.0334C24.2562 51.635 22.114 49.5327 20.6002 46.9484L20.5502 46.857L20.0982 45.8816C19.0759 43.4174 18.6768 40.7124 18.9402 38.034L19.0102 37.2265H23.2962V31.7759H28.3162V26.4421H38.3562V21.1084H44.3802V31.7759H44.3822Z" fill="#3A4E55"/>
<path d="M60.6473 33.7946C60.6817 32.6236 60.4403 31.4619 59.9451 30.415C59.4498 29.3682 58.7164 28.4693 57.8113 27.8C57.0274 29.0227 56.6577 30.4921 56.7627 31.9673C56.8677 33.4425 57.4412 34.8361 58.3893 35.9196C56.5255 37.3871 54.2587 38.1615 51.9393 38.1233H19.7653C19.4891 40.8513 19.9519 43.6063 21.0993 46.0644L21.4653 46.7763C21.6968 47.1938 21.9499 47.5975 22.2233 47.9854C23.5459 48.0761 24.7653 48.1079 25.8813 48.081C27.6896 48.0928 29.4893 47.8142 31.2193 47.2544C31.3161 47.2189 31.4222 47.2257 31.5143 47.2733C31.6064 47.3209 31.6769 47.4055 31.7103 47.5083C31.7437 47.6112 31.7373 47.7239 31.6925 47.8218C31.6476 47.9196 31.5681 47.9945 31.4713 48.03C31.2913 48.0959 31.1033 48.1596 30.9093 48.217C29.7054 48.5747 28.4678 48.7885 27.2193 48.8545C27.3073 48.8545 27.1273 48.8694 27.1273 48.8694L26.9633 48.8843C25.6252 48.9466 24.285 48.9424 22.9473 48.8715L22.9273 48.8864C24.4872 50.6103 26.3765 51.9593 28.4681 52.8427C30.5597 53.726 32.8051 54.1233 35.0533 54.0076C46.1733 54.0076 55.6053 48.7695 59.7833 37.0076C62.7473 37.3306 65.5953 36.5274 66.8893 33.8414C65.9229 33.3207 64.856 33.0454 63.7724 33.0373C62.6889 33.0292 61.6184 33.2884 60.6453 33.7946" fill="#00AADA"/>
<path d="M60.6479 33.7946C60.6824 32.6236 60.441 31.4619 59.9457 30.415C59.4505 29.3682 58.717 28.4693 57.8119 27.8C57.0281 29.0227 56.6583 30.4921 56.7634 31.9673C56.8684 33.4425 57.4419 34.8361 58.3899 35.9196C56.5261 37.3871 54.2594 38.1615 51.9399 38.1233H21.6719C21.5069 40.028 21.808 41.9457 22.5459 43.6904C23.2839 45.4351 24.4338 46.9475 25.8839 48.081C27.6923 48.0928 29.492 47.8141 31.2219 47.2544C31.2698 47.2368 31.3206 47.2294 31.3712 47.2327C31.4218 47.2359 31.4713 47.2497 31.5169 47.2733C31.5625 47.2969 31.6033 47.3298 31.6369 47.3701C31.6705 47.4104 31.6964 47.4574 31.7129 47.5083C31.7295 47.5593 31.7364 47.6131 31.7333 47.6669C31.7303 47.7207 31.7173 47.7733 31.6951 47.8218C31.6729 47.8702 31.642 47.9135 31.604 47.9493C31.5661 47.985 31.5218 48.0124 31.4739 48.03C31.2939 48.0959 31.1059 48.1596 30.9119 48.217C29.6758 48.5851 28.4057 48.8088 27.1239 48.8843L27.0859 48.8375C30.8699 50.9009 36.3579 50.8924 42.6499 48.3254C49.8293 45.2435 56.1099 40.1917 60.8499 33.6863L60.6499 33.7883" fill="#27B9EC"/>
<path d="M19.8262 41.6805C20.0157 43.2062 20.4464 44.6869 21.1002 46.0601L21.4662 46.772C21.6977 47.1896 21.9508 47.5932 22.2242 47.9811C23.5468 48.0718 24.7662 48.1037 25.8822 48.0768C27.6905 48.0886 29.4902 47.8099 31.2202 47.2501C31.2681 47.2326 31.3188 47.2252 31.3694 47.2284C31.4201 47.2317 31.4696 47.2455 31.5152 47.2691C31.5608 47.2926 31.6015 47.3255 31.6352 47.3658C31.6688 47.4062 31.6946 47.4531 31.7112 47.5041C31.7277 47.555 31.7347 47.6089 31.7316 47.6627C31.7285 47.7164 31.7156 47.7691 31.6934 47.8175C31.6712 47.8659 31.6402 47.9093 31.6023 47.945C31.5643 47.9807 31.5201 48.0082 31.4722 48.0258C31.2922 48.0916 31.1042 48.1554 30.9102 48.2128C29.6755 48.5754 28.4074 48.7941 27.1282 48.8651H26.9282C26.3462 48.8991 25.7282 48.9204 25.0842 48.9204C24.3822 48.9204 23.6662 48.9055 22.8842 48.8651C24.449 50.5904 26.3427 51.9403 28.4385 52.8247C30.5343 53.709 32.7837 54.1073 35.0362 53.9928C44.5562 53.9928 52.8362 50.1529 57.6362 41.6678L19.8262 41.6805Z" fill="#088CB9"/>
<path d="M21.96 41.6805C22.445 44.2689 23.8495 46.5595 25.882 48.0768C27.6903 48.0886 29.49 47.8099 31.22 47.2502C31.3168 47.2147 31.4229 47.2215 31.515 47.2691C31.607 47.3167 31.6775 47.4012 31.711 47.5041C31.7444 47.6069 31.738 47.7197 31.6931 47.8175C31.6483 47.9154 31.5688 47.9903 31.472 48.0258C31.292 48.0917 31.104 48.1554 30.91 48.2128C29.669 48.5746 28.395 48.7933 27.11 48.8652C30.894 50.9285 36.366 50.8988 42.656 48.3297C46.5376 46.7055 50.1639 44.4627 53.41 41.6784L21.96 41.6805Z" fill="#039CC7"/>
<path d="M27.7789 33.0509H28.1229V36.9035H27.7789V33.0509ZM27.1189 33.0509H27.4769V36.9035H27.1189V33.0509ZM26.4589 33.0509H26.8169V36.9035H26.4609V33.0509H26.4589ZM25.7989 33.0509H26.1569V36.9035H25.8009V33.0509H25.7989ZM25.1389 33.0509H25.4969V36.9035H25.1409V33.0509H25.1389ZM24.4929 33.0509H24.8369V36.9035H24.4969V33.0509H24.4929ZM24.1309 32.6662H28.4809V37.2902H24.1329V32.6662H24.1309Z" fill="#00ACD3"/>
<path d="M32.8003 27.7171H33.1443V31.5698H32.8003V27.7171ZM32.1403 27.7171H32.4983V31.5698H32.1403V27.7171ZM31.4803 27.7171H31.8383V31.5698H31.4803V27.7171ZM30.8203 27.7171H31.1783V31.5698H30.8203V27.7171ZM30.1603 27.7171H30.5163V31.5698H30.1603V27.7171ZM29.5143 27.7171H29.8583V31.5698H29.5143V27.7171ZM29.1523 27.3325H33.5043V31.9565H29.1543V27.3304L29.1523 27.3325Z" fill="#00ACD3"/>
<path d="M32.8003 33.0509H33.1443V36.9035H32.8003V33.0509ZM32.1403 33.0509H32.4983V36.9035H32.1403V33.0509ZM31.4803 33.0509H31.8383V36.9035H31.4803V33.0509ZM30.8203 33.0509H31.1783V36.9035H30.8203V33.0509ZM30.1603 33.0509H30.5163V36.9035H30.1603V33.0509ZM29.5143 33.0509H29.8583V36.9035H29.5143V33.0509ZM29.1523 32.6662H33.5043V37.2902H29.1543V32.6662H29.1523Z" fill="#26C2EE"/>
<path d="M37.8179 33.0509H38.1619V36.9035H37.8179V33.0509ZM37.1579 33.0509H37.5159V36.9035H37.1599V33.0509H37.1579ZM36.4979 33.0509H36.8559V36.9035H36.4999V33.0509H36.4979ZM35.8379 33.0509H36.1999V36.9035H35.8419V33.0509H35.8379ZM35.1779 33.0509H35.5359V36.9035H35.1779V33.0509ZM34.5319 33.0509H34.8759V36.9035H34.5319V33.0509ZM34.1699 32.6662H38.5219V37.2902H34.1739V32.6662H34.1699Z" fill="#00ACD3"/>
<path d="M37.8179 27.7171H38.1619V31.5698H37.8179V27.7171ZM37.1579 27.7171H37.5159V31.5698H37.1599V27.7171H37.1579ZM36.4979 27.7171H36.8559V31.5698H36.4999V27.7171H36.4979ZM35.8379 27.7171H36.1999V31.5698H35.8419V27.7171H35.8379ZM35.1779 27.7171H35.5359V31.5698H35.1779V27.7171ZM34.5319 27.7171H34.8759V31.5698H34.5319V27.7171ZM34.1699 27.3325H38.5219V31.9565H34.1739V27.3304L34.1699 27.3325Z" fill="#26C2EE"/>
<path d="M42.8392 33.0509H43.1832V36.9035H42.8392V33.0509ZM42.1792 33.0509H42.5372V36.9035H42.1792V33.0509ZM41.5192 33.0509H41.8772V36.9035H41.5192V33.0509ZM40.8592 33.0509H41.2172V36.9035H40.8592V33.0509ZM40.1992 33.0509H40.5572V36.9035H40.1992V33.0509ZM39.5532 33.0509H39.8972V36.9035H39.5532V33.0509ZM39.1992 32.6662H43.5512V37.2902H39.1992V32.6662Z" fill="#26C2EE"/>
<path d="M42.8394 27.7171H43.1834V31.5698H42.8394V27.7171ZM42.1794 27.7171H42.5374V31.5698H42.1794V27.7171ZM41.5194 27.7171H41.8774V31.5698H41.5194V27.7171ZM40.8594 27.7171H41.2174V31.5698H40.8594V27.7171ZM40.1994 27.7171H40.5574V31.5698H40.1994V27.7171ZM39.5534 27.7171H39.8974V31.5698H39.5534V27.7171ZM39.1914 27.3325H43.5434V31.9565H39.1994V27.3304L39.1914 27.3325Z" fill="#00ACD3"/>
<path d="M42.8392 22.3812H43.1832V26.2339H42.8392V22.3812ZM42.1792 22.3812H42.5372V26.2339H42.1792V22.3812ZM41.5192 22.3812H41.8772V26.2339H41.5192V22.3812ZM40.8592 22.3812H41.2172V26.2339H40.8592V22.3812ZM40.1992 22.3812H40.5572V26.2339H40.1992V22.3812ZM39.5532 22.3812H39.8972V26.2339H39.5532V22.3812ZM39.1992 21.9966H43.5512V26.6206H39.1992V21.9966Z" fill="#26C2EE"/>
<path d="M47.8609 33.0509H48.2009V36.9035H47.8609V33.0509ZM47.2009 33.0509H47.5569V36.9035H47.2009V33.0509ZM46.5409 33.0509H46.8989V36.9035H46.5409V33.0509ZM45.8809 33.0509H46.2389V36.9035H45.8809V33.0509ZM45.2209 33.0509H45.5789V36.9035H45.2209V33.0509ZM44.5749 33.0509H44.9189V36.9035H44.5749V33.0509ZM44.2129 32.6662H48.5649V37.2902H44.2149V32.6662H44.2129Z" fill="#00ACD3"/>
<path d="M33.2313 44.7851C33.4686 44.7851 33.7006 44.8599 33.8979 45C34.0953 45.1401 34.2491 45.3392 34.3399 45.5722C34.4307 45.8052 34.4545 46.0615 34.4082 46.3088C34.3619 46.5562 34.2476 46.7833 34.0798 46.9617C33.912 47.14 33.6981 47.2614 33.4654 47.3106C33.2326 47.3598 32.9913 47.3345 32.772 47.238C32.5528 47.1415 32.3653 46.9781 32.2335 46.7684C32.1016 46.5588 32.0312 46.3123 32.0312 46.0601C32.0312 45.7219 32.1577 45.3976 32.3827 45.1585C32.6078 44.9194 32.913 44.7851 33.2313 44.7851Z" fill="#D5EEF2"/>
<path d="M33.2313 45.1464C33.338 45.1462 33.4438 45.1671 33.5433 45.208C33.4966 45.2367 33.4569 45.2766 33.4271 45.3243C33.3973 45.3721 33.3783 45.4266 33.3716 45.4834C33.3649 45.5403 33.3707 45.598 33.3885 45.6521C33.4062 45.7062 33.4355 45.7552 33.474 45.7953C33.5126 45.8354 33.5593 45.8655 33.6106 45.8833C33.6619 45.901 33.7163 45.9059 33.7697 45.8976C33.823 45.8893 33.8739 45.868 33.9182 45.8353C33.9625 45.8027 33.9992 45.7596 34.0253 45.7095C34.096 45.8903 34.1102 46.0905 34.0657 46.2805C34.0212 46.4705 33.9205 46.6404 33.7783 46.765C33.6362 46.8896 33.4601 46.9624 33.2761 46.9726C33.092 46.9828 32.9098 46.93 32.7561 46.8218C32.6025 46.7137 32.4856 46.556 32.4227 46.3719C32.3598 46.1879 32.3542 45.9872 32.4068 45.7995C32.4594 45.6119 32.5673 45.4471 32.7146 45.3295C32.862 45.2119 33.041 45.1477 33.2253 45.1464" fill="#3A4E55"/>
<path d="M12 42.1416H67.84C66.624 41.8144 63.994 41.3724 64.426 39.6787C62.216 42.3966 56.884 41.5912 55.538 40.2461C54.04 42.556 45.316 41.6784 44.708 39.8785C42.83 42.216 37.008 42.216 35.13 39.8785C34.53 41.6784 25.798 42.556 24.3 40.2461C22.954 41.587 17.624 42.3966 15.412 39.6787C15.846 41.3787 13.212 41.8144 11.998 42.1416" fill="#3A4E55"/>
<path d="M36.4216 53.9758C33.9657 52.8637 31.9966 50.8057 30.9096 48.2149C29.6108 48.5809 28.2782 48.7947 26.9356 48.8524C26.3543 48.8864 25.743 48.9041 25.1016 48.9055C24.363 48.9055 23.5843 48.8822 22.7656 48.8354C24.3452 50.5831 26.2605 51.9488 28.3812 52.8399C30.5019 53.7309 32.7783 54.1263 35.0556 53.9992C35.5143 53.9992 35.9696 53.9899 36.4216 53.9715" fill="#C0DBE1"/>
<path d="M32.0135 50.2677C31.5776 49.6273 31.2075 48.9391 30.9095 48.2149C29.6108 48.5809 28.2781 48.7947 26.9355 48.8524C28.5168 49.6948 30.2466 50.1755 32.0135 50.2634" fill="#D5EEF2"/>
</svg>
