<svg width="80" height="80" viewBox="0 0 80 80" fill="none" xmlns="http://www.w3.org/2000/svg">
<path d="M64.5145 16.4106C66.4237 20.3575 60.6185 20.7779 60.9157 22.5398C61.462 25.7155 61.0898 30.4309 60.6694 35.0713C59.9464 42.9356 65.8292 61.7677 53.5735 69.3348C51.2654 70.7753 45.7815 71.5679 40.3726 71.6911H40.3458H40.3217C34.9128 71.5679 28.6846 70.7753 26.3764 69.3348C14.1448 61.7677 20.025 42.9356 19.3315 35.0713C18.8843 30.4309 18.5121 25.7155 19.0824 22.5398C19.3797 20.7779 13.5745 20.3816 15.4863 16.4106C17.1224 13.0099 21.1683 16.0143 22.1832 14.9459C27.3698 9.56644 33.6731 8.12317 38.6348 8H41.366C46.301 8.24902 52.6042 9.58786 57.815 14.9459C58.8325 16.0143 62.8517 13.0126 64.5145 16.4106ZM37.6414 37.0286C37.4191 37.1304 37.0469 39.5617 38.1876 39.6849C38.9588 39.7599 41.0661 40.0062 41.5615 39.6849C42.5308 39.0637 42.4317 37.5749 41.8855 37.2027C40.9671 36.6082 37.8904 36.9081 37.6414 37.0313V37.0286ZM31.3435 18.8205C28.7863 18.5233 24.494 20.9037 23.8487 25.9672C23.1525 31.2261 29.3567 36.4369 35.3118 31.2261C38.5143 28.4226 39.6309 19.7871 31.3435 18.8205ZM48.6145 18.8205C40.3244 19.7871 41.441 28.4226 44.6435 31.2261C50.596 36.4369 56.8001 31.2261 56.1039 25.9672C55.4854 20.9064 51.1931 18.5233 48.6118 18.8205H48.6145Z" fill="#8CC5E7"/>
<path d="M40.0004 31.8929C41.5642 31.6707 45.3102 33.4567 45.0612 35.5667C44.764 38.0221 35.4082 38.3461 34.9128 35.4167C34.6156 33.6307 36.0294 32.49 40.0004 31.8929ZM61.1139 51.6702C60.3454 51.6434 59.85 50.6259 59.85 50.0074C59.85 48.8908 59.9973 47.576 60.8166 47.0057C62.5036 45.8382 63.8424 51.6943 61.1139 51.6702ZM18.8602 51.6702C16.129 51.6943 17.4678 45.8382 19.1574 47.0057C19.9768 47.576 20.1241 48.8908 20.1241 50.0047C20.1241 50.6286 19.6287 51.6434 18.8602 51.6702ZM55.9299 69.6588C56.4253 70.3791 56.4494 70.8745 55.6568 71.2467C52.631 72.6364 49.9265 70.7754 50.9441 70.2559C53.0996 69.1634 54.4411 67.4497 55.9299 69.6588ZM24.0442 69.9078C25.533 67.6987 26.8745 69.4098 29.0327 70.5023C30.0502 71.0244 27.3457 72.8854 24.32 71.493C23.5247 71.1235 23.5488 70.6254 24.0442 69.9078Z" fill="#B8937F"/>
<path d="M59.8735 17.0077C59.9967 16.4855 61.2873 16.2365 62.0076 17.1309C62.8752 18.1966 60.7411 19.6613 60.642 19.0668C60.3957 17.4522 59.7263 17.5272 59.8735 17.005V17.0077ZM20.0994 17.0077C20.2493 17.5272 19.5772 17.4522 19.3309 19.0668C19.2318 19.6613 17.0977 18.1966 17.9653 17.1309C18.6615 16.2365 19.9494 16.4855 20.0994 17.0077ZM49.1789 29.0893C48.429 29.0893 47.7098 28.7914 47.1795 28.2612C46.6492 27.7309 46.3513 27.0117 46.3513 26.2617C46.3513 25.5118 46.6492 24.7926 47.1795 24.2623C47.7098 23.732 48.429 23.4341 49.1789 23.4341C49.9288 23.4341 50.6481 23.732 51.1783 24.2623C51.7086 24.7926 52.0065 25.5118 52.0065 26.2617C52.0065 27.0117 51.7086 27.7309 51.1783 28.2612C50.6481 28.7914 49.9288 29.0893 49.1789 29.0893ZM48.4345 25.9377C48.5559 25.9444 48.6774 25.9262 48.7915 25.8843C48.9056 25.8425 49.01 25.7778 49.0983 25.6942C49.1866 25.6106 49.2569 25.5099 49.3049 25.3982C49.353 25.2866 49.3778 25.1663 49.3778 25.0447C49.3778 24.9232 49.353 24.8029 49.3049 24.6912C49.2569 24.5795 49.1866 24.4788 49.0983 24.3953C49.01 24.3117 48.9056 24.247 48.7915 24.2051C48.6774 24.1632 48.5559 24.1451 48.4345 24.1517C48.2061 24.1642 47.9912 24.2638 47.834 24.4299C47.6767 24.596 47.5891 24.816 47.5891 25.0447C47.5891 25.2734 47.6767 25.4935 47.834 25.6596C47.9912 25.8257 48.2061 25.9252 48.4345 25.9377ZM37.4427 33.0871C37.7399 31.9437 38.7815 31.5715 39.6276 31.5474C41.7858 31.4966 42.6052 32.664 42.6802 33.5825C42.8275 35.1436 36.7732 35.5158 37.4427 33.0844V33.0871ZM30.794 29.0867C30.0441 29.0867 29.3249 28.7888 28.7946 28.2585C28.2643 27.7282 27.9664 27.009 27.9664 26.259C27.9664 25.5091 28.2643 24.7899 28.7946 24.2596C29.3249 23.7293 30.0441 23.4314 30.794 23.4314C31.5439 23.4314 32.2632 23.7293 32.7934 24.2596C33.3237 24.7899 33.6216 25.5091 33.6216 26.259C33.6216 27.009 33.3237 27.7282 32.7934 28.2585C32.2632 28.7888 31.5439 29.0867 30.794 29.0867ZM31.5384 25.935C31.6598 25.9417 31.7812 25.9235 31.8954 25.8817C32.0095 25.8398 32.1139 25.7751 32.2022 25.6915C32.2905 25.6079 32.3608 25.5072 32.4088 25.3956C32.4569 25.2839 32.4817 25.1636 32.4817 25.042C32.4817 24.9205 32.4569 24.8002 32.4088 24.6885C32.3608 24.5769 32.2905 24.4762 32.2022 24.3926C32.1139 24.309 32.0095 24.2443 31.8954 24.2024C31.7812 24.1606 31.6598 24.1424 31.5384 24.149C31.31 24.1615 31.0951 24.2611 30.9379 24.4272C30.7806 24.5933 30.693 24.8133 30.693 25.042C30.693 25.2708 30.7806 25.4908 30.9379 25.6569C31.0951 25.823 31.31 25.9225 31.5384 25.935Z" fill="black"/>
</svg>
