<svg width="80" height="80" viewBox="0 0 80 80" fill="none" xmlns="http://www.w3.org/2000/svg">
<path d="M21.1534 65.389L16.959 8.26669H63.047L58.847 65.3799L39.975 71.7334L21.1534 65.389Z" fill="#E44F26"/>
<path d="M40 66.8781L55.2507 61.7441L58.8384 12.9383H40V66.8781Z" fill="#F1662A"/>
<path d="M39.9989 34.1226H32.3642L31.8378 26.9486H39.9989V19.9423H25.5322L25.6704 21.8236L27.0872 41.1288H39.9989V34.1226Z" fill="#EBEBEB"/>
<path d="M39.9979 52.3171L39.9717 52.3261L33.5467 50.2204L33.136 44.6331H27.3438L28.152 55.6309L39.9717 59.6157L39.9979 59.6067V52.3171Z" fill="#EBEBEB"/>
<path d="M39.9805 34.1225V41.1288H47.085L46.4167 50.2159L39.9805 52.3239V59.6135L51.8095 55.6309L51.8954 54.4477L53.2506 36.0039L53.3925 34.1225H39.9805Z" fill="white"/>
<path d="M39.9805 19.9423V26.9486H53.917L54.0327 25.3755L54.2959 21.8236L54.4341 19.9423H39.9805Z" fill="white"/>
</svg>
