<svg width="80" height="80" viewBox="0 0 80 80" fill="none" xmlns="http://www.w3.org/2000/svg">
<path d="M31.5631 57.4949C31.5631 57.4949 29.1064 58.9171 33.3116 59.3983C38.4062 59.9768 41.0098 59.894 46.624 58.8361C46.624 58.8361 48.1002 59.7574 50.1613 60.5555C37.576 65.925 21.6778 60.2444 31.5631 57.4949Z" fill="#5382A1"/>
<path d="M30.0251 50.4879C30.0251 50.4879 27.2696 52.5184 31.478 52.9516C36.9201 53.5105 41.2178 53.5563 48.6546 52.1307C48.6546 52.1307 49.6832 53.1688 51.3006 53.7366C36.0839 58.166 19.1353 54.0859 30.0251 50.4879Z" fill="#5382A1"/>
<path d="M42.9904 38.6018C46.0915 42.1559 42.1756 45.3542 42.1756 45.3542C42.1756 45.3542 50.0497 41.3078 46.4335 36.2405C43.0561 31.5153 40.4659 29.1671 54.4875 21.072C54.4875 21.072 32.4783 26.5442 42.9904 38.6018Z" fill="#E76F00"/>
<path d="M59.6356 62.6777C59.6356 62.6777 61.4536 64.1688 57.6332 65.3225C50.3688 67.5133 27.3975 68.1749 21.0161 65.4098C18.7223 64.4165 23.024 63.0379 24.3771 62.7485C25.7883 62.4438 26.5948 62.5007 26.5948 62.5007C24.0437 60.7116 10.1057 66.0135 19.515 67.5317C45.1755 71.6743 66.2915 65.6664 59.6356 62.6777Z" fill="#5382A1"/>
<path d="M32.7445 43.2279C32.7445 43.2279 21.0601 45.9908 28.6069 46.9938C31.7933 47.4185 38.1455 47.3225 44.0624 46.8289C48.8981 46.4231 53.7537 45.5596 53.7537 45.5596C53.7537 45.5596 52.0486 46.2865 50.815 47.125C38.9494 50.2316 16.0273 48.7864 22.6263 45.6087C28.2071 42.9232 32.7447 43.2279 32.7447 43.2279" fill="#5382A1"/>
<path d="M53.7053 54.8912C65.7674 48.6517 60.1903 42.6557 56.2977 43.4636C55.3435 43.6611 54.9182 43.8323 54.9182 43.8323C54.9182 43.8323 55.2724 43.2801 55.9488 43.0411C63.6496 40.3459 69.5722 50.99 53.4629 55.2057C53.4629 55.2059 53.6496 55.0398 53.7053 54.8912Z" fill="#5382A1"/>
<path d="M46.4331 8.00019C46.4331 8.00019 53.1133 14.6525 40.0973 24.8814C29.6601 33.087 37.7173 37.7655 40.0931 43.111C34.0006 37.639 29.5294 32.8218 32.5291 28.3386C36.9316 21.7572 49.1283 18.5665 46.4331 8" fill="#E76F00"/>
<path d="M33.9296 71.7988C45.5075 72.5366 63.2867 71.3894 63.7077 65.9358C63.7077 65.9358 62.8984 68.0034 54.1392 69.6452C44.2572 71.4964 32.0692 71.2803 24.8403 70.0938C24.8405 70.0938 26.3202 71.3131 33.9297 71.7988" fill="#5382A1"/>
</svg>
