<svg width="80" height="80" viewBox="0 0 80 80" fill="none" xmlns="http://www.w3.org/2000/svg">
<path d="M8 8H72V72H8V8Z" fill="#F7DF1E"/>
<path d="M24.8279 61.483L29.7254 58.519C30.6704 60.1943 31.5299 61.6118 33.5916 61.6118C35.5679 61.6118 36.8141 60.8388 36.8141 57.8318V37.3823H42.8284V57.9168C42.8284 64.146 39.1769 66.9815 33.8494 66.9815C29.0381 66.9815 26.2454 64.4898 24.8276 61.4825" fill="black"/>
<path d="M46.095 60.8385L50.992 58.0033C52.2812 60.1085 53.9567 61.655 56.9207 61.655C59.413 61.655 61.002 60.409 61.002 58.6905C61.002 56.6285 59.3695 55.898 56.62 54.6955L55.1167 54.0505C50.7775 52.2038 47.8992 49.8838 47.8992 44.9863C47.8992 40.4753 51.336 37.0383 56.7062 37.0383C60.5297 37.0383 63.2792 38.3703 65.2552 41.85L60.5722 44.8575C59.541 43.0103 58.4245 42.28 56.706 42.28C54.9445 42.28 53.8275 43.397 53.8275 44.8575C53.8275 46.6618 54.9445 47.3925 57.522 48.5095L59.0255 49.1538C64.138 51.345 67.0162 53.5788 67.0162 58.6048C67.0162 64.0183 62.7632 66.9823 57.0495 66.9823C51.4647 66.9823 47.856 64.3188 46.0947 60.8388" fill="black"/>
</svg>
