<svg width="80" height="80" viewBox="0 0 80 80" fill="none" xmlns="http://www.w3.org/2000/svg">
<path d="M39.9178 70.0097C23.7987 70.0097 10.1273 56.3944 10.0007 40.1595C9.94463 32.2551 13.055 24.6565 18.6382 19.0613C21.4206 16.2115 24.7416 13.943 28.4081 12.3874C32.0747 10.8319 36.0138 10.0204 39.9966 10C47.895 9.99285 55.471 13.1403 61.0399 18.7402C63.8438 21.4732 66.0791 24.7342 67.6169 28.3351C69.1547 31.9361 69.9645 35.8059 69.9997 39.7213C70.0737 56.3025 56.7426 69.8306 40.1495 69.999L39.9178 70.0097ZM40.0014 11.5928C36.2273 11.6148 32.4951 12.3862 29.0215 13.8622C25.5479 15.3381 22.4021 17.4893 19.7665 20.1909C17.1451 22.8119 15.07 25.9273 13.6615 29.3563C12.253 32.7853 11.5392 36.4597 11.5613 40.1666C11.6807 55.5407 24.6357 68.4348 39.8999 68.4348H40.1029C55.8376 68.2808 68.4905 55.4607 68.4188 39.7392C68.3836 36.0298 67.6147 32.364 66.1564 28.9531C64.6982 25.5421 62.5794 22.4534 59.9223 19.8649C57.3163 17.2364 54.2149 15.1509 50.7975 13.7292C47.3801 12.3074 43.7147 11.5776 40.0134 11.5821L40.0014 11.5928ZM16.7182 48.7862V31.2581H20.9809V32.8283H18.7194V47.2459H20.9809V48.816L16.7182 48.7862ZM31.2016 39.849C31.2016 43.0454 29.2625 44.8663 26.6321 44.8663C24.0017 44.8663 22.2501 42.8173 22.2501 40.0138C22.2501 37.0849 24.0889 35.0193 26.773 35.0193C29.4571 35.0193 31.1908 37.1709 31.1908 39.8478L31.2016 39.849ZM24.0877 39.9899C24.0877 41.929 25.0608 43.4681 26.7336 43.4681C28.4064 43.4681 29.364 41.898 29.364 39.9195C29.364 38.1213 28.4768 36.4258 26.7336 36.4258C24.9903 36.4258 24.0709 38.0664 24.0709 40.0317L24.0877 39.9899ZM32.6798 35.35C33.5149 35.2056 34.3611 35.1345 35.2087 35.1375C36.1607 35.0441 37.1178 35.2557 37.9418 35.7416C38.571 36.0998 38.9495 36.7948 38.9328 37.5243C38.9089 38.4795 38.2761 39.3117 37.3627 39.5899C37.9058 39.7002 38.3941 39.9951 38.7445 40.4246C39.0949 40.854 39.2859 41.3915 39.285 41.9457C39.2911 42.3212 39.2116 42.6931 39.0525 43.0332C38.8934 43.3733 38.6589 43.6727 38.3668 43.9087C37.691 44.5057 36.5686 44.7958 34.8326 44.7958C34.1186 44.7994 33.4051 44.7576 32.6965 44.6704L32.6798 35.35ZM34.4075 39.1111H35.2946C36.4958 39.1111 37.1716 38.5464 37.1716 37.738C37.1716 36.9297 36.4958 36.4342 35.389 36.4342C35.057 36.4222 34.7263 36.4461 34.3979 36.5058L34.4075 39.1111ZM34.4075 43.4932C34.7125 43.5247 35.0191 43.5378 35.3257 43.5326C36.4409 43.5326 37.4295 43.1087 37.4295 41.9624C37.4295 40.8162 36.4719 40.3923 35.2708 40.3923H34.4075V43.4932ZM42.7142 35.2246H44.4491V41.4335C44.4491 44.0639 43.1775 44.9439 41.3089 44.9439C40.8101 44.9379 40.3151 44.8574 39.8402 44.7051L40.0528 43.3081C40.4012 43.4171 40.7635 43.4754 41.1286 43.4812C42.1196 43.4812 42.6987 43.0275 42.6987 41.3774L42.7142 35.2246ZM49.4007 40.3828V41.5839H45.7888V40.3828H49.4007ZM57.822 44.4663C57.0414 44.7772 56.2044 44.9216 55.3647 44.8901C52.3415 44.8901 50.5051 42.9976 50.5051 40.0998C50.4692 39.4247 50.5766 38.7497 50.8203 38.1191C51.064 37.4885 51.4385 36.9167 51.9191 36.4413C52.3997 35.9658 52.9756 35.5976 53.6088 35.3607C54.242 35.1238 54.9181 35.0238 55.5928 35.067C56.3997 35.0334 57.204 35.1781 57.9486 35.4909L57.5641 36.8724C56.9731 36.6336 56.3366 36.4951 55.6955 36.5142C53.7564 36.5142 52.3582 37.7321 52.3582 40.0246C52.3582 42.1141 53.5904 43.4633 55.6799 43.4633C56.3283 43.4729 56.9719 43.3523 57.5725 43.1099L57.822 44.4663ZM63.2846 31.2104V48.7862H59.022V47.2161H61.2834V32.7829H59.01V31.2104H63.2846Z" fill="#F1592A"/>
</svg>
