<svg width="52" height="56" viewBox="0 0 52 56" fill="none" xmlns="http://www.w3.org/2000/svg">
<path d="M32.5779 0.599981C31.4819 0.469981 30.6559 1.19998 29.7399 1.61198C29.0039 2.02398 28.1099 1.91598 27.3699 2.22998C26.8059 3.38798 25.4879 4.04598 24.7699 5.11598C24.0387 7.25769 22.6866 9.13331 20.8859 10.504C18.4782 12.0582 16.7774 14.4959 16.1499 17.292C15.8599 17.892 15.9059 18.784 15.5959 19.292C14.5739 19.578 15.1179 18.26 14.9959 17.642C14.8479 16.702 15.6779 16.102 15.7419 15.19C16.0881 14.5454 16.2337 13.812 16.1599 13.084C16.0479 11.456 16.5379 9.46998 15.3739 8.12998C14.6759 7.72998 14.8959 6.88398 14.6419 6.23598C13.9419 5.30516 13.0566 4.52952 12.0419 3.95798C11.2039 3.87598 10.4299 2.87398 9.57786 3.31198C9.04586 3.92998 8.05186 3.92198 7.73386 4.73798C7.53386 5.76998 6.35786 5.48598 5.59786 5.73798C4.62186 6.10798 3.36186 5.74998 2.56186 6.50198C1.73986 7.32198 0.493859 8.42398 0.891859 9.71398C1.80586 11.478 4.18186 10.59 5.52586 11.662C5.10493 12.873 4.61957 14.0607 4.07186 15.22C3.86163 16.766 3.8321 18.3312 3.98386 19.884C4.22986 21.43 3.81786 23.428 5.19586 24.522C5.95586 24.796 5.90986 25.666 6.19586 26.296C6.46386 26.876 7.04986 26.07 7.28186 26.682C7.95786 27.05 7.35586 27.804 7.72186 28.282C8.24786 28.556 8.99986 28.538 9.36586 29.134C10.0642 29.61 10.717 30.1496 11.3159 30.746C11.7759 31.68 12.3779 29.838 12.8819 30.528C13.2219 31.098 13.8939 31.572 14.5199 31.098C15.4797 30.9477 16.3885 30.566 17.1679 29.986C17.4187 31.7868 17.533 33.604 17.5099 35.422C17.8179 36.7362 18.0119 38.0745 18.0899 39.422C18.4373 40.7494 18.6385 42.1108 18.6899 43.482C19.07 46.3349 18.5755 49.236 17.2719 51.802C17.1939 52.1996 16.9984 52.5646 16.7106 52.8499C16.4229 53.1352 16.0561 53.3275 15.6579 53.402C15.0759 53.662 13.8579 54.134 14.2739 54.954C15.0041 55.4577 15.8531 55.7621 16.737 55.8371C17.6209 55.9122 18.5091 55.7553 19.3139 55.382C20.3339 54.896 19.4599 53.666 19.9819 52.93C20.6679 50.33 20.3299 47.548 21.1319 44.96C21.7306 43.6465 21.9389 42.1886 21.7319 40.76C21.8899 39.88 21.5219 38.822 22.1059 38.102C22.1218 37.2104 22.4657 36.356 23.0719 35.702C23.2608 34.3595 23.357 33.0057 23.3599 31.65C24.1791 31.3972 25.0407 31.3108 25.8939 31.396C25.9299 32.146 25.3499 33.02 25.5139 33.864C25.6853 34.8082 25.5023 35.7824 24.9999 36.6C24.7298 37.3501 24.6202 38.1485 24.6781 38.9436C24.736 39.7388 24.9601 40.5129 25.3359 41.216C26.8999 42.894 28.9359 44.08 30.4079 45.87C31.0359 46.28 30.8079 46.904 30.4839 47.438C30.3484 47.9175 30.0977 48.3566 29.7536 48.7171C29.4095 49.0775 28.9826 49.3483 28.5099 49.506C27.8939 49.748 26.8979 50.638 27.6259 51.27C29.0757 51.5899 30.5867 51.49 31.9819 50.982C32.9339 50.64 32.5819 49.506 32.9579 48.806C33.5579 49.272 33.8039 50.336 34.3799 50.944C34.9799 51.81 35.9939 51.09 36.6919 50.82C36.7794 49.5474 36.5224 48.2748 35.9479 47.136C35.6139 46.38 34.3479 46.366 34.4079 45.432C35.2477 43.2744 36.4015 41.2526 37.8319 39.432C38.8519 38.474 38.0919 37.05 38.1479 35.832C37.8298 32.726 38.5958 29.6057 40.3159 27C40.6755 28.4576 41.138 29.8878 41.6999 31.28C42.122 32.9106 42.8704 34.4387 43.8999 35.772C44.3739 37.394 44.2519 39.192 44.5619 40.874C45.0133 43.7738 44.8484 46.7362 44.0779 49.568C44.1579 50.604 43.1639 51.368 43.2479 52.384C43.5279 53.322 44.6479 52.57 45.2279 52.964C45.7332 53.1199 46.2775 53.0904 46.763 52.8807C47.2484 52.6709 47.6431 52.2948 47.8759 51.82C47.6295 51.0233 47.464 50.2038 47.3819 49.374C46.5846 46.9779 46.4092 44.4185 46.8719 41.936C46.9639 40.598 47.7859 38.936 46.7259 37.792C46.4299 36.554 46.9259 35.222 46.6279 33.962C45.9113 30.7198 45.8284 27.3696 46.3839 24.096C46.5699 23.642 46.4099 22.798 46.8779 22.546C47.3723 23.2671 47.5954 24.14 47.5079 25.01C47.9579 26.3536 48.0128 27.7981 47.6659 29.172C46.8179 30.234 47.3399 31.668 47.4479 32.872C47.5839 33.716 48.4799 33.108 48.6259 32.584C49.4072 31.1587 50.0399 29.6568 50.5139 28.102C51.0519 27.39 50.5419 26.562 50.5139 25.818C51.3399 25.72 51.0259 24.806 50.5839 24.418C50.4305 22.8783 49.9773 21.3836 49.2499 20.018C47.6723 18.4225 46.3616 16.5837 45.3679 14.572C44.3119 11.294 41.2839 9.11998 40.2559 5.81398C40.0539 4.85571 39.6561 3.94948 39.0876 3.15208C38.5191 2.35468 37.792 1.68329 36.9519 1.17998C36.2043 0.84018 35.4312 0.559325 34.6399 0.339981C33.9606 0.481539 33.271 0.568484 32.5779 0.599981ZM33.3779 29.92C33.8699 32.7599 34.2037 35.625 34.3779 38.502C34.4266 40.2999 33.8935 42.0655 32.8579 43.536C32.6179 44.386 31.8859 43.56 31.3559 43.504C30.0699 43.468 29.5919 42.138 28.8919 41.29C28.1719 40.602 28.6919 39.69 29.1579 39.028C29.6619 38.67 29.8579 37.87 30.5739 37.932C31.3739 37.918 31.2059 36.958 31.0939 36.446C31.5699 35.722 31.2779 34.662 31.7499 33.88C32.5879 33.516 32.3379 32.24 32.6339 31.52C32.8639 31.008 32.6679 30.022 33.3019 29.812C33.3759 29.8 33.3999 29.836 33.3859 29.916L33.3779 29.92Z" fill="#3A3C5B"/>
</svg>
