<svg width="80" height="80" viewBox="0 0 80 80" fill="none" xmlns="http://www.w3.org/2000/svg">
<path d="M66.5001 35.6C66.2731 34.0132 65.7709 32.4781 65.0161 31.064C64.9244 30.893 64.8086 30.736 64.6721 30.598C63.278 29.1884 62.1139 27.5687 61.2221 25.798C60.5537 24.0706 59.6117 22.462 58.4321 21.034C57.4945 19.9114 56.7411 18.647 56.2001 17.288C55.9282 16.0806 55.4139 14.941 54.6885 13.9381C53.9632 12.9353 53.0418 12.0902 51.9801 11.454C51.9156 11.4143 51.8488 11.3782 51.7801 11.346C50.9391 10.967 50.0698 10.654 49.1801 10.41C49.0086 10.3639 48.8318 10.3404 48.6541 10.34C48.5197 10.3406 48.3857 10.3547 48.2541 10.382C47.722 10.4923 47.1826 10.5639 46.6401 10.596C46.5401 10.596 46.4401 10.584 46.3421 10.584C45.3345 10.6294 44.357 10.9421 43.5101 11.49C43.3221 11.594 43.1341 11.702 42.9421 11.788C42.8875 11.812 42.8355 11.838 42.7861 11.866C42.5733 11.9328 42.3541 11.9777 42.1321 12C41.603 12.0626 41.0841 12.193 40.5881 12.388C40.144 12.5769 39.7832 12.92 39.5721 13.354C39.3141 13.7346 38.9975 14.0721 38.6341 14.354C38.0577 14.8351 37.5455 15.3883 37.1101 16C37.0119 16.1447 36.9339 16.3022 36.8781 16.468C36.2841 18.2122 35.1891 19.7426 33.7301 20.868C33.1657 21.2344 32.6308 21.6444 32.1301 22.094C32.0815 20.8967 31.6409 19.7485 30.8761 18.826C30.8418 18.7877 30.8065 18.7503 30.7701 18.714V18.686C30.7301 18.2855 30.6394 17.8917 30.5001 17.514C30.4339 17.3454 30.3451 17.1867 30.2361 17.042C29.3727 15.8897 28.278 14.9305 27.0221 14.226C26.8083 14.1043 26.5736 14.0236 26.3301 13.988C26.2287 13.9422 26.1299 13.8908 26.0341 13.834C25.4322 13.4578 24.7433 13.2436 24.0341 13.212C23.5601 13.2117 23.0929 13.3256 22.6721 13.544C22.4668 13.6483 22.2814 13.7877 22.1241 13.956C22.0431 14.0024 21.9596 14.0444 21.8741 14.082C21.1171 14.3917 20.4802 14.9374 20.0581 15.638C19.6908 15.6692 19.328 15.7403 18.9761 15.85C18.7261 15.9178 18.4691 15.9561 18.2101 15.964C17.1121 15.9576 16.048 16.3442 15.2101 17.054L14.9981 17.254C14.2197 17.819 13.6183 18.594 13.2641 19.4883C12.91 20.3826 12.8177 21.3592 12.9981 22.304C13.0343 22.4176 13.0798 22.5279 13.1341 22.634C13.5145 23.306 14.0584 23.8712 14.7153 24.2771C15.3722 24.683 16.1209 24.9165 16.8921 24.956C16.6921 25.432 16.4921 25.902 16.2641 26.356C16.1767 26.5414 16.118 26.739 16.0901 26.942C15.8606 28.6447 15.8304 30.3683 16.0001 32.078C16.0001 32.118 16.0001 32.158 16.0141 32.198C16.0604 32.561 16.0878 32.9262 16.0961 33.292C16.02 34.1811 16.1482 35.0758 16.4709 35.9078C16.7936 36.7397 17.3023 37.4868 17.9581 38.092L18.0621 38.17L18.0781 38.232C18.1535 38.538 18.2545 38.837 18.3801 39.126C18.6267 39.6848 19.0795 40.1269 19.6441 40.36C19.7137 40.7755 19.884 41.1676 20.1401 41.502C20.318 41.7343 20.5447 41.9248 20.8041 42.06C21.1014 42.2085 21.413 42.3265 21.7341 42.412L21.8621 42.448C21.9745 42.5784 22.1036 42.6934 22.2461 42.79C22.7784 43.1516 23.2801 43.5563 23.7461 44C24.0316 44.4291 24.4552 44.7477 24.9467 44.9031C25.4381 45.0584 25.9679 45.0411 26.4481 44.854C26.9102 45.1323 27.4388 45.2808 27.9781 45.284C28.4108 45.2836 28.8376 45.1844 29.2261 44.994L29.4541 44.942C29.5021 45.758 29.5201 46.576 29.5101 47.388C29.5085 47.5508 29.526 47.7132 29.5621 47.872C29.8441 49.0731 30.0221 50.2963 30.0941 51.528C30.1002 51.6632 30.121 51.7973 30.1561 51.928C30.4654 53.1151 30.6451 54.3322 30.6921 55.558C30.6921 55.62 30.6921 55.684 30.7081 55.746C31.0379 58.1979 30.6123 60.6921 29.4881 62.896C29.4048 63.0609 29.3449 63.2366 29.3101 63.418C29.1487 63.4528 28.9917 63.5058 28.8421 63.576L28.7421 63.62C28.2174 63.7915 27.7336 64.0691 27.3208 64.4355C26.9079 64.802 26.5748 65.2494 26.3421 65.75C26.2205 66.0927 26.1709 66.4567 26.1964 66.8194C26.2218 67.1821 26.3219 67.5357 26.4901 67.858C26.6409 68.1555 26.8637 68.4106 27.1381 68.6C28.1544 69.3024 29.3365 69.7273 30.5674 69.8325C31.7983 69.9378 33.0354 69.7197 34.1561 69.2C34.7519 68.9012 35.2352 68.418 35.5339 67.8222C35.8327 67.2265 35.931 66.5501 35.8141 65.894L35.8041 65.76C35.8503 65.658 35.8878 65.5523 35.9161 65.444C36.2367 64.0863 36.4295 62.7016 36.4921 61.308C36.539 60.0787 36.7126 58.8576 37.0101 57.664C37.452 56.6586 37.7152 55.5838 37.7881 54.488L37.8721 54.584C38.6576 55.3917 39.4962 56.146 40.3821 56.842C41.1619 57.4477 41.8972 58.1088 42.5821 58.82L42.5601 58.896C42.513 59.0622 42.4261 59.2145 42.3069 59.3396C42.1877 59.4646 42.0399 59.5588 41.8761 59.614L41.7781 59.648C41.1971 59.8681 40.6781 60.2258 40.2657 60.6905C39.8533 61.1552 39.5597 61.713 39.4101 62.316C39.3307 62.7705 39.3724 63.238 39.5311 63.6712C39.6898 64.1045 39.9599 64.4883 40.3141 64.784C40.5664 65.0034 40.8697 65.156 41.1961 65.228C43.0169 65.6292 44.9142 65.5037 46.6661 64.866C46.8509 64.8003 47.029 64.7172 47.1981 64.618C47.7267 65.1037 48.4204 65.3697 49.1381 65.362C49.8375 65.3321 50.5212 65.1448 51.1381 64.814C51.2361 64.768 51.3381 64.724 51.4181 64.69C51.7728 64.5529 52.081 64.3175 52.3067 64.0114C52.5323 63.7054 52.666 63.3413 52.6921 62.962C52.8029 61.3445 52.4797 59.7268 51.7561 58.276C51.5244 57.7953 51.1732 57.3822 50.7361 57.076C51.4326 55.5464 52.3051 54.1033 53.3361 52.776C53.8094 52.2276 54.1395 51.5705 54.2969 50.8635C54.4543 50.1564 54.4341 49.4214 54.2381 48.724C54.1888 48.464 54.1601 48.2005 54.1521 47.936C54.1591 47.8375 54.1591 47.7385 54.1521 47.64C54.0651 46.7891 54.0731 45.9311 54.1761 45.082C54.6367 46.3616 55.2771 47.569 56.0781 48.668C56.2182 49.3942 56.3071 50.1293 56.3441 50.868C56.3887 51.663 56.4776 52.4549 56.6101 53.24C57.0111 55.8426 56.8584 58.5004 56.1621 61.04C56.102 61.2613 56.0803 61.4913 56.0981 61.72C56.0191 61.832 55.9521 61.952 55.8981 62.078C55.4553 62.8235 55.2385 63.6816 55.2741 64.548C55.2865 64.6836 55.3127 64.8176 55.3521 64.948C55.5111 65.5225 55.8604 66.026 56.343 66.3759C56.8256 66.7258 57.4127 66.9015 58.0081 66.874C58.1801 66.874 58.3621 66.862 58.5441 66.846H58.5821L58.6581 66.872C59.6189 67.1689 60.654 67.1128 61.5771 66.7138C62.5001 66.3148 63.2502 65.5992 63.6921 64.696C63.9166 64.2387 63.9581 63.7129 63.8081 63.226C63.6018 62.5568 63.4624 61.8688 63.3921 61.172C63.3775 61.0244 63.3466 60.8788 63.3001 60.738C62.6111 58.6631 62.4591 56.4475 62.8581 54.298C62.8721 54.2226 62.8821 54.1465 62.8881 54.07C62.9204 53.7721 62.9699 53.4762 63.0361 53.184C63.2526 52.4932 63.33 51.7663 63.2637 51.0453C63.1975 50.3244 62.9889 49.6238 62.6501 48.984C62.6467 48.6661 62.6607 48.3483 62.6921 48.032C62.7141 47.738 62.7381 47.432 62.7461 47.106C63.5229 46.7884 64.1426 46.1766 64.4701 45.404C65.2407 43.9804 65.8749 42.4871 66.3641 40.944C66.7591 40.2208 66.8812 39.3797 66.7081 38.574C66.8006 38.4154 66.875 38.2471 66.9301 38.072C67.0457 37.6538 67.0671 37.2152 66.9927 36.7877C66.9184 36.3603 66.7501 35.9546 66.5001 35.6ZM45.7261 53.536C45.6741 53.536 45.6201 53.52 45.5661 53.516H45.5181C45.3453 53.3124 45.1876 53.0965 45.0461 52.87C44.9305 52.6959 44.8118 52.5239 44.6901 52.354C44.8395 52.2078 44.9785 52.0515 45.1061 51.886C45.5783 51.7968 46.0149 51.574 46.3641 51.244C46.2973 52.0413 46.0808 52.8188 45.7261 53.536Z" fill="#EDEDED"/>
<path d="M46.5779 12.6C45.4819 12.47 44.6559 13.2 43.7399 13.612C43.0039 14.024 42.1099 13.916 41.3699 14.23C40.8059 15.388 39.4879 16.046 38.7699 17.116C38.0387 19.2577 36.6866 21.1333 34.8859 22.504C32.4782 24.0582 30.7774 26.4959 30.1499 29.292C29.8599 29.892 29.9059 30.784 29.5959 31.292C28.5739 31.578 29.1179 30.26 28.9959 29.642C28.8479 28.702 29.6779 28.102 29.7419 27.19C30.0881 26.5454 30.2337 25.812 30.1599 25.084C30.0479 23.456 30.5379 21.47 29.3739 20.13C28.6759 19.73 28.8959 18.884 28.6419 18.236C27.9419 17.3052 27.0566 16.5295 26.0419 15.958C25.2039 15.876 24.4299 14.874 23.5779 15.312C23.0459 15.93 22.0519 15.922 21.7339 16.738C21.5339 17.77 20.3579 17.486 19.5979 17.738C18.6219 18.108 17.3619 17.75 16.5619 18.502C15.7399 19.322 14.4939 20.424 14.8919 21.714C15.8059 23.478 18.1819 22.59 19.5259 23.662C19.1049 24.8731 18.6196 26.0608 18.0719 27.22C17.8616 28.766 17.8321 30.3312 17.9839 31.884C18.2299 33.43 17.8179 35.428 19.1959 36.522C19.9559 36.796 19.9099 37.666 20.1959 38.296C20.4639 38.876 21.0499 38.07 21.2819 38.682C21.9579 39.05 21.3559 39.804 21.7219 40.282C22.2479 40.556 22.9999 40.538 23.3659 41.134C24.0642 41.61 24.717 42.1496 25.3159 42.746C25.7759 43.68 26.3779 41.838 26.8819 42.528C27.2219 43.098 27.8939 43.572 28.5199 43.098C29.4797 42.9477 30.3885 42.5661 31.1679 41.986C31.4187 43.7868 31.533 45.604 31.5099 47.422C31.8179 48.7362 32.0119 50.0745 32.0899 51.422C32.4373 52.7494 32.6385 54.1108 32.6899 55.482C33.07 58.3349 32.5755 61.236 31.2719 63.802C31.1939 64.1996 30.9984 64.5647 30.7106 64.8499C30.4229 65.1352 30.0561 65.3275 29.6579 65.402C29.0759 65.662 27.8579 66.134 28.2739 66.954C29.0041 67.4577 29.8531 67.7621 30.737 67.8372C31.6209 67.9122 32.5091 67.7553 33.3139 67.382C34.3339 66.896 33.4599 65.666 33.9819 64.93C34.6679 62.33 34.3299 59.548 35.1319 56.96C35.7306 55.6465 35.9389 54.1886 35.7319 52.76C35.8899 51.88 35.5219 50.822 36.1059 50.102C36.1218 49.2104 36.4657 48.356 37.0719 47.702C37.2608 46.3595 37.357 45.0057 37.3599 43.65C38.1791 43.3972 39.0407 43.3108 39.8939 43.396C39.9299 44.146 39.3499 45.02 39.5139 45.864C39.6853 46.8082 39.5023 47.7824 38.9999 48.6C38.7298 49.3501 38.6202 50.1485 38.6781 50.9436C38.736 51.7388 38.9601 52.5129 39.3359 53.216C40.8999 54.894 42.9359 56.08 44.4079 57.87C45.0359 58.28 44.8079 58.904 44.4839 59.438C44.3484 59.9175 44.0977 60.3566 43.7536 60.7171C43.4095 61.0775 42.9826 61.3484 42.5099 61.506C41.8939 61.748 40.8979 62.638 41.6259 63.27C43.0757 63.5899 44.5867 63.49 45.9819 62.982C46.9339 62.64 46.5819 61.506 46.9579 60.806C47.5579 61.272 47.8039 62.336 48.3799 62.944C48.9799 63.81 49.9939 63.09 50.6919 62.82C50.7794 61.5475 50.5224 60.2748 49.9479 59.136C49.6139 58.38 48.3479 58.366 48.4079 57.432C49.2477 55.2744 50.4015 53.2526 51.8319 51.432C52.8519 50.474 52.0919 49.05 52.1479 47.832C51.8298 44.726 52.5958 41.6057 54.3159 39C54.6755 40.4576 55.138 41.8878 55.6999 43.28C56.122 44.9106 56.8704 46.4388 57.8999 47.772C58.3739 49.394 58.2519 51.192 58.5619 52.874C59.0133 55.7738 58.8484 58.7362 58.0779 61.568C58.1579 62.604 57.1639 63.368 57.2479 64.384C57.5279 65.322 58.6479 64.57 59.2279 64.964C59.7332 65.1199 60.2775 65.0904 60.763 64.8807C61.2484 64.6709 61.6431 64.2948 61.8759 63.82C61.6295 63.0233 61.464 62.2038 61.3819 61.374C60.5846 58.9779 60.4092 56.4185 60.8719 53.936C60.9639 52.598 61.7859 50.936 60.7259 49.792C60.4299 48.554 60.9259 47.222 60.6279 45.962C59.9113 42.7198 59.8284 39.3696 60.3839 36.096C60.5699 35.642 60.4099 34.798 60.8779 34.546C61.3723 35.2672 61.5954 36.14 61.5079 37.01C61.9579 38.3536 62.0128 39.7982 61.6659 41.172C60.8179 42.234 61.3399 43.668 61.4479 44.872C61.5839 45.716 62.4799 45.108 62.6259 44.584C63.4072 43.1587 64.0399 41.6568 64.5139 40.102C65.0519 39.39 64.5419 38.562 64.5139 37.818C65.3399 37.72 65.0259 36.806 64.5839 36.418C64.4305 34.8784 63.9773 33.3836 63.2499 32.018C61.6723 30.4225 60.3616 28.5837 59.3679 26.572C58.3119 23.294 55.2839 21.12 54.2559 17.814C54.0539 16.8557 53.6561 15.9495 53.0876 15.1521C52.5191 14.3547 51.792 13.6833 50.9519 13.18C50.2043 12.8402 49.4312 12.5593 48.6399 12.34C47.9606 12.4816 47.271 12.5685 46.5779 12.6ZM47.3779 41.92C47.8699 44.7599 48.2037 47.625 48.3779 50.502C48.4266 52.2999 47.8935 54.0655 46.8579 55.536C46.6179 56.386 45.8859 55.56 45.3559 55.504C44.0699 55.468 43.5919 54.138 42.8919 53.29C42.1719 52.602 42.6919 51.69 43.1579 51.028C43.6619 50.67 43.8579 49.87 44.5739 49.932C45.3739 49.918 45.2059 48.958 45.0939 48.446C45.5699 47.722 45.2779 46.662 45.7499 45.88C46.5879 45.516 46.3379 44.24 46.6339 43.52C46.8639 43.008 46.6679 42.022 47.3019 41.812C47.3759 41.8 47.3999 41.836 47.3859 41.916L47.3779 41.92Z" fill="#3A3C5B"/>
</svg>
