<svg width="80" height="80" viewBox="0 0 80 80" fill="none" xmlns="http://www.w3.org/2000/svg">
<path d="M71.9396 39.94C71.9396 57.5797 57.6396 71.8797 39.9996 71.8797C22.3596 71.8797 8.05957 57.5797 8.05957 39.9397C8.05957 22.2998 22.3596 8 39.9996 8C57.6396 8 71.9396 22.3 71.9396 39.94Z" fill="#3A3C5B"/>
<path d="M62.2497 42.3023C61.1737 35.5115 54.0492 31.1128 48.744 27.7953C46.4265 26.346 42.669 24.4583 42.183 21.4103C41.9825 20.1508 41.9897 18.8495 41.9477 17.5778C41.931 17.0783 41.9232 16.576 41.8787 16.0778C41.821 15.4353 41.167 16.2273 40.8085 15.6665C39.9202 14.278 40.2622 16.0873 40.3495 16.8173C40.555 18.5348 40.7962 20.2468 40.7825 21.9803C40.7557 25.293 40.222 28.4643 39.396 31.6563C37.4615 39.131 35.9355 46.7895 37.8492 54.4385C38.2457 56.0235 38.7617 57.587 39.44 59.0745C39.645 59.5245 40.0375 60.7798 40.6015 60.9303C42.633 61.4723 44.169 61.6293 45.7915 63.1403C46.799 64.0785 47.5542 63.566 48.7457 63.0893C52.3547 61.645 55.4825 59.8273 58.0397 56.853C61.6347 52.672 63.1177 47.7778 62.2497 42.3023ZM58.4327 49.1398C58.1127 51.9328 56.3607 54.4348 54.5717 56.5088C53.2747 58.0125 51.5202 59.9638 49.5975 60.6488C48.9052 60.895 49.7242 59.5103 49.8257 59.3575C50.4207 58.4625 51.1545 57.673 51.8355 56.8448C52.843 55.6203 53.7155 54.3348 54.3055 52.8518C56.2635 47.9298 55.8185 41.9638 52.9207 37.5295C51.3432 35.1155 49.1777 33.075 46.995 31.2133C45.9405 30.3138 44.8735 29.4633 43.986 28.3873C43.781 28.1385 41.9685 25.766 42.5322 25.415C42.7142 25.3018 46.6755 29.4685 47.1065 29.7938C48.7445 31.0305 50.429 32.1743 51.9457 33.567C53.9982 35.4528 56.1062 37.559 57.2822 40.1235C58.571 42.9335 58.7807 46.1013 58.4327 49.1395" fill="white"/>
<path d="M38.8237 8.86074C39.4184 9.25749 39.5504 11.5697 39.5504 13.684C39.5504 15.7985 39.7487 24.9165 39.0879 27.3612C38.4274 29.806 36.9077 32.515 35.2557 34.8937C33.6039 37.2722 31.6879 42.2937 31.7539 45.3987C31.8199 48.5047 33.6039 53.592 34.9914 55.7062C36.3842 57.8287 38.7487 60.7867 38.2289 61.455C37.3039 62.6442 33.5379 58.5475 31.5557 56.1692C29.5734 53.7905 27.5912 48.9667 27.5254 45.201C27.4592 41.4347 29.5734 37.9327 31.0932 35.8185C32.6132 33.7042 35.5862 30.0702 36.3789 28.4185C37.1717 26.7667 38.0309 24.9827 38.2952 22.67C38.5594 20.3575 38.2952 12.0982 38.2952 12.0982C38.2952 12.0982 38.2289 8.46424 38.8237 8.86074Z" fill="white"/>
<path d="M37.238 12.759C37.8325 13.0235 37.8987 13.7503 37.8987 14.477C37.8987 15.2038 37.7005 18.177 37.5022 21.0845C37.304 23.9915 34.9917 26.4363 33.2737 28.154C31.5557 29.872 26.6002 35.224 24.7502 37.867C22.9002 40.5098 21.9782 43.991 22.1735 46.9188C22.3715 49.892 23.0985 52.7993 25.8735 55.9048C28.6485 59.0103 30.5647 60.4638 32.0182 61.1908C33.472 61.917 34.9257 62.4458 34.5952 63.1068C34.2647 63.7673 32.877 63.3048 31.3575 62.7765C29.8377 62.2475 24.6842 60.1338 21.7107 56.764C18.7377 53.394 17.2182 48.901 17.3502 44.606C17.482 40.3115 18.6717 38.5275 20.6537 35.7525C22.636 32.9775 28.12 28.881 29.8377 27.824C31.5557 26.7665 33.8682 24.9828 34.9917 23.529C36.1147 22.0755 36.7092 20.886 36.6432 18.904C36.5772 16.9218 36.7757 15.1378 36.7095 14.477C36.6432 13.8165 36.6432 12.495 37.238 12.759Z" fill="white"/>
<path d="M37.4033 64.5507C37.6721 64.54 37.5023 65.7042 37.0278 66.282C36.5533 66.8595 35.7386 67.207 35.6396 66.9745C35.5401 66.742 36.2278 66.6082 36.7328 66.0462C37.1966 65.5302 37.0738 64.564 37.4033 64.5507Z" fill="white"/>
<path d="M42.7506 64.52C42.4821 64.509 42.6518 65.6732 43.1263 66.2507C43.6006 66.8282 44.4156 67.176 44.5143 66.9437C44.6138 66.7112 43.9261 66.5775 43.4211 66.0155C42.9573 65.4997 43.0801 64.533 42.7506 64.5202" fill="white"/>
<path d="M40.3737 65.7833C40.3737 66.8 40.4254 67.6243 40.2037 67.6243C39.9302 67.6243 40.0332 66.8 40.0332 65.7833C40.0332 64.7665 39.9407 63.942 40.2034 63.942C40.4459 63.942 40.3734 64.7665 40.3734 65.7833" fill="white"/>
</svg>
