<svg width="80" height="80" viewBox="0 0 80 80" fill="none" xmlns="http://www.w3.org/2000/svg">
<path d="M40 61.0429C62.0914 61.0429 80 51.6217 80 40C80 28.3784 62.0914 18.9572 40 18.9572C17.9086 18.9572 0 28.3784 0 40C0 51.6217 17.9086 61.0429 40 61.0429Z" fill="url(#paint0_radial_135_8500)"/>
<path d="M39.9996 59.48C61.2279 59.48 78.4368 50.7585 78.4368 40C78.4368 29.2415 61.2279 20.52 39.9996 20.52C18.7714 20.52 1.5625 29.2415 1.5625 40C1.5625 50.7585 18.7714 59.48 39.9996 59.48Z" fill="#6280B6"/>
<path d="M47.7865 46.2857L49.6922 36.4743C49.9637 35.6346 50.0084 34.7381 49.8217 33.8755C49.635 33.013 49.2237 32.2152 48.6293 31.5629C46.9703 30.3848 44.9388 29.8515 42.915 30.0629H39.6207L40.5665 25.2057C40.5837 25.1153 40.5808 25.0221 40.5579 24.933C40.535 24.8438 40.4927 24.7608 40.434 24.6898C40.3753 24.6189 40.3017 24.5617 40.2184 24.5225C40.1352 24.4833 40.0442 24.4629 39.9522 24.4629H35.3807C35.2356 24.4628 35.0949 24.5132 34.9829 24.6055C34.8708 24.6978 34.7943 24.8261 34.7665 24.9686L32.7407 35.3857C32.5848 34.2719 32.1117 33.2265 31.3779 32.3743C30.5608 31.556 29.5751 30.9258 28.4895 30.5276C27.4039 30.1294 26.2445 29.9727 25.0922 30.0686H16.2865C16.1413 30.0685 16.0006 30.119 15.8886 30.2112C15.7765 30.3035 15.7 30.4318 15.6722 30.5743L11.575 51.66C11.5578 51.7504 11.5607 51.8436 11.5836 51.9327C11.6065 52.0219 11.6488 52.1049 11.7075 52.1759C11.7661 52.2468 11.8398 52.304 11.923 52.3432C12.0063 52.3824 12.0972 52.4028 12.1893 52.4029H16.7693C16.9145 52.4029 17.0551 52.3525 17.1672 52.2602C17.2793 52.168 17.3558 52.0396 17.3836 51.8971L18.375 46.7971H21.8036C23.3174 46.8376 24.8284 46.6448 26.2836 46.2257C27.5106 45.8198 28.6326 45.1475 29.5693 44.2571C30.3369 43.5579 30.9923 42.7445 31.5122 41.8457L30.6922 46.06C30.6749 46.1504 30.6779 46.2436 30.7008 46.3327C30.7237 46.4219 30.7659 46.5049 30.8246 46.5759C30.8833 46.6468 30.9569 46.704 31.0402 46.7432C31.1235 46.7824 31.2144 46.8028 31.3065 46.8029H35.8779C36.023 46.8029 36.1637 46.7525 36.2758 46.6602C36.3878 46.568 36.4643 46.4396 36.4922 46.2971L38.7407 34.7229H41.8665C43.1979 34.7229 43.5807 34.9886 43.695 35.1029C43.8093 35.2171 43.9807 35.5743 43.7665 36.7286L41.9522 46.0571C41.9349 46.1476 41.9379 46.2407 41.9608 46.3299C41.9837 46.4191 42.0259 46.5021 42.0846 46.573C42.1433 46.644 42.2169 46.7011 42.3002 46.7403C42.3835 46.7796 42.4744 46.7999 42.5665 46.8H47.195C47.3374 46.7944 47.4737 46.7405 47.5812 46.6469C47.6888 46.5534 47.7612 46.426 47.7865 46.2857ZM26.6579 38.1886C26.5181 39.3881 25.9488 40.4964 25.055 41.3086C23.9324 42.0069 22.616 42.3282 21.2979 42.2257H19.2636L20.735 34.6514H23.3665C25.3007 34.6514 26.0779 35.0657 26.3922 35.4114C26.6319 35.8286 26.7797 36.2923 26.8255 36.7713C26.8713 37.2502 26.8142 37.7335 26.6579 38.1886Z" fill="white"/>
<path d="M67.2742 32.3772C66.4572 31.5589 65.4715 30.9287 64.3859 30.5305C63.3002 30.1323 62.1409 29.9756 60.9885 30.0715H52.1571C52.0119 30.0714 51.8712 30.1218 51.7592 30.2141C51.6471 30.3064 51.5706 30.4347 51.5428 30.5772L47.4456 51.6629C47.4284 51.7533 47.4313 51.8465 47.4542 51.9356C47.4771 52.0248 47.5194 52.1078 47.5781 52.1788C47.6368 52.2497 47.7104 52.3069 47.7936 52.3461C47.8769 52.3853 47.9678 52.4057 48.0599 52.4057H52.6542C52.7994 52.4058 52.94 52.3554 53.0521 52.2631C53.1642 52.1708 53.2406 52.0425 53.2685 51.9L54.2599 46.8H57.6885C59.2023 46.8405 60.7133 46.6477 62.1685 46.2286C63.3955 45.8227 64.5175 45.1504 65.4542 44.26C67.0584 42.8143 68.1393 40.8785 68.5285 38.7543C68.8359 37.6676 68.8825 36.5237 68.6646 35.4156C68.4466 34.3075 67.9703 33.2665 67.2742 32.3772ZM62.5113 38.1886C62.3716 39.3881 61.8022 40.4964 60.9085 41.3086C59.7831 42.0077 58.4634 42.3281 57.1428 42.2229H55.1142L56.5856 34.6486H59.2171C61.1513 34.6486 61.9285 35.0629 62.2428 35.4086C62.4834 35.826 62.6319 36.29 62.6782 36.7695C62.7245 37.249 62.6676 37.7329 62.5113 38.1886Z" fill="white"/>
<path d="M23.3662 34.0228C23.9827 33.9452 24.6084 33.9906 25.2072 34.1563C25.806 34.3221 26.366 34.605 26.8548 34.9885C27.1702 35.4741 27.3714 36.0249 27.4431 36.5995C27.5149 37.1741 27.4554 37.7574 27.2691 38.3057C27.1058 39.6556 26.4532 40.8988 25.4348 41.7999C24.2066 42.591 22.7548 42.962 21.2977 42.8571H18.5034L20.2177 34.0314L23.3662 34.0228ZM12.1748 51.7828H16.7691L17.8577 46.1771H21.7919C23.2401 46.2166 24.6856 46.0325 26.0777 45.6314C27.2201 45.2541 28.2643 44.6276 29.1348 43.7971C30.6415 42.4417 31.6564 40.625 32.0205 38.6314C32.3088 37.64 32.3595 36.5946 32.1684 35.5799C31.9773 34.5653 31.5498 33.61 30.9205 32.7914C30.1618 32.0409 29.2485 31.465 28.2443 31.1038C27.2401 30.7425 26.1692 30.6047 25.1062 30.6999H16.2862L12.1748 51.7828Z" fill="#000004"/>
<path d="M35.3922 25.0914H39.9636L38.8579 30.6971H42.9179C44.7826 30.5019 46.656 30.9758 48.2036 32.0342C48.7158 32.6164 49.066 33.3231 49.2189 34.0833C49.3719 34.8436 49.3223 35.6307 49.0751 36.3657L47.1693 46.1771H42.5436L44.3579 36.8485C44.4843 36.4925 44.5293 36.1126 44.4898 35.7369C44.4502 35.3612 44.3271 34.999 44.1293 34.6771C43.4677 34.2031 42.6505 33.9988 41.8436 34.1057H38.2008L35.8522 46.1857H31.2808L35.3922 25.0914Z" fill="#000004"/>
<path d="M59.2202 34.0228C59.8367 33.9452 60.4624 33.9906 61.0612 34.1563C61.66 34.3221 62.22 34.605 62.7088 34.9885C63.0242 35.4741 63.2254 36.0249 63.2971 36.5995C63.3689 37.1741 63.3094 37.7574 63.1231 38.3057C62.9598 39.6556 62.3072 40.8988 61.2888 41.7999C60.0582 42.5928 58.6031 42.9639 57.1431 42.8571H54.3488L56.0631 34.0314L59.2202 34.0228ZM48.0288 51.7828H52.6231L53.7117 46.1771H57.646C59.0941 46.2166 60.5396 46.0325 61.9317 45.6314C63.0741 45.2541 64.1183 44.6276 64.9888 43.7971C66.4955 42.4417 67.5104 40.625 67.8745 38.6314C68.1628 37.64 68.2135 36.5946 68.0224 35.5799C67.8313 34.5653 67.4038 33.61 66.7745 32.7914C66.0158 32.0409 65.1025 31.465 64.0983 31.1038C63.0941 30.7425 62.0232 30.6047 60.9602 30.6999H52.126L48.0288 51.7828Z" fill="#000004"/>
<defs>
<radialGradient id="paint0_radial_135_8500" cx="0" cy="0" r="1" gradientUnits="userSpaceOnUse" gradientTransform="translate(24.0171 26.3572) scale(52.5257)">
<stop stop-color="white"/>
<stop offset="0.5" stop-color="#4C6B96"/>
<stop offset="1" stop-color="#231F20"/>
</radialGradient>
</defs>
</svg>
