<svg width="80" height="80" viewBox="0 0 80 80" fill="none" xmlns="http://www.w3.org/2000/svg">
<path d="M39.7693 9C23.5221 9 24.5367 16.0458 24.5367 16.0458L24.5548 23.3451H40.0591V25.5367H18.3966C18.3966 25.5367 8 24.3576 8 40.7512C8 57.1447 17.0744 56.5634 17.0744 56.5634H22.49V48.9561C22.49 48.9561 22.1981 39.8818 31.4194 39.8818C40.6408 39.8818 46.7969 39.8818 46.7969 39.8818C46.7969 39.8818 55.4366 40.0214 55.4366 31.5319C55.4366 23.0424 55.4366 17.4948 55.4366 17.4948C55.4366 17.4948 56.7483 9 39.7693 9ZM31.2202 13.9085C32.7628 13.9085 34.0095 15.1552 34.0095 16.6978C34.0095 18.2404 32.7628 19.4871 31.2202 19.4871C29.6776 19.4871 28.4309 18.2404 28.4309 16.6978C28.4309 15.1552 29.6776 13.9085 31.2202 13.9085Z" fill="url(#paint0_linear_135_8501)"/>
<path d="M40.2308 72.6667C56.478 72.6667 55.4634 65.6209 55.4634 65.6209L55.4453 58.3216H39.941V56.13H61.6036C61.6036 56.13 72.0001 57.3091 72.0001 40.9155C72.0001 24.522 62.9258 25.1033 62.9258 25.1033H57.5101V32.7106C57.5101 32.7106 57.8021 41.7849 48.5807 41.7849C39.3593 41.7849 33.2032 41.7849 33.2032 41.7849C33.2032 41.7849 24.5635 41.6453 24.5635 50.1348C24.5635 58.6243 24.5635 64.1719 24.5635 64.1719C24.5635 64.1719 23.2518 72.6667 40.2308 72.6667ZM48.7799 67.7582C47.2374 67.7582 45.9906 66.5115 45.9906 64.9689C45.9906 63.4263 47.2374 62.1796 48.7799 62.1796C50.3225 62.1796 51.5692 63.4263 51.5692 64.9689C51.5693 66.5115 50.3225 67.7582 48.7799 67.7582Z" fill="url(#paint1_linear_135_8501)"/>
<defs>
<linearGradient id="paint0_linear_135_8501" x1="14.1504" y1="14.7265" x2="45.8667" y2="46.1264" gradientUnits="userSpaceOnUse">
<stop stop-color="#387EB8"/>
<stop offset="1" stop-color="#366994"/>
</linearGradient>
<linearGradient id="paint1_linear_135_8501" x1="33.6182" y1="34.8894" x2="67.6779" y2="67.0871" gradientUnits="userSpaceOnUse">
<stop stop-color="#FFE052"/>
<stop offset="1" stop-color="#FFC331"/>
</linearGradient>
</defs>
</svg>
