<svg width="80" height="80" viewBox="0 0 80 80" fill="none" xmlns="http://www.w3.org/2000/svg">
<path d="M40 46.185C43.4518 46.185 46.25 43.3868 46.25 39.935C46.25 36.4832 43.4518 33.685 40 33.685C36.5482 33.685 33.75 36.4832 33.75 39.935C33.75 43.3868 36.5482 46.185 40 46.185Z" fill="#00D8FF"/>
<path d="M40 54.265C32.4878 54.4467 24.9945 53.4341 17.8 51.265C14.4766 50.2115 11.3768 48.5518 8.6575 46.37C7.61982 45.6246 6.75568 44.6636 6.12436 43.5529C5.49303 42.4421 5.10947 41.2079 5 39.935C5 35.8025 9.54 31.7525 17.145 29.1025C24.5318 26.7544 32.2498 25.6163 40 25.7325C47.6468 25.6257 55.2614 26.7431 62.555 29.0425C65.7557 30.0629 68.7503 31.6423 71.4 33.7075C72.4199 34.4181 73.2711 35.3443 73.8932 36.4205C74.5154 37.4967 74.8932 38.6965 75 39.935C75 44.23 69.925 48.5825 61.75 51.2875C54.6948 53.3859 47.3596 54.3901 40 54.265ZM40 28.7225C32.5853 28.6234 25.2021 29.7053 18.1275 31.9275C11.1275 34.37 7.99 37.71 7.99 39.9275C7.99 42.2475 11.3625 45.895 18.7675 48.4275C25.6502 50.4921 32.8165 51.4532 40 51.275C47.041 51.4009 54.0598 50.4482 60.8125 48.45C68.5 45.9025 72 42.25 72 39.935C71.8739 39.1406 71.5844 38.3809 71.1497 37.7041C70.7151 37.0272 70.1449 36.4478 69.475 36.0025C67.1044 34.1704 64.4292 32.7706 61.5725 31.8675C54.5951 29.6769 47.3124 28.6152 40 28.7225Z" fill="#00D8FF"/>
<path d="M25.8 71.1075C24.6338 71.1343 23.4813 70.8513 22.46 70.2875C18.88 68.2225 17.64 62.2675 19.1425 54.355C20.7991 46.7827 23.6695 39.5282 27.6425 32.8725C31.3693 26.1953 36.1405 20.1573 41.775 14.9875C44.2579 12.7243 47.1222 10.9189 50.235 9.65499C51.3609 9.12734 52.5891 8.85382 53.8325 8.85382C55.0759 8.85382 56.3041 9.12734 57.43 9.65499C61.1525 11.8 62.385 18.37 60.6475 26.8025C58.9397 33.9639 56.1439 40.8211 52.3575 47.135C48.7618 53.7334 44.1409 59.7188 38.6675 64.8675C36.0945 67.2195 33.1083 69.0749 29.86 70.34C28.5596 70.8227 27.1869 71.0821 25.8 71.1075ZM30.2325 34.3575C26.4427 40.7308 23.6917 47.6668 22.0825 54.905C20.7 62.1925 22.0275 66.575 23.9575 67.69C25.9575 68.8475 30.8125 67.75 36.7075 62.6C41.9326 57.6674 46.3431 51.938 49.775 45.625C53.4023 39.5888 56.0842 33.0328 57.7275 26.185C59.3625 18.2475 57.95 13.3875 55.945 12.2325C55.1935 11.9446 54.3905 11.8157 53.5867 11.854C52.7828 11.8923 51.9957 12.0969 51.275 12.455C48.5042 13.5984 45.9568 15.2216 43.75 17.25C38.3667 22.202 33.8092 27.9823 30.25 34.3725L30.2325 34.3575Z" fill="#00D8FF"/>
<path d="M54.1921 71.14C50.8046 71.14 46.5021 69.09 42.0221 65.2375C36.2889 60.0207 31.4371 53.911 27.6546 47.145C23.7315 40.5809 20.8838 33.4314 19.2196 25.9675C18.4979 22.6837 18.3642 19.298 18.8246 15.9675C18.9311 14.732 19.3073 13.5349 19.9267 12.4607C20.5461 11.3864 21.3937 10.4611 22.4096 9.75001C26.1271 7.59751 32.4346 9.81001 38.8721 15.525C44.2236 20.5805 48.7681 26.4268 52.3471 32.86C56.2679 39.2709 59.1454 46.2638 60.8721 53.5775C61.6249 56.9818 61.741 60.496 61.2146 63.9425C61.0894 65.2135 60.6907 66.4424 60.0461 67.545C59.4014 68.6475 58.5259 69.5975 57.4796 70.33C56.475 70.8868 55.3404 71.1664 54.1921 71.14ZM30.2421 45.64C33.8707 52.1061 38.5053 57.9534 43.9721 62.9625C49.5946 67.8 54.0546 68.84 55.9721 67.7125C57.9721 66.55 59.4471 61.805 57.9271 54.1275C56.2618 47.1449 53.5018 40.4698 49.7496 34.35C46.3342 28.1928 41.9965 22.5947 36.8871 17.75C30.8271 12.37 25.9121 11.1675 23.9096 12.3275C23.2855 12.8347 22.7733 13.4658 22.4054 14.181C22.0375 14.8961 21.8219 15.6798 21.7721 16.4825C21.3746 19.4527 21.5041 22.4698 22.1546 25.395C23.7554 32.5329 26.4865 39.369 30.2446 45.645L30.2421 45.64Z" fill="#00D8FF"/>
</svg>
