<svg width="80" height="80" viewBox="0 0 80 80" fill="none" xmlns="http://www.w3.org/2000/svg">
<path d="M57.5836 50.0708L21.0439 71.4642L68.3561 68.2984L71.9998 21.2597L57.5833 50.0706L57.5836 50.0708Z" fill="url(#paint0_linear_135_8495)"/>
<path d="M68.4332 68.2662L64.3667 40.5924L53.29 55.014L68.4332 68.2664V68.2662Z" fill="url(#paint1_linear_135_8495)"/>
<path d="M68.4882 68.2662L38.6966 65.9605L21.2017 71.4038L68.4882 68.2662Z" fill="url(#paint2_linear_135_8495)"/>
<path d="M21.2436 71.41L28.6861 47.3699L12.3086 50.8224L21.2434 71.4097L21.2436 71.41Z" fill="url(#paint3_linear_135_8495)"/>
<path d="M53.2873 55.0932L46.4392 28.6457L26.8418 46.7587L53.2873 55.0937V55.0932Z" fill="url(#paint4_linear_135_8495)"/>
<path d="M70.4464 29.0181L51.9212 14.0999L46.7627 30.5437L70.4464 29.0181Z" fill="url(#paint5_linear_135_8495)"/>
<path d="M61.7826 8.78086L50.8872 14.7178L44.0132 8.70139L61.7826 8.78111V8.78086Z" fill="url(#paint6_linear_135_8495)"/>
<path d="M8 58.8867L12.5642 50.6791L8.87206 40.9012L8 58.8867Z" fill="url(#paint7_linear_135_8495)"/>
<path d="M8.62646 40.5924L12.3412 50.9816L28.4825 47.411L46.9105 30.5243L52.1112 14.2368L43.9224 8.53577L30.0003 13.6731C25.6139 17.6957 17.1025 25.6549 16.7957 25.8045C16.4918 25.9575 11.1751 35.8659 8.62646 40.5924Z" fill="white"/>
<path d="M21.6702 21.9284C31.1768 12.6347 43.432 7.14387 48.1351 11.8226C52.8356 16.5014 47.8509 27.8715 38.3443 37.1622C28.8378 46.4527 16.7344 52.246 12.0344 47.5673C7.33135 42.8917 12.1637 31.2191 21.6702 21.9284Z" fill="url(#paint8_linear_135_8495)"/>
<path d="M21.2437 71.4003L28.6279 47.2838L53.1513 55.0519C44.2846 63.25 34.4227 70.1805 21.2437 71.4003Z" fill="url(#paint9_linear_135_8495)"/>
<path d="M46.9434 30.4768L53.2391 55.0647C60.646 47.3858 67.2935 39.1305 70.5492 28.9195L46.9436 30.4768H46.9434Z" fill="url(#paint10_linear_135_8495)"/>
<path d="M70.4847 29.0436C73.0045 21.5463 73.5858 10.7907 61.7049 8.79373L51.9561 14.1031L70.4847 29.0436Z" fill="url(#paint11_linear_135_8495)"/>
<path d="M8 58.7785C8.34902 71.1523 17.4031 71.3367 21.2599 71.4452L12.351 50.9307L8 58.7785Z" fill="#9E1209"/>
<path d="M46.9785 30.5152C52.6701 33.9645 64.141 40.8918 64.3735 41.0191C64.7351 41.2196 69.3189 33.3976 70.3592 28.9768L46.9785 30.5152Z" fill="url(#paint12_radial_135_8495)"/>
<path d="M28.6187 47.2838L38.49 66.0623C44.327 62.941 48.898 59.1382 53.084 55.0648L28.6187 47.2838Z" fill="url(#paint13_radial_135_8495)"/>
<path d="M12.3127 50.9562L10.9141 67.3777C13.5531 70.9322 17.184 71.2412 20.9921 70.9641C18.2368 64.2025 12.7325 50.6824 12.3127 50.9562Z" fill="url(#paint14_linear_135_8495)"/>
<path d="M51.8984 14.1445L71.5091 16.8579C70.4623 12.4852 67.2482 9.66326 61.7698 8.78113L51.8984 14.1445Z" fill="url(#paint15_linear_135_8495)"/>
<defs>
<linearGradient id="paint0_linear_135_8495" x1="64.229" y1="77.187" x2="51.0292" y2="53.5157" gradientUnits="userSpaceOnUse">
<stop stop-color="#FB7655"/>
<stop offset="0.41" stop-color="#E42B1E"/>
<stop offset="0.99" stop-color="#990000"/>
<stop offset="1" stop-color="#990000"/>
</linearGradient>
<linearGradient id="paint1_linear_135_8495" x1="70.9547" y1="57.4431" x2="52.0168" y2="53.6913" gradientUnits="userSpaceOnUse">
<stop stop-color="#871101"/>
<stop offset="0.99" stop-color="#911209"/>
<stop offset="1" stop-color="#911209"/>
</linearGradient>
<linearGradient id="paint2_linear_135_8495" x1="57.0326" y1="77.8991" x2="56.7951" y2="66.043" gradientUnits="userSpaceOnUse">
<stop stop-color="#871101"/>
<stop offset="0.99" stop-color="#911209"/>
<stop offset="1" stop-color="#911209"/>
</linearGradient>
<linearGradient id="paint3_linear_135_8495" x1="20.4993" y1="49.109" x2="25.9951" y2="65.4531" gradientUnits="userSpaceOnUse">
<stop stop-color="white"/>
<stop offset="0.23" stop-color="#E57252"/>
<stop offset="0.46" stop-color="#DE3B20"/>
<stop offset="0.99" stop-color="#A60003"/>
<stop offset="1" stop-color="#A60003"/>
</linearGradient>
<linearGradient id="paint4_linear_135_8495" x1="39.0527" y1="32.9694" x2="40.0468" y2="50.61" gradientUnits="userSpaceOnUse">
<stop stop-color="white"/>
<stop offset="0.23" stop-color="#E4714E"/>
<stop offset="0.56" stop-color="#BE1A0D"/>
<stop offset="0.99" stop-color="#A80D00"/>
<stop offset="1" stop-color="#A80D00"/>
</linearGradient>
<linearGradient id="paint5_linear_135_8495" x1="55.5174" y1="16.6642" x2="56.9713" y2="29.4794" gradientUnits="userSpaceOnUse">
<stop stop-color="white"/>
<stop offset="0.18" stop-color="#E46342"/>
<stop offset="0.4" stop-color="#C82410"/>
<stop offset="0.99" stop-color="#A80D00"/>
<stop offset="1" stop-color="#A80D00"/>
</linearGradient>
<linearGradient id="paint6_linear_135_8495" x1="46.4314" y1="12.2117" x2="48.4836" y2="3.38646" gradientUnits="userSpaceOnUse">
<stop stop-color="white"/>
<stop offset="0.54" stop-color="#C81F11"/>
<stop offset="0.99" stop-color="#BF0905"/>
<stop offset="1" stop-color="#BF0905"/>
</linearGradient>
<linearGradient id="paint7_linear_135_8495" x1="9.26081" y1="44.7024" x2="14.7288" y2="48.1786" gradientUnits="userSpaceOnUse">
<stop stop-color="white"/>
<stop offset="0.31" stop-color="#DE4024"/>
<stop offset="0.99" stop-color="#BF190B"/>
<stop offset="1" stop-color="#BF190B"/>
</linearGradient>
<linearGradient id="paint8_linear_135_8495" x1="2.00613" y1="57.9358" x2="50.8202" y2="6.88318" gradientUnits="userSpaceOnUse">
<stop stop-color="#BD0012"/>
<stop offset="0.07" stop-color="white"/>
<stop offset="0.17" stop-color="white"/>
<stop offset="0.27" stop-color="#C82F1C"/>
<stop offset="0.33" stop-color="#820C01"/>
<stop offset="0.46" stop-color="#A31601"/>
<stop offset="0.72" stop-color="#B31301"/>
<stop offset="0.99" stop-color="#E82609"/>
<stop offset="1" stop-color="#E82609"/>
</linearGradient>
<linearGradient id="paint9_linear_135_8495" x1="40.0028" y1="63.009" x2="26.045" y2="57.0632" gradientUnits="userSpaceOnUse">
<stop stop-color="#8C0C01"/>
<stop offset="0.54" stop-color="#990C00"/>
<stop offset="0.99" stop-color="#A80D0E"/>
<stop offset="1" stop-color="#A80D0E"/>
</linearGradient>
<linearGradient id="paint10_linear_135_8495" x1="65.6673" y1="45.3267" x2="51.3653" y2="35.0236" gradientUnits="userSpaceOnUse">
<stop stop-color="#7E110B"/>
<stop offset="0.99" stop-color="#9E0C00"/>
<stop offset="1" stop-color="#9E0C00"/>
</linearGradient>
<linearGradient id="paint11_linear_135_8495" x1="70.5441" y1="23.8033" x2="63.851" y2="16.9124" gradientUnits="userSpaceOnUse">
<stop stop-color="#79130D"/>
<stop offset="0.99" stop-color="#9E120B"/>
<stop offset="1" stop-color="#9E120B"/>
</linearGradient>
<radialGradient id="paint12_radial_135_8495" cx="0" cy="0" r="1" gradientUnits="userSpaceOnUse" gradientTransform="translate(54.4606 33.8205) scale(16.2666 8.38082)">
<stop stop-color="#A80D00"/>
<stop offset="0.99" stop-color="#7E0E08"/>
<stop offset="1" stop-color="#7E0E08"/>
</radialGradient>
<radialGradient id="paint13_radial_135_8495" cx="0" cy="0" r="1" gradientUnits="userSpaceOnUse" gradientTransform="translate(31.9335 54.9567) scale(21.624 16.5975)">
<stop stop-color="#A30C00"/>
<stop offset="0.99" stop-color="#800E08"/>
<stop offset="1" stop-color="#800E08"/>
</radialGradient>
<linearGradient id="paint14_linear_135_8495" x1="16.6152" y1="71.3865" x2="4.58123" y2="61.2554" gradientUnits="userSpaceOnUse">
<stop stop-color="#8B2114"/>
<stop offset="0.43" stop-color="#9E100A"/>
<stop offset="0.99" stop-color="#B3100C"/>
<stop offset="1" stop-color="#B3100C"/>
</linearGradient>
<linearGradient id="paint15_linear_135_8495" x1="57.9523" y1="11.6564" x2="61.3243" y2="20.3081" gradientUnits="userSpaceOnUse">
<stop stop-color="#B31000"/>
<stop offset="0.44" stop-color="#910F08"/>
<stop offset="0.99" stop-color="#791C12"/>
<stop offset="1" stop-color="#791C12"/>
</linearGradient>
</defs>
</svg>
