<svg width="80" height="80" viewBox="0 0 80 80" fill="none" xmlns="http://www.w3.org/2000/svg">
<path d="M38.2475 18.6C38.2475 18.2709 38.3451 17.9492 38.528 17.6755C38.7108 17.4019 38.9707 17.1886 39.2747 17.0627C39.5788 16.9367 39.9134 16.9038 40.2362 16.968C40.5589 17.0322 40.8554 17.1907 41.0882 17.4234C41.3209 17.6561 41.4793 17.9526 41.5436 18.2754C41.6078 18.5982 41.5748 18.9327 41.4489 19.2368C41.3229 19.5409 41.1096 19.8007 40.836 19.9836C40.5624 20.1664 40.2406 20.264 39.9115 20.264C39.6929 20.2643 39.4764 20.2214 39.2744 20.1379C39.0724 20.0544 38.8889 19.9318 38.7343 19.7772C38.5797 19.6227 38.4572 19.4391 38.3737 19.2371C38.2901 19.0351 38.2473 18.8186 38.2475 18.6ZM18.3995 33.668C18.3995 33.3389 18.4971 33.0172 18.68 32.7435C18.8628 32.4699 19.1227 32.2566 19.4267 32.1307C19.7308 32.0047 20.0654 31.9718 20.3882 32.036C20.7109 32.1002 21.0074 32.2587 21.2401 32.4914C21.4729 32.7241 21.6313 33.0206 21.6955 33.3434C21.7598 33.6662 21.7268 34.0007 21.6009 34.3048C21.4749 34.6089 21.2616 34.8687 20.988 35.0516C20.7143 35.2344 20.3926 35.332 20.0635 35.332C19.845 35.332 19.6286 35.289 19.4267 35.2053C19.2249 35.1217 19.0414 34.9992 18.8869 34.8446C18.7324 34.6901 18.6098 34.5067 18.5262 34.3048C18.4426 34.1029 18.3995 33.8865 18.3995 33.668ZM58.1115 33.746C58.1115 33.4169 58.2091 33.0952 58.392 32.8215C58.5748 32.5479 58.8347 32.3346 59.1387 32.2087C59.4428 32.0827 59.7774 32.0498 60.1002 32.114C60.4229 32.1782 60.7194 32.3367 60.9522 32.5694C61.1849 32.8021 61.3433 33.0986 61.4076 33.4214C61.4718 33.7442 61.4388 34.0787 61.3129 34.3828C61.1869 34.6869 60.9736 34.9467 60.7 35.1296C60.4264 35.3124 60.1046 35.41 59.7755 35.41C59.5569 35.4103 59.3404 35.3674 59.1384 35.2839C58.9364 35.2004 58.7529 35.0778 58.5983 34.9232C58.4437 34.7687 58.3212 34.5851 58.2377 34.3831C58.1541 34.1811 58.1113 33.9646 58.1115 33.746ZM23.2095 36.026C23.5764 35.8623 23.8635 35.5601 24.0082 35.1853C24.1528 34.8105 24.1432 34.3937 23.9815 34.026L23.2435 32.356H26.1475V45.446H20.2875C19.5642 42.9058 19.3388 40.2498 19.6235 37.624L23.2095 36.026ZM35.3575 36.348V32.49H42.2735C42.6315 32.49 44.7955 32.902 44.7955 34.522C44.7955 35.866 43.1355 36.348 41.7695 36.348H35.3575ZM25.9155 57.122C25.9155 56.7929 26.0131 56.4712 26.196 56.1975C26.3788 55.9239 26.6387 55.7106 26.9427 55.5847C27.2468 55.4587 27.5814 55.4258 27.9042 55.49C28.2269 55.5542 28.5234 55.7127 28.7562 55.9454C28.9889 56.1781 29.1473 56.4746 29.2116 56.7974C29.2758 57.1202 29.2428 57.4547 29.1169 57.7588C28.9909 58.0629 28.7776 58.3227 28.504 58.5056C28.2304 58.6884 27.9086 58.786 27.5795 58.786C27.3609 58.7863 27.1444 58.7434 26.9424 58.6599C26.7404 58.5764 26.5569 58.4538 26.4023 58.2992C26.2477 58.1447 26.1252 57.9611 26.0417 57.7591C25.9581 57.5571 25.9153 57.3406 25.9155 57.122ZM50.5775 57.2C50.5775 56.8709 50.6751 56.5492 50.858 56.2755C51.0408 56.0019 51.3007 55.7886 51.6047 55.6627C51.9088 55.5367 52.2434 55.5038 52.5662 55.568C52.8889 55.6322 53.1854 55.7907 53.4182 56.0234C53.6509 56.2561 53.8093 56.5526 53.8736 56.8754C53.9378 57.1982 53.9048 57.5327 53.7789 57.8368C53.6529 58.1409 53.4396 58.4007 53.166 58.5836C52.8924 58.7664 52.5706 58.864 52.2415 58.864C51.8002 58.864 51.377 58.6887 51.0649 58.3766C50.7528 58.0646 50.5775 57.6413 50.5775 57.2ZM51.0915 53.426C50.8966 53.3843 50.6954 53.3815 50.4994 53.4177C50.3035 53.4538 50.1165 53.5283 49.9493 53.6368C49.7822 53.7453 49.638 53.8856 49.5251 54.0499C49.4123 54.2142 49.3329 54.3991 49.2915 54.594L48.4555 58.492C45.7687 59.7087 42.851 60.3312 39.9016 60.317C36.9522 60.3029 34.0405 59.6524 31.3655 58.41L30.5315 54.512C30.4471 54.1189 30.2101 53.7753 29.8727 53.5567C29.5352 53.3381 29.1248 53.2624 28.7315 53.346L25.2895 54.086C24.6498 53.4274 24.0551 52.7265 23.5095 51.988H40.2575C40.4475 51.988 40.5735 51.954 40.5735 51.788V45.856C40.5735 45.684 40.4475 45.656 40.2575 45.656H35.3575V41.894H40.6555C41.4453 41.9019 42.2065 42.1903 42.8033 42.7076C43.4001 43.2248 43.7936 43.9374 43.9135 44.718C44.1235 45.544 44.5855 48.232 44.9015 49.092C45.2155 50.058 46.5015 51.986 47.8655 51.986H56.5115C55.9317 52.7633 55.2975 53.4985 54.6135 54.186L51.0915 53.426ZM60.3915 37.784C60.5092 38.9665 60.5239 40.157 60.4355 41.342H58.3335C58.1235 41.342 58.0375 41.48 58.0375 41.686V42.652C58.0375 44.924 56.7555 45.42 55.6375 45.546C54.5675 45.666 53.3815 45.098 53.2375 44.444C53.1604 43.3113 52.8177 42.2126 52.2371 41.237C51.6565 40.2613 50.8543 39.4361 49.8955 38.828C51.9555 37.52 54.0955 35.59 54.0955 33.006C54.0531 31.9081 53.7366 30.8383 53.1749 29.8941C52.6132 28.9499 51.8241 28.1612 50.8795 27.6C49.562 26.7466 48.0464 26.2479 46.4795 26.152H24.7335C27.7395 22.7921 31.7697 20.5173 36.1995 19.68L38.7635 22.368C38.9009 22.5123 39.0653 22.628 39.2474 22.7087C39.4294 22.7894 39.6256 22.8334 39.8248 22.8382C40.0239 22.8431 40.222 22.8086 40.4078 22.7369C40.5935 22.6651 40.7634 22.5574 40.9075 22.42L43.7755 19.676C46.6998 20.2246 49.4695 21.4033 51.8923 23.1302C54.3151 24.8571 56.3329 27.0908 57.8055 29.676L55.8415 34.11C55.6804 34.4778 55.6711 34.8944 55.8157 35.269C55.9603 35.6436 56.247 35.9459 56.6135 36.11L60.3915 37.784ZM65.2875 37.856L65.2215 37.17L67.2435 35.284C67.3202 35.2043 67.3803 35.1102 67.4205 35.0072C67.4607 34.9041 67.4801 34.7942 67.4777 34.6836C67.4753 34.573 67.451 34.4641 67.4064 34.3629C67.3618 34.2617 67.2976 34.1703 67.2175 34.094C67.1467 34.0266 67.0649 33.9718 66.9755 33.932L64.3995 32.966L64.1995 32.298L65.8115 30.058C65.9306 29.8693 65.9701 29.6411 65.9214 29.4233C65.8727 29.2056 65.7397 29.016 65.5515 28.896C65.4697 28.8447 65.3797 28.8075 65.2855 28.786L62.5595 28.342L62.2315 27.73L63.3775 25.216C63.4181 25.1136 63.438 25.0042 63.4362 24.894C63.4344 24.7839 63.4109 24.6752 63.3671 24.5742C63.3233 24.4731 63.2599 24.3817 63.1807 24.3051C63.1015 24.2286 63.008 24.1684 62.9055 24.128C62.8124 24.0917 62.7135 24.0721 62.6135 24.07L59.8475 24.166L59.3995 23.638L60.0355 20.944C60.0545 20.835 60.0518 20.7233 60.0276 20.6154C60.0034 20.5074 59.9581 20.4053 59.8944 20.3148C59.8307 20.2244 59.7498 20.1474 59.6563 20.0882C59.5628 20.029 59.4585 19.9889 59.3495 19.97C59.2542 19.954 59.1569 19.954 59.0615 19.97L56.3655 20.6L55.8335 20.162L55.9315 17.4C55.9289 17.2894 55.9046 17.1804 55.8598 17.0793C55.8151 16.9781 55.7509 16.8867 55.6708 16.8104C55.5908 16.7341 55.4965 16.6743 55.3933 16.6344C55.2901 16.5945 55.1801 16.5754 55.0695 16.578C54.973 16.5806 54.8777 16.5995 54.7875 16.634L52.2735 17.78L51.6615 17.452L51.2175 14.726C51.1683 14.5096 51.0356 14.3214 50.8484 14.2023C50.6611 14.0832 50.4344 14.0428 50.2175 14.09C50.1233 14.1115 50.0334 14.1487 49.9515 14.2L47.7095 15.812L47.0435 15.612L46.0775 13.026C45.9873 12.8218 45.8197 12.6619 45.6115 12.5812C45.4034 12.5006 45.1718 12.5059 44.9675 12.596C44.8793 12.6358 44.7982 12.6899 44.7275 12.756L42.8355 14.78L42.1495 14.714L40.6935 12.36C40.6158 12.2498 40.5127 12.1599 40.393 12.0979C40.2733 12.0358 40.1404 12.0034 40.0055 12.0034C39.8707 12.0034 39.7378 12.0358 39.6181 12.0979C39.4983 12.1599 39.3953 12.2498 39.3175 12.36L37.8615 14.714L37.1755 14.78L35.2895 12.756C35.1277 12.6023 34.9115 12.519 34.6883 12.5247C34.4652 12.5303 34.2534 12.6243 34.0995 12.786C34.0334 12.8567 33.9794 12.9378 33.9395 13.026L32.9655 15.6L32.2995 15.8L30.0595 14.2C29.8708 14.0809 29.6426 14.0414 29.4249 14.0902C29.2071 14.1389 29.0175 14.2719 28.8975 14.46C28.8462 14.5419 28.809 14.6318 28.7875 14.726L28.3435 17.452L27.7315 17.78L25.2155 16.634C25.0078 16.5536 24.7767 16.5587 24.5728 16.6483C24.3689 16.7379 24.2088 16.9046 24.1275 17.112C24.093 17.2042 24.0741 17.3016 24.0715 17.4L24.1675 20.166L23.6355 20.6L20.9415 19.968C20.8325 19.949 20.7208 19.9518 20.6129 19.976C20.5049 20.0002 20.4028 20.0454 20.3124 20.1092C20.2219 20.1729 20.1449 20.2538 20.0857 20.3473C20.0265 20.4408 19.9864 20.545 19.9675 20.654C19.9515 20.7493 19.9515 20.8467 19.9675 20.942L20.5995 23.638L20.1635 24.168L17.3995 24.072C17.2645 24.0755 17.1323 24.1114 17.0141 24.1766C16.8958 24.2418 16.7949 24.3344 16.7198 24.4467C16.6448 24.559 16.5978 24.6876 16.5828 24.8218C16.5677 24.9561 16.5852 25.0919 16.6335 25.218L17.7795 27.732L17.4515 28.344L14.7255 28.788C14.5088 28.8368 14.3203 28.9693 14.2011 29.1567C14.0819 29.3441 14.0418 29.5711 14.0895 29.788C14.111 29.8822 14.1482 29.9722 14.1995 30.054L15.8115 32.294L15.6115 32.962L13.0255 33.928C12.8214 34.0182 12.6614 34.1859 12.5807 34.394C12.5001 34.6021 12.5054 34.8338 12.5955 35.038C12.6348 35.1276 12.6896 35.2095 12.7575 35.28L14.7795 37.166L14.7135 37.852L12.3595 39.308C12.2493 39.3858 12.1594 39.4888 12.0974 39.6086C12.0353 39.7283 12.0029 39.8612 12.0029 39.996C12.0029 40.1309 12.0353 40.2637 12.0974 40.3835C12.1594 40.5032 12.2493 40.6063 12.3595 40.684L14.7135 42.14L14.7795 42.826L12.7575 44.712C12.6038 44.8738 12.5206 45.0901 12.5262 45.3132C12.5318 45.5364 12.6258 45.7481 12.7875 45.902C12.8575 45.9681 12.9379 46.0222 13.0255 46.062L15.6115 47.028L15.8115 47.696L14.1995 49.944C14.1404 50.0375 14.1003 50.1417 14.0814 50.2507C14.0626 50.3597 14.0654 50.4714 14.0897 50.5793C14.1141 50.6872 14.1594 50.7893 14.2232 50.8796C14.287 50.97 14.368 51.0469 14.4615 51.106C14.5434 51.1574 14.6333 51.1945 14.7275 51.216L17.4535 51.66L17.7815 52.274L16.6355 54.788C16.5551 54.9962 16.5605 55.2278 16.6505 55.4321C16.7404 55.6364 16.9076 55.7967 17.1155 55.878C17.2071 55.9125 17.3037 55.9314 17.4015 55.934L20.1675 55.838L20.6055 56.37L19.9715 59.066C19.9332 59.2853 19.9835 59.5109 20.1113 59.6932C20.2392 59.8754 20.4342 59.9995 20.6535 60.038C20.75 60.0559 20.849 60.0559 20.9455 60.038L23.6355 59.4L24.1675 59.836L24.0695 62.6C24.0719 62.7102 24.0959 62.8189 24.1403 62.9198C24.1848 63.0207 24.2486 63.1119 24.3283 63.1881C24.4081 63.2642 24.502 63.3239 24.6048 63.3637C24.7076 63.4035 24.8173 63.4227 24.9275 63.42C25.0254 63.4184 25.1223 63.3995 25.2135 63.364L27.7275 62.218L28.3395 62.546L28.7835 65.27C28.8323 65.4868 28.9648 65.6755 29.1521 65.795C29.3394 65.9145 29.5664 65.9551 29.7835 65.908C29.878 65.8874 29.9681 65.8502 30.0495 65.798L32.2895 64.184L32.9575 64.384L33.9235 66.968C34.0145 67.172 34.1827 67.3315 34.3911 67.4118C34.5995 67.492 34.8313 67.4863 35.0355 67.396C35.1231 67.3562 35.2036 67.3021 35.2735 67.236L37.1595 65.214L37.8455 65.282L39.3015 67.636C39.431 67.8184 39.6276 67.9419 39.8481 67.9794C40.0686 68.0169 40.295 67.9653 40.4775 67.836C40.5552 67.7813 40.6229 67.7137 40.6775 67.636L42.1335 65.282L42.8195 65.214L44.7055 67.236C44.8673 67.3898 45.0836 67.473 45.3067 67.4674C45.5299 67.4617 45.7417 67.3677 45.8955 67.206C45.9616 67.1361 46.0157 67.0556 46.0555 66.968L47.0215 64.384L47.6895 64.184L49.9295 65.798C50.023 65.8571 50.1272 65.8973 50.2362 65.9161C50.3453 65.9349 50.4569 65.9321 50.5648 65.9078C50.6727 65.8835 50.7748 65.8381 50.8652 65.7743C50.9555 65.7105 51.0325 65.6295 51.0915 65.536C51.1429 65.4542 51.1801 65.3642 51.2015 65.27L51.6455 62.546L52.2575 62.218L54.7715 63.364C54.9792 63.4444 55.2103 63.4393 55.4142 63.3497C55.6182 63.2601 55.7783 63.0934 55.8595 62.886C55.894 62.7945 55.913 62.6978 55.9155 62.6L55.8195 59.832L56.3495 59.396L59.0435 60.03C59.2628 60.0684 59.4884 60.0185 59.6709 59.891C59.8534 59.7636 59.978 59.5691 60.0175 59.35C60.0335 59.2533 60.0335 59.1547 60.0175 59.058L59.3995 56.366L59.8355 55.834L62.6015 55.93C62.8245 55.9242 63.0361 55.8302 63.1898 55.6686C63.3436 55.507 63.4269 55.291 63.4215 55.068C63.4203 54.9707 63.4013 54.8745 63.3655 54.784L62.2195 52.27L62.5475 51.656L65.2735 51.212C65.4903 51.1632 65.679 51.0307 65.7985 50.8434C65.918 50.6561 65.9586 50.4292 65.9115 50.212C65.8897 50.1163 65.8519 50.025 65.7995 49.942L64.1875 47.702L64.3875 47.034L66.9735 46.068C67.0746 46.0235 67.1658 45.9596 67.2421 45.8798C67.3184 45.8 67.3782 45.706 67.4182 45.6031C67.4581 45.5002 67.4774 45.3905 67.4748 45.2801C67.4723 45.1698 67.4481 45.061 67.4035 44.96C67.3643 44.8704 67.3094 44.7885 67.2415 44.718L65.2195 42.832L65.2855 42.146L67.6395 40.69C67.7497 40.6123 67.8396 40.5092 67.9017 40.3895C67.9637 40.2697 67.9961 40.1369 67.9961 40.002C67.9961 39.8672 67.9637 39.7343 67.9017 39.6146C67.8396 39.4948 67.7497 39.3918 67.6395 39.314L65.2875 37.856Z" fill="url(#paint0_radial_388_9911)"/>
<defs>
<radialGradient id="paint0_radial_388_9911" cx="0" cy="0" r="1" gradientUnits="userSpaceOnUse" gradientTransform="translate(40.0289 40.6738) rotate(-30.0007) scale(27.9954 16.8069)">
<stop stop-color="#7D7D7D"/>
<stop offset="0.267" stop-color="#7E7C7A"/>
<stop offset="0.45" stop-color="#817871"/>
<stop offset="0.608" stop-color="#867162"/>
<stop offset="0.753" stop-color="#8D684C"/>
<stop offset="0.886" stop-color="#965C30"/>
<stop offset="1" stop-color="#A04F12"/>
</radialGradient>
</defs>
</svg>
