<svg width="80" height="76" viewBox="0 0 80 76" fill="none" xmlns="http://www.w3.org/2000/svg">
<path d="M25.1242 36.605C29.9002 38.1788 34.9387 38.9364 40.0002 38.8419C45.0618 38.9358 50.1003 38.1776 54.8762 36.6031C58.6042 35.24 59.9262 33.725 59.9262 32.8531V26.1875C58.6228 27.0058 57.2245 27.6826 55.7582 28.205C50.7051 29.9013 45.3668 30.7283 40.0002 30.6463C34.6341 30.7268 29.2963 29.9011 24.2422 28.2088C22.7752 27.6863 21.3767 27.0082 20.0742 26.1875V32.8438C20.0742 33.7325 21.4002 35.24 25.1242 36.605Z" fill="#3689D1"/>
<path d="M25.1242 49.1769C26.8114 49.7801 28.5513 50.245 30.3242 50.5663C33.5123 51.1445 36.7531 51.4289 40.0002 51.4156C43.2473 51.4296 46.4881 51.1457 49.6762 50.5681C51.4491 50.2468 53.189 49.782 54.8762 49.1788C58.6042 47.8156 59.9262 46.3006 59.9262 45.4288V39.0725C58.8488 39.6803 57.7165 40.1979 56.5422 40.6194C51.2338 42.3814 45.6306 43.2344 40.0002 43.1375C34.3692 43.2314 28.766 42.3753 23.4582 40.61C22.2845 40.1875 21.1522 39.6699 20.0742 39.0631V45.425C20.0742 46.2988 21.4002 47.8081 25.1242 49.1769Z" fill="#3689D1"/>
<path d="M40.0002 64.25C51.0002 64.25 59.9262 60.98 59.9262 56.9487V51.6293C58.9461 52.1832 57.9194 52.6611 56.8562 53.0581L56.5422 53.1762C51.2348 54.9435 45.6316 55.8015 40.0002 55.7093C34.3686 55.8042 28.7649 54.9461 23.4582 53.1762C23.3502 53.1387 23.2462 53.0956 23.1442 53.0581C22.0811 52.6611 21.0543 52.1832 20.0742 51.6293V56.9487C20.0742 60.98 29.0002 64.25 40.0002 64.25Z" fill="#3689D1"/>
<path d="M40.0002 26.3525C51.005 26.3525 59.9262 23.0836 59.9262 19.0513C59.9262 15.0189 51.005 11.75 40.0002 11.75C28.9954 11.75 20.0742 15.0189 20.0742 19.0513C20.0742 23.0836 28.9954 26.3525 40.0002 26.3525Z" fill="#3689D1"/>
</svg>
