<svg width="80" height="80" viewBox="0 0 80 80" fill="none" xmlns="http://www.w3.org/2000/svg">
<path d="M46.4163 17.5131C46.4163 17.5131 58.0731 24.1769 61.1238 34.7631C63.8725 44.3256 61.6713 48.8894 61.6713 48.8894C63.077 50.421 64.1847 52.2015 64.9375 54.1394C65.6936 55.3845 66.1379 56.7938 66.2326 58.2474C66.3273 59.7011 66.0695 61.1561 65.4813 62.4887C65.4813 62.4887 65.2937 58.5887 59.4812 57.7806C54.1544 57.0306 52.2175 62.2169 42.0438 61.9656C36.4067 61.8582 30.8816 60.3735 25.9499 57.641C21.0183 54.9085 16.8299 51.0112 13.75 46.2887C18.7206 49 25.2325 53.2094 33.3419 52.5625C41.4513 51.9156 43.1444 49.4237 43.1444 49.4237C34.0291 42.2106 25.9606 33.7654 19.1706 24.3306C25.5456 29.665 41.3369 40.2812 40.9694 40.0112C35.1932 34.3672 29.9085 28.2413 25.1725 21.7C25.1725 21.7 48.865 41.1794 50.7719 41.0556C51.5556 39.4412 55.6075 31.0844 46.4144 17.5112L46.4163 17.5131Z" fill="url(#gradient)"/>
<defs>
<linearGradient id="gradient" x1="40.825" y1="35.5131" x2="39.8338" y2="62.5113" gradientUnits="userSpaceOnUse">
<stop stop-color="#F88535"/>
<stop offset="1" stop-color="#FD2221"/>
</linearGradient>
</defs>
</svg>
