<svg width="80" height="80" viewBox="0 0 80 80" fill="none" xmlns="http://www.w3.org/2000/svg">
<path d="M8 40V72H72V8H8V40ZM59.572 37.448C61.1063 37.8092 62.5007 38.6132 63.582 39.76C64.166 40.384 65.04 41.53 65.114 41.812C65.134 41.896 62.354 43.76 60.666 44.802C60.604 44.844 60.354 44.584 60.082 44.176C59.26 42.978 58.394 42.458 57.072 42.364C55.134 42.238 53.884 43.25 53.894 44.948C53.8838 45.3635 53.9766 45.775 54.164 46.146C54.592 47.032 55.394 47.562 57.872 48.636C62.456 50.604 64.414 51.906 65.632 53.75C66.996 55.812 67.298 59.104 66.382 61.562C65.362 64.218 62.84 66.03 59.298 66.624C58.204 66.822 55.6 66.79 54.422 66.572C51.85 66.114 49.412 64.842 47.912 63.176C47.318 62.53 46.172 60.832 46.246 60.718C46.278 60.676 46.538 60.51 46.83 60.342L49.206 58.966L51.05 57.894L51.436 58.466C51.978 59.288 53.154 60.414 53.864 60.788C55.906 61.872 58.708 61.716 60.094 60.476C60.656 60.008 60.97 59.288 60.928 58.56C60.928 57.82 60.834 57.488 60.448 56.934C59.948 56.226 58.938 55.622 56.052 54.372C52.75 52.944 51.322 52.07 50.032 50.664C49.2199 49.7386 48.6193 48.6472 48.272 47.466C48.032 46.56 47.97 44.288 48.158 43.382C48.836 40.184 51.252 37.966 54.72 37.31C55.846 37.092 58.47 37.174 59.574 37.446L59.572 37.448ZM44.552 40.126L44.572 42.74H36.238V66.418H30.342V42.74H22.02V40.178C22.02 38.75 22.052 37.564 22.092 37.532C22.124 37.49 27.186 37.47 33.332 37.48L44.52 37.512L44.552 40.126Z" fill="#007ACC"/>
</svg>
