<svg width="80" height="80" viewBox="0 0 80 80" fill="none" xmlns="http://www.w3.org/2000/svg">
<g clip-path="url(#clip0_394:17106)">
<path d="M39.9491 54.6629C53.2234 72.7586 66.2141 49.6122 66.1949 35.6926C66.1727 19.2357 49.4922 10.0379 39.9384 10.0379C24.6037 10.0377 10 22.7111 10 40.0511C10 59.3247 26.7402 70.0004 39.9384 70.0004C36.9517 69.5704 26.9985 67.4378 26.8649 44.5129C26.7747 29.008 31.9227 22.8132 39.9168 25.5383C40.0959 25.6047 48.7345 29.0125 48.7345 40.1446C48.7345 51.2296 39.9491 54.6627 39.9491 54.6627V54.6629Z" fill="url(#paint0_linear_394:17106)"/>
<path d="M39.9337 25.5252C31.1624 22.502 20.4175 29.7313 20.4175 44.211C20.4175 67.8541 37.9377 70 40.0616 70C55.3963 70 70 57.3264 70 39.9866C70 20.713 53.2598 10.0373 40.0616 10.0373C43.7172 9.53102 59.7644 13.9935 59.7644 35.9259C59.7644 50.2288 47.7822 58.0152 39.9887 54.6885C39.8097 54.6222 31.1708 51.2144 31.1708 40.0823C31.1708 28.997 39.9337 25.5252 39.9337 25.5252Z" fill="url(#paint1_linear_394:17106)"/>
</g>
<defs>
<linearGradient id="paint0_linear_394:17106" x1="18.8737" y1="18.8746" x2="63.6933" y2="58.2384" gradientUnits="userSpaceOnUse">
<stop/>
<stop offset="1" stop-color="white"/>
</linearGradient>
<linearGradient id="paint1_linear_394:17106" x1="61.1426" y1="61.1422" x2="12.6319" y2="28.0147" gradientUnits="userSpaceOnUse">
<stop/>
<stop offset="1" stop-color="white"/>
</linearGradient>
<clipPath id="clip0_394:17106">
<rect width="60" height="60" fill="white" transform="translate(10 10)"/>
</clipPath>
</defs>
</svg>
