<svg width="80" height="80" viewBox="0 0 80 80" xmlns="http://www.w3.org/2000/svg">
<path d="M27.4781 33.0435L23.3043 39.1652L19.1303 33.0435V30.2609H16.3477V33.0435L21.9129 41.3913V49.7391H24.6955V41.3913L30.2607 33.0435V30.2609H27.4781V33.0435Z"/>
<path d="M44.1739 30.2609L40.0001 38.6087L35.8261 30.2609H34.4348H33.0435V49.7391H35.8261V35.8261L38.6087 41.3913H40.0001H41.3913L44.1739 35.8261V49.7391H46.9565V30.2609H45.5653H44.1739Z"/>
<path d="M52.5219 30.2609H49.7393V49.7391H63.6523V46.9565H52.5219V30.2609Z"/>
<path d="M63.6522 21.913H16.3478C11.6173 21.913 8 25.5303 8 30.2609V49.7391C8 54.4696 11.6173 58.0869 16.3478 58.0869H63.6522C68.3827 58.0869 72 54.4696 72 49.7391V30.2609C72 25.5303 68.3827 21.913 63.6522 21.913ZM69.2174 49.7391C69.2174 52.7999 66.713 55.3043 63.6522 55.3043H16.3478C13.2869 55.3043 10.7826 52.7999 10.7826 49.7391V30.2609C10.7826 27.1999 13.2869 24.6956 16.3478 24.6956H63.6522C66.713 24.6956 69.2174 27.1999 69.2174 30.2609V49.7391Z"/>
</svg>
