<svg width="80" height="80" viewBox="0 0 80 80" fill="none" xmlns="http://www.w3.org/2000/svg">
<path d="M27.4781 33.0435L23.3043 39.1652L19.1303 33.0435V30.2609H16.3477V33.0435L21.9129 41.3913V49.7392H24.6955V41.3913L30.2607 33.0435V30.2609H27.4781V33.0435Z" fill="#1A1A1A"/>
<path d="M44.1739 30.2609L40.0001 38.6087L35.8261 30.2609H34.4348H33.0435V49.7392H35.8261V35.8261L38.6087 41.3913H40.0001H41.3913L44.1739 35.8261V49.7392H46.9565V30.2609H45.5653H44.1739Z" fill="#1A1A1A"/>
<path d="M52.5219 30.2609H49.7393V49.7392H63.6523V46.9565H52.5219V30.2609Z" fill="#1A1A1A"/>
<path d="M63.6522 21.9131H16.3478C11.6173 21.9131 8 25.5304 8 30.2609V49.7391C8 54.4697 11.6173 58.087 16.3478 58.087H63.6522C68.3827 58.087 72 54.4697 72 49.7391V30.2609C72 25.5304 68.3827 21.9131 63.6522 21.9131ZM69.2174 49.7391C69.2174 52.7999 66.713 55.3044 63.6522 55.3044H16.3478C13.2869 55.3044 10.7826 52.7999 10.7826 49.7391V30.2609C10.7826 27.1999 13.2869 24.6957 16.3478 24.6957H63.6522C66.713 24.6957 69.2174 27.1999 69.2174 30.2609V49.7391Z" fill="#1A1A1A"/>
</svg>
