<svg width="440" height="384" viewBox="0 0 440 384" fill="none" xmlns="http://www.w3.org/2000/svg">
<path d="M72.5 8.43262C72.5 4.01434 76.0817 0.432617 80.5 0.432617H359.5C363.918 0.432617 367.5 4.01434 367.5 8.43262V56.4326H72.5V8.43262Z" fill="#1A1A1A"/>
<g clip-path="url(#clip0_1508_21499)">
<path fill-rule="evenodd" clip-rule="evenodd" d="M92.5 36.4326C96.9183 36.4326 100.5 32.8509 100.5 28.4326C100.5 24.0143 96.9183 20.4326 92.5 20.4326C88.0817 20.4326 84.5 24.0143 84.5 28.4326C84.5 32.8509 88.0817 36.4326 92.5 36.4326Z" fill="#FF4A4A"/>
<path fill-rule="evenodd" clip-rule="evenodd" d="M116.5 36.4326C120.918 36.4326 124.5 32.8509 124.5 28.4326C124.5 24.0143 120.918 20.4326 116.5 20.4326C112.082 20.4326 108.5 24.0143 108.5 28.4326C108.5 32.8509 112.082 36.4326 116.5 36.4326Z" fill="#FFB83D"/>
<path fill-rule="evenodd" clip-rule="evenodd" d="M140.5 36.4326C144.918 36.4326 148.5 32.8509 148.5 28.4326C148.5 24.0143 144.918 20.4326 140.5 20.4326C136.082 20.4326 132.5 24.0143 132.5 28.4326C132.5 32.8509 136.082 36.4326 140.5 36.4326Z" fill="#00C543"/>
</g>
<path opacity="0.85" fill-rule="evenodd" clip-rule="evenodd" d="M168.5 12.4326C166.291 12.4326 164.5 14.2235 164.5 16.4326V40.4326C164.5 42.6418 166.291 44.4326 168.5 44.4326H339.5C341.709 44.4326 343.5 42.6418 343.5 40.4326V16.4326C343.5 14.2235 341.709 12.4326 339.5 12.4326H168.5Z" fill="#383838"/>
<path d="M72.5 56.4326H367.5V214.433C367.5 218.851 363.918 222.433 359.5 222.433H80.5C76.0817 222.433 72.5 218.851 72.5 214.433V56.4326Z" fill="#300623"/>
<g filter="url(#filter0_dddddd_1508_21499)">
<rect x="80.5" y="75.4326" width="279" height="128" rx="8" fill="#282C34"/>
<path d="M98.082 102.442H99.9219V95.833L97.7188 96.8936V95.7568L99.9102 94.7139H101.094V102.442H102.91V103.433H98.082V102.442ZM98.6855 118.437H102.705V119.433H97.3906V118.437C98.1211 117.667 98.7598 116.987 99.3066 116.397C99.8535 115.808 100.23 115.392 100.438 115.149C100.828 114.673 101.092 114.288 101.229 113.995C101.365 113.698 101.434 113.396 101.434 113.087C101.434 112.599 101.289 112.216 101 111.938C100.715 111.661 100.322 111.522 99.8223 111.522C99.4668 111.522 99.0938 111.587 98.7031 111.716C98.3125 111.845 97.8984 112.04 97.4609 112.302V111.106C97.8633 110.915 98.2578 110.771 98.6445 110.673C99.0352 110.575 99.4199 110.526 99.7988 110.526C100.654 110.526 101.342 110.755 101.861 111.212C102.385 111.665 102.646 112.261 102.646 112.999C102.646 113.374 102.559 113.749 102.383 114.124C102.211 114.499 101.93 114.913 101.539 115.366C101.32 115.62 101.002 115.972 100.584 116.421C100.17 116.87 99.5371 117.542 98.6855 118.437ZM101.047 146.751C101.621 146.903 102.061 147.175 102.365 147.565C102.67 147.952 102.822 148.437 102.822 149.019C102.822 149.823 102.551 150.456 102.008 150.917C101.469 151.374 100.721 151.603 99.7637 151.603C99.3613 151.603 98.9512 151.565 98.5332 151.491C98.1152 151.417 97.7051 151.31 97.3027 151.169V149.991C97.7012 150.198 98.0938 150.353 98.4805 150.454C98.8672 150.556 99.252 150.606 99.6348 150.606C100.283 150.606 100.781 150.46 101.129 150.167C101.477 149.874 101.65 149.452 101.65 148.901C101.65 148.394 101.477 147.991 101.129 147.694C100.781 147.394 100.311 147.243 99.7168 147.243H98.8145V146.271H99.7168C100.26 146.271 100.684 146.151 100.988 145.913C101.293 145.675 101.445 145.343 101.445 144.917C101.445 144.468 101.303 144.124 101.018 143.886C100.736 143.644 100.334 143.522 99.8105 143.522C99.4629 143.522 99.1035 143.562 98.7324 143.64C98.3613 143.718 97.9727 143.835 97.5664 143.991V142.901C98.0391 142.776 98.459 142.683 98.8262 142.62C99.1973 142.558 99.5254 142.526 99.8105 142.526C100.662 142.526 101.342 142.741 101.85 143.171C102.361 143.597 102.617 144.163 102.617 144.87C102.617 145.351 102.482 145.751 102.213 146.071C101.947 146.392 101.559 146.618 101.047 146.751ZM100.807 159.763L98.0469 164.386H100.807V159.763ZM100.613 158.685H101.984V164.386H103.15V165.347H101.984V167.433H100.807V165.347H97.0977V164.228L100.613 158.685ZM97.7129 174.685H102.143V175.681H98.791V177.831C98.959 177.769 99.127 177.724 99.2949 177.696C99.4668 177.665 99.6387 177.649 99.8105 177.649C100.717 177.649 101.436 177.917 101.967 178.452C102.498 178.987 102.764 179.712 102.764 180.626C102.764 181.548 102.484 182.274 101.926 182.806C101.371 183.337 100.611 183.603 99.6465 183.603C99.1816 183.603 98.7559 183.571 98.3691 183.509C97.9863 183.446 97.6426 183.353 97.3379 183.228V182.026C97.6973 182.222 98.0586 182.368 98.4219 182.466C98.7852 182.56 99.1562 182.606 99.5352 182.606C100.188 182.606 100.689 182.435 101.041 182.091C101.396 181.747 101.574 181.259 101.574 180.626C101.574 180.001 101.391 179.515 101.023 179.167C100.66 178.819 100.152 178.646 99.5 178.646C99.1836 178.646 98.875 178.683 98.5742 178.757C98.2734 178.827 97.9863 178.935 97.7129 179.079V174.685Z" fill="white" fill-opacity="0.3"/>
<path d="M110.812 96.8936H113.572V102.595H115.711V103.433H110.355V102.595H112.494V97.7314H110.812V96.8936ZM112.494 94.3447H113.572V95.7041H112.494V94.3447ZM119.152 97.5381C119.285 97.2568 119.453 97.0498 119.656 96.917C119.863 96.7803 120.111 96.7119 120.4 96.7119C120.928 96.7119 121.299 96.917 121.514 97.3271C121.732 97.7334 121.842 98.501 121.842 99.6299V103.433H120.857V99.6768C120.857 98.751 120.805 98.1768 120.699 97.9541C120.598 97.7275 120.41 97.6143 120.137 97.6143C119.824 97.6143 119.609 97.7354 119.492 97.9775C119.379 98.2158 119.322 98.7822 119.322 99.6768V103.433H118.338V99.6768C118.338 98.7393 118.281 98.1611 118.168 97.9424C118.059 97.7236 117.859 97.6143 117.57 97.6143C117.285 97.6143 117.086 97.7354 116.973 97.9775C116.863 98.2158 116.809 98.7822 116.809 99.6768V103.433H115.83V96.8701H116.809V97.4326C116.938 97.1982 117.098 97.0205 117.289 96.8994C117.484 96.7744 117.705 96.7119 117.951 96.7119C118.248 96.7119 118.494 96.7803 118.689 96.917C118.889 97.0537 119.043 97.2607 119.152 97.5381ZM123.619 102.606V105.929H122.535V96.8701H123.619V97.708C123.799 97.3838 124.037 97.1377 124.334 96.9697C124.635 96.7979 124.98 96.7119 125.371 96.7119C126.164 96.7119 126.785 97.0186 127.234 97.6318C127.688 98.2451 127.914 99.0947 127.914 100.181C127.914 101.247 127.688 102.085 127.234 102.694C126.781 103.3 126.16 103.603 125.371 103.603C124.973 103.603 124.623 103.519 124.322 103.351C124.025 103.179 123.791 102.931 123.619 102.606ZM126.783 100.157C126.783 99.3213 126.65 98.6904 126.385 98.2646C126.123 97.8389 125.732 97.626 125.213 97.626C124.689 97.626 124.293 97.8408 124.023 98.2705C123.754 98.6963 123.619 99.3252 123.619 100.157C123.619 100.985 123.754 101.614 124.023 102.044C124.293 102.474 124.689 102.688 125.213 102.688C125.732 102.688 126.123 102.476 126.385 102.05C126.65 101.624 126.783 100.993 126.783 100.157ZM131.262 97.626C130.715 97.626 130.301 97.8389 130.02 98.2646C129.738 98.6904 129.598 99.3213 129.598 100.157C129.598 100.989 129.738 101.62 130.02 102.05C130.301 102.476 130.715 102.688 131.262 102.688C131.812 102.688 132.229 102.476 132.51 102.05C132.791 101.62 132.932 100.989 132.932 100.157C132.932 99.3213 132.791 98.6904 132.51 98.2646C132.229 97.8389 131.812 97.626 131.262 97.626ZM131.262 96.7119C132.172 96.7119 132.867 97.0068 133.348 97.5967C133.832 98.1865 134.074 99.04 134.074 100.157C134.074 101.278 133.834 102.134 133.354 102.724C132.873 103.31 132.176 103.603 131.262 103.603C130.352 103.603 129.656 103.31 129.176 102.724C128.695 102.134 128.455 101.278 128.455 100.157C128.455 99.04 128.695 98.1865 129.176 97.5967C129.656 97.0068 130.352 96.7119 131.262 96.7119ZM140.65 98.2236C140.42 98.0439 140.186 97.9131 139.947 97.8311C139.709 97.749 139.447 97.708 139.162 97.708C138.49 97.708 137.977 97.9189 137.621 98.3408C137.266 98.7627 137.088 99.3721 137.088 100.169V103.433H136.004V96.8701H137.088V98.1533C137.268 97.6885 137.543 97.333 137.914 97.0869C138.289 96.8369 138.732 96.7119 139.244 96.7119C139.51 96.7119 139.758 96.7451 139.988 96.8115C140.219 96.8779 140.439 96.9814 140.65 97.1221V98.2236ZM143.711 95.0068V96.8701H146.16V97.708H143.711V101.271C143.711 101.755 143.803 102.093 143.986 102.284C144.17 102.476 144.49 102.571 144.947 102.571H146.16V103.433H144.842C144.033 103.433 143.463 103.271 143.131 102.946C142.799 102.622 142.633 102.063 142.633 101.271V97.708H140.881V96.8701H142.633V95.0068H143.711ZM108.961 112.87H110.027L111.17 118.173L112.107 114.786H113.027L113.977 118.173L115.119 112.87H116.186L114.65 119.433H113.619L112.57 115.835L111.527 119.433H110.496L108.961 112.87ZM117.043 112.894H119.803V118.595H121.941V119.433H116.586V118.595H118.725V113.731H117.043V112.894ZM118.725 110.345H119.803V111.704H118.725V110.345ZM125.02 111.007V112.87H127.469V113.708H125.02V117.271C125.02 117.755 125.111 118.093 125.295 118.284C125.479 118.476 125.799 118.571 126.256 118.571H127.469V119.433H126.15C125.342 119.433 124.771 119.271 124.439 118.946C124.107 118.622 123.941 118.063 123.941 117.271V113.708H122.189V112.87H123.941V111.007H125.02ZM133.811 115.366V119.433H132.727V115.366C132.727 114.776 132.623 114.343 132.416 114.065C132.209 113.788 131.885 113.649 131.443 113.649C130.939 113.649 130.551 113.829 130.277 114.188C130.008 114.544 129.873 115.056 129.873 115.724V119.433H128.795V110.315H129.873V113.854C130.064 113.479 130.324 113.196 130.652 113.005C130.98 112.81 131.369 112.712 131.818 112.712C132.486 112.712 132.984 112.933 133.312 113.374C133.645 113.812 133.811 114.476 133.811 115.366ZM143.723 113.626C143.176 113.626 142.762 113.839 142.48 114.265C142.199 114.69 142.059 115.321 142.059 116.157C142.059 116.989 142.199 117.62 142.48 118.05C142.762 118.476 143.176 118.688 143.723 118.688C144.273 118.688 144.689 118.476 144.971 118.05C145.252 117.62 145.393 116.989 145.393 116.157C145.393 115.321 145.252 114.69 144.971 114.265C144.689 113.839 144.273 113.626 143.723 113.626ZM143.723 112.712C144.633 112.712 145.328 113.007 145.809 113.597C146.293 114.187 146.535 115.04 146.535 116.157C146.535 117.278 146.295 118.134 145.814 118.724C145.334 119.31 144.637 119.603 143.723 119.603C142.812 119.603 142.117 119.31 141.637 118.724C141.156 118.134 140.916 117.278 140.916 116.157C140.916 115.04 141.156 114.187 141.637 113.597C142.117 113.007 142.812 112.712 143.723 112.712ZM148.541 118.606V121.929H147.457V112.87H148.541V113.708C148.721 113.384 148.959 113.138 149.256 112.97C149.557 112.798 149.902 112.712 150.293 112.712C151.086 112.712 151.707 113.019 152.156 113.632C152.609 114.245 152.836 115.095 152.836 116.181C152.836 117.247 152.609 118.085 152.156 118.694C151.703 119.3 151.082 119.603 150.293 119.603C149.895 119.603 149.545 119.519 149.244 119.351C148.947 119.179 148.713 118.931 148.541 118.606ZM151.705 116.157C151.705 115.321 151.572 114.69 151.307 114.265C151.045 113.839 150.654 113.626 150.135 113.626C149.611 113.626 149.215 113.841 148.945 114.271C148.676 114.696 148.541 115.325 148.541 116.157C148.541 116.985 148.676 117.614 148.945 118.044C149.215 118.474 149.611 118.688 150.135 118.688C150.654 118.688 151.045 118.476 151.307 118.05C151.572 117.624 151.705 116.993 151.705 116.157ZM159.137 115.612V116.14H154.467V116.175C154.436 117.069 154.605 117.712 154.977 118.103C155.352 118.493 155.879 118.688 156.559 118.688C156.902 118.688 157.262 118.634 157.637 118.524C158.012 118.415 158.412 118.249 158.838 118.026V119.099C158.428 119.267 158.031 119.392 157.648 119.474C157.27 119.56 156.902 119.603 156.547 119.603C155.527 119.603 154.73 119.298 154.156 118.688C153.582 118.075 153.295 117.231 153.295 116.157C153.295 115.11 153.576 114.274 154.139 113.649C154.701 113.024 155.451 112.712 156.389 112.712C157.225 112.712 157.883 112.995 158.363 113.562C158.848 114.128 159.105 114.812 159.137 115.612ZM158.059 115.296C158.012 114.843 157.846 114.452 157.561 114.124C157.279 113.792 156.873 113.626 156.342 113.626C155.822 113.626 155.395 113.798 155.059 114.142C154.723 114.485 154.539 114.872 154.508 115.302L158.059 115.296ZM164.963 115.366V119.433H163.879V115.366C163.879 114.776 163.775 114.343 163.568 114.065C163.361 113.788 163.037 113.649 162.596 113.649C162.092 113.649 161.703 113.829 161.43 114.188C161.16 114.544 161.025 115.056 161.025 115.724V119.433H159.947V112.87H161.025V113.854C161.217 113.479 161.477 113.196 161.805 113.005C162.133 112.81 162.521 112.712 162.971 112.712C163.639 112.712 164.137 112.933 164.465 113.374C164.797 113.812 164.963 114.476 164.963 115.366ZM268.824 116.351C268.184 116.351 267.736 116.433 267.482 116.597C267.229 116.761 267.102 117.042 267.102 117.44C267.102 117.737 267.189 117.974 267.365 118.149C267.541 118.325 267.779 118.413 268.08 118.413C268.533 118.413 268.885 118.243 269.135 117.903C269.385 117.56 269.51 117.081 269.51 116.468V116.351H268.824ZM271.215 115.688V119.433H269.51V118.7C269.303 118.989 269.037 119.212 268.713 119.368C268.389 119.524 268.031 119.603 267.641 119.603C266.895 119.603 266.312 119.405 265.895 119.011C265.48 118.616 265.273 118.065 265.273 117.358C265.273 116.593 265.521 116.028 266.018 115.665C266.514 115.298 267.281 115.114 268.32 115.114H269.51V114.827C269.51 114.55 269.408 114.341 269.205 114.2C269.006 114.056 268.711 113.983 268.32 113.983C267.91 113.983 267.512 114.036 267.125 114.142C266.742 114.243 266.342 114.407 265.924 114.634V113.169C266.303 113.013 266.688 112.897 267.078 112.823C267.469 112.749 267.883 112.712 268.32 112.712C269.387 112.712 270.135 112.929 270.564 113.362C270.998 113.796 271.215 114.571 271.215 115.688ZM276.76 113.075V114.575C276.443 114.372 276.113 114.22 275.77 114.118C275.43 114.013 275.088 113.96 274.744 113.96C274.361 113.96 274.072 114.017 273.877 114.13C273.682 114.239 273.584 114.403 273.584 114.622C273.584 114.935 274.002 115.188 274.838 115.384L274.902 115.401L275.395 115.519C276.02 115.667 276.477 115.907 276.766 116.239C277.059 116.567 277.205 117.013 277.205 117.575C277.205 118.251 276.982 118.759 276.537 119.099C276.096 119.435 275.43 119.603 274.539 119.603C274.145 119.603 273.74 119.567 273.326 119.497C272.912 119.431 272.492 119.329 272.066 119.192V117.692C272.445 117.907 272.83 118.071 273.221 118.185C273.615 118.298 273.996 118.354 274.363 118.354C274.766 118.354 275.07 118.296 275.277 118.179C275.484 118.062 275.588 117.892 275.588 117.669C275.588 117.45 275.514 117.282 275.365 117.165C275.221 117.048 274.873 116.923 274.322 116.79L273.848 116.685C273.191 116.536 272.713 116.304 272.412 115.987C272.111 115.671 271.961 115.247 271.961 114.716C271.961 114.083 272.189 113.591 272.646 113.239C273.104 112.888 273.746 112.712 274.574 112.712C274.945 112.712 275.314 112.743 275.682 112.806C276.053 112.864 276.412 112.954 276.76 113.075ZM138.213 160.296V160.87H140.229V162.188H138.213V167.433H136.496V162.188H134.902V160.87H136.496V160.413C136.496 159.624 136.66 159.077 136.988 158.772C137.316 158.468 137.926 158.315 138.816 158.315H140.229V159.634H138.887C138.629 159.634 138.453 159.681 138.359 159.774C138.27 159.868 138.221 160.042 138.213 160.296ZM143.723 162.106C143.312 162.106 142.99 162.288 142.756 162.651C142.521 163.011 142.404 163.513 142.404 164.157C142.404 164.802 142.521 165.306 142.756 165.669C142.99 166.028 143.312 166.208 143.723 166.208C144.137 166.208 144.461 166.028 144.695 165.669C144.93 165.306 145.047 164.802 145.047 164.157C145.047 163.513 144.93 163.011 144.695 162.651C144.461 162.288 144.137 162.106 143.723 162.106ZM140.688 164.157C140.688 163.099 140.961 162.261 141.508 161.644C142.059 161.022 142.797 160.712 143.723 160.712C144.652 160.712 145.391 161.022 145.938 161.644C146.488 162.261 146.764 163.099 146.764 164.157C146.764 165.216 146.488 166.056 145.938 166.677C145.391 167.294 144.652 167.603 143.723 167.603C142.797 167.603 142.059 167.294 141.508 166.677C140.961 166.056 140.688 165.216 140.688 164.157ZM153.088 162.681C152.9 162.509 152.68 162.38 152.426 162.294C152.176 162.208 151.9 162.165 151.6 162.165C151.236 162.165 150.918 162.229 150.645 162.358C150.375 162.483 150.166 162.667 150.018 162.909C149.924 163.058 149.857 163.237 149.818 163.448C149.783 163.659 149.766 163.979 149.766 164.409V167.433H148.049V160.87H149.766V161.89C149.934 161.515 150.191 161.226 150.539 161.022C150.887 160.815 151.293 160.712 151.758 160.712C151.992 160.712 152.221 160.741 152.443 160.8C152.67 160.854 152.885 160.937 153.088 161.046V162.681ZM185.021 160.87H188.42V166.114H190.553V167.433H184.564V166.114H186.703V162.188H185.021V160.87ZM186.703 157.677H188.42V159.681H186.703V157.677ZM196.232 163.173V167.433H194.527V163.437C194.527 162.96 194.459 162.62 194.322 162.417C194.189 162.21 193.971 162.106 193.666 162.106C193.357 162.106 193.113 162.245 192.934 162.522C192.758 162.8 192.67 163.185 192.67 163.677V167.433H190.965V160.87H192.67V161.854C192.791 161.491 192.998 161.21 193.291 161.011C193.584 160.812 193.938 160.712 194.352 160.712C194.973 160.712 195.441 160.919 195.758 161.333C196.074 161.743 196.232 162.356 196.232 163.173ZM148.541 182.606V185.929H147.457V176.87H148.541V177.708C148.721 177.384 148.959 177.138 149.256 176.97C149.557 176.798 149.902 176.712 150.293 176.712C151.086 176.712 151.707 177.019 152.156 177.632C152.609 178.245 152.836 179.095 152.836 180.181C152.836 181.247 152.609 182.085 152.156 182.694C151.703 183.3 151.082 183.603 150.293 183.603C149.895 183.603 149.545 183.519 149.244 183.351C148.947 183.179 148.713 182.931 148.541 182.606ZM151.705 180.157C151.705 179.321 151.572 178.69 151.307 178.265C151.045 177.839 150.654 177.626 150.135 177.626C149.611 177.626 149.215 177.841 148.945 178.271C148.676 178.696 148.541 179.325 148.541 180.157C148.541 180.985 148.676 181.614 148.945 182.044C149.215 182.474 149.611 182.688 150.135 182.688C150.654 182.688 151.045 182.476 151.307 182.05C151.572 181.624 151.705 180.993 151.705 180.157ZM159.342 178.224C159.111 178.044 158.877 177.913 158.639 177.831C158.4 177.749 158.139 177.708 157.854 177.708C157.182 177.708 156.668 177.919 156.312 178.341C155.957 178.763 155.779 179.372 155.779 180.169V183.433H154.695V176.87H155.779V178.153C155.959 177.688 156.234 177.333 156.605 177.087C156.98 176.837 157.424 176.712 157.936 176.712C158.201 176.712 158.449 176.745 158.68 176.812C158.91 176.878 159.131 176.981 159.342 177.122V178.224ZM160.656 176.894H163.416V182.595H165.555V183.433H160.199V182.595H162.338V177.731H160.656V176.894ZM162.338 174.345H163.416V175.704H162.338V174.345ZM171.193 179.366V183.433H170.109V179.366C170.109 178.776 170.006 178.343 169.799 178.065C169.592 177.788 169.268 177.649 168.826 177.649C168.322 177.649 167.934 177.829 167.66 178.188C167.391 178.544 167.256 179.056 167.256 179.724V183.433H166.178V176.87H167.256V177.854C167.447 177.479 167.707 177.196 168.035 177.005C168.363 176.81 168.752 176.712 169.201 176.712C169.869 176.712 170.367 176.933 170.695 177.374C171.027 177.812 171.193 178.476 171.193 179.366ZM174.863 175.007V176.87H177.312V177.708H174.863V181.271C174.863 181.755 174.955 182.093 175.139 182.284C175.322 182.476 175.643 182.571 176.1 182.571H177.312V183.433H175.994C175.186 183.433 174.615 183.271 174.283 182.946C173.951 182.622 173.785 182.063 173.785 181.271V177.708H172.033V176.87H173.785V175.007H174.863ZM188.074 174.304V177.954H186.762V174.304H188.074ZM192.547 181.317H194.375V182.87L193.074 185.396L191.902 185.401L192.547 182.87V181.317ZM206.766 174.304V177.954H205.453V174.304H206.766Z" fill="#00C543"/>
<path d="M170.045 109.741C169.525 110.632 169.137 111.521 168.879 112.407C168.625 113.29 168.498 114.181 168.498 115.079C168.498 115.974 168.625 116.864 168.879 117.751C169.137 118.638 169.525 119.53 170.045 120.429H169.107C168.518 119.499 168.078 118.595 167.789 117.716C167.5 116.833 167.355 115.954 167.355 115.079C167.355 114.208 167.5 113.331 167.789 112.448C168.078 111.565 168.518 110.663 169.107 109.741H170.045ZM254.301 109.741H255.238C255.828 110.663 256.268 111.565 256.557 112.448C256.846 113.331 256.99 114.208 256.99 115.079C256.99 115.958 256.846 116.839 256.557 117.722C256.268 118.604 255.828 119.507 255.238 120.429H254.301C254.82 119.522 255.207 118.626 255.461 117.739C255.719 116.853 255.848 115.966 255.848 115.079C255.848 114.188 255.719 113.3 255.461 112.413C255.207 111.526 254.82 110.636 254.301 109.741ZM121.408 135.099C121.119 135.267 120.82 135.392 120.512 135.474C120.207 135.56 119.895 135.603 119.574 135.603C118.559 135.603 117.764 135.298 117.189 134.688C116.619 134.079 116.334 133.235 116.334 132.157C116.334 131.079 116.619 130.235 117.189 129.626C117.764 129.017 118.559 128.712 119.574 128.712C119.891 128.712 120.199 128.753 120.5 128.835C120.801 128.917 121.104 129.044 121.408 129.216V130.347C121.123 130.093 120.836 129.909 120.547 129.796C120.262 129.683 119.938 129.626 119.574 129.626C118.898 129.626 118.379 129.845 118.016 130.282C117.652 130.72 117.471 131.345 117.471 132.157C117.471 132.966 117.652 133.591 118.016 134.032C118.383 134.47 118.902 134.688 119.574 134.688C119.949 134.688 120.285 134.632 120.582 134.519C120.879 134.401 121.154 134.222 121.408 133.979V135.099ZM127.123 129.099V130.153C126.814 129.974 126.504 129.839 126.191 129.749C125.879 129.659 125.561 129.614 125.236 129.614C124.748 129.614 124.383 129.694 124.141 129.854C123.902 130.011 123.783 130.251 123.783 130.575C123.783 130.868 123.873 131.087 124.053 131.231C124.232 131.376 124.68 131.517 125.395 131.653L125.828 131.735C126.363 131.837 126.768 132.04 127.041 132.345C127.318 132.649 127.457 133.046 127.457 133.534C127.457 134.183 127.227 134.69 126.766 135.058C126.305 135.421 125.664 135.603 124.844 135.603C124.52 135.603 124.18 135.567 123.824 135.497C123.469 135.431 123.084 135.329 122.67 135.192V134.079C123.072 134.286 123.457 134.442 123.824 134.548C124.191 134.649 124.539 134.7 124.867 134.7C125.344 134.7 125.713 134.604 125.975 134.413C126.236 134.218 126.367 133.946 126.367 133.599C126.367 133.099 125.889 132.753 124.932 132.562L124.885 132.55L124.48 132.468C123.859 132.347 123.406 132.144 123.121 131.858C122.836 131.569 122.693 131.177 122.693 130.681C122.693 130.052 122.906 129.567 123.332 129.228C123.758 128.884 124.365 128.712 125.154 128.712C125.506 128.712 125.844 128.745 126.168 128.812C126.492 128.874 126.811 128.97 127.123 129.099ZM128.238 128.87H129.357L131.262 134.378L133.172 128.87H134.291L131.959 135.433H130.57L128.238 128.87ZM140.111 126.315V127.212H138.887C138.5 127.212 138.23 127.292 138.078 127.452C137.93 127.608 137.855 127.888 137.855 128.29V128.87H140.111V129.708H137.855V135.433H136.777V129.708H135.025V128.87H136.777V128.413C136.777 127.694 136.941 127.165 137.27 126.825C137.602 126.485 138.117 126.315 138.816 126.315H140.111ZM141.965 128.894H144.725V134.595H146.863V135.433H141.508V134.595H143.646V129.731H141.965V128.894ZM143.646 126.345H144.725V127.704H143.646V126.345ZM150.557 133.06C150.557 133.544 150.645 133.909 150.82 134.155C151 134.401 151.264 134.524 151.611 134.524H152.871V135.433H151.506C150.861 135.433 150.361 135.228 150.006 134.817C149.654 134.403 149.479 133.817 149.479 133.06V127.124H147.75V126.28H150.557V133.06ZM159.137 131.612V132.14H154.467V132.175C154.436 133.069 154.605 133.712 154.977 134.103C155.352 134.493 155.879 134.688 156.559 134.688C156.902 134.688 157.262 134.634 157.637 134.524C158.012 134.415 158.412 134.249 158.838 134.026V135.099C158.428 135.267 158.031 135.392 157.648 135.474C157.27 135.56 156.902 135.603 156.547 135.603C155.527 135.603 154.73 135.298 154.156 134.688C153.582 134.075 153.295 133.231 153.295 132.157C153.295 131.11 153.576 130.274 154.139 129.649C154.701 129.024 155.451 128.712 156.389 128.712C157.225 128.712 157.883 128.995 158.363 129.562C158.848 130.128 159.105 130.812 159.137 131.612ZM158.059 131.296C158.012 130.843 157.846 130.452 157.561 130.124C157.279 129.792 156.873 129.626 156.342 129.626C155.822 129.626 155.395 129.798 155.059 130.142C154.723 130.485 154.539 130.872 154.508 131.302L158.059 131.296ZM161.318 128.876H163.146V130.991H161.318V128.876ZM161.318 133.3H163.146V135.433H161.318V133.3ZM121.408 151.099C121.119 151.267 120.82 151.392 120.512 151.474C120.207 151.56 119.895 151.603 119.574 151.603C118.559 151.603 117.764 151.298 117.189 150.688C116.619 150.079 116.334 149.235 116.334 148.157C116.334 147.079 116.619 146.235 117.189 145.626C117.764 145.017 118.559 144.712 119.574 144.712C119.891 144.712 120.199 144.753 120.5 144.835C120.801 144.917 121.104 145.044 121.408 145.216V146.347C121.123 146.093 120.836 145.909 120.547 145.796C120.262 145.683 119.938 145.626 119.574 145.626C118.898 145.626 118.379 145.845 118.016 146.282C117.652 146.72 117.471 147.345 117.471 148.157C117.471 148.966 117.652 149.591 118.016 150.032C118.383 150.47 118.902 150.688 119.574 150.688C119.949 150.688 120.285 150.632 120.582 150.519C120.879 150.401 121.154 150.222 121.408 149.979V151.099ZM127.123 145.099V146.153C126.814 145.974 126.504 145.839 126.191 145.749C125.879 145.659 125.561 145.614 125.236 145.614C124.748 145.614 124.383 145.694 124.141 145.854C123.902 146.011 123.783 146.251 123.783 146.575C123.783 146.868 123.873 147.087 124.053 147.231C124.232 147.376 124.68 147.517 125.395 147.653L125.828 147.735C126.363 147.837 126.768 148.04 127.041 148.345C127.318 148.649 127.457 149.046 127.457 149.534C127.457 150.183 127.227 150.69 126.766 151.058C126.305 151.421 125.664 151.603 124.844 151.603C124.52 151.603 124.18 151.567 123.824 151.497C123.469 151.431 123.084 151.329 122.67 151.192V150.079C123.072 150.286 123.457 150.442 123.824 150.548C124.191 150.649 124.539 150.7 124.867 150.7C125.344 150.7 125.713 150.604 125.975 150.413C126.236 150.218 126.367 149.946 126.367 149.599C126.367 149.099 125.889 148.753 124.932 148.562L124.885 148.55L124.48 148.468C123.859 148.347 123.406 148.144 123.121 147.858C122.836 147.569 122.693 147.177 122.693 146.681C122.693 146.052 122.906 145.567 123.332 145.228C123.758 144.884 124.365 144.712 125.154 144.712C125.506 144.712 125.844 144.745 126.168 144.812C126.492 144.874 126.811 144.97 127.123 145.099ZM128.238 144.87H129.357L131.262 150.378L133.172 144.87H134.291L131.959 151.433H130.57L128.238 144.87ZM141.055 152.546V153.542H133.883V152.546H141.055ZM146.881 146.224C146.65 146.044 146.416 145.913 146.178 145.831C145.939 145.749 145.678 145.708 145.393 145.708C144.721 145.708 144.207 145.919 143.852 146.341C143.496 146.763 143.318 147.372 143.318 148.169V151.433H142.234V144.87H143.318V146.153C143.498 145.688 143.773 145.333 144.145 145.087C144.52 144.837 144.963 144.712 145.475 144.712C145.74 144.712 145.988 144.745 146.219 144.812C146.449 144.878 146.67 144.981 146.881 145.122V146.224ZM152.906 147.612V148.14H148.236V148.175C148.205 149.069 148.375 149.712 148.746 150.103C149.121 150.493 149.648 150.688 150.328 150.688C150.672 150.688 151.031 150.634 151.406 150.524C151.781 150.415 152.182 150.249 152.607 150.026V151.099C152.197 151.267 151.801 151.392 151.418 151.474C151.039 151.56 150.672 151.603 150.316 151.603C149.297 151.603 148.5 151.298 147.926 150.688C147.352 150.075 147.064 149.231 147.064 148.157C147.064 147.11 147.346 146.274 147.908 145.649C148.471 145.024 149.221 144.712 150.158 144.712C150.994 144.712 151.652 144.995 152.133 145.562C152.617 146.128 152.875 146.812 152.906 147.612ZM151.828 147.296C151.781 146.843 151.615 146.452 151.33 146.124C151.049 145.792 150.643 145.626 150.111 145.626C149.592 145.626 149.164 145.798 148.828 146.142C148.492 146.485 148.309 146.872 148.277 147.302L151.828 147.296ZM156.688 148.134H156.33C155.701 148.134 155.227 148.245 154.906 148.468C154.59 148.687 154.432 149.015 154.432 149.452C154.432 149.847 154.551 150.153 154.789 150.372C155.027 150.591 155.357 150.7 155.779 150.7C156.373 150.7 156.84 150.495 157.18 150.085C157.52 149.671 157.691 149.101 157.695 148.374V148.134H156.688ZM158.779 147.688V151.433H157.695V150.46C157.465 150.851 157.174 151.14 156.822 151.327C156.475 151.511 156.051 151.603 155.551 151.603C154.883 151.603 154.35 151.415 153.951 151.04C153.553 150.661 153.354 150.155 153.354 149.522C153.354 148.792 153.598 148.237 154.086 147.858C154.578 147.479 155.299 147.29 156.248 147.29H157.695V147.12C157.691 146.597 157.559 146.218 157.297 145.983C157.035 145.745 156.617 145.626 156.043 145.626C155.676 145.626 155.305 145.679 154.93 145.784C154.555 145.89 154.189 146.044 153.834 146.247V145.169C154.232 145.017 154.613 144.903 154.977 144.829C155.344 144.751 155.699 144.712 156.043 144.712C156.586 144.712 157.049 144.792 157.432 144.952C157.818 145.112 158.131 145.353 158.369 145.673C158.518 145.868 158.623 146.11 158.686 146.399C158.748 146.685 158.779 147.114 158.779 147.688ZM163.832 145.708V142.315H164.91V151.433H163.832V150.606C163.652 150.931 163.412 151.179 163.111 151.351C162.814 151.519 162.471 151.603 162.08 151.603C161.287 151.603 160.662 151.296 160.205 150.683C159.752 150.065 159.525 149.216 159.525 148.134C159.525 147.067 159.754 146.231 160.211 145.626C160.668 145.017 161.291 144.712 162.08 144.712C162.475 144.712 162.822 144.798 163.123 144.97C163.424 145.138 163.66 145.384 163.832 145.708ZM160.662 148.157C160.662 148.993 160.795 149.624 161.061 150.05C161.326 150.476 161.719 150.688 162.238 150.688C162.758 150.688 163.152 150.474 163.422 150.044C163.695 149.614 163.832 148.985 163.832 148.157C163.832 147.325 163.695 146.696 163.422 146.271C163.152 145.841 162.758 145.626 162.238 145.626C161.719 145.626 161.326 145.839 161.061 146.265C160.795 146.69 160.662 147.321 160.662 148.157ZM171.598 147.612V148.14H166.928V148.175C166.896 149.069 167.066 149.712 167.438 150.103C167.812 150.493 168.34 150.688 169.02 150.688C169.363 150.688 169.723 150.634 170.098 150.524C170.473 150.415 170.873 150.249 171.299 150.026V151.099C170.889 151.267 170.492 151.392 170.109 151.474C169.73 151.56 169.363 151.603 169.008 151.603C167.988 151.603 167.191 151.298 166.617 150.688C166.043 150.075 165.756 149.231 165.756 148.157C165.756 147.11 166.037 146.274 166.6 145.649C167.162 145.024 167.912 144.712 168.85 144.712C169.686 144.712 170.344 144.995 170.824 145.562C171.309 146.128 171.566 146.812 171.598 147.612ZM170.52 147.296C170.473 146.843 170.307 146.452 170.021 146.124C169.74 145.792 169.334 145.626 168.803 145.626C168.283 145.626 167.855 145.798 167.52 146.142C167.184 146.485 167 146.872 166.969 147.302L170.52 147.296ZM178.033 146.224C177.803 146.044 177.568 145.913 177.33 145.831C177.092 145.749 176.83 145.708 176.545 145.708C175.873 145.708 175.359 145.919 175.004 146.341C174.648 146.763 174.471 147.372 174.471 148.169V151.433H173.387V144.87H174.471V146.153C174.65 145.688 174.926 145.333 175.297 145.087C175.672 144.837 176.115 144.712 176.627 144.712C176.893 144.712 177.141 144.745 177.371 144.812C177.602 144.878 177.822 144.981 178.033 145.122V146.224ZM184.242 148.503H190.436V149.493H184.242V148.503ZM184.242 145.743H190.436V146.733H184.242V145.743ZM202.404 151.099C202.115 151.267 201.816 151.392 201.508 151.474C201.203 151.56 200.891 151.603 200.57 151.603C199.555 151.603 198.76 151.298 198.186 150.688C197.615 150.079 197.33 149.235 197.33 148.157C197.33 147.079 197.615 146.235 198.186 145.626C198.76 145.017 199.555 144.712 200.57 144.712C200.887 144.712 201.195 144.753 201.496 144.835C201.797 144.917 202.1 145.044 202.404 145.216V146.347C202.119 146.093 201.832 145.909 201.543 145.796C201.258 145.683 200.934 145.626 200.57 145.626C199.895 145.626 199.375 145.845 199.012 146.282C198.648 146.72 198.467 147.345 198.467 148.157C198.467 148.966 198.648 149.591 199.012 150.032C199.379 150.47 199.898 150.688 200.57 150.688C200.945 150.688 201.281 150.632 201.578 150.519C201.875 150.401 202.15 150.222 202.404 149.979V151.099ZM208.119 145.099V146.153C207.811 145.974 207.5 145.839 207.188 145.749C206.875 145.659 206.557 145.614 206.232 145.614C205.744 145.614 205.379 145.694 205.137 145.854C204.898 146.011 204.779 146.251 204.779 146.575C204.779 146.868 204.869 147.087 205.049 147.231C205.229 147.376 205.676 147.517 206.391 147.653L206.824 147.735C207.359 147.837 207.764 148.04 208.037 148.345C208.314 148.649 208.453 149.046 208.453 149.534C208.453 150.183 208.223 150.69 207.762 151.058C207.301 151.421 206.66 151.603 205.84 151.603C205.516 151.603 205.176 151.567 204.82 151.497C204.465 151.431 204.08 151.329 203.666 151.192V150.079C204.068 150.286 204.453 150.442 204.82 150.548C205.188 150.649 205.535 150.7 205.863 150.7C206.34 150.7 206.709 150.604 206.971 150.413C207.232 150.218 207.363 149.946 207.363 149.599C207.363 149.099 206.885 148.753 205.928 148.562L205.881 148.55L205.477 148.468C204.855 148.347 204.402 148.144 204.117 147.858C203.832 147.569 203.689 147.177 203.689 146.681C203.689 146.052 203.902 145.567 204.328 145.228C204.754 144.884 205.361 144.712 206.15 144.712C206.502 144.712 206.84 144.745 207.164 144.812C207.488 144.874 207.807 144.97 208.119 145.099ZM209.234 144.87H210.354L212.258 150.378L214.168 144.87H215.287L212.955 151.433H211.566L209.234 144.87ZM217.158 149.065H219.221V151.433H217.158V149.065ZM227.877 146.224C227.646 146.044 227.412 145.913 227.174 145.831C226.936 145.749 226.674 145.708 226.389 145.708C225.717 145.708 225.203 145.919 224.848 146.341C224.492 146.763 224.314 147.372 224.314 148.169V151.433H223.23V144.87H224.314V146.153C224.494 145.688 224.77 145.333 225.141 145.087C225.516 144.837 225.959 144.712 226.471 144.712C226.736 144.712 226.984 144.745 227.215 144.812C227.445 144.878 227.666 144.981 227.877 145.122V146.224ZM233.902 147.612V148.14H229.232V148.175C229.201 149.069 229.371 149.712 229.742 150.103C230.117 150.493 230.645 150.688 231.324 150.688C231.668 150.688 232.027 150.634 232.402 150.524C232.777 150.415 233.178 150.249 233.604 150.026V151.099C233.193 151.267 232.797 151.392 232.414 151.474C232.035 151.56 231.668 151.603 231.312 151.603C230.293 151.603 229.496 151.298 228.922 150.688C228.348 150.075 228.061 149.231 228.061 148.157C228.061 147.11 228.342 146.274 228.904 145.649C229.467 145.024 230.217 144.712 231.154 144.712C231.99 144.712 232.648 144.995 233.129 145.562C233.613 146.128 233.871 146.812 233.902 147.612ZM232.824 147.296C232.777 146.843 232.611 146.452 232.326 146.124C232.045 145.792 231.639 145.626 231.107 145.626C230.588 145.626 230.16 145.798 229.824 146.142C229.488 146.485 229.305 146.872 229.273 147.302L232.824 147.296ZM237.684 148.134H237.326C236.697 148.134 236.223 148.245 235.902 148.468C235.586 148.687 235.428 149.015 235.428 149.452C235.428 149.847 235.547 150.153 235.785 150.372C236.023 150.591 236.354 150.7 236.775 150.7C237.369 150.7 237.836 150.495 238.176 150.085C238.516 149.671 238.688 149.101 238.691 148.374V148.134H237.684ZM239.775 147.688V151.433H238.691V150.46C238.461 150.851 238.17 151.14 237.818 151.327C237.471 151.511 237.047 151.603 236.547 151.603C235.879 151.603 235.346 151.415 234.947 151.04C234.549 150.661 234.35 150.155 234.35 149.522C234.35 148.792 234.594 148.237 235.082 147.858C235.574 147.479 236.295 147.29 237.244 147.29H238.691V147.12C238.688 146.597 238.555 146.218 238.293 145.983C238.031 145.745 237.613 145.626 237.039 145.626C236.672 145.626 236.301 145.679 235.926 145.784C235.551 145.89 235.186 146.044 234.83 146.247V145.169C235.229 145.017 235.609 144.903 235.973 144.829C236.34 144.751 236.695 144.712 237.039 144.712C237.582 144.712 238.045 144.792 238.428 144.952C238.814 145.112 239.127 145.353 239.365 145.673C239.514 145.868 239.619 146.11 239.682 146.399C239.744 146.685 239.775 147.114 239.775 147.688ZM244.828 145.708V142.315H245.906V151.433H244.828V150.606C244.648 150.931 244.408 151.179 244.107 151.351C243.811 151.519 243.467 151.603 243.076 151.603C242.283 151.603 241.658 151.296 241.201 150.683C240.748 150.065 240.521 149.216 240.521 148.134C240.521 147.067 240.75 146.231 241.207 145.626C241.664 145.017 242.287 144.712 243.076 144.712C243.471 144.712 243.818 144.798 244.119 144.97C244.42 145.138 244.656 145.384 244.828 145.708ZM241.658 148.157C241.658 148.993 241.791 149.624 242.057 150.05C242.322 150.476 242.715 150.688 243.234 150.688C243.754 150.688 244.148 150.474 244.418 150.044C244.691 149.614 244.828 148.985 244.828 148.157C244.828 147.325 244.691 146.696 244.418 146.271C244.148 145.841 243.754 145.626 243.234 145.626C242.715 145.626 242.322 145.839 242.057 146.265C241.791 146.69 241.658 147.321 241.658 148.157ZM252.594 147.612V148.14H247.924V148.175C247.893 149.069 248.062 149.712 248.434 150.103C248.809 150.493 249.336 150.688 250.016 150.688C250.359 150.688 250.719 150.634 251.094 150.524C251.469 150.415 251.869 150.249 252.295 150.026V151.099C251.885 151.267 251.488 151.392 251.105 151.474C250.727 151.56 250.359 151.603 250.004 151.603C248.984 151.603 248.188 151.298 247.613 150.688C247.039 150.075 246.752 149.231 246.752 148.157C246.752 147.11 247.033 146.274 247.596 145.649C248.158 145.024 248.908 144.712 249.846 144.712C250.682 144.712 251.34 144.995 251.82 145.562C252.305 146.128 252.562 146.812 252.594 147.612ZM251.516 147.296C251.469 146.843 251.303 146.452 251.018 146.124C250.736 145.792 250.33 145.626 249.799 145.626C249.279 145.626 248.852 145.798 248.516 146.142C248.18 146.485 247.996 146.872 247.965 147.302L251.516 147.296ZM259.029 146.224C258.799 146.044 258.564 145.913 258.326 145.831C258.088 145.749 257.826 145.708 257.541 145.708C256.869 145.708 256.355 145.919 256 146.341C255.645 146.763 255.467 147.372 255.467 148.169V151.433H254.383V144.87H255.467V146.153C255.646 145.688 255.922 145.333 256.293 145.087C256.668 144.837 257.111 144.712 257.623 144.712C257.889 144.712 258.137 144.745 258.367 144.812C258.598 144.878 258.818 144.981 259.029 145.122V146.224ZM263.502 141.741C262.982 142.632 262.594 143.521 262.336 144.407C262.082 145.29 261.955 146.181 261.955 147.079C261.955 147.974 262.082 148.864 262.336 149.751C262.594 150.638 262.982 151.53 263.502 152.429H262.564C261.975 151.499 261.535 150.595 261.246 149.716C260.957 148.833 260.812 147.954 260.812 147.079C260.812 146.208 260.957 145.331 261.246 144.448C261.535 143.565 261.975 142.663 262.564 141.741H263.502ZM270.939 151.099C270.65 151.267 270.352 151.392 270.043 151.474C269.738 151.56 269.426 151.603 269.105 151.603C268.09 151.603 267.295 151.298 266.721 150.688C266.15 150.079 265.865 149.235 265.865 148.157C265.865 147.079 266.15 146.235 266.721 145.626C267.295 145.017 268.09 144.712 269.105 144.712C269.422 144.712 269.73 144.753 270.031 144.835C270.332 144.917 270.635 145.044 270.939 145.216V146.347C270.654 146.093 270.367 145.909 270.078 145.796C269.793 145.683 269.469 145.626 269.105 145.626C268.43 145.626 267.91 145.845 267.547 146.282C267.184 146.72 267.002 147.345 267.002 148.157C267.002 148.966 267.184 149.591 267.547 150.032C267.914 150.47 268.434 150.688 269.105 150.688C269.48 150.688 269.816 150.632 270.113 150.519C270.41 150.401 270.686 150.222 270.939 149.979V151.099ZM276.654 145.099V146.153C276.346 145.974 276.035 145.839 275.723 145.749C275.41 145.659 275.092 145.614 274.768 145.614C274.279 145.614 273.914 145.694 273.672 145.854C273.434 146.011 273.314 146.251 273.314 146.575C273.314 146.868 273.404 147.087 273.584 147.231C273.764 147.376 274.211 147.517 274.926 147.653L275.359 147.735C275.895 147.837 276.299 148.04 276.572 148.345C276.85 148.649 276.988 149.046 276.988 149.534C276.988 150.183 276.758 150.69 276.297 151.058C275.836 151.421 275.195 151.603 274.375 151.603C274.051 151.603 273.711 151.567 273.355 151.497C273 151.431 272.615 151.329 272.201 151.192V150.079C272.604 150.286 272.988 150.442 273.355 150.548C273.723 150.649 274.07 150.7 274.398 150.7C274.875 150.7 275.244 150.604 275.506 150.413C275.768 150.218 275.898 149.946 275.898 149.599C275.898 149.099 275.42 148.753 274.463 148.562L274.416 148.55L274.012 148.468C273.391 148.347 272.938 148.144 272.652 147.858C272.367 147.569 272.225 147.177 272.225 146.681C272.225 146.052 272.438 145.567 272.863 145.228C273.289 144.884 273.896 144.712 274.686 144.712C275.037 144.712 275.375 144.745 275.699 144.812C276.023 144.874 276.342 144.97 276.654 145.099ZM277.77 144.87H278.889L280.793 150.378L282.703 144.87H283.822L281.49 151.433H280.102L277.77 144.87ZM289.643 142.315V143.212H288.418C288.031 143.212 287.762 143.292 287.609 143.452C287.461 143.608 287.387 143.888 287.387 144.29V144.87H289.643V145.708H287.387V151.433H286.309V145.708H284.557V144.87H286.309V144.413C286.309 143.694 286.473 143.165 286.801 142.825C287.133 142.485 287.648 142.315 288.348 142.315H289.643ZM291.496 144.894H294.256V150.595H296.395V151.433H291.039V150.595H293.178V145.731H291.496V144.894ZM293.178 142.345H294.256V143.704H293.178V142.345ZM300.088 149.06C300.088 149.544 300.176 149.909 300.352 150.155C300.531 150.401 300.795 150.524 301.143 150.524H302.402V151.433H301.037C300.393 151.433 299.893 151.228 299.537 150.817C299.186 150.403 299.01 149.817 299.01 149.06V143.124H297.281V142.28H300.088V149.06ZM308.668 147.612V148.14H303.998V148.175C303.967 149.069 304.137 149.712 304.508 150.103C304.883 150.493 305.41 150.688 306.09 150.688C306.434 150.688 306.793 150.634 307.168 150.524C307.543 150.415 307.943 150.249 308.369 150.026V151.099C307.959 151.267 307.562 151.392 307.18 151.474C306.801 151.56 306.434 151.603 306.078 151.603C305.059 151.603 304.262 151.298 303.688 150.688C303.113 150.075 302.826 149.231 302.826 148.157C302.826 147.11 303.107 146.274 303.67 145.649C304.232 145.024 304.982 144.712 305.92 144.712C306.756 144.712 307.414 144.995 307.895 145.562C308.379 146.128 308.637 146.812 308.668 147.612ZM307.59 147.296C307.543 146.843 307.377 146.452 307.092 146.124C306.811 145.792 306.404 145.626 305.873 145.626C305.354 145.626 304.926 145.798 304.59 146.142C304.254 146.485 304.07 146.872 304.039 147.302L307.59 147.296ZM310.375 141.741H311.312C311.902 142.663 312.342 143.565 312.631 144.448C312.92 145.331 313.064 146.208 313.064 147.079C313.064 147.958 312.92 148.839 312.631 149.722C312.342 150.604 311.902 151.507 311.312 152.429H310.375C310.895 151.522 311.281 150.626 311.535 149.739C311.793 148.853 311.922 147.966 311.922 147.079C311.922 146.188 311.793 145.3 311.535 144.413C311.281 143.526 310.895 142.636 310.375 141.741ZM165.572 162.224C165.342 162.044 165.107 161.913 164.869 161.831C164.631 161.749 164.369 161.708 164.084 161.708C163.412 161.708 162.898 161.919 162.543 162.341C162.188 162.763 162.01 163.372 162.01 164.169V167.433H160.926V160.87H162.01V162.153C162.189 161.688 162.465 161.333 162.836 161.087C163.211 160.837 163.654 160.712 164.166 160.712C164.432 160.712 164.68 160.745 164.91 160.812C165.141 160.878 165.361 160.981 165.572 161.122V162.224ZM168.645 161.626C168.098 161.626 167.684 161.839 167.402 162.265C167.121 162.69 166.98 163.321 166.98 164.157C166.98 164.989 167.121 165.62 167.402 166.05C167.684 166.476 168.098 166.688 168.645 166.688C169.195 166.688 169.611 166.476 169.893 166.05C170.174 165.62 170.314 164.989 170.314 164.157C170.314 163.321 170.174 162.69 169.893 162.265C169.611 161.839 169.195 161.626 168.645 161.626ZM168.645 160.712C169.555 160.712 170.25 161.007 170.73 161.597C171.215 162.187 171.457 163.04 171.457 164.157C171.457 165.278 171.217 166.134 170.736 166.724C170.256 167.31 169.559 167.603 168.645 167.603C167.734 167.603 167.039 167.31 166.559 166.724C166.078 166.134 165.838 165.278 165.838 164.157C165.838 163.04 166.078 162.187 166.559 161.597C167.039 161.007 167.734 160.712 168.645 160.712ZM171.266 160.87H172.332L173.475 166.173L174.412 162.786H175.332L176.281 166.173L177.424 160.87H178.49L176.955 167.433H175.924L174.875 163.835L173.832 167.433H172.801L171.266 160.87ZM208.635 167.099C208.346 167.267 208.047 167.392 207.738 167.474C207.434 167.56 207.121 167.603 206.801 167.603C205.785 167.603 204.99 167.298 204.416 166.688C203.846 166.079 203.561 165.235 203.561 164.157C203.561 163.079 203.846 162.235 204.416 161.626C204.99 161.017 205.785 160.712 206.801 160.712C207.117 160.712 207.426 160.753 207.727 160.835C208.027 160.917 208.33 161.044 208.635 161.216V162.347C208.35 162.093 208.062 161.909 207.773 161.796C207.488 161.683 207.164 161.626 206.801 161.626C206.125 161.626 205.605 161.845 205.242 162.282C204.879 162.72 204.697 163.345 204.697 164.157C204.697 164.966 204.879 165.591 205.242 166.032C205.609 166.47 206.129 166.688 206.801 166.688C207.176 166.688 207.512 166.632 207.809 166.519C208.105 166.401 208.381 166.222 208.635 165.979V167.099ZM214.35 161.099V162.153C214.041 161.974 213.73 161.839 213.418 161.749C213.105 161.659 212.787 161.614 212.463 161.614C211.975 161.614 211.609 161.694 211.367 161.854C211.129 162.011 211.01 162.251 211.01 162.575C211.01 162.868 211.1 163.087 211.279 163.231C211.459 163.376 211.906 163.517 212.621 163.653L213.055 163.735C213.59 163.837 213.994 164.04 214.268 164.345C214.545 164.649 214.684 165.046 214.684 165.534C214.684 166.183 214.453 166.69 213.992 167.058C213.531 167.421 212.891 167.603 212.07 167.603C211.746 167.603 211.406 167.567 211.051 167.497C210.695 167.431 210.311 167.329 209.896 167.192V166.079C210.299 166.286 210.684 166.442 211.051 166.548C211.418 166.649 211.766 166.7 212.094 166.7C212.57 166.7 212.939 166.604 213.201 166.413C213.463 166.218 213.594 165.946 213.594 165.599C213.594 165.099 213.115 164.753 212.158 164.562L212.111 164.55L211.707 164.468C211.086 164.347 210.633 164.144 210.348 163.858C210.062 163.569 209.92 163.177 209.92 162.681C209.92 162.052 210.133 161.567 210.559 161.228C210.984 160.884 211.592 160.712 212.381 160.712C212.732 160.712 213.07 160.745 213.395 160.812C213.719 160.874 214.037 160.97 214.35 161.099ZM215.465 160.87H216.584L218.488 166.378L220.398 160.87H221.518L219.186 167.433H217.797L215.465 160.87ZM228.281 168.546V169.542H221.109V168.546H228.281ZM234.107 162.224C233.877 162.044 233.643 161.913 233.404 161.831C233.166 161.749 232.904 161.708 232.619 161.708C231.947 161.708 231.434 161.919 231.078 162.341C230.723 162.763 230.545 163.372 230.545 164.169V167.433H229.461V160.87H230.545V162.153C230.725 161.688 231 161.333 231.371 161.087C231.746 160.837 232.189 160.712 232.701 160.712C232.967 160.712 233.215 160.745 233.445 160.812C233.676 160.878 233.896 160.981 234.107 161.122V162.224ZM240.133 163.612V164.14H235.463V164.175C235.432 165.069 235.602 165.712 235.973 166.103C236.348 166.493 236.875 166.688 237.555 166.688C237.898 166.688 238.258 166.634 238.633 166.524C239.008 166.415 239.408 166.249 239.834 166.026V167.099C239.424 167.267 239.027 167.392 238.645 167.474C238.266 167.56 237.898 167.603 237.543 167.603C236.523 167.603 235.727 167.298 235.152 166.688C234.578 166.075 234.291 165.231 234.291 164.157C234.291 163.11 234.572 162.274 235.135 161.649C235.697 161.024 236.447 160.712 237.385 160.712C238.221 160.712 238.879 160.995 239.359 161.562C239.844 162.128 240.102 162.812 240.133 163.612ZM239.055 163.296C239.008 162.843 238.842 162.452 238.557 162.124C238.275 161.792 237.869 161.626 237.338 161.626C236.818 161.626 236.391 161.798 236.055 162.142C235.719 162.485 235.535 162.872 235.504 163.302L239.055 163.296ZM243.914 164.134H243.557C242.928 164.134 242.453 164.245 242.133 164.468C241.816 164.687 241.658 165.015 241.658 165.452C241.658 165.847 241.777 166.153 242.016 166.372C242.254 166.591 242.584 166.7 243.006 166.7C243.6 166.7 244.066 166.495 244.406 166.085C244.746 165.671 244.918 165.101 244.922 164.374V164.134H243.914ZM246.006 163.688V167.433H244.922V166.46C244.691 166.851 244.4 167.14 244.049 167.327C243.701 167.511 243.277 167.603 242.777 167.603C242.109 167.603 241.576 167.415 241.178 167.04C240.779 166.661 240.58 166.155 240.58 165.522C240.58 164.792 240.824 164.237 241.312 163.858C241.805 163.479 242.525 163.29 243.475 163.29H244.922V163.12C244.918 162.597 244.785 162.218 244.523 161.983C244.262 161.745 243.844 161.626 243.27 161.626C242.902 161.626 242.531 161.679 242.156 161.784C241.781 161.89 241.416 162.044 241.061 162.247V161.169C241.459 161.017 241.84 160.903 242.203 160.829C242.57 160.751 242.926 160.712 243.27 160.712C243.812 160.712 244.275 160.792 244.658 160.952C245.045 161.112 245.357 161.353 245.596 161.673C245.744 161.868 245.85 162.11 245.912 162.399C245.975 162.685 246.006 163.114 246.006 163.688ZM251.059 161.708V158.315H252.137V167.433H251.059V166.606C250.879 166.931 250.639 167.179 250.338 167.351C250.041 167.519 249.697 167.603 249.307 167.603C248.514 167.603 247.889 167.296 247.432 166.683C246.979 166.065 246.752 165.216 246.752 164.134C246.752 163.067 246.98 162.231 247.438 161.626C247.895 161.017 248.518 160.712 249.307 160.712C249.701 160.712 250.049 160.798 250.35 160.97C250.65 161.138 250.887 161.384 251.059 161.708ZM247.889 164.157C247.889 164.993 248.021 165.624 248.287 166.05C248.553 166.476 248.945 166.688 249.465 166.688C249.984 166.688 250.379 166.474 250.648 166.044C250.922 165.614 251.059 164.985 251.059 164.157C251.059 163.325 250.922 162.696 250.648 162.271C250.379 161.841 249.984 161.626 249.465 161.626C248.945 161.626 248.553 161.839 248.287 162.265C248.021 162.69 247.889 163.321 247.889 164.157ZM258.824 163.612V164.14H254.154V164.175C254.123 165.069 254.293 165.712 254.664 166.103C255.039 166.493 255.566 166.688 256.246 166.688C256.59 166.688 256.949 166.634 257.324 166.524C257.699 166.415 258.1 166.249 258.525 166.026V167.099C258.115 167.267 257.719 167.392 257.336 167.474C256.957 167.56 256.59 167.603 256.234 167.603C255.215 167.603 254.418 167.298 253.844 166.688C253.27 166.075 252.982 165.231 252.982 164.157C252.982 163.11 253.264 162.274 253.826 161.649C254.389 161.024 255.139 160.712 256.076 160.712C256.912 160.712 257.57 160.995 258.051 161.562C258.535 162.128 258.793 162.812 258.824 163.612ZM257.746 163.296C257.699 162.843 257.533 162.452 257.248 162.124C256.967 161.792 256.561 161.626 256.029 161.626C255.51 161.626 255.082 161.798 254.746 162.142C254.41 162.485 254.227 162.872 254.195 163.302L257.746 163.296ZM265.26 162.224C265.029 162.044 264.795 161.913 264.557 161.831C264.318 161.749 264.057 161.708 263.771 161.708C263.1 161.708 262.586 161.919 262.23 162.341C261.875 162.763 261.697 163.372 261.697 164.169V167.433H260.613V160.87H261.697V162.153C261.877 161.688 262.152 161.333 262.523 161.087C262.898 160.837 263.342 160.712 263.854 160.712C264.119 160.712 264.367 160.745 264.598 160.812C264.828 160.878 265.049 160.981 265.26 161.122V162.224ZM267.236 160.876H269.064V162.991H267.236V160.876ZM267.236 165.3H269.064V167.433H267.236V165.3ZM182.506 173.741C181.986 174.632 181.598 175.521 181.34 176.407C181.086 177.29 180.959 178.181 180.959 179.079C180.959 179.974 181.086 180.864 181.34 181.751C181.598 182.638 181.986 183.53 182.506 184.429H181.568C180.979 183.499 180.539 182.595 180.25 181.716C179.961 180.833 179.816 179.954 179.816 179.079C179.816 178.208 179.961 177.331 180.25 176.448C180.539 175.565 180.979 174.663 181.568 173.741H182.506ZM210.928 181.065H212.99V183.433H210.928V181.065ZM218.395 183.55V177.708H216.537V176.87H219.473V183.55C219.473 184.312 219.297 184.897 218.945 185.308C218.598 185.722 218.102 185.929 217.457 185.929H215.969V185.015H217.34C217.691 185.015 217.955 184.892 218.131 184.646C218.307 184.403 218.395 184.038 218.395 183.55ZM218.395 174.315H219.473V175.681H218.395V174.315ZM224.719 177.626C224.172 177.626 223.758 177.839 223.477 178.265C223.195 178.69 223.055 179.321 223.055 180.157C223.055 180.989 223.195 181.62 223.477 182.05C223.758 182.476 224.172 182.688 224.719 182.688C225.27 182.688 225.686 182.476 225.967 182.05C226.248 181.62 226.389 180.989 226.389 180.157C226.389 179.321 226.248 178.69 225.967 178.265C225.686 177.839 225.27 177.626 224.719 177.626ZM224.719 176.712C225.629 176.712 226.324 177.007 226.805 177.597C227.289 178.187 227.531 179.04 227.531 180.157C227.531 181.278 227.291 182.134 226.811 182.724C226.33 183.31 225.633 183.603 224.719 183.603C223.809 183.603 223.113 183.31 222.633 182.724C222.152 182.134 221.912 181.278 221.912 180.157C221.912 179.04 222.152 178.187 222.633 177.597C223.113 177.007 223.809 176.712 224.719 176.712ZM229.191 176.894H231.951V182.595H234.09V183.433H228.734V182.595H230.873V177.731H229.191V176.894ZM230.873 174.345H231.951V175.704H230.873V174.345ZM239.729 179.366V183.433H238.645V179.366C238.645 178.776 238.541 178.343 238.334 178.065C238.127 177.788 237.803 177.649 237.361 177.649C236.857 177.649 236.469 177.829 236.195 178.188C235.926 178.544 235.791 179.056 235.791 179.724V183.433H234.713V176.87H235.791V177.854C235.982 177.479 236.242 177.196 236.57 177.005C236.898 176.81 237.287 176.712 237.736 176.712C238.404 176.712 238.902 176.933 239.23 177.374C239.562 177.812 239.729 178.476 239.729 179.366ZM244.811 173.741C244.291 174.632 243.902 175.521 243.645 176.407C243.391 177.29 243.264 178.181 243.264 179.079C243.264 179.974 243.391 180.864 243.645 181.751C243.902 182.638 244.291 183.53 244.811 184.429H243.873C243.283 183.499 242.844 182.595 242.555 181.716C242.266 180.833 242.121 179.954 242.121 179.079C242.121 178.208 242.266 177.331 242.555 176.448C242.844 175.565 243.283 174.663 243.873 173.741H244.811ZM252.799 178.224C252.568 178.044 252.334 177.913 252.096 177.831C251.857 177.749 251.596 177.708 251.311 177.708C250.639 177.708 250.125 177.919 249.77 178.341C249.414 178.763 249.236 179.372 249.236 180.169V183.433H248.152V176.87H249.236V178.153C249.416 177.688 249.691 177.333 250.062 177.087C250.438 176.837 250.881 176.712 251.393 176.712C251.658 176.712 251.906 176.745 252.137 176.812C252.367 176.878 252.588 176.981 252.799 177.122V178.224ZM255.871 177.626C255.324 177.626 254.91 177.839 254.629 178.265C254.348 178.69 254.207 179.321 254.207 180.157C254.207 180.989 254.348 181.62 254.629 182.05C254.91 182.476 255.324 182.688 255.871 182.688C256.422 182.688 256.838 182.476 257.119 182.05C257.4 181.62 257.541 180.989 257.541 180.157C257.541 179.321 257.4 178.69 257.119 178.265C256.838 177.839 256.422 177.626 255.871 177.626ZM255.871 176.712C256.781 176.712 257.477 177.007 257.957 177.597C258.441 178.187 258.684 179.04 258.684 180.157C258.684 181.278 258.443 182.134 257.963 182.724C257.482 183.31 256.785 183.603 255.871 183.603C254.961 183.603 254.266 183.31 253.785 182.724C253.305 182.134 253.064 181.278 253.064 180.157C253.064 179.04 253.305 178.187 253.785 177.597C254.266 177.007 254.961 176.712 255.871 176.712ZM258.492 176.87H259.559L260.701 182.173L261.639 178.786H262.559L263.508 182.173L264.65 176.87H265.717L264.182 183.433H263.15L262.102 179.835L261.059 183.433H260.027L258.492 176.87ZM266.762 173.741H267.699C268.289 174.663 268.729 175.565 269.018 176.448C269.307 177.331 269.451 178.208 269.451 179.079C269.451 179.958 269.307 180.839 269.018 181.722C268.729 182.604 268.289 183.507 267.699 184.429H266.762C267.281 183.522 267.668 182.626 267.922 181.739C268.18 180.853 268.309 179.966 268.309 179.079C268.309 178.188 268.18 177.3 267.922 176.413C267.668 175.526 267.281 174.636 266.762 173.741ZM272.992 173.741H273.93C274.52 174.663 274.959 175.565 275.248 176.448C275.537 177.331 275.682 178.208 275.682 179.079C275.682 179.958 275.537 180.839 275.248 181.722C274.959 182.604 274.52 183.507 273.93 184.429H272.992C273.512 183.522 273.898 182.626 274.152 181.739C274.41 180.853 274.539 179.966 274.539 179.079C274.539 178.188 274.41 177.3 274.152 176.413C273.898 175.526 273.512 174.636 272.992 173.741Z" fill="white"/>
<path d="M158.791 103.099C158.502 103.267 158.203 103.392 157.895 103.474C157.59 103.56 157.277 103.603 156.957 103.603C155.941 103.603 155.146 103.298 154.572 102.688C154.002 102.079 153.717 101.235 153.717 100.157C153.717 99.0791 154.002 98.2354 154.572 97.626C155.146 97.0166 155.941 96.7119 156.957 96.7119C157.273 96.7119 157.582 96.7529 157.883 96.835C158.184 96.917 158.486 97.0439 158.791 97.2158V98.3467C158.506 98.0928 158.219 97.9092 157.93 97.7959C157.645 97.6826 157.32 97.626 156.957 97.626C156.281 97.626 155.762 97.8447 155.398 98.2822C155.035 98.7197 154.854 99.3447 154.854 100.157C154.854 100.966 155.035 101.591 155.398 102.032C155.766 102.47 156.285 102.688 156.957 102.688C157.332 102.688 157.668 102.632 157.965 102.519C158.262 102.401 158.537 102.222 158.791 101.979V103.099ZM164.506 97.0986V98.1533C164.197 97.9736 163.887 97.8389 163.574 97.749C163.262 97.6592 162.943 97.6143 162.619 97.6143C162.131 97.6143 161.766 97.6943 161.523 97.8545C161.285 98.0107 161.166 98.251 161.166 98.5752C161.166 98.8682 161.256 99.0869 161.436 99.2314C161.615 99.376 162.062 99.5166 162.777 99.6533L163.211 99.7354C163.746 99.8369 164.15 100.04 164.424 100.345C164.701 100.649 164.84 101.046 164.84 101.534C164.84 102.183 164.609 102.69 164.148 103.058C163.688 103.421 163.047 103.603 162.227 103.603C161.902 103.603 161.562 103.567 161.207 103.497C160.852 103.431 160.467 103.329 160.053 103.192V102.079C160.455 102.286 160.84 102.442 161.207 102.548C161.574 102.649 161.922 102.7 162.25 102.7C162.727 102.7 163.096 102.604 163.357 102.413C163.619 102.218 163.75 101.946 163.75 101.599C163.75 101.099 163.271 100.753 162.314 100.562L162.268 100.55L161.863 100.468C161.242 100.347 160.789 100.144 160.504 99.8584C160.219 99.5693 160.076 99.1768 160.076 98.6807C160.076 98.0518 160.289 97.5674 160.715 97.2275C161.141 96.8838 161.748 96.7119 162.537 96.7119C162.889 96.7119 163.227 96.7451 163.551 96.8115C163.875 96.874 164.193 96.9697 164.506 97.0986ZM165.621 96.8701H166.74L168.645 102.378L170.555 96.8701H171.674L169.342 103.433H167.953L165.621 96.8701ZM175.455 113.767H173.979V112.554L175.127 110.315H176.029L175.455 112.554V113.767ZM181.457 113.538C181.59 113.257 181.758 113.05 181.961 112.917C182.168 112.78 182.416 112.712 182.705 112.712C183.232 112.712 183.604 112.917 183.818 113.327C184.037 113.733 184.146 114.501 184.146 115.63V119.433H183.162V115.677C183.162 114.751 183.109 114.177 183.004 113.954C182.902 113.728 182.715 113.614 182.441 113.614C182.129 113.614 181.914 113.735 181.797 113.978C181.684 114.216 181.627 114.782 181.627 115.677V119.433H180.643V115.677C180.643 114.739 180.586 114.161 180.473 113.942C180.363 113.724 180.164 113.614 179.875 113.614C179.59 113.614 179.391 113.735 179.277 113.978C179.168 114.216 179.113 114.782 179.113 115.677V119.433H178.135V112.87H179.113V113.433C179.242 113.198 179.402 113.021 179.594 112.899C179.789 112.774 180.01 112.712 180.256 112.712C180.553 112.712 180.799 112.78 180.994 112.917C181.193 113.054 181.348 113.261 181.457 113.538ZM188.754 117.323C188.574 117.78 188.346 118.382 188.068 119.128C187.682 120.159 187.422 120.788 187.289 121.015C187.109 121.319 186.885 121.548 186.615 121.7C186.346 121.853 186.031 121.929 185.672 121.929H184.805V121.026H185.443C185.76 121.026 186.008 120.935 186.188 120.751C186.367 120.567 186.596 120.093 186.873 119.327L184.336 112.87H185.479L187.424 118.003L189.34 112.87H190.482L188.754 117.323ZM197.129 120.546V121.542H189.957V120.546H197.129ZM202.416 110.315V111.212H201.191C200.805 111.212 200.535 111.292 200.383 111.452C200.234 111.608 200.16 111.888 200.16 112.29V112.87H202.416V113.708H200.16V119.433H199.082V113.708H197.33V112.87H199.082V112.413C199.082 111.694 199.246 111.165 199.574 110.825C199.906 110.485 200.422 110.315 201.121 110.315H202.416ZM204.27 112.894H207.029V118.595H209.168V119.433H203.812V118.595H205.951V113.731H204.27V112.894ZM205.951 110.345H207.029V111.704H205.951V110.345ZM212.861 117.06C212.861 117.544 212.949 117.909 213.125 118.155C213.305 118.401 213.568 118.524 213.916 118.524H215.176V119.433H213.811C213.166 119.433 212.666 119.228 212.311 118.817C211.959 118.403 211.783 117.817 211.783 117.06V111.124H210.055V110.28H212.861V117.06ZM221.441 115.612V116.14H216.771V116.175C216.74 117.069 216.91 117.712 217.281 118.103C217.656 118.493 218.184 118.688 218.863 118.688C219.207 118.688 219.566 118.634 219.941 118.524C220.316 118.415 220.717 118.249 221.143 118.026V119.099C220.732 119.267 220.336 119.392 219.953 119.474C219.574 119.56 219.207 119.603 218.852 119.603C217.832 119.603 217.035 119.298 216.461 118.688C215.887 118.075 215.6 117.231 215.6 116.157C215.6 115.11 215.881 114.274 216.443 113.649C217.006 113.024 217.756 112.712 218.693 112.712C219.529 112.712 220.188 112.995 220.668 113.562C221.152 114.128 221.41 114.812 221.441 115.612ZM220.363 115.296C220.316 114.843 220.15 114.452 219.865 114.124C219.584 113.792 219.178 113.626 218.646 113.626C218.127 113.626 217.699 113.798 217.363 114.142C217.027 114.485 216.844 114.872 216.812 115.302L220.363 115.296ZM223.389 117.065H225.451V119.433H223.389V117.065ZM233.557 119.099C233.268 119.267 232.969 119.392 232.66 119.474C232.355 119.56 232.043 119.603 231.723 119.603C230.707 119.603 229.912 119.298 229.338 118.688C228.768 118.079 228.482 117.235 228.482 116.157C228.482 115.079 228.768 114.235 229.338 113.626C229.912 113.017 230.707 112.712 231.723 112.712C232.039 112.712 232.348 112.753 232.648 112.835C232.949 112.917 233.252 113.044 233.557 113.216V114.347C233.271 114.093 232.984 113.909 232.695 113.796C232.41 113.683 232.086 113.626 231.723 113.626C231.047 113.626 230.527 113.845 230.164 114.282C229.801 114.72 229.619 115.345 229.619 116.157C229.619 116.966 229.801 117.591 230.164 118.032C230.531 118.47 231.051 118.688 231.723 118.688C232.098 118.688 232.434 118.632 232.73 118.519C233.027 118.401 233.303 118.222 233.557 117.979V119.099ZM234.156 112.87H235.275L237.18 118.378L239.09 112.87H240.209L237.877 119.433H236.488L234.156 112.87ZM245.502 113.099V114.153C245.193 113.974 244.883 113.839 244.57 113.749C244.258 113.659 243.939 113.614 243.615 113.614C243.127 113.614 242.762 113.694 242.52 113.854C242.281 114.011 242.162 114.251 242.162 114.575C242.162 114.868 242.252 115.087 242.432 115.231C242.611 115.376 243.059 115.517 243.773 115.653L244.207 115.735C244.742 115.837 245.146 116.04 245.42 116.345C245.697 116.649 245.836 117.046 245.836 117.534C245.836 118.183 245.605 118.69 245.145 119.058C244.684 119.421 244.043 119.603 243.223 119.603C242.898 119.603 242.559 119.567 242.203 119.497C241.848 119.431 241.463 119.329 241.049 119.192V118.079C241.451 118.286 241.836 118.442 242.203 118.548C242.57 118.649 242.918 118.7 243.246 118.7C243.723 118.7 244.092 118.604 244.354 118.413C244.615 118.218 244.746 117.946 244.746 117.599C244.746 117.099 244.268 116.753 243.311 116.562L243.264 116.55L242.859 116.468C242.238 116.347 241.785 116.144 241.5 115.858C241.215 115.569 241.072 115.177 241.072 114.681C241.072 114.052 241.285 113.567 241.711 113.228C242.137 112.884 242.744 112.712 243.533 112.712C243.885 112.712 244.223 112.745 244.547 112.812C244.871 112.874 245.189 112.97 245.502 113.099ZM249.318 110.315H250.795V111.522L249.641 113.767H248.744L249.318 111.522V110.315Z" fill="#23A9F2"/>
</g>
<defs>
<filter id="filter0_dddddd_1508_21499" x="0.5" y="75.4326" width="439" height="308" filterUnits="userSpaceOnUse" color-interpolation-filters="sRGB">
<feFlood flood-opacity="0" result="BackgroundImageFix"/>
<feColorMatrix in="SourceAlpha" type="matrix" values="0 0 0 0 0 0 0 0 0 0 0 0 0 0 0 0 0 0 127 0" result="hardAlpha"/>
<feOffset dy="2.76726"/>
<feGaussianBlur stdDeviation="1.1069"/>
<feColorMatrix type="matrix" values="0 0 0 0 0 0 0 0 0 0 0 0 0 0 0 0 0 0 0.0196802 0"/>
<feBlend mode="normal" in2="BackgroundImageFix" result="effect1_dropShadow_1508_21499"/>
<feColorMatrix in="SourceAlpha" type="matrix" values="0 0 0 0 0 0 0 0 0 0 0 0 0 0 0 0 0 0 127 0" result="hardAlpha"/>
<feOffset dy="6.6501"/>
<feGaussianBlur stdDeviation="2.66004"/>
<feColorMatrix type="matrix" values="0 0 0 0 0 0 0 0 0 0 0 0 0 0 0 0 0 0 0.0282725 0"/>
<feBlend mode="normal" in2="effect1_dropShadow_1508_21499" result="effect2_dropShadow_1508_21499"/>
<feColorMatrix in="SourceAlpha" type="matrix" values="0 0 0 0 0 0 0 0 0 0 0 0 0 0 0 0 0 0 127 0" result="hardAlpha"/>
<feOffset dy="12.5216"/>
<feGaussianBlur stdDeviation="5.00862"/>
<feColorMatrix type="matrix" values="0 0 0 0 0 0 0 0 0 0 0 0 0 0 0 0 0 0 0.035 0"/>
<feBlend mode="normal" in2="effect2_dropShadow_1508_21499" result="effect3_dropShadow_1508_21499"/>
<feColorMatrix in="SourceAlpha" type="matrix" values="0 0 0 0 0 0 0 0 0 0 0 0 0 0 0 0 0 0 127 0" result="hardAlpha"/>
<feOffset dy="22.3363"/>
<feGaussianBlur stdDeviation="8.93452"/>
<feColorMatrix type="matrix" values="0 0 0 0 0 0 0 0 0 0 0 0 0 0 0 0 0 0 0.0417275 0"/>
<feBlend mode="normal" in2="effect3_dropShadow_1508_21499" result="effect4_dropShadow_1508_21499"/>
<feColorMatrix in="SourceAlpha" type="matrix" values="0 0 0 0 0 0 0 0 0 0 0 0 0 0 0 0 0 0 127 0" result="hardAlpha"/>
<feOffset dy="41.7776"/>
<feGaussianBlur stdDeviation="16.711"/>
<feColorMatrix type="matrix" values="0 0 0 0 0 0 0 0 0 0 0 0 0 0 0 0 0 0 0.0503198 0"/>
<feBlend mode="normal" in2="effect4_dropShadow_1508_21499" result="effect5_dropShadow_1508_21499"/>
<feColorMatrix in="SourceAlpha" type="matrix" values="0 0 0 0 0 0 0 0 0 0 0 0 0 0 0 0 0 0 127 0" result="hardAlpha"/>
<feOffset dy="100"/>
<feGaussianBlur stdDeviation="40"/>
<feColorMatrix type="matrix" values="0 0 0 0 0 0 0 0 0 0 0 0 0 0 0 0 0 0 0.07 0"/>
<feBlend mode="normal" in2="effect5_dropShadow_1508_21499" result="effect6_dropShadow_1508_21499"/>
<feBlend mode="normal" in="SourceGraphic" in2="effect6_dropShadow_1508_21499" result="shape"/>
</filter>
<clipPath id="clip0_1508_21499">
<rect width="64" height="16" fill="white" transform="translate(84.5 20.4326)"/>
</clipPath>
</defs>
</svg>
