<svg width="296" height="223" viewBox="0 0 296 223" fill="none" xmlns="http://www.w3.org/2000/svg">
<rect x="0.5" y="0.120605" width="295" height="222" rx="8" fill="white"/>
<path d="M0.5 8.1206C0.5 3.70233 4.08172 0.120605 8.5 0.120605H287.5C291.918 0.120605 295.5 3.70233 295.5 8.12061V56.1206H0.5V8.1206Z" fill="#1A1A1A"/>
<g clip-path="url(#clip0_1640_27399)">
<path fill-rule="evenodd" clip-rule="evenodd" d="M20.5 36.1206C24.9183 36.1206 28.5 32.5389 28.5 28.1206C28.5 23.7023 24.9183 20.1206 20.5 20.1206C16.0817 20.1206 12.5 23.7023 12.5 28.1206C12.5 32.5389 16.0817 36.1206 20.5 36.1206Z" fill="#FF4A4A"/>
<path fill-rule="evenodd" clip-rule="evenodd" d="M44.5 36.1206C48.9183 36.1206 52.5 32.5389 52.5 28.1206C52.5 23.7023 48.9183 20.1206 44.5 20.1206C40.0817 20.1206 36.5 23.7023 36.5 28.1206C36.5 32.5389 40.0817 36.1206 44.5 36.1206Z" fill="#FFB83D"/>
<path fill-rule="evenodd" clip-rule="evenodd" d="M68.5 36.1206C72.9183 36.1206 76.5 32.5389 76.5 28.1206C76.5 23.7023 72.9183 20.1206 68.5 20.1206C64.0817 20.1206 60.5 23.7023 60.5 28.1206C60.5 32.5389 64.0817 36.1206 68.5 36.1206Z" fill="#00C543"/>
</g>
<path opacity="0.85" fill-rule="evenodd" clip-rule="evenodd" d="M96.5 12.1206C94.2909 12.1206 92.5 13.9115 92.5 16.1206V40.1206C92.5 42.3297 94.2909 44.1206 96.5 44.1206H267.5C269.709 44.1206 271.5 42.3297 271.5 40.1206V16.1206C271.5 13.9115 269.709 12.1206 267.5 12.1206H96.5Z" fill="#383838"/>
<path d="M0.5 56.1206H295.5V214.121C295.5 218.539 291.918 222.121 287.5 222.121H8.49999C4.08172 222.121 0.5 218.539 0.5 214.121V56.1206Z" fill="#300623"/>
<rect x="8.5" y="75.1206" width="279" height="128" rx="8" fill="#282C34"/>
<path d="M26.082 102.13H27.9219V95.521L25.7188 96.5815V95.4448L27.9102 94.4019H29.0938V102.13H30.9102V103.121H26.082V102.13ZM26.6855 118.125H30.7051V119.121H25.3906V118.125C26.1211 117.355 26.7598 116.675 27.3066 116.085C27.8535 115.496 28.2305 115.08 28.4375 114.837C28.8281 114.361 29.0918 113.976 29.2285 113.683C29.3652 113.386 29.4336 113.083 29.4336 112.775C29.4336 112.287 29.2891 111.904 29 111.626C28.7148 111.349 28.3223 111.21 27.8223 111.21C27.4668 111.21 27.0938 111.275 26.7031 111.404C26.3125 111.533 25.8984 111.728 25.4609 111.99V110.794C25.8633 110.603 26.2578 110.458 26.6445 110.361C27.0352 110.263 27.4199 110.214 27.7988 110.214C28.6543 110.214 29.3418 110.443 29.8613 110.9C30.3848 111.353 30.6465 111.949 30.6465 112.687C30.6465 113.062 30.5586 113.437 30.3828 113.812C30.2109 114.187 29.9297 114.601 29.5391 115.054C29.3203 115.308 29.002 115.66 28.584 116.109C28.1699 116.558 27.5371 117.23 26.6855 118.125ZM29.0469 146.439C29.6211 146.591 30.0605 146.863 30.3652 147.253C30.6699 147.64 30.8223 148.125 30.8223 148.707C30.8223 149.511 30.5508 150.144 30.0078 150.605C29.4688 151.062 28.7207 151.291 27.7637 151.291C27.3613 151.291 26.9512 151.253 26.5332 151.179C26.1152 151.105 25.7051 150.998 25.3027 150.857V149.679C25.7012 149.886 26.0938 150.041 26.4805 150.142C26.8672 150.244 27.252 150.294 27.6348 150.294C28.2832 150.294 28.7812 150.148 29.1289 149.855C29.4766 149.562 29.6504 149.14 29.6504 148.589C29.6504 148.082 29.4766 147.679 29.1289 147.382C28.7812 147.082 28.3105 146.931 27.7168 146.931H26.8145V145.958H27.7168C28.2598 145.958 28.6836 145.839 28.9883 145.601C29.293 145.363 29.4453 145.031 29.4453 144.605C29.4453 144.156 29.3027 143.812 29.0176 143.574C28.7363 143.332 28.334 143.21 27.8105 143.21C27.4629 143.21 27.1035 143.25 26.7324 143.328C26.3613 143.406 25.9727 143.523 25.5664 143.679V142.589C26.0391 142.464 26.459 142.371 26.8262 142.308C27.1973 142.246 27.5254 142.214 27.8105 142.214C28.6621 142.214 29.3418 142.429 29.8496 142.859C30.3613 143.285 30.6172 143.851 30.6172 144.558C30.6172 145.039 30.4824 145.439 30.2129 145.759C29.9473 146.08 29.5586 146.306 29.0469 146.439ZM28.8066 159.451L26.0469 164.074H28.8066V159.451ZM28.6133 158.373H29.9844V164.074H31.1504V165.035H29.9844V167.121H28.8066V165.035H25.0977V163.916L28.6133 158.373ZM25.7129 174.373H30.1426V175.369H26.791V177.519C26.959 177.457 27.127 177.412 27.2949 177.384C27.4668 177.353 27.6387 177.337 27.8105 177.337C28.7168 177.337 29.4355 177.605 29.9668 178.14C30.498 178.675 30.7637 179.4 30.7637 180.314C30.7637 181.236 30.4844 181.962 29.9258 182.494C29.3711 183.025 28.6113 183.291 27.6465 183.291C27.1816 183.291 26.7559 183.259 26.3691 183.197C25.9863 183.134 25.6426 183.041 25.3379 182.916V181.714C25.6973 181.91 26.0586 182.056 26.4219 182.154C26.7852 182.248 27.1562 182.294 27.5352 182.294C28.1875 182.294 28.6895 182.123 29.041 181.779C29.3965 181.435 29.5742 180.947 29.5742 180.314C29.5742 179.689 29.3906 179.203 29.0234 178.855C28.6602 178.507 28.1523 178.333 27.5 178.333C27.1836 178.333 26.875 178.371 26.5742 178.445C26.2734 178.515 25.9863 178.623 25.7129 178.767V174.373Z" fill="white" fill-opacity="0.3"/>
<path d="M38.8125 96.5815H41.5723V102.283H43.7109V103.121H38.3555V102.283H40.4941V97.4194H38.8125V96.5815ZM40.4941 94.0327H41.5723V95.3921H40.4941V94.0327ZM47.1523 97.2261C47.2852 96.9448 47.4531 96.7378 47.6562 96.605C47.8633 96.4683 48.1113 96.3999 48.4004 96.3999C48.9277 96.3999 49.2988 96.605 49.5137 97.0151C49.7324 97.4214 49.8418 98.189 49.8418 99.3179V103.121H48.8574V99.3647C48.8574 98.439 48.8047 97.8647 48.6992 97.6421C48.5977 97.4155 48.4102 97.3022 48.1367 97.3022C47.8242 97.3022 47.6094 97.4233 47.4922 97.6655C47.3789 97.9038 47.3223 98.4702 47.3223 99.3647V103.121H46.3379V99.3647C46.3379 98.4272 46.2812 97.8491 46.168 97.6304C46.0586 97.4116 45.8594 97.3022 45.5703 97.3022C45.2852 97.3022 45.0859 97.4233 44.9727 97.6655C44.8633 97.9038 44.8086 98.4702 44.8086 99.3647V103.121H43.8301V96.5581H44.8086V97.1206C44.9375 96.8862 45.0977 96.7085 45.2891 96.5874C45.4844 96.4624 45.7051 96.3999 45.9512 96.3999C46.248 96.3999 46.4941 96.4683 46.6895 96.605C46.8887 96.7417 47.043 96.9487 47.1523 97.2261ZM51.6191 102.294V105.617H50.5352V96.5581H51.6191V97.396C51.7988 97.0718 52.0371 96.8257 52.334 96.6577C52.6348 96.4858 52.9805 96.3999 53.3711 96.3999C54.1641 96.3999 54.7852 96.7065 55.2344 97.3198C55.6875 97.9331 55.9141 98.7827 55.9141 99.8687C55.9141 100.935 55.6875 101.773 55.2344 102.382C54.7812 102.988 54.1602 103.291 53.3711 103.291C52.9727 103.291 52.623 103.207 52.3223 103.039C52.0254 102.867 51.791 102.619 51.6191 102.294ZM54.7832 99.8452C54.7832 99.0093 54.6504 98.3784 54.3848 97.9526C54.123 97.5269 53.7324 97.314 53.2129 97.314C52.6895 97.314 52.293 97.5288 52.0234 97.9585C51.7539 98.3843 51.6191 99.0132 51.6191 99.8452C51.6191 100.673 51.7539 101.302 52.0234 101.732C52.293 102.162 52.6895 102.376 53.2129 102.376C53.7324 102.376 54.123 102.164 54.3848 101.738C54.6504 101.312 54.7832 100.681 54.7832 99.8452ZM59.2617 97.314C58.7148 97.314 58.3008 97.5269 58.0195 97.9526C57.7383 98.3784 57.5977 99.0093 57.5977 99.8452C57.5977 100.677 57.7383 101.308 58.0195 101.738C58.3008 102.164 58.7148 102.376 59.2617 102.376C59.8125 102.376 60.2285 102.164 60.5098 101.738C60.791 101.308 60.9316 100.677 60.9316 99.8452C60.9316 99.0093 60.791 98.3784 60.5098 97.9526C60.2285 97.5269 59.8125 97.314 59.2617 97.314ZM59.2617 96.3999C60.1719 96.3999 60.8672 96.6948 61.3477 97.2847C61.832 97.8745 62.0742 98.728 62.0742 99.8452C62.0742 100.966 61.834 101.822 61.3535 102.412C60.873 102.998 60.1758 103.291 59.2617 103.291C58.3516 103.291 57.6562 102.998 57.1758 102.412C56.6953 101.822 56.4551 100.966 56.4551 99.8452C56.4551 98.728 56.6953 97.8745 57.1758 97.2847C57.6562 96.6948 58.3516 96.3999 59.2617 96.3999ZM68.6504 97.9116C68.4199 97.7319 68.1855 97.6011 67.9473 97.519C67.709 97.437 67.4473 97.396 67.1621 97.396C66.4902 97.396 65.9766 97.6069 65.6211 98.0288C65.2656 98.4507 65.0879 99.0601 65.0879 99.8569V103.121H64.0039V96.5581H65.0879V97.8413C65.2676 97.3765 65.543 97.021 65.9141 96.7749C66.2891 96.5249 66.7324 96.3999 67.2441 96.3999C67.5098 96.3999 67.7578 96.4331 67.9883 96.4995C68.2188 96.5659 68.4395 96.6694 68.6504 96.8101V97.9116ZM71.7109 94.6948V96.5581H74.1602V97.396H71.7109V100.958C71.7109 101.443 71.8027 101.781 71.9863 101.972C72.1699 102.164 72.4902 102.259 72.9473 102.259H74.1602V103.121H72.8418C72.0332 103.121 71.4629 102.958 71.1309 102.634C70.7988 102.31 70.6328 101.751 70.6328 100.958V97.396H68.8809V96.5581H70.6328V94.6948H71.7109ZM36.9609 112.558H38.0273L39.1699 117.861L40.1074 114.474H41.0273L41.9766 117.861L43.1191 112.558H44.1855L42.6504 119.121H41.6191L40.5703 115.523L39.5273 119.121H38.4961L36.9609 112.558ZM45.043 112.582H47.8027V118.283H49.9414V119.121H44.5859V118.283H46.7246V113.419H45.043V112.582ZM46.7246 110.033H47.8027V111.392H46.7246V110.033ZM53.0195 110.695V112.558H55.4688V113.396H53.0195V116.958C53.0195 117.443 53.1113 117.781 53.2949 117.972C53.4785 118.164 53.7988 118.259 54.2559 118.259H55.4688V119.121H54.1504C53.3418 119.121 52.7715 118.958 52.4395 118.634C52.1074 118.31 51.9414 117.751 51.9414 116.958V113.396H50.1895V112.558H51.9414V110.695H53.0195ZM61.8105 115.054V119.121H60.7266V115.054C60.7266 114.464 60.623 114.031 60.416 113.753C60.209 113.476 59.8848 113.337 59.4434 113.337C58.9395 113.337 58.5508 113.517 58.2773 113.876C58.0078 114.232 57.873 114.744 57.873 115.412V119.121H56.7949V110.003H57.873V113.542C58.0645 113.167 58.3242 112.884 58.6523 112.693C58.9805 112.498 59.3691 112.4 59.8184 112.4C60.4863 112.4 60.9844 112.621 61.3125 113.062C61.6445 113.5 61.8105 114.164 61.8105 115.054ZM71.7227 113.314C71.1758 113.314 70.7617 113.527 70.4805 113.953C70.1992 114.378 70.0586 115.009 70.0586 115.845C70.0586 116.677 70.1992 117.308 70.4805 117.738C70.7617 118.164 71.1758 118.376 71.7227 118.376C72.2734 118.376 72.6895 118.164 72.9707 117.738C73.252 117.308 73.3926 116.677 73.3926 115.845C73.3926 115.009 73.252 114.378 72.9707 113.953C72.6895 113.527 72.2734 113.314 71.7227 113.314ZM71.7227 112.4C72.6328 112.4 73.3281 112.695 73.8086 113.285C74.293 113.875 74.5352 114.728 74.5352 115.845C74.5352 116.966 74.2949 117.822 73.8145 118.412C73.334 118.998 72.6367 119.291 71.7227 119.291C70.8125 119.291 70.1172 118.998 69.6367 118.412C69.1562 117.822 68.916 116.966 68.916 115.845C68.916 114.728 69.1562 113.875 69.6367 113.285C70.1172 112.695 70.8125 112.4 71.7227 112.4ZM76.541 118.294V121.617H75.457V112.558H76.541V113.396C76.7207 113.072 76.959 112.826 77.2559 112.658C77.5566 112.486 77.9023 112.4 78.293 112.4C79.0859 112.4 79.707 112.707 80.1562 113.32C80.6094 113.933 80.8359 114.783 80.8359 115.869C80.8359 116.935 80.6094 117.773 80.1562 118.382C79.7031 118.988 79.082 119.291 78.293 119.291C77.8945 119.291 77.5449 119.207 77.2441 119.039C76.9473 118.867 76.7129 118.619 76.541 118.294ZM79.7051 115.845C79.7051 115.009 79.5723 114.378 79.3066 113.953C79.0449 113.527 78.6543 113.314 78.1348 113.314C77.6113 113.314 77.2148 113.529 76.9453 113.958C76.6758 114.384 76.541 115.013 76.541 115.845C76.541 116.673 76.6758 117.302 76.9453 117.732C77.2148 118.162 77.6113 118.376 78.1348 118.376C78.6543 118.376 79.0449 118.164 79.3066 117.738C79.5723 117.312 79.7051 116.681 79.7051 115.845ZM87.1367 115.3V115.828H82.4668V115.863C82.4355 116.757 82.6055 117.4 82.9766 117.791C83.3516 118.181 83.8789 118.376 84.5586 118.376C84.9023 118.376 85.2617 118.322 85.6367 118.212C86.0117 118.103 86.4121 117.937 86.8379 117.714V118.787C86.4277 118.955 86.0312 119.08 85.6484 119.162C85.2695 119.248 84.9023 119.291 84.5469 119.291C83.5273 119.291 82.7305 118.986 82.1562 118.376C81.582 117.763 81.2949 116.919 81.2949 115.845C81.2949 114.798 81.5762 113.962 82.1387 113.337C82.7012 112.712 83.4512 112.4 84.3887 112.4C85.2246 112.4 85.8828 112.683 86.3633 113.25C86.8477 113.816 87.1055 114.5 87.1367 115.3ZM86.0586 114.984C86.0117 114.531 85.8457 114.14 85.5605 113.812C85.2793 113.48 84.873 113.314 84.3418 113.314C83.8223 113.314 83.3945 113.486 83.0586 113.83C82.7227 114.173 82.5391 114.56 82.5078 114.99L86.0586 114.984ZM92.9629 115.054V119.121H91.8789V115.054C91.8789 114.464 91.7754 114.031 91.5684 113.753C91.3613 113.476 91.0371 113.337 90.5957 113.337C90.0918 113.337 89.7031 113.517 89.4297 113.876C89.1602 114.232 89.0254 114.744 89.0254 115.412V119.121H87.9473V112.558H89.0254V113.542C89.2168 113.167 89.4766 112.884 89.8047 112.693C90.1328 112.498 90.5215 112.4 90.9707 112.4C91.6387 112.4 92.1367 112.621 92.4648 113.062C92.7969 113.5 92.9629 114.164 92.9629 115.054ZM196.824 116.039C196.184 116.039 195.736 116.121 195.482 116.285C195.229 116.449 195.102 116.73 195.102 117.128C195.102 117.425 195.189 117.662 195.365 117.837C195.541 118.013 195.779 118.101 196.08 118.101C196.533 118.101 196.885 117.931 197.135 117.591C197.385 117.248 197.51 116.769 197.51 116.156V116.039H196.824ZM199.215 115.376V119.121H197.51V118.388C197.303 118.677 197.037 118.9 196.713 119.056C196.389 119.212 196.031 119.291 195.641 119.291C194.895 119.291 194.312 119.093 193.895 118.699C193.48 118.304 193.273 117.753 193.273 117.046C193.273 116.281 193.521 115.716 194.018 115.353C194.514 114.986 195.281 114.802 196.32 114.802H197.51V114.515C197.51 114.238 197.408 114.029 197.205 113.888C197.006 113.744 196.711 113.671 196.32 113.671C195.91 113.671 195.512 113.724 195.125 113.83C194.742 113.931 194.342 114.095 193.924 114.322V112.857C194.303 112.701 194.688 112.585 195.078 112.511C195.469 112.437 195.883 112.4 196.32 112.4C197.387 112.4 198.135 112.617 198.564 113.05C198.998 113.484 199.215 114.259 199.215 115.376ZM204.76 112.763V114.263C204.443 114.06 204.113 113.908 203.77 113.806C203.43 113.701 203.088 113.648 202.744 113.648C202.361 113.648 202.072 113.705 201.877 113.818C201.682 113.927 201.584 114.091 201.584 114.31C201.584 114.623 202.002 114.876 202.838 115.072L202.902 115.089L203.395 115.207C204.02 115.355 204.477 115.595 204.766 115.927C205.059 116.255 205.205 116.701 205.205 117.263C205.205 117.939 204.982 118.447 204.537 118.787C204.096 119.123 203.43 119.291 202.539 119.291C202.145 119.291 201.74 119.255 201.326 119.185C200.912 119.119 200.492 119.017 200.066 118.88V117.38C200.445 117.595 200.83 117.759 201.221 117.873C201.615 117.986 201.996 118.042 202.363 118.042C202.766 118.042 203.07 117.984 203.277 117.867C203.484 117.75 203.588 117.58 203.588 117.357C203.588 117.138 203.514 116.97 203.365 116.853C203.221 116.736 202.873 116.611 202.322 116.478L201.848 116.373C201.191 116.224 200.713 115.992 200.412 115.675C200.111 115.359 199.961 114.935 199.961 114.404C199.961 113.771 200.189 113.279 200.646 112.927C201.104 112.576 201.746 112.4 202.574 112.4C202.945 112.4 203.314 112.431 203.682 112.494C204.053 112.552 204.412 112.642 204.76 112.763ZM66.2129 159.984V160.558H68.2285V161.876H66.2129V167.121H64.4961V161.876H62.9023V160.558H64.4961V160.101C64.4961 159.312 64.6602 158.765 64.9883 158.46C65.3164 158.156 65.9258 158.003 66.8164 158.003H68.2285V159.322H66.8867C66.6289 159.322 66.4531 159.369 66.3594 159.462C66.2695 159.556 66.2207 159.73 66.2129 159.984ZM71.7227 161.794C71.3125 161.794 70.9902 161.976 70.7559 162.339C70.5215 162.699 70.4043 163.201 70.4043 163.845C70.4043 164.49 70.5215 164.994 70.7559 165.357C70.9902 165.716 71.3125 165.896 71.7227 165.896C72.1367 165.896 72.4609 165.716 72.6953 165.357C72.9297 164.994 73.0469 164.49 73.0469 163.845C73.0469 163.201 72.9297 162.699 72.6953 162.339C72.4609 161.976 72.1367 161.794 71.7227 161.794ZM68.6875 163.845C68.6875 162.787 68.9609 161.949 69.5078 161.332C70.0586 160.71 70.7969 160.4 71.7227 160.4C72.6523 160.4 73.3906 160.71 73.9375 161.332C74.4883 161.949 74.7637 162.787 74.7637 163.845C74.7637 164.904 74.4883 165.744 73.9375 166.365C73.3906 166.982 72.6523 167.291 71.7227 167.291C70.7969 167.291 70.0586 166.982 69.5078 166.365C68.9609 165.744 68.6875 164.904 68.6875 163.845ZM81.0879 162.369C80.9004 162.197 80.6797 162.068 80.4258 161.982C80.1758 161.896 79.9004 161.853 79.5996 161.853C79.2363 161.853 78.918 161.917 78.6445 162.046C78.375 162.171 78.166 162.355 78.0176 162.597C77.9238 162.746 77.8574 162.925 77.8184 163.136C77.7832 163.347 77.7656 163.667 77.7656 164.097V167.121H76.0488V160.558H77.7656V161.578C77.9336 161.203 78.1914 160.914 78.5391 160.71C78.8867 160.503 79.293 160.4 79.7578 160.4C79.9922 160.4 80.2207 160.429 80.4434 160.488C80.6699 160.542 80.8848 160.625 81.0879 160.734V162.369ZM113.021 160.558H116.42V165.802H118.553V167.121H112.564V165.802H114.703V161.876H113.021V160.558ZM114.703 157.365H116.42V159.369H114.703V157.365ZM124.232 162.861V167.121H122.527V163.125C122.527 162.648 122.459 162.308 122.322 162.105C122.189 161.898 121.971 161.794 121.666 161.794C121.357 161.794 121.113 161.933 120.934 162.21C120.758 162.488 120.67 162.873 120.67 163.365V167.121H118.965V160.558H120.67V161.542C120.791 161.179 120.998 160.898 121.291 160.699C121.584 160.5 121.938 160.4 122.352 160.4C122.973 160.4 123.441 160.607 123.758 161.021C124.074 161.431 124.232 162.044 124.232 162.861ZM76.541 182.294V185.617H75.457V176.558H76.541V177.396C76.7207 177.072 76.959 176.826 77.2559 176.658C77.5566 176.486 77.9023 176.4 78.293 176.4C79.0859 176.4 79.707 176.707 80.1562 177.32C80.6094 177.933 80.8359 178.783 80.8359 179.869C80.8359 180.935 80.6094 181.773 80.1562 182.382C79.7031 182.988 79.082 183.291 78.293 183.291C77.8945 183.291 77.5449 183.207 77.2441 183.039C76.9473 182.867 76.7129 182.619 76.541 182.294ZM79.7051 179.845C79.7051 179.009 79.5723 178.378 79.3066 177.953C79.0449 177.527 78.6543 177.314 78.1348 177.314C77.6113 177.314 77.2148 177.529 76.9453 177.958C76.6758 178.384 76.541 179.013 76.541 179.845C76.541 180.673 76.6758 181.302 76.9453 181.732C77.2148 182.162 77.6113 182.376 78.1348 182.376C78.6543 182.376 79.0449 182.164 79.3066 181.738C79.5723 181.312 79.7051 180.681 79.7051 179.845ZM87.3418 177.912C87.1113 177.732 86.877 177.601 86.6387 177.519C86.4004 177.437 86.1387 177.396 85.8535 177.396C85.1816 177.396 84.668 177.607 84.3125 178.029C83.957 178.451 83.7793 179.06 83.7793 179.857V183.121H82.6953V176.558H83.7793V177.841C83.959 177.376 84.2344 177.021 84.6055 176.775C84.9805 176.525 85.4238 176.4 85.9355 176.4C86.2012 176.4 86.4492 176.433 86.6797 176.5C86.9102 176.566 87.1309 176.669 87.3418 176.81V177.912ZM88.6562 176.582H91.416V182.283H93.5547V183.121H88.1992V182.283H90.3379V177.419H88.6562V176.582ZM90.3379 174.033H91.416V175.392H90.3379V174.033ZM99.1934 179.054V183.121H98.1094V179.054C98.1094 178.464 98.0059 178.031 97.7988 177.753C97.5918 177.476 97.2676 177.337 96.8262 177.337C96.3223 177.337 95.9336 177.517 95.6602 177.876C95.3906 178.232 95.2559 178.744 95.2559 179.412V183.121H94.1777V176.558H95.2559V177.542C95.4473 177.167 95.707 176.884 96.0352 176.693C96.3633 176.498 96.752 176.4 97.2012 176.4C97.8691 176.4 98.3672 176.621 98.6953 177.062C99.0273 177.5 99.1934 178.164 99.1934 179.054ZM102.863 174.695V176.558H105.312V177.396H102.863V180.958C102.863 181.443 102.955 181.781 103.139 181.972C103.322 182.164 103.643 182.259 104.1 182.259H105.312V183.121H103.994C103.186 183.121 102.615 182.958 102.283 182.634C101.951 182.31 101.785 181.751 101.785 180.958V177.396H100.033V176.558H101.785V174.695H102.863ZM116.074 173.992V177.642H114.762V173.992H116.074ZM120.547 181.005H122.375V182.558L121.074 185.083L119.902 185.089L120.547 182.558V181.005ZM134.766 173.992V177.642H133.453V173.992H134.766Z" fill="#00C543"/>
<path d="M98.0449 109.429C97.5254 110.32 97.1367 111.208 96.8789 112.095C96.625 112.978 96.498 113.869 96.498 114.767C96.498 115.662 96.625 116.552 96.8789 117.439C97.1367 118.326 97.5254 119.218 98.0449 120.117H97.1074C96.5176 119.187 96.0781 118.283 95.7891 117.404C95.5 116.521 95.3555 115.642 95.3555 114.767C95.3555 113.896 95.5 113.019 95.7891 112.136C96.0781 111.253 96.5176 110.351 97.1074 109.429H98.0449ZM182.301 109.429H183.238C183.828 110.351 184.268 111.253 184.557 112.136C184.846 113.019 184.99 113.896 184.99 114.767C184.99 115.646 184.846 116.527 184.557 117.41C184.268 118.292 183.828 119.195 183.238 120.117H182.301C182.82 119.21 183.207 118.314 183.461 117.427C183.719 116.541 183.848 115.654 183.848 114.767C183.848 113.876 183.719 112.988 183.461 112.101C183.207 111.214 182.82 110.324 182.301 109.429ZM49.4082 134.787C49.1191 134.955 48.8203 135.08 48.5117 135.162C48.207 135.248 47.8945 135.291 47.5742 135.291C46.5586 135.291 45.7637 134.986 45.1895 134.376C44.6191 133.767 44.334 132.923 44.334 131.845C44.334 130.767 44.6191 129.923 45.1895 129.314C45.7637 128.705 46.5586 128.4 47.5742 128.4C47.8906 128.4 48.1992 128.441 48.5 128.523C48.8008 128.605 49.1035 128.732 49.4082 128.904V130.035C49.123 129.781 48.8359 129.597 48.5469 129.484C48.2617 129.371 47.9375 129.314 47.5742 129.314C46.8984 129.314 46.3789 129.533 46.0156 129.97C45.6523 130.408 45.4707 131.033 45.4707 131.845C45.4707 132.654 45.6523 133.279 46.0156 133.72C46.3828 134.158 46.9023 134.376 47.5742 134.376C47.9492 134.376 48.2852 134.32 48.582 134.207C48.8789 134.089 49.1543 133.91 49.4082 133.667V134.787ZM55.123 128.787V129.841C54.8145 129.662 54.5039 129.527 54.1914 129.437C53.8789 129.347 53.5605 129.302 53.2363 129.302C52.748 129.302 52.3828 129.382 52.1406 129.542C51.9023 129.699 51.7832 129.939 51.7832 130.263C51.7832 130.556 51.873 130.775 52.0527 130.919C52.2324 131.064 52.6797 131.205 53.3945 131.341L53.8281 131.423C54.3633 131.525 54.7676 131.728 55.041 132.033C55.3184 132.337 55.457 132.734 55.457 133.222C55.457 133.871 55.2266 134.378 54.7656 134.746C54.3047 135.109 53.6641 135.291 52.8438 135.291C52.5195 135.291 52.1797 135.255 51.8242 135.185C51.4688 135.119 51.084 135.017 50.6699 134.88V133.767C51.0723 133.974 51.457 134.13 51.8242 134.236C52.1914 134.337 52.5391 134.388 52.8672 134.388C53.3438 134.388 53.7129 134.292 53.9746 134.101C54.2363 133.906 54.3672 133.634 54.3672 133.287C54.3672 132.787 53.8887 132.441 52.9316 132.25L52.8848 132.238L52.4805 132.156C51.8594 132.035 51.4062 131.832 51.1211 131.546C50.8359 131.257 50.6934 130.865 50.6934 130.369C50.6934 129.74 50.9062 129.255 51.332 128.916C51.7578 128.572 52.3652 128.4 53.1543 128.4C53.5059 128.4 53.8438 128.433 54.168 128.5C54.4922 128.562 54.8105 128.658 55.123 128.787ZM56.2383 128.558H57.3574L59.2617 134.066L61.1719 128.558H62.291L59.959 135.121H58.5703L56.2383 128.558ZM68.1113 126.003V126.9H66.8867C66.5 126.9 66.2305 126.98 66.0781 127.14C65.9297 127.296 65.8555 127.576 65.8555 127.978V128.558H68.1113V129.396H65.8555V135.121H64.7773V129.396H63.0254V128.558H64.7773V128.101C64.7773 127.382 64.9414 126.853 65.2695 126.513C65.6016 126.173 66.1172 126.003 66.8164 126.003H68.1113ZM69.9648 128.582H72.7246V134.283H74.8633V135.121H69.5078V134.283H71.6465V129.419H69.9648V128.582ZM71.6465 126.033H72.7246V127.392H71.6465V126.033ZM78.5566 132.748C78.5566 133.232 78.6445 133.597 78.8203 133.843C79 134.089 79.2637 134.212 79.6113 134.212H80.8711V135.121H79.5059C78.8613 135.121 78.3613 134.916 78.0059 134.505C77.6543 134.091 77.4785 133.505 77.4785 132.748V126.812H75.75V125.968H78.5566V132.748ZM87.1367 131.3V131.828H82.4668V131.863C82.4355 132.757 82.6055 133.4 82.9766 133.791C83.3516 134.181 83.8789 134.376 84.5586 134.376C84.9023 134.376 85.2617 134.322 85.6367 134.212C86.0117 134.103 86.4121 133.937 86.8379 133.714V134.787C86.4277 134.955 86.0312 135.08 85.6484 135.162C85.2695 135.248 84.9023 135.291 84.5469 135.291C83.5273 135.291 82.7305 134.986 82.1562 134.376C81.582 133.763 81.2949 132.919 81.2949 131.845C81.2949 130.798 81.5762 129.962 82.1387 129.337C82.7012 128.712 83.4512 128.4 84.3887 128.4C85.2246 128.4 85.8828 128.683 86.3633 129.25C86.8477 129.816 87.1055 130.5 87.1367 131.3ZM86.0586 130.984C86.0117 130.531 85.8457 130.14 85.5605 129.812C85.2793 129.48 84.873 129.314 84.3418 129.314C83.8223 129.314 83.3945 129.486 83.0586 129.83C82.7227 130.173 82.5391 130.56 82.5078 130.99L86.0586 130.984ZM89.3184 128.564H91.1465V130.679H89.3184V128.564ZM89.3184 132.988H91.1465V135.121H89.3184V132.988ZM49.4082 150.787C49.1191 150.955 48.8203 151.08 48.5117 151.162C48.207 151.248 47.8945 151.291 47.5742 151.291C46.5586 151.291 45.7637 150.986 45.1895 150.376C44.6191 149.767 44.334 148.923 44.334 147.845C44.334 146.767 44.6191 145.923 45.1895 145.314C45.7637 144.705 46.5586 144.4 47.5742 144.4C47.8906 144.4 48.1992 144.441 48.5 144.523C48.8008 144.605 49.1035 144.732 49.4082 144.904V146.035C49.123 145.781 48.8359 145.597 48.5469 145.484C48.2617 145.371 47.9375 145.314 47.5742 145.314C46.8984 145.314 46.3789 145.533 46.0156 145.97C45.6523 146.408 45.4707 147.033 45.4707 147.845C45.4707 148.654 45.6523 149.279 46.0156 149.72C46.3828 150.158 46.9023 150.376 47.5742 150.376C47.9492 150.376 48.2852 150.32 48.582 150.207C48.8789 150.089 49.1543 149.91 49.4082 149.667V150.787ZM55.123 144.787V145.841C54.8145 145.662 54.5039 145.527 54.1914 145.437C53.8789 145.347 53.5605 145.302 53.2363 145.302C52.748 145.302 52.3828 145.382 52.1406 145.542C51.9023 145.699 51.7832 145.939 51.7832 146.263C51.7832 146.556 51.873 146.775 52.0527 146.919C52.2324 147.064 52.6797 147.205 53.3945 147.341L53.8281 147.423C54.3633 147.525 54.7676 147.728 55.041 148.033C55.3184 148.337 55.457 148.734 55.457 149.222C55.457 149.871 55.2266 150.378 54.7656 150.746C54.3047 151.109 53.6641 151.291 52.8438 151.291C52.5195 151.291 52.1797 151.255 51.8242 151.185C51.4688 151.119 51.084 151.017 50.6699 150.88V149.767C51.0723 149.974 51.457 150.13 51.8242 150.236C52.1914 150.337 52.5391 150.388 52.8672 150.388C53.3438 150.388 53.7129 150.292 53.9746 150.101C54.2363 149.906 54.3672 149.634 54.3672 149.287C54.3672 148.787 53.8887 148.441 52.9316 148.25L52.8848 148.238L52.4805 148.156C51.8594 148.035 51.4062 147.832 51.1211 147.546C50.8359 147.257 50.6934 146.865 50.6934 146.369C50.6934 145.74 50.9062 145.255 51.332 144.916C51.7578 144.572 52.3652 144.4 53.1543 144.4C53.5059 144.4 53.8438 144.433 54.168 144.5C54.4922 144.562 54.8105 144.658 55.123 144.787ZM56.2383 144.558H57.3574L59.2617 150.066L61.1719 144.558H62.291L59.959 151.121H58.5703L56.2383 144.558ZM69.0547 152.234V153.23H61.8828V152.234H69.0547ZM74.8809 145.912C74.6504 145.732 74.416 145.601 74.1777 145.519C73.9395 145.437 73.6777 145.396 73.3926 145.396C72.7207 145.396 72.207 145.607 71.8516 146.029C71.4961 146.451 71.3184 147.06 71.3184 147.857V151.121H70.2344V144.558H71.3184V145.841C71.498 145.376 71.7734 145.021 72.1445 144.775C72.5195 144.525 72.9629 144.4 73.4746 144.4C73.7402 144.4 73.9883 144.433 74.2188 144.5C74.4492 144.566 74.6699 144.669 74.8809 144.81V145.912ZM80.9062 147.3V147.828H76.2363V147.863C76.2051 148.757 76.375 149.4 76.7461 149.791C77.1211 150.181 77.6484 150.376 78.3281 150.376C78.6719 150.376 79.0312 150.322 79.4062 150.212C79.7812 150.103 80.1816 149.937 80.6074 149.714V150.787C80.1973 150.955 79.8008 151.08 79.418 151.162C79.0391 151.248 78.6719 151.291 78.3164 151.291C77.2969 151.291 76.5 150.986 75.9258 150.376C75.3516 149.763 75.0645 148.919 75.0645 147.845C75.0645 146.798 75.3457 145.962 75.9082 145.337C76.4707 144.712 77.2207 144.4 78.1582 144.4C78.9941 144.4 79.6523 144.683 80.1328 145.25C80.6172 145.816 80.875 146.5 80.9062 147.3ZM79.8281 146.984C79.7812 146.531 79.6152 146.14 79.3301 145.812C79.0488 145.48 78.6426 145.314 78.1113 145.314C77.5918 145.314 77.1641 145.486 76.8281 145.83C76.4922 146.173 76.3086 146.56 76.2773 146.99L79.8281 146.984ZM84.6875 147.822H84.3301C83.7012 147.822 83.2266 147.933 82.9062 148.156C82.5898 148.375 82.4316 148.703 82.4316 149.14C82.4316 149.535 82.5508 149.841 82.7891 150.06C83.0273 150.279 83.3574 150.388 83.7793 150.388C84.373 150.388 84.8398 150.183 85.1797 149.773C85.5195 149.359 85.6914 148.789 85.6953 148.062V147.822H84.6875ZM86.7793 147.376V151.121H85.6953V150.148C85.4648 150.539 85.1738 150.828 84.8223 151.015C84.4746 151.199 84.0508 151.291 83.5508 151.291C82.8828 151.291 82.3496 151.103 81.9512 150.728C81.5527 150.349 81.3535 149.843 81.3535 149.21C81.3535 148.48 81.5977 147.925 82.0859 147.546C82.5781 147.167 83.2988 146.978 84.248 146.978H85.6953V146.808C85.6914 146.285 85.5586 145.906 85.2969 145.671C85.0352 145.433 84.6172 145.314 84.043 145.314C83.6758 145.314 83.3047 145.367 82.9297 145.472C82.5547 145.578 82.1895 145.732 81.834 145.935V144.857C82.2324 144.705 82.6133 144.591 82.9766 144.517C83.3438 144.439 83.6992 144.4 84.043 144.4C84.5859 144.4 85.0488 144.48 85.4316 144.64C85.8184 144.8 86.1309 145.041 86.3691 145.361C86.5176 145.556 86.623 145.798 86.6855 146.087C86.748 146.373 86.7793 146.802 86.7793 147.376ZM91.832 145.396V142.003H92.9102V151.121H91.832V150.294C91.6523 150.619 91.4121 150.867 91.1113 151.039C90.8145 151.207 90.4707 151.291 90.0801 151.291C89.2871 151.291 88.6621 150.984 88.2051 150.371C87.752 149.753 87.5254 148.904 87.5254 147.822C87.5254 146.755 87.7539 145.919 88.2109 145.314C88.668 144.705 89.291 144.4 90.0801 144.4C90.4746 144.4 90.8223 144.486 91.123 144.658C91.4238 144.826 91.6602 145.072 91.832 145.396ZM88.6621 147.845C88.6621 148.681 88.7949 149.312 89.0605 149.738C89.3262 150.164 89.7188 150.376 90.2383 150.376C90.7578 150.376 91.1523 150.162 91.4219 149.732C91.6953 149.302 91.832 148.673 91.832 147.845C91.832 147.013 91.6953 146.384 91.4219 145.958C91.1523 145.529 90.7578 145.314 90.2383 145.314C89.7188 145.314 89.3262 145.527 89.0605 145.953C88.7949 146.378 88.6621 147.009 88.6621 147.845ZM99.5977 147.3V147.828H94.9277V147.863C94.8965 148.757 95.0664 149.4 95.4375 149.791C95.8125 150.181 96.3398 150.376 97.0195 150.376C97.3633 150.376 97.7227 150.322 98.0977 150.212C98.4727 150.103 98.873 149.937 99.2988 149.714V150.787C98.8887 150.955 98.4922 151.08 98.1094 151.162C97.7305 151.248 97.3633 151.291 97.0078 151.291C95.9883 151.291 95.1914 150.986 94.6172 150.376C94.043 149.763 93.7559 148.919 93.7559 147.845C93.7559 146.798 94.0371 145.962 94.5996 145.337C95.1621 144.712 95.9121 144.4 96.8496 144.4C97.6855 144.4 98.3438 144.683 98.8242 145.25C99.3086 145.816 99.5664 146.5 99.5977 147.3ZM98.5195 146.984C98.4727 146.531 98.3066 146.14 98.0215 145.812C97.7402 145.48 97.334 145.314 96.8027 145.314C96.2832 145.314 95.8555 145.486 95.5195 145.83C95.1836 146.173 95 146.56 94.9688 146.99L98.5195 146.984ZM106.033 145.912C105.803 145.732 105.568 145.601 105.33 145.519C105.092 145.437 104.83 145.396 104.545 145.396C103.873 145.396 103.359 145.607 103.004 146.029C102.648 146.451 102.471 147.06 102.471 147.857V151.121H101.387V144.558H102.471V145.841C102.65 145.376 102.926 145.021 103.297 144.775C103.672 144.525 104.115 144.4 104.627 144.4C104.893 144.4 105.141 144.433 105.371 144.5C105.602 144.566 105.822 144.669 106.033 144.81V145.912ZM112.242 148.191H118.436V149.181H112.242V148.191ZM112.242 145.431H118.436V146.421H112.242V145.431ZM130.404 150.787C130.115 150.955 129.816 151.08 129.508 151.162C129.203 151.248 128.891 151.291 128.57 151.291C127.555 151.291 126.76 150.986 126.186 150.376C125.615 149.767 125.33 148.923 125.33 147.845C125.33 146.767 125.615 145.923 126.186 145.314C126.76 144.705 127.555 144.4 128.57 144.4C128.887 144.4 129.195 144.441 129.496 144.523C129.797 144.605 130.1 144.732 130.404 144.904V146.035C130.119 145.781 129.832 145.597 129.543 145.484C129.258 145.371 128.934 145.314 128.57 145.314C127.895 145.314 127.375 145.533 127.012 145.97C126.648 146.408 126.467 147.033 126.467 147.845C126.467 148.654 126.648 149.279 127.012 149.72C127.379 150.158 127.898 150.376 128.57 150.376C128.945 150.376 129.281 150.32 129.578 150.207C129.875 150.089 130.15 149.91 130.404 149.667V150.787ZM136.119 144.787V145.841C135.811 145.662 135.5 145.527 135.188 145.437C134.875 145.347 134.557 145.302 134.232 145.302C133.744 145.302 133.379 145.382 133.137 145.542C132.898 145.699 132.779 145.939 132.779 146.263C132.779 146.556 132.869 146.775 133.049 146.919C133.229 147.064 133.676 147.205 134.391 147.341L134.824 147.423C135.359 147.525 135.764 147.728 136.037 148.033C136.314 148.337 136.453 148.734 136.453 149.222C136.453 149.871 136.223 150.378 135.762 150.746C135.301 151.109 134.66 151.291 133.84 151.291C133.516 151.291 133.176 151.255 132.82 151.185C132.465 151.119 132.08 151.017 131.666 150.88V149.767C132.068 149.974 132.453 150.13 132.82 150.236C133.188 150.337 133.535 150.388 133.863 150.388C134.34 150.388 134.709 150.292 134.971 150.101C135.232 149.906 135.363 149.634 135.363 149.287C135.363 148.787 134.885 148.441 133.928 148.25L133.881 148.238L133.477 148.156C132.855 148.035 132.402 147.832 132.117 147.546C131.832 147.257 131.689 146.865 131.689 146.369C131.689 145.74 131.902 145.255 132.328 144.916C132.754 144.572 133.361 144.4 134.15 144.4C134.502 144.4 134.84 144.433 135.164 144.5C135.488 144.562 135.807 144.658 136.119 144.787ZM137.234 144.558H138.354L140.258 150.066L142.168 144.558H143.287L140.955 151.121H139.566L137.234 144.558ZM145.158 148.753H147.221V151.121H145.158V148.753ZM155.877 145.912C155.646 145.732 155.412 145.601 155.174 145.519C154.936 145.437 154.674 145.396 154.389 145.396C153.717 145.396 153.203 145.607 152.848 146.029C152.492 146.451 152.314 147.06 152.314 147.857V151.121H151.23V144.558H152.314V145.841C152.494 145.376 152.77 145.021 153.141 144.775C153.516 144.525 153.959 144.4 154.471 144.4C154.736 144.4 154.984 144.433 155.215 144.5C155.445 144.566 155.666 144.669 155.877 144.81V145.912ZM161.902 147.3V147.828H157.232V147.863C157.201 148.757 157.371 149.4 157.742 149.791C158.117 150.181 158.645 150.376 159.324 150.376C159.668 150.376 160.027 150.322 160.402 150.212C160.777 150.103 161.178 149.937 161.604 149.714V150.787C161.193 150.955 160.797 151.08 160.414 151.162C160.035 151.248 159.668 151.291 159.312 151.291C158.293 151.291 157.496 150.986 156.922 150.376C156.348 149.763 156.061 148.919 156.061 147.845C156.061 146.798 156.342 145.962 156.904 145.337C157.467 144.712 158.217 144.4 159.154 144.4C159.99 144.4 160.648 144.683 161.129 145.25C161.613 145.816 161.871 146.5 161.902 147.3ZM160.824 146.984C160.777 146.531 160.611 146.14 160.326 145.812C160.045 145.48 159.639 145.314 159.107 145.314C158.588 145.314 158.16 145.486 157.824 145.83C157.488 146.173 157.305 146.56 157.273 146.99L160.824 146.984ZM165.684 147.822H165.326C164.697 147.822 164.223 147.933 163.902 148.156C163.586 148.375 163.428 148.703 163.428 149.14C163.428 149.535 163.547 149.841 163.785 150.06C164.023 150.279 164.354 150.388 164.775 150.388C165.369 150.388 165.836 150.183 166.176 149.773C166.516 149.359 166.688 148.789 166.691 148.062V147.822H165.684ZM167.775 147.376V151.121H166.691V150.148C166.461 150.539 166.17 150.828 165.818 151.015C165.471 151.199 165.047 151.291 164.547 151.291C163.879 151.291 163.346 151.103 162.947 150.728C162.549 150.349 162.35 149.843 162.35 149.21C162.35 148.48 162.594 147.925 163.082 147.546C163.574 147.167 164.295 146.978 165.244 146.978H166.691V146.808C166.688 146.285 166.555 145.906 166.293 145.671C166.031 145.433 165.613 145.314 165.039 145.314C164.672 145.314 164.301 145.367 163.926 145.472C163.551 145.578 163.186 145.732 162.83 145.935V144.857C163.229 144.705 163.609 144.591 163.973 144.517C164.34 144.439 164.695 144.4 165.039 144.4C165.582 144.4 166.045 144.48 166.428 144.64C166.814 144.8 167.127 145.041 167.365 145.361C167.514 145.556 167.619 145.798 167.682 146.087C167.744 146.373 167.775 146.802 167.775 147.376ZM172.828 145.396V142.003H173.906V151.121H172.828V150.294C172.648 150.619 172.408 150.867 172.107 151.039C171.811 151.207 171.467 151.291 171.076 151.291C170.283 151.291 169.658 150.984 169.201 150.371C168.748 149.753 168.521 148.904 168.521 147.822C168.521 146.755 168.75 145.919 169.207 145.314C169.664 144.705 170.287 144.4 171.076 144.4C171.471 144.4 171.818 144.486 172.119 144.658C172.42 144.826 172.656 145.072 172.828 145.396ZM169.658 147.845C169.658 148.681 169.791 149.312 170.057 149.738C170.322 150.164 170.715 150.376 171.234 150.376C171.754 150.376 172.148 150.162 172.418 149.732C172.691 149.302 172.828 148.673 172.828 147.845C172.828 147.013 172.691 146.384 172.418 145.958C172.148 145.529 171.754 145.314 171.234 145.314C170.715 145.314 170.322 145.527 170.057 145.953C169.791 146.378 169.658 147.009 169.658 147.845ZM180.594 147.3V147.828H175.924V147.863C175.893 148.757 176.062 149.4 176.434 149.791C176.809 150.181 177.336 150.376 178.016 150.376C178.359 150.376 178.719 150.322 179.094 150.212C179.469 150.103 179.869 149.937 180.295 149.714V150.787C179.885 150.955 179.488 151.08 179.105 151.162C178.727 151.248 178.359 151.291 178.004 151.291C176.984 151.291 176.188 150.986 175.613 150.376C175.039 149.763 174.752 148.919 174.752 147.845C174.752 146.798 175.033 145.962 175.596 145.337C176.158 144.712 176.908 144.4 177.846 144.4C178.682 144.4 179.34 144.683 179.82 145.25C180.305 145.816 180.562 146.5 180.594 147.3ZM179.516 146.984C179.469 146.531 179.303 146.14 179.018 145.812C178.736 145.48 178.33 145.314 177.799 145.314C177.279 145.314 176.852 145.486 176.516 145.83C176.18 146.173 175.996 146.56 175.965 146.99L179.516 146.984ZM187.029 145.912C186.799 145.732 186.564 145.601 186.326 145.519C186.088 145.437 185.826 145.396 185.541 145.396C184.869 145.396 184.355 145.607 184 146.029C183.645 146.451 183.467 147.06 183.467 147.857V151.121H182.383V144.558H183.467V145.841C183.646 145.376 183.922 145.021 184.293 144.775C184.668 144.525 185.111 144.4 185.623 144.4C185.889 144.4 186.137 144.433 186.367 144.5C186.598 144.566 186.818 144.669 187.029 144.81V145.912ZM191.502 141.429C190.982 142.32 190.594 143.208 190.336 144.095C190.082 144.978 189.955 145.869 189.955 146.767C189.955 147.662 190.082 148.552 190.336 149.439C190.594 150.326 190.982 151.218 191.502 152.117H190.564C189.975 151.187 189.535 150.283 189.246 149.404C188.957 148.521 188.812 147.642 188.812 146.767C188.812 145.896 188.957 145.019 189.246 144.136C189.535 143.253 189.975 142.351 190.564 141.429H191.502ZM198.939 150.787C198.65 150.955 198.352 151.08 198.043 151.162C197.738 151.248 197.426 151.291 197.105 151.291C196.09 151.291 195.295 150.986 194.721 150.376C194.15 149.767 193.865 148.923 193.865 147.845C193.865 146.767 194.15 145.923 194.721 145.314C195.295 144.705 196.09 144.4 197.105 144.4C197.422 144.4 197.73 144.441 198.031 144.523C198.332 144.605 198.635 144.732 198.939 144.904V146.035C198.654 145.781 198.367 145.597 198.078 145.484C197.793 145.371 197.469 145.314 197.105 145.314C196.43 145.314 195.91 145.533 195.547 145.97C195.184 146.408 195.002 147.033 195.002 147.845C195.002 148.654 195.184 149.279 195.547 149.72C195.914 150.158 196.434 150.376 197.105 150.376C197.48 150.376 197.816 150.32 198.113 150.207C198.41 150.089 198.686 149.91 198.939 149.667V150.787ZM204.654 144.787V145.841C204.346 145.662 204.035 145.527 203.723 145.437C203.41 145.347 203.092 145.302 202.768 145.302C202.279 145.302 201.914 145.382 201.672 145.542C201.434 145.699 201.314 145.939 201.314 146.263C201.314 146.556 201.404 146.775 201.584 146.919C201.764 147.064 202.211 147.205 202.926 147.341L203.359 147.423C203.895 147.525 204.299 147.728 204.572 148.033C204.85 148.337 204.988 148.734 204.988 149.222C204.988 149.871 204.758 150.378 204.297 150.746C203.836 151.109 203.195 151.291 202.375 151.291C202.051 151.291 201.711 151.255 201.355 151.185C201 151.119 200.615 151.017 200.201 150.88V149.767C200.604 149.974 200.988 150.13 201.355 150.236C201.723 150.337 202.07 150.388 202.398 150.388C202.875 150.388 203.244 150.292 203.506 150.101C203.768 149.906 203.898 149.634 203.898 149.287C203.898 148.787 203.42 148.441 202.463 148.25L202.416 148.238L202.012 148.156C201.391 148.035 200.938 147.832 200.652 147.546C200.367 147.257 200.225 146.865 200.225 146.369C200.225 145.74 200.438 145.255 200.863 144.916C201.289 144.572 201.896 144.4 202.686 144.4C203.037 144.4 203.375 144.433 203.699 144.5C204.023 144.562 204.342 144.658 204.654 144.787ZM205.77 144.558H206.889L208.793 150.066L210.703 144.558H211.822L209.49 151.121H208.102L205.77 144.558ZM217.643 142.003V142.9H216.418C216.031 142.9 215.762 142.98 215.609 143.14C215.461 143.296 215.387 143.576 215.387 143.978V144.558H217.643V145.396H215.387V151.121H214.309V145.396H212.557V144.558H214.309V144.101C214.309 143.382 214.473 142.853 214.801 142.513C215.133 142.173 215.648 142.003 216.348 142.003H217.643ZM219.496 144.582H222.256V150.283H224.395V151.121H219.039V150.283H221.178V145.419H219.496V144.582ZM221.178 142.033H222.256V143.392H221.178V142.033ZM228.088 148.748C228.088 149.232 228.176 149.597 228.352 149.843C228.531 150.089 228.795 150.212 229.143 150.212H230.402V151.121H229.037C228.393 151.121 227.893 150.916 227.537 150.505C227.186 150.091 227.01 149.505 227.01 148.748V142.812H225.281V141.968H228.088V148.748ZM236.668 147.3V147.828H231.998V147.863C231.967 148.757 232.137 149.4 232.508 149.791C232.883 150.181 233.41 150.376 234.09 150.376C234.434 150.376 234.793 150.322 235.168 150.212C235.543 150.103 235.943 149.937 236.369 149.714V150.787C235.959 150.955 235.562 151.08 235.18 151.162C234.801 151.248 234.434 151.291 234.078 151.291C233.059 151.291 232.262 150.986 231.688 150.376C231.113 149.763 230.826 148.919 230.826 147.845C230.826 146.798 231.107 145.962 231.67 145.337C232.232 144.712 232.982 144.4 233.92 144.4C234.756 144.4 235.414 144.683 235.895 145.25C236.379 145.816 236.637 146.5 236.668 147.3ZM235.59 146.984C235.543 146.531 235.377 146.14 235.092 145.812C234.811 145.48 234.404 145.314 233.873 145.314C233.354 145.314 232.926 145.486 232.59 145.83C232.254 146.173 232.07 146.56 232.039 146.99L235.59 146.984ZM238.375 141.429H239.312C239.902 142.351 240.342 143.253 240.631 144.136C240.92 145.019 241.064 145.896 241.064 146.767C241.064 147.646 240.92 148.527 240.631 149.41C240.342 150.292 239.902 151.195 239.312 152.117H238.375C238.895 151.21 239.281 150.314 239.535 149.427C239.793 148.541 239.922 147.654 239.922 146.767C239.922 145.876 239.793 144.988 239.535 144.101C239.281 143.214 238.895 142.324 238.375 141.429ZM93.5723 161.912C93.3418 161.732 93.1074 161.601 92.8691 161.519C92.6309 161.437 92.3691 161.396 92.084 161.396C91.4121 161.396 90.8984 161.607 90.543 162.029C90.1875 162.451 90.0098 163.06 90.0098 163.857V167.121H88.9258V160.558H90.0098V161.841C90.1895 161.376 90.4648 161.021 90.8359 160.775C91.2109 160.525 91.6543 160.4 92.166 160.4C92.4316 160.4 92.6797 160.433 92.9102 160.5C93.1406 160.566 93.3613 160.669 93.5723 160.81V161.912ZM96.6445 161.314C96.0977 161.314 95.6836 161.527 95.4023 161.953C95.1211 162.378 94.9805 163.009 94.9805 163.845C94.9805 164.677 95.1211 165.308 95.4023 165.738C95.6836 166.164 96.0977 166.376 96.6445 166.376C97.1953 166.376 97.6113 166.164 97.8926 165.738C98.1738 165.308 98.3145 164.677 98.3145 163.845C98.3145 163.009 98.1738 162.378 97.8926 161.953C97.6113 161.527 97.1953 161.314 96.6445 161.314ZM96.6445 160.4C97.5547 160.4 98.25 160.695 98.7305 161.285C99.2148 161.875 99.457 162.728 99.457 163.845C99.457 164.966 99.2168 165.822 98.7363 166.412C98.2559 166.998 97.5586 167.291 96.6445 167.291C95.7344 167.291 95.0391 166.998 94.5586 166.412C94.0781 165.822 93.8379 164.966 93.8379 163.845C93.8379 162.728 94.0781 161.875 94.5586 161.285C95.0391 160.695 95.7344 160.4 96.6445 160.4ZM99.2656 160.558H100.332L101.475 165.861L102.412 162.474H103.332L104.281 165.861L105.424 160.558H106.49L104.955 167.121H103.924L102.875 163.523L101.832 167.121H100.801L99.2656 160.558ZM136.635 166.787C136.346 166.955 136.047 167.08 135.738 167.162C135.434 167.248 135.121 167.291 134.801 167.291C133.785 167.291 132.99 166.986 132.416 166.376C131.846 165.767 131.561 164.923 131.561 163.845C131.561 162.767 131.846 161.923 132.416 161.314C132.99 160.705 133.785 160.4 134.801 160.4C135.117 160.4 135.426 160.441 135.727 160.523C136.027 160.605 136.33 160.732 136.635 160.904V162.035C136.35 161.781 136.062 161.597 135.773 161.484C135.488 161.371 135.164 161.314 134.801 161.314C134.125 161.314 133.605 161.533 133.242 161.97C132.879 162.408 132.697 163.033 132.697 163.845C132.697 164.654 132.879 165.279 133.242 165.72C133.609 166.158 134.129 166.376 134.801 166.376C135.176 166.376 135.512 166.32 135.809 166.207C136.105 166.089 136.381 165.91 136.635 165.667V166.787ZM142.35 160.787V161.841C142.041 161.662 141.73 161.527 141.418 161.437C141.105 161.347 140.787 161.302 140.463 161.302C139.975 161.302 139.609 161.382 139.367 161.542C139.129 161.699 139.01 161.939 139.01 162.263C139.01 162.556 139.1 162.775 139.279 162.919C139.459 163.064 139.906 163.205 140.621 163.341L141.055 163.423C141.59 163.525 141.994 163.728 142.268 164.033C142.545 164.337 142.684 164.734 142.684 165.222C142.684 165.871 142.453 166.378 141.992 166.746C141.531 167.109 140.891 167.291 140.07 167.291C139.746 167.291 139.406 167.255 139.051 167.185C138.695 167.119 138.311 167.017 137.896 166.88V165.767C138.299 165.974 138.684 166.13 139.051 166.236C139.418 166.337 139.766 166.388 140.094 166.388C140.57 166.388 140.939 166.292 141.201 166.101C141.463 165.906 141.594 165.634 141.594 165.287C141.594 164.787 141.115 164.441 140.158 164.25L140.111 164.238L139.707 164.156C139.086 164.035 138.633 163.832 138.348 163.546C138.062 163.257 137.92 162.865 137.92 162.369C137.92 161.74 138.133 161.255 138.559 160.916C138.984 160.572 139.592 160.4 140.381 160.4C140.732 160.4 141.07 160.433 141.395 160.5C141.719 160.562 142.037 160.658 142.35 160.787ZM143.465 160.558H144.584L146.488 166.066L148.398 160.558H149.518L147.186 167.121H145.797L143.465 160.558ZM156.281 168.234V169.23H149.109V168.234H156.281ZM162.107 161.912C161.877 161.732 161.643 161.601 161.404 161.519C161.166 161.437 160.904 161.396 160.619 161.396C159.947 161.396 159.434 161.607 159.078 162.029C158.723 162.451 158.545 163.06 158.545 163.857V167.121H157.461V160.558H158.545V161.841C158.725 161.376 159 161.021 159.371 160.775C159.746 160.525 160.189 160.4 160.701 160.4C160.967 160.4 161.215 160.433 161.445 160.5C161.676 160.566 161.896 160.669 162.107 160.81V161.912ZM168.133 163.3V163.828H163.463V163.863C163.432 164.757 163.602 165.4 163.973 165.791C164.348 166.181 164.875 166.376 165.555 166.376C165.898 166.376 166.258 166.322 166.633 166.212C167.008 166.103 167.408 165.937 167.834 165.714V166.787C167.424 166.955 167.027 167.08 166.645 167.162C166.266 167.248 165.898 167.291 165.543 167.291C164.523 167.291 163.727 166.986 163.152 166.376C162.578 165.763 162.291 164.919 162.291 163.845C162.291 162.798 162.572 161.962 163.135 161.337C163.697 160.712 164.447 160.4 165.385 160.4C166.221 160.4 166.879 160.683 167.359 161.25C167.844 161.816 168.102 162.5 168.133 163.3ZM167.055 162.984C167.008 162.531 166.842 162.14 166.557 161.812C166.275 161.48 165.869 161.314 165.338 161.314C164.818 161.314 164.391 161.486 164.055 161.83C163.719 162.173 163.535 162.56 163.504 162.99L167.055 162.984ZM171.914 163.822H171.557C170.928 163.822 170.453 163.933 170.133 164.156C169.816 164.375 169.658 164.703 169.658 165.14C169.658 165.535 169.777 165.841 170.016 166.06C170.254 166.279 170.584 166.388 171.006 166.388C171.6 166.388 172.066 166.183 172.406 165.773C172.746 165.359 172.918 164.789 172.922 164.062V163.822H171.914ZM174.006 163.376V167.121H172.922V166.148C172.691 166.539 172.4 166.828 172.049 167.015C171.701 167.199 171.277 167.291 170.777 167.291C170.109 167.291 169.576 167.103 169.178 166.728C168.779 166.349 168.58 165.843 168.58 165.21C168.58 164.48 168.824 163.925 169.312 163.546C169.805 163.167 170.525 162.978 171.475 162.978H172.922V162.808C172.918 162.285 172.785 161.906 172.523 161.671C172.262 161.433 171.844 161.314 171.27 161.314C170.902 161.314 170.531 161.367 170.156 161.472C169.781 161.578 169.416 161.732 169.061 161.935V160.857C169.459 160.705 169.84 160.591 170.203 160.517C170.57 160.439 170.926 160.4 171.27 160.4C171.812 160.4 172.275 160.48 172.658 160.64C173.045 160.8 173.357 161.041 173.596 161.361C173.744 161.556 173.85 161.798 173.912 162.087C173.975 162.373 174.006 162.802 174.006 163.376ZM179.059 161.396V158.003H180.137V167.121H179.059V166.294C178.879 166.619 178.639 166.867 178.338 167.039C178.041 167.207 177.697 167.291 177.307 167.291C176.514 167.291 175.889 166.984 175.432 166.371C174.979 165.753 174.752 164.904 174.752 163.822C174.752 162.755 174.98 161.919 175.438 161.314C175.895 160.705 176.518 160.4 177.307 160.4C177.701 160.4 178.049 160.486 178.35 160.658C178.65 160.826 178.887 161.072 179.059 161.396ZM175.889 163.845C175.889 164.681 176.021 165.312 176.287 165.738C176.553 166.164 176.945 166.376 177.465 166.376C177.984 166.376 178.379 166.162 178.648 165.732C178.922 165.302 179.059 164.673 179.059 163.845C179.059 163.013 178.922 162.384 178.648 161.958C178.379 161.529 177.984 161.314 177.465 161.314C176.945 161.314 176.553 161.527 176.287 161.953C176.021 162.378 175.889 163.009 175.889 163.845ZM186.824 163.3V163.828H182.154V163.863C182.123 164.757 182.293 165.4 182.664 165.791C183.039 166.181 183.566 166.376 184.246 166.376C184.59 166.376 184.949 166.322 185.324 166.212C185.699 166.103 186.1 165.937 186.525 165.714V166.787C186.115 166.955 185.719 167.08 185.336 167.162C184.957 167.248 184.59 167.291 184.234 167.291C183.215 167.291 182.418 166.986 181.844 166.376C181.27 165.763 180.982 164.919 180.982 163.845C180.982 162.798 181.264 161.962 181.826 161.337C182.389 160.712 183.139 160.4 184.076 160.4C184.912 160.4 185.57 160.683 186.051 161.25C186.535 161.816 186.793 162.5 186.824 163.3ZM185.746 162.984C185.699 162.531 185.533 162.14 185.248 161.812C184.967 161.48 184.561 161.314 184.029 161.314C183.51 161.314 183.082 161.486 182.746 161.83C182.41 162.173 182.227 162.56 182.195 162.99L185.746 162.984ZM193.26 161.912C193.029 161.732 192.795 161.601 192.557 161.519C192.318 161.437 192.057 161.396 191.771 161.396C191.1 161.396 190.586 161.607 190.23 162.029C189.875 162.451 189.697 163.06 189.697 163.857V167.121H188.613V160.558H189.697V161.841C189.877 161.376 190.152 161.021 190.523 160.775C190.898 160.525 191.342 160.4 191.854 160.4C192.119 160.4 192.367 160.433 192.598 160.5C192.828 160.566 193.049 160.669 193.26 160.81V161.912ZM195.236 160.564H197.064V162.679H195.236V160.564ZM195.236 164.988H197.064V167.121H195.236V164.988ZM110.506 173.429C109.986 174.32 109.598 175.208 109.34 176.095C109.086 176.978 108.959 177.869 108.959 178.767C108.959 179.662 109.086 180.552 109.34 181.439C109.598 182.326 109.986 183.218 110.506 184.117H109.568C108.979 183.187 108.539 182.283 108.25 181.404C107.961 180.521 107.816 179.642 107.816 178.767C107.816 177.896 107.961 177.019 108.25 176.136C108.539 175.253 108.979 174.351 109.568 173.429H110.506ZM138.928 180.753H140.99V183.121H138.928V180.753ZM146.395 183.238V177.396H144.537V176.558H147.473V183.238C147.473 184 147.297 184.585 146.945 184.996C146.598 185.41 146.102 185.617 145.457 185.617H143.969V184.703H145.34C145.691 184.703 145.955 184.58 146.131 184.333C146.307 184.091 146.395 183.726 146.395 183.238ZM146.395 174.003H147.473V175.369H146.395V174.003ZM152.719 177.314C152.172 177.314 151.758 177.527 151.477 177.953C151.195 178.378 151.055 179.009 151.055 179.845C151.055 180.677 151.195 181.308 151.477 181.738C151.758 182.164 152.172 182.376 152.719 182.376C153.27 182.376 153.686 182.164 153.967 181.738C154.248 181.308 154.389 180.677 154.389 179.845C154.389 179.009 154.248 178.378 153.967 177.953C153.686 177.527 153.27 177.314 152.719 177.314ZM152.719 176.4C153.629 176.4 154.324 176.695 154.805 177.285C155.289 177.875 155.531 178.728 155.531 179.845C155.531 180.966 155.291 181.822 154.811 182.412C154.33 182.998 153.633 183.291 152.719 183.291C151.809 183.291 151.113 182.998 150.633 182.412C150.152 181.822 149.912 180.966 149.912 179.845C149.912 178.728 150.152 177.875 150.633 177.285C151.113 176.695 151.809 176.4 152.719 176.4ZM157.191 176.582H159.951V182.283H162.09V183.121H156.734V182.283H158.873V177.419H157.191V176.582ZM158.873 174.033H159.951V175.392H158.873V174.033ZM167.729 179.054V183.121H166.645V179.054C166.645 178.464 166.541 178.031 166.334 177.753C166.127 177.476 165.803 177.337 165.361 177.337C164.857 177.337 164.469 177.517 164.195 177.876C163.926 178.232 163.791 178.744 163.791 179.412V183.121H162.713V176.558H163.791V177.542C163.982 177.167 164.242 176.884 164.57 176.693C164.898 176.498 165.287 176.4 165.736 176.4C166.404 176.4 166.902 176.621 167.23 177.062C167.562 177.5 167.729 178.164 167.729 179.054ZM172.811 173.429C172.291 174.32 171.902 175.208 171.645 176.095C171.391 176.978 171.264 177.869 171.264 178.767C171.264 179.662 171.391 180.552 171.645 181.439C171.902 182.326 172.291 183.218 172.811 184.117H171.873C171.283 183.187 170.844 182.283 170.555 181.404C170.266 180.521 170.121 179.642 170.121 178.767C170.121 177.896 170.266 177.019 170.555 176.136C170.844 175.253 171.283 174.351 171.873 173.429H172.811ZM180.799 177.912C180.568 177.732 180.334 177.601 180.096 177.519C179.857 177.437 179.596 177.396 179.311 177.396C178.639 177.396 178.125 177.607 177.77 178.029C177.414 178.451 177.236 179.06 177.236 179.857V183.121H176.152V176.558H177.236V177.841C177.416 177.376 177.691 177.021 178.062 176.775C178.438 176.525 178.881 176.4 179.393 176.4C179.658 176.4 179.906 176.433 180.137 176.5C180.367 176.566 180.588 176.669 180.799 176.81V177.912ZM183.871 177.314C183.324 177.314 182.91 177.527 182.629 177.953C182.348 178.378 182.207 179.009 182.207 179.845C182.207 180.677 182.348 181.308 182.629 181.738C182.91 182.164 183.324 182.376 183.871 182.376C184.422 182.376 184.838 182.164 185.119 181.738C185.4 181.308 185.541 180.677 185.541 179.845C185.541 179.009 185.4 178.378 185.119 177.953C184.838 177.527 184.422 177.314 183.871 177.314ZM183.871 176.4C184.781 176.4 185.477 176.695 185.957 177.285C186.441 177.875 186.684 178.728 186.684 179.845C186.684 180.966 186.443 181.822 185.963 182.412C185.482 182.998 184.785 183.291 183.871 183.291C182.961 183.291 182.266 182.998 181.785 182.412C181.305 181.822 181.064 180.966 181.064 179.845C181.064 178.728 181.305 177.875 181.785 177.285C182.266 176.695 182.961 176.4 183.871 176.4ZM186.492 176.558H187.559L188.701 181.861L189.639 178.474H190.559L191.508 181.861L192.65 176.558H193.717L192.182 183.121H191.15L190.102 179.523L189.059 183.121H188.027L186.492 176.558ZM194.762 173.429H195.699C196.289 174.351 196.729 175.253 197.018 176.136C197.307 177.019 197.451 177.896 197.451 178.767C197.451 179.646 197.307 180.527 197.018 181.41C196.729 182.292 196.289 183.195 195.699 184.117H194.762C195.281 183.21 195.668 182.314 195.922 181.427C196.18 180.541 196.309 179.654 196.309 178.767C196.309 177.876 196.18 176.988 195.922 176.101C195.668 175.214 195.281 174.324 194.762 173.429ZM200.992 173.429H201.93C202.52 174.351 202.959 175.253 203.248 176.136C203.537 177.019 203.682 177.896 203.682 178.767C203.682 179.646 203.537 180.527 203.248 181.41C202.959 182.292 202.52 183.195 201.93 184.117H200.992C201.512 183.21 201.898 182.314 202.152 181.427C202.41 180.541 202.539 179.654 202.539 178.767C202.539 177.876 202.41 176.988 202.152 176.101C201.898 175.214 201.512 174.324 200.992 173.429Z" fill="white"/>
<path d="M86.791 102.787C86.502 102.955 86.2031 103.08 85.8945 103.162C85.5898 103.248 85.2773 103.291 84.957 103.291C83.9414 103.291 83.1465 102.986 82.5723 102.376C82.002 101.767 81.7168 100.923 81.7168 99.8452C81.7168 98.7671 82.002 97.9233 82.5723 97.314C83.1465 96.7046 83.9414 96.3999 84.957 96.3999C85.2734 96.3999 85.582 96.4409 85.8828 96.5229C86.1836 96.605 86.4863 96.7319 86.791 96.9038V98.0347C86.5059 97.7808 86.2188 97.5972 85.9297 97.4839C85.6445 97.3706 85.3203 97.314 84.957 97.314C84.2812 97.314 83.7617 97.5327 83.3984 97.9702C83.0352 98.4077 82.8535 99.0327 82.8535 99.8452C82.8535 100.654 83.0352 101.279 83.3984 101.72C83.7656 102.158 84.2852 102.376 84.957 102.376C85.332 102.376 85.668 102.32 85.9648 102.207C86.2617 102.089 86.5371 101.91 86.791 101.667V102.787ZM92.5059 96.7866V97.8413C92.1973 97.6616 91.8867 97.5269 91.5742 97.437C91.2617 97.3472 90.9434 97.3022 90.6191 97.3022C90.1309 97.3022 89.7656 97.3823 89.5234 97.5425C89.2852 97.6987 89.166 97.939 89.166 98.2632C89.166 98.5562 89.2559 98.7749 89.4355 98.9194C89.6152 99.064 90.0625 99.2046 90.7773 99.3413L91.2109 99.4233C91.7461 99.5249 92.1504 99.728 92.4238 100.033C92.7012 100.337 92.8398 100.734 92.8398 101.222C92.8398 101.871 92.6094 102.378 92.1484 102.746C91.6875 103.109 91.0469 103.291 90.2266 103.291C89.9023 103.291 89.5625 103.255 89.207 103.185C88.8516 103.119 88.4668 103.017 88.0527 102.88V101.767C88.4551 101.974 88.8398 102.13 89.207 102.236C89.5742 102.337 89.9219 102.388 90.25 102.388C90.7266 102.388 91.0957 102.292 91.3574 102.101C91.6191 101.906 91.75 101.634 91.75 101.287C91.75 100.787 91.2715 100.441 90.3145 100.25L90.2676 100.238L89.8633 100.156C89.2422 100.035 88.7891 99.8315 88.5039 99.5464C88.2188 99.2573 88.0762 98.8647 88.0762 98.3687C88.0762 97.7397 88.2891 97.2554 88.7148 96.9155C89.1406 96.5718 89.748 96.3999 90.5371 96.3999C90.8887 96.3999 91.2266 96.4331 91.5508 96.4995C91.875 96.562 92.1934 96.6577 92.5059 96.7866ZM93.6211 96.5581H94.7402L96.6445 102.066L98.5547 96.5581H99.6738L97.3418 103.121H95.9531L93.6211 96.5581ZM103.455 113.455H101.979V112.242L103.127 110.003H104.029L103.455 112.242V113.455ZM109.457 113.226C109.59 112.945 109.758 112.738 109.961 112.605C110.168 112.468 110.416 112.4 110.705 112.4C111.232 112.4 111.604 112.605 111.818 113.015C112.037 113.421 112.146 114.189 112.146 115.318V119.121H111.162V115.365C111.162 114.439 111.109 113.865 111.004 113.642C110.902 113.416 110.715 113.302 110.441 113.302C110.129 113.302 109.914 113.423 109.797 113.666C109.684 113.904 109.627 114.47 109.627 115.365V119.121H108.643V115.365C108.643 114.427 108.586 113.849 108.473 113.63C108.363 113.412 108.164 113.302 107.875 113.302C107.59 113.302 107.391 113.423 107.277 113.666C107.168 113.904 107.113 114.47 107.113 115.365V119.121H106.135V112.558H107.113V113.121C107.242 112.886 107.402 112.708 107.594 112.587C107.789 112.462 108.01 112.4 108.256 112.4C108.553 112.4 108.799 112.468 108.994 112.605C109.193 112.742 109.348 112.949 109.457 113.226ZM116.754 117.011C116.574 117.468 116.346 118.07 116.068 118.816C115.682 119.847 115.422 120.476 115.289 120.703C115.109 121.007 114.885 121.236 114.615 121.388C114.346 121.541 114.031 121.617 113.672 121.617H112.805V120.714H113.443C113.76 120.714 114.008 120.623 114.188 120.439C114.367 120.255 114.596 119.781 114.873 119.015L112.336 112.558H113.479L115.424 117.691L117.34 112.558H118.482L116.754 117.011ZM125.129 120.234V121.23H117.957V120.234H125.129ZM130.416 110.003V110.9H129.191C128.805 110.9 128.535 110.98 128.383 111.14C128.234 111.296 128.16 111.576 128.16 111.978V112.558H130.416V113.396H128.16V119.121H127.082V113.396H125.33V112.558H127.082V112.101C127.082 111.382 127.246 110.853 127.574 110.513C127.906 110.173 128.422 110.003 129.121 110.003H130.416ZM132.27 112.582H135.029V118.283H137.168V119.121H131.812V118.283H133.951V113.419H132.27V112.582ZM133.951 110.033H135.029V111.392H133.951V110.033ZM140.861 116.748C140.861 117.232 140.949 117.597 141.125 117.843C141.305 118.089 141.568 118.212 141.916 118.212H143.176V119.121H141.811C141.166 119.121 140.666 118.916 140.311 118.505C139.959 118.091 139.783 117.505 139.783 116.748V110.812H138.055V109.968H140.861V116.748ZM149.441 115.3V115.828H144.771V115.863C144.74 116.757 144.91 117.4 145.281 117.791C145.656 118.181 146.184 118.376 146.863 118.376C147.207 118.376 147.566 118.322 147.941 118.212C148.316 118.103 148.717 117.937 149.143 117.714V118.787C148.732 118.955 148.336 119.08 147.953 119.162C147.574 119.248 147.207 119.291 146.852 119.291C145.832 119.291 145.035 118.986 144.461 118.376C143.887 117.763 143.6 116.919 143.6 115.845C143.6 114.798 143.881 113.962 144.443 113.337C145.006 112.712 145.756 112.4 146.693 112.4C147.529 112.4 148.188 112.683 148.668 113.25C149.152 113.816 149.41 114.5 149.441 115.3ZM148.363 114.984C148.316 114.531 148.15 114.14 147.865 113.812C147.584 113.48 147.178 113.314 146.646 113.314C146.127 113.314 145.699 113.486 145.363 113.83C145.027 114.173 144.844 114.56 144.812 114.99L148.363 114.984ZM151.389 116.753H153.451V119.121H151.389V116.753ZM161.557 118.787C161.268 118.955 160.969 119.08 160.66 119.162C160.355 119.248 160.043 119.291 159.723 119.291C158.707 119.291 157.912 118.986 157.338 118.376C156.768 117.767 156.482 116.923 156.482 115.845C156.482 114.767 156.768 113.923 157.338 113.314C157.912 112.705 158.707 112.4 159.723 112.4C160.039 112.4 160.348 112.441 160.648 112.523C160.949 112.605 161.252 112.732 161.557 112.904V114.035C161.271 113.781 160.984 113.597 160.695 113.484C160.41 113.371 160.086 113.314 159.723 113.314C159.047 113.314 158.527 113.533 158.164 113.97C157.801 114.408 157.619 115.033 157.619 115.845C157.619 116.654 157.801 117.279 158.164 117.72C158.531 118.158 159.051 118.376 159.723 118.376C160.098 118.376 160.434 118.32 160.73 118.207C161.027 118.089 161.303 117.91 161.557 117.667V118.787ZM162.156 112.558H163.275L165.18 118.066L167.09 112.558H168.209L165.877 119.121H164.488L162.156 112.558ZM173.502 112.787V113.841C173.193 113.662 172.883 113.527 172.57 113.437C172.258 113.347 171.939 113.302 171.615 113.302C171.127 113.302 170.762 113.382 170.52 113.542C170.281 113.699 170.162 113.939 170.162 114.263C170.162 114.556 170.252 114.775 170.432 114.919C170.611 115.064 171.059 115.205 171.773 115.341L172.207 115.423C172.742 115.525 173.146 115.728 173.42 116.033C173.697 116.337 173.836 116.734 173.836 117.222C173.836 117.871 173.605 118.378 173.145 118.746C172.684 119.109 172.043 119.291 171.223 119.291C170.898 119.291 170.559 119.255 170.203 119.185C169.848 119.119 169.463 119.017 169.049 118.88V117.767C169.451 117.974 169.836 118.13 170.203 118.236C170.57 118.337 170.918 118.388 171.246 118.388C171.723 118.388 172.092 118.292 172.354 118.101C172.615 117.906 172.746 117.634 172.746 117.287C172.746 116.787 172.268 116.441 171.311 116.25L171.264 116.238L170.859 116.156C170.238 116.035 169.785 115.832 169.5 115.546C169.215 115.257 169.072 114.865 169.072 114.369C169.072 113.74 169.285 113.255 169.711 112.916C170.137 112.572 170.744 112.4 171.533 112.4C171.885 112.4 172.223 112.433 172.547 112.5C172.871 112.562 173.189 112.658 173.502 112.787ZM177.318 110.003H178.795V111.21L177.641 113.455H176.744L177.318 111.21V110.003Z" fill="#23A9F2"/>
<defs>
<clipPath id="clip0_1640_27399">
<rect width="64" height="16" fill="white" transform="translate(12.5 20.1206)"/>
</clipPath>
</defs>
</svg>
